<?xml version="1.0" encoding="utf-8"?>
<!-- Generator: Adobe Illustrator 15.1.0, SVG Export Plug-In . SVG Version: 6.00 Build 0)  -->
<!DOCTYPE svg PUBLIC "-//W3C//DTD SVG 1.1//EN" "http://www.w3.org/Graphics/SVG/1.1/DTD/svg11.dtd">
<svg version="1.1" id="Layer_1" xmlns="http://www.w3.org/2000/svg" xmlns:xlink="http://www.w3.org/1999/xlink" x="0px" y="0px"
	 width="2518.365px" height="374.672px" viewBox="0 96.46 2518.365 374.672" enable-background="new 0 96.46 2518.365 374.672"
	 xml:space="preserve">
<g id="airplane">
</g>
<g id="background">
	<path opacity="0.6" fill="#BFBDB1" enable-background="new    " d="M2522.934,231.418c0,0-175.949-74.611-203.949-64.111
		s-119,45.5-147,45.5s-94.5-38.5-129.5-28s-112,70-150.5,73.5s-105,0-147,0s-119,21-171.5,31.5s-199.5-7-248.5-28s-105-38.5-168-35
		s-91,14-129.5,3.5c-38.5-10.5-280-59.5-325.5-80.5s-164.5-45.5-199.5-38.5s-24.5,31.5-80.5,24.5s-70-45.5-119-38.5
		s-168,35-213.5,31.5s-94.051,0.084-94.051,0.084l3.051,340.027h2524.2L2522.934,231.418z"/>
	<path opacity="0.11" fill="#606049" enable-background="new    " d="M2072.081,183.004c0,0,42,9.918,56,15.75
		c14,5.834,35.004,12.248,40.836,12.834c5.83,0.584,8.75,0.584,8.75,0.584s-21.582,2.332-31.5-1.168c-9.92-3.5-22.166-9.332-22.75-7
		c-0.586,2.334,12.246,11.668,16.33,13.418s7.588,10.5-12.83-1.168C2106.497,204.588,2072.081,183.004,2072.081,183.004z"/>
	<path opacity="0.11" fill="#606049" enable-background="new    " d="M2451.566,214.418c15.75,8.168,71.166,36.75,71.166,36.75
		v-19.834c0,0-0.011-0.004-0.018-0.008c-5.263-2.224-108.455-45.717-167.281-60.307
		C2373.607,179.008,2438.071,207.42,2451.566,214.418z"/>
</g>
</svg>
