<?xml version="1.0" encoding="utf-8"?>
<!-- Generator: Adobe Illustrator 15.1.0, SVG Export Plug-In . SVG Version: 6.00 Build 0)  -->
<!DOCTYPE svg PUBLIC "-//W3C//DTD SVG 1.1//EN" "http://www.w3.org/Graphics/SVG/1.1/DTD/svg11.dtd">
<svg version="1.1" id="Layer_1" xmlns="http://www.w3.org/2000/svg" xmlns:xlink="http://www.w3.org/1999/xlink" x="0px" y="0px"
	 width="42.167px" height="81.651px" viewBox="0 0 42.167 81.651" enable-background="new 0 0 42.167 81.651" xml:space="preserve">
<path fill="#FFFFFF" d="M24.438,34.614c0,0,8.871-12.646,12.551-20.281c3.687-7.646,5.824-12.32,5.004-13.689
	c-1.979-3.299-6.932,6.97-9.147,10.666C29.449,16.97,22.74,34.333,22.74,34.333L24.438,34.614z"/>
<path fill="#FFFFFF" d="M23.777,36.976c0,0-1.789,16.98-1.506,22.929c0.283,5.942,0.416,21.7,3.182,21.747
	c2.762,0.051,1.631-16.088,1.348-23.729c-0.276-7.646-1.137-20.945-1.137-20.945L23.777,36.976L23.777,36.976z"/>
<path fill="#FFFFFF" d="M21.516,33.202c0,0-8.686-7.556-14.721-15.855C2.832,11.902-0.852,5.552,0,4.136
	C0.848,2.72,10.51,14.603,12.074,16.591c4.149,5.287,6.797,10.568,10.944,16.229L21.516,33.202z"/>
</svg>
