<?xml version="1.0" encoding="utf-8"?>
<!-- Generator: Adobe Illustrator 15.1.0, SVG Export Plug-In . SVG Version: 6.00 Build 0)  -->
<!DOCTYPE svg PUBLIC "-//W3C//DTD SVG 1.1//EN" "http://www.w3.org/Graphics/SVG/1.1/DTD/svg11.dtd">
<svg version="1.1" id="Layer_1" xmlns="http://www.w3.org/2000/svg" xmlns:xlink="http://www.w3.org/1999/xlink" x="0px" y="0px"
	 width="32.676px" height="63.096px" viewBox="0 0 32.676 63.096" enable-background="new 0 0 32.676 63.096" xml:space="preserve">
<path fill="#FFFFFF" d="M18.978,26.748c0,0,6.854-9.768,9.697-15.674c2.843-5.906,4.502-9.52,3.865-10.576
	c-1.531-2.549-5.355,5.383-7.07,8.242c-2.625,4.375-7.805,17.789-7.805,17.789L18.978,26.748z"/>
<path fill="#FFFFFF" d="M18.47,28.574c0,0-1.385,13.121-1.166,17.715s0.32,16.769,2.457,16.808
	c2.137,0.036,1.262-12.433,1.043-18.339c-0.219-5.905-0.879-16.184-0.879-16.184H18.47z"/>
<path fill="#FFFFFF" d="M16.72,25.658c0,0-6.711-5.834-11.375-12.25C2.283,9.201-0.561,4.292,0.095,3.199s8.121,8.086,9.33,9.625
	c3.209,4.084,5.25,8.166,8.459,12.541L16.72,25.658z"/>
</svg>
