<?xml version="1.0" encoding="utf-8"?>
<!-- Generator: Adobe Illustrator 15.1.0, SVG Export Plug-In . SVG Version: 6.00 Build 0)  -->
<!DOCTYPE svg PUBLIC "-//W3C//DTD SVG 1.1//EN" "http://www.w3.org/Graphics/SVG/1.1/DTD/svg11.dtd">
<svg version="1.1" id="Layer_1" xmlns="http://www.w3.org/2000/svg" xmlns:xlink="http://www.w3.org/1999/xlink" x="0px" y="0px"
	 width="44.304px" height="85.54px" viewBox="0 0 44.304 85.54" enable-background="new 0 0 44.304 85.54" xml:space="preserve">
<path fill="#FFFFFF" d="M25.732,36.265c0,0,9.289-13.246,13.146-21.25c3.855-8.014,6.102-12.906,5.242-14.34
	c-2.072-3.457-7.262,7.299-9.588,11.174c-3.562,5.932-10.582,24.117-10.582,24.117L25.732,36.265z"/>
<path fill="#FFFFFF" d="M25.041,38.737c0,0-1.875,17.789-1.578,24.021c0.293,6.227,0.438,22.729,3.332,22.781
	c2.895,0.055,1.709-16.854,1.412-24.855c-0.295-8.012-1.189-21.945-1.189-21.945L25.041,38.737L25.041,38.737z"/>
<path fill="#FFFFFF" d="M22.67,34.784c0,0-9.098-7.909-15.422-16.605C3.1,12.476-0.768,5.824,0.131,4.341
	c0.891-1.484,11.01,10.965,12.646,13.045c4.354,5.541,7.117,11.071,11.471,17.002L22.67,34.784z"/>
</svg>
