<?xml version="1.0" encoding="utf-8"?>
<!-- Generator: Adobe Illustrator 15.1.0, SVG Export Plug-In . SVG Version: 6.00 Build 0)  -->
<!DOCTYPE svg PUBLIC "-//W3C//DTD SVG 1.1//EN" "http://www.w3.org/Graphics/SVG/1.1/DTD/svg11.dtd">
<svg version="1.1" id="Layer_1" xmlns="http://www.w3.org/2000/svg" xmlns:xlink="http://www.w3.org/1999/xlink" x="0px" y="0px"
	 width="2520px" height="348.684px" viewBox="0 0 2520 348.684" enable-background="new 0 0 2520 348.684" xml:space="preserve">
<g id="hill">
	<g>
		<path fill="#FFFFFF" d="M2316.428,123.645c0,0,25.598-1.467,27.068-1.764c1.465-0.295,2.645-2.354,0.584-2.648
			c-2.059-0.295-24.709-0.887-26.77-1.18c-2.062-0.291-5.002,0.889-5.002,2.938C2312.309,123.057,2316.428,123.645,2316.428,123.645
			z"/>
		<polygon fill="#FFFFFF" points="2319.053,225.135 2321.723,120.117 2324.662,120.117 2327.137,225.135 		"/>
		<path opacity="0.4" fill="#404041" enable-background="new    " d="M2313.664,122.51c0,0,1.852,1.043,2.764,1.135
			c0.91,0.092,5.318-0.153,5.318-0.153v1.473h1.717l0.979,100.176h2.694l-2.205-102.133l18.562-1.121c0,0,1.027,0.142,1.521-0.838
			c0.486-0.979-2.2-0.246-2.2-0.246l-27.438,1.226h-2.938L2313.664,122.51z"/>
	</g>
	<ellipse fill="#5F7D43" cx="140.989" cy="70.576" rx="14.875" ry="20.125"/>
	<ellipse fill="#5F7D43" cx="167.239" cy="84.576" rx="16.625" ry="28.875"/>
	<ellipse fill="#5F7D43" cx="194.53" cy="91.427" rx="14" ry="23.625"/>
	<ellipse fill="#5F7D43" cx="321" cy="109.477" rx="12.25" ry="21.875"/>
	<ellipse fill="#5F7D43" cx="183.864" cy="67.951" rx="14.875" ry="19.195"/>
	<g>
		<ellipse fill="#5F7D43" cx="299.113" cy="95.215" rx="16.333" ry="31.5"/>
		<ellipse opacity="0.5" fill="#87AA5A" enable-background="new    " cx="302.61" cy="81.926" rx="9.624" ry="15.863"/>
	</g>
	<g>
		<circle fill="#5F7D43" cx="438.613" cy="121.379" r="14"/>
		<ellipse opacity="0.5" fill="#87AA5A" enable-background="new    " cx="440.958" cy="119.001" rx="9.623" ry="9.916"/>
	</g>
	<path fill="#87AA5A" d="M0,45.107c0,0,119.365,32.729,266.002,51.33c312.668,39.67,800.338,193.672,991.67,221.672
		c191.33,28,235.664,30.334,235.664,30.334H0V45.107z"/>
	<path opacity="0.2" fill="#606049" enable-background="new    " d="M624.73,177.6c66.168,13.771,196.847,48.691,262,66.667
		c12.25,3.38,36.436,11.222,48.666,14.667c30.963,8.724,92.38,27.918,123.334,36.666c31.832,8.996,97.278,19.771,130,24.667
		c63.729,9.536,256.209,28.177,256.209,28.177h49.152c0,0-44.334-2.334-235.664-30.334c-191.332-28-679.002-182.002-991.67-221.672
		C120.126,77.834,0,45.109,0,45.109v6.984c0,0,8.632,4.48,11.396,5.506c11.49,4.244,35.448,9.696,47.332,12.667
		c7.139,1.785,21.555,4.782,28.668,6.667c17.482,4.635,51.605,17.078,69.332,20.667c20.872,4.227,63.633,6.011,84.668,9.333
		c21.18,3.346,62.939,13.303,84,17.333c31.084,5.948,124.666,22,124.666,22S581.297,168.56,624.73,177.6z"/>
	<g>
		<ellipse fill="#5F7D43" cx="1152.408" cy="304.049" rx="21.127" ry="16.156"/>
		<path opacity="0.5" fill="#87AA5A" enable-background="new    " d="M1170.163,296.203c0,4.276-6.463,7.746-14.438,7.746
			s-14.436-3.47-14.436-7.746c0-4.274,6.462-7.744,14.436-7.744C1163.7,288.458,1170.163,291.926,1170.163,296.203z"/>
	</g>
	<ellipse fill="#5F7D43" cx="1176.114" cy="306.135" rx="12.25" ry="21"/>
	<path fill="#606049" d="M671.344,348.443c0,0-64.383-15.414-64.383-31.33c0-24.198,223.602-38.645,223.602-38.645
		s-141.936,18.648-141.936,34.847c0,15.041,163.334,35.128,163.334,35.128H671.344L671.344,348.443z"/>
	<g>
		<rect x="340.149" y="97.464" fill="#46C4D9" width="114.222" height="52.138"/>
		<rect x="341.149" y="98.714" opacity="0.15" enable-background="new    " width="37.222" height="49.638"/>
		<rect x="439.488" y="106.111" fill="#606049" width="8.249" height="8.856"/>
		<rect x="428.238" y="106.111" fill="#606049" width="8.249" height="8.856"/>
		<rect x="385.738" y="119.111" fill="#606049" width="8.248" height="8.857"/>
	</g>
	<g>
		<ellipse fill="#5F7D43" cx="721.75" cy="217.798" rx="7.72" ry="17.645"/>
		<ellipse fill="#5F7D43" cx="737.082" cy="220.897" rx="11.028" ry="21.32"/>
		<ellipse opacity="0.5" fill="#87AA5A" enable-background="new    " cx="737.95" cy="217.147" rx="9.164" ry="15.831"/>
	</g>
	<g>
		<ellipse fill="#5F7D43" cx="605.392" cy="319.588" rx="17.232" ry="24.488"/>
		<ellipse opacity="0.5" fill="#87AA5A" enable-background="new    " cx="607.977" cy="316.124" rx="11.308" ry="19.527"/>
	</g>
	<g>
		<ellipse fill="#5F7D43" cx="578.971" cy="301.776" rx="20.861" ry="40.813"/>
		<ellipse opacity="0.5" fill="#87AA5A" enable-background="new    " cx="580.532" cy="290.42" rx="16.442" ry="30.32"/>
	</g>
	<path fill="#87AA5A" d="M2520,348.443h-736.988c0,0,419.868-124.548,608.373-131.048c40.396-1.394,84.662,2.651,128.615,7.611
		V348.443z"/>
	<g>
		<polygon opacity="0.2" enable-background="new    " points="188.562,150.367 168.625,145.617 188,141.867 197.375,150.324 		"/>
		<g>
			<polygon fill="#606049" points="242.485,137.225 254.449,150.553 269.944,150.531 259.916,139.357 			"/>
			<polygon fill="#606049" points="224.511,135.027 238.469,150.576 253.964,150.554 241.941,137.16 			"/>
			<polygon fill="#606049" points="170.586,128.432 190.526,150.646 206.021,150.625 188.015,130.562 			"/>
			<polygon fill="#606049" points="188.562,130.63 206.506,150.623 222.003,150.6 205.989,132.761 			"/>
			<polygon fill="#606049" points="206.536,132.83 222.489,150.6 237.984,150.576 223.966,134.963 			"/>
			<polygon fill="#606049" points="278.438,141.625 286.411,150.507 301.907,150.484 295.865,143.755 			"/>
			<polygon fill="#606049" points="332.361,148.217 334.352,150.437 349.849,150.414 349.789,150.35 			"/>
			<polygon fill="#606049" points="296.411,143.82 302.391,150.482 317.887,150.46 313.84,145.949 			"/>
			<polygon fill="#606049" points="314.387,146.021 318.372,150.46 333.868,150.437 331.814,148.15 			"/>
			<polygon fill="#606049" points="260.459,139.425 270.431,150.529 285.925,150.507 277.891,141.557 			"/>
			<polygon fill="#606049" points="170.586,128.432 170.038,128.365 190.042,150.646 190.526,150.646 			"/>
			<polygon opacity="0.2" fill="#AEB69A" enable-background="new    " points="170.586,128.432 170.038,128.365 190.042,150.646 
				190.526,150.646 			"/>
			<polygon fill="#606049" points="188.015,130.562 206.021,150.625 206.506,150.623 188.562,130.63 			"/>
			<polygon opacity="0.2" fill="#AEB69A" enable-background="new    " points="188.015,130.562 206.021,150.625 206.506,150.623 
				188.562,130.63 			"/>
			<polygon fill="#606049" points="205.989,132.761 222.003,150.6 222.489,150.6 206.536,132.83 			"/>
			<polygon opacity="0.2" fill="#AEB69A" enable-background="new    " points="205.989,132.761 222.003,150.6 222.489,150.6 
				206.536,132.83 			"/>
			<polygon fill="#606049" points="223.966,134.963 237.984,150.576 238.469,150.576 224.511,135.027 			"/>
			<polygon opacity="0.2" fill="#AEB69A" enable-background="new    " points="223.966,134.963 237.984,150.576 238.469,150.576 
				224.511,135.027 			"/>
			<polygon fill="#606049" points="241.941,137.16 253.964,150.554 254.449,150.553 242.485,137.225 			"/>
			<polygon opacity="0.2" fill="#AEB69A" enable-background="new    " points="241.941,137.16 253.964,150.554 254.449,150.553 
				242.485,137.225 			"/>
			<polygon fill="#606049" points="259.916,139.357 269.944,150.531 270.431,150.529 260.459,139.425 			"/>
			<polygon opacity="0.2" fill="#AEB69A" enable-background="new    " points="259.916,139.357 269.944,150.531 270.431,150.529 
				260.459,139.425 			"/>
			<polygon fill="#606049" points="277.891,141.557 285.925,150.507 286.411,150.507 278.438,141.625 			"/>
			<polygon opacity="0.2" fill="#AEB69A" enable-background="new    " points="277.891,141.557 285.925,150.507 286.411,150.507 
				278.438,141.625 			"/>
			<polygon fill="#606049" points="295.865,143.755 301.907,150.484 302.391,150.482 296.411,143.82 			"/>
			<polygon opacity="0.2" fill="#AEB69A" enable-background="new    " points="295.865,143.755 301.907,150.484 302.391,150.482 
				296.411,143.82 			"/>
			<polygon fill="#606049" points="313.84,145.949 317.887,150.46 318.372,150.46 314.387,146.021 			"/>
			<polygon opacity="0.2" fill="#AEB69A" enable-background="new    " points="313.84,145.949 317.887,150.46 318.372,150.46 
				314.387,146.021 			"/>
			<polygon fill="#606049" points="331.814,148.15 333.868,150.437 334.352,150.437 332.361,148.217 			"/>
			<polygon opacity="0.2" fill="#AEB69A" enable-background="new    " points="331.814,148.15 333.868,150.437 334.352,150.437 
				332.361,148.217 			"/>
			<polygon fill="#606049" points="350.333,150.414 330.331,128.129 330.316,128.13 350.321,150.414 			"/>
			<polygon opacity="0.2" fill="#AEB69A" enable-background="new    " points="350.333,150.414 330.331,128.129 330.316,128.13 
				350.321,150.414 			"/>
			<polygon fill="#606049" points="349.789,150.35 349.849,150.414 350.321,150.414 			"/>
			<polygon opacity="0.2" fill="#AEB69A" enable-background="new    " points="349.789,150.35 349.849,150.414 350.321,150.414 			
				"/>
			<polygon opacity="0.2" fill="#E8E8E8" enable-background="new    " points="170.038,128.365 170.039,128.363 170.026,128.363 			
				"/>
			<polygon fill="#606049" points="259.916,139.357 249.943,128.246 234.446,128.27 242.485,137.225 			"/>
			<polygon opacity="0.2" fill="#E8E8E8" enable-background="new    " points="259.916,139.357 249.943,128.246 234.446,128.27 
				242.485,137.225 			"/>
			<polygon fill="#606049" points="241.941,137.16 233.962,128.27 218.466,128.293 224.511,135.027 			"/>
			<polygon opacity="0.2" fill="#E8E8E8" enable-background="new    " points="241.941,137.16 233.962,128.27 218.466,128.293 
				224.511,135.027 			"/>
			<polygon fill="#606049" points="295.865,143.755 281.904,128.201 266.408,128.223 278.438,141.625 			"/>
			<polygon opacity="0.2" fill="#E8E8E8" enable-background="new    " points="295.865,143.755 281.904,128.201 266.408,128.223 
				278.438,141.625 			"/>
			<polygon fill="#606049" points="277.891,141.557 265.923,128.223 250.427,128.246 260.459,139.425 			"/>
			<polygon opacity="0.2" fill="#E8E8E8" enable-background="new    " points="277.891,141.557 265.923,128.223 250.427,128.246 
				260.459,139.425 			"/>
			<polygon fill="#606049" points="313.84,145.949 297.884,128.177 282.389,128.199 296.411,143.82 			"/>
			<polygon opacity="0.2" fill="#E8E8E8" enable-background="new    " points="313.84,145.949 297.884,128.177 282.389,128.199 
				296.411,143.82 			"/>
			<polygon fill="#606049" points="331.814,148.15 313.865,128.154 298.369,128.176 314.387,146.021 			"/>
			<polygon opacity="0.2" fill="#E8E8E8" enable-background="new    " points="331.814,148.15 313.865,128.154 298.369,128.176 
				314.387,146.021 			"/>
			<polygon fill="#606049" points="188.015,130.562 186.02,128.34 170.523,128.361 170.586,128.432 			"/>
			<polygon opacity="0.2" fill="#E8E8E8" enable-background="new    " points="188.015,130.562 186.02,128.34 170.523,128.361 
				170.586,128.432 			"/>
			<polygon fill="#606049" points="349.789,150.35 329.846,128.13 314.349,128.152 332.361,148.217 			"/>
			<polygon opacity="0.2" fill="#E8E8E8" enable-background="new    " points="349.789,150.35 329.846,128.13 314.349,128.152 
				332.361,148.217 			"/>
			<polygon fill="#606049" points="205.989,132.761 202,128.316 186.504,128.339 188.562,130.63 			"/>
			<polygon opacity="0.2" fill="#E8E8E8" enable-background="new    " points="205.989,132.761 202,128.316 186.504,128.339 
				188.562,130.63 			"/>
			<polygon fill="#606049" points="223.966,134.963 217.98,128.293 202.485,128.316 206.536,132.83 			"/>
			<polygon opacity="0.2" fill="#E8E8E8" enable-background="new    " points="223.966,134.963 217.98,128.293 202.485,128.316 
				206.536,132.83 			"/>
			<polygon fill="#606049" points="170.586,128.432 170.523,128.361 170.039,128.363 170.038,128.365 			"/>
			<polygon opacity="0.2" fill="#AEB69A" enable-background="new    " points="170.586,128.432 170.523,128.361 170.039,128.363 
				170.038,128.365 			"/>
			<polygon opacity="0.2" fill="#E8E8E8" enable-background="new    " points="170.586,128.432 170.523,128.361 170.039,128.363 
				170.038,128.365 			"/>
			<polygon fill="#606049" points="188.562,130.63 186.504,128.339 186.02,128.34 188.015,130.562 			"/>
			<polygon opacity="0.2" fill="#AEB69A" enable-background="new    " points="188.562,130.63 186.504,128.339 186.02,128.34 
				188.015,130.562 			"/>
			<polygon opacity="0.2" fill="#E8E8E8" enable-background="new    " points="188.562,130.63 186.504,128.339 186.02,128.34 
				188.015,130.562 			"/>
			<polygon fill="#606049" points="206.536,132.83 202.485,128.316 202,128.316 205.989,132.761 			"/>
			<polygon opacity="0.2" fill="#AEB69A" enable-background="new    " points="206.536,132.83 202.485,128.316 202,128.316 
				205.989,132.761 			"/>
			<polygon opacity="0.2" fill="#E8E8E8" enable-background="new    " points="206.536,132.83 202.485,128.316 202,128.316 
				205.989,132.761 			"/>
			<polygon fill="#606049" points="224.511,135.027 218.466,128.293 217.98,128.293 223.966,134.963 			"/>
			<polygon opacity="0.2" fill="#AEB69A" enable-background="new    " points="224.511,135.027 218.466,128.293 217.98,128.293 
				223.966,134.963 			"/>
			<polygon opacity="0.2" fill="#E8E8E8" enable-background="new    " points="224.511,135.027 218.466,128.293 217.98,128.293 
				223.966,134.963 			"/>
			<polygon fill="#606049" points="242.485,137.225 234.446,128.27 233.962,128.27 241.941,137.16 			"/>
			<polygon opacity="0.2" fill="#AEB69A" enable-background="new    " points="242.485,137.225 234.446,128.27 233.962,128.27 
				241.941,137.16 			"/>
			<polygon opacity="0.2" fill="#E8E8E8" enable-background="new    " points="242.485,137.225 234.446,128.27 233.962,128.27 
				241.941,137.16 			"/>
			<polygon fill="#606049" points="260.459,139.425 250.427,128.246 249.943,128.246 259.916,139.357 			"/>
			<polygon opacity="0.2" fill="#AEB69A" enable-background="new    " points="260.459,139.425 250.427,128.246 249.943,128.246 
				259.916,139.357 			"/>
			<polygon opacity="0.2" fill="#E8E8E8" enable-background="new    " points="260.459,139.425 250.427,128.246 249.943,128.246 
				259.916,139.357 			"/>
			<polygon fill="#606049" points="278.438,141.625 266.408,128.223 265.923,128.223 277.891,141.557 			"/>
			<polygon opacity="0.2" fill="#AEB69A" enable-background="new    " points="278.438,141.625 266.408,128.223 265.923,128.223 
				277.891,141.557 			"/>
			<polygon opacity="0.2" fill="#E8E8E8" enable-background="new    " points="278.438,141.625 266.408,128.223 265.923,128.223 
				277.891,141.557 			"/>
			<polygon fill="#606049" points="296.411,143.82 282.389,128.199 281.904,128.201 295.865,143.755 			"/>
			<polygon opacity="0.2" fill="#AEB69A" enable-background="new    " points="296.411,143.82 282.389,128.199 281.904,128.201 
				295.865,143.755 			"/>
			<polygon opacity="0.2" fill="#E8E8E8" enable-background="new    " points="296.411,143.82 282.389,128.199 281.904,128.201 
				295.865,143.755 			"/>
			<polygon fill="#606049" points="314.387,146.021 298.369,128.176 297.884,128.177 313.84,145.949 			"/>
			<polygon opacity="0.2" fill="#AEB69A" enable-background="new    " points="314.387,146.021 298.369,128.176 297.884,128.177 
				313.84,145.949 			"/>
			<polygon opacity="0.2" fill="#E8E8E8" enable-background="new    " points="314.387,146.021 298.369,128.176 297.884,128.177 
				313.84,145.949 			"/>
			<polygon fill="#606049" points="332.361,148.217 314.349,128.152 313.865,128.154 331.814,148.15 			"/>
			<polygon opacity="0.2" fill="#AEB69A" enable-background="new    " points="332.361,148.217 314.349,128.152 313.865,128.154 
				331.814,148.15 			"/>
			<polygon opacity="0.2" fill="#E8E8E8" enable-background="new    " points="332.361,148.217 314.349,128.152 313.865,128.154 
				331.814,148.15 			"/>
			<polygon fill="#606049" points="350.321,150.414 330.316,128.13 329.846,128.13 349.789,150.35 			"/>
			<polygon opacity="0.2" fill="#AEB69A" enable-background="new    " points="350.321,150.414 330.316,128.13 329.846,128.13 
				349.789,150.35 			"/>
			<polygon opacity="0.2" fill="#E8E8E8" enable-background="new    " points="350.321,150.414 330.316,128.13 329.846,128.13 
				349.789,150.35 			"/>
		</g>
	</g>
	<path opacity="0.2" fill="#606049" enable-background="new    " d="M2520,240.807c-16.104-1.456-30.602-2.548-43.094-3.115
		c-88-4-354.001,42-452.001,66s-207.604,44.992-207.604,44.992h-33.9c0,0,419.836-124.715,608.342-131.215
		c40.215-1.387,84.492,2.617,128.258,7.547V240.807z"/>
	<g>
		<circle fill="#606049" cx="709.04" cy="250.621" r="2.434"/>
		<polygon fill="#606049" points="712.752,253.566 705.838,253.566 704.301,264.578 705.838,264.578 707.887,274.822 
			709.422,274.822 709.68,267.65 712.239,274.311 713.521,274.311 712.239,264.322 712.239,260.994 714.801,258.688 		"/>
	</g>
	<g>
		<circle fill="#606049" cx="689.188" cy="257.72" r="2.965"/>
		<polygon fill="#606049" points="684.215,261.492 692.645,261.492 694.516,274.918 692.645,274.918 690.145,287.404 
			688.271,287.404 687.961,278.664 684.838,286.779 683.278,286.779 684.838,274.605 684.838,270.545 681.717,267.736 		"/>
	</g>
	<g>
		<rect x="958.896" y="223.207" fill="#FBAE18" width="40.229" height="13.153"/>
		<rect x="959.152" y="223.719" opacity="0.2" fill="#606049" enable-background="new    " width="21.218" height="12.643"/>
		<rect x="797.893" y="180.557" fill="#FBAE18" width="17.959" height="21.551"/>
		<rect x="797.893" y="183.225" opacity="0.2" fill="#606049" enable-background="new    " width="10.442" height="18.392"/>
		<rect x="754.924" y="235.636" fill="#FBAE18" width="372.119" height="73.271"/>
		<rect x="754.424" y="197.636" fill="#FBAE18" width="182.119" height="111.271"/>
		<polygon opacity="0.15" fill="#606049" enable-background="new    " points="756.361,308.911 1046.583,308.911 1046.583,238.51 
			855.381,238.51 855.381,200.219 756.361,200.219 756.361,238.51 		"/>
		<rect x="1076.755" y="290.025" fill="#606049" width="8.621" height="10.062"/>
		<rect x="1093.637" y="290.025" fill="#606049" width="8.621" height="10.062"/>
		<rect x="1110.52" y="290.025" fill="#606049" width="8.62" height="10.062"/>
		<rect x="767.027" y="290.025" fill="#606049" width="8.621" height="10.058"/>
		<rect x="1029.381" y="267.984" fill="#606049" width="8.621" height="10.062"/>
		<rect x="1029.381" y="246.289" fill="#606049" width="8.62" height="10.061"/>
		<rect x="995.258" y="246.289" fill="#606049" width="8.621" height="10.061"/>
		<rect x="790.015" y="290.025" fill="#606049" width="8.622" height="10.058"/>
		<rect x="858.752" y="246.289" fill="#606049" width="8.621" height="10.061"/>
	</g>
	<g>
		<path fill="#FFFFFF" d="M2452.348,169.752c0,0,15.125-0.867,15.996-1.043c0.863-0.178,1.562-1.396,0.344-1.564
			c-1.215-0.174-14.602-0.522-15.815-0.697c-1.22-0.172-2.957,0.527-2.957,1.74C2449.91,169.404,2452.348,169.752,2452.348,169.752z
			"/>
		<polygon fill="#FFFFFF" points="2453.895,229.73 2455.475,167.668 2457.211,167.668 2458.674,229.73 		"/>
		<path opacity="0.4" fill="#404041" enable-background="new    " d="M2450.711,169.083c0,0,1.096,0.611,1.637,0.67
			c0.535,0.055,3.146-0.095,3.146-0.095v0.868h1.016l0.578,59.2h1.592l-1.303-60.354l10.973-0.664c0,0,0.605,0.082,0.898-0.494
			c0.287-0.582-1.31-0.146-1.31-0.146l-16.213,0.727h-1.731L2450.711,169.083z"/>
	</g>
	<g>
		<path fill="#FFFFFF" d="M2243.742,148.037c0,0,33.127-1.896,35.027-2.277c1.896-0.381,3.424-3.047,0.758-3.434
			c-2.662-0.38-31.979-1.146-34.646-1.523c-2.662-0.375-6.473,1.148-6.473,3.811C2238.41,147.275,2243.742,148.037,2243.742,148.037
			z"/>
		<polygon fill="#FFFFFF" points="2247.139,279.385 2250.592,143.471 2254.395,143.471 2257.598,279.385 		"/>
		<path opacity="0.4" fill="#404041" enable-background="new    " d="M2240.164,146.568c0,0,2.395,1.354,3.578,1.47
			c1.176,0.121,6.879-0.197,6.879-0.197v1.9h2.223l1.266,129.646h3.488l-2.85-132.184l24.021-1.445c0,0,1.332,0.18,1.97-1.084
			c0.637-1.271-2.853-0.318-2.853-0.318l-35.506,1.582h-3.804L2240.164,146.568z"/>
	</g>
	<g>
		<path fill="#FFFFFF" d="M2387.971,156.475c0,0,34.703-1.99,36.691-2.389c1.992-0.4,3.59-3.193,0.797-3.596
			c-2.789-0.396-33.5-1.197-36.293-1.602c-2.789-0.396-6.781,1.207-6.781,3.992C2382.385,155.678,2387.971,156.475,2387.971,156.475
			z"/>
		<polygon fill="#FFFFFF" points="2391.529,294.07 2395.145,151.691 2399.131,151.691 2402.486,294.07 		"/>
		<path opacity="0.4" fill="#404041" enable-background="new    " d="M2384.221,154.936c0,0,2.512,1.416,3.75,1.539
			c1.23,0.127,7.205-0.213,7.205-0.213v1.996h2.33l1.324,135.812h3.656L2399.5,155.6l25.162-1.516c0,0,1.398,0.188,2.064-1.141
			c0.664-1.332-2.986-0.334-2.986-0.334l-37.195,1.662h-3.984L2384.221,154.936z"/>
	</g>
	<g>
		<polygon opacity="0.2" enable-background="new    " points="307.562,176.867 287.625,172.117 307,168.367 316.375,176.824 		"/>
		<g>
			<polygon fill="#606049" points="361.485,163.725 373.449,177.053 388.943,177.031 378.916,165.857 			"/>
			<polygon fill="#606049" points="343.511,161.527 357.469,177.076 372.964,177.054 360.941,163.66 			"/>
			<polygon fill="#606049" points="289.586,154.932 309.526,177.146 325.021,177.125 307.015,157.062 			"/>
			<polygon fill="#606049" points="307.562,157.13 325.506,177.124 341.003,177.1 324.989,159.261 			"/>
			<polygon fill="#606049" points="325.536,159.33 341.489,177.1 356.984,177.078 342.966,161.463 			"/>
			<polygon fill="#606049" points="397.438,168.125 405.411,177.007 420.907,176.984 414.865,170.255 			"/>
			<polygon fill="#606049" points="451.361,174.717 453.352,176.937 468.849,176.914 468.789,176.85 			"/>
			<polygon fill="#606049" points="415.411,170.32 421.391,176.984 436.887,176.96 432.84,172.449 			"/>
			<polygon fill="#606049" points="433.387,172.521 437.372,176.96 452.868,176.938 450.814,174.652 			"/>
			<polygon fill="#606049" points="379.459,165.925 389.432,177.031 404.925,177.007 396.891,168.057 			"/>
			<polygon fill="#606049" points="289.586,154.932 289.038,154.865 309.042,177.146 309.526,177.146 			"/>
			<polygon opacity="0.2" fill="#AEB69A" enable-background="new    " points="289.586,154.932 289.038,154.865 309.042,177.146 
				309.526,177.146 			"/>
			<polygon fill="#606049" points="307.015,157.062 325.021,177.125 325.506,177.124 307.562,157.13 			"/>
			<polygon opacity="0.2" fill="#AEB69A" enable-background="new    " points="307.015,157.062 325.021,177.125 325.506,177.124 
				307.562,157.13 			"/>
			<polygon fill="#606049" points="324.989,159.261 341.003,177.1 341.489,177.1 325.536,159.33 			"/>
			<polygon opacity="0.2" fill="#AEB69A" enable-background="new    " points="324.989,159.261 341.003,177.1 341.489,177.1 
				325.536,159.33 			"/>
			<polygon fill="#606049" points="342.966,161.463 356.984,177.078 357.469,177.076 343.511,161.527 			"/>
			<polygon opacity="0.2" fill="#AEB69A" enable-background="new    " points="342.966,161.463 356.984,177.078 357.469,177.076 
				343.511,161.527 			"/>
			<polygon fill="#606049" points="360.941,163.66 372.964,177.054 373.449,177.053 361.485,163.725 			"/>
			<polygon opacity="0.2" fill="#AEB69A" enable-background="new    " points="360.941,163.66 372.964,177.054 373.449,177.053 
				361.485,163.725 			"/>
			<polygon fill="#606049" points="378.916,165.857 388.943,177.031 389.432,177.031 379.459,165.925 			"/>
			<polygon opacity="0.2" fill="#AEB69A" enable-background="new    " points="378.916,165.857 388.943,177.031 389.432,177.031 
				379.459,165.925 			"/>
			<polygon fill="#606049" points="396.891,168.057 404.925,177.007 405.411,177.007 397.438,168.125 			"/>
			<polygon opacity="0.2" fill="#AEB69A" enable-background="new    " points="396.891,168.057 404.925,177.007 405.411,177.007 
				397.438,168.125 			"/>
			<polygon fill="#606049" points="414.865,170.255 420.907,176.984 421.391,176.984 415.411,170.32 			"/>
			<polygon opacity="0.2" fill="#AEB69A" enable-background="new    " points="414.865,170.255 420.907,176.984 421.391,176.984 
				415.411,170.32 			"/>
			<polygon fill="#606049" points="432.84,172.449 436.887,176.96 437.372,176.96 433.387,172.521 			"/>
			<polygon opacity="0.2" fill="#AEB69A" enable-background="new    " points="432.84,172.449 436.887,176.96 437.372,176.96 
				433.387,172.521 			"/>
			<polygon fill="#606049" points="450.814,174.652 452.868,176.938 453.352,176.937 451.361,174.717 			"/>
			<polygon opacity="0.2" fill="#AEB69A" enable-background="new    " points="450.814,174.652 452.868,176.938 453.352,176.937 
				451.361,174.717 			"/>
			<polygon fill="#606049" points="469.333,176.914 449.331,154.629 449.316,154.63 469.321,176.914 			"/>
			<polygon opacity="0.2" fill="#AEB69A" enable-background="new    " points="469.333,176.914 449.331,154.629 449.316,154.63 
				469.321,176.914 			"/>
			<polygon fill="#606049" points="468.789,176.85 468.849,176.914 469.321,176.914 			"/>
			<polygon opacity="0.2" fill="#AEB69A" enable-background="new    " points="468.789,176.85 468.849,176.914 469.321,176.914 			
				"/>
			<polygon opacity="0.2" fill="#E8E8E8" enable-background="new    " points="289.038,154.865 289.039,154.863 289.026,154.863 			
				"/>
			<polygon fill="#606049" points="378.916,165.857 368.943,154.746 353.446,154.77 361.485,163.725 			"/>
			<polygon opacity="0.2" fill="#E8E8E8" enable-background="new    " points="378.916,165.857 368.943,154.746 353.446,154.77 
				361.485,163.725 			"/>
			<polygon fill="#606049" points="360.941,163.66 352.962,154.77 337.466,154.793 343.511,161.527 			"/>
			<polygon opacity="0.2" fill="#E8E8E8" enable-background="new    " points="360.941,163.66 352.962,154.77 337.466,154.793 
				343.511,161.527 			"/>
			<polygon fill="#606049" points="414.865,170.255 400.904,154.701 385.408,154.723 397.438,168.125 			"/>
			<polygon opacity="0.2" fill="#E8E8E8" enable-background="new    " points="414.865,170.255 400.904,154.701 385.408,154.723 
				397.438,168.125 			"/>
			<polygon fill="#606049" points="396.891,168.057 384.923,154.723 369.427,154.746 379.459,165.925 			"/>
			<polygon opacity="0.2" fill="#E8E8E8" enable-background="new    " points="396.891,168.057 384.923,154.723 369.427,154.746 
				379.459,165.925 			"/>
			<polygon fill="#606049" points="432.84,172.449 416.884,154.677 401.389,154.699 415.411,170.32 			"/>
			<polygon opacity="0.2" fill="#E8E8E8" enable-background="new    " points="432.84,172.449 416.884,154.677 401.389,154.699 
				415.411,170.32 			"/>
			<polygon fill="#606049" points="450.814,174.652 432.865,154.654 417.369,154.676 433.387,172.521 			"/>
			<polygon opacity="0.2" fill="#E8E8E8" enable-background="new    " points="450.814,174.652 432.865,154.654 417.369,154.676 
				433.387,172.521 			"/>
			<polygon fill="#606049" points="307.015,157.062 305.02,154.84 289.523,154.861 289.586,154.932 			"/>
			<polygon opacity="0.2" fill="#E8E8E8" enable-background="new    " points="307.015,157.062 305.02,154.84 289.523,154.861 
				289.586,154.932 			"/>
			<polygon fill="#606049" points="468.789,176.85 448.846,154.63 433.349,154.652 451.361,174.717 			"/>
			<polygon opacity="0.2" fill="#E8E8E8" enable-background="new    " points="468.789,176.85 448.846,154.63 433.349,154.652 
				451.361,174.717 			"/>
			<polygon fill="#606049" points="324.989,159.261 321,154.816 305.504,154.839 307.562,157.13 			"/>
			<polygon opacity="0.2" fill="#E8E8E8" enable-background="new    " points="324.989,159.261 321,154.816 305.504,154.839 
				307.562,157.13 			"/>
			<polygon fill="#606049" points="342.966,161.463 336.98,154.793 321.485,154.816 325.536,159.33 			"/>
			<polygon opacity="0.2" fill="#E8E8E8" enable-background="new    " points="342.966,161.463 336.98,154.793 321.485,154.816 
				325.536,159.33 			"/>
			<polygon fill="#606049" points="289.586,154.932 289.523,154.861 289.039,154.863 289.038,154.865 			"/>
			<polygon opacity="0.2" fill="#AEB69A" enable-background="new    " points="289.586,154.932 289.523,154.861 289.039,154.863 
				289.038,154.865 			"/>
			<polygon opacity="0.2" fill="#E8E8E8" enable-background="new    " points="289.586,154.932 289.523,154.861 289.039,154.863 
				289.038,154.865 			"/>
			<polygon fill="#606049" points="307.562,157.13 305.504,154.839 305.02,154.84 307.015,157.062 			"/>
			<polygon opacity="0.2" fill="#AEB69A" enable-background="new    " points="307.562,157.13 305.504,154.839 305.02,154.84 
				307.015,157.062 			"/>
			<polygon opacity="0.2" fill="#E8E8E8" enable-background="new    " points="307.562,157.13 305.504,154.839 305.02,154.84 
				307.015,157.062 			"/>
			<polygon fill="#606049" points="325.536,159.33 321.485,154.816 321,154.816 324.989,159.261 			"/>
			<polygon opacity="0.2" fill="#AEB69A" enable-background="new    " points="325.536,159.33 321.485,154.816 321,154.816 
				324.989,159.261 			"/>
			<polygon opacity="0.2" fill="#E8E8E8" enable-background="new    " points="325.536,159.33 321.485,154.816 321,154.816 
				324.989,159.261 			"/>
			<polygon fill="#606049" points="343.511,161.527 337.466,154.793 336.98,154.793 342.966,161.463 			"/>
			<polygon opacity="0.2" fill="#AEB69A" enable-background="new    " points="343.511,161.527 337.466,154.793 336.98,154.793 
				342.966,161.463 			"/>
			<polygon opacity="0.2" fill="#E8E8E8" enable-background="new    " points="343.511,161.527 337.466,154.793 336.98,154.793 
				342.966,161.463 			"/>
			<polygon fill="#606049" points="361.485,163.725 353.446,154.77 352.962,154.77 360.941,163.66 			"/>
			<polygon opacity="0.2" fill="#AEB69A" enable-background="new    " points="361.485,163.725 353.446,154.77 352.962,154.77 
				360.941,163.66 			"/>
			<polygon opacity="0.2" fill="#E8E8E8" enable-background="new    " points="361.485,163.725 353.446,154.77 352.962,154.77 
				360.941,163.66 			"/>
			<polygon fill="#606049" points="379.459,165.925 369.427,154.746 368.943,154.746 378.916,165.857 			"/>
			<polygon opacity="0.2" fill="#AEB69A" enable-background="new    " points="379.459,165.925 369.427,154.746 368.943,154.746 
				378.916,165.857 			"/>
			<polygon opacity="0.2" fill="#E8E8E8" enable-background="new    " points="379.459,165.925 369.427,154.746 368.943,154.746 
				378.916,165.857 			"/>
			<polygon fill="#606049" points="397.438,168.125 385.408,154.723 384.923,154.723 396.891,168.057 			"/>
			<polygon opacity="0.2" fill="#AEB69A" enable-background="new    " points="397.438,168.125 385.408,154.723 384.923,154.723 
				396.891,168.057 			"/>
			<polygon opacity="0.2" fill="#E8E8E8" enable-background="new    " points="397.438,168.125 385.408,154.723 384.923,154.723 
				396.891,168.057 			"/>
			<polygon fill="#606049" points="415.411,170.32 401.389,154.699 400.904,154.701 414.865,170.255 			"/>
			<polygon opacity="0.2" fill="#AEB69A" enable-background="new    " points="415.411,170.32 401.389,154.699 400.904,154.701 
				414.865,170.255 			"/>
			<polygon opacity="0.2" fill="#E8E8E8" enable-background="new    " points="415.411,170.32 401.389,154.699 400.904,154.701 
				414.865,170.255 			"/>
			<polygon fill="#606049" points="433.387,172.521 417.369,154.676 416.884,154.677 432.84,172.449 			"/>
			<polygon opacity="0.2" fill="#AEB69A" enable-background="new    " points="433.387,172.521 417.369,154.676 416.884,154.677 
				432.84,172.449 			"/>
			<polygon opacity="0.2" fill="#E8E8E8" enable-background="new    " points="433.387,172.521 417.369,154.676 416.884,154.677 
				432.84,172.449 			"/>
			<polygon fill="#606049" points="451.361,174.717 433.349,154.652 432.865,154.654 450.814,174.652 			"/>
			<polygon opacity="0.2" fill="#AEB69A" enable-background="new    " points="451.361,174.717 433.349,154.652 432.865,154.654 
				450.814,174.652 			"/>
			<polygon opacity="0.2" fill="#E8E8E8" enable-background="new    " points="451.361,174.717 433.349,154.652 432.865,154.654 
				450.814,174.652 			"/>
			<polygon fill="#606049" points="469.321,176.914 449.316,154.63 448.846,154.63 468.789,176.85 			"/>
			<polygon opacity="0.2" fill="#AEB69A" enable-background="new    " points="469.321,176.914 449.316,154.63 448.846,154.63 
				468.789,176.85 			"/>
			<polygon opacity="0.2" fill="#E8E8E8" enable-background="new    " points="469.321,176.914 449.316,154.63 448.846,154.63 
				468.789,176.85 			"/>
		</g>
	</g>
	<g>
		<polygon opacity="0.2" enable-background="new    " points="426.562,203.367 406.625,198.617 426,194.867 435.375,203.324 		"/>
		<g>
			<polygon fill="#606049" points="480.485,190.225 492.449,203.553 507.944,203.531 497.916,192.357 			"/>
			<polygon fill="#606049" points="462.511,188.027 476.469,203.576 491.964,203.554 479.941,190.16 			"/>
			<polygon fill="#606049" points="408.586,181.432 428.526,203.646 444.021,203.625 426.015,183.564 			"/>
			<polygon fill="#606049" points="426.562,183.63 444.506,203.623 460.003,203.6 443.989,185.761 			"/>
			<polygon fill="#606049" points="444.536,185.83 460.489,203.599 475.984,203.578 461.966,187.963 			"/>
			<polygon fill="#606049" points="516.438,194.624 524.411,203.507 539.907,203.484 533.865,196.755 			"/>
			<polygon fill="#606049" points="570.361,201.217 572.352,203.437 587.849,203.414 587.789,203.349 			"/>
			<polygon fill="#606049" points="534.411,196.82 540.391,203.484 555.887,203.46 551.84,198.951 			"/>
			<polygon fill="#606049" points="552.387,199.021 556.372,203.46 571.868,203.437 569.814,201.152 			"/>
			<polygon fill="#606049" points="498.459,192.425 508.431,203.531 523.925,203.507 515.891,194.556 			"/>
			<polygon fill="#606049" points="408.586,181.432 408.038,181.365 428.042,203.646 428.526,203.646 			"/>
			<polygon opacity="0.2" fill="#AEB69A" enable-background="new    " points="408.586,181.432 408.038,181.365 428.042,203.646 
				428.526,203.646 			"/>
			<polygon fill="#606049" points="426.015,183.564 444.021,203.625 444.506,203.623 426.562,183.63 			"/>
			<polygon opacity="0.2" fill="#AEB69A" enable-background="new    " points="426.015,183.564 444.021,203.625 444.506,203.623 
				426.562,183.63 			"/>
			<polygon fill="#606049" points="443.989,185.761 460.003,203.6 460.489,203.599 444.536,185.83 			"/>
			<polygon opacity="0.2" fill="#AEB69A" enable-background="new    " points="443.989,185.761 460.003,203.6 460.489,203.599 
				444.536,185.83 			"/>
			<polygon fill="#606049" points="461.966,187.963 475.984,203.578 476.469,203.576 462.511,188.027 			"/>
			<polygon opacity="0.2" fill="#AEB69A" enable-background="new    " points="461.966,187.963 475.984,203.578 476.469,203.576 
				462.511,188.027 			"/>
			<polygon fill="#606049" points="479.941,190.16 491.964,203.554 492.449,203.553 480.485,190.225 			"/>
			<polygon opacity="0.2" fill="#AEB69A" enable-background="new    " points="479.941,190.16 491.964,203.554 492.449,203.553 
				480.485,190.225 			"/>
			<polygon fill="#606049" points="497.916,192.357 507.944,203.531 508.431,203.531 498.459,192.425 			"/>
			<polygon opacity="0.2" fill="#AEB69A" enable-background="new    " points="497.916,192.357 507.944,203.531 508.431,203.531 
				498.459,192.425 			"/>
			<polygon fill="#606049" points="515.891,194.556 523.925,203.507 524.411,203.507 516.438,194.624 			"/>
			<polygon opacity="0.2" fill="#AEB69A" enable-background="new    " points="515.891,194.556 523.925,203.507 524.411,203.507 
				516.438,194.624 			"/>
			<polygon fill="#606049" points="533.865,196.755 539.907,203.484 540.391,203.484 534.411,196.82 			"/>
			<polygon opacity="0.2" fill="#AEB69A" enable-background="new    " points="533.865,196.755 539.907,203.484 540.391,203.484 
				534.411,196.82 			"/>
			<polygon fill="#606049" points="551.84,198.951 555.887,203.46 556.372,203.46 552.387,199.021 			"/>
			<polygon opacity="0.2" fill="#AEB69A" enable-background="new    " points="551.84,198.951 555.887,203.46 556.372,203.46 
				552.387,199.021 			"/>
			<polygon fill="#606049" points="569.814,201.152 571.868,203.437 572.352,203.437 570.361,201.217 			"/>
			<polygon opacity="0.2" fill="#AEB69A" enable-background="new    " points="569.814,201.152 571.868,203.437 572.352,203.437 
				570.361,201.217 			"/>
			<polygon fill="#606049" points="588.333,203.414 568.331,181.129 568.316,181.13 588.321,203.414 			"/>
			<polygon opacity="0.2" fill="#AEB69A" enable-background="new    " points="588.333,203.414 568.331,181.129 568.316,181.13 
				588.321,203.414 			"/>
			<polygon fill="#606049" points="587.789,203.349 587.849,203.414 588.321,203.414 			"/>
			<polygon opacity="0.2" fill="#AEB69A" enable-background="new    " points="587.789,203.349 587.849,203.414 588.321,203.414 			
				"/>
			<polygon opacity="0.2" fill="#E8E8E8" enable-background="new    " points="408.038,181.365 408.039,181.363 408.026,181.363 			
				"/>
			<polygon fill="#606049" points="497.916,192.357 487.943,181.246 472.446,181.27 480.485,190.225 			"/>
			<polygon opacity="0.2" fill="#E8E8E8" enable-background="new    " points="497.916,192.357 487.943,181.246 472.446,181.27 
				480.485,190.225 			"/>
			<polygon fill="#606049" points="479.941,190.16 471.962,181.271 456.466,181.293 462.511,188.027 			"/>
			<polygon opacity="0.2" fill="#E8E8E8" enable-background="new    " points="479.941,190.16 471.962,181.271 456.466,181.293 
				462.511,188.027 			"/>
			<polygon fill="#606049" points="533.865,196.755 519.904,181.201 504.408,181.223 516.438,194.624 			"/>
			<polygon opacity="0.2" fill="#E8E8E8" enable-background="new    " points="533.865,196.755 519.904,181.201 504.408,181.223 
				516.438,194.624 			"/>
			<polygon fill="#606049" points="515.891,194.556 503.923,181.223 488.427,181.246 498.459,192.425 			"/>
			<polygon opacity="0.2" fill="#E8E8E8" enable-background="new    " points="515.891,194.556 503.923,181.223 488.427,181.246 
				498.459,192.425 			"/>
			<polygon fill="#606049" points="551.84,198.951 535.884,181.177 520.389,181.199 534.411,196.82 			"/>
			<polygon opacity="0.2" fill="#E8E8E8" enable-background="new    " points="551.84,198.951 535.884,181.177 520.389,181.199 
				534.411,196.82 			"/>
			<polygon fill="#606049" points="569.814,201.152 551.865,181.154 536.369,181.176 552.387,199.021 			"/>
			<polygon opacity="0.2" fill="#E8E8E8" enable-background="new    " points="569.814,201.152 551.865,181.154 536.369,181.176 
				552.387,199.021 			"/>
			<polygon fill="#606049" points="426.015,183.564 424.02,181.34 408.523,181.363 408.586,181.432 			"/>
			<polygon opacity="0.2" fill="#E8E8E8" enable-background="new    " points="426.015,183.564 424.02,181.34 408.523,181.363 
				408.586,181.432 			"/>
			<polygon fill="#606049" points="587.789,203.349 567.846,181.13 552.349,181.152 570.361,201.217 			"/>
			<polygon opacity="0.2" fill="#E8E8E8" enable-background="new    " points="587.789,203.349 567.846,181.13 552.349,181.152 
				570.361,201.217 			"/>
			<polygon fill="#606049" points="443.989,185.761 440,181.316 424.504,181.339 426.562,183.63 			"/>
			<polygon opacity="0.2" fill="#E8E8E8" enable-background="new    " points="443.989,185.761 440,181.316 424.504,181.339 
				426.562,183.63 			"/>
			<polygon fill="#606049" points="461.966,187.963 455.98,181.293 440.485,181.316 444.536,185.83 			"/>
			<polygon opacity="0.2" fill="#E8E8E8" enable-background="new    " points="461.966,187.963 455.98,181.293 440.485,181.316 
				444.536,185.83 			"/>
			<polygon fill="#606049" points="408.586,181.432 408.523,181.363 408.039,181.363 408.038,181.365 			"/>
			<polygon opacity="0.2" fill="#AEB69A" enable-background="new    " points="408.586,181.432 408.523,181.363 408.039,181.363 
				408.038,181.365 			"/>
			<polygon opacity="0.2" fill="#E8E8E8" enable-background="new    " points="408.586,181.432 408.523,181.363 408.039,181.363 
				408.038,181.365 			"/>
			<polygon fill="#606049" points="426.562,183.63 424.504,181.339 424.02,181.34 426.015,183.564 			"/>
			<polygon opacity="0.2" fill="#AEB69A" enable-background="new    " points="426.562,183.63 424.504,181.339 424.02,181.34 
				426.015,183.564 			"/>
			<polygon opacity="0.2" fill="#E8E8E8" enable-background="new    " points="426.562,183.63 424.504,181.339 424.02,181.34 
				426.015,183.564 			"/>
			<polygon fill="#606049" points="444.536,185.83 440.485,181.316 440,181.316 443.989,185.761 			"/>
			<polygon opacity="0.2" fill="#AEB69A" enable-background="new    " points="444.536,185.83 440.485,181.316 440,181.316 
				443.989,185.761 			"/>
			<polygon opacity="0.2" fill="#E8E8E8" enable-background="new    " points="444.536,185.83 440.485,181.316 440,181.316 
				443.989,185.761 			"/>
			<polygon fill="#606049" points="462.511,188.027 456.466,181.293 455.98,181.293 461.966,187.963 			"/>
			<polygon opacity="0.2" fill="#AEB69A" enable-background="new    " points="462.511,188.027 456.466,181.293 455.98,181.293 
				461.966,187.963 			"/>
			<polygon opacity="0.2" fill="#E8E8E8" enable-background="new    " points="462.511,188.027 456.466,181.293 455.98,181.293 
				461.966,187.963 			"/>
			<polygon fill="#606049" points="480.485,190.225 472.446,181.27 471.962,181.271 479.941,190.16 			"/>
			<polygon opacity="0.2" fill="#AEB69A" enable-background="new    " points="480.485,190.225 472.446,181.27 471.962,181.271 
				479.941,190.16 			"/>
			<polygon opacity="0.2" fill="#E8E8E8" enable-background="new    " points="480.485,190.225 472.446,181.27 471.962,181.271 
				479.941,190.16 			"/>
			<polygon fill="#606049" points="498.459,192.425 488.427,181.246 487.943,181.246 497.916,192.357 			"/>
			<polygon opacity="0.2" fill="#AEB69A" enable-background="new    " points="498.459,192.425 488.427,181.246 487.943,181.246 
				497.916,192.357 			"/>
			<polygon opacity="0.2" fill="#E8E8E8" enable-background="new    " points="498.459,192.425 488.427,181.246 487.943,181.246 
				497.916,192.357 			"/>
			<polygon fill="#606049" points="516.438,194.624 504.408,181.223 503.923,181.223 515.891,194.556 			"/>
			<polygon opacity="0.2" fill="#AEB69A" enable-background="new    " points="516.438,194.624 504.408,181.223 503.923,181.223 
				515.891,194.556 			"/>
			<polygon opacity="0.2" fill="#E8E8E8" enable-background="new    " points="516.438,194.624 504.408,181.223 503.923,181.223 
				515.891,194.556 			"/>
			<polygon fill="#606049" points="534.411,196.82 520.389,181.199 519.904,181.201 533.865,196.755 			"/>
			<polygon opacity="0.2" fill="#AEB69A" enable-background="new    " points="534.411,196.82 520.389,181.199 519.904,181.201 
				533.865,196.755 			"/>
			<polygon opacity="0.2" fill="#E8E8E8" enable-background="new    " points="534.411,196.82 520.389,181.199 519.904,181.201 
				533.865,196.755 			"/>
			<polygon fill="#606049" points="552.387,199.021 536.369,181.176 535.884,181.177 551.84,198.951 			"/>
			<polygon opacity="0.2" fill="#AEB69A" enable-background="new    " points="552.387,199.021 536.369,181.176 535.884,181.177 
				551.84,198.951 			"/>
			<polygon opacity="0.2" fill="#E8E8E8" enable-background="new    " points="552.387,199.021 536.369,181.176 535.884,181.177 
				551.84,198.951 			"/>
			<polygon fill="#606049" points="570.361,201.217 552.349,181.152 551.865,181.154 569.814,201.152 			"/>
			<polygon opacity="0.2" fill="#AEB69A" enable-background="new    " points="570.361,201.217 552.349,181.152 551.865,181.154 
				569.814,201.152 			"/>
			<polygon opacity="0.2" fill="#E8E8E8" enable-background="new    " points="570.361,201.217 552.349,181.152 551.865,181.154 
				569.814,201.152 			"/>
			<polygon fill="#606049" points="588.321,203.414 568.316,181.13 567.846,181.13 587.789,203.349 			"/>
			<polygon opacity="0.2" fill="#AEB69A" enable-background="new    " points="588.321,203.414 568.316,181.13 567.846,181.13 
				587.789,203.349 			"/>
			<polygon opacity="0.2" fill="#E8E8E8" enable-background="new    " points="588.321,203.414 568.316,181.13 567.846,181.13 
				587.789,203.349 			"/>
		</g>
	</g>
	<g>
		<ellipse fill="#5F7D43" cx="456.412" cy="137.56" rx="6.801" ry="13.307"/>
		<ellipse opacity="0.5" fill="#87AA5A" enable-background="new    " cx="456.92" cy="133.857" rx="5.362" ry="9.886"/>
	</g>
</g>
<g id="Layer_2">
</g>
</svg>
