<?xml version="1.0" encoding="utf-8"?>
<!-- Generator: Adobe Illustrator 15.0.2, SVG Export Plug-In . SVG Version: 6.00 Build 0)  -->
<!DOCTYPE svg PUBLIC "-//W3C//DTD SVG 1.1//EN" "http://www.w3.org/Graphics/SVG/1.1/DTD/svg11.dtd">
<svg version="1.1" id="capital" xmlns="http://www.w3.org/2000/svg" xmlns:xlink="http://www.w3.org/1999/xlink" x="0px" y="0px"
	 width="1772.386px" height="252.333px" viewBox="0 0 1772.386 252.333" enable-background="new 0 0 1772.386 252.333"
	 xml:space="preserve">
<polygon fill="#E8E8E8" points="1302.419,92.035 1239.132,92.035 1239.132,114.787 1206.324,114.787 1206.324,92.035 
	1157.88,92.035 1157.88,118.035 946.625,118.035 946.625,131.038 871.875,131.038 871.875,111.537 826.375,111.537 826.375,150.538 
	686.621,150.538 686.621,173.288 621.617,173.288 621.617,150.538 585.869,150.538 585.869,173.288 449.367,173.288 449.367,192.79 
	374.615,192.79 374.615,238.575 0.001,238.575 0.001,252.333 374.615,252.333 1303.16,252.681 "/>
<polygon fill="#FFFFFF" points="1167.816,191.333 964.816,191.333 964.816,122.494 1025.484,122.494 1025.484,54.828 
	1104.816,54.828 1104.816,122.498 1166.972,122.498 "/>
<g>
	<rect x="978.826" y="132.803" fill="#606049" width="8.914" height="8.914"/>
	<rect x="999.205" y="132.803" fill="#606049" width="8.914" height="8.914"/>
	<rect x="1019.578" y="132.803" fill="#606049" width="8.914" height="8.914"/>
	<rect x="1039.957" y="132.803" fill="#606049" width="8.914" height="8.914"/>
	<rect x="1060.332" y="132.803" fill="#606049" width="8.918" height="8.914"/>
	<rect x="1080.708" y="132.803" fill="#606049" width="8.914" height="8.914"/>
	<rect x="1101.087" y="132.803" fill="#606049" width="8.914" height="8.914"/>
	<rect x="1121.46" y="132.803" fill="#606049" width="8.914" height="8.914"/>
	<rect x="1141.839" y="132.803" fill="#606049" width="8.914" height="8.914"/>
</g>
<g>
	<rect x="978.826" y="148.586" fill="#606049" width="8.914" height="17.826"/>
	<rect x="999.205" y="148.586" fill="#606049" width="8.914" height="17.826"/>
	<rect x="1019.578" y="148.586" fill="#606049" width="8.914" height="17.826"/>
	<rect x="1039.957" y="148.586" fill="#606049" width="8.914" height="17.826"/>
	<rect x="1060.332" y="148.586" fill="#606049" width="8.918" height="17.826"/>
	<rect x="1080.708" y="148.586" fill="#606049" width="8.914" height="17.826"/>
	<rect x="1101.087" y="148.586" fill="#606049" width="8.914" height="17.826"/>
	<rect x="1121.46" y="148.586" fill="#606049" width="8.914" height="17.826"/>
	<rect x="1141.839" y="148.586" fill="#606049" width="8.914" height="17.826"/>
</g>
<rect x="586.283" y="150.958" fill="#FFFFFF" width="22.75" height="44.334"/>
<rect x="1166.91" y="122.473" fill="#D3D3D7" width="8.75" height="68.542"/>
<ellipse fill="#87AA5A" cx="1217.994" cy="174.415" rx="8.166" ry="21"/>
<ellipse opacity="0.5" fill="#87AA5A" enable-background="new    " cx="808.695" cy="211.676" rx="18.668" ry="24.5"/>
<polygon fill="#E8E8E8" points="1772.386,172.939 1772.386,150.189 1717.4,150.189 1717.4,111.189 1671.9,111.189 1671.9,130.689 
	1597.15,130.689 1597.15,117.688 1387.826,117.688 1387.826,114.439 1304.642,114.439 1304.642,91.688 1241.355,91.688 
	1240.615,252.333 1772.386,252.333 "/>
<rect x="1703.783" y="117.817" opacity="0.5" fill="#B1B1B4" enable-background="new    " width="7" height="7.875"/>
<rect x="1239.992" y="92.832" fill="#FFFFFF" width="21.875" height="63.875"/>
<rect x="1703.783" y="131.381" opacity="0.5" fill="#B1B1B4" enable-background="new    " width="7" height="7.875"/>
<rect x="1703.783" y="145.817" opacity="0.5" fill="#B1B1B4" enable-background="new    " width="7" height="7.875"/>
<rect x="1691.533" y="117.817" opacity="0.5" fill="#B1B1B4" enable-background="new    " width="7" height="7.875"/>
<rect x="1691.533" y="131.381" opacity="0.5" fill="#B1B1B4" enable-background="new    " width="7" height="7.875"/>
<rect x="1678.845" y="117.817" opacity="0.5" fill="#B1B1B4" enable-background="new    " width="7" height="7.875"/>
<ellipse opacity="0.5" fill="#87AA5A" enable-background="new    " cx="781.276" cy="206.426" rx="13.417" ry="18.084"/>
<ellipse opacity="0.5" fill="#87AA5A" enable-background="new    " cx="628.828" cy="217" rx="18.668" ry="21.584"/>
<path opacity="0.5" fill="#87AA5A" enable-background="new    " d="M617.144,221.543c0,13.854-7.312,25.084-16.336,25.084
	c-9.02,0-16.33-11.229-16.33-25.084c0-13.855,7.311-25.084,16.33-25.084C609.832,196.459,617.144,207.688,617.144,221.543z"/>
<ellipse opacity="0.5" fill="#87AA5A" enable-background="new    " cx="947.328" cy="186.084" rx="19.832" ry="24.5"/>
<ellipse fill="#87AA5A" cx="1030.232" cy="198.279" rx="26.834" ry="21.582"/>
<ellipse fill="#87AA5A" cx="1005.658" cy="194.249" rx="7" ry="15.166"/>
<ellipse opacity="0.5" fill="#87AA5A" enable-background="new    " cx="1469.824" cy="197.59" rx="19.832" ry="24.5"/>
<ellipse fill="#87AA5A" cx="1496.654" cy="204.586" rx="7" ry="15.168"/>
<ellipse fill="#87AA5A" cx="540.205" cy="231.681" rx="7" ry="21"/>
<ellipse fill="#87AA5A" cx="1131.658" cy="180.249" rx="7" ry="15.166"/>
<polygon fill="#D3D3D7" points="1772.386,199.974 1700.41,199.958 1700.41,212.208 1667.16,212.208 1667.16,191.208 
	1464.16,191.208 1464.16,205.208 1432.66,205.208 1432.66,177.208 1343.41,177.208 1343.41,198.208 1304.91,198.208 
	1304.91,170.208 1206.91,170.208 1205.742,252.458 1772.386,252.333 "/>
<rect x="1733.992" y="204.625" opacity="0.5" fill="#606049" enable-background="new    " width="32.664" height="11.666"/>
<rect x="1752.66" y="220.083" opacity="0.5" fill="#606049" enable-background="new    " width="7.875" height="6.125"/>
<rect x="1416.035" y="182.458" opacity="0.5" fill="#606049" enable-background="new    " width="6.125" height="6.125"/>
<rect x="1539.41" y="205.208" opacity="0.5" fill="#606049" enable-background="new    " width="7" height="6.125"/>
<rect x="1527.16" y="204.333" opacity="0.5" fill="#606049" enable-background="new    " width="6.125" height="7"/>
<ellipse fill="#87AA5A" cx="974.158" cy="193.081" rx="7" ry="15.168"/>
<ellipse fill="#87AA5A" cx="1237.83" cy="178.5" rx="18.666" ry="39.082"/>
<ellipse fill="#87AA5A" cx="1261.162" cy="194.833" rx="18.664" ry="39.082"/>
<polygon fill="#D3D3D7" points="1301.992,170.333 1203.992,170.333 1203.992,198.333 1164.044,198.333 1164.044,177.333 
	1076.242,177.333 1076.242,205.333 1044.742,205.333 1044.742,191.333 841.742,191.333 841.742,212.333 808.492,212.333 
	808.492,200.083 736.742,200.083 736.742,166.833 673.742,166.833 673.742,215.833 561.742,215.833 561.742,229.833 
	505.742,229.833 505.742,252.792 1303.16,252.583 "/>
<rect x="1235.496" y="187.25" opacity="0.5" fill="#606049" enable-background="new    " width="49" height="25.666"/>
<rect x="615.996" y="225.75" opacity="0.5" fill="#606049" enable-background="new    " width="32.664" height="11.666"/>
<rect x="787.496" y="216.417" opacity="0.5" fill="#606049" enable-background="new    " width="49" height="17.5"/>
<rect x="790.117" y="233.333" fill="#FFFFFF" width="42.875" height="20.125"/>
<polygon fill="#FFFFFF" points="990.492,231.854 995.369,215.94 1003.621,230.282 1003.621,253.067 990.492,253.067 "/>
<polygon opacity="0.5" fill="#606049" enable-background="new    " points="1044.746,231 1035.996,210.583 992.246,210.583 
	986.996,231.583 991.076,231.583 995.16,215.833 1002.746,230.417 "/>
<rect x="684.242" y="174.708" opacity="0.5" fill="#606049" enable-background="new    " width="7.875" height="7.875"/>
<rect x="622.117" y="241.208" opacity="0.5" fill="#606049" enable-background="new    " width="7.875" height="6.125"/>
<rect x="797.117" y="238.583" opacity="0.5" fill="#606049" enable-background="new    " width="4.375" height="5.25"/>
<rect x="697.367" y="186.083" opacity="0.5" fill="#606049" enable-background="new    " width="2.625" height="4.375"/>
<rect x="1086.742" y="182.583" opacity="0.5" fill="#606049" enable-background="new    " width="6.125" height="6.125"/>
<rect x="1101.617" y="182.583" opacity="0.5" fill="#606049" enable-background="new    " width="7" height="5.25"/>
<rect x="962.492" y="205.333" opacity="0.5" fill="#606049" enable-background="new    " width="7" height="6.125"/>
<rect x="975.617" y="204.458" opacity="0.5" fill="#606049" enable-background="new    " width="6.125" height="7"/>
<rect x="975.617" y="218.458" opacity="0.5" fill="#606049" enable-background="new    " width="6.125" height="7"/>
<rect x="832.992" y="117.832" opacity="0.5" fill="#B1B1B4" enable-background="new    " width="7" height="7.875"/>
<rect x="832.992" y="131.396" opacity="0.5" fill="#B1B1B4" enable-background="new    " width="7" height="7.875"/>
<rect x="832.992" y="145.833" opacity="0.5" fill="#B1B1B4" enable-background="new    " width="7" height="7.875"/>
<rect x="845.242" y="117.832" opacity="0.5" fill="#B1B1B4" enable-background="new    " width="7" height="7.875"/>
<rect x="845.242" y="131.396" opacity="0.5" fill="#B1B1B4" enable-background="new    " width="7" height="7.875"/>
<rect x="857.93" y="117.832" opacity="0.5" fill="#B1B1B4" enable-background="new    " width="7" height="7.875"/>
<rect x="1267.574" y="99.748" fill="#B1B1B4" width="7" height="7.875"/>
<rect x="1279.824" y="99.748" fill="#B1B1B4" width="7" height="7.875"/>
<rect x="1292.511" y="99.748" fill="#B1B1B4" width="7" height="7.875"/>
<rect x="1180.654" y="98.58" fill="#B1B1B4" width="7" height="7.875"/>
<rect x="1192.904" y="98.58" fill="#B1B1B4" width="7" height="7.875"/>
<rect x="1205.591" y="122.498" fill="#B1B1B4" width="7" height="7.875"/>
<rect x="743.16" y="163.333" fill="#B1B1B4" width="7" height="7.875"/>
<rect x="743.16" y="176.896" fill="#B1B1B4" width="7" height="7.875"/>
<rect x="755.41" y="163.333" fill="#B1B1B4" width="7" height="7.875"/>
<rect x="755.41" y="176.896" fill="#B1B1B4" width="7" height="7.875"/>
<rect x="622.41" y="178.208" fill="#B1B1B4" width="7" height="7.875"/>
<rect x="496.41" y="183.896" fill="#B1B1B4" width="7" height="7.875"/>
<rect x="510.41" y="183.896" fill="#B1B1B4" width="7" height="7.875"/>
<rect x="687.158" y="151.083" fill="#FFFFFF" width="36.75" height="15.168"/>
<rect x="770.574" y="152.833" fill="#FFFFFF" width="32.668" height="16.918"/>
<rect x="1158.492" y="92.645" fill="#FFFFFF" width="14.875" height="23.625"/>
<path fill="#87AA5A" d="M740.386,252.79c0.289-2.641,0.443-5.367,0.443-8.164c0-22.551-9.926-40.834-22.17-40.834
	c-12.238,0-22.164,18.283-22.164,40.834c0,2.797,0.152,5.523,0.443,8.164H740.386z"/>
<path fill="#87AA5A" d="M772.555,252.75c0.604-2.94,0.938-6.074,0.938-9.334c0-16.752-8.621-30.332-19.25-30.332
	c-10.631,0-19.25,13.58-19.25,30.332c0,3.26,0.334,6.394,0.939,9.334H772.555z"/>
<g>
	<path fill="#87AA5A" d="M1089.466,252.75c0.115-1.342,0.193-2.699,0.193-4.084c0-18.363-10.445-33.25-23.33-33.25
		c-12.889,0-23.334,14.887-23.334,33.25c0,1.385,0.078,2.742,0.195,4.084H1089.466z"/>
	<path fill="#87AA5A" d="M1066.306,281.915c0.006,0,0.018,0.002,0.021,0.002c0.002,0,0.021-0.002,0.023-0.002H1066.306z"/>
</g>
<path fill="#87AA5A" d="M1119.035,252.75c1.35-5.412,2.125-11.553,2.125-18.084c0-21.584-8.354-39.082-18.664-39.082
	c-10.309,0-18.666,17.498-18.666,39.082c0,6.531,0.775,12.672,2.127,18.084H1119.035z"/>
<rect x="1048.515" y="191.92" opacity="0.5" fill="#87AA5A" enable-background="new    " width="28.719" height="13.787"/>
<rect x="1164.015" y="191.006" opacity="0.5" fill="#87AA5A" enable-background="new    " width="40.387" height="8.615"/>
<line fill="none" stroke="#808A94" stroke-width="1.7131" x1="1031.908" y1="60.082" x2="1031.908" y2="120.75"/>
<line fill="none" stroke="#808A94" stroke-width="3.4262" x1="1040.294" y1="60.082" x2="1040.294" y2="120.75"/>
<line fill="none" stroke="#808A94" stroke-width="3.4262" x1="1048.675" y1="60.082" x2="1048.675" y2="120.75"/>
<line fill="none" stroke="#808A94" stroke-width="3.4262" x1="1057.064" y1="60.082" x2="1057.064" y2="120.75"/>
<line fill="none" stroke="#808A94" stroke-width="3.4262" x1="1065.449" y1="60.082" x2="1065.449" y2="120.75"/>
<line fill="none" stroke="#808A94" stroke-width="3.4262" x1="1073.832" y1="60.082" x2="1073.832" y2="120.75"/>
<line fill="none" stroke="#808A94" stroke-width="3.4262" x1="1082.22" y1="60.082" x2="1082.22" y2="120.75"/>
<line fill="none" stroke="#808A94" stroke-width="3.4262" x1="1090.601" y1="60.082" x2="1090.601" y2="120.75"/>
<line fill="none" stroke="#808A94" stroke-width="1.7131" x1="1098.988" y1="60.082" x2="1098.988" y2="120.75"/>
<rect x="1055.242" y="27.414" fill="#FFFFFF" width="14" height="28"/>
<path fill="#FFFFFF" d="M1062.242,0c-2.918,0-1.754,3.498-2.334,8.164c-0.582,4.668-1.166,5.25-1.166,8.75s1.75,10.5,1.75,10.5
	h4.084c0,0,2.912-6.416,2.332-10.5c-0.582-4.082-1.75-7-1.75-9.332S1065.742,0,1062.242,0z"/>
<rect x="1017.402" y="113.285" fill="#FFFFFF" width="96.145" height="9.07"/>
<rect x="1033.275" y="48.887" fill="#FFFFFF" width="61.678" height="5.896"/>
<rect x="1093.304" y="113.27" fill="#E8E8E8" width="20.188" height="9.125"/>
<rect x="1082.66" y="54.832" opacity="0.08" fill="#606049" enable-background="new    " width="22.166" height="58.334"/>
<rect x="1082.66" y="49" opacity="0.08" fill="#606049" enable-background="new    " width="11.666" height="5.25"/>
<rect x="1063.996" y="28" opacity="0.08" fill="#606049" enable-background="new    " width="5.105" height="20.781"/>
<rect x="1701.992" y="201.333" fill="#FFFFFF" width="21.875" height="48.625"/>
<polygon fill="#E7E7E8" points="1393.75,247.062 1380.621,247.062 1380.621,224.276 1388.873,209.936 1393.75,225.85 "/>
<polygon opacity="0.5" fill="#606049" enable-background="new    " points="1381.496,224.411 1389.082,209.827 1393.166,225.577 
	1397.246,225.577 1391.996,204.577 1348.246,204.577 1339.496,224.995 "/>
<polygon fill="#87AA5A" points="1166.74,246 1772.386,246 1772.386,252.333 1166.74,252.788 "/>
<rect x="1346.117" y="230.577" opacity="0.5" fill="#606049" enable-background="new    " width="4.375" height="5.25"/>
<rect x="1356.125" y="230.577" opacity="0.5" fill="#606049" enable-background="new    " width="4.375" height="5.25"/>
<g>
	<path fill="#87AA5A" d="M1607.966,251.817c0.115-1.107,0.193-2.23,0.193-3.374c0-15.173-10.445-27.473-23.33-27.473
		c-12.889,0-23.334,12.3-23.334,27.473c0,1.144,0.078,2.267,0.195,3.374H1607.966L1607.966,251.817z"/>
	<path fill="#87AA5A" d="M1584.806,275.915c0.006,0,0.018,0.002,0.021,0.002c0.002,0,0.021-0.002,0.023-0.002H1584.806z"/>
</g>
<path fill="#87AA5A" d="M1637.535,251.817c1.35-4.472,2.125-9.545,2.125-14.941c0-17.834-8.354-32.291-18.664-32.291
	c-10.309,0-18.666,14.457-18.666,32.291c0,5.396,0.775,10.473,2.127,14.941H1637.535z"/>
<rect x="1400.783" y="124.317" opacity="0.5" fill="#B1B1B4" enable-background="new    " width="7" height="7.875"/>
<rect x="1400.783" y="137.881" opacity="0.5" fill="#B1B1B4" enable-background="new    " width="7" height="7.875"/>
<rect x="1388.533" y="124.317" opacity="0.5" fill="#B1B1B4" enable-background="new    " width="7" height="7.875"/>
<rect x="1284.283" y="144.295" opacity="0.5" fill="#B1B1B4" enable-background="new    " width="80.5" height="16.918"/>
</svg>
