<?xml version="1.0" encoding="utf-8"?>
<!-- Generator: Adobe Illustrator 15.1.0, SVG Export Plug-In . SVG Version: 6.00 Build 0)  -->
<!DOCTYPE svg PUBLIC "-//W3C//DTD SVG 1.1//EN" "http://www.w3.org/Graphics/SVG/1.1/DTD/svg11.dtd">
<svg version="1.1" id="Layer_1" xmlns="http://www.w3.org/2000/svg" xmlns:xlink="http://www.w3.org/1999/xlink" x="0px" y="0px"
	 width="473.378px" height="79.024px" viewBox="0 0 473.378 79.024" enable-background="new 0 0 473.378 79.024"
	 xml:space="preserve">
<g>
	<path opacity="0.7" fill="#606049" enable-background="new    " d="M451.579,3.327l1.954,2.234l7.591-0.851l-3.637-4.57L458.779,0
		l5.415,4.275l7.096-0.052c0,0,2.256,0.035,2.079,1.16c-0.179,1.127-2.436,1.091-2.436,1.091l-6.456,0.383l-4.323,5.094
		l-0.914-0.014l2.281-5.017l-7.638,0.419l-2.088,2.87l-1.075,0.089l1.237-3.634l-1.347-3.245L451.579,3.327z"/>
	<path fill="#FFFFFF" d="M329.352,16.541c-65.271,8.769-157.741,23.674-210.828,34.436C65.439,61.735-2.115,78.458,0.051,79.014
		c2.164,0.56,84.373-19.302,206.202-39.781c121.836-20.482,226.118-28.411,226.118-28.411s11.853-0.79,11.085-3.6
		C442.507,3.745,394.618,7.772,329.352,16.541z"/>
</g>
</svg>
