<?xml version="1.0" encoding="utf-8"?>
<!-- Generator: Adobe Illustrator 15.0.2, SVG Export Plug-In . SVG Version: 6.00 Build 0)  -->
<!DOCTYPE svg PUBLIC "-//W3C//DTD SVG 1.1//EN" "http://www.w3.org/Graphics/SVG/1.1/DTD/svg11.dtd">
<svg version="1.1" id="background_1_" xmlns="http://www.w3.org/2000/svg" xmlns:xlink="http://www.w3.org/1999/xlink" x="0px"
	 y="0px" width="2520px" height="303.26px" viewBox="0 0 2520 303.26" enable-background="new 0 0 2520 303.26"
	 xml:space="preserve">
<g>
	<path opacity="0.4" fill="#D89076" d="M290.502,127.385c70.582-4.766,219.811-21.102,280.02-40.76c0,0,39.201-10.555,69.422-22.732
		c31.904-12.855,51.605-23.344,67.059-32.758c13.072-7.965,21.875-21,28.875-18.375s37.625,47.25,65.625,63s91,29.75,137.375,32.375
		s238.875,8.75,291.375,7s92.75-7,99.75-18.375s7.875-20.125,7.875-20.125s142.625-0.875,148.75-0.875s16.625,6.125,17.5,10.5
		s7.875,10.5,14.875,11.375s41.125,2.625,44.625-0.875s8.75-20.125,8.75-25.375s3.5-5.25,7-5.25s170.625-7,170.625-7
		s26.25,1.75,29.75,5.25s7.875,8.75,7.875,8.75s5.25-7,7.875-6.125s7,7.875,7,7.875s9.625-4.375,13.125-4.375
		s20.125,2.625,24.5,0.875s3.5-12.25,3.5-14.875s9.625-5.25,12.25-3.5s2.625,14.875,4.375,17.5s26.25,10.5,33.25,9.625
		s33.25-5.25,56-2.625s75.25,2.625,101.5-1.75s77-16.625,107.625-21s82.25,6.125,91.875,7s53.375-11.375,68.25-17.5
		s44.625-11.375,84.875,2.625s42.875,4.375,51.625,1.75s48.123-11.666,64.748-11.666c0,0.875,2.376,267,2.376,267L0,303.26v-164.5
		C0,138.76,217.986,132.281,290.502,127.385z"/>
	<g>
		<defs>
			<path id="SVGID_1_" d="M290.502,127.385c0,0,219.811-21.102,280.02-40.76c0,0,39.201-10.555,69.422-22.732
				c31.904-12.855,51.605-23.344,67.059-32.758c13.072-7.965,21.875-21,28.875-18.375s37.625,47.25,65.625,63
				s120.445,38.318,166.82,40.943s209.43,0.182,261.93-1.568s92.75-7,99.75-18.375s7.875-20.125,7.875-20.125
				s142.625-0.875,148.75-0.875s16.625,6.125,17.5,10.5s7.875,10.5,14.875,11.375s41.125,2.625,44.625-0.875
				s8.75-20.125,8.75-25.375s3.5-5.25,7-5.25s170.625-7,170.625-7s26.25,1.75,29.75,5.25s7.875,8.75,7.875,8.75s5.25-7,7.875-6.125
				s7,7.875,7,7.875s9.625-4.375,13.125-4.375s20.125,2.625,24.5,0.875s3.5-12.25,3.5-14.875s9.625-5.25,12.25-3.5
				s2.625,14.875,4.375,17.5s26.25,10.5,33.25,9.625s33.25-5.25,56-2.625s75.25,2.625,101.5-1.75s77-16.625,107.625-21
				s82.25,6.125,91.875,7s53.375-11.375,68.25-17.5s44.625-11.375,84.875,2.625s42.875,4.375,51.625,1.75s35-10.5,51.625-10.5
				c0,0.875,0,265.125,0,265.125H13.127v-164.5L290.502,127.385z"/>
		</defs>
		<clipPath id="SVGID_2_">
			<use xlink:href="#SVGID_1_"  overflow="visible"/>
		</clipPath>
		<path clip-path="url(#SVGID_2_)" fill="#FFFFFF" d="M668.818,47.92c0,0-36.863,20.887-31.332,20.887
			c5.529,0,32.559-7.371,41.775-12.287c9.217-4.914,17.203-10.441,17.203-6.143c0,4.301-5.531,18.43,0,16.588
			c5.529-1.842,16.588-12.287,16.588-12.287s3.686,12.898,7.371,11.672c3.688-1.227,7.986-16.586,7.986-16.586
			s9.215,14.125,12.287,13.514c3.074-0.611,1.23-13.514,1.23-13.514s28.258,35.635,44.232,39.32
			c15.975,3.684,24.574,3.68,27.646,2.453s-20.887-8.596-34.404-17.199c-13.516-8.604-18.432-19.66-18.432-19.66
			s28.262,21.506,39.936,24.574c11.672,3.07,22.117,0.613,22.117,0.613L746.229,1.229L722.268,0l-22.73,8.6L668.818,47.92z"/>
		<path opacity="0.15" clip-path="url(#SVGID_2_)" fill="#606049" d="M1481.67,76.635c0,0,1.166,10.504,2.916,12.834
			c1.75,2.332-9.33-8.752-8.166-4.668c1.166,4.084,7,12.25,12.25,14.584s11.666,3.5,11.666,3.5l-4.084-5.834c0,0,3.5-2.916,7,0.584
			s10.5,3.5,14,3.5s7.584,0.584,9.334,0s7.582,1.168,1.166-2.916s-24.5-21.584-24.5-21.584l-8.166-4.666l-6.416-0.584
			L1481.67,76.635z"/>
		<path opacity="0.15" clip-path="url(#SVGID_2_)" fill="#606049" d="M1753.064,51.113c0,0,10.496,11.666,14.582,13.416
			c4.084,1.75-10.5-2.916-13.416-3.5c-2.916-0.586-5.25,2.33-1.75,4.664c3.5,2.336,19.834,10.5,19.834,10.5s-2.332-4.08-5.25-6.414
			c-2.918-2.336,8.162,0,11.082,1.75c2.918,1.75,9.918,2.914,11.668,2.914s-2.332-1.746-7-5.83s-8.75-8.17-8.75-8.17
			s10.5,7.004,11.666,2.92s-4.67-12.838-7.584-13.42c-2.916-0.58-7.582-2.33-9.916-2.33S1753.064,51.113,1753.064,51.113z"/>
		<path opacity="0.15" clip-path="url(#SVGID_2_)" fill="#606049" d="M1853.256,48.631c0,0-1.172,13.42,3.496,19.254
			s-4.662,4.082-3.496,5.832c1.164,1.75,11.719,5.922,17.934,6.855c8.75,1.312,21.438-0.584,17.938-1.75s-15.896-4.521-17.062-7.438
			s-4.229-6.418-4.229-8.168s-2.33-11.666-2.33-11.666L1853.256,48.631z"/>
		<path opacity="0.15" clip-path="url(#SVGID_2_)" fill="#606049" d="M1795.357,65.256c0,0,2.916,11.666,6.416,12.25
			c3.5,0.586,6.42-1.164,8.17-1.164s-2.92-5.248-5.836-6.416C1801.193,68.756,1797.107,62.922,1795.357,65.256z"/>
		<path opacity="0.07" clip-path="url(#SVGID_2_)" fill="#606049" d="M1707.852,60.301c4.084,1.166,3.496,4.668,4.666,7
			c1.168,2.33,1.164,4.08,3.5,4.666c2.334,0.584,0.588-7.582,2.918-6.416c2.332,1.166,8.75,11.084,7,10.5s-5.838-4.666-6.418-1.75
			c-0.582,2.916-1.75,6.416-5.25,2.916S1699.686,57.969,1707.852,60.301z"/>
		<path opacity="0.07" clip-path="url(#SVGID_2_)" fill="#606049" d="M1724.768,57.115c3.23,1.076,4.08,4.08,7,8.164
			c2.918,4.086,9.338,8.754,6.418,9.336C1735.268,75.195,1716.018,54.199,1724.768,57.115z"/>
		<path opacity="0.07" clip-path="url(#SVGID_2_)" fill="#606049" d="M1739.92,53.898c1.887,2.516,9.33,17.5,12.83,19.834
			c3.5,2.336-1.746,1.754-4.08,0.586c-2.336-1.17-11.67-14.59-12.836-20.42C1734.67,48.068,1736.42,49.229,1739.92,53.898z"/>
		<path opacity="0.15" clip-path="url(#SVGID_2_)" fill="#606049" d="M2169.875,48.406c0,0,3.189,1.838,9.607,5.338
			c6.42,3.5,16.352,1.498,18.688,2.666c2.334,1.17,14.113,2.037,17.613,3.203s-2.664,0.584-7.328,0.584
			c-4.666,0-5.248,2.332-2.332,3.5c2.916,1.17,37.918,4.67,42,4.67s9.916-4.082,4.666-5.25c-5.25-1.17-39.889-11.154-50.35-13.645
			C2191.229,46.803,2180.02,43.066,2169.875,48.406z"/>
		<path opacity="0.15" clip-path="url(#SVGID_2_)" fill="#606049" d="M725.502,30.893c0,0-21.051,28.721-28.926,33.971
			s-25.375,18.375-22.75,14s19.25-20.125,21-24.5s7.875-6.125,1.75-4.375s-25.375,16.625-29.75,18.375s-4.375,3.5-10.5,5.25
			s-9.625,4.375-15.75,4.375s-24.5,0-30.625,1.75s-16.625,2.625-14.875,0s18.375-16.625,23.625-18.375s64.75-31.5,64.75-31.5
			l20.125-10.5l-9.625,19.25l8.75-7c0,0,29.479-28.471,29.479-24.096s-11.766,16.617-15.266,20.992s11.053-6.6,11.928-10.975
			S729.797,24.213,725.502,30.893z"/>
		<path opacity="0.15" clip-path="url(#SVGID_2_)" fill="#606049" d="M715.484,49.025c-2.057,5.137-17.176,16.695-24.547,23.713
			c-6.338,6.033-24.5,20.125-19.25,20.125s31.238-19.961,36.162-25.234c6.68-7.154,21.629-31.252,18.129-28.627
			S717.234,44.65,715.484,49.025z"/>
		<path opacity="0.15" clip-path="url(#SVGID_2_)" fill="#606049" d="M732.377,44.26c0,0-14.875,33.25-19.25,37.625
			s-0.875-7-3.5-2.625s-9.625,13.125-12.25,15.75s0,4.375,4.375,1.75s17.5-14,20.125-18.375s7.875,2.625,8.75-4.375
			s10.5-36.75,7-36.75S732.377,44.26,732.377,44.26z"/>
	</g>
</g>
</svg>
