<?xml version="1.0" encoding="utf-8"?>
<!-- Generator: Adobe Illustrator 15.1.0, SVG Export Plug-In . SVG Version: 6.00 Build 0)  -->
<!DOCTYPE svg PUBLIC "-//W3C//DTD SVG 1.1//EN" "http://www.w3.org/Graphics/SVG/1.1/DTD/svg11.dtd">
<svg version="1.1" id="Layer_1" xmlns="http://www.w3.org/2000/svg" xmlns:xlink="http://www.w3.org/1999/xlink" x="0px" y="0px"
	 width="2520px" height="252.139px" viewBox="0 0 2520 252.139" enable-background="new 0 0 2520 252.139" xml:space="preserve">
<g id="hills">
</g>
<rect x="2113.887" y="56.211" fill="#606049" width="25.23" height="11.394"/>
<rect x="1916.931" y="73.302" fill="#606049" width="29.3" height="16.277"/>
<rect x="2131.792" y="44.816" fill="#606049" width="30.927" height="17.904"/>
<rect x="2231.896" y="24.469" fill="#606049" width="28.485" height="17.092"/>
<rect x="1685.792" y="57.838" fill="#606049" width="29.299" height="16.277"/>
<path fill="#BFB131" d="M1126.54,252.139c0,0,141.628-40.834,209.296-75.834c67.67-35,258.998-105,359.332-108.5
	s192.5,15.166,259,17.5s134.168-10.5,176.168-24.5S2285.5,22.309,2369.5,22.309s150.5,19.83,150.5,19.83v210H1126.54z"/>
<path opacity="0.18" fill="#606049" enable-background="new    " d="M1170.79,252.139h-43.75c0,0,141.128-40.834,208.796-75.834
	c67.67-35,258.998-105,359.332-108.5s192.5,15.166,259,17.5s134.168-10.5,176.168-24.5S2285.5,22.309,2369.5,22.309
	s150.5,19.83,150.5,19.83v51.022c0,0-169.635-36.005-322.648-18.003c-153.015,18.002-195.02,27.003-279.027,27.003
	s-222.022-18.002-330.033,9.001s-270.025,93.01-324.032,114.012S1170.79,252.139,1170.79,252.139z"/>
<path fill="#BFB131" d="M399.5,252.139c0,0-141.162-39.668-208.83-74.668c-67.67-35-258.998-105-359.332-108.5
	s-192.5,15.166-259,17.5s-134.168-10.5-176.168-24.5s-155.164-38.496-239.164-38.496s-150.5,19.83-150.5,19.83v208.674
	L399.5,252.139z"/>
<path opacity="0.18" fill="#606049" enable-background="new    " d="M355.258,252.134l44.242,0.005
	c0,0-141.162-39.668-208.83-74.668c-67.67-35-258.998-105-359.332-108.5s-192.5,15.166-259,17.5s-134.168-10.5-176.168-24.5
	s-155.164-38.496-239.164-38.496s-150.5,19.83-150.5,19.83v51.022c0,0,169.635-36.005,322.649-18.003
	c153.014,18.002,195.019,27.003,279.027,27.003c84.008,0,222.022-18.002,330.033,9.001
	c108.011,27.003,270.026,93.01,324.032,114.012S355.258,252.134,355.258,252.134z"/>
<g>
	<polyline fill="#5F7D43" points="2300.377,56.525 2317.361,0 2337.137,56.525 	"/>
	<g>
		<polygon opacity="0.15" fill="#E8E8E8" enable-background="new    " points="2299.865,56.279 2336.342,56.279 2316.965,0.877 		
			"/>
		<polygon opacity="0.15" fill="#E8E8E8" enable-background="new    " points="2300.432,55.617 2317.531,23.449 2336.906,55.617 
			2317.531,0.193 		"/>
	</g>
</g>
<g>
	<polyline fill="#5F7D43" points="2326.334,105.139 2352.316,18.664 2382.57,105.139 	"/>
	<g>
		<polygon opacity="0.15" fill="#E8E8E8" enable-background="new    " points="2325.551,104.764 2381.352,104.764 2351.709,20.008 
					"/>
		<polygon opacity="0.15" fill="#E8E8E8" enable-background="new    " points="2326.418,103.748 2352.576,54.539 2382.215,103.748 
			2352.576,18.961 		"/>
	</g>
</g>
<g>
	<polyline fill="#5F7D43" points="1677.527,128.289 1690.133,86.33 1704.812,128.289 	"/>
	<g>
		<polygon opacity="0.15" fill="#E8E8E8" enable-background="new    " points="1677.148,128.105 1704.223,128.105 1689.84,86.982 		
			"/>
		<polygon opacity="0.15" fill="#E8E8E8" enable-background="new    " points="1677.568,127.613 1690.26,103.738 1704.643,127.613 
			1690.26,86.473 		"/>
	</g>
</g>
<path fill="#606049" d="M1902.79,252.139c0,0-73.454-39.666-61.788-77s214.666-79.334,214.666-79.334s-126.507,47.452-133,70
	c-10.23,35.525,163.334,86.334,163.334,86.334H1902.79z"/>
<polygon fill="#EBCC2D" points="2228.008,164.484 2097.77,164.15 2097.668,231.139 2228.336,231.139 "/>
<rect x="1820.602" y="70.143" fill="#FDE584" width="81.668" height="58.334"/>
<polygon fill="#8A704F" points="2139.084,104.121 2116.48,90.262 2066.75,90.262 2066.75,154.137 2139.084,154.137 "/>
<rect x="1957.672" y="65.471" fill="#FBAE18" width="53.662" height="35"/>
<rect x="1726.672" y="53.805" fill="#FDE584" width="56.004" height="37.332"/>
<rect x="2172.334" y="30.324" fill="#FDE584" width="42" height="30.631"/>
<polygon fill="#606049" points="2234.752,183.305 2220.168,120.305 2110.502,120.305 2090.668,183.305 "/>
<polygon fill="#606049" points="1906.334,75.971 1893.502,43.609 1829.043,43.609 1814.75,75.971 "/>
<polygon fill="#606049" points="1836.965,132.035 1791.322,83.127 1767.646,83.127 1722.803,132.035 "/>
<rect x="1809.502" y="131.973" fill="#B45126" width="21" height="54.25"/>
<polygon fill="#F3732A" points="1809.502,132.41 1769.852,87.646 1729.584,132.41 1729.584,186.223 1809.502,186.223 "/>
<polygon fill="#606049" points="2085.711,108.055 2105.836,90.992 2124.211,108.055 2143.172,108.055 2129.168,71.273 
	2055.139,71.273 2044.586,108.055 "/>
<polygon fill="#FFF6C7" points="2097.668,231.139 2097.668,181.559 2114.002,125.555 2129.168,182.139 2129.168,231.139 "/>
<polygon fill="#EBCC2D" points="2140.836,165.809 2140.836,143.123 2152.637,125.555 2163.59,143.348 2163.59,165.809 "/>
<polygon fill="#EBCC2D" points="2190.422,165.809 2190.422,143.123 2202.221,125.555 2213.176,143.348 2213.176,165.809 "/>
<polygon fill="#B3966D" points="2069.812,108.055 2058.73,77.43 2050.418,108.055 2050.418,154.137 2069.812,154.137 "/>
<rect x="1954.777" y="54.977" fill="#606049" width="57.741" height="20.416"/>
<rect x="2170.027" y="23.48" fill="#606049" width="45.488" height="16.332"/>
<rect x="1725.527" y="40.98" fill="#606049" width="57.737" height="16.332"/>
<polygon fill="#E1BF23" points="1878.352,75.971 1891.186,47.389 1902.266,75.971 1902.266,129.059 1878.352,129.059 "/>
<rect x="1774.865" y="141.766" fill="#B45126" width="17.377" height="44.896"/>
<polygon fill="#606049" points="1797.59,142.203 1759.818,101.346 1740.223,101.346 1703.115,142.203 "/>
<polygon fill="#F3732A" points="1774.865,142.129 1742.049,105.084 1708.727,142.129 1708.727,186.66 1774.865,186.66 "/>
<rect x="1716.777" y="155.893" fill="#606049" width="47.819" height="16.33"/>
<rect x="1733.691" y="126.143" fill="#606049" width="17.485" height="16.33"/>
<rect x="1732.516" y="56.434" fill="#606049" width="11.66" height="11.08"/>
<rect x="1961.186" y="74.223" fill="#606049" width="6.416" height="8.338"/>
<rect x="2175.754" y="40.758" fill="#606049" width="4.758" height="6.18"/>
<rect x="2195.74" y="49.549" fill="#606049" width="8.623" height="6.18"/>
<rect x="1985.152" y="74.223" fill="#606049" width="6.414" height="8.338"/>
<rect x="1990.74" y="89.037" fill="#606049" width="13.635" height="8.336"/>
<rect x="1751.766" y="73.934" fill="#606049" width="11.66" height="11.08"/>
<rect x="1827.016" y="82.098" fill="#606049" width="11.66" height="11.082"/>
<rect x="2073.766" y="123.514" fill="#606049" width="11.66" height="16.916"/>
<rect x="2055.207" y="123.514" fill="#606049" width="9.689" height="16.916"/>
<polygon fill="#F3732A" points="2428.941,224.565 2380.807,195.052 2274.905,195.052 2274.905,252.139 2428.941,252.139 "/>
<polygon fill="#606049" points="2315.283,232.942 2358.14,196.607 2397.27,232.942 2437.646,232.942 2407.825,154.616 
	2250.18,154.616 2227.707,232.942 "/>
<polygon fill="#FBAE18" points="2281.428,232.942 2257.828,167.726 2240.127,232.942 2240.127,252.139 2281.428,252.139 "/>
<rect x="1850.932" y="103.68" fill="#606049" width="21.574" height="11.082"/>
<rect x="1883.598" y="103.68" fill="#606049" width="8.158" height="25.666"/>
<rect x="2139.107" y="189.723" fill="#606049" width="27.403" height="30.916"/>
<rect x="2103.523" y="189.723" fill="#606049" width="8.737" height="41.416"/>
<rect x="2144.361" y="144.227" fill="#606049" width="16.904" height="19.25"/>
<rect x="2193.361" y="144.227" fill="#606049" width="16.904" height="19.25"/>
<rect x="2207.354" y="189.723" fill="#606049" width="16.324" height="30.916"/>
<polygon fill="#323221" stroke="#E8E8E8" stroke-width="0.875" points="1884.172,49.43 1874.748,69.354 1860.479,69.354 
	1870.441,49.43 "/>
<polygon fill="#323221" stroke="#E8E8E8" stroke-width="0.875" points="1866.404,49.43 1856.98,69.354 1842.711,69.354 
	1852.676,49.43 "/>
<polygon fill="#323221" stroke="#E8E8E8" stroke-width="0.875" points="1848.365,49.43 1838.941,69.354 1824.672,69.354 
	1834.635,49.43 "/>
<rect x="1771.002" y="43.596" fill="#323221" stroke="#E8E8E8" stroke-width="0.875" width="6.709" height="10.209"/>
<rect x="1761.084" y="43.596" fill="#323221" stroke="#E8E8E8" stroke-width="0.875" width="6.709" height="10.209"/>
<rect x="1751.459" y="43.596" fill="#323221" stroke="#E8E8E8" stroke-width="0.875" width="6.709" height="10.209"/>
<rect x="1742.125" y="43.596" fill="#323221" stroke="#E8E8E8" stroke-width="0.875" width="6.709" height="10.209"/>
<rect x="1732.209" y="43.596" fill="#323221" stroke="#E8E8E8" stroke-width="0.875" width="6.709" height="10.209"/>
<rect x="2000.252" y="58.033" fill="#323221" stroke="#E8E8E8" stroke-width="0.875" width="6.709" height="10.209"/>
<rect x="1990.334" y="58.033" fill="#323221" stroke="#E8E8E8" stroke-width="0.875" width="6.709" height="10.209"/>
<rect x="1980.709" y="58.033" fill="#323221" stroke="#E8E8E8" stroke-width="0.875" width="6.709" height="10.209"/>
<rect x="1971.375" y="58.033" fill="#323221" stroke="#E8E8E8" stroke-width="0.875" width="6.709" height="10.209"/>
<rect x="1961.459" y="58.033" fill="#323221" stroke="#E8E8E8" stroke-width="0.875" width="6.709" height="10.209"/>
<rect x="2205.439" y="26.096" fill="#323221" stroke="#E8E8E8" stroke-width="0.6875" width="5.274" height="8.021"/>
<rect x="2197.646" y="26.096" fill="#323221" stroke="#E8E8E8" stroke-width="0.6875" width="5.271" height="8.021"/>
<rect x="2190.082" y="26.096" fill="#323221" stroke="#E8E8E8" stroke-width="0.6875" width="5.275" height="8.021"/>
<rect x="2182.748" y="26.096" fill="#323221" stroke="#E8E8E8" stroke-width="0.6875" width="5.273" height="8.021"/>
<rect x="2174.959" y="26.096" fill="#323221" stroke="#E8E8E8" stroke-width="0.6875" width="5.27" height="8.021"/>
<polygon fill="#FCC6A1" points="1991.51,220.439 1993.045,223.078 1995.371,210.875 1995.836,203.979 1994.276,199.296 
	1995.924,196.344 1995.987,191.192 1988.138,190.212 1982.863,196.159 1982.496,200.94 1983.6,201.493 1985.439,196.527 
	1987.83,195.056 1989.308,198.16 1988.029,203.554 1984.15,219.889 1985.256,221.178 1991.327,207.747 "/>
<circle fill="#FCC6A1" cx="1992.571" cy="187.526" r="3.087"/>
<circle fill="#FCC6A1" cx="1974.938" cy="182.581" r="3.088"/>
<polygon fill="#FFFFFF" points="1983.771,199.722 1979.797,187.229 1976.957,185.244 1970.429,186.948 1969.151,195.179 
	1971.562,199.153 1972.132,205.113 1972.417,218.174 1974.402,218.74 1976.105,203.979 1976.957,219.025 1979.513,219.025 
	1979.23,192.058 1982.636,202.844 "/>
<polygon fill="#FFFFFF" points="1987.887,202.275 1995.693,203.554 1994.983,199.296 1995.977,196.885 1995.987,191.192 
	1993.422,190.923 1992.571,192.058 1991.293,190.354 1988.138,190.212 1984.765,193.478 1985.898,196.174 1987.83,195.056 
	1989.164,198.018 "/>
<g>
	<polyline fill="#FCC6A1" points="2000.815,266.582 2005.406,264.243 2010.08,257.841 2008.808,257.265 2000.815,266.582 	"/>
	<polygon fill="#FFFFFF" points="2006.006,263.974 2006.744,262.532 2004.669,261.776 1999.943,267.32 1999.943,271.633 	"/>
</g>
<polyline fill="#B3966D" points="1987.887,202.275 1984.15,219.889 1985.256,221.178 1991.327,207.747 1991.578,220.869 
	1993.045,223.078 1995.371,210.875 1995.836,203.979 1987.887,202.275 "/>
<polygon fill="#F3732A" points="1981.359,192.624 1979.799,194.043 1979.23,192.058 1979.372,198.586 1973.411,198.728 
	1972.427,198.025 1971.562,193.051 1970.666,191.238 1969.862,190.495 1970.429,186.948 1973.553,185.953 1975.681,187.229 
	1976.957,185.244 1979.797,187.229 "/>
</svg>
