<?xml version="1.0" encoding="utf-8"?>
<!-- Generator: Adobe Illustrator 15.1.0, SVG Export Plug-In . SVG Version: 6.00 Build 0)  -->
<!DOCTYPE svg PUBLIC "-//W3C//DTD SVG 1.1//EN" "http://www.w3.org/Graphics/SVG/1.1/DTD/svg11.dtd">
<svg version="1.1" xmlns="http://www.w3.org/2000/svg" xmlns:xlink="http://www.w3.org/1999/xlink" x="0px" y="0px" width="2520px"
	 height="210.125px" viewBox="0 0 2520 210.125" enable-background="new 0 0 2520 210.125" xml:space="preserve">
<g id="factory">
	<g id="Back">
		<path fill="#FBAE18" d="M539.126,50.291c0,0,196-1.75,234.5-1.75s119-7,143.5-19.25s52.5-26.25,80.5-15.75
			s96.25,47.25,136.5,47.25s147-21,187.25-29.75s225.2-11.27,332.5,12.25C2066,133.625,2525.5,63.125,2525.5,63.125l-2.5,148.5
			L2.146,207.791V46.316l222-2L539.126,50.291"/>
		<polyline opacity="0.2" fill="#606049" enable-background="new    " points="3.582,70.754 3.582,46.754 225.582,44.754 
			540.562,50.729 		"/>
		<path opacity="0.2" fill="#606049" enable-background="new    " d="M540.562,50.729c0,0,196-1.75,234.5-1.75s119-7,143.5-19.25
			s52.5-26.25,80.5-15.75s96.25,47.25,136.5,47.25s147-21,187.25-29.75s225.111-10.874,332.5,12.25
			c417.188,89.833,864.27,21.025,864.27,21.025L2520,94.746c0,0-330.418,0.008-528.418-3.992s-310-16-366-26s-162-36-272-24
			s-178,38-232,28s-116-44-142-42s-92,24-120,26s-390-2-390-2L540.562,50.729z"/>
		<g>
			<polyline fill="#5F7D43" points="1183.259,74.395 1191.116,48.244 1200.263,74.395 			"/>
			<g>
				<polygon opacity="0.15" fill="#E8E8E8" enable-background="new    " points="1183.021,74.281 1199.896,74.281 1190.933,48.65 
									"/>
				<polygon opacity="0.15" fill="#E8E8E8" enable-background="new    " points="1183.282,73.975 1191.196,59.092 1200.159,73.975 
					1191.196,48.332 				"/>
			</g>
		</g>
		<g>
			<polyline fill="#5F7D43" points="1261.271,56.125 1267.845,34.244 1275.501,56.125 			"/>
			<g>
				<polygon opacity="0.15" fill="#E8E8E8" enable-background="new    " points="1261.073,56.029 1275.192,56.029 1267.692,34.586 
									"/>
				<polygon opacity="0.15" fill="#E8E8E8" enable-background="new    " points="1261.292,55.773 1267.911,43.322 1275.413,55.773 
					1267.911,34.318 				"/>
			</g>
		</g>
		<g>
			<polyline fill="#5F7D43" points="1293.938,59.625 1300.513,37.744 1308.165,59.625 			"/>
			<g>
				<polygon opacity="0.15" fill="#E8E8E8" enable-background="new    " points="1293.739,59.529 1307.858,59.529 1300.355,38.086 
									"/>
				<polygon opacity="0.15" fill="#E8E8E8" enable-background="new    " points="1293.958,59.273 1300.577,46.822 1308.079,59.273 
					1300.577,37.818 				"/>
			</g>
		</g>
		<g>
			<polyline fill="#5F7D43" points="1333.604,78.295 1340.179,56.412 1347.831,78.295 			"/>
			<g>
				<polygon opacity="0.15" fill="#E8E8E8" enable-background="new    " points="1333.403,78.199 1347.524,78.199 1340.021,56.754 
									"/>
				<polygon opacity="0.15" fill="#E8E8E8" enable-background="new    " points="1333.622,77.943 1340.243,65.49 1347.745,77.943 
					1340.243,56.488 				"/>
			</g>
		</g>
		<g>
			<polyline fill="#5F7D43" points="1308.903,109.764 1315.479,87.881 1323.134,109.764 			"/>
			<g>
				<polygon opacity="0.15" fill="#E8E8E8" enable-background="new    " points="1308.706,109.668 1322.825,109.668 
					1315.323,88.225 				"/>
				<polygon opacity="0.15" fill="#E8E8E8" enable-background="new    " points="1308.925,109.412 1315.544,96.959 
					1323.048,109.412 1315.544,87.957 				"/>
			</g>
		</g>
	</g>
	<path fill="#006796" d="M571.21,54.959c0,0,278.834,11.666,406,29.166s192.5,57.166,198.334,91c3.5,19.834-11.044,37-11.044,37
		l-358.5-0.75c0,0-43.504-52.547-89.854-85.059c-23.18-16.256-86-54-274-66C408.802,58.188,571.21,54.959,571.21,54.959"/>
	<path fill="#E1BF23" d="M-1,211.875l828.125-0.625c0,0,70.753-11.621,69.585-31.455c-1.166-19.836-256.666-124.838-501.666-162.17
		c-245-37.33-396.544,6.25-396.544,6.25L-1,211.875z"/>
	<path opacity="0.18" fill="#606049" enable-background="new    " d="M896.71,179.795c-1.166-19.836-256.666-124.838-501.666-162.17
		c-245-37.33-396.794,6.5-396.794,6.5v59.75c0,0,234.612-44.729,456.635-14.727c222.023,30.002,396.04,93.01,396.04,93.01
		L896.71,179.795z"/>
	<g>
		<polyline fill="#5F7D43" points="562.688,146.424 573.558,110.248 586.212,146.424 		"/>
		<g>
			<polygon opacity="0.15" fill="#E8E8E8" enable-background="new    " points="562.36,146.268 585.702,146.268 573.302,110.811 			
				"/>
			<polygon opacity="0.15" fill="#E8E8E8" enable-background="new    " points="562.72,145.844 573.667,125.258 586.067,145.844 
				573.667,110.373 			"/>
		</g>
	</g>
	<g>
		<polyline fill="#5F7D43" points="723.446,190.482 734.315,154.307 746.972,190.482 		"/>
		<g>
			<polygon opacity="0.15" fill="#E8E8E8" enable-background="new    " points="723.118,190.326 746.462,190.326 734.062,154.867 
							"/>
			<polygon opacity="0.15" fill="#E8E8E8" enable-background="new    " points="723.479,189.9 734.425,169.314 746.825,189.9 
				734.425,154.43 			"/>
		</g>
	</g>
	<g>
		<polyline fill="#5F7D43" points="666.427,137.686 677.296,101.51 689.95,137.686 		"/>
		<g>
			<polygon opacity="0.15" fill="#E8E8E8" enable-background="new    " points="666.099,137.527 689.442,137.527 677.04,102.07 			
				"/>
			<polygon opacity="0.15" fill="#E8E8E8" enable-background="new    " points="666.458,137.104 677.405,116.518 689.806,137.104 
				677.405,101.633 			"/>
		</g>
	</g>
	<g>
		<polyline fill="#5F7D43" points="581.878,112.781 590.341,84.615 600.194,112.781 		"/>
		<g>
			<polygon opacity="0.15" fill="#E8E8E8" enable-background="new    " points="581.624,112.658 599.798,112.658 590.142,85.053 			
				"/>
			<polygon opacity="0.15" fill="#E8E8E8" enable-background="new    " points="581.903,112.326 590.427,96.301 600.083,112.326 
				590.427,84.709 			"/>
		</g>
	</g>
	<g>
		<polyline fill="#5F7D43" points="563.442,102.617 571.298,76.467 580.446,102.617 		"/>
		<g>
			<polygon opacity="0.15" fill="#E8E8E8" enable-background="new    " points="563.204,102.504 580.079,102.504 571.114,76.873 			
				"/>
			<polygon opacity="0.15" fill="#E8E8E8" enable-background="new    " points="563.466,102.197 571.378,87.314 580.341,102.197 
				571.378,76.555 			"/>
		</g>
	</g>
	<g>
		<polyline fill="#5F7D43" points="525.259,55.729 533.116,29.578 542.263,55.729 		"/>
		<g>
			<polygon opacity="0.15" fill="#E8E8E8" enable-background="new    " points="525.021,55.615 541.896,55.615 532.933,29.984 			
				"/>
			<polygon opacity="0.15" fill="#E8E8E8" enable-background="new    " points="525.282,55.309 533.196,40.428 542.159,55.309 
				533.196,29.666 			"/>
		</g>
	</g>
	<g>
		<polyline fill="#5F7D43" points="427.194,124.154 435.05,98.002 444.198,124.154 		"/>
		<g>
			<polygon opacity="0.15" fill="#E8E8E8" enable-background="new    " points="426.956,124.041 443.831,124.041 434.868,98.408 			
				"/>
			<polygon opacity="0.15" fill="#E8E8E8" enable-background="new    " points="427.218,123.732 435.13,108.852 444.095,123.732 
				435.13,98.092 			"/>
		</g>
	</g>
	<g>
		<polyline fill="#5F7D43" points="409.743,109.709 417.599,83.559 426.747,109.709 		"/>
		<g>
			<polygon opacity="0.15" fill="#E8E8E8" enable-background="new    " points="409.505,109.596 426.38,109.596 417.415,83.965 			
				"/>
			<polygon opacity="0.15" fill="#E8E8E8" enable-background="new    " points="409.767,109.289 417.679,94.406 426.642,109.289 
				417.679,83.646 			"/>
		</g>
	</g>
	<g>
		<polyline fill="#5F7D43" points="208.55,131.843 219.419,95.667 232.073,131.843 		"/>
		<g>
			<polygon opacity="0.15" fill="#E8E8E8" enable-background="new    " points="208.222,131.686 231.563,131.686 219.163,96.228 			
				"/>
			<polygon opacity="0.15" fill="#E8E8E8" enable-background="new    " points="208.581,131.264 219.528,110.675 231.929,131.264 
				219.528,95.79 			"/>
		</g>
	</g>
	<g>
		<polyline fill="#5F7D43" points="32.7,34.307 41.163,6.139 51.017,34.307 		"/>
		<g>
			<polygon opacity="0.15" fill="#E8E8E8" enable-background="new    " points="32.444,34.184 50.62,34.184 40.964,6.572 			"/>
			<polygon opacity="0.15" fill="#E8E8E8" enable-background="new    " points="32.726,33.855 41.247,17.826 50.903,33.855 
				41.247,6.234 			"/>
		</g>
	</g>
	<g>
		<polyline fill="#5F7D43" points="478.661,50.164 487.126,21.998 496.979,50.164 		"/>
		<g>
			<polygon opacity="0.15" fill="#E8E8E8" enable-background="new    " points="478.407,50.041 496.583,50.041 486.927,22.432 			
				"/>
			<polygon opacity="0.15" fill="#E8E8E8" enable-background="new    " points="478.688,49.713 487.21,33.684 496.866,49.713 
				487.21,22.092 			"/>
		</g>
	</g>
	<g>
		<polyline fill="#5F7D43" points="150.546,110.982 164.767,63.659 181.321,110.982 		"/>
		<g>
			<polygon opacity="0.15" fill="#E8E8E8" enable-background="new    " points="150.117,110.777 180.654,110.777 164.432,64.393 			
				"/>
			<polygon opacity="0.15" fill="#E8E8E8" enable-background="new    " points="150.589,110.225 164.91,83.294 181.129,110.225 
				164.91,63.82 			"/>
		</g>
	</g>
	<rect x="186.667" y="27.956" fill="#FFFFFF" width="226.625" height="44.625"/>
	<rect x="187.38" y="29.706" fill="#E8E8E8" width="176.75" height="42.875"/>
	<rect x="252.292" y="20.081" fill="#FFFFFF" width="24.938" height="8.012"/>
	<rect x="252.449" y="20.394" fill="#E8E8E8" width="13.359" height="7.699"/>
	<rect x="328.855" y="20.081" fill="#FFFFFF" width="24.5" height="8.012"/>
	<rect x="329.011" y="20.394" fill="#E8E8E8" width="12.922" height="7.699"/>
	<rect x="382.667" y="61.206" fill="#606049" width="5.25" height="6.125"/>
	<rect x="392.73" y="61.206" fill="#606049" width="5.25" height="6.125"/>
	<rect x="403.23" y="61.206" fill="#606049" width="5.25" height="6.125"/>
	<rect x="200.021" y="43.399" fill="#606049" width="5.25" height="6.125"/>
	<rect x="327.542" y="61.206" fill="#606049" width="5.25" height="6.125"/>
	<rect x="327.542" y="43.399" fill="#606049" width="5.25" height="6.125"/>
	<rect x="336.292" y="43.399" fill="#606049" width="5.25" height="6.125"/>
	<rect x="214.021" y="43.399" fill="#606049" width="5.25" height="6.125"/>
	<rect x="194.542" y="14.831" fill="#FFFFFF" width="10.938" height="13.125"/>
	<rect x="194.261" y="16.456" fill="#E8E8E8" width="6.359" height="11.199"/>
	<path fill="#606049" d="M288.245,58.127c-0.156-1.768-5.917-3.189-13.017-3.189s-12.861,1.422-13.017,3.189h-0.015v14.498h26.188
		V58.127H288.245z"/>
	<g>
		<polygon fill="#FFFFFF" points="298.949,52.234 249.696,52.234 250.631,48.203 299.884,48.203 		"/>
		<rect x="250.579" y="33.688" fill="#FFFFFF" width="49.229" height="14.75"/>
		<rect x="254.165" y="38.812" fill="#006796" width="42.25" height="6.625"/>
	</g>
</g>
<g id="Layer_2" display="none">
	<path display="inline" fill="#EBCC2D" d="M981.287,193.041c-13.386,0-22.588-5.02-28.444-11.712
		c-5.854-6.692-13.44-18.216-6.752-19.89c6.693-1.672,16.093-1.242,19.525,0.248c5.685,2.473,31.387,18.535,27.384,26.334
		C991.298,191.334,986.306,193.041,981.287,193.041z"/>
	<path display="inline" fill="#606049" d="M963.417,165.91c-2.055-1.121-10.6-0.771-10.856,1.553
		c-0.258,2.324,12.149,15.764,16.026,17.574c3.877,1.812,12.924,2.068,15.51,0.26c2.584-1.807,1.554-3.359-2.325-6.203
		S966.261,167.463,963.417,165.91z"/>
	<polygon display="inline" fill="#606049" points="962.188,175.416 942.938,181.76 940.97,181.322 962.407,174.322 	"/>
	<polygon display="inline" fill="#606049" points="974.22,174.322 994.562,180.01 996.532,179.791 973.126,173.229 	"/>
	<circle display="inline" fill="#B3966D" cx="962.188" cy="171.916" r="1.531"/>
	<circle display="inline" fill="#B3966D" cx="968.97" cy="172.135" r="1.531"/>
	<circle display="inline" fill="#B3966D" cx="969.845" cy="180.229" r="1.531"/>
	<circle display="inline" fill="#B3966D" cx="977.282" cy="179.572" r="1.531"/>
	<circle display="inline" fill="#606049" cx="965.47" cy="164.041" r="1.531"/>
	<circle display="inline" fill="#606049" cx="957.812" cy="162.072" r="1.531"/>
	<rect x="955.626" y="163.604" display="inline" fill="#606049" width="4.812" height="7"/>
	<rect x="963.282" y="165.463" display="inline" fill="#606049" width="4.594" height="5.031"/>
</g>
</svg>
