<?xml version="1.0" encoding="utf-8"?>
<!-- Generator: Adobe Illustrator 15.0.2, SVG Export Plug-In . SVG Version: 6.00 Build 0)  -->
<!DOCTYPE svg PUBLIC "-//W3C//DTD SVG 1.1//EN" "http://www.w3.org/Graphics/SVG/1.1/DTD/svg11.dtd">
<svg version="1.1" id="Layer_1" xmlns="http://www.w3.org/2000/svg" xmlns:xlink="http://www.w3.org/1999/xlink" x="0px" y="0px"
	 width="193.98px" height="65.103px" viewBox="0 0 193.98 65.103" enable-background="new 0 0 193.98 65.103" xml:space="preserve">
<g>
	<g>
		<path fill="#FFFFFF" d="M76.802,31.043c-0.334,0.765-0.666,1.497-0.997,2.192c-0.325,0.699-0.658,1.385-0.994,2.061
			c-0.332,0.678-0.679,1.349-1.033,2.019c-0.358,0.669-0.725,1.361-1.114,2.075v5.103h-1.95V39.39l-3.215-6.174
			c-0.137-0.253-0.25-0.429-0.345-0.531c-0.094-0.101-0.251-0.153-0.482-0.153h-0.782v-0.522c0-0.842,0.474-1.266,1.43-1.266
			c0.45,0,0.826,0.115,1.114,0.343c0.286,0.227,0.563,0.617,0.834,1.167l2.072,4.281c0.062,0.176,0.127,0.344,0.187,0.51
			c0.062,0.169,0.122,0.346,0.193,0.535h0.141c0.093-0.375,0.22-0.737,0.383-1.087l2.672-5.605c0.28,0,0.593,0.012,0.936,0.04
			C76.188,30.953,76.508,30.992,76.802,31.043z"/>
		<path fill="#FFFFFF" d="M87.072,43.617c-0.03,0.3-0.068,0.595-0.121,0.875h-7.739V30.947h7.578c0,0.267-0.014,0.555-0.043,0.862
			c-0.026,0.311-0.067,0.597-0.118,0.867h-5.446v3.896h4.119v1.708h-4.119v4.482h5.928C87.11,43.032,87.095,43.313,87.072,43.617z"
			/>
		<path fill="#FFFFFF" d="M98.065,44.592l-1.446-4.318h-4.858l-1.405,4.318c-0.478-0.02-1.042-0.08-1.501-0.221
			c1.323-4.316,2.869-8.891,4.555-13.406h1.748c1.56,4.354,3.167,9.09,4.533,13.406C99.209,44.513,98.605,44.573,98.065,44.592z
			 M94.435,33.471c-0.082-0.298-0.143-0.542-0.165-0.902h-0.116c-0.024,0.361-0.062,0.604-0.141,0.902l-1.789,5.417h3.976
			L94.435,33.471z"/>
		<path fill="#FFFFFF" d="M110.525,44.691c-0.442,0-0.814-0.108-1.116-0.329c-0.3-0.223-0.604-0.606-0.911-1.157l-2.335-4.219h-2.03
			v5.506h-1.93V33.216c0-0.279-0.041-0.464-0.129-0.553c-0.087-0.086-0.259-0.131-0.512-0.131h-0.946V32.05
			c0-0.482,0.139-0.817,0.411-1.015c0.277-0.193,0.624-0.292,1.037-0.292c0.375,0,0.709,0.044,1.006,0.131
			c0.291,0.089,0.547,0.245,0.765,0.474c0.387-0.229,0.798-0.385,1.233-0.474c0.436-0.087,0.852-0.131,1.258-0.131
			c0.561,0,1.097,0.076,1.605,0.221c0.51,0.15,0.957,0.379,1.336,0.694c0.384,0.316,0.685,0.721,0.904,1.216
			c0.223,0.494,0.332,1.098,0.332,1.81c0,0.951-0.219,1.744-0.661,2.379c-0.442,0.638-1.079,1.084-1.911,1.339l2.17,3.776
			c0.149,0.269,0.29,0.457,0.424,0.562c0.133,0.109,0.336,0.164,0.603,0.164h0.742v0.542
			C111.87,44.277,111.423,44.691,110.525,44.691z M108.517,34.783c0-0.881-0.227-1.503-0.674-1.856
			c-0.45-0.355-1.058-0.534-1.821-0.534c-0.279,0-0.6,0.026-0.953,0.072c-0.356,0.044-0.665,0.109-0.936,0.192v4.782h1.652
			c0.895,0,1.576-0.206,2.035-0.614C108.285,36.415,108.517,35.736,108.517,34.783z"/>
	</g>
	<g>
		<path fill="#FFFFFF" d="M77.515,63.251c-0.279,0.08-0.586,0.134-0.913,0.159c-0.329,0.028-0.654,0.048-0.972,0.062l-1.331-4.122
			H69.68l-0.788,2.474c-0.186,0.574-0.415,1.009-0.701,1.305c-0.282,0.294-0.688,0.442-1.226,0.442c-0.507,0-0.874-0.107-1.095-0.32
			c-0.221-0.214-0.331-0.556-0.331-1.028v-0.44h0.823c0.28,0,0.47-0.053,0.563-0.161c0.095-0.105,0.195-0.307,0.3-0.601
			l3.798-11.193h2.073c0.774,2.208,1.541,4.451,2.29,6.72C76.137,58.82,76.847,61.054,77.515,63.251z M72.213,52.699
			c-0.031-0.094-0.062-0.229-0.104-0.402c-0.041-0.176-0.058-0.363-0.058-0.562h-0.141c0,0.2-0.021,0.387-0.052,0.562
			c-0.034,0.173-0.064,0.308-0.091,0.402l-1.608,5.046h3.66L72.213,52.699z"/>
		<path fill="#FFFFFF" d="M89.265,63.422c-0.347,0.033-0.648,0.051-0.915,0.051l-5.586-9.506c-0.082-0.15-0.189-0.37-0.323-0.663
			c-0.134-0.297-0.243-0.569-0.322-0.824l-0.161,0.02c0.027,0.216,0.055,0.48,0.082,0.793c0.024,0.317,0.041,0.567,0.041,0.751
			v7.359c0,1.449-0.647,2.169-1.931,2.169c-0.431,0-0.787-0.107-1.077-0.32c-0.289-0.214-0.43-0.556-0.43-1.028v-0.421h0.926
			c0.291,0,0.486-0.052,0.581-0.161c0.092-0.104,0.142-0.292,0.142-0.56V49.966c0.309-0.067,0.655-0.113,1.042-0.139
			c0.391-0.031,0.724-0.043,1.005-0.043l5.327,9.104c0.108,0.19,0.222,0.412,0.355,0.674c0.123,0.261,0.229,0.525,0.309,0.792
			l0.159-0.019c-0.026-0.255-0.055-0.519-0.081-0.792c-0.025-0.273-0.041-0.525-0.041-0.755v-8.961h1.793v13.484
			C89.903,63.352,89.602,63.388,89.265,63.422z"/>
		<path fill="#FFFFFF" d="M103.595,63.422c-0.347,0.033-0.647,0.051-0.919,0.051l-5.583-9.506c-0.082-0.15-0.188-0.37-0.32-0.663
			c-0.136-0.297-0.245-0.569-0.326-0.824l-0.159,0.02c0.025,0.216,0.055,0.48,0.082,0.793c0.026,0.317,0.041,0.567,0.041,0.751
			v7.359c0,1.449-0.647,2.169-1.93,2.169c-0.432,0-0.788-0.107-1.076-0.32c-0.291-0.214-0.435-0.556-0.435-1.028v-0.421h0.929
			c0.291,0,0.486-0.052,0.582-0.161c0.092-0.104,0.141-0.292,0.141-0.56V49.966c0.306-0.067,0.655-0.113,1.044-0.139
			c0.39-0.031,0.724-0.043,1.003-0.043l5.326,9.104c0.107,0.19,0.223,0.412,0.356,0.674c0.123,0.261,0.229,0.525,0.31,0.792
			l0.158-0.019c-0.025-0.255-0.053-0.519-0.081-0.792c-0.025-0.273-0.041-0.525-0.041-0.755v-8.961h1.789v13.484
			C104.233,63.352,103.933,63.388,103.595,63.422z"/>
		<path fill="#FFFFFF" d="M108.467,63.371V49.828h1.969v13.543H108.467z"/>
		<path fill="#FFFFFF" d="M123.844,49.926c-0.632,2.306-1.299,4.575-2.001,6.811c-0.701,2.239-1.457,4.448-2.261,6.633h-2.13
			l-3.62-11.215c-0.096-0.268-0.189-0.459-0.289-0.571c-0.102-0.116-0.266-0.175-0.492-0.175h-0.847v-0.521
			c0-0.843,0.472-1.268,1.407-1.268c0.509,0,0.931,0.131,1.265,0.396c0.34,0.259,0.599,0.707,0.787,1.333l2.652,8.826
			c0.055,0.173,0.096,0.354,0.131,0.543c0.034,0.187,0.062,0.377,0.091,0.562h0.142c0.04-0.375,0.113-0.744,0.218-1.105l3.157-10.41
			c0.255,0,0.56,0.011,0.913,0.039C123.323,49.831,123.614,49.871,123.844,49.926z"/>
		<path fill="#FFFFFF" d="M134.291,62.496c-0.029,0.302-0.066,0.595-0.12,0.875h-7.739V49.828h7.578
			c0,0.266-0.014,0.554-0.041,0.862c-0.027,0.309-0.068,0.596-0.12,0.867h-5.446v3.896h4.12v1.707h-4.12v4.482h5.928
			C134.33,61.911,134.315,62.196,134.291,62.496z"/>
		<path fill="#FFFFFF" d="M146.332,63.572c-0.442,0-0.816-0.11-1.117-0.333c-0.302-0.22-0.607-0.605-0.914-1.156l-2.332-4.218
			h-2.029v5.505h-1.933V52.096c0-0.283-0.042-0.465-0.131-0.554c-0.084-0.087-0.255-0.132-0.511-0.132h-0.942v-0.479
			c0-0.486,0.136-0.82,0.411-1.015c0.274-0.194,0.621-0.295,1.033-0.295c0.376,0,0.712,0.044,1.007,0.131
			c0.294,0.089,0.548,0.246,0.764,0.473c0.388-0.227,0.801-0.384,1.235-0.473c0.434-0.087,0.853-0.131,1.257-0.131
			c0.562,0,1.1,0.077,1.607,0.226c0.509,0.147,0.954,0.377,1.337,0.692c0.384,0.314,0.686,0.72,0.904,1.216
			c0.22,0.496,0.333,1.098,0.333,1.809c0,0.95-0.224,1.745-0.663,2.381c-0.444,0.637-1.082,1.081-1.911,1.336l2.169,3.779
			c0.149,0.269,0.288,0.456,0.426,0.561c0.134,0.108,0.334,0.161,0.6,0.161h0.744v0.544
			C147.676,63.158,147.227,63.572,146.332,63.572z M144.32,53.663c0-0.884-0.224-1.502-0.674-1.857
			c-0.447-0.355-1.056-0.535-1.818-0.535c-0.283,0-0.602,0.025-0.955,0.07c-0.354,0.047-0.666,0.111-0.934,0.192v4.783h1.648
			c0.896,0,1.577-0.204,2.036-0.615C144.089,55.294,144.32,54.616,144.32,53.663z"/>
		<path fill="#FFFFFF" d="M157.563,59.693c0,1.193-0.401,2.14-1.205,2.832c-0.807,0.698-1.91,1.046-3.315,1.046
			c-0.564,0-1.173-0.047-1.829-0.141c-0.659-0.094-1.259-0.252-1.808-0.482c0.038-0.293,0.1-0.596,0.178-0.905
			c0.083-0.308,0.168-0.58,0.261-0.823c0.538,0.228,1.092,0.396,1.671,0.502c0.574,0.11,1.145,0.163,1.709,0.163
			c1.568,0,2.35-0.672,2.35-2.011c0-0.483-0.149-0.89-0.453-1.216c-0.301-0.328-0.68-0.623-1.133-0.884
			c-0.455-0.264-0.956-0.514-1.49-0.755c-0.535-0.242-1.028-0.521-1.486-0.842c-0.457-0.323-0.834-0.703-1.138-1.136
			c-0.3-0.437-0.447-0.981-0.447-1.638c0-0.616,0.115-1.16,0.348-1.628c0.235-0.47,0.558-0.866,0.965-1.185
			c0.408-0.322,0.898-0.566,1.469-0.725c0.571-0.16,1.194-0.244,1.877-0.244c0.428,0,0.904,0.027,1.429,0.075
			c0.521,0.046,1.001,0.123,1.426,0.23c-0.01,0.228-0.048,0.509-0.101,0.843c-0.052,0.335-0.12,0.64-0.2,0.905
			c-0.417-0.108-0.883-0.193-1.406-0.264c-0.523-0.063-0.999-0.099-1.427-0.099c-0.912,0-1.537,0.178-1.877,0.535
			c-0.345,0.352-0.514,0.813-0.514,1.375c0,0.431,0.15,0.792,0.448,1.085c0.302,0.295,0.683,0.569,1.142,0.825
			c0.454,0.254,0.949,0.505,1.484,0.754c0.536,0.248,1.033,0.537,1.487,0.874c0.456,0.334,0.833,0.737,1.135,1.205
			C157.411,58.432,157.563,59.011,157.563,59.693z"/>
		<path fill="#FFFFFF" d="M170.022,63.251c-0.281,0.08-0.584,0.134-0.913,0.159c-0.328,0.028-0.653,0.048-0.974,0.062l-1.328-4.122
			h-4.622l-0.783,2.474c-0.188,0.574-0.42,1.009-0.703,1.305c-0.282,0.294-0.69,0.442-1.227,0.442c-0.507,0-0.874-0.107-1.097-0.32
			c-0.218-0.214-0.329-0.556-0.329-1.028v-0.44h0.822c0.281,0,0.472-0.053,0.561-0.161c0.098-0.105,0.197-0.307,0.304-0.601
			l3.798-11.193h2.073c0.774,2.208,1.537,4.451,2.289,6.72C168.642,58.82,169.354,61.054,170.022,63.251z M164.72,52.699
			c-0.027-0.094-0.062-0.229-0.101-0.402c-0.043-0.176-0.061-0.363-0.061-0.562h-0.142c0,0.2-0.019,0.387-0.047,0.562
			c-0.035,0.173-0.068,0.308-0.096,0.402l-1.605,5.046h3.659L164.72,52.699z"/>
		<path fill="#FFFFFF" d="M180.864,63.572c-0.444,0-0.814-0.11-1.116-0.333c-0.305-0.22-0.604-0.605-0.917-1.156l-2.332-4.218
			h-2.027v5.505h-1.93V52.096c0-0.283-0.045-0.465-0.132-0.554c-0.086-0.087-0.256-0.132-0.509-0.132h-0.944v-0.479
			c0-0.486,0.137-0.82,0.407-1.015c0.276-0.194,0.622-0.295,1.039-0.295c0.375,0,0.711,0.044,1.004,0.131
			c0.295,0.089,0.549,0.246,0.763,0.473c0.389-0.227,0.801-0.384,1.234-0.473c0.438-0.087,0.858-0.131,1.261-0.131
			c0.561,0,1.097,0.077,1.604,0.226c0.509,0.147,0.958,0.377,1.34,0.692c0.379,0.314,0.681,0.72,0.903,1.216
			c0.219,0.496,0.331,1.098,0.331,1.809c0,0.95-0.222,1.745-0.662,2.381c-0.445,0.637-1.079,1.081-1.912,1.336l2.171,3.779
			c0.146,0.269,0.29,0.456,0.424,0.561c0.135,0.108,0.334,0.161,0.601,0.161h0.744v0.544
			C182.209,63.158,181.762,63.572,180.864,63.572z M178.854,53.663c0-0.884-0.225-1.502-0.675-1.857
			c-0.449-0.355-1.053-0.535-1.818-0.535c-0.279,0-0.599,0.025-0.956,0.07c-0.354,0.047-0.664,0.111-0.933,0.192v4.783h1.648
			c0.898,0,1.578-0.204,2.039-0.615C178.619,55.294,178.854,54.616,178.854,53.663z"/>
		<path fill="#FFFFFF" d="M192.918,49.926c-0.34,0.763-0.668,1.493-0.999,2.192c-0.329,0.695-0.661,1.381-0.992,2.059
			c-0.34,0.674-0.686,1.348-1.032,2.019c-0.361,0.671-0.725,1.36-1.117,2.071v5.104h-1.948v-5.104l-3.219-6.171
			c-0.134-0.254-0.246-0.431-0.341-0.532c-0.093-0.1-0.257-0.153-0.483-0.153h-0.781v-0.521c0-0.843,0.473-1.268,1.428-1.268
			c0.454,0,0.824,0.117,1.112,0.345c0.289,0.23,0.567,0.616,0.836,1.165l2.072,4.281c0.066,0.174,0.127,0.347,0.188,0.514
			c0.058,0.167,0.12,0.344,0.188,0.532h0.144c0.091-0.375,0.22-0.737,0.384-1.088l2.667-5.604c0.282,0,0.595,0.011,0.942,0.039
			C192.305,49.831,192.618,49.871,192.918,49.926z"/>
	</g>
	<g>
		<path fill="#FFFFFF" d="M60.154,53.43V24.942c0,0,13.83-0.024,14.738-0.05C69.43,10.173,55.246,0,38.648,0
			C17.337,0,0,17.335,0,38.646c0,9.792,3.664,18.735,9.688,25.555l0.053,0.061h15.354c0.09,0.013,0.186,0.022,0.287,0.022
			c0.953,0,1.428-0.443,1.428-1.328V14.032c0-0.952-0.475-1.429-1.428-1.429c-0.884,0-1.322,0.478-1.322,1.429
			c0,2.039-0.629,3.67-1.887,4.891c-1.257,1.223-2.906,1.833-4.945,1.833c-0.883,0-1.322,0.478-1.322,1.43
			c0,0.882,0.439,1.324,1.322,1.324c2.652,0,4.93-0.917,6.832-2.754v40.97H10.913c-5.221-6.259-8.366-14.308-8.366-23.08
			c0-19.903,16.193-36.099,36.102-36.099c13.722,0,25.678,7.699,31.783,19.005H60.026c-1.005-6.693-4.896-10.041-11.673-10.041
			c-3.429,0-6.234,1.109-8.407,3.33c-2.177,2.215-3.265,5.039-3.265,8.47V53.43c0,3.349,1.088,6.131,3.265,8.347
			c2.173,2.217,4.979,3.326,8.407,3.326c3.433,0,6.254-1.086,8.473-3.266C59.043,59.666,60.154,56.861,60.154,53.43z M56.764,53.43
			c0,1.677-0.379,3.181-1.129,4.519c-1.426,2.511-3.849,3.766-7.281,3.766c-3.347,0-5.73-1.255-7.15-3.766
			c-0.756-1.337-1.132-2.841-1.132-4.519V23.312c0-5.188,2.467-7.991,7.403-8.409c-0.5,1.005-0.75,2.133-0.75,3.388
			c0,1.926,0.629,3.512,1.879,4.768c1.256,1.255,2.846,1.884,4.771,1.884h3.39V53.43z M53.436,21.553
			c-2.217,0-3.322-1.087-3.322-3.263c0-1.423,0.467-2.383,1.406-2.888c2.812,0.921,4.563,2.973,5.244,6.151H53.436z"/>
	</g>
</g>
</svg>
