<?xml version="1.0" encoding="utf-8"?>
<!-- Generator: Adobe Illustrator 15.1.0, SVG Export Plug-In . SVG Version: 6.00 Build 0)  -->
<!DOCTYPE svg PUBLIC "-//W3C//DTD SVG 1.1//EN" "http://www.w3.org/Graphics/SVG/1.1/DTD/svg11.dtd">
<svg version="1.1" id="Layer_1" xmlns="http://www.w3.org/2000/svg" xmlns:xlink="http://www.w3.org/1999/xlink" x="0px" y="0px"
	 width="505.602px" height="180.691px" viewBox="0 0 505.602 180.691" enable-background="new 0 0 505.602 180.691"
	 xml:space="preserve">
<g id="Layer_1_1_">
	<g>
		<g>
			<path fill="#FFFFFF" d="M136.602,121.34v-64.7c0,0,31.411-0.051,33.472-0.111C157.671,23.102,125.457,0,87.764,0
				C39.37,0,0,39.374,0,87.766c0,22.235,8.323,42.549,22.002,58.028l0.121,0.141h34.864c0.203,0.023,0.419,0.049,0.653,0.049
				c2.163,0,3.243-1.003,3.243-3.016V31.863c0-2.157-1.08-3.245-3.243-3.245c-2.008,0-3.006,1.087-3.006,3.245
				c0,4.634-1.426,8.337-4.286,11.112c-2.856,2.771-6.594,4.159-11.226,4.159c-2.007,0-3.009,1.084-3.009,3.244
				c0,2.007,1.002,3.01,3.009,3.01c6.018,0,11.189-2.078,15.511-6.254v93.043H24.784C12.926,125.961,5.785,107.683,5.785,87.766
				c0-45.203,36.774-81.981,81.979-81.981c31.167,0,58.32,17.485,72.183,43.161h-23.635c-2.278-15.194-11.111-22.796-26.501-22.796
				c-7.792,0-14.155,2.515-19.093,7.557c-4.946,5.028-7.415,11.443-7.415,19.23v68.403c0,7.604,2.469,13.922,7.415,18.953
				c4.938,5.031,11.301,7.549,19.093,7.549c7.793,0,14.204-2.464,19.238-7.411C134.077,135.496,136.602,129.128,136.602,121.34z
				 M128.906,121.34c0,3.805-0.862,7.226-2.568,10.263c-3.228,5.699-8.735,8.547-16.528,8.547c-7.605,0-13.018-2.848-16.245-8.547
				c-1.713-3.037-2.566-6.458-2.566-10.263V52.936c0-11.776,5.605-18.142,16.815-19.096c-1.14,2.279-1.705,4.846-1.705,7.695
				c0,4.375,1.42,7.979,4.272,10.834c2.847,2.843,6.455,4.27,10.83,4.27h7.695V121.34z M121.35,48.945
				c-5.034,0-7.551-2.467-7.551-7.409c0-3.229,1.069-5.416,3.198-6.559c6.387,2.094,10.361,6.75,11.909,13.967L121.35,48.945
				L121.35,48.945z"/>
			<g>
				<path fill="none" d="M176.56,82.517c5.684,47.813-28.461,91.18-76.268,96.862c-47.818,5.685-91.182-28.463-96.869-76.27
					C-2.261,55.296,31.888,11.933,79.696,6.244C127.509,0.564,170.876,34.707,176.56,82.517z"/>
				<path fill="#FFFFFF" d="M45.034,167.486l3.077-5.243l0.25-9.418l1.834,1.076l-0.259,4.434c-0.09,1.203-0.146,2.181-0.267,3.27
					l0.037,0.021c0.803-0.612,1.716-1.162,2.742-1.816l3.78-2.367l1.797,1.056l-8.289,4.675l-3.088,5.264L45.034,167.486z"/>
				<path fill="#FFFFFF" d="M63.26,168.775l-5.141-2.084l-1.94,4.787l5.751,2.331l-0.583,1.438l-7.485-3.034l5.381-13.273
					l7.189,2.914l-0.583,1.437l-5.456-2.211l-1.701,4.195l5.141,2.085L63.26,168.775z"/>
				<path fill="#FFFFFF" d="M68.802,172.739l-2.465,4.057l-1.865-0.432l7.993-12.86l2.154,0.499l1.537,15.062l-1.927-0.445
					l-0.476-4.736L68.802,172.739z M73.726,172.394l-0.458-4.34c-0.1-0.983-0.115-1.86-0.136-2.718l-0.042-0.01
					c-0.394,0.761-0.802,1.583-1.288,2.366l-2.301,3.723L73.726,172.394z"/>
				<path fill="#FFFFFF" d="M81.186,165.397c0.944-0.111,2.311-0.155,3.563-0.076c1.974,0.122,3.245,0.585,4.066,1.424
					c0.661,0.681,1.025,1.683,0.955,2.808c-0.116,1.867-1.382,3.047-2.899,3.464l-0.004,0.063c1.059,0.449,1.653,1.509,1.901,3.017
					c0.343,2.022,0.597,3.425,0.86,3.993l-1.91-0.117c-0.208-0.438-0.451-1.67-0.723-3.477c-0.302-1.999-1.041-2.791-2.713-2.958
					l-1.74-0.107l-0.385,6.196l-1.847-0.114L81.186,165.397z M82.628,172.029l1.889,0.115c1.974,0.124,3.293-0.881,3.395-2.517
					c0.115-1.847-1.172-2.734-3.125-2.856c-0.892-0.056-1.511-0.029-1.835,0.036L82.628,172.029z"/>
				<path fill="#FFFFFF" d="M100.889,174.734l-0.738,4.688l-1.888,0.312l2.501-14.935l2.182-0.358l7.149,13.348l-1.951,0.32
					l-2.242-4.198L100.889,174.734z M105.312,172.542l-2.074-3.84c-0.467-0.87-0.814-1.676-1.159-2.46l-0.042,0.007
					c-0.076,0.854-0.14,1.771-0.293,2.678l-0.712,4.317L105.312,172.542z"/>
				<path fill="#FFFFFF" d="M114.245,176.659l-4.815-13.492l1.922-0.687l6.74,5.291c1.545,1.231,2.853,2.367,3.966,3.526
					l0.054-0.041c-0.803-1.744-1.43-3.373-2.18-5.475l-2.015-5.646l1.642-0.586l4.815,13.492l-1.762,0.629l-6.727-5.315
					c-1.477-1.167-2.927-2.388-4.109-3.611l-0.054,0.042c0.708,1.664,1.306,3.279,2.107,5.521l2.057,5.766L114.245,176.659z"/>
				<path fill="#FFFFFF" d="M129.367,170.716l-7.25-12.362l1.761-1.033l7.611,3.943c1.749,0.923,3.246,1.793,4.557,2.727
					l0.044-0.051c-1.115-1.564-2.033-3.048-3.163-4.975l-3.034-5.174l1.504-0.882l7.25,12.364l-1.614,0.947l-7.604-3.973
					c-1.669-0.871-3.323-1.8-4.713-2.784l-0.044,0.052c1.006,1.507,1.896,2.979,3.1,5.035l3.098,5.281L129.367,170.716z"/>
				<path fill="#FFFFFF" d="M135.264,149.804l8.783,11.32l-1.479,1.147l-8.782-11.322L135.264,149.804z"/>
				<path fill="#FFFFFF" d="M150.059,155.892l-13.385-6.942l1.442-1.413l6.534,3.479c1.779,0.964,3.379,1.836,4.843,2.753
					l0.031-0.029c-0.873-1.468-1.728-3.159-2.567-4.956l-3.226-6.752l1.412-1.384l6.373,13.816L150.059,155.892z"/>
				<path fill="#FFFFFF" d="M156.42,138.219l-3.344,4.43l4.123,3.111l3.74-4.953l1.239,0.936l-4.868,6.446l-11.436-8.634
					l4.676-6.193l1.239,0.937l-3.549,4.698l3.614,2.729l3.344-4.43L156.42,138.219z"/>
				<path fill="#FFFFFF" d="M152.081,131.347c0.3-0.902,0.841-2.157,1.442-3.26c0.949-1.733,1.907-2.688,3.015-3.075
					c0.896-0.311,1.958-0.214,2.947,0.326c1.641,0.897,2.171,2.544,1.905,4.095l0.056,0.029c0.856-0.767,2.067-0.855,3.537-0.439
					c1.978,0.548,3.354,0.913,3.981,0.917l-0.918,1.679c-0.485,0-1.701-0.3-3.451-0.82c-1.939-0.576-2.969-0.242-3.831,1.2
					l-0.836,1.529l5.447,2.977l-0.888,1.624L152.081,131.347z M158.695,132.855l0.907-1.661c0.949-1.733,0.599-3.354-0.837-4.14
					c-1.623-0.889-2.975-0.101-3.912,1.615c-0.429,0.783-0.669,1.354-0.747,1.677L158.695,132.855z"/>
				<path fill="#FFFFFF" d="M168.324,125.679c0.786-0.594,1.577-1.57,2.017-2.768c0.655-1.774,0.101-3.158-1.256-3.659
					c-1.237-0.456-2.239-0.01-3.586,1.556c-1.607,1.899-3.264,2.831-5.139,2.139c-2.094-0.772-3.01-3.081-2.046-5.694
					c0.5-1.354,1.194-2.255,1.747-2.709l1.24,1.001c-0.414,0.324-1.125,1.081-1.572,2.298c-0.677,1.836,0.163,2.938,1.08,3.276
					c1.257,0.463,2.177-0.127,3.579-1.717c1.716-1.95,3.232-2.684,5.207-1.954c2.074,0.765,3.33,2.95,2.16,6.121
					c-0.478,1.296-1.398,2.564-2.143,3.105L168.324,125.679z"/>
				<path fill="#FFFFFF" d="M170.556,111.3l4.136,2.332l-0.371,1.878l-13.117-7.568l0.427-2.17l15.008-2.027l-0.382,1.94l-4.72,0.63
					L170.556,111.3z M170.05,106.39l-4.324,0.599c-0.98,0.133-1.855,0.177-2.71,0.226l-0.008,0.042
					c0.773,0.368,1.608,0.75,2.406,1.211l3.797,2.179L170.05,106.39z"/>
				<path fill="#FFFFFF" d="M162.821,99.16c-0.142-0.939-0.229-2.304-0.191-3.558c0.06-1.978,0.481-3.262,1.293-4.109
					c0.658-0.682,1.649-1.079,2.775-1.044c1.87,0.056,3.088,1.284,3.553,2.786l0.064,0.002c0.415-1.072,1.455-1.7,2.952-1.995
					c2.012-0.409,3.404-0.707,3.964-0.988l-0.057,1.913c-0.432,0.223-1.653,0.503-3.449,0.832c-1.989,0.366-2.756,1.13-2.871,2.808
					l-0.052,1.742l6.205,0.187l-0.055,1.85L162.821,99.16z M169.401,97.506l0.057-1.891c0.06-1.977-0.987-3.263-2.624-3.312
					c-1.848-0.057-2.696,1.258-2.755,3.213c-0.027,0.893,0.019,1.511,0.094,1.832L169.401,97.506z"/>
				<path fill="#FFFFFF" d="M176.6,83.165l-6.025,0.814l-7.565,5.611l-0.285-2.106l3.648-2.531c1.003-0.671,1.808-1.229,2.738-1.806
					l-0.005-0.042c-0.979-0.254-1.974-0.635-3.123-1.038l-4.194-1.514l-0.279-2.065l8.793,3.64l6.046-0.814L176.6,83.165z"/>
			</g>
		</g>
	</g>
</g>
<g id="Layer_3">
	<path fill="#FFFFFF" d="M394.444,86.379h-33.055v6.227h12.295v27.725h8.463V92.61h12.301v-6.23L394.444,86.379L394.444,86.379z
		 M444.202,103.276c-0.225-1.364,1.445-1.875,2.377-2.009c1.449-0.19,4.244,0.015,7.875,1.953v-5.133
		c-2.389-1.19-6.078-1.864-8.676-1.58c-5.639,0.621-8.246,3.266-8.246,7.496c0,6.689,11.912,6.279,11.4,10.259
		c-0.137,1.034-1.346,1.411-3.486,1.411c-2.738,0-5.082-0.709-7.418-1.701v5.363c0.992,0.547,4.527,1.449,8.213,1.449
		c5.973,0,9.354-2.688,9.354-7.471C455.598,106.299,444.713,106.299,444.202,103.276z M474.229,115.173
		c-0.744,0.195-1.439,0.283-2.158,0.283c-2.238,0-3.535-1.445-3.535-3.687v-9.458h4.994v-4.497h-4.994V90.16l-6.771,3.433
		c0,0-0.012,0.232-0.012,1.995c0,1.769-1.26,2.228-2.531,2.228c-0.381,0-0.684-0.005-0.684-0.005v4.502h2.781v9.851
		c0,6.426,4.127,8.619,8.908,8.619c1.924,0,3.609-0.322,5.648-1.067L474.229,115.173z M397.018,99.675l-1.352-1.693h-5.758v22.349
		h7.008v-11.675c0-3.264,2.393-4.949,5.424-4.949c1.051,0,2.588,0.211,3.934,1.507l2.543-5.093
		c-1.844-1.738-3.355-2.407-5.326-2.588C401.409,97.344,399.555,97.6,397.018,99.675z M427.112,114.223c0,0-2.051,1.735-4.287,1.735
		c-2.691,0-4.385-2.137-4.385-5.425V97.983h-7.002v13.792c0,6.12,4.699,8.555,8.906,9.011c3.48,0.374,6.768-1.664,6.768-1.664
		l1.088,1.208h5.918V97.983h-7.006V114.223z"/>
	<path fill="#FFFFFF" d="M461.018,75.989l5.346,1.846l13.977-14.548L461.018,75.989z M454.022,57.866l2.471,5.085l20.168-0.4
		L454.022,57.866z M462.213,40.002l-1.85,5.348l14.545,13.972L462.213,40.002z M480.694,32.815l-5.088,2.478l0.402,20.159
		L480.694,32.815z M498.217,40.994l-5.35-1.848l-13.969,14.546L498.217,40.994z M505.602,59.202l-2.473-5.085l-20.164,0.405
		L505.602,59.202z M497.192,77.651l1.844-5.35l-14.541-13.977L497.192,77.651z M479.215,84.324l5.088-2.476l-0.398-20.161
		L479.215,84.324z"/>
	<path fill="#FFFFFF" d="M407.239,133.718c-1.914,0-3.01,1.09-3.01,2.988v1.323h-1.455v2.368h1.455v9.204h2.523v-9.199h2.08v-2.373
		h-2.08v-1.128c0-0.713,0.213-0.938,0.877-0.938c0.363,0,0.736,0.06,1.24,0.205l0.197,0.06v-2.256l-0.115-0.034
		C408.442,133.801,407.803,133.718,407.239,133.718z M395.569,137.795c-3.096,0-5.176,2.428-5.176,6.03
		c0,3.54,2.102,6.016,5.109,6.016c3.135,0,5.242-2.44,5.242-6.078C400.745,140.251,398.616,137.795,395.569,137.795z
		 M395.59,147.429c-1.662,0-2.652-1.372-2.652-3.662c0-2.192,0.977-3.556,2.547-3.556c1.674,0,2.717,1.388,2.717,3.613
		C398.2,145.911,397.102,147.429,395.59,147.429z M424.01,134.041c-3.891,0-6.506,3.174-6.506,7.9c0,4.726,2.615,7.899,6.506,7.899
		c3.906,0,6.529-3.174,6.529-7.899C430.54,137.215,427.917,134.041,424.01,134.041z M424.01,147.273
		c-2.475,0-3.896-1.943-3.896-5.332c0-3.39,1.42-5.337,3.896-5.337c2.49,0,3.922,1.947,3.922,5.337
		C427.932,145.33,426.5,147.273,424.01,147.273z M438.684,137.795c-0.938,0-1.814,0.405-2.422,1.061v-0.825h-2.52v11.577h2.52
		v-6.598c0-1.25,0.355-2.738,2.057-2.738c0.633,0,1.111,0.117,1.621,0.391l0.168,0.093l0.66-2.396l-0.092-0.063
		C440.163,137.952,439.545,137.795,438.684,137.795z M447.374,137.795c-3.141,0-5.092,2.314-5.092,6.03
		c0,3.54,2.068,6.016,5.029,6.016c1.635,0,2.9-0.482,3.99-1.527l0.111-0.104l-1.512-1.631l-0.111,0.083
		c-0.826,0.61-1.525,0.874-2.354,0.874c-1.422,0-2.387-1.045-2.637-2.778h7.391c0,0,0.078-0.814,0.078-1.167
		C452.272,140.071,450.348,137.795,447.374,137.795z M444.807,142.625c0.184-1.737,1.039-2.52,2.416-2.52
		c1.918,0,2.418,1.294,2.508,2.52H444.807z M462.106,138.87l-0.004,0.005c-0.596-0.542-1.533-1.079-2.654-1.079
		c-2.287,0-4.596,1.808-4.596,5.84c0,3.945,1.635,6.206,4.488,6.206c1.551,0,2.762-1.273,2.762-1.273
		c0,2.227-0.562,3.042-3.711,3.188l-0.23,0.016l0.887,1.978l0.105-0.005c3.936-0.127,5.469-1.631,5.469-5.366V138.03h-2.52v0.84
		H462.106z M462.18,146.111c-0.684,0.864-1.592,1.377-2.43,1.377c-1.6,0-2.377-1.279-2.377-3.916c0-2.275,0.773-3.428,2.289-3.428
		c1.004,0,2.008,0.736,2.516,1.421L462.18,146.111z M486.286,137.795c-1.064,0-2.051,0.42-2.676,1.074v-0.84h-2.523v11.577h2.523
		v-6.743c0-1.753,0.768-2.72,2.158-2.72c1.496,0,2.164,0.907,2.164,2.935v6.528h2.52v-6.616
		C490.452,139.592,489.01,137.795,486.286,137.795z M472.854,137.952c-2.832,0-5.02,2.188-5.02,5.879
		c0,3.517,2.125,5.859,4.955,5.859c2.895,0,5.084-2.192,5.084-5.923C477.875,140.247,475.733,137.952,472.854,137.952z
		 M472.877,147.429c-1.662,0-2.656-1.372-2.656-3.662c0-2.163,1-3.556,2.551-3.556c1.678,0,2.717,1.388,2.717,3.613
		C475.489,145.911,474.391,147.429,472.877,147.429z"/>
	<path fill="#FFFFFF" d="M361.706,98.067l-5.775,12.595l-4.588-9.414c0-0.005,0.008-0.023,0.008-0.023
		c-0.617-1.118-1.184-1.982-2.422-2.988c-1.602-1.294-4.818-1.87-7.461-0.913c-1.338,0.483-2.555,1.401-3.311,2.056
		c-1.174-0.938-2.449-1.353-3.58-1.509c-5.16-0.713-9.756,2.939-9.756,7.715c0,1.646,0.514,2.964,1.197,4.186
		c0.848,1.509,2.795,2.837,2.795,2.837s-2.357,0.718-2.357,3.047c0,0.996,0.461,2.132,2.004,3.081
		c-3.885,0.941-5.625,2.881-5.625,6.167c0,3.936,4.281,6.768,10.303,6.768c6.621,0,10.559-2.686,10.559-7.113
		c0-2.451-1.682-5.039-6.477-6.025c-4.029-0.835-6.627-1.65-6.627-2.896c0-2.637,5.885-1.234,8.867-4.419
		c1.049-1.045,2.094-3.188,2.094-5.028c0-1.758-0.678-3.315-1.707-4.892c0.971-0.749,2.225-1.169,3.828-1.026
		c1.723,0.15,2.855,1.104,3.473,2.362c0.006,0.011,0.012,0.016,0.018,0.024l6.381,12.983l-7.414,15.775h4.928l15.629-33.35h-4.98
		v0.002H361.706z M332.092,121.319c2.738,0,7.318,0.746,7.318,3.586c0,2.036-2.289,3.237-6.174,3.237
		c-4.031,0-6.223-1.201-6.223-3.434C327.014,122.712,329.104,121.319,332.092,121.319z M333.288,109.817
		c-2.689,0-4.482-1.639-4.482-4.082c0-2.188,1.99-4.033,4.432-4.033c2.338,0,4.33,1.795,4.33,3.937
		C337.569,108.077,335.774,109.817,333.288,109.817z M242.808,105.398h10.877v-4.38h-10.877V90.764h14.387v-4.386h-19.262v33.95
		h19.711v-4.375h-14.836V105.398L242.808,105.398z M272.76,97.532c-3.479-0.373-6.77,1.665-6.77,1.665l-1.085-1.214h-3.348v22.347
		h4.433v-17.523c0,0,2.108-2.135,5.572-1.738c2.671,0.303,4.38,2.144,4.38,5.425v13.838h4.433v-13.784
		C280.377,100.422,276.967,97.986,272.76,97.532z M318.977,97.532c-2.078-0.188-3.936,0.068-6.473,2.144l-1.352-1.693h-3.178v22.349
		h4.43v-13.618c0-3.267,2.387-4.948,5.424-4.948c1.045,0,2.789,0.667,4.131,1.959l2.344-3.603
		C322.461,98.383,320.95,97.712,318.977,97.532z M294.06,97.532c-6.166-0.259-10.453,4.58-10.453,11.348
		c0,6.181,3.884,11.906,10.854,11.906c3.135,0,5.348-0.622,7.545-1.84l-1.314-3.621c-1.684,0.767-3.379,1.229-5.137,1.229
		c-3.568,0-6.352-1.896-7.188-5.604h15.67C304.034,102.678,301.11,97.825,294.06,97.532z M288.157,107.41
		c0.379-4.36,2.895-6.333,6.004-6.045c3.541,0.327,5.266,3.099,5.498,6.045H288.157z"/>
</g>
</svg>
