<?xml version="1.0" encoding="utf-8"?>
<!-- Generator: Adobe Illustrator 15.1.0, SVG Export Plug-In . SVG Version: 6.00 Build 0)  -->
<!DOCTYPE svg PUBLIC "-//W3C//DTD SVG 1.1//EN" "http://www.w3.org/Graphics/SVG/1.1/DTD/svg11.dtd">
<svg version="1.1" id="Layer_1" xmlns="http://www.w3.org/2000/svg" xmlns:xlink="http://www.w3.org/1999/xlink" x="0px" y="0px"
	 width="110.91px" height="52.928px" viewBox="0 0 110.91 52.928" enable-background="new 0 0 110.91 52.928" xml:space="preserve">
<path fill="#FFFFFF" d="M65.534,23.941H52.312v2.49h4.918V37.52h3.385V26.432h4.92L65.534,23.941L65.534,23.941z M85.438,30.699
	c-0.09-0.546,0.578-0.75,0.951-0.804c0.579-0.076,1.697,0.006,3.149,0.781v-2.053c-0.955-0.478-2.431-0.746-3.47-0.632
	c-2.256,0.248-3.299,1.306-3.299,2.998c0,2.676,4.765,2.512,4.561,4.104c-0.055,0.414-0.538,0.564-1.395,0.564
	c-1.096,0-2.033-0.283-2.968-0.681v2.146c0.397,0.219,1.812,0.58,3.285,0.58c2.39,0,3.742-1.076,3.742-2.988
	C89.996,31.908,85.643,31.908,85.438,30.699z M97.448,35.458c-0.298,0.078-0.576,0.112-0.863,0.112
	c-0.896,0-1.414-0.577-1.414-1.475v-3.783h1.997v-1.799h-1.997v-3.061l-2.708,1.373c0,0-0.005,0.093-0.005,0.798
	c0,0.707-0.504,0.89-1.013,0.89c-0.152,0-0.273-0.002-0.273-0.002v1.801h1.112v3.941c0,2.57,1.651,3.447,3.563,3.447
	c0.77,0,1.444-0.13,2.26-0.428L97.448,35.458z M66.564,29.259l-0.541-0.678h-2.303v8.938h2.803v-4.67
	c0-1.305,0.957-1.979,2.17-1.979c0.42,0,1.035,0.084,1.572,0.602l1.018-2.037c-0.737-0.694-1.342-0.963-2.131-1.035
	C68.32,28.326,67.579,28.429,66.564,29.259z M78.602,35.078c0,0-0.82,0.694-1.715,0.694c-1.076,0-1.754-0.854-1.754-2.17v-5.021
	h-2.801v5.516c0,2.449,1.88,3.422,3.562,3.605c1.393,0.149,2.707-0.666,2.707-0.666l0.436,0.483h2.367v-8.938h-2.803V35.078z"/>
<path fill="#FFFFFF" d="M92.164,19.784l2.138,0.737l5.591-5.818L92.164,19.784z M89.365,12.535l0.988,2.034l8.067-0.16
	L89.365,12.535z M92.643,5.389l-0.74,2.139l5.818,5.59L92.643,5.389z M100.034,2.515l-2.035,0.991l0.161,8.063L100.034,2.515z
	 M107.044,5.786l-2.14-0.739l-5.588,5.818L107.044,5.786z M109.998,13.069l-0.989-2.033l-8.065,0.162L109.998,13.069z
	 M106.634,20.449l0.737-2.141l-5.816-5.59L106.634,20.449z M99.443,23.118l2.035-0.99l-0.16-8.065L99.443,23.118z"/>
<path fill="#FFFFFF" d="M70.652,42.876c-0.766,0-1.204,0.436-1.204,1.194V44.6h-0.582v0.949h0.582v3.681h1.01v-3.68h0.832v-0.949
	h-0.832v-0.452c0-0.283,0.085-0.375,0.351-0.375c0.146,0,0.295,0.024,0.496,0.083l0.079,0.023v-0.903l-0.046-0.013
	C71.134,42.91,70.878,42.876,70.652,42.876z M65.984,44.507c-1.238,0-2.07,0.97-2.07,2.413c0,1.416,0.841,2.405,2.044,2.405
	c1.254,0,2.097-0.978,2.097-2.432C68.055,45.49,67.203,44.507,65.984,44.507z M65.993,48.36c-0.665,0-1.062-0.548-1.062-1.465
	c0-0.877,0.391-1.422,1.019-1.422c0.67,0,1.087,0.555,1.087,1.447C67.037,47.754,66.598,48.36,65.993,48.36z M77.361,43.005
	c-1.557,0-2.603,1.27-2.603,3.16c0,1.89,1.046,3.16,2.603,3.16c1.562,0,2.611-1.271,2.611-3.16
	C79.973,44.275,78.924,43.005,77.361,43.005z M77.361,48.299c-0.99,0-1.56-0.778-1.56-2.134c0-1.356,0.568-2.134,1.56-2.134
	c0.996,0,1.568,0.777,1.568,2.134C78.93,47.521,78.357,48.299,77.361,48.299z M83.23,44.507c-0.375,0-0.727,0.163-0.969,0.424v-0.33
	h-1.008v4.63h1.008v-2.637c0-0.5,0.143-1.096,0.822-1.096c0.253,0,0.445,0.046,0.648,0.154L83.8,45.69l0.265-0.959l-0.037-0.024
	C83.822,44.569,83.575,44.507,83.23,44.507z M86.706,44.507c-1.256,0-2.036,0.925-2.036,2.413c0,1.416,0.827,2.405,2.012,2.405
	c0.653,0,1.16-0.193,1.596-0.61l0.045-0.042l-0.604-0.652l-0.045,0.033c-0.33,0.244-0.61,0.349-0.94,0.349
	c-0.569,0-0.955-0.418-1.055-1.11h2.955c0,0,0.032-0.325,0.032-0.466C88.665,45.417,87.896,44.507,86.706,44.507z M85.68,46.438
	c0.073-0.693,0.416-1.008,0.967-1.008c0.767,0,0.967,0.519,1.002,1.008H85.68z M92.6,44.936l-0.002,0.003
	c-0.238-0.217-0.613-0.432-1.062-0.432c-0.915,0-1.838,0.723-1.838,2.336c0,1.578,0.653,2.482,1.795,2.482
	c0.62,0,1.104-0.51,1.104-0.51c0,0.891-0.225,1.217-1.484,1.275l-0.092,0.005l0.354,0.791l0.042-0.001
	c1.574-0.05,2.188-0.652,2.188-2.146V44.6h-1.008v0.336H92.6z M92.629,47.833c-0.273,0.346-0.637,0.552-0.972,0.552
	c-0.64,0-0.951-0.513-0.951-1.567c0-0.909,0.31-1.371,0.916-1.371c0.401,0,0.803,0.295,1.006,0.567L92.629,47.833z M102.271,44.507
	c-0.426,0-0.82,0.168-1.07,0.429v-0.335h-1.01v4.63h1.01v-2.695c0-0.701,0.307-1.089,0.863-1.089c0.599,0,0.865,0.362,0.865,1.175
	v2.609h1.008v-2.646C103.938,45.226,103.361,44.507,102.271,44.507z M96.898,44.57c-1.133,0-2.008,0.875-2.008,2.352
	c0,1.407,0.851,2.343,1.982,2.343c1.158,0,2.033-0.876,2.033-2.368C98.907,45.488,98.05,44.57,96.898,44.57z M96.908,48.36
	c-0.665,0-1.062-0.548-1.062-1.465c0-0.863,0.399-1.422,1.02-1.422c0.671,0,1.087,0.555,1.087,1.447
	C97.952,47.754,97.514,48.36,96.908,48.36z"/>
<path fill="#FFFFFF" d="M52.439,28.615l-2.31,5.038l-1.835-3.766c0-0.002,0.003-0.01,0.003-0.01
	c-0.247-0.447-0.474-0.793-0.969-1.195c-0.641-0.518-1.927-0.748-2.984-0.365c-0.535,0.193-1.021,0.561-1.325,0.821
	c-0.469-0.375-0.979-0.54-1.431-0.603c-2.065-0.285-3.903,1.176-3.903,3.086c0,0.657,0.206,1.186,0.479,1.674
	c0.339,0.604,1.118,1.135,1.118,1.135s-0.943,0.287-0.943,1.219c0,0.398,0.184,0.853,0.801,1.232
	c-1.553,0.377-2.25,1.152-2.25,2.467c0,1.574,1.713,2.707,4.122,2.707c2.648,0,4.222-1.074,4.222-2.846
	c0-0.98-0.672-2.017-2.589-2.41c-1.613-0.334-2.651-0.66-2.651-1.158c0-1.055,2.353-0.494,3.547-1.768
	c0.419-0.418,0.837-1.275,0.837-2.013c0-0.702-0.27-1.325-0.682-1.955c0.387-0.301,0.889-0.468,1.531-0.411
	c0.688,0.061,1.142,0.44,1.388,0.944c0.002,0.004,0.005,0.006,0.007,0.011l2.553,5.192l-2.966,6.312h1.971l6.252-13.341h-1.993
	V28.615z M40.594,37.916c1.096,0,2.927,0.299,2.927,1.434c0,0.816-0.916,1.295-2.469,1.295c-1.613,0-2.489-0.479-2.489-1.373
	C38.562,38.474,39.398,37.916,40.594,37.916z M41.072,33.316c-1.076,0-1.793-0.655-1.793-1.633c0-0.875,0.796-1.613,1.772-1.613
	c0.936,0,1.732,0.718,1.732,1.574C42.784,32.619,42.067,33.316,41.072,33.316z M4.88,31.548h4.35v-1.752H4.88v-4.103h5.755v-1.753
	H2.929v13.58h7.885v-1.75H4.88V31.548z M16.861,28.402c-1.392-0.149-2.708,0.666-2.708,0.666l-0.434-0.485H12.38v8.938h1.772v-7.01
	c0,0,0.844-0.854,2.23-0.695c1.068,0.121,1.752,0.857,1.752,2.17v5.535h1.772v-5.514C19.908,29.558,18.544,28.583,16.861,28.402z
	 M35.348,28.402c-0.833-0.075-1.574,0.027-2.589,0.857l-0.541-0.678h-1.271v8.938h1.772v-5.446c0-1.308,0.955-1.979,2.17-1.979
	c0.418,0,1.115,0.266,1.652,0.783l0.937-1.441C36.741,28.742,36.137,28.474,35.348,28.402z M25.381,28.402
	c-2.467-0.104-4.182,1.832-4.182,4.539c0,2.472,1.554,4.763,4.342,4.763c1.254,0,2.139-0.249,3.018-0.736l-0.526-1.449
	c-0.674,0.308-1.351,0.492-2.054,0.492c-1.428,0-2.541-0.758-2.875-2.242h6.267C29.37,30.46,28.201,28.519,25.381,28.402z
	 M23.02,32.353c0.151-1.744,1.158-2.533,2.401-2.418c1.417,0.13,2.107,1.239,2.199,2.418H23.02z"/>
</svg>
