<?xml version="1.0" encoding="utf-8"?>
<!-- Generator: Adobe Illustrator 15.0.2, SVG Export Plug-In . SVG Version: 6.00 Build 0)  -->
<!DOCTYPE svg PUBLIC "-//W3C//DTD SVG 1.1//EN" "http://www.w3.org/Graphics/SVG/1.1/DTD/svg11.dtd">
<svg version="1.1" id="Layer_1" xmlns="http://www.w3.org/2000/svg" xmlns:xlink="http://www.w3.org/1999/xlink" x="0px" y="0px"
	 width="860px" height="104.5px" viewBox="0 0 860 104.5" enable-background="new 0 0 860 104.5" xml:space="preserve">
<g id="PGE">
	<g>
		<path fill="#F9F9F9" d="M84.27,44.065C70.81,33.923,57.317,23.816,43.91,13.62c0.876-1.06,1.862-2.009,3.641-2.168
			c-0.004-0.133,0.057-0.202,0.156-0.233c0.567,0,1.136,0,1.704,0c0.404,0.287,0.969,0.253,1.472,0.464
			c1.67,0.705,3.103,2.405,4.493,3.796C64.933,25.037,74.886,34.506,84.27,44.065z"/>
		<path fill="#F9F9F9" d="M55.607,45.692c-0.047,1.296-0.268,2.418-0.309,3.718c-1.112-0.342-2.285-0.903-3.641-1.006
			c-3.119-0.24-6.104,1.017-6.972,3.253c-1.747,4.503,2.15,8.712,6.894,7.36c0-1.137,0-2.273,0-3.41c-0.852,0-1.704,0-2.556,0
			c-0.177-0.906-0.029-2.141-0.078-3.175c2.196-0.181,4.726-0.026,7.05-0.077c0.18,3.022,0.026,6.377,0.077,9.528
			c-2.083,0.555-4.063,0.846-6.43,0.854c-5.826,0.016-9.751-3.072-10.069-8.213c-0.146-2.345,0.551-5.006,1.936-6.583
			C43.992,45.106,50.753,44.061,55.607,45.692z"/>
		<path fill="#F9F9F9" d="M25.938,45.226c6.417-0.101,13.149-0.62,13.015,5.733c-0.088,4.162-3.687,5.837-8.521,5.501
			c-0.181,1.807-0.026,3.947-0.078,5.885c-1.344,0.18-3.019,0.027-4.492,0.078c-0.182-5.5-0.027-11.335-0.077-16.965
			C25.78,45.326,25.841,45.259,25.938,45.226z M33.917,49.409c-0.612-0.835-1.873-0.885-3.485-0.852
			c-0.181,1.369-0.026,3.073-0.078,4.57C33.253,53.834,35.38,51.405,33.917,49.409z"/>
		<path fill="#F9F9F9" d="M58.552,45.226c3.976,0.051,8.158-0.102,12.006,0.078c0,1.059,0,2.118,0,3.175
			c-2.35,0.181-5.035,0.026-7.514,0.078c0,1.136,0,2.272,0,3.409c2.349,0,4.7,0,7.05,0c0,1.109,0,2.221,0,3.331
			c-2.35,0-4.701,0-7.05,0c0,1.266,0,2.531,0,3.797c2.557,0.051,5.318-0.104,7.746,0.076c0,1.061,0,2.117,0,3.176
			c-3.951,0.129-8.443,0.129-12.395,0c0-5.627,0-11.257,0-16.886C58.393,45.326,58.454,45.259,58.552,45.226z"/>
		<path fill="#F9F9F9" d="M58.474,89.848c1.094-1.789,2.432-3.439,3.718-5.113c8.38-10.904,16.632-22.213,25.022-33.31
			c0.317-0.421,0.698-0.819,1.008-1.239c0.375-0.511,0.685-1.028,1.161-1.395c0.063,0.015,0.078,0.078,0.156,0.078
			c2.313,1.661,2.911,5.739,1.006,8.366c-1.054,1.451-2.648,2.729-4.028,4.105C77.257,70.6,67.568,80.727,58.474,89.848z"/>
		<path fill="#F9F9F9" d="M13.311,63.275c-0.014-0.062,0.031-0.072,0.077-0.074c13.679,10.23,27.331,20.488,40.902,30.83
			c-1.158,2.021-4.527,3.129-7.049,2.016c-1.616-0.713-3.1-2.402-4.494-3.795C33.169,82.668,22.713,72.555,13.311,63.275z"/>
		<path fill="#F9F9F9" d="M39.804,17.417c-2.321,3.544-5.103,6.789-7.669,10.225c-6.376,8.541-12.904,17.121-19.29,25.719
			c-1.276,1.72-2.516,3.458-3.95,5.036c-1.163-1.213-2.372-2.475-2.402-4.646c-0.037-2.789,2.025-4.62,3.562-6.12
			c4.65-4.54,9.254-9.511,13.867-14.1C29.435,28.048,34.731,22.636,39.804,17.417z"/>
	</g>
</g>
<g>
	<g>
		<path fill="#F9F9F9" d="M150.014,37.065c11.142-0.307,22.854-0.043,34.216-0.131c0.13,0.439-0.413,0.802-0.658,1.053
			c-5.193,5.307-11.045,10.985-16.45,16.187C161.474,48.416,155.771,42.715,150.014,37.065z"/>
		<path fill="#F9F9F9" d="M184.493,40.619c0.127,0.003,0.102,0.161,0.131,0.264c-4.509,4.791-9.599,9-14.082,13.816
			c1.603-0.201,2.671-1.562,3.817-2.5c3.307-2.705,6.859-5.643,10.265-8.027c-0.229,1.323-1.479,2.078-2.369,2.896
			c-2.675,2.452-5.589,4.898-8.16,7.631c1.262,0.043,2.03-1.045,2.896-1.709c2.496-1.918,5.183-4.062,7.632-5.791
			c0.329,1.162-0.684,1.809-1.316,2.369c-1.854,1.644-3.894,3.25-5.659,5.133c2.987-0.873,4.433-3.287,6.975-4.605
			c0.252,2.928-2.507,2.844-3.421,4.605c1.67,0.002,2.382-1.652,3.421-1.845c0,6.099,0,12.195,0,18.293
			c-0.411,0.14-0.808-0.418-1.053-0.657c-5.152-5.043-10.79-10.623-15.792-15.922C173.454,50.022,178.96,45.309,184.493,40.619z"/>
	</g>
	<g>
		<path fill="#F9F9F9" d="M320.612,36.537c0.966,0,1.933,0,2.899,0c5.904,0.456,8.132,4.289,7.908,10.282
			c-0.228,6.082-3.604,8.469-9.688,8.437c-6.005-0.033-9.218-2.763-9.49-8.766C311.962,40.321,315.198,37.033,320.612,36.537z
			 M317.251,41.612c-1.123,1.909-1.122,6.662,0.263,8.435c0.427,0.546,1.111,1.017,1.713,1.253c1.6,0.626,4.332,0.608,5.865-0.198
			c1.599-0.842,2.241-2.992,2.241-5.338c0-4.262-1.654-6.267-5.733-6.129C319.311,39.713,318.068,40.223,317.251,41.612z"/>
		<path fill="#F9F9F9" d="M294.185,36.603c1.926,0,4.446,0,6.986,0c3.398,0,6.919-0.349,8.567,1.055
			c1.047,0.892,1.721,2.617,1.778,4.481c0.06,1.862-0.161,3.866-1.055,5.141c-1.996,2.844-7.988,1.33-12.653,1.713
			c-0.152,1.847-0.021,3.979-0.065,5.933c-1.23,0-2.46,0-3.69,0c0-6.041,0-12.082,0-18.123
			C294.05,36.688,294.102,36.63,294.185,36.603z M305.784,45.83c0.583-0.066,1.257-0.318,1.582-0.66
			c0.81-0.854,0.838-3.078,0.264-4.151c-0.48-0.899-1.52-1.159-2.702-1.187c-2.411-0.055-4.844,0.042-7.25,0
			c0,1.999,0,3.998,0,5.998C300.224,45.617,303.274,46.112,305.784,45.83z"/>
		<path fill="#F9F9F9" d="M334.583,36.603c1.258,3.75,2.378,7.639,3.624,11.401c1.277-3.731,2.354-7.662,3.625-11.401
			c1.34,0,2.68,0,4.02,0c1.177,3.811,2.416,7.558,3.56,11.401c0.462-0.874,0.636-1.884,0.922-2.833
			c0.84-2.775,1.823-5.732,2.702-8.567c1.296,0,2.592,0,3.888,0c-1.724,6.208-3.673,12.188-5.404,18.387c-1.296,0-2.592,0-3.888,0
			c-1.189-3.815-2.503-7.515-3.689-11.334c-0.797,1.807-1.334,3.752-1.978,5.668c-0.636,1.894-1.325,3.765-1.911,5.666
			c-1.229,0-2.46,0-3.689,0c-1.854-6.098-3.78-12.124-5.667-18.188c0-0.066,0-0.132,0-0.198
			C331.991,36.603,333.287,36.603,334.583,36.603z"/>
		<path fill="#F9F9F9" d="M358.176,36.603c4.657,0.044,9.49-0.087,14.037,0.066c0,1.099,0,2.197,0,3.295c-3.405,0-6.81,0-10.215,0
			c-0.153,1.143-0.021,2.57-0.065,3.823c2.878,0.154,6.042,0.022,9.029,0.065c0,1.187,0,2.374,0,3.559c-2.987,0-5.975,0-8.963,0
			c-0.153,1.318-0.021,2.922-0.065,4.352c3.427,0,6.854,0,10.281,0c0,1.076,0,2.152,0,3.229c-4.701-0.045-9.578,0.088-14.169-0.064
			c0-6.041,0-12.082,0-18.123C358.041,36.688,358.093,36.63,358.176,36.603z"/>
		<path fill="#F9F9F9" d="M392.511,54.859c0,0.021,0,0.043,0,0.064c-1.404,0-2.812,0-4.218,0c-1.158-1.715-2.329-3.494-3.427-5.207
			c-0.373-0.58-0.67-1.242-1.188-1.713c-1.934,0-3.864,0-5.8,0c-0.043,2.308,0.088,4.789-0.063,6.984c-1.188,0-2.373,0-3.561,0
			c0.043-6.105-0.088-12.39,0.066-18.387c2.071,0,4.287,0,6.458,0c2.105,0,4.258-0.215,6.062,0.264
			c1.61,0.426,2.965,1.713,3.427,3.361c0.494,1.762,0.181,4.088-0.922,5.536c-0.363,0.479-0.896,0.85-1.384,1.12
			c-0.167,0.093-0.417,0.121-0.528,0.329C389.163,49.727,390.77,52.359,392.511,54.859z M377.815,40.031c0,1.538,0,3.075,0,4.613
			c2.545-0.376,7.155,0.83,8.436-0.857c0.637-0.841,0.574-2.523-0.198-3.295c-1.457-1.457-5.773-0.259-8.172-0.659
			C377.804,39.844,377.809,39.937,377.815,40.031z"/>
		<path fill="#F9F9F9" d="M217.278,36.933c1.121,0,2.241,0,3.361,0c2.773,5.692,5.48,11.54,8.238,17.333
			c0.159,0.332,0.482,0.646,0.461,1.055c-1.34,0-2.68,0-4.021,0c-0.512-1.201-1.164-2.264-1.646-3.494c-3.164,0-6.328,0-9.49,0
			c-0.669,1.09-1.118,2.396-1.78,3.494c-1.362,0-2.724,0-4.085,0C211.24,49.127,214.27,43.041,217.278,36.933z M215.63,48.664
			c2.153,0,4.305,0,6.458,0c-1.053-2.221-2.088-4.458-3.229-6.591C217.807,44.292,216.702,46.462,215.63,48.664z"/>
		<path fill="#F9F9F9" d="M242.057,36.999c0,1.076,0,2.152,0,3.229c-2.116,0.093-3.631-0.127-5.536,0
			c-3.626,0.243-5.495,3.14-5.47,6.458c0.008,1.146,0.265,2.381,0.923,3.361c1.657,2.473,5.795,2.168,10.083,2.109
			c0,1.074,0,2.15,0,3.229c-3.11-0.123-5.834,0.242-8.106-0.198c-2.168-0.42-3.993-1.642-5.075-3.296
			c-2.316-3.541-1.61-10.274,1.251-12.784C232.592,36.947,237.163,36.854,242.057,36.999z"/>
		<path fill="#F9F9F9" d="M249.174,36.999c4.679,0,9.357,0,14.037,0c0,1.121,0,2.241,0,3.361c-3.404,0-6.81,0-10.214,0
			c-0.154,1.121-0.022,2.526-0.065,3.756c2.877,0.154,6.04,0.022,9.028,0.065c0,1.187,0,2.372,0,3.56
			c-2.878,0.153-6.041,0.021-9.028,0.065c0,2.505,0,5.008,0,7.513c-1.274,0-2.548,0-3.823,0c0-6.041,0-12.082,0-18.124
			C249.103,37.103,249.098,37.01,249.174,36.999z"/>
		<path fill="#F9F9F9" d="M284.432,36.999c0,1.076,0,2.152,0,3.229c-3.791-0.039-7.258-0.315-9.16,1.45
			c-1.541,1.429-2.419,5.148-1.318,7.646c1.429,3.233,5.76,2.92,10.479,2.832c0,1.075,0,2.151,0,3.229
			c-3.883-0.09-7.352,0.341-9.818-0.727c-2.438-1.056-3.975-2.955-4.481-5.996c-0.546-3.282,0.05-6.605,1.582-8.566
			c1.584-2.029,3.902-2.867,7.447-3.032C280.812,36.988,282.561,36.986,284.432,36.999z"/>
		<path fill="#F9F9F9" d="M193.949,37.064c4.062,0.214,8.745-0.284,12.653,0c1.104,0.08,2.297,0.478,2.965,1.055
			c2.532,2.181,2.417,8.832-0.395,10.61c-1.492,0.944-3.565,0.726-5.469,0.726c-1.926,0-3.968,0-6.195,0c0,1.978,0,3.953,0,5.933
			c-1.208,0-2.417,0-3.625,0c0-6.042,0-12.083,0-18.123C193.876,37.169,193.872,37.076,193.949,37.064z M197.508,40.426
			c0,1.933,0,3.866,0,5.8c1.638,0,3.27,0,5.074,0c1.681,0,3.73,0.222,4.547-0.594c0.801-0.802,0.904-3.196,0.263-4.284
			c-0.78-1.323-2.838-1.12-5.074-1.12c-1.711,0-3.461,0-4.745,0C197.496,40.239,197.501,40.332,197.508,40.426z"/>
		<path fill="#F9F9F9" d="M243.705,37.064c1.229,0,2.46,0,3.69,0c0,6.129,0,12.26,0,18.387c-1.251,0-2.504,0-3.756,0
			c0-6.062,0-12.125,0-18.188C243.633,37.169,243.627,37.076,243.705,37.064z"/>
		<path fill="#F9F9F9" d="M264.859,37.064c1.23,0,2.46,0,3.69,0c0,6.129,0,12.26,0,18.387c-1.252,0-2.504,0-3.756,0
			c0-6.062,0-12.125,0-18.188C264.788,37.169,264.782,37.076,264.859,37.064z"/>
	</g>
</g>
<g>
	<path fill="#F9F9F9" d="M714.113,17.935l-28.482,48.802l56.821-0.033L714.113,17.935z M718.111,61.485
		c1.343-1.811,1.043-5.128,0.696-5.737c-0.952-1.667-1.814-2.744-3.651-3.302c2.649,2.638,0.261,8.866-3.651,8.866
		c-2.606,0-3.886-1.697-4.693-2.954c-4.521-7.041,4-23.122,8.868-30.774c-0.46,3.095-0.333,4.994,0.521,7.998
		c0.745,2.626,1.595,4.003,3.128,6.261C726.717,52.707,722.718,59.226,718.111,61.485z"/>
	<path fill="#F9F9F9" d="M849.248,61.571l0.952,1.657h0.624v-1.657h-0.584v0.749h-0.007l-0.429-0.749H849.248L849.248,61.571
		L849.248,61.571z M848.385,61.571v1.657h0.583v-1.657H848.385L848.385,61.571L848.385,61.571z M837.312,61.571
		c-0.005,0.051-0.005,0.105-0.005,0.161c0,1.404,1.042,1.575,1.438,1.575s1.438-0.171,1.438-1.575c0-0.056-0.002-0.11-0.005-0.164
		l-0.626,0.003c0.004,0.049,0.006,0.104,0.006,0.161c0,0.837-0.475,1.046-0.812,1.046c-0.337,0-0.812-0.209-0.812-1.046
		c0-0.058,0.001-0.112,0.005-0.164L837.312,61.571L837.312,61.571L837.312,61.571z M828.502,61.571v1.657h0.626v-1.657H828.502
		L828.502,61.571L828.502,61.571z M818.92,61.571v1.657h0.625v-1.657H818.92L818.92,61.571L818.92,61.571z M808.2,61.571
		l-0.591,1.657h0.659l0.208-0.618h1.105l0.192,0.618h0.679l-0.586-1.657h-0.625l0.165,0.521h-0.766l0.17-0.521H808.2L808.2,61.571
		L808.2,61.571z M797.103,61.571v1.657h0.613v-1.171h0.646c0.462,0,0.487,0.157,0.487,0.567c0,0.309,0.026,0.464,0.065,0.605h0.692
		v-0.08c-0.132-0.051-0.132-0.158-0.132-0.597c0-0.561-0.135-0.651-0.379-0.76c0.131-0.043,0.234-0.121,0.312-0.226L797.103,61.571
		L797.103,61.571L797.103,61.571z M785.998,61.571c-0.002,0.051-0.004,0.105-0.004,0.161c0,1.404,1.043,1.575,1.44,1.575
		c0.394,0,1.438-0.171,1.438-1.575c0-0.056-0.001-0.11-0.005-0.164l-0.626,0.003c0.002,0.049,0.005,0.104,0.005,0.161
		c0,0.837-0.475,1.046-0.812,1.046c-0.339,0-0.813-0.209-0.813-1.046c0-0.058,0.002-0.112,0.005-0.164L785.998,61.571
		L785.998,61.571L785.998,61.571z M775.615,61.571v1.657h0.625v-1.082h0.718c0.532,0,0.78-0.296,0.884-0.578l-0.734,0.004
		c-0.069,0.034-0.159,0.062-0.286,0.062h-0.581v-0.062L775.615,61.571L775.615,61.571L775.615,61.571z M764.874,61.571v1.657h0.613
		v-1.171h0.646c0.463,0,0.49,0.157,0.49,0.567c0,0.309,0.023,0.464,0.065,0.605h0.692v-0.08c-0.135-0.051-0.135-0.158-0.135-0.597
		c0-0.561-0.133-0.651-0.379-0.76c0.131-0.043,0.234-0.121,0.312-0.226L764.874,61.571L764.874,61.571L764.874,61.571z
		 M753.771,61.571c-0.003,0.051-0.005,0.105-0.005,0.161c0,1.404,1.042,1.575,1.439,1.575c0.396,0,1.438-0.171,1.438-1.575
		c0-0.056-0.001-0.11-0.005-0.164l-0.626,0.003c0.003,0.049,0.005,0.104,0.005,0.161c0,0.837-0.474,1.046-0.812,1.046
		c-0.34,0-0.813-0.209-0.813-1.046c0-0.058,0-0.112,0.005-0.164L753.771,61.571L753.771,61.571L753.771,61.571z M743.031,61.571
		c-0.003,0.051-0.005,0.106-0.005,0.165c0,1.034,0.571,1.571,1.369,1.571c0.75,0,1.176-0.457,1.301-1.106h-0.625
		c-0.075,0.365-0.316,0.565-0.663,0.565c-0.53,0-0.743-0.484-0.743-1.021c0-0.062,0.001-0.122,0.008-0.177L743.031,61.571
		L743.031,61.571L743.031,61.571z"/>
	<path fill="#F9F9F9" d="M797.716,61.554v-0.799h0.781c0.365,0,0.436,0.234,0.436,0.392c0,0.297-0.158,0.407-0.482,0.407H797.716
		L797.716,61.554L797.716,61.554z M765.487,61.554v-0.799h0.78c0.367,0,0.438,0.234,0.438,0.392c0,0.297-0.16,0.407-0.484,0.407
		H765.487L765.487,61.554L765.487,61.554z M850.824,61.571v-1.336h-0.584v1.336H850.824L850.824,61.571L850.824,61.571z
		 M848.968,61.571v-0.479h0.009l0.271,0.479h0.557l-0.761-1.336h-0.659v1.336H848.968L848.968,61.571L848.968,61.571z
		 M837.938,61.571c0.058-0.705,0.493-0.888,0.808-0.888s0.748,0.183,0.807,0.885l0.627,0.003c-0.078-1.259-1.053-1.416-1.434-1.416
		c-0.38,0-1.356,0.157-1.434,1.413L837.938,61.571L837.938,61.571L837.938,61.571z M829.128,61.571v-1.336h-0.626v1.336H829.128
		L829.128,61.571L829.128,61.571z M819.546,61.571v-0.807h0.905v-0.529h-2.434v0.529h0.905v0.807H819.546L819.546,61.571
		L819.546,61.571z M808.813,61.571l0.213-0.66h0.009l0.207,0.66h0.625l-0.471-1.336h-0.721l-0.476,1.336H808.813L808.813,61.571
		L808.813,61.571z M799.407,61.571c0.099-0.136,0.149-0.306,0.149-0.489c0-0.258-0.146-0.847-0.94-0.847h-1.515v1.336H799.407
		L799.407,61.571L799.407,61.571z M786.626,61.571c0.059-0.705,0.492-0.888,0.809-0.888c0.313,0,0.747,0.183,0.807,0.885
		l0.626,0.003c-0.078-1.259-1.052-1.416-1.433-1.416c-0.38,0-1.356,0.157-1.435,1.413L786.626,61.571L786.626,61.571L786.626,61.571
		z M776.24,61.571v-0.819h0.497c0.388,0,0.552,0.122,0.552,0.41c0,0.097,0,0.303-0.182,0.405l0.734,0.003
		c0.055-0.147,0.072-0.289,0.072-0.377c0-0.588-0.352-0.96-0.931-0.96h-1.368v1.337L776.24,61.571L776.24,61.571L776.24,61.571z
		 M767.18,61.571c0.1-0.136,0.152-0.306,0.152-0.489c0-0.258-0.146-0.847-0.941-0.847h-1.517v1.336H767.18L767.18,61.571
		L767.18,61.571z M754.397,61.571c0.059-0.705,0.492-0.888,0.809-0.888c0.314,0,0.748,0.183,0.807,0.885l0.626,0.003
		c-0.078-1.259-1.055-1.416-1.433-1.416c-0.38,0-1.358,0.157-1.435,1.413L754.397,61.571L754.397,61.571L754.397,61.571z
		 M743.673,61.571c0.056-0.702,0.456-0.874,0.733-0.874c0.517,0,0.614,0.339,0.663,0.515h0.624c-0.031-0.44-0.396-1.057-1.291-1.057
		c-0.729,0-1.311,0.476-1.371,1.413L743.673,61.571L743.673,61.571L743.673,61.571z"/>
	<polygon fill="#F9F9F9" points="851.11,55.401 851.11,56.617 739.669,56.617 738.8,55.401 	"/>
	<path fill="#F9F9F9" d="M856.55,57.287v-1.29h0.306c0.677,0,1.037,0.216,1.037,0.618c0,0.44-0.353,0.675-1.016,0.675L856.55,57.287
		L856.55,57.287L856.55,57.287z M857.236,57.607c0.711-0.055,1.161-0.434,1.161-0.993c0-0.322-0.203-0.629-0.511-0.796
		c-0.264-0.136-0.584-0.19-1.107-0.19h-0.745v3.584h0.516v-1.569h0.134l1.389,1.569h0.627L857.236,57.607L857.236,57.607
		L857.236,57.607z"/>
	<g>
		<path fill="#F9F9F9" d="M857.208,60.609c-1.765,0-3.203-1.437-3.203-3.203s1.436-3.202,3.203-3.202s3.202,1.436,3.202,3.202
			S858.974,60.609,857.208,60.609z M857.208,54.351c-1.684,0-3.055,1.373-3.055,3.056c0,1.684,1.374,3.056,3.055,3.056
			c1.687,0,3.056-1.372,3.056-3.056C860.262,55.722,858.892,54.351,857.208,54.351z"/>
	</g>
	<path fill="#F9F9F9" d="M780.924,68.982h0.869l-0.078-1.563h-0.011L780.924,68.982L780.924,68.982z M781.55,66.962h0.535
		l0.179,3.236h-0.417l-0.041-0.89h-1.034l-0.43,0.89h-0.417L781.55,66.962L781.55,66.962z"/>
	<path fill="#F9F9F9" d="M785.466,67.8c0.075-0.34,0.001-0.574-0.38-0.574c-0.335,0-0.572,0.183-0.648,0.524
		c-0.192,0.91,1.45,0.366,1.197,1.551c-0.161,0.744-0.755,0.957-1.215,0.957c-0.756,0-0.894-0.39-0.747-1.078h0.398
		c-0.077,0.363-0.138,0.752,0.447,0.752c0.317,0,0.61-0.227,0.685-0.569c0.195-0.914-1.445-0.384-1.191-1.573
		c0.063-0.298,0.317-0.894,1.139-0.894c0.616,0,0.831,0.307,0.715,0.901L785.466,67.8L785.466,67.8z"/>
	<path fill="#F9F9F9" d="M787.435,70.198h-0.362l0.061-0.287h-0.008c-0.148,0.224-0.43,0.349-0.664,0.349
		c-0.642,0-0.537-0.483-0.477-0.77l0.37-1.723h0.38l-0.359,1.678c-0.039,0.188-0.092,0.489,0.253,0.489
		c0.206,0,0.51-0.135,0.586-0.489l0.357-1.678h0.381L787.435,70.198L787.435,70.198z"/>
	<path fill="#F9F9F9" d="M788.837,69.935c0.354,0,0.53-0.399,0.649-0.949c0.124-0.58,0.113-0.951-0.241-0.951
		c-0.408,0-0.592,0.48-0.693,0.951C788.445,69.481,788.43,69.935,788.837,69.935L788.837,69.935z M788.626,66.962h0.381
		l-0.232,1.082h0.009c0.131-0.205,0.391-0.338,0.634-0.338c0.658,0,0.573,0.77,0.467,1.276c-0.146,0.684-0.505,1.275-1.067,1.275
		c-0.263,0-0.436-0.181-0.448-0.358h-0.008l-0.066,0.296h-0.362L788.626,66.962L788.626,66.962z"/>
	<path fill="#F9F9F9" d="M791.443,68.48c0.065-0.307,0.021-0.475-0.256-0.475c-0.125,0-0.401,0.029-0.475,0.372
		c-0.06,0.285,0.226,0.34,0.505,0.439c0.273,0.097,0.55,0.202,0.446,0.683c-0.109,0.515-0.492,0.76-0.946,0.76
		c-0.823,0-0.703-0.61-0.648-0.86h0.38c-0.062,0.298-0.038,0.565,0.335,0.565c0.121,0,0.414-0.06,0.489-0.405
		c0.068-0.327-0.216-0.396-0.489-0.495c-0.274-0.099-0.558-0.187-0.45-0.687c0.097-0.455,0.496-0.672,0.919-0.672
		c0.706,0,0.629,0.487,0.57,0.774H791.443L791.443,68.48z"/>
	<path fill="#F9F9F9" d="M792.595,66.962h0.38l-0.093,0.435h-0.38L792.595,66.962L792.595,66.962z M792.422,67.768h0.381
		l-0.521,2.431h-0.38L792.422,67.768L792.422,67.768z"/>
	<path fill="#F9F9F9" d="M793.613,69.935c0.421,0,0.574-0.399,0.695-0.949c0.102-0.471,0.121-0.951-0.288-0.951
		c-0.354,0-0.523,0.371-0.647,0.951C793.25,69.562,793.26,69.935,793.613,69.935L793.613,69.935z M794.404,70.198h-0.362
		l0.064-0.297h-0.009c-0.09,0.182-0.342,0.358-0.604,0.358c-0.574,0-0.683-0.511-0.52-1.274c0.107-0.51,0.355-1.277,1.04-1.277
		c0.216,0,0.419,0.134,0.461,0.339h0.008l0.234-1.083h0.379L794.404,70.198L794.404,70.198z"/>
	<path fill="#F9F9F9" d="M795.619,66.962h0.38l-0.092,0.435h-0.381L795.619,66.962L795.619,66.962z M795.446,67.768h0.381
		l-0.519,2.431h-0.381L795.446,67.768L795.446,67.768z"/>
	<path fill="#F9F9F9" d="M797.229,68.875c-0.173,0.149-0.515,0.18-0.71,0.285c-0.136,0.077-0.224,0.172-0.27,0.385
		c-0.05,0.245-0.002,0.417,0.257,0.417c0.249,0,0.535-0.213,0.588-0.462L797.229,68.875L797.229,68.875z M796.135,68.502
		c0.118-0.553,0.406-0.796,0.985-0.796c0.739,0,0.644,0.443,0.591,0.697l-0.29,1.354c-0.021,0.102-0.042,0.195,0.077,0.195
		c0.048,0,0.074-0.008,0.095-0.024l-0.058,0.272c-0.029,0.003-0.134,0.024-0.228,0.024c-0.146,0-0.325,0-0.277-0.313h-0.012
		c-0.167,0.219-0.431,0.349-0.656,0.349c-0.454,0-0.604-0.271-0.513-0.706c0.074-0.34,0.27-0.572,0.602-0.67l0.545-0.155
		c0.297-0.086,0.312-0.163,0.356-0.367c0.049-0.226-0.06-0.355-0.313-0.355c-0.417,0-0.5,0.391-0.52,0.475l-0.003,0.024
		L796.135,68.502L796.135,68.502z"/>
	<path fill="#F9F9F9" d="M798.365,67.768h0.38l-0.078,0.363h0.009c0.158-0.229,0.346-0.425,0.617-0.425
		c0.077,0,0.129,0.007,0.162,0.027l-0.078,0.368c-0.036-0.004-0.079-0.019-0.2-0.019c-0.19,0-0.535,0.174-0.623,0.576l-0.327,1.538
		h-0.38L798.365,67.768L798.365,67.768z"/>
	<path fill="#F9F9F9" d="M799.583,67.768H800l0.063,1.95h0.009l0.844-1.95h0.416l-1.258,2.593c-0.161,0.336-0.325,0.635-0.784,0.635
		c-0.149,0-0.21-0.009-0.273-0.014l0.063-0.299c0.053,0.009,0.125,0.014,0.221,0.014c0.175,0,0.275-0.102,0.349-0.235l0.118-0.214
		L799.583,67.768L799.583,67.768z"/>
	<path fill="#F9F9F9" d="M803.69,68.982c0.112-0.524,0.134-0.979-0.277-0.979c-0.383,0-0.565,0.454-0.675,0.979
		c-0.113,0.523-0.133,0.979,0.258,0.979C803.398,69.962,803.578,69.509,803.69,68.982L803.69,68.982z M803.486,67.706
		c0.704,0,0.748,0.592,0.602,1.276c-0.145,0.684-0.449,1.275-1.147,1.275c-0.704,0-0.749-0.592-0.601-1.275
		C802.485,68.298,802.789,67.706,803.486,67.706L803.486,67.706z"/>
	<path fill="#F9F9F9" d="M804.778,68.068h-0.354l0.063-0.301h0.354l0.062-0.285c0.078-0.367,0.276-0.558,0.646-0.558h0.273
		l-0.069,0.327h-0.177c-0.163,0-0.258,0.062-0.294,0.23l-0.062,0.285h0.417l-0.063,0.301h-0.419l-0.456,2.13h-0.38L804.778,68.068
		L804.778,68.068z"/>
	<polygon fill="#F9F9F9" points="807.188,66.962 807.859,66.962 807.959,69.527 807.968,69.527 809.165,66.962 809.836,66.962 
		809.144,70.198 808.745,70.198 809.349,67.368 809.341,67.368 808.021,70.198 807.619,70.198 807.508,67.368 807.5,67.368 
		806.896,70.198 806.496,70.198 	"/>
	<path fill="#F9F9F9" d="M810.188,69.871h0.419c0.689,0,0.918-0.707,1.041-1.287c0.133-0.622,0.234-1.297-0.489-1.297h-0.418
		L810.188,69.871L810.188,69.871z M810.412,66.962h0.866c1.008,0,0.979,0.728,0.788,1.617c-0.175,0.815-0.55,1.619-1.438,1.619
		h-0.906L810.412,66.962L810.412,66.962z"/>
	<path fill="#F9F9F9" d="M812.857,66.962h0.401l-0.487,2.275c-0.103,0.476,0.004,0.697,0.399,0.697c0.425,0,0.604-0.243,0.702-0.697
		l0.487-2.275h0.399l-0.487,2.275c-0.133,0.622-0.537,1.022-1.171,1.022c-0.648,0-0.871-0.354-0.73-1.022L812.857,66.962
		L812.857,66.962z"/>
	<path fill="#F9F9F9" d="M816.42,68.431h0.396c0.236,0,0.667,0,0.799-0.625c0.068-0.318-0.102-0.517-0.472-0.517h-0.477
		L816.42,68.431L816.42,68.431z M816.336,66.962h1.048c0.51,0,0.766,0.298,0.656,0.811c-0.077,0.354-0.277,0.727-0.673,0.815
		l-0.004,0.013c0.276,0.029,0.384,0.263,0.345,0.54l-0.091,0.552c-0.059,0.354-0.02,0.448,0.063,0.508h-0.479
		c-0.056-0.068-0.034-0.305-0.011-0.465l0.082-0.506c0.062-0.443-0.176-0.469-0.38-0.469h-0.538l-0.308,1.439h-0.4L816.336,66.962
		L816.336,66.962z"/>
	<path fill="#F9F9F9" d="M819.494,68.729l0.026-0.13c0.059-0.273,0.041-0.595-0.294-0.595c-0.399,0-0.549,0.489-0.58,0.632
		l-0.02,0.091L819.494,68.729L819.494,68.729z M818.553,69.028c-0.08,0.368-0.2,0.934,0.266,0.934c0.363,0,0.495-0.38,0.533-0.565
		h0.38c-0.054,0.259-0.337,0.861-0.999,0.861c-0.594,0-0.756-0.409-0.578-1.246c0.131-0.606,0.398-1.309,1.146-1.309
		c0.745,0,0.673,0.646,0.562,1.169l-0.032,0.153L818.553,69.028L818.553,69.028z"/>
	<path fill="#F9F9F9" d="M821.41,68.48c0.063-0.307,0.019-0.475-0.259-0.475c-0.122,0-0.4,0.029-0.475,0.372
		c-0.061,0.285,0.228,0.34,0.505,0.439c0.273,0.097,0.55,0.202,0.449,0.683c-0.109,0.515-0.495,0.76-0.947,0.76
		c-0.825,0-0.705-0.61-0.649-0.86h0.381c-0.062,0.298-0.04,0.565,0.333,0.565c0.122,0,0.416-0.06,0.489-0.405
		c0.071-0.327-0.216-0.396-0.486-0.495c-0.275-0.099-0.561-0.187-0.451-0.687c0.096-0.455,0.496-0.672,0.917-0.672
		c0.708,0,0.629,0.487,0.573,0.774H821.41L821.41,68.48z"/>
	<path fill="#F9F9F9" d="M823.337,68.982c0.112-0.524,0.134-0.979-0.275-0.979c-0.385,0-0.563,0.454-0.676,0.979
		c-0.111,0.523-0.134,0.979,0.257,0.979C823.047,69.962,823.223,69.509,823.337,68.982L823.337,68.982z M823.134,67.706
		c0.702,0,0.748,0.592,0.604,1.276c-0.146,0.684-0.451,1.275-1.148,1.275c-0.702,0-0.748-0.592-0.603-1.275
		C822.133,68.298,822.435,67.706,823.134,67.706L823.134,67.706z"/>
	<path fill="#F9F9F9" d="M825.456,70.198h-0.359l0.061-0.287h-0.01c-0.146,0.224-0.429,0.349-0.665,0.349
		c-0.636,0-0.534-0.483-0.474-0.77l0.37-1.723h0.38l-0.358,1.678c-0.039,0.188-0.091,0.489,0.255,0.489
		c0.205,0,0.51-0.135,0.583-0.489l0.359-1.678h0.38L825.456,70.198L825.456,70.198z"/>
	<path fill="#F9F9F9" d="M826.476,67.768h0.381l-0.076,0.363h0.007c0.159-0.229,0.346-0.425,0.619-0.425
		c0.076,0,0.129,0.007,0.162,0.027l-0.081,0.368c-0.035-0.004-0.078-0.019-0.2-0.019c-0.19,0-0.535,0.174-0.621,0.576l-0.327,1.538
		h-0.38L826.476,67.768L826.476,67.768z"/>
	<path fill="#F9F9F9" d="M828.818,68.507c0.051-0.235,0.011-0.503-0.278-0.503c-0.235,0-0.5,0.119-0.69,1.004
		c-0.068,0.316-0.198,0.952,0.259,0.952c0.327,0,0.472-0.348,0.528-0.607h0.38c-0.081,0.386-0.383,0.902-0.991,0.902
		c-0.595,0-0.755-0.409-0.577-1.246c0.131-0.605,0.399-1.309,1.145-1.309c0.662,0,0.664,0.521,0.604,0.802h-0.378V68.507
		L828.818,68.507z"/>
	<path fill="#F9F9F9" d="M830.741,68.729l0.029-0.13c0.059-0.273,0.041-0.595-0.295-0.595c-0.398,0-0.548,0.489-0.579,0.632
		l-0.021,0.091L830.741,68.729L830.741,68.729z M829.8,69.028c-0.08,0.368-0.2,0.934,0.267,0.934c0.362,0,0.491-0.38,0.532-0.565
		h0.38c-0.053,0.259-0.337,0.861-0.999,0.861c-0.595,0-0.755-0.409-0.575-1.246c0.129-0.606,0.398-1.309,1.144-1.309
		c0.743,0,0.673,0.646,0.562,1.169l-0.032,0.153L829.8,69.028L829.8,69.028z"/>
	<path fill="#F9F9F9" d="M832.657,68.48c0.065-0.307,0.019-0.475-0.259-0.475c-0.121,0-0.4,0.029-0.473,0.372
		c-0.06,0.285,0.227,0.34,0.506,0.439c0.271,0.097,0.55,0.202,0.446,0.683c-0.109,0.515-0.492,0.76-0.946,0.76
		c-0.826,0-0.703-0.61-0.648-0.86h0.379c-0.062,0.298-0.039,0.565,0.333,0.565c0.122,0,0.416-0.06,0.488-0.405
		c0.069-0.327-0.214-0.396-0.486-0.495c-0.272-0.099-0.559-0.187-0.452-0.687c0.098-0.455,0.499-0.672,0.92-0.672
		c0.707,0,0.629,0.487,0.572,0.774H832.657L832.657,68.48z"/>
	<path fill="#F9F9F9" d="M836.229,67.857c0.056-0.339-0.008-0.632-0.404-0.632c-0.553,0-0.754,0.609-0.915,1.354
		c-0.16,0.748-0.217,1.355,0.336,1.355s0.735-0.662,0.826-1.092h-0.636l0.069-0.326h1.003l-0.36,1.682h-0.299l0.094-0.441h-0.009
		c-0.144,0.279-0.453,0.503-0.807,0.503c-0.843,0-0.82-0.81-0.633-1.681c0.175-0.816,0.51-1.681,1.402-1.681
		c0.928,0,0.782,0.792,0.751,0.959H836.229L836.229,67.857z"/>
	<path fill="#F9F9F9" d="M837.135,67.768h0.383l-0.08,0.363h0.009c0.16-0.229,0.348-0.425,0.619-0.425
		c0.076,0,0.128,0.007,0.162,0.027l-0.08,0.368c-0.036-0.004-0.079-0.019-0.198-0.019c-0.192,0-0.538,0.174-0.623,0.576
		l-0.328,1.538h-0.381L837.135,67.768L837.135,67.768z"/>
	<path fill="#F9F9F9" d="M839.449,68.982c0.114-0.524,0.133-0.979-0.274-0.979c-0.386,0-0.564,0.454-0.676,0.979
		c-0.111,0.523-0.132,0.979,0.257,0.979C839.158,69.962,839.338,69.509,839.449,68.982L839.449,68.982z M839.249,67.706
		c0.703,0,0.747,0.592,0.602,1.276c-0.147,0.684-0.45,1.275-1.148,1.275c-0.704,0-0.748-0.592-0.602-1.275
		C838.245,68.298,838.55,67.706,839.249,67.706L839.249,67.706z"/>
	<path fill="#F9F9F9" d="M841.572,70.198h-0.363l0.062-0.287h-0.008c-0.148,0.224-0.429,0.349-0.664,0.349
		c-0.642,0-0.538-0.483-0.478-0.77l0.371-1.723h0.38l-0.36,1.678c-0.036,0.188-0.09,0.489,0.257,0.489
		c0.202,0,0.508-0.135,0.583-0.489l0.358-1.678h0.381L841.572,70.198L841.572,70.198z"/>
	<path fill="#F9F9F9" d="M842.976,69.935c0.354,0,0.524-0.372,0.657-0.996c0.114-0.535,0.102-0.907-0.251-0.907
		c-0.421,0-0.572,0.401-0.693,0.951C842.589,69.454,842.568,69.935,842.976,69.935L842.976,69.935z M842.593,67.768h0.361
		l-0.063,0.301h0.009c0.087-0.186,0.34-0.362,0.604-0.362c0.574,0,0.683,0.513,0.528,1.232c-0.116,0.552-0.446,1.321-1.076,1.321
		c-0.218,0-0.395-0.13-0.435-0.338h-0.011l-0.23,1.073h-0.38L842.593,67.768L842.593,67.768z"/>
	<path fill="#F9F9F9" d="M844.361,69.718h0.415l-0.083,0.396c-0.074,0.345-0.166,0.651-0.578,0.757l0.044-0.214
		c0.177-0.079,0.234-0.168,0.274-0.35l0.021-0.109h-0.198L844.361,69.718L844.361,69.718z"/>
	<polygon fill="#F9F9F9" points="846.887,66.962 847.285,66.962 846.595,70.198 846.195,70.198 	"/>
	<path fill="#F9F9F9" d="M847.627,67.768h0.362l-0.06,0.288h0.008c0.146-0.221,0.428-0.35,0.664-0.35
		c0.638,0,0.535,0.484,0.474,0.77l-0.368,1.723h-0.379l0.358-1.679c0.04-0.185,0.091-0.488-0.254-0.488
		c-0.202,0-0.51,0.136-0.585,0.488l-0.358,1.679h-0.38L847.627,67.768L847.627,67.768z"/>
	<path fill="#F9F9F9" d="M850.725,68.507c0.051-0.235,0.013-0.503-0.276-0.503c-0.235,0-0.503,0.119-0.692,1.004
		c-0.068,0.316-0.198,0.952,0.259,0.952c0.327,0,0.475-0.348,0.529-0.607h0.383c-0.083,0.386-0.386,0.902-0.994,0.902
		c-0.595,0-0.754-0.409-0.575-1.246c0.13-0.605,0.396-1.309,1.145-1.309c0.662,0,0.664,0.521,0.604,0.802h-0.381V68.507
		L850.725,68.507z"/>
	<polygon fill="#F9F9F9" points="851.328,69.718 851.744,69.718 851.641,70.198 851.226,70.198 	"/>
	<path fill="#F9F9F9" d="M738.819,34.596l0.245,0.187c-0.168,0.274-0.318,0.549-0.447,0.831c-0.755,0.329-1.481,0.563-2.179,0.702
		c-0.699,0.137-1.502,0.208-2.412,0.208c-1.702,0-3.14-0.249-4.316-0.747s-2.081-1.199-2.713-2.104
		c-0.634-0.904-0.951-1.94-0.951-3.11c0-1.684,0.718-3.061,2.15-4.138c1.433-1.074,3.409-1.611,5.929-1.611
		c0.838,0,1.667,0.062,2.49,0.188c0.82,0.124,1.638,0.311,2.449,0.568l0.069,0.121c-0.12,0.294-0.205,0.574-0.249,0.845
		c-0.087,0.472-0.152,1.054-0.199,1.753h-0.819c-0.038-0.854-0.078-1.323-0.116-1.408c-0.04-0.083-0.217-0.227-0.536-0.432
		c-0.318-0.2-0.748-0.364-1.29-0.494c-0.542-0.127-1.141-0.188-1.795-0.188c-1.558,0-2.795,0.4-3.714,1.201
		c-0.92,0.802-1.377,1.916-1.377,3.346c0,1.547,0.551,2.802,1.655,3.759c1.021,0.891,2.42,1.333,4.2,1.333
		c0.688,0,1.332-0.06,1.935-0.179C737.429,35.102,738.094,34.895,738.819,34.596L738.819,34.596z"/>
	<path fill="#F9F9F9" d="M744.296,29.685l-1.589,3.229c0.461,0.02,0.971,0.027,1.528,0.027c0.583,0,1.14-0.01,1.674-0.027
		L744.296,29.685L744.296,29.685z M739.354,35.773c0.472-0.023,0.764-0.061,0.872-0.119c0.076-0.041,0.193-0.201,0.354-0.478
		c0.308-0.543,0.697-1.298,1.176-2.264l2.665-5.441h1.107l3.402,6.739c0.441,0.851,0.716,1.315,0.816,1.396
		c0.104,0.08,0.421,0.135,0.952,0.166v0.568c-0.817-0.026-1.591-0.042-2.318-0.042c-0.867,0-1.693,0.014-2.475,0.042v-0.568
		c0.596-0.023,0.942-0.049,1.034-0.083c0.094-0.033,0.14-0.098,0.14-0.188c0-0.08-0.106-0.347-0.316-0.797l-0.497-1.048
		c-0.623-0.016-1.32-0.021-2.087-0.021c-0.67,0-1.278,0.005-1.825,0.021l-0.33,0.705c-0.091,0.189-0.201,0.478-0.332,0.859
		c-0.029,0.083-0.044,0.162-0.044,0.231c0,0.096,0.048,0.161,0.146,0.2c0.099,0.037,0.451,0.079,1.058,0.119v0.568
		c-0.492-0.026-1.104-0.042-1.836-0.042c-0.697,0-1.252,0.014-1.663,0.042L739.354,35.773L739.354,35.773z"/>
	<path fill="#F9F9F9" d="M751.335,33.691h0.663c0.006,0.621,0.029,0.98,0.072,1.087s0.186,0.248,0.431,0.421
		c0.246,0.173,0.565,0.313,0.957,0.424c0.392,0.107,0.794,0.162,1.206,0.162c0.707,0,1.272-0.157,1.697-0.47
		c0.422-0.312,0.635-0.704,0.635-1.171c0-0.431-0.141-0.761-0.421-0.992c-0.286-0.23-0.829-0.395-1.626-0.489
		c-1.186-0.141-1.984-0.297-2.397-0.463c-0.415-0.166-0.74-0.418-0.979-0.754c-0.24-0.334-0.359-0.735-0.359-1.207
		c0-0.785,0.333-1.452,0.997-1.998c0.665-0.549,1.727-0.821,3.186-0.821c0.57,0,1.08,0.035,1.522,0.107
		c0.445,0.073,0.889,0.19,1.335,0.353l0.076,0.152c-0.081,0.264-0.137,0.5-0.17,0.715c-0.033,0.213-0.062,0.582-0.086,1.105h-0.649
		c-0.024-0.645-0.061-1.003-0.111-1.083c-0.095-0.136-0.339-0.282-0.728-0.435s-0.834-0.229-1.337-0.229
		c-0.687,0-1.221,0.139-1.6,0.417s-0.569,0.638-0.569,1.076c0,0.268,0.078,0.5,0.232,0.699c0.157,0.196,0.375,0.345,0.651,0.438
		c0.28,0.091,0.879,0.199,1.797,0.323c0.833,0.105,1.397,0.204,1.693,0.306c0.486,0.162,0.855,0.412,1.106,0.746
		c0.251,0.335,0.378,0.757,0.378,1.27c0,0.886-0.407,1.622-1.221,2.208c-0.812,0.587-1.923,0.883-3.335,0.883
		c-0.627,0-1.197-0.05-1.709-0.151c-0.513-0.1-1.04-0.265-1.588-0.494c0.089-0.294,0.15-0.561,0.181-0.796
		C751.307,34.697,751.33,34.253,751.335,33.691L751.335,33.691z"/>
	<path fill="#F9F9F9" d="M769.227,34.982l0.188,0.145c-0.13,0.211-0.243,0.424-0.345,0.641c-0.585,0.254-1.146,0.437-1.683,0.543
		c-0.541,0.106-1.161,0.159-1.863,0.159c-1.316,0-2.427-0.191-3.337-0.577c-0.907-0.384-1.606-0.926-2.096-1.625
		c-0.489-0.698-0.733-1.499-0.733-2.402c0-1.303,0.553-2.366,1.659-3.198c1.106-0.83,2.633-1.246,4.583-1.246
		c0.646,0,1.288,0.048,1.923,0.146c0.635,0.097,1.267,0.243,1.893,0.438l0.054,0.096c-0.092,0.224-0.155,0.442-0.19,0.651
		c-0.068,0.364-0.119,0.815-0.156,1.355h-0.633c-0.03-0.661-0.061-1.024-0.088-1.088c-0.031-0.064-0.17-0.175-0.414-0.332
		c-0.245-0.157-0.578-0.284-0.996-0.382c-0.421-0.099-0.882-0.148-1.388-0.148c-1.203,0-2.161,0.31-2.872,0.928
		c-0.707,0.621-1.062,1.483-1.062,2.585c0,1.195,0.428,2.164,1.28,2.906c0.786,0.685,1.869,1.029,3.246,1.029
		c0.529,0,1.026-0.047,1.493-0.139C768.15,35.373,768.665,35.212,769.227,34.982L769.227,34.982z"/>
	<path fill="#F9F9F9" d="M774.687,29.685l-1.59,3.229c0.461,0.02,0.971,0.027,1.528,0.027c0.584,0,1.142-0.01,1.674-0.027
		L774.687,29.685L774.687,29.685z M769.747,35.773c0.472-0.023,0.764-0.061,0.872-0.119c0.076-0.041,0.193-0.201,0.354-0.478
		c0.309-0.543,0.699-1.298,1.176-2.264l2.665-5.441h1.107l3.403,6.739c0.44,0.851,0.715,1.315,0.818,1.396
		c0.102,0.08,0.418,0.135,0.951,0.166v0.568c-0.818-0.026-1.59-0.042-2.317-0.042c-0.869,0-1.694,0.014-2.478,0.042v-0.568
		c0.596-0.023,0.942-0.049,1.034-0.083c0.094-0.033,0.14-0.098,0.14-0.188c0-0.08-0.106-0.347-0.316-0.797l-0.497-1.048
		c-0.624-0.016-1.318-0.021-2.087-0.021c-0.671,0-1.276,0.005-1.825,0.021l-0.33,0.705c-0.091,0.189-0.201,0.478-0.332,0.859
		c-0.029,0.083-0.044,0.162-0.044,0.231c0,0.096,0.049,0.161,0.146,0.2c0.099,0.037,0.451,0.079,1.058,0.119v0.568
		c-0.491-0.026-1.104-0.042-1.835-0.042c-0.698,0-1.253,0.014-1.664,0.042L769.747,35.773L769.747,35.773z"/>
	<path fill="#F9F9F9" d="M784.768,35.566c0.423,0.062,0.853,0.095,1.295,0.095c1.121,0,1.976-0.136,2.562-0.404
		c0.587-0.269,1.062-0.704,1.427-1.312c0.363-0.608,0.546-1.355,0.546-2.24c0-1.167-0.361-2.055-1.084-2.667
		c-0.638-0.544-1.679-0.815-3.125-0.815c-0.31,0-0.85,0.023-1.619,0.062l-0.06,3.911C784.708,33.841,784.729,34.965,784.768,35.566
		L784.768,35.566z M781.717,36.345v-0.326c0.348-0.167,0.594-0.293,0.74-0.377c0.069-0.733,0.104-2.113,0.104-4.131
		c0-0.874-0.01-1.605-0.033-2.192c-0.023-0.586-0.058-0.923-0.102-1.005c-0.02-0.042-0.053-0.072-0.098-0.094
		c-0.077-0.033-0.444-0.083-1.108-0.151v-0.525c0.758,0.021,1.63,0.028,2.613,0.028l3.712-0.028c1.35,0,2.376,0.139,3.076,0.424
		c0.701,0.288,1.257,0.723,1.668,1.309c0.412,0.583,0.619,1.297,0.619,2.134c0,1.075-0.322,2.002-0.965,2.778
		c-0.645,0.781-1.427,1.334-2.35,1.664c-0.925,0.329-1.911,0.495-2.961,0.495l-2.853-0.042
		C783.324,36.301,782.638,36.315,781.717,36.345L781.717,36.345z"/>
	<path fill="#F9F9F9" d="M792.991,36.345v-0.339c0.268-0.102,0.511-0.217,0.731-0.352c0.099-0.651,0.149-2.025,0.149-4.118
		c0-1.427-0.018-2.37-0.053-2.836c-0.016-0.247-0.067-0.403-0.155-0.468c-0.087-0.064-0.46-0.121-1.119-0.166V27.54
		c1.186,0.037,2.119,0.056,2.807,0.056l4.146-0.056c0.434,0,0.827,0.015,1.18,0.043l0.053,0.071c-0.11,0.459-0.19,1.073-0.24,1.838
		h-0.595c-0.028-0.612-0.055-0.939-0.088-0.979c-0.033-0.043-0.147-0.081-0.341-0.122c-0.418-0.074-1.056-0.112-1.913-0.112
		c-0.421,0-0.915,0.018-1.477,0.043c-0.065,1.293-0.103,2.322-0.112,3.088c0.537,0.029,1.041,0.043,1.514,0.043
		c0.699,0,1.115-0.018,1.257-0.056c0.086-0.026,0.146-0.086,0.18-0.181c0.029-0.078,0.066-0.342,0.106-0.79h0.649
		c-0.026,0.707-0.039,1.169-0.039,1.383l0.039,1.415h-0.649c-0.035-0.554-0.08-0.868-0.136-0.953
		c-0.028-0.051-0.098-0.088-0.201-0.108c-0.251-0.047-0.816-0.068-1.696-0.068c-0.275,0-0.6,0.014-0.971,0.045
		c-0.009,0.221-0.013,0.444-0.013,0.674c0,1.193,0.025,2.109,0.073,2.751l1.494,0.02c0.852,0,1.627-0.036,2.332-0.113
		c0.127-0.387,0.246-0.825,0.359-1.317h0.625c-0.115,0.746-0.182,1.461-0.204,2.146c-0.456,0.026-0.896,0.042-1.316,0.042
		c-0.275,0-0.82-0.008-1.633-0.021c-0.759-0.014-1.457-0.021-2.095-0.021C794.803,36.301,793.92,36.315,792.991,36.345
		L792.991,36.345z"/>
	<path fill="#F9F9F9" d="M736.764,51.471v-0.619c0.72-0.028,1.141-0.066,1.267-0.121c0.082-0.038,0.143-0.104,0.186-0.189
		c0.063-0.117,0.104-0.535,0.122-1.248c0.029-1.182,0.046-2.074,0.046-2.674l-0.018-3.121c0-0.829-0.033-1.303-0.097-1.434
		c-0.035-0.073-0.092-0.128-0.167-0.162c-0.118-0.059-0.564-0.115-1.339-0.17v-0.621c0.923,0.025,1.604,0.035,2.051,0.035
		c0.489,0,1.049-0.013,1.674-0.035c1.364,1.448,2.904,3.023,4.624,4.721c1.146,1.135,2.133,2.071,2.962,2.812v-2.93
		c0-1.11-0.016-2.068-0.043-2.874c-0.023-0.477-0.071-0.771-0.143-0.88c-0.035-0.06-0.102-0.101-0.195-0.125
		c-0.094-0.028-0.507-0.06-1.239-0.104v-0.621c0.642,0.025,1.28,0.036,1.918,0.036c0.873,0,1.662-0.013,2.369-0.036v0.621
		c-0.656,0.035-1.055,0.074-1.19,0.118c-0.077,0.026-0.138,0.059-0.184,0.104c-0.047,0.043-0.082,0.1-0.106,0.168
		c-0.041,0.118-0.066,0.497-0.073,1.138l-0.033,2.953l-0.018,2.977c0,0.797,0.021,1.593,0.063,2.391l-0.117,0.104
		c-0.719-0.107-1.225-0.18-1.522-0.214c-1.518-1.402-3.352-3.163-5.501-5.283c-1.087-1.068-1.965-1.974-2.63-2.706v2.868
		c0,0.784,0.014,1.725,0.044,2.827c0.017,0.812,0.059,1.275,0.124,1.398c0.023,0.055,0.067,0.097,0.132,0.129
		c0.112,0.054,0.538,0.104,1.275,0.147v0.62c-0.953-0.035-1.634-0.052-2.047-0.052C738.619,51.419,737.887,51.436,736.764,51.471
		L736.764,51.471z"/>
	<path fill="#F9F9F9" d="M754.864,44.803l-1.589,3.225c0.463,0.023,0.972,0.032,1.529,0.032c0.583,0,1.14-0.01,1.672-0.032
		L754.864,44.803L754.864,44.803z M749.925,50.892c0.472-0.021,0.762-0.06,0.874-0.119c0.074-0.042,0.193-0.201,0.354-0.478
		c0.306-0.543,0.697-1.299,1.174-2.266l2.665-5.438h1.107l3.404,6.736c0.442,0.851,0.714,1.318,0.816,1.397
		c0.103,0.081,0.421,0.137,0.952,0.165v0.571c-0.819-0.029-1.59-0.044-2.317-0.044c-0.869,0-1.694,0.014-2.478,0.044V50.89
		c0.596-0.021,0.943-0.05,1.034-0.082c0.094-0.035,0.14-0.097,0.14-0.188c0-0.077-0.105-0.344-0.315-0.795l-0.498-1.05
		c-0.621-0.013-1.318-0.019-2.087-0.019c-0.668,0-1.275,0.006-1.823,0.019l-0.332,0.705c-0.089,0.191-0.2,0.479-0.331,0.858
		c-0.029,0.086-0.044,0.162-0.044,0.231c0,0.094,0.048,0.161,0.146,0.201c0.099,0.037,0.45,0.077,1.059,0.119v0.571
		c-0.492-0.029-1.105-0.044-1.838-0.044c-0.696,0-1.25,0.014-1.661,0.044V50.892L749.925,50.892z"/>
	<path fill="#F9F9F9" d="M762.179,51.464v-0.527c0.284,0,0.582-0.021,0.894-0.062c0.146-0.021,0.248-0.055,0.309-0.104
		s0.106-0.136,0.136-0.268c0.035-0.179,0.064-0.838,0.091-1.98c0.016-0.812,0.024-1.638,0.024-2.481
		c0-1.659-0.007-2.506-0.021-2.535c-0.013-0.032-0.19-0.048-0.532-0.048c-0.7,0-1.301,0.016-1.804,0.051
		c-0.291,0.02-0.458,0.041-0.496,0.062c-0.037,0.021-0.066,0.058-0.085,0.11c-0.019,0.054-0.062,0.42-0.128,1.102h-0.649
		c0.011-0.801-0.015-1.489-0.073-2.07l0.081-0.051c1.581,0.062,3.119,0.094,4.616,0.094c1.49,0,3.16-0.03,5.007-0.094l0.083,0.101
		c-0.097,0.575-0.164,1.247-0.203,2.021h-0.625c-0.044-0.706-0.09-1.088-0.136-1.146c-0.034-0.047-0.114-0.079-0.241-0.097
		c-0.402-0.055-1.199-0.08-2.396-0.08c-0.099,0-0.16,0.013-0.18,0.038c-0.02,0.028-0.029,0.139-0.029,0.334l-0.046,4.219
		c0,1.221,0.013,1.974,0.037,2.25c0.026,0.279,0.086,0.449,0.184,0.507c0.064,0.036,0.46,0.08,1.189,0.133v0.527
		c-0.739-0.029-1.524-0.045-2.354-0.045C763.74,51.419,762.855,51.433,762.179,51.464L762.179,51.464z"/>
	<path fill="#F9F9F9" d="M770,43.187v-0.527c1.025,0.029,1.923,0.043,2.696,0.043c0.49,0,1.187-0.014,2.084-0.043v0.527
		c-0.462,0-0.787,0.03-0.979,0.1c-0.065,0.021-0.118,0.056-0.157,0.106c-0.056,0.06-0.093,0.157-0.114,0.296
		c-0.029,0.233-0.056,0.906-0.075,2.02c-0.017,0.775-0.023,1.56-0.023,2.359c0,0.655,0.09,1.139,0.271,1.446
		c0.182,0.309,0.446,0.536,0.792,0.688c0.502,0.211,1.047,0.317,1.64,0.317c0.81,0,1.427-0.11,1.854-0.333
		c0.424-0.222,0.712-0.524,0.857-0.915c0.145-0.389,0.218-1.241,0.218-2.555l-0.008-2.322c-0.005-0.521-0.035-0.836-0.089-0.94
		c-0.03-0.059-0.085-0.103-0.159-0.134c-0.122-0.058-0.487-0.104-1.101-0.136v-0.527c0.649,0.029,1.245,0.044,1.793,0.044
		c0.472,0,1.051-0.015,1.739-0.044v0.527c-0.497,0-0.807,0.046-0.931,0.136c-0.122,0.092-0.198,0.33-0.224,0.718
		c-0.053,0.937-0.083,1.995-0.088,3.179c0,0.757-0.014,1.255-0.038,1.488c-0.057,0.578-0.224,1.069-0.505,1.478
		c-0.281,0.409-0.749,0.743-1.402,1.007c-0.651,0.264-1.463,0.396-2.432,0.396c-1.009,0-1.848-0.125-2.515-0.378
		c-0.667-0.248-1.142-0.566-1.424-0.948c-0.28-0.381-0.422-0.946-0.422-1.688l0.038-2.823c0-0.226-0.013-0.801-0.038-1.725
		c-0.011-0.288-0.049-0.486-0.113-0.59c-0.042-0.059-0.103-0.104-0.184-0.136C770.886,43.265,770.562,43.229,770,43.187L770,43.187z
		"/>
	<path fill="#F9F9F9" d="M781.8,51.464v-0.527c0.582-0.043,0.916-0.08,1-0.118c0.056-0.028,0.097-0.064,0.12-0.119
		c0.051-0.102,0.085-0.438,0.106-1.017c0.024-0.896,0.037-1.601,0.037-2.115c0-0.694-0.01-1.577-0.03-2.648
		c-0.021-0.8-0.067-1.289-0.143-1.468c-0.02-0.055-0.061-0.097-0.121-0.128c-0.081-0.039-0.403-0.086-0.971-0.136V42.66
		c1.039,0.029,1.708,0.043,2.01,0.043l3.773-0.043c0.817,0,1.413,0.064,1.787,0.198c0.374,0.13,0.67,0.342,0.888,0.63
		c0.218,0.293,0.329,0.633,0.329,1.024c0,0.503-0.175,0.942-0.524,1.32s-0.953,0.713-1.818,1.003l1.604,2.018l1.248,1.541
		c0.238,0.251,0.411,0.406,0.529,0.457c0.115,0.053,0.303,0.079,0.563,0.082v0.484l-0.443,0.005
		c-1.275,0.009-2.097,0.023-2.462,0.038c-0.437-0.582-1.088-1.425-1.958-2.529l-1.552-1.964c0.046-0.073,0.083-0.146,0.113-0.226
		c0.201,0.021,0.349,0.03,0.443,0.03c0.466,0,0.926-0.158,1.379-0.473c0.452-0.312,0.677-0.762,0.677-1.343
		c0-0.51-0.178-0.901-0.536-1.182c-0.356-0.281-0.895-0.422-1.606-0.422c-0.228,0-0.535,0.016-0.921,0.046l-0.051,1.852
		l-0.062,2.349c0,0.532,0.027,1.214,0.075,2.041c0.041,0.625,0.08,0.974,0.121,1.051c0.029,0.055,0.085,0.097,0.165,0.132
		c0.104,0.051,0.443,0.089,1.019,0.113v0.527c-0.903-0.029-1.702-0.045-2.399-0.045C783.449,51.419,782.652,51.433,781.8,51.464
		L781.8,51.464z"/>
	<path fill="#F9F9F9" d="M797.5,44.803l-1.589,3.225c0.461,0.023,0.971,0.032,1.528,0.032c0.583,0,1.141-0.01,1.674-0.032
		L797.5,44.803L797.5,44.803z M792.561,50.892c0.471-0.021,0.762-0.06,0.873-0.119c0.073-0.042,0.192-0.201,0.353-0.478
		c0.307-0.543,0.697-1.299,1.174-2.266l2.666-5.438h1.106l3.404,6.736c0.442,0.851,0.714,1.318,0.817,1.397
		c0.102,0.081,0.42,0.137,0.952,0.165v0.571c-0.817-0.029-1.594-0.044-2.318-0.044c-0.869,0-1.694,0.014-2.478,0.044V50.89
		c0.599-0.021,0.943-0.05,1.034-0.082c0.094-0.035,0.14-0.097,0.14-0.188c0-0.077-0.106-0.344-0.315-0.795l-0.497-1.05
		c-0.622-0.013-1.319-0.019-2.088-0.019c-0.668,0-1.275,0.006-1.823,0.019l-0.332,0.705c-0.089,0.191-0.199,0.479-0.329,0.858
		c-0.029,0.086-0.046,0.162-0.046,0.231c0,0.094,0.051,0.161,0.146,0.201c0.098,0.037,0.45,0.077,1.058,0.119v0.571
		c-0.49-0.029-1.104-0.044-1.836-0.044c-0.697,0-1.251,0.014-1.662,0.044L792.561,50.892L792.561,50.892z"/>
	<path fill="#F9F9F9" d="M804.485,51.464v-0.326c0.278-0.107,0.538-0.238,0.784-0.383c0.065-1.134,0.1-2.315,0.1-3.545
		c0-0.966-0.014-1.876-0.038-2.733c-0.017-0.612-0.049-0.962-0.105-1.055c-0.026-0.055-0.078-0.095-0.154-0.121
		c-0.08-0.028-0.445-0.065-1.096-0.11v-0.529c0.969,0.023,1.866,0.032,2.695,0.032c0.804,0,1.563-0.011,2.282-0.032v0.527
		c-0.689,0.038-1.086,0.085-1.193,0.151c-0.064,0.035-0.108,0.114-0.135,0.229c-0.028,0.115-0.05,0.792-0.063,2.028l-0.046,3.056
		c0,0.572,0.017,1.236,0.053,1.989c0.654,0.027,1.139,0.044,1.453,0.044c0.946,0,1.742-0.063,2.386-0.189
		c0.135-0.378,0.264-0.826,0.392-1.349h0.663c-0.111,0.609-0.213,1.366-0.299,2.271c-0.477,0.029-0.918,0.045-1.317,0.045
		l-2.723-0.029l-1.219-0.014C806.339,51.414,805.535,51.43,804.485,51.464L804.485,51.464z"/>
	<path fill="#F9F9F9" d="M825.18,47.839V47.24c1.075,0.025,2.035,0.04,2.881,0.04c0.778,0,1.62-0.016,2.522-0.04v0.473
		c-0.259,0.07-0.507,0.148-0.743,0.244c-0.072,0.497-0.108,0.92-0.108,1.271c0,0.25,0.036,0.747,0.108,1.489
		c-1.171,0.353-2.149,0.59-2.937,0.713c-0.788,0.127-1.606,0.188-2.449,0.188c-2.281,0-4.066-0.493-5.355-1.481
		c-1.29-0.986-1.936-2.268-1.936-3.835c0-1.613,0.658-2.904,1.975-3.875c1.317-0.97,3.208-1.454,5.67-1.454
		c0.867,0,1.701,0.057,2.497,0.17s1.557,0.286,2.277,0.518l0.078,0.11c-0.171,0.622-0.297,1.403-0.38,2.333h-0.743
		c-0.006-0.47-0.046-0.884-0.116-1.241c-0.378-0.365-0.865-0.638-1.457-0.82c-0.595-0.184-1.294-0.272-2.104-0.272
		c-1.519,0-2.728,0.384-3.628,1.152c-0.9,0.768-1.352,1.82-1.352,3.154c0,1.426,0.475,2.57,1.423,3.439
		c0.946,0.869,2.114,1.305,3.504,1.305c0.737,0,1.523-0.151,2.355-0.45c0.048-0.38,0.07-0.739,0.07-1.079
		c0-0.759-0.053-1.177-0.159-1.254C826.97,47.958,826.336,47.893,825.18,47.839L825.18,47.839z"/>
	<path fill="#F9F9F9" d="M835.408,44.803l-1.591,3.225c0.463,0.023,0.972,0.032,1.528,0.032c0.584,0,1.14-0.01,1.673-0.032
		L835.408,44.803L835.408,44.803z M830.465,50.892c0.474-0.021,0.764-0.06,0.874-0.119c0.076-0.042,0.192-0.201,0.354-0.478
		c0.305-0.543,0.697-1.299,1.174-2.266l2.665-5.438h1.106l3.404,6.736c0.441,0.851,0.714,1.318,0.816,1.397
		c0.103,0.081,0.421,0.137,0.951,0.165v0.571c-0.816-0.029-1.59-0.044-2.317-0.044c-0.867,0-1.694,0.014-2.478,0.044V50.89
		c0.598-0.021,0.943-0.05,1.036-0.082c0.094-0.035,0.139-0.097,0.139-0.188c0-0.077-0.104-0.344-0.315-0.795l-0.497-1.05
		c-0.623-0.013-1.318-0.019-2.088-0.019c-0.668,0-1.276,0.006-1.824,0.019l-0.329,0.705c-0.092,0.191-0.203,0.479-0.332,0.858
		c-0.031,0.086-0.046,0.162-0.046,0.231c0,0.094,0.049,0.161,0.146,0.201c0.1,0.037,0.452,0.077,1.058,0.119v0.571
		c-0.492-0.029-1.104-0.044-1.836-0.044c-0.697,0-1.25,0.014-1.662,0.044V50.892L830.465,50.892z"/>
	<path fill="#F9F9F9" d="M842.755,48.811h0.66c0.008,0.618,0.03,0.98,0.073,1.087c0.044,0.107,0.187,0.245,0.432,0.421
		c0.246,0.174,0.566,0.314,0.958,0.424c0.391,0.109,0.793,0.162,1.204,0.162c0.708,0,1.271-0.155,1.698-0.469
		c0.425-0.314,0.636-0.704,0.636-1.173c0-0.431-0.141-0.761-0.422-0.99c-0.286-0.23-0.829-0.393-1.625-0.489
		c-1.187-0.144-1.985-0.298-2.398-0.466c-0.415-0.167-0.742-0.415-0.979-0.754c-0.24-0.335-0.357-0.734-0.357-1.204
		c0-0.787,0.332-1.454,0.996-2.001c0.664-0.545,1.729-0.818,3.187-0.818c0.571,0,1.079,0.035,1.521,0.107
		c0.444,0.071,0.89,0.188,1.336,0.352l0.074,0.151c-0.079,0.264-0.136,0.501-0.168,0.717c-0.031,0.213-0.061,0.582-0.086,1.106
		h-0.646c-0.025-0.643-0.063-1.004-0.114-1.082c-0.094-0.139-0.337-0.283-0.725-0.436c-0.391-0.153-0.836-0.228-1.337-0.228
		c-0.688,0-1.222,0.137-1.601,0.414c-0.379,0.276-0.569,0.637-0.569,1.075c0,0.268,0.077,0.501,0.233,0.7
		c0.154,0.198,0.374,0.345,0.651,0.438s0.876,0.201,1.795,0.321c0.834,0.106,1.397,0.208,1.694,0.309
		c0.486,0.163,0.856,0.409,1.107,0.746c0.251,0.334,0.377,0.756,0.377,1.267c0,0.887-0.404,1.623-1.219,2.21
		c-0.813,0.589-1.927,0.882-3.337,0.882c-0.627,0-1.196-0.051-1.708-0.152c-0.513-0.097-1.043-0.263-1.59-0.495
		c0.091-0.292,0.149-0.559,0.181-0.793C842.726,49.815,842.748,49.37,842.755,48.811L842.755,48.811z"/>
	<path fill="#F9F9F9" d="M711.644,80.353c0.434,0,0.868,0.012,1.302,0.012c0.52,0,1.037-0.012,1.557-0.012l-0.094,0.288
		l-0.838,0.341l-0.722,2.721c-0.443,1.702-0.729,2.912-0.74,3.017l0.9,0.351l-0.128,0.274c-0.519,0-1.049-0.01-1.577-0.01
		c-0.519,0-1.049,0.01-1.577,0.01l0.105-0.274l0.878-0.351c0.063-0.129,0.392-1.263,0.868-3.017l0.752-2.721l-0.805-0.353
		L711.644,80.353L711.644,80.353z"/>
	<path fill="#F9F9F9" d="M713.854,87.416c0.265-0.723,1.144-3.794,1.144-4.055l-0.762-0.097l0.083-0.245
		c0.34-0.146,1.717-0.487,2.023-0.517l0.022,0.029c-0.043,0.235-0.402,1.398-0.741,2.498h0.021c0.688-1.048,1.451-1.916,2.224-2.275
		c0.231-0.118,0.625-0.243,1.038-0.243c0.38,0,0.423,0.063,0.266,0.613c-0.402,1.356-0.879,3.028-0.942,3.421l0.974-0.065
		l-0.138,0.353c-0.593,0.181-1.939,0.569-2.245,0.7l-0.095-0.117c0.063-0.29,1.06-3.347,1.217-3.939
		c0.043-0.139,0.023-0.182-0.053-0.182c-0.476,0-1.344,1.025-1.938,1.99c-0.403,0.657-0.604,1.122-0.91,2.044L713.854,87.416
		L713.854,87.416z"/>
	<path fill="#F9F9F9" d="M725.2,81.062l0.063,0.063l-0.486,1.578h1.335l-0.19,0.385l-1.28,0.126
		c-0.202,0.709-0.679,2.276-0.984,3.631l0.021,0.023c0.583-0.118,1.187-0.581,1.717-1.239l0.053,0.263
		c-0.434,1.326-1.684,1.581-2.224,1.581c-0.636,0-0.868-0.298-0.72-0.9c0.137-0.57,0.71-2.552,0.943-3.355l-0.826-0.127l0.222-0.384
		h0.751l0.308-1.004L725.2,81.062L725.2,81.062z"/>
	<path fill="#F9F9F9" d="M725.76,87.416c0.233-0.805,0.54-1.875,1.027-3.653c0.478-1.811,0.709-2.69,0.794-3.102l-0.762-0.148
		l0.115-0.233c0.412-0.173,1.662-0.341,2.055-0.341l0.021,0.023c-0.137,0.434-0.517,1.66-1.481,5.02h0.031
		c0.667-1.007,1.514-1.874,2.233-2.227c0.189-0.106,0.614-0.243,0.964-0.243c0.358,0,0.466,0.081,0.307,0.603
		c-0.413,1.376-0.889,3.039-0.941,3.432l0.974-0.065l-0.139,0.353c-0.604,0.181-1.927,0.562-2.244,0.7l-0.096-0.097
		c0.053-0.298,1.05-3.356,1.207-3.949c0.043-0.138,0.013-0.18-0.074-0.18c-0.35,0-1.313,0.961-1.938,2.022
		c-0.381,0.646-0.571,1.144-0.868,2.001L725.76,87.416L725.76,87.416z"/>
	<path fill="#F9F9F9" d="M734.672,82.904c-0.477,0-1.164,0.806-1.483,2.002c0.52-0.106,1.387-0.35,1.63-0.729
		c0.129-0.191,0.191-0.449,0.191-0.753c0-0.381-0.148-0.519-0.328-0.519L734.672,82.904L734.672,82.904z M735.774,86.188
		c-0.562,0.794-1.431,1.28-2.363,1.28c-0.836,0-1.597-0.395-1.62-1.644c-0.02-1.344,1.146-3.313,3.03-3.313
		c0.847,0,1.28,0.497,1.302,1.132c0,0.297-0.118,0.569-0.328,0.729c-0.352,0.396-1.822,0.794-2.67,0.934
		c-0.053,0.211-0.073,0.383-0.062,0.57c0,0.466,0.179,0.933,0.794,0.933c0.698,0,1.451-0.552,1.842-1.015h0.021L735.774,86.188
		L735.774,86.188z"/>
	<path fill="#F9F9F9" d="M745.521,85.838c-0.255,0.413-0.635,0.976-0.974,1.302c-0.529,0.212-1.303,0.396-1.916,0.396
		c-1.98,0-3.284-1.157-3.284-3.104c0-2.319,1.938-4.245,4.564-4.245c0.699,0,1.25,0.212,1.503,0.423
		c0.244-0.129,0.572-0.222,0.879-0.274l0.073,0.092c-0.168,0.529-0.646,1.61-0.795,1.856l-0.179,0.052
		c-0.063-0.403-0.116-0.91-0.148-1.345c-0.256-0.182-0.657-0.274-1.133-0.274c-2.097,0-3.368,1.789-3.368,3.65
		c0,1.578,0.814,2.594,2.328,2.594c0.191,0,0.403-0.021,0.614-0.062c0.604-0.52,1.145-0.953,1.716-1.345L745.521,85.838
		L745.521,85.838z"/>
	<path fill="#F9F9F9" d="M748.534,82.904c-0.795,0-1.588,1.867-1.588,3.177c0,0.676,0.211,0.996,0.541,0.996
		c0.792,0,1.577-1.831,1.577-3.197c0-0.542-0.148-0.976-0.519-0.976H748.534L748.534,82.904z M748.641,82.514
		c1.007,0,1.674,0.741,1.674,1.906c0,1.566-1.249,3.051-2.922,3.051c-0.954,0-1.684-0.687-1.694-1.832
		c0-1.684,1.376-3.122,2.933-3.122L748.641,82.514L748.641,82.514z"/>
	<path fill="#F9F9F9" d="M750.903,87.416c0.266-0.723,1.144-3.78,1.144-4.055l-0.762-0.085l0.075-0.254
		c0.358-0.147,1.693-0.488,2.011-0.509l0.031,0.029c-0.073,0.307-0.401,1.397-0.741,2.468h0.031
		c0.709-1.111,1.505-1.938,2.214-2.256c0.211-0.106,0.604-0.243,1.069-0.243c0.255,0,0.318,0.063,0.159,0.655
		c-0.159,0.594-0.308,1.102-0.54,1.79l0.03,0.01c0.656-0.995,1.409-1.842,2.191-2.212c0.222-0.106,0.636-0.243,1.08-0.243
		c0.306,0,0.369,0.073,0.212,0.613c-0.403,1.356-0.88,3.028-0.944,3.421l0.975-0.065l-0.137,0.353
		c-0.594,0.181-1.927,0.569-2.245,0.7l-0.085-0.117c0.053-0.29,1.059-3.359,1.219-3.948c0.041-0.139,0.011-0.185-0.063-0.185
		c-0.381,0-1.325,0.946-1.969,2.034c-0.383,0.631-0.551,1.12-0.87,2.012l-1.187,0.085c0.203-0.617,1.039-3.211,1.165-3.95
		c0.031-0.137,0.012-0.183-0.062-0.183c-0.381,0-1.26,0.839-1.958,2.043c-0.372,0.622-0.552,1.109-0.858,2.002L750.903,87.416
		L750.903,87.416z"/>
	<path fill="#F9F9F9" d="M759.74,87.416c0.266-0.723,1.143-3.78,1.143-4.055l-0.76-0.085l0.073-0.254
		c0.36-0.147,1.693-0.488,2.012-0.509l0.032,0.029c-0.075,0.307-0.403,1.397-0.742,2.468h0.032c0.71-1.111,1.503-1.938,2.213-2.256
		c0.211-0.106,0.604-0.243,1.069-0.243c0.254,0,0.316,0.063,0.159,0.655c-0.159,0.594-0.308,1.102-0.54,1.79l0.031,0.01
		c0.656-0.995,1.407-1.842,2.192-2.212c0.222-0.106,0.634-0.243,1.079-0.243c0.308,0,0.37,0.073,0.213,0.613
		c-0.403,1.356-0.879,3.028-0.943,3.421l0.974-0.065l-0.138,0.353c-0.594,0.181-1.926,0.569-2.246,0.7l-0.083-0.117
		c0.053-0.29,1.057-3.359,1.217-3.948c0.043-0.139,0.012-0.185-0.063-0.185c-0.38,0-1.323,0.946-1.969,2.034
		c-0.38,0.631-0.55,1.12-0.868,2.012l-1.187,0.085c0.2-0.617,1.038-3.211,1.163-3.95c0.032-0.137,0.013-0.183-0.063-0.183
		c-0.38,0-1.259,0.839-1.957,2.043c-0.37,0.622-0.55,1.109-0.856,2.002L759.74,87.416L759.74,87.416z"/>
	<path fill="#F9F9F9" d="M768.969,83.255l0.084-0.227c0.444-0.168,1.651-0.453,2.106-0.515l0.085,0.009
		c-0.295,0.742-1.1,3.327-1.238,3.922c-0.053,0.18-0.03,0.252,0.073,0.252c0.499,0,1.377-0.951,2.013-2.066
		c0.338-0.582,0.528-1.067,0.814-1.938c0.392-0.073,0.891-0.145,1.334-0.188l0.042,0.075l-0.434,0.592
		c-0.233,0.625-0.655,2.287-0.963,3.505l0.021,0.021c0.677-0.18,1.037-0.698,1.177-0.89l0.073,0.189
		c-0.105,0.592-0.773,1.473-2.097,1.473c-0.19,0-0.337-0.022-0.464-0.066c0.137-0.444,0.358-1.196,0.697-2.318h-0.043
		c-0.624,0.946-1.28,1.75-2.001,2.121c-0.296,0.158-0.646,0.264-0.974,0.264c-0.318,0-0.678-0.095-0.456-0.871
		c0.307-1.09,0.773-2.604,0.952-3.207L768.969,83.255L768.969,83.255z"/>
	<path fill="#F9F9F9" d="M774.684,87.416c0.264-0.723,1.143-3.794,1.143-4.055l-0.762-0.097l0.083-0.245
		c0.34-0.146,1.717-0.487,2.023-0.517l0.021,0.029c-0.043,0.235-0.401,1.398-0.741,2.498h0.022c0.688-1.048,1.45-1.916,2.223-2.275
		c0.234-0.118,0.625-0.243,1.038-0.243c0.381,0,0.425,0.063,0.265,0.613c-0.401,1.356-0.878,3.028-0.941,3.421l0.974-0.065
		l-0.14,0.353c-0.592,0.181-1.937,0.569-2.244,0.7l-0.096-0.117c0.064-0.29,1.06-3.347,1.218-3.939
		c0.042-0.139,0.021-0.182-0.053-0.182c-0.476,0-1.346,1.025-1.938,1.99c-0.402,0.657-0.604,1.122-0.91,2.044L774.684,87.416
		L774.684,87.416z"/>
	<path fill="#F9F9F9" d="M783.13,80.249c0.126,0.115,0.37,0.56,0.392,0.784l-0.021,0.063c-0.117,0.222-0.636,0.657-0.827,0.729
		h-0.062c-0.16-0.127-0.372-0.517-0.445-0.815l0.012-0.028c0.307-0.414,0.719-0.66,0.889-0.729L783.13,80.249L783.13,80.249z
		 M781.108,83.276l0.104-0.254c0.35-0.182,1.577-0.5,1.979-0.509l0.033,0.029c-0.625,2.014-1.207,3.928-1.293,4.332l0.022,0.012
		c0.414-0.085,1.091-0.815,1.344-1.104l0.044,0.184c-0.085,0.476-0.646,1.503-1.907,1.503c-0.455,0-0.763-0.317-0.519-1.21
		c0.096-0.295,0.476-1.596,0.899-2.869L781.108,83.276L781.108,83.276z"/>
	<path fill="#F9F9F9" d="M786.904,81.062l0.066,0.063l-0.486,1.578h1.333l-0.19,0.385l-1.282,0.126
		c-0.2,0.709-0.676,2.276-0.982,3.631l0.021,0.023c0.58-0.118,1.184-0.581,1.715-1.239l0.052,0.263
		c-0.434,1.326-1.682,1.581-2.222,1.581c-0.636,0-0.869-0.298-0.721-0.9c0.139-0.57,0.71-2.552,0.942-3.355l-0.825-0.127
		l0.222-0.384h0.752l0.306-1.004L786.904,81.062L786.904,81.062z"/>
	<path fill="#F9F9F9" d="M787.762,84.133c0.479-1.195,1.189-1.619,1.623-1.63c0.296,0.02,0.604,0.304,0.793,1.207
		c0.159,0.729,0.223,1.79,0.223,2.637h0.021c0.402-0.624,1.069-2.414,1.102-2.985l-0.318-0.448l0.021-0.116
		c0.298-0.16,0.699-0.276,1.006-0.285c0.084,0,0.16,0.029,0.149,0.094c-0.106,0.634-0.286,1.198-0.666,2.096
		c-0.604,1.438-1.41,2.593-2.044,3.378c-0.986,1.218-1.8,1.695-1.97,1.695c-0.128,0-0.498-0.275-0.668-1.049l0.043-0.129
		c0.318,0.014,0.688,0.119,1.153,0.318c0.075-0.029,0.425-0.297,0.698-0.688c0.36-0.51,0.467-0.909,0.467-1.619
		c0-0.964-0.201-2.237-0.436-2.884c-0.054-0.167-0.114-0.261-0.18-0.261c-0.095,0-0.434,0.381-0.771,0.907L787.762,84.133
		L787.762,84.133z"/>
	<path fill="#F9F9F9" d="M797.957,81.062l0.063,0.063l-0.487,1.578h1.335l-0.19,0.385l-1.281,0.126
		c-0.2,0.709-0.678,2.276-0.983,3.631l0.021,0.023c0.582-0.118,1.185-0.581,1.715-1.239l0.051,0.263
		c-0.431,1.326-1.684,1.581-2.221,1.581c-0.637,0-0.87-0.298-0.722-0.9c0.139-0.57,0.71-2.552,0.942-3.355l-0.826-0.127l0.223-0.384
		h0.751l0.309-1.004L797.957,81.062L797.957,81.062z"/>
	<path fill="#F9F9F9" d="M801.658,82.904c-0.793,0-1.586,1.867-1.586,3.177c0,0.676,0.212,0.996,0.539,0.996
		c0.794,0,1.577-1.831,1.577-3.197c0-0.542-0.147-0.976-0.518-0.976H801.658L801.658,82.904z M801.765,82.514
		c1.007,0,1.674,0.741,1.674,1.906c0,1.566-1.249,3.051-2.923,3.051c-0.951,0-1.683-0.687-1.693-1.832
		c0-1.684,1.376-3.122,2.934-3.122L801.765,82.514L801.765,82.514z"/>
	<path fill="#F9F9F9" d="M809.766,80.184c0.615,0,0.995,0.181,1.262,0.41c0.231-0.126,0.634-0.275,0.813-0.314l0.117,0.063
		c-0.096,0.357-0.487,1.481-0.657,1.779l-0.18,0.074c-0.097-0.309-0.191-0.815-0.233-1.176c-0.084-0.117-0.392-0.34-0.953-0.34
		c-0.847,0-1.301,0.605-1.301,1.176c0,0.383,0.137,0.646,0.465,0.943c0.318,0.274,0.719,0.583,1.293,1.069
		c0.623,0.53,0.836,0.995,0.836,1.556c0,1.25-1.101,2.084-2.605,2.084c-1.026,0-1.947-0.498-2.318-0.88
		c0.033-0.189,0.497-1.28,0.773-1.618h0.157c0.076,0.286,0.128,1.302,0.191,1.812c0.244,0.128,0.604,0.197,1.017,0.197
		c0.995,0,1.515-0.567,1.515-1.225c0-0.359-0.159-0.689-0.541-1.026c-0.381-0.33-0.795-0.671-1.165-1.007
		c-0.552-0.486-0.772-0.974-0.772-1.547c0-1.269,1.069-2.029,2.277-2.029L809.766,80.184L809.766,80.184z"/>
	<path fill="#F9F9F9" d="M814.454,82.904c-0.477,0-1.165,0.806-1.482,2.002c0.518-0.106,1.386-0.35,1.631-0.729
		c0.126-0.191,0.189-0.449,0.189-0.753c0-0.381-0.149-0.519-0.328-0.519L814.454,82.904L814.454,82.904z M815.556,86.188
		c-0.561,0.794-1.431,1.28-2.36,1.28c-0.838,0-1.599-0.395-1.623-1.644c-0.021-1.344,1.146-3.313,3.03-3.313
		c0.847,0,1.28,0.497,1.3,1.132c0,0.297-0.113,0.569-0.326,0.729c-0.352,0.396-1.822,0.794-2.668,0.934
		c-0.053,0.211-0.074,0.383-0.064,0.57c0,0.466,0.182,0.933,0.795,0.933c0.698,0,1.45-0.552,1.841-1.015h0.022L815.556,86.188
		L815.556,86.188z"/>
	<path fill="#F9F9F9" d="M816.443,83.022c0.35-0.188,1.375-0.475,1.746-0.509l0.023,0.009c0.021,0.33-0.032,0.965-0.245,1.823H818
		c0.899-1.673,1.609-1.832,2.011-1.832c0.183,0,0.33,0.053,0.426,0.126c-0.011,0.298-0.373,1.229-0.562,1.493l-0.16,0.083
		c-0.082-0.159-0.188-0.463-0.315-0.889c-0.021-0.012-0.043-0.012-0.066-0.012c-0.146,0-0.623,0.265-1.302,1.8
		c-0.242,0.54-0.443,1.229-0.719,2.214l-1.217,0.084c0.58-1.845,1.005-3.601,1.048-4.033l-0.762-0.118L816.443,83.022
		L816.443,83.022z"/>
	<path fill="#F9F9F9" d="M820.833,83.286l0.055-0.255c0.348-0.188,1.607-0.515,1.811-0.515l0.03,0.021
		c0.01,1.238,0.021,2.449,0.084,3.707h0.022c0.486-0.488,1.09-1.292,1.344-1.875c0.203-0.464,0.319-0.921,0.267-1.684
		c0.223-0.135,0.539-0.213,0.804-0.222l0.021,0.009c0.074,0.117,0.147,0.405,0.147,0.678c0.012,1.11-2.063,3.028-2.943,4.025
		c-0.137,0.137-0.518,0.274-0.677,0.307l-0.042-0.024c-0.021-0.329-0.085-1.958-0.149-3.121c-0.032-0.582-0.072-0.9-0.085-0.952
		L820.833,83.286L820.833,83.286z"/>
	<path fill="#F9F9F9" d="M828.243,82.904c-0.477,0-1.164,0.806-1.483,2.002c0.52-0.106,1.387-0.35,1.63-0.729
		c0.127-0.191,0.19-0.449,0.19-0.753c0-0.381-0.146-0.519-0.327-0.519L828.243,82.904L828.243,82.904z M829.345,86.188
		c-0.561,0.794-1.43,1.28-2.362,1.28c-0.835,0-1.597-0.395-1.62-1.644c-0.02-1.344,1.146-3.313,3.03-3.313
		c0.847,0,1.283,0.497,1.303,1.132c0,0.297-0.116,0.569-0.329,0.729c-0.348,0.396-1.82,0.794-2.667,0.934
		c-0.054,0.211-0.074,0.383-0.063,0.57c0,0.466,0.18,0.933,0.795,0.933c0.699,0,1.451-0.552,1.841-1.015h0.021L829.345,86.188
		L829.345,86.188z"/>
	<path fill="#F9F9F9" d="M830.928,82.01c0.144-0.037,0.317-0.046,0.471-0.046c0.318,0,0.445,0.109,0.445,0.264
		c0,0.162-0.129,0.227-0.201,0.26c0.036,0.081,0.127,0.208,0.208,0.317c0.083,0.137,0.109,0.165,0.138,0.199l-0.01,0.026
		c-0.234-0.009-0.309-0.062-0.38-0.118c-0.072-0.072-0.171-0.226-0.254-0.405c0.136-0.054,0.21-0.1,0.21-0.228
		s-0.109-0.189-0.254-0.183v0.77l0.17,0.046l-0.026,0.09h-0.543l0.017-0.09l0.127-0.033v-0.762h-0.144L830.928,82.01L830.928,82.01z
		 M831.407,81.62c-0.452,0-0.824,0.407-0.824,0.897c0,0.488,0.372,0.896,0.834,0.896c0.454,0,0.816-0.408,0.816-0.906
		c0-0.48-0.362-0.89-0.816-0.89L831.407,81.62L831.407,81.62z M831.425,81.401c0.6,0,1.08,0.481,1.08,1.116
		c0,0.634-0.48,1.125-1.098,1.125s-1.097-0.491-1.097-1.125c0-0.626,0.489-1.116,1.106-1.116H831.425L831.425,81.401z"/>
</g>
<g>
	<g>
		<g>
			<g>
				<path id="SVGID_1_" fill="#F9F9F9" d="M461.082,56.611c1.118-5.27,0.61-11.179-0.95-15.624
					c-1.734-4.929-3.871-7.992-6.208-10.617l-9.54,9.541L461.082,56.611"/>
			</g>
			<g>
				<g>
					<defs>
						<path id="SVGID_2_" d="M461.082,56.611c1.118-5.27,0.61-11.179-0.95-15.624c-1.734-4.929-3.871-7.992-6.208-10.617
							l-9.54,9.541L461.082,56.611"/>
					</defs>
					<use xlink:href="#SVGID_2_"  overflow="visible" fill="#F9F9F9"/>
					<clipPath id="SVGID_4_">
						<use xlink:href="#SVGID_2_"  overflow="visible"/>
					</clipPath>
					<rect x="430.231" y="30.341" clip-path="url(#SVGID_4_)" fill="#F9F9F9" width="46.983" height="26.247"/>
				</g>
			</g>
		</g>
	</g>
	<g>
		<g>
			<g>
				<path id="SVGID_3_" fill="#F9F9F9" d="M446.781,51.103c-0.688,3.642-0.996,8.747,0.438,13.837
					c1.148,4.078,3.048,8.285,6.735,12.398l9.535-9.537L446.781,51.103"/>
			</g>
			<g>
				<g>
					<defs>
						<path id="SVGID_6_" d="M446.781,51.103c-0.688,3.642-0.996,8.747,0.438,13.837c1.148,4.078,3.048,8.285,6.735,12.398
							l9.535-9.537L446.781,51.103"/>
					</defs>
					<use xlink:href="#SVGID_6_"  overflow="visible" fill="#F9F9F9"/>
					<clipPath id="SVGID_8_">
						<use xlink:href="#SVGID_6_"  overflow="visible"/>
					</clipPath>
					<rect x="430.231" y="51.078" clip-path="url(#SVGID_8_)" fill="#F9F9F9" width="46.983" height="26.241"/>
				</g>
			</g>
		</g>
	</g>
	<g>
		<g>
			<g>
				<path id="SVGID_5_" fill="#F9F9F9" d="M477.443,53.85l-10.245-10.242c0.08,0.405,0.155,0.809,0.226,1.218
					c1.259,7.682-0.167,16.042-3.784,22.823L477.443,53.85"/>
			</g>
			<g>
				<g>
					<defs>
						<path id="SVGID_9_" d="M477.443,53.85l-10.245-10.242c0.08,0.405,0.155,0.809,0.226,1.218
							c1.259,7.682-0.167,16.042-3.784,22.823L477.443,53.85"/>
					</defs>
					<use xlink:href="#SVGID_9_"  overflow="visible" fill="#F9F9F9"/>
					<clipPath id="SVGID_10_">
						<use xlink:href="#SVGID_9_"  overflow="visible"/>
					</clipPath>
					<rect x="477.017" y="43.58" clip-path="url(#SVGID_10_)" fill="#F9F9F9" width="0.445" height="24.049"/>
				</g>
			</g>
			<g>
				<g>
					<defs>
						<path id="SVGID_11_" d="M477.443,53.85l-10.245-10.242c0.08,0.405,0.155,0.809,0.226,1.218
							c1.259,7.682-0.167,16.042-3.784,22.823L477.443,53.85"/>
					</defs>
					<use xlink:href="#SVGID_11_"  overflow="visible" fill="#F9F9F9"/>
					<clipPath id="SVGID_12_">
						<use xlink:href="#SVGID_11_"  overflow="visible"/>
					</clipPath>
					<rect x="430.231" y="43.58" clip-path="url(#SVGID_12_)" fill="#F9F9F9" width="46.983" height="24.049"/>
				</g>
			</g>
		</g>
	</g>
	<g>
		<g>
			<g>
				<path id="SVGID_7_" fill="#F9F9F9" d="M440.06,59.062c-0.44-8.661,2.232-15.324,4.162-18.991l-13.776,13.78l10.228,10.229
					C440.362,62.469,440.148,60.797,440.06,59.062"/>
			</g>
			<g>
				<g>
					<defs>
						<path id="SVGID_13_" d="M440.06,59.062c-0.44-8.661,2.232-15.324,4.162-18.991l-13.776,13.78l10.228,10.229
							C440.362,62.469,440.148,60.797,440.06,59.062"/>
					</defs>
					<use xlink:href="#SVGID_13_"  overflow="visible" fill="#F9F9F9"/>
					<clipPath id="SVGID_14_">
						<use xlink:href="#SVGID_13_"  overflow="visible"/>
					</clipPath>
					<rect x="430.231" y="40.042" clip-path="url(#SVGID_14_)" fill="#F9F9F9" width="46.983" height="24.013"/>
				</g>
			</g>
		</g>
	</g>
	<polyline fill="#F9F9F9" points="502.077,46.254 505.428,46.254 505.428,60.539 502.916,60.539 497.805,53.474 497.805,60.539 
		494.477,60.539 494.477,46.254 496.968,46.254 502.077,53.324 502.077,46.254 	"/>
	<polyline fill="#F9F9F9" points="524.969,60.76 522.203,60.76 519.419,52.098 516.634,60.76 513.87,60.76 508.921,46.254 
		512.736,46.254 515.264,54.411 517.771,46.254 521.068,46.254 523.576,54.411 526.104,46.254 529.917,46.254 524.969,60.76 	"/>
	<polyline fill="#F9F9F9" points="549.748,46.254 553.097,46.254 553.097,60.539 550.585,60.539 545.472,53.474 545.472,60.539 
		542.147,60.539 542.147,46.254 544.639,46.254 549.748,53.324 549.748,46.254 	"/>
	<path fill="#F9F9F9" d="M564.967,54.938c0,1.691-0.859,3.064-1.889,3.064c-1.008,0-1.866-1.373-1.866-3.064
		s0.857-3.065,1.866-3.065C564.107,51.873,564.967,53.243,564.967,54.938z M568.568,60.527V49.347h-0.816l-1.498,1.283
		c-0.965-0.965-2.229-1.519-3.646-1.519c-2.976,0-5.369,2.589-5.369,5.827c0,3.234,2.394,5.822,5.369,5.822
		c1.416,0,2.681-0.574,3.646-1.514l1.498,1.281H568.568"/>
	<path fill="#F9F9F9" d="M578.687,60.76c-2.298,0-4.485-1.645-4.485-4.553v-4.24h-2.508v-0.812l5.514-5.738h0.814v3.942h4.201v2.607
		h-4.201v3.828c0,1.82,0.9,2.42,2.143,2.42c0.534,0,1.713-0.43,2.059-0.77v2.201C581.535,60.355,579.715,60.76,578.687,60.76"/>
	<path fill="#F9F9F9" d="M596.306,60.523l-1.715-1.479c-0.708,0.814-2.165,1.715-3.742,1.715c-3.346,0-4.676-2.037-4.676-4.24v-7.16
		h3.819v6.111c0,1.777,0.429,2.332,1.367,2.332c0.919,0,1.514-0.471,1.943-1.217v-7.224h3.82v11.166L596.306,60.523"/>
	<path fill="#F9F9F9" d="M605.89,60.539h-3.82v-11.19h0.818l1.521,1.306c0.75-0.795,2.294-1.542,3.646-1.542
		c0.447,0,0.833,0.086,1.047,0.211v6.103h-0.747l-2.465-2.463L605.89,60.539"/>
	<path fill="#F9F9F9" d="M620.542,54.938c0,1.691-0.858,3.064-1.887,3.064c-1.009,0-1.868-1.373-1.868-3.064
		s0.856-3.065,1.868-3.065C619.684,51.873,620.542,53.243,620.542,54.938z M624.141,60.527V49.347h-0.816l-1.498,1.283
		c-0.964-0.965-2.23-1.519-3.646-1.519c-2.976,0-5.367,2.589-5.367,5.827c0,3.234,2.392,5.822,5.367,5.822
		c1.415,0,2.682-0.574,3.646-1.514l1.498,1.281H624.141"/>
	<rect x="629.084" y="43.869" fill="#F9F9F9" width="3.823" height="16.67"/>
	<path fill="#F9F9F9" d="M635.083,46.59c0-1.332,1.004-2.335,2.291-2.335c1.272,0,2.275,1.004,2.275,2.335
		c0,1.352-1.003,2.349-2.275,2.349C636.087,48.941,635.083,47.944,635.083,46.59z M637.374,49.41c1.53,0,2.84-1.19,2.84-2.819
		c0-1.612-1.31-2.804-2.84-2.804c-1.547,0-2.857,1.19-2.857,2.804C634.517,48.22,635.827,49.41,637.374,49.41z M636.778,46.813
		h0.563l0.859,1.407h0.549l-0.919-1.428c0.476-0.06,0.841-0.313,0.841-0.894c0-0.638-0.382-0.92-1.149-0.92h-1.231v3.243h0.492
		L636.778,46.813L636.778,46.813z M636.778,46.397v-1.002h0.669c0.342,0,0.708,0.072,0.708,0.476c0,0.498-0.373,0.527-0.789,0.527
		H636.778z"/>
</g>
</svg>
