<?xml version="1.0" encoding="utf-8"?>
<!-- Generator: Adobe Illustrator 15.0.2, SVG Export Plug-In . SVG Version: 6.00 Build 0)  -->
<!DOCTYPE svg PUBLIC "-//W3C//DTD SVG 1.1//EN" "http://www.w3.org/Graphics/SVG/1.1/DTD/svg11.dtd">
<svg version="1.1" id="Background" xmlns="http://www.w3.org/2000/svg" xmlns:xlink="http://www.w3.org/1999/xlink" x="0px" y="0px"
	 width="2520.242px" height="335.729px" viewBox="0 0 2520.242 335.729" enable-background="new 0 0 2520.242 335.729"
	 xml:space="preserve">
<g>
	<g>
		<defs>
			<path id="SVGID_1_" d="M981.688,78.709c22.875,1.295,74.135,1.356,126.514,0.877c53.814-0.493,108.812-1.559,135.416-2.445
				c52.5-1.75,92.75-7,99.75-18.375s7.875-20.125,7.875-20.125s142.625-0.875,148.75-0.875s16.625,6.125,17.5,10.5
				s7.875,10.5,14.875,11.375s41.125,2.625,44.625-0.875s8.75-20.125,8.75-25.375s3.5-5.25,7-5.25s170.625-7,170.625-7
				s26.25,1.75,29.75,5.25s7.875,8.75,7.875,8.75s5.25-7,7.875-6.125s7,7.875,7,7.875s9.625-4.375,13.125-4.375
				s20.125,2.625,24.5,0.875s3.5-12.25,3.5-14.875s9.625-5.25,12.25-3.5s2.625,14.875,4.375,17.5s26.25,10.5,33.25,9.625
				s33.25-5.25,56-2.625s75.25,2.625,101.5-1.75s77-16.625,107.625-21s82.25,6.125,91.875,7s53.375-11.375,68.25-17.5
				s44.625-11.375,84.875,2.625s42.875,4.375,51.625,1.75s35-10.5,51.625-10.5c0,0.875,0,335.589,0,335.589h-1414.04L981.688,78.709
				z"/>
		</defs>
		<clipPath id="SVGID_2_">
			<use xlink:href="#SVGID_1_"  overflow="visible"/>
		</clipPath>
		<path opacity="0.15" clip-path="url(#SVGID_2_)" fill="#606049" d="M1495.035,38.641c0,0,1.166,10.504,2.916,12.834
			c1.75,2.332-9.33-8.752-8.166-4.668c1.166,4.084,7,12.25,12.25,14.584s11.666,3.5,11.666,3.5l-4.084-5.834c0,0,3.5-2.916,7,0.584
			s10.5,3.5,14,3.5s7.584,0.584,9.334,0s7.582,1.168,1.166-2.916s-24.5-21.584-24.5-21.584l-8.166-4.666l-6.416-0.584
			L1495.035,38.641z"/>
		<path opacity="0.15" clip-path="url(#SVGID_2_)" fill="#606049" d="M1766.43,13.119c0,0,10.496,11.666,14.582,13.416
			c4.084,1.75-10.5-2.916-13.416-3.5c-2.916-0.586-5.25,2.33-1.75,4.664c3.5,2.336,19.834,10.5,19.834,10.5s-2.332-4.08-5.25-6.414
			c-2.918-2.336,8.162,0,11.082,1.75c2.918,1.75,9.918,2.914,11.668,2.914s-2.332-1.746-7-5.83s-8.75-8.17-8.75-8.17
			s10.5,7.004,11.666,2.92s-4.67-12.838-7.584-13.42c-2.916-0.58-7.582-2.33-9.916-2.33S1766.43,13.119,1766.43,13.119z"/>
		<path opacity="0.15" clip-path="url(#SVGID_2_)" fill="#606049" d="M1866.621,10.637c0,0-1.172,13.42,3.496,19.254
			s-4.662,4.082-3.496,5.832c1.164,1.75,11.719,5.922,17.934,6.855c8.75,1.312,21.438-0.584,17.938-1.75s-15.896-4.521-17.062-7.438
			s-4.229-6.418-4.229-8.168s-2.33-11.666-2.33-11.666L1866.621,10.637z"/>
		<path opacity="0.15" clip-path="url(#SVGID_2_)" fill="#606049" d="M1808.723,27.262c0,0,2.916,11.666,6.416,12.25
			c3.5,0.586,6.42-1.164,8.17-1.164s-2.92-5.248-5.836-6.416C1814.559,30.762,1810.473,24.928,1808.723,27.262z"/>
		<path opacity="0.07" clip-path="url(#SVGID_2_)" fill="#606049" d="M1721.217,22.307c4.084,1.166,3.496,4.668,4.666,7
			c1.168,2.33,1.164,4.08,3.5,4.666c2.334,0.584,0.588-7.582,2.918-6.416c2.332,1.166,8.75,11.084,7,10.5s-5.838-4.666-6.418-1.75
			c-0.582,2.916-1.75,6.416-5.25,2.916S1713.051,19.975,1721.217,22.307z"/>
		<path opacity="0.07" clip-path="url(#SVGID_2_)" fill="#606049" d="M1738.133,19.121c3.23,1.076,4.08,4.08,7,8.164
			c2.918,4.086,9.338,8.754,6.418,9.336C1748.633,37.201,1729.383,16.205,1738.133,19.121z"/>
		<path opacity="0.07" clip-path="url(#SVGID_2_)" fill="#606049" d="M1753.285,15.904c1.887,2.516,9.33,17.5,12.83,19.834
			c3.5,2.336-1.746,1.754-4.08,0.586c-2.336-1.17-11.67-14.59-12.836-20.42C1748.035,10.074,1749.785,11.234,1753.285,15.904z"/>
		<path opacity="0.15" clip-path="url(#SVGID_2_)" fill="#606049" d="M2183.24,10.412c0,0,3.189,1.838,9.607,5.338
			c6.42,3.5,16.352,1.498,18.688,2.666c2.334,1.17,14.113,2.037,17.613,3.203s-2.664,0.584-7.328,0.584
			c-4.666,0-5.248,2.332-2.332,3.5c2.916,1.17,37.918,4.67,42,4.67s9.916-4.082,4.666-5.25c-5.25-1.17-39.889-11.154-50.35-13.645
			C2204.594,8.809,2193.385,5.072,2183.24,10.412z"/>
	</g>
	<path opacity="0.4" fill="#B3966D" d="M0.086,99.195c3.331-4.058,23.731-3.722,27.231-3.722s170.625-7,170.625-7
		s26.25,1.75,29.75,5.25s7.875,8.75,7.875,8.75s5.25-7,7.875-6.125s7,7.875,7,7.875s9.625-4.375,13.125-4.375
		s20.125,2.625,24.5,0.875s8.45,0.448,10.352-1.361c1.772-1.687,7.646-0.721,9.773,0.486c2.744,1.557,26.25,10.5,33.25,9.625
		s33.25-5.25,56-2.625s75.25,2.625,101.5-1.75s77-16.625,107.625-21s82.25,6.125,91.875,7s53.375-11.375,68.25-17.5
		s44.625-11.375,84.875,2.625s42.875,4.375,51.625,1.75s35-10.5,51.625-10.5c0,0.004,0.01,0.024,0.018,0.037
		c30.584,1.442,98.188,6.693,155.365,8.155c55.529,1.42,109.275,2.28,133.417,1.476c52.5-1.75,92.75-7,99.75-18.375
		s7.875-20.125,7.875-20.125s142.625-0.875,148.75-0.875s16.625,6.125,17.5,10.5s7.875,10.5,14.875,11.375
		s41.125,2.625,44.625-0.875s8.75-20.125,8.75-25.375s3.5-5.25,7-5.25s170.625-7,170.625-7s26.25,1.75,29.75,5.25
		s7.875,8.75,7.875,8.75s5.25-7,7.875-6.125s7,7.875,7,7.875s9.625-4.375,13.125-4.375s20.125,2.625,24.5,0.875
		s3.5-12.25,3.5-14.875s9.625-5.25,12.25-3.5s2.625,14.875,4.375,17.5s26.25,10.5,33.25,9.625s33.25-5.25,56-2.625
		s75.25,2.625,101.5-1.75s77-16.625,107.625-21s82.25,6.125,91.875,7s53.375-11.375,68.25-17.5s44.625-11.375,84.875,2.625
		s42.875,4.375,51.625,1.75s35-10.5,51.625-10.5c0,0.875,0,335.589,0,335.589H0V128.072L0.086,99.195z"/>
	<g>
		<defs>
			<path id="SVGID_3_" d="M11.567,126.098c3.5-3.5,8.75-20.125,8.75-25.375s3.5-5.25,7-5.25s170.625-7,170.625-7
				s26.25,1.75,29.75,5.25s7.875,8.75,7.875,8.75s5.25-7,7.875-6.125s7,7.875,7,7.875s9.625-4.375,13.125-4.375
				s20.125,2.625,24.5,0.875s8.102,3.097,8.102,0.472s3.458-4.667,6.083-2.917s6.651,2.172,9.177,3.245
				c2.904,1.233,23.013,8.825,30.013,7.95s33.25-5.25,56-2.625s75.25,2.625,101.5-1.75s77-16.625,107.625-21s82.25,6.125,91.875,7
				s53.375-11.375,68.25-17.5s44.625-11.375,84.875,2.625s42.875,4.375,51.625,1.75s35-10.5,51.625-10.5
				c0,0.875,0,268.256,0,268.256"/>
		</defs>
		<clipPath id="SVGID_4_">
			<use xlink:href="#SVGID_3_"  overflow="visible"/>
		</clipPath>
		<path opacity="0.15" clip-path="url(#SVGID_4_)" fill="#606049" d="M201.005,80.452c0,0,10.496,11.666,14.582,13.416
			c4.084,1.75-10.5-2.916-13.416-3.5c-2.916-0.586-5.25,2.33-1.75,4.664c3.5,2.336,19.834,10.5,19.834,10.5s-2.332-4.08-5.25-6.414
			c-2.918-2.336,8.162,0,11.082,1.75c2.918,1.75,9.918,2.914,11.668,2.914s-2.332-1.746-7-5.83s-8.75-8.17-8.75-8.17
			s10.5,7.004,11.666,2.92s-4.67-12.838-7.584-13.42c-2.916-0.58-7.582-2.33-9.916-2.33S201.005,80.452,201.005,80.452z"/>
		<path opacity="0.15" clip-path="url(#SVGID_4_)" fill="#606049" d="M299.946,79.386c0,0-1.172,13.42,3.496,19.254
			s-4.662,4.082-3.496,5.832c1.164,1.75,11.719,5.922,17.934,6.855c8.75,1.312,21.438-0.584,17.938-1.75s-15.896-4.521-17.062-7.438
			s-4.229-6.418-4.229-8.168s-2.33-11.666-2.33-11.666L299.946,79.386z"/>
		<path opacity="0.15" clip-path="url(#SVGID_4_)" fill="#606049" d="M243.298,94.594c0,0,2.916,11.666,6.416,12.25
			c3.5,0.586,6.42-1.164,8.17-1.164s-2.92-5.248-5.836-6.416C249.134,98.094,245.048,92.26,243.298,94.594z"/>
		<path opacity="0.07" clip-path="url(#SVGID_4_)" fill="#606049" d="M155.792,89.639c4.084,1.166,3.496,4.668,4.666,7
			c1.168,2.33,1.164,4.08,3.5,4.666c2.334,0.584,0.588-7.582,2.918-6.416c2.332,1.166,8.75,11.084,7,10.5s-5.838-4.666-6.418-1.75
			c-0.582,2.916-1.75,6.416-5.25,2.916S147.626,87.307,155.792,89.639z"/>
		<path opacity="0.07" clip-path="url(#SVGID_4_)" fill="#606049" d="M172.708,86.454c3.23,1.076,4.08,4.08,7,8.164
			c2.918,4.086,9.338,8.754,6.418,9.336C183.208,104.534,163.958,83.538,172.708,86.454z"/>
		<path opacity="0.07" clip-path="url(#SVGID_4_)" fill="#606049" d="M187.86,83.237c1.887,2.516,9.33,17.5,12.83,19.834
			c3.5,2.336-1.746,1.754-4.08,0.586c-2.336-1.17-11.67-14.59-12.836-20.42C182.61,77.407,184.36,78.567,187.86,83.237z"/>
		<path opacity="0.15" clip-path="url(#SVGID_4_)" fill="#606049" d="M617.815,77.745c0,0,3.189,1.838,9.607,5.338
			c6.42,3.5,16.352,1.498,18.688,2.666c2.334,1.17,14.113,2.037,17.613,3.203s-2.664,0.584-7.328,0.584
			c-4.666,0-5.248,2.332-2.332,3.5c2.916,1.17,37.918,4.67,42,4.67s9.916-4.082,4.666-5.25c-5.25-1.17-39.889-11.154-50.35-13.645
			C639.169,76.141,627.96,72.405,617.815,77.745z"/>
	</g>
</g>
</svg>
