<?xml version="1.0" encoding="utf-8"?>
<!-- Generator: Adobe Illustrator 15.1.0, SVG Export Plug-In  -->
<!DOCTYPE svg PUBLIC "-//W3C//DTD SVG 1.1//EN" "http://www.w3.org/Graphics/SVG/1.1/DTD/svg11.dtd" [
	<!ENTITY ns_flows "http://ns.adobe.com/Flows/1.0/">
]>
<svg version="1.1"
	 xmlns="http://www.w3.org/2000/svg" xmlns:xlink="http://www.w3.org/1999/xlink" xmlns:a="http://ns.adobe.com/AdobeSVGViewerExtensions/3.0/"
	 x="0px" y="0px" width="48px" height="39px" viewBox="-2.759 -1.788 48 39"
	 overflow="visible" enable-background="new -2.759 -1.788 48 39" xml:space="preserve">
<defs>
</defs>
<path fill="#6D736D" d="M16.176,33.227l0.987-0.149l1.032-1.42l0.888-1.859l-0.465-1.131l-1.282-1.216l-0.882,0.21l-0.489,0.066
	l-1.387,0.816l-1.189,0.09l-0.728-0.021l-0.994,0.124l-0.702-0.085l-0.678,0.168l-0.679,0.386L9.351,30.39l0.133,0.438l0.822,1.065
	c0,0,1.09,0.719,1.132,0.767c0.042,0.044,0.711,0.328,0.711,0.328l1.688,0.038l0.2,0.047l0.25,0.018L16.176,33.227z"/>
<path fill="#6D736D" d="M38.283,0.317c0.08,0.714-0.936,0.802-0.935,1.472C38.815,1.404,40.869,0.148,42.75,0
	c-0.126,1.063-2.092,1.069-2.328,2.07c1.296-0.328,2.69-0.826,3.783-0.798c-0.534,1.413-2.993,1.452-4.012,2.415
	c1.28,0.257,3.183-0.568,4.542-0.448c-0.802,1.285-3.275,1.613-5.159,2.28c1.471,0.533,3.832-0.479,5.255,0.137
	c-1.119,0.982-3.475,1.122-5.119,1.604c1.048,0.612,2.836-0.065,3.986,0.368c-0.541,0.809-2.388,1.09-3.539,1.288
	c0.036,0.546,0.561,0.239,0.713,0.585c-0.396,0.529-1.056,0.908-1.902,1.178c-0.906,1.318-2.075,2.482-3.105,3.725l-1.526,1.745
	l-5.028,12.241c0.689,0.176,0.574,1.426,0.005,1.665c0.09,0.208,0.462,0.538-0.069,0.573c0.167,0.31,0.831,0.634,0.251,0.933
	c0.197,0.42,0.706,0.292,0.724,1.025c0.521,0.005,0.92,0.221,1.258,0.548c-0.587,0.143-1.907-0.667-2.832,0.208
	c0.266,0.601,0.602,1.083,1.191,1.122c-0.184,0.211-0.9,0.052-1.147-0.135c-0.271,0.415-1.135,0.33-1.608,0.211
	c-1.929,0.654-4.277,0.76-5.972,0.501c-1.12,0.273-1.718-0.36-2.434-0.786c-1.336-0.109-2.755-0.398-3.336-1.475
	c-0.07-0.127-0.712-1.058-1.268-1.567c-0.467-0.424,2.041,0.646,2.557,0.476c0.25,0.14-0.062-0.21,0.284-0.236
	c0.312,0.311-0.172-0.384,0.192-0.327c0.035-0.009,0.185-0.071,0.218-0.08c0.259-0.171-0.359-0.18,0.044-0.324
	c-0.141-0.266-0.557-0.283-0.352-0.686c0.07-0.018,0.003-0.278,0.072-0.296c0.381-0.114,0.311-0.089,0.185-0.338
	c0.472-0.123,0.133-0.305-0.072-0.183c-0.328-0.077-0.349-0.153-0.763,0.01c-0.037,0.01-0.27-0.116-0.305-0.106
	c-0.02-0.379,0.569-0.62,0.252-0.943c-0.316-0.007-0.401,0.227-0.662,0.252c-0.014-0.378,0.442-0.805,0.108-0.628
	c3.686-2.704,4.688-8.254,4.934-12.991c0.046-0.883-0.049-1.347,0.223-2.057c0.379-0.992,1.081-1.248,2.092-2.121L38.283,0.317z"/>
<path fill="#6D736D" d="M0.978,30.365c0.643-0.687,2.037-1.753,2.826-1.873c2.882-0.718,5.202-0.245,7.362,0.124
	c-0.557,0.204-0.927,0.517-1.203,0.881c-0.158,0.144-0.259,0.319-0.303,0.526c-0.099,0.281,0.108,1.049,0.335,1.242
	c0.033,0.144,0.107,0.215,0.187,0.283c0.072-0.044,0.093-0.12,0.045-0.235c-0.009-0.034-0.018-0.068-0.028-0.104
	c0.138-0.037,0.277-0.075,0.416-0.112c0.993,0.742,2.695,0.941,3.286,1.89c-0.002,0.145-0.138,0.212-0.126,0.367
	c-1.302,0.236-2.545,0.33-3.04,1.485c-0.355-0.043-0.649-0.19-0.892-0.424c0.027,0.657-0.114,1.218-0.438,1.672
	c-0.882-0.139-1.119-1.4-1.754-1.969c0.137,1.009,0.441,2.119-0.419,2.556c-0.59-0.239-0.696-1.325-1.149-1.799
	C5.986,35.488,6,36.168,5.409,36.497c-0.848-0.845-1.32-2.846-1.89-3.708c0.072,1.12,0.58,2.493-0.676,2.849
	c-0.574-0.293-0.549-1.826-0.82-2.222c-0.241,0.414-0.335,0.915-0.914,1.136c-1.028-0.924-0.002-2.534,0.044-3.121
	c-0.346,0.09-0.752,0.585-0.918,0.782c-0.253-0.272-0.287-0.284-0.173-0.71C0.062,31.502,0.729,30.632,0.978,30.365z"/>
<path fill="#6D736D" d="M29.471,30.362c0.807,0.816,4.269,1.246,4.269,1.246c0.935,0.19,3.337,0.059,3.386,1.082
	c0.043,0.888-0.735,4.942-3.153,4.036c-2.418-0.908-7.591-3.219-4.395-4.97c-0.2-0.02-0.243-0.662-0.615-1.128
	C28.963,30.626,29.412,30.302,29.471,30.362z"/>
</svg>
