<?xml version="1.0" encoding="utf-8"?>
<!-- Generator: Adobe Illustrator 15.0.2, SVG Export Plug-In . SVG Version: 6.00 Build 0)  -->
<!DOCTYPE svg PUBLIC "-//W3C//DTD SVG 1.1//EN" "http://www.w3.org/Graphics/SVG/1.1/DTD/svg11.dtd">
<svg version="1.1" xmlns="http://www.w3.org/2000/svg" xmlns:xlink="http://www.w3.org/1999/xlink" x="0px" y="0px"
	 width="1835.361px" height="346.438px" viewBox="0 0 1835.361 346.438" enable-background="new 0 0 1835.361 346.438"
	 xml:space="preserve">
<g id="hill">
</g>
<g id="school">
	<g>
		<ellipse fill="#5F7D43" cx="482.037" cy="169.75" rx="20.125" ry="34.125"/>
		<ellipse fill="#5F7D43" cx="449.662" cy="182" rx="14" ry="23.625"/>
		<ellipse fill="#5F7D43" cx="503.912" cy="178.5" rx="12.25" ry="21.875"/>
		<ellipse fill="#5F7D43" cx="689.412" cy="196.875" rx="12.25" ry="21"/>
		<ellipse fill="#5F7D43" cx="706.912" cy="189.875" rx="12.25" ry="28"/>
		<ellipse fill="#5F7D43" cx="144.287" cy="168" rx="14.875" ry="20.125"/>
		<ellipse fill="#5F7D43" cx="170.537" cy="182" rx="16.625" ry="28.875"/>
		<ellipse fill="#5F7D43" cx="187.162" cy="165.375" rx="14.875" ry="19.195"/>
		<circle fill="#FFFFFF" cx="777.787" cy="163.188" r="25.396"/>
		<rect x="752.412" y="160.125" fill="#F3732A" width="50.75" height="70"/>
		<rect x="729.662" y="184.625" fill="#F3732A" width="95.375" height="57.75"/>
		<rect x="729.225" y="175.438" fill="#606049" width="23.625" height="10.062"/>
		<rect x="736.225" y="192.5" fill="#606049" width="5.301" height="7.438"/>
		<rect x="747.031" y="192.5" fill="#606049" width="5.299" height="7.438"/>
		<rect x="757.834" y="192.5" fill="#606049" width="5.303" height="7.438"/>
		<rect x="768.641" y="192.5" fill="#606049" width="5.301" height="7.438"/>
		<rect x="779.445" y="192.5" fill="#606049" width="5.301" height="7.438"/>
		<rect x="790.25" y="192.5" fill="#606049" width="5.303" height="7.438"/>
		<rect x="757.834" y="175.438" fill="#606049" width="5.303" height="7.438"/>
		<rect x="768.641" y="175.438" fill="#606049" width="5.301" height="7.438"/>
		<rect x="779.445" y="175.438" fill="#606049" width="5.301" height="7.438"/>
		<rect x="790.25" y="175.438" fill="#606049" width="5.303" height="7.438"/>
		<rect x="801.057" y="192.5" fill="#606049" width="5.299" height="7.438"/>
		<rect x="811.861" y="192.5" fill="#606049" width="5.301" height="7.438"/>
		<rect x="736.225" y="207.375" fill="#606049" width="5.301" height="7.438"/>
		<rect x="747.031" y="207.375" fill="#606049" width="5.299" height="7.438"/>
		<rect x="757.834" y="207.375" fill="#606049" width="5.303" height="7.438"/>
		<rect x="769.756" y="207.375" fill="#606049" width="14.514" height="7.438"/>
		<rect x="779.445" y="207.375" fill="#606049" width="5.301" height="7.438"/>
		<rect x="790.25" y="207.375" fill="#606049" width="5.303" height="7.438"/>
		<rect x="801.057" y="207.375" fill="#606049" width="5.299" height="7.438"/>
		<rect x="811.861" y="207.375" fill="#606049" width="5.301" height="7.438"/>
		<rect x="803.162" y="175.438" fill="#606049" width="23.625" height="10.062"/>
		<ellipse fill="#5F7D43" cx="1102.409" cy="225.457" rx="16.333" ry="31.5"/>
		<ellipse fill="#5F7D43" cx="1048.742" cy="224.291" rx="39.666" ry="30.332"/>
		<path fill="#A7BF61" d="M1835.361,346.043c0,0-418.332-124.057-606.836-130.557c-114.424-3.947-260.006,35.75-341.258,16.25
			c-51.447-12.348-334.756-55.252-494.008-58.502C234.006,169.984,0,169.984,0,169.984v176.252L1835.361,346.043z"/>
		<path opacity="0.2" fill="#606049" d="M1801.361,346.043l33.92-0.075c0,0-418.252-123.981-606.756-130.481
			c-114.424-3.947-260.006,35.75-341.258,16.25c-51.447-12.348-334.756-55.252-494.008-58.502C234.006,169.984,0,169.984,0,169.984
			v35.725c0,0,309.361-14,469.361-4s384,44,400,48s-52,20-32,20s218-30,306-34s354,42,452,66S1801.361,346.043,1801.361,346.043z"/>
		<ellipse fill="#5F7D43" cx="79.242" cy="150.791" rx="26.834" ry="52.5"/>
		<ellipse fill="#5F7D43" cx="114.242" cy="167.123" rx="22.166" ry="31.5"/>
		<ellipse fill="#5F7D43" cx="1133.908" cy="206.791" rx="17.5" ry="33.832"/>
		<circle fill="#5F7D43" cx="1200.408" cy="212.623" r="14"/>
		<ellipse opacity="0.5" fill="#87AA5A" cx="81.25" cy="136.184" rx="21.154" ry="39.002"/>
		<ellipse opacity="0.5" fill="#87AA5A" cx="122.233" cy="158" rx="14.542" ry="25.119"/>
		<path opacity="0.5" fill="#87AA5A" d="M1150.828,196.342c0,13.873-6.512,25.121-14.543,25.121s-14.543-11.248-14.543-25.121
			c0-13.871,6.512-25.119,14.543-25.119S1150.828,182.471,1150.828,196.342z"/>
		<path opacity="0.5" fill="#87AA5A" d="M1082.076,209.561c0,8.031-12.133,14.543-27.098,14.543
			c-14.973,0-27.105-6.512-27.105-14.543c0-8.029,12.133-14.543,27.105-14.543C1069.943,195.018,1082.076,201.531,1082.076,209.561z
			"/>
		<ellipse opacity="0.5" fill="#87AA5A" cx="1106.906" cy="206.918" rx="9.623" ry="15.863"/>
		<ellipse opacity="0.5" fill="#87AA5A" cx="1203.42" cy="207.578" rx="9.623" ry="9.916"/>
		<polygon fill="#C25427" points="624.662,125.26 608.264,115.633 551.162,115.633 551.162,192.787 624.662,192.787 		"/>
		<path fill="#606049" d="M631.08,128.037h-23.863c0,0-14.113-11.4-14.113-11.139c0,0.584-14.371,11.139-14.371,11.139h-69.57
			l23.332-30.332h68.836L631.08,128.037z"/>
		<polygon fill="#F3732A" points="554.08,126.871 533.08,102.955 513.244,126.871 513.244,192.787 554.08,192.787 		"/>
		<rect x="558.41" y="133.43" fill="#606049" width="3.994" height="11.619"/>
		<rect x="543.514" y="133.43" fill="#606049" width="3.994" height="11.619"/>
		<rect x="535.412" y="133.43" fill="#606049" width="3.994" height="11.619"/>
		<rect x="527.311" y="133.43" fill="#606049" width="3.992" height="11.619"/>
		<rect x="519.207" y="133.43" fill="#606049" width="3.994" height="11.619"/>
		<rect x="543.514" y="153.293" fill="#606049" width="3.994" height="11.617"/>
		<rect x="535.412" y="153.293" fill="#606049" width="3.994" height="11.617"/>
		<rect x="527.311" y="153.293" fill="#606049" width="3.992" height="11.617"/>
		<rect x="519.207" y="153.293" fill="#606049" width="3.994" height="11.617"/>
		<rect x="543.514" y="173.939" fill="#606049" width="3.994" height="11.617"/>
		<rect x="535.412" y="173.939" fill="#606049" width="3.994" height="11.617"/>
		<rect x="527.311" y="173.939" fill="#606049" width="3.992" height="11.617"/>
		<rect x="519.207" y="173.939" fill="#606049" width="3.994" height="11.617"/>
		<rect x="566.248" y="133.43" fill="#606049" width="3.994" height="11.619"/>
		<rect x="583.5" y="133.43" fill="#606049" width="3.994" height="11.619"/>
		<rect x="591.338" y="133.43" fill="#606049" width="3.994" height="11.619"/>
		<rect x="599.18" y="133.43" fill="#606049" width="3.994" height="11.619"/>
		<rect x="583.5" y="154.076" fill="#606049" width="3.994" height="11.619"/>
		<rect x="591.338" y="154.076" fill="#606049" width="3.994" height="11.619"/>
		<rect x="599.18" y="154.076" fill="#606049" width="3.994" height="11.619"/>
		<rect x="583.5" y="174.199" fill="#606049" width="3.994" height="11.619"/>
		<rect x="591.338" y="174.199" fill="#606049" width="3.994" height="18.938"/>
		<rect x="599.18" y="174.199" fill="#606049" width="3.994" height="11.619"/>
		<rect x="608.85" y="133.43" fill="#606049" width="3.992" height="11.619"/>
		<rect x="616.688" y="133.43" fill="#606049" width="3.994" height="11.619"/>
		<rect x="558.41" y="153.293" fill="#606049" width="3.994" height="11.617"/>
		<rect x="566.248" y="153.293" fill="#606049" width="3.994" height="11.617"/>
		<rect x="608.85" y="153.293" fill="#606049" width="3.992" height="11.617"/>
		<rect x="616.688" y="153.293" fill="#606049" width="3.994" height="11.617"/>
		<rect x="558.41" y="173.939" fill="#606049" width="3.994" height="11.617"/>
		<rect x="566.248" y="173.939" fill="#606049" width="3.994" height="11.617"/>
		<rect x="608.85" y="173.939" fill="#606049" width="3.992" height="11.617"/>
		<rect x="616.688" y="173.939" fill="#606049" width="3.994" height="11.617"/>
		<rect x="573.242" y="128.135" fill="#F3732A" width="6.012" height="64.553"/>
		<rect x="578.99" y="190.074" fill="#E8E8E8" width="33.715" height="2.875"/>
		<rect x="579.252" y="187.982" fill="#E8E8E8" width="25.875" height="2.875"/>
		<rect x="267.662" y="99.312" fill="#F3732A" width="157.5" height="101.062"/>
		<polygon fill="#F3732A" points="376.162,114.188 316.662,114.188 316.662,35.438 346.938,7.873 376.162,35.438 		"/>
		<path fill="#FFFFFF" d="M328.037,199.5c0,0-23.15,55.639,29.75,81.375c64.75,31.5,185.5,7.875,228.375,12.25
			c44.811,4.574,103.25,28,103.25,52.5c0-0.348-0.05,0.393,0.282,0.42c4,0.334,14.307,0.162,22.667,0.334c6.382,0.132,22,0,24.333,0
			c1.667,0,1.718-0.754,1.718-0.754s-22.129-41.787-69.125-53.375c-63.875-15.75-182.875,0.875-226.625-4.375
			c-46.984-5.639-92.385-24.059-94.484-55.537c-1.252-18.748,4.359-31.963,4.359-31.963L328.037,199.5z"/>
		<rect x="265.475" y="67.812" fill="#606049" width="51.188" height="31.938"/>
		<rect x="375.725" y="67.812" fill="#606049" width="51.188" height="31.938"/>
		<polygon fill="#606049" points="314.475,38.5 346.938,7.873 379.225,39.375 382.287,35.875 346.85,0 310.537,35 		"/>
		<circle fill="#FFFFFF" cx="345.975" cy="45.062" r="10.938"/>
		<rect x="317.975" y="193.375" fill="#FFFFFF" width="54.688" height="7.875"/>
		<circle fill="#606049" cx="345.318" cy="161.219" r="15.969"/>
		<rect x="329.35" y="161.438" fill="#606049" width="31.5" height="31.5"/>
		<circle fill="#606049" cx="310.933" cy="151.855" r="4.854"/>
		<rect x="306.078" y="151.922" fill="#606049" width="9.576" height="31.391"/>
		<rect x="306.078" y="102.922" fill="#606049" width="9.576" height="23.953"/>
		<rect x="292.516" y="102.922" fill="#606049" width="9.576" height="23.953"/>
		<rect x="278.516" y="102.922" fill="#606049" width="9.576" height="23.953"/>
		<rect x="404.516" y="102.922" fill="#606049" width="9.576" height="23.953"/>
		<rect x="390.953" y="102.922" fill="#606049" width="9.576" height="23.953"/>
		<rect x="376.953" y="102.922" fill="#606049" width="9.576" height="23.953"/>
		<rect x="348.078" y="102.922" fill="#606049" width="9.576" height="23.953"/>
		<rect x="334.078" y="102.922" fill="#606049" width="9.576" height="23.953"/>
		<circle fill="#606049" cx="297.37" cy="151.855" r="4.854"/>
		<rect x="292.516" y="151.922" fill="#606049" width="9.576" height="31.391"/>
		<circle fill="#606049" cx="283.37" cy="151.855" r="4.854"/>
		<rect x="278.516" y="151.922" fill="#606049" width="9.576" height="31.391"/>
		<circle fill="#606049" cx="408.933" cy="151.855" r="4.854"/>
		<rect x="404.078" y="151.922" fill="#606049" width="9.576" height="31.391"/>
		<circle fill="#606049" cx="395.37" cy="151.855" r="4.854"/>
		<rect x="390.516" y="151.922" fill="#606049" width="9.576" height="31.391"/>
		<circle fill="#606049" cx="381.37" cy="151.855" r="4.854"/>
		<rect x="376.516" y="151.922" fill="#606049" width="9.576" height="31.391"/>
		<g>
			<ellipse fill="none" stroke="#606049" stroke-width="3.5" cx="505.225" cy="278.906" rx="7.438" ry="11.594"/>
			<ellipse fill="none" stroke="#606049" stroke-width="3.5" cx="539.35" cy="276.719" rx="7.438" ry="11.594"/>
			<polyline fill="none" stroke="#606049" stroke-width="3.5" points="505.225,278.906 512.225,257.688 532.787,255.938 
				539.35,274.75 520.537,276.938 531.475,258.125 			"/>
			<line fill="none" stroke="#606049" stroke-width="3.5" x1="520.537" y1="276.938" x2="512.225" y2="257.688"/>
			<ellipse fill="#606049" cx="512.225" cy="239.312" rx="4.156" ry="4.375"/>
			<polyline fill="#606049" points="527.537,262.938 535.85,256.375 534.975,251.125 518.787,239.75 506.975,256.812 
				510.475,258.562 517.475,250.25 524.912,254.188 520.537,263.375 520.1,276.5 			"/>
			<path fill="#606049" d="M518.787,240.625c0,0,2.188-4.812,7.438-3.5s6.562,7.875,3.062,11.812S518.787,240.625,518.787,240.625z"
				/>
		</g>
		<circle fill="#606049" cx="437.338" cy="199.361" r="2.434"/>
		<polygon fill="#606049" points="441.051,202.307 434.137,202.307 432.6,213.318 434.137,213.318 436.186,223.562 437.721,223.562 
			437.979,216.391 440.537,223.051 441.82,223.051 440.537,213.062 440.537,209.734 443.1,207.428 		"/>
		<circle fill="#606049" cx="334.039" cy="215.643" r="2.965"/>
		<polygon fill="#606049" points="329.514,219.232 337.943,219.232 339.814,232.658 337.943,232.658 335.443,245.145 
			333.57,245.145 333.26,236.404 330.137,244.52 328.576,244.52 330.137,232.346 330.137,228.285 327.016,225.477 		"/>
	</g>
</g>
</svg>
