<?xml version="1.0" encoding="utf-8"?>
<!-- Generator: Adobe Illustrator 15.0.2, SVG Export Plug-In . SVG Version: 6.00 Build 0)  -->
<!DOCTYPE svg PUBLIC "-//W3C//DTD SVG 1.1//EN" "http://www.w3.org/Graphics/SVG/1.1/DTD/svg11.dtd">
<svg version="1.1" id="Layer_1" xmlns="http://www.w3.org/2000/svg" xmlns:xlink="http://www.w3.org/1999/xlink" x="0px" y="0px"
	 width="622.344px" height="108.133px" viewBox="0 0 622.344 108.133" enable-background="new 0 0 622.344 108.133"
	 xml:space="preserve">
<g id="sky">
</g>
<g id="hills3">
</g>
<g id="hills1">
</g>
<g id="tractor">
</g>
<g id="hills">
</g>
<g id="foreground">
</g>
<g id="cows">
</g>
<g id="balloons">
</g>
<path fill="#00B6D2" d="M16.54,77.105c0,0.174-0.219,0.312-0.488,0.312l0,0c-0.268,0-0.487-0.144-0.487-0.312V55.531
	c0-0.176,0.219-0.313,0.486-0.313l0,0c0.27,0,0.488,0.142,0.488,0.313L16.54,77.105L16.54,77.105z"/>
<rect x="139.557" y="63.904" fill="#006796" width="33.896" height="1.095"/>
<circle fill="#606049" cx="62.359" cy="57.591" r="3.375"/>
<path fill="#606049" d="M67.234,64.811c0,1.521-1.369,2.75-3.062,2.75l0,0c-1.693,0-3.062-1.229-3.062-2.75v-3.278
	c0-1.521,1.369-2.75,3.062-2.75l0,0c1.693,0,3.062,1.229,3.062,2.75V64.811z"/>
<path fill="#00B6D2" d="M144.886,59.165c0,5.892-3.588,10.345-9.477,10.345c-5.889,0-24.418-6.938-18.771-8.611
	c9.842-2.916,11.697-12.393,17.586-12.393C140.113,48.505,144.886,53.279,144.886,59.165z"/>
<path fill="#006796" d="M44.077,86.411c-0.012,0.125-0.432,0.188-0.941,0.146l0,0c-0.504-0.045-0.912-0.183-0.9-0.31l4.605-16.112
	c0.008-0.125,0.428-0.191,0.939-0.146l0,0c0.506,0.043,0.912,0.181,0.902,0.306L44.077,86.411z"/>
<rect x="16.087" y="65.089" fill="#006796" width="3.826" height="2.321"/>
<circle fill="#006796" cx="42.586" cy="88.269" r="3.372"/>
<path fill="#00B6D2" d="M137.55,63.449c0,0-41.223-5.959-68.795-6.926c-0.705-0.023-0.025,3.479-0.734,3.461
	c-2.4-0.082-7.07,0.889-9.471,0.82c-0.631-0.02-0.508-1.972-1.135-1.982c-26.337-0.688-35.779,1.214-38.587,4.627
	c-1.951,2.373-0.201,6.898,1.828,10.078c3.729,0.229,13.016,4.062,15.934,4.313c7.014,0.625,13.793,0.125,20.699-1.138
	c14.025-2.562,26.543-8.646,41.121-8.559c3.537,0.021,22.252-0.521,29.873,2.674c5.688-0.936,9.268-1.547,9.268-1.547L137.55,63.449
	L137.55,63.449z"/>
<path fill="#006796" d="M98.411,68.154c-14.578-0.09-27.201,3.396-41.227,5.957c-6.906,1.259-17.316-1.928-24.33-2.553
	c-2.916-0.264-8.469,2.193-12.197,1.971c0.146,0.229,0.293,0.457,0.443,0.673c6.686,9.659,28.717,6.522,38.453,6.017
	c15.119-0.789,51.549-6.566,68.73-9.392C120.663,67.632,101.947,68.175,98.411,68.154z"/>
<path fill="#006796" d="M46.792,75.753c0.074,0.229-0.18,0.506-0.561,0.623l0,0c-0.377,0.116-0.742,0.024-0.812-0.196l-8.717-28.175
	c-0.074-0.229,0.18-0.507,0.561-0.625l0,0c0.377-0.117,0.742-0.027,0.812,0.198L46.792,75.753z"/>
<path fill="#006796" d="M57.712,73.497c0.072,0.228-0.18,0.505-0.561,0.621l0,0c-0.377,0.116-0.744,0.026-0.814-0.198L47.62,45.747
	c-0.072-0.228,0.182-0.508,0.559-0.625l0,0c0.379-0.116,0.746-0.026,0.814,0.198L57.712,73.497z"/>
<path fill="#00B6D2" d="M91.626,76.497c0,1.42-1.07,1.276-2.043,1.276l-51.967,1.293c-0.973,0-1.76-1.149-1.76-2.569l0,0
	c0-1.422,0.867-4.479,1.84-4.479l52.17,1.91C90.839,73.927,91.626,75.075,91.626,76.497L91.626,76.497z"/>
<path fill="#00B6D2" d="M80.329,47.156c0,1.42-1.07,1.278-2.043,1.278l-51.967,1.293c-0.973,0-1.76-1.151-1.76-2.571l0,0
	c0-1.421,0.867-4.479,1.84-4.479l52.17,1.908C79.542,44.585,80.329,45.736,80.329,47.156L80.329,47.156z"/>
<g>
	<polygon fill="#0079A3" points="620.725,103.945 554.389,103.945 554.389,32.645 620.725,32.645 602.59,68.295 	"/>
	<polygon fill="#006796" points="564.823,103.846 554.297,103.945 554.297,32.645 564.823,32.547 	"/>
	<polygon fill="#00516D" points="561.586,95.979 554.297,103.945 554.297,32.645 561.586,24.679 	"/>
	<rect x="172.175" y="24.679" fill="#0079A3" width="389.623" height="71.299"/>
</g>
<g>
	<path fill="#FFFFFF" d="M346.057,46.753c0.672-0.112,1.554-0.208,2.672-0.208c1.378,0,2.386,0.32,3.025,0.896
		c0.576,0.512,0.943,1.297,0.943,2.257c0,0.977-0.287,1.745-0.832,2.305c-0.754,0.784-1.938,1.185-3.299,1.185
		c-0.416,0-0.8-0.016-1.121-0.096v4.321h-1.392v-10.66H346.057z M347.45,51.955c0.303,0.08,0.688,0.112,1.151,0.112
		c1.683,0,2.705-0.833,2.705-2.289c0-1.44-1.022-2.129-2.545-2.129c-0.606,0-1.071,0.048-1.312,0.112V51.955L347.45,51.955z"/>
	<path fill="#FFFFFF" d="M354.264,52.083c0-0.913-0.016-1.697-0.063-2.417h1.231l0.064,1.537h0.047
		c0.354-1.041,1.217-1.697,2.162-1.697c0.145,0,0.256,0.016,0.383,0.032v1.328c-0.145-0.032-0.287-0.032-0.479-0.032
		c-0.992,0-1.697,0.736-1.89,1.792c-0.033,0.192-0.049,0.433-0.049,0.656v4.129h-1.408L354.264,52.083L354.264,52.083z"/>
	<path fill="#FFFFFF" d="M366.348,53.476c0,2.866-2,4.114-3.856,4.114c-2.08,0-3.713-1.537-3.713-3.985
		c0-2.577,1.713-4.098,3.842-4.098C364.844,49.506,366.348,51.123,366.348,53.476z M360.217,53.556c0,1.698,0.961,2.977,2.338,2.977
		c1.345,0,2.353-1.266,2.353-3.009c0-1.312-0.656-2.961-2.32-2.961C360.938,50.563,360.217,52.099,360.217,53.556z"/>
	<path fill="#FFFFFF" d="M368.553,49.666l1.521,4.338c0.256,0.721,0.465,1.36,0.625,2.001h0.049c0.176-0.642,0.398-1.28,0.654-2.001
		l1.506-4.338h1.473l-3.041,7.747h-1.344l-2.945-7.747H368.553z"/>
	<path fill="#FFFFFF" d="M377.274,47.49c0,0.479-0.337,0.864-0.896,0.864c-0.514,0-0.85-0.384-0.85-0.864
		c0-0.48,0.354-0.88,0.881-0.88C376.922,46.609,377.274,46.993,377.274,47.49z M375.708,57.413v-7.747h1.406v7.747H375.708z"/>
	<path fill="#FFFFFF" d="M386.124,46.049v9.364c0,0.688,0.031,1.472,0.063,2h-1.25l-0.062-1.345h-0.047
		c-0.416,0.865-1.346,1.521-2.609,1.521c-1.873,0-3.328-1.584-3.328-3.938c-0.018-2.577,1.601-4.146,3.474-4.146
		c1.201,0,1.983,0.56,2.338,1.168h0.031v-4.626L386.124,46.049L386.124,46.049z M384.731,52.82c0-0.176-0.019-0.417-0.062-0.592
		c-0.209-0.88-0.979-1.617-2.033-1.617c-1.455,0-2.319,1.28-2.319,2.977c0,1.569,0.784,2.865,2.289,2.865
		c0.942,0,1.809-0.641,2.063-1.682c0.047-0.191,0.062-0.383,0.062-0.607V52.82z"/>
	<path fill="#FFFFFF" d="M389.258,53.796c0.031,1.905,1.23,2.688,2.656,2.688c1.008,0,1.633-0.176,2.146-0.399l0.257,1.007
		c-0.496,0.227-1.361,0.496-2.595,0.496c-2.385,0-3.811-1.582-3.811-3.921c0-2.337,1.377-4.162,3.635-4.162
		c2.545,0,3.199,2.209,3.199,3.633c0,0.288-0.016,0.497-0.049,0.656h-5.439L389.258,53.796L389.258,53.796z M393.387,52.787
		c0.017-0.88-0.369-2.273-1.953-2.273c-1.438,0-2.049,1.297-2.159,2.273H393.387z"/>
	<path fill="#FFFFFF" d="M405.323,55.557c0,0.674,0.03,1.328,0.11,1.856h-1.266l-0.111-0.978h-0.047
		c-0.434,0.607-1.268,1.15-2.369,1.15c-1.567,0-2.368-1.104-2.368-2.225c0-1.872,1.663-2.896,4.657-2.88v-0.16
		c0-0.625-0.178-1.793-1.762-1.777c-0.736,0-1.488,0.208-2.031,0.576l-0.319-0.944c0.641-0.4,1.584-0.672,2.561-0.672
		c2.369,0,2.945,1.617,2.945,3.153V55.557L405.323,55.557z M403.961,53.46c-1.535-0.032-3.279,0.24-3.279,1.745
		c0,0.93,0.605,1.344,1.312,1.344c1.024,0,1.684-0.64,1.906-1.295c0.047-0.16,0.062-0.32,0.062-0.449V53.46L403.961,53.46z"/>
	<path fill="#FFFFFF" d="M410.793,55.989c0.432,0.256,1.168,0.544,1.871,0.544c1.01,0,1.488-0.497,1.488-1.152
		c0-0.673-0.398-1.024-1.425-1.409c-1.407-0.512-2.063-1.265-2.063-2.193c0-1.249,1.023-2.273,2.674-2.273
		c0.783,0,1.473,0.208,1.889,0.48l-0.336,1.024c-0.305-0.192-0.862-0.464-1.584-0.464c-0.832,0-1.28,0.48-1.28,1.056
		c0,0.641,0.448,0.929,1.457,1.329c1.327,0.496,2.032,1.168,2.032,2.321c0,1.377-1.071,2.336-2.881,2.336
		c-0.852,0-1.635-0.224-2.18-0.543L410.793,55.989z"/>
	<path fill="#FFFFFF" d="M423.803,55.284c0,0.815,0.017,1.521,0.062,2.128h-1.248l-0.08-1.264h-0.031
		c-0.354,0.623-1.186,1.438-2.562,1.438c-1.218,0-2.675-0.688-2.675-3.393v-4.53h1.41v4.275c0,1.473,0.463,2.481,1.729,2.481
		c0.942,0,1.602-0.655,1.854-1.297c0.08-0.19,0.129-0.447,0.129-0.72v-4.738h1.408L423.803,55.284L423.803,55.284z"/>
	<path fill="#FFFFFF" d="M426.137,46.049h1.392v4.866h0.032c0.496-0.864,1.394-1.409,2.642-1.409c1.938,0,3.281,1.601,3.281,3.938
		c0,2.771-1.761,4.146-3.488,4.146c-1.121,0-2.019-0.433-2.607-1.439h-0.032l-0.08,1.265h-1.199c0.031-0.528,0.063-1.312,0.063-2
		L426.137,46.049L426.137,46.049z M427.528,54.308c0,0.176,0.018,0.353,0.063,0.512c0.256,0.977,1.09,1.646,2.111,1.646
		c1.488,0,2.354-1.199,2.354-2.978c0-1.553-0.801-2.881-2.321-2.881c-0.943,0-1.84,0.672-2.129,1.729
		c-0.047,0.176-0.08,0.368-0.08,0.592L427.528,54.308L427.528,54.308z"/>
	<path fill="#FFFFFF" d="M435.049,55.989c0.433,0.256,1.168,0.544,1.871,0.544c1.01,0,1.488-0.497,1.488-1.152
		c0-0.673-0.398-1.024-1.426-1.409c-1.408-0.512-2.062-1.265-2.062-2.193c0-1.249,1.023-2.273,2.674-2.273
		c0.783,0,1.474,0.208,1.89,0.48l-0.336,1.024c-0.306-0.192-0.865-0.464-1.587-0.464c-0.832,0-1.278,0.48-1.278,1.056
		c0,0.641,0.446,0.929,1.455,1.329c1.33,0.496,2.032,1.168,2.032,2.321c0,1.377-1.071,2.336-2.881,2.336
		c-0.85,0-1.633-0.224-2.178-0.543L435.049,55.989z"/>
	<path fill="#FFFFFF" d="M442.36,53.796c0.03,1.905,1.231,2.688,2.655,2.688c1.011,0,1.634-0.176,2.146-0.399l0.256,1.007
		c-0.496,0.227-1.359,0.496-2.594,0.496c-2.385,0-3.81-1.582-3.81-3.921c0-2.337,1.375-4.162,3.634-4.162
		c2.545,0,3.2,2.209,3.2,3.633c0,0.288-0.018,0.497-0.049,0.656h-5.44L442.36,53.796L442.36,53.796z M446.489,52.787
		c0.02-0.88-0.367-2.273-1.951-2.273c-1.439,0-2.049,1.297-2.16,2.273H446.489z"/>
	<path fill="#FFFFFF" d="M451.29,47.809v1.857h2.018v1.072h-2.018v4.178c0,0.961,0.271,1.504,1.059,1.504
		c0.384,0,0.605-0.031,0.814-0.097l0.062,1.073c-0.271,0.096-0.703,0.189-1.248,0.189c-0.655,0-1.186-0.227-1.521-0.593
		c-0.385-0.435-0.545-1.12-0.545-2.032v-4.227h-1.199v-1.072h1.199v-1.44L451.29,47.809z"/>
	<path fill="#FFFFFF" d="M465.292,53.476c0,2.866-2.002,4.114-3.857,4.114c-2.079,0-3.713-1.537-3.713-3.985
		c0-2.577,1.713-4.098,3.843-4.098C463.786,49.506,465.292,51.123,465.292,53.476z M459.161,53.556c0,1.698,0.959,2.977,2.336,2.977
		c1.348,0,2.354-1.266,2.354-3.009c0-1.312-0.655-2.961-2.319-2.961C459.881,50.563,459.161,52.099,459.161,53.556z"/>
	<path fill="#FFFFFF" d="M467.208,57.413v-6.674h-1.07v-1.072h1.07v-0.368c0-1.088,0.258-2.081,0.896-2.705
		c0.529-0.512,1.232-0.72,1.89-0.72c0.514,0,0.93,0.112,1.201,0.224l-0.191,1.088c-0.207-0.096-0.479-0.176-0.895-0.176
		c-1.201,0-1.507,1.041-1.507,2.241v0.416h1.873v1.072h-1.873v6.674H467.208z"/>
	<path fill="#FFFFFF" d="M475.127,52.195c0-0.992-0.031-1.792-0.062-2.529h1.247l0.08,1.329h0.031
		c0.562-0.944,1.486-1.489,2.754-1.489c1.89,0,3.297,1.584,3.297,3.921c0,2.786-1.713,4.161-3.537,4.161
		c-1.024,0-1.92-0.447-2.385-1.216h-0.031v4.209h-1.395V52.195L475.127,52.195z M476.52,54.26c0,0.208,0.017,0.4,0.062,0.576
		c0.256,0.979,1.104,1.648,2.113,1.648c1.487,0,2.354-1.217,2.354-2.992c0-1.537-0.815-2.865-2.307-2.865
		c-0.961,0-1.873,0.672-2.129,1.729c-0.047,0.176-0.094,0.384-0.094,0.559V54.26L476.52,54.26z"/>
	<path fill="#FFFFFF" d="M484.23,52.083c0-0.913-0.018-1.697-0.062-2.417h1.23l0.063,1.537h0.049
		c0.353-1.041,1.215-1.697,2.16-1.697c0.146,0,0.256,0.016,0.385,0.032v1.328c-0.146-0.032-0.289-0.032-0.479-0.032
		c-0.992,0-1.695,0.736-1.89,1.792c-0.032,0.192-0.049,0.433-0.049,0.656v4.129h-1.408V52.083z"/>
	<path fill="#FFFFFF" d="M496.315,53.476c0,2.866-2.003,4.114-3.859,4.114c-2.078,0-3.713-1.537-3.713-3.985
		c0-2.577,1.713-4.098,3.844-4.098C494.809,49.506,496.315,51.123,496.315,53.476z M490.184,53.556c0,1.698,0.959,2.977,2.336,2.977
		c1.347,0,2.354-1.266,2.354-3.009c0-1.312-0.654-2.961-2.318-2.961C490.905,50.563,490.184,52.099,490.184,53.556z"/>
	<path fill="#FFFFFF" d="M504.713,56.277c0,1.791-0.367,2.865-1.104,3.553c-0.769,0.688-1.855,0.93-2.832,0.93
		c-0.931,0-1.953-0.226-2.578-0.642l0.354-1.089c0.513,0.337,1.312,0.625,2.271,0.625c1.44,0,2.498-0.754,2.498-2.723v-0.849h-0.033
		c-0.416,0.722-1.264,1.296-2.465,1.296c-1.92,0-3.297-1.633-3.297-3.778c0-2.625,1.713-4.098,3.506-4.098
		c1.346,0,2.063,0.688,2.416,1.329h0.033l0.047-1.168h1.25c-0.049,0.544-0.062,1.185-0.062,2.113L504.713,56.277L504.713,56.277z
		 M503.305,52.723c0-0.24-0.018-0.448-0.08-0.624c-0.256-0.833-0.93-1.505-1.969-1.505c-1.346,0-2.307,1.137-2.307,2.929
		c0,1.521,0.785,2.786,2.289,2.786c0.881,0,1.664-0.543,1.953-1.439c0.08-0.239,0.11-0.512,0.11-0.752L503.305,52.723
		L503.305,52.723z"/>
	<path fill="#FFFFFF" d="M506.936,52.083c0-0.913-0.018-1.697-0.063-2.417h1.231l0.062,1.537h0.049
		c0.353-1.041,1.217-1.697,2.16-1.697c0.145,0,0.258,0.016,0.385,0.032v1.328c-0.146-0.032-0.287-0.032-0.479-0.032
		c-0.992,0-1.695,0.736-1.89,1.792c-0.03,0.192-0.047,0.433-0.047,0.656v4.129h-1.408V52.083z"/>
	<path fill="#FFFFFF" d="M517.53,55.557c0,0.674,0.03,1.328,0.11,1.856h-1.266l-0.111-0.978h-0.047
		c-0.434,0.607-1.268,1.15-2.369,1.15c-1.567,0-2.369-1.104-2.369-2.225c0-1.872,1.664-2.896,4.658-2.88v-0.16
		c0-0.625-0.178-1.793-1.762-1.777c-0.736,0-1.488,0.208-2.031,0.576l-0.319-0.944c0.641-0.4,1.584-0.672,2.561-0.672
		c2.369,0,2.945,1.617,2.945,3.153V55.557L517.53,55.557z M516.168,53.46c-1.535-0.032-3.279,0.24-3.279,1.745
		c0,0.93,0.605,1.344,1.312,1.344c1.024,0,1.684-0.64,1.906-1.295c0.047-0.16,0.061-0.32,0.061-0.449L516.168,53.46L516.168,53.46z"
		/>
	<path fill="#FFFFFF" d="M519.801,51.763c0-0.816-0.033-1.457-0.063-2.097h1.231l0.062,1.265h0.047
		c0.434-0.736,1.152-1.425,2.449-1.425c1.041,0,1.84,0.64,2.178,1.553h0.031c0.239-0.448,0.561-0.769,0.881-1.008
		c0.463-0.353,0.959-0.544,1.694-0.544c1.041,0,2.562,0.672,2.562,3.361v4.545h-1.377v-4.369c0-1.505-0.562-2.385-1.683-2.385
		c-0.815,0-1.426,0.592-1.682,1.265c-0.062,0.208-0.111,0.448-0.111,0.704v4.786h-1.377v-4.642c0-1.232-0.543-2.113-1.616-2.113
		c-0.863,0-1.521,0.705-1.744,1.409c-0.078,0.192-0.111,0.448-0.111,0.688v4.657h-1.375v-5.65H519.801z"/>
	<path fill="#FFFFFF" d="M532.952,55.989c0.434,0.256,1.168,0.544,1.873,0.544c1.008,0,1.487-0.497,1.487-1.152
		c0-0.673-0.399-1.024-1.426-1.409c-1.408-0.512-2.063-1.265-2.063-2.193c0-1.249,1.024-2.273,2.674-2.273
		c0.783,0,1.475,0.208,1.891,0.48l-0.338,1.024c-0.305-0.192-0.863-0.464-1.584-0.464c-0.832,0-1.279,0.48-1.279,1.056
		c0,0.641,0.447,0.929,1.455,1.329c1.328,0.496,2.033,1.168,2.033,2.321c0,1.377-1.072,2.336-2.883,2.336
		c-0.848,0-1.633-0.224-2.176-0.543L532.952,55.989z"/>
	<path fill="#FFFFFF" d="M544.567,47.809v1.857h2.018v1.072h-2.018v4.178c0,0.961,0.271,1.504,1.057,1.504
		c0.387,0,0.609-0.031,0.816-0.097l0.062,1.073c-0.27,0.096-0.703,0.189-1.248,0.189c-0.654,0-1.186-0.227-1.52-0.593
		c-0.386-0.435-0.545-1.12-0.545-2.032v-4.227h-1.201v-1.072h1.201v-1.44L544.567,47.809z"/>
	<path fill="#FFFFFF" d="M555.083,53.476c0,2.866-2.002,4.114-3.857,4.114c-2.079,0-3.713-1.537-3.713-3.985
		c0-2.577,1.713-4.098,3.843-4.098C553.577,49.506,555.083,51.123,555.083,53.476z M548.952,53.556c0,1.698,0.959,2.977,2.336,2.977
		c1.348,0,2.354-1.266,2.354-3.009c0-1.312-0.655-2.961-2.319-2.961C549.672,50.563,548.952,52.099,548.952,53.556z"/>
	<path fill="#FFFFFF" d="M351.532,76.342c-0.369,0.176-1.187,0.447-2.226,0.447c-2.338,0-3.856-1.584-3.856-3.953
		c0-2.385,1.631-4.13,4.162-4.13c0.832,0,1.567,0.208,1.953,0.416l-0.32,1.071c-0.336-0.176-0.865-0.367-1.633-0.367
		c-1.777,0-2.736,1.329-2.736,2.93c0,1.793,1.152,2.896,2.689,2.896c0.801,0,1.327-0.191,1.729-0.367L351.532,76.342z"/>
	<path fill="#FFFFFF" d="M359.659,74.484c0,0.814,0.018,1.521,0.063,2.129h-1.248l-0.08-1.266h-0.032
		c-0.353,0.625-1.185,1.438-2.562,1.438c-1.217,0-2.674-0.688-2.674-3.396v-4.527h1.408v4.271c0,1.473,0.465,2.48,1.729,2.48
		c0.943,0,1.603-0.656,1.855-1.297c0.08-0.191,0.127-0.448,0.127-0.721v-4.738h1.408v5.621h0.004L359.659,74.484L359.659,74.484z"/>
	<path fill="#FFFFFF" d="M361.801,75.188c0.433,0.256,1.168,0.545,1.873,0.545c1.008,0,1.488-0.496,1.488-1.151
		c0-0.672-0.4-1.022-1.426-1.408c-1.408-0.512-2.064-1.265-2.064-2.19c0-1.248,1.023-2.272,2.674-2.272
		c0.783,0,1.474,0.208,1.89,0.479l-0.336,1.022c-0.306-0.19-0.863-0.465-1.584-0.465c-0.832,0-1.281,0.479-1.281,1.058
		c0,0.643,0.449,0.93,1.457,1.329c1.328,0.496,2.033,1.168,2.033,2.319c0,1.377-1.072,2.337-2.882,2.337
		c-0.85,0-1.633-0.226-2.178-0.544L361.801,75.188z"/>
	<path fill="#FFFFFF" d="M370.026,67.01v1.856h2.018v1.071h-2.018v4.179c0,0.96,0.27,1.505,1.057,1.505
		c0.385,0,0.607-0.031,0.816-0.098l0.061,1.074c-0.27,0.096-0.701,0.188-1.248,0.188c-0.654,0-1.184-0.226-1.52-0.593
		c-0.386-0.434-0.545-1.12-0.545-2.032v-4.228h-1.201v-1.07h1.201v-1.439L370.026,67.01z"/>
	<path fill="#FFFFFF" d="M380.542,72.676c0,2.865-2.002,4.113-3.857,4.113c-2.079,0-3.713-1.535-3.713-3.984
		c0-2.578,1.713-4.099,3.843-4.099C379.036,68.706,380.542,70.322,380.542,72.676z M374.411,72.756c0,1.696,0.959,2.979,2.336,2.979
		c1.346,0,2.354-1.266,2.354-3.01c0-1.312-0.655-2.961-2.319-2.961C375.129,69.762,374.411,71.299,374.411,72.756z"/>
	<path fill="#FFFFFF" d="M382.312,70.963c0-0.814-0.03-1.455-0.062-2.097h1.23l0.062,1.265h0.051
		c0.433-0.734,1.15-1.425,2.447-1.425c1.039,0,1.84,0.642,2.178,1.554h0.029c0.24-0.449,0.562-0.77,0.881-1.01
		c0.467-0.352,0.963-0.544,1.697-0.544c1.041,0,2.562,0.673,2.562,3.36v4.547h-1.377v-4.37c0-1.504-0.562-2.386-1.684-2.386
		c-0.814,0-1.424,0.594-1.68,1.266c-0.062,0.208-0.111,0.447-0.111,0.704v4.786h-1.377V71.97c0-1.229-0.543-2.112-1.617-2.112
		c-0.863,0-1.521,0.705-1.742,1.41c-0.08,0.189-0.113,0.446-0.113,0.688v4.658h-1.375L382.312,70.963L382.312,70.963z"/>
	<path fill="#FFFFFF" d="M396.442,72.996c0.03,1.904,1.229,2.688,2.655,2.688c1.009,0,1.634-0.176,2.146-0.396l0.256,1.008
		c-0.494,0.227-1.357,0.496-2.592,0.496c-2.386,0-3.812-1.584-3.812-3.921s1.377-4.162,3.636-4.162c2.545,0,3.2,2.209,3.2,3.634
		c0,0.289-0.02,0.496-0.051,0.656L396.442,72.996L396.442,72.996z M400.571,71.986c0.018-0.879-0.369-2.271-1.953-2.271
		c-1.438,0-2.049,1.297-2.16,2.271H400.571L400.571,71.986z"/>
	<path fill="#FFFFFF" d="M403.674,71.283c0-0.912-0.018-1.695-0.063-2.417h1.231l0.062,1.536h0.049
		c0.354-1.041,1.217-1.696,2.16-1.696c0.146,0,0.256,0.017,0.385,0.032v1.328c-0.145-0.032-0.287-0.032-0.479-0.032
		c-0.992,0-1.697,0.735-1.892,1.793c-0.031,0.192-0.049,0.433-0.049,0.655v4.131h-1.406L403.674,71.283L403.674,71.283z"/>
	<path fill="#FFFFFF" d="M408.713,75.188c0.432,0.256,1.168,0.545,1.873,0.545c1.008,0,1.486-0.496,1.486-1.151
		c0-0.672-0.398-1.022-1.424-1.408c-1.408-0.512-2.064-1.265-2.064-2.19c0-1.248,1.023-2.272,2.674-2.272
		c0.783,0,1.474,0.208,1.89,0.479l-0.337,1.022c-0.305-0.19-0.862-0.465-1.584-0.465c-0.832,0-1.28,0.479-1.28,1.058
		c0,0.643,0.448,0.93,1.457,1.329c1.328,0.496,2.032,1.168,2.032,2.319c0,1.377-1.071,2.337-2.881,2.337
		c-0.852,0-1.635-0.226-2.178-0.544L408.713,75.188z"/>
	<path fill="#FFFFFF" d="M425.643,72.676c0,2.865-2,4.113-3.856,4.113c-2.08,0-3.713-1.535-3.713-3.984
		c0-2.578,1.713-4.099,3.842-4.099C424.139,68.706,425.643,70.322,425.643,72.676z M419.512,72.756c0,1.696,0.961,2.979,2.338,2.979
		c1.345,0,2.353-1.266,2.353-3.01c0-1.312-0.654-2.961-2.318-2.961C420.233,69.762,419.512,71.299,419.512,72.756z"/>
	<path fill="#FFFFFF" d="M427.561,76.613v-6.676h-1.071v-1.071h1.071v-0.368c0-1.089,0.257-2.081,0.896-2.705
		c0.529-0.513,1.231-0.721,1.891-0.721c0.515,0,0.931,0.111,1.199,0.225l-0.188,1.088c-0.209-0.096-0.48-0.176-0.896-0.176
		c-1.201,0-1.506,1.04-1.506,2.241v0.416h1.873v1.071h-1.873v6.676H427.561z"/>
	<path fill="#FFFFFF" d="M437.271,73.219l-1.118,3.396h-1.439l3.683-10.788h1.664l3.682,10.788h-1.486l-1.152-3.396H437.271z
		 M440.827,72.133l-1.072-3.105c-0.238-0.702-0.397-1.346-0.561-1.969h-0.033c-0.158,0.623-0.316,1.297-0.543,1.951l-1.058,3.123
		H440.827z"/>
	<path fill="#FFFFFF" d="M445.48,68.866l1.521,4.338c0.258,0.72,0.465,1.36,0.625,2.001h0.047c0.178-0.641,0.4-1.281,0.656-2.001
		l1.506-4.338h1.473l-3.041,7.747h-1.346l-2.945-7.747H445.48z"/>
	<path fill="#FFFFFF" d="M454.202,66.689c0,0.479-0.336,0.861-0.896,0.861c-0.514,0-0.85-0.383-0.85-0.861
		c0-0.48,0.354-0.881,0.881-0.881C453.848,65.809,454.202,66.193,454.202,66.689z M452.633,76.613v-7.747h1.406v7.747H452.633z"/>
	<path fill="#FFFFFF" d="M456.184,75.188c0.433,0.256,1.168,0.545,1.873,0.545c1.008,0,1.488-0.496,1.488-1.151
		c0-0.672-0.4-1.022-1.426-1.408c-1.408-0.512-2.062-1.265-2.062-2.19c0-1.248,1.021-2.272,2.672-2.272
		c0.785,0,1.474,0.208,1.89,0.479l-0.336,1.022c-0.306-0.19-0.863-0.465-1.584-0.465c-0.832,0-1.279,0.479-1.279,1.058
		c0,0.643,0.447,0.93,1.455,1.329c1.328,0.496,2.033,1.168,2.033,2.319c0,1.377-1.072,2.337-2.881,2.337
		c-0.851,0-1.634-0.226-2.179-0.544L456.184,75.188z"/>
	<path fill="#FFFFFF" d="M464.409,67.01v1.856h2.02v1.071h-2.02v4.179c0,0.96,0.272,1.505,1.059,1.505
		c0.386,0,0.607-0.031,0.814-0.098l0.063,1.074c-0.271,0.096-0.705,0.188-1.248,0.188c-0.655,0-1.188-0.226-1.521-0.593
		c-0.385-0.434-0.545-1.12-0.545-2.032v-4.228h-1.201v-1.07h1.201v-1.439L464.409,67.01z"/>
	<path fill="#FFFFFF" d="M473.45,74.758c0,0.672,0.031,1.327,0.11,1.855h-1.266l-0.111-0.979h-0.047
		c-0.434,0.607-1.268,1.151-2.369,1.151c-1.567,0-2.368-1.104-2.368-2.226c0-1.873,1.664-2.896,4.657-2.883V71.52
		c0-0.625-0.178-1.793-1.762-1.776c-0.736,0-1.488,0.209-2.031,0.575l-0.319-0.943c0.641-0.396,1.584-0.672,2.561-0.672
		c2.369,0,2.945,1.615,2.945,3.152V74.758L473.45,74.758z M472.088,72.66c-1.535-0.031-3.279,0.238-3.279,1.744
		c0,0.929,0.605,1.345,1.312,1.345c1.024,0,1.684-0.642,1.906-1.297c0.047-0.16,0.062-0.319,0.062-0.448V72.66L472.088,72.66z"/>
	<path fill="#FFFFFF" d="M485.594,74.484c0,0.814,0.017,1.521,0.062,2.129h-1.248l-0.08-1.266h-0.031
		c-0.354,0.625-1.186,1.438-2.562,1.438c-1.218,0-2.675-0.688-2.675-3.396v-4.527h1.41v4.271c0,1.473,0.463,2.48,1.729,2.48
		c0.942,0,1.602-0.656,1.854-1.297c0.08-0.191,0.129-0.448,0.129-0.721v-4.738h1.408L485.594,74.484L485.594,74.484z"/>
	<path fill="#FFFFFF" d="M487.928,70.963c0-0.814-0.02-1.455-0.063-2.097h1.248l0.08,1.28h0.03c0.386-0.723,1.279-1.44,2.562-1.44
		c1.072,0,2.736,0.642,2.736,3.298v4.609h-1.408v-4.467c0-1.248-0.465-2.289-1.793-2.289c-0.912,0-1.633,0.656-1.89,1.439
		c-0.063,0.178-0.098,0.416-0.098,0.655v4.657h-1.406L487.928,70.963L487.928,70.963z"/>
	<path fill="#FFFFFF" d="M498.44,67.01v1.856h2.018v1.071h-2.018v4.179c0,0.96,0.271,1.505,1.057,1.505
		c0.387,0,0.609-0.031,0.815-0.098l0.062,1.074c-0.27,0.096-0.703,0.188-1.248,0.188c-0.654,0-1.186-0.226-1.52-0.593
		c-0.386-0.434-0.545-1.12-0.545-2.032v-4.228h-1.201v-1.07h1.201v-1.439L498.44,67.01z"/>
	<path fill="#FFFFFF" d="M503.608,66.689c0,0.479-0.337,0.861-0.896,0.861c-0.514,0-0.85-0.383-0.85-0.861
		c0-0.48,0.354-0.881,0.881-0.881C503.256,65.809,503.608,66.193,503.608,66.689z M502.04,76.613v-7.747h1.408v7.747H502.04z"/>
	<path fill="#FFFFFF" d="M505.784,65.249h1.408v11.364h-1.408V65.249z"/>
	<path fill="#FFFFFF" d="M512.502,76.613v-0.864l1.105-1.071c2.655-2.529,3.873-3.875,3.873-5.441c0-1.059-0.496-2.032-2.05-2.032
		c-0.944,0-1.729,0.479-2.209,0.881l-0.448-0.991c0.705-0.594,1.745-1.058,2.93-1.058c2.24,0,3.188,1.534,3.188,3.022
		c0,1.922-1.395,3.476-3.586,5.588l-0.815,0.77v0.029h4.658v1.171L512.502,76.613L512.502,76.613z"/>
	<path fill="#FFFFFF" d="M527.641,71.299c0,3.539-1.328,5.49-3.616,5.49c-2.033,0-3.427-1.904-3.457-5.346
		c0-3.506,1.52-5.41,3.633-5.41C526.375,66.033,527.641,67.984,527.641,71.299z M521.991,71.459c0,2.705,0.832,4.242,2.112,4.242
		c1.425,0,2.111-1.682,2.111-4.338c0-2.562-0.641-4.242-2.111-4.242C522.887,67.121,521.991,68.626,521.991,71.459z"/>
	<path fill="#FFFFFF" d="M535.85,71.299c0,3.539-1.33,5.49-3.619,5.49c-2.03,0-3.424-1.904-3.456-5.346
		c0-3.506,1.521-5.41,3.635-5.41C534.584,66.033,535.85,67.984,535.85,71.299z M530.2,71.459c0,2.705,0.832,4.242,2.11,4.242
		c1.427,0,2.113-1.682,2.113-4.338c0-2.562-0.643-4.242-2.113-4.242C531.096,67.121,530.2,68.626,530.2,71.459z"/>
	<path fill="#FFFFFF" d="M539.045,71.139c-1.168-0.545-1.662-1.438-1.662-2.338c0-1.646,1.394-2.769,3.23-2.769
		c2.02,0,3.041,1.248,3.041,2.562c0,0.881-0.447,1.84-1.729,2.434v0.05c1.297,0.513,2.099,1.438,2.099,2.688
		c0,1.823-1.554,3.023-3.537,3.023c-2.179,0-3.49-1.28-3.49-2.803c0-1.312,0.785-2.256,2.064-2.801L539.045,71.139z M542.6,73.908
		c0-1.248-0.881-1.873-2.289-2.271c-1.217,0.354-1.873,1.168-1.873,2.16c-0.049,1.041,0.753,1.969,2.08,1.969
		C541.784,75.764,542.6,74.98,542.6,73.908z M538.727,68.706c-0.018,1.04,0.783,1.601,1.982,1.921
		c0.896-0.305,1.586-0.943,1.586-1.889c0-0.832-0.496-1.697-1.762-1.697C539.366,67.041,538.727,67.809,538.727,68.706z"/>
	<path fill="#FFFFFF" d="M545.446,75.781c0-0.576,0.399-1.01,0.961-1.01c0.561,0,0.942,0.416,0.942,1.01
		c0,0.576-0.385,1.008-0.977,1.008C545.831,76.789,545.446,76.357,545.446,75.781z"/>
</g>
<g id="v8JemD_1_">
	<g>
		<path fill="#FFFFFF" d="M203.279,47.349c0.674,0,1.347,0,2.021,0c-0.011,2.66,0.015,6.177,0,8.897
			c-0.003,0.718,0.433,2.348-0.808,2.154c-0.396,0.072-0.384-0.649-0.404-0.811C203.653,54.154,203.628,50.36,203.279,47.349z"/>
		<path fill="#FFFFFF" d="M206.109,47.349c0.718,0,1.438,0,2.156,0c-0.326,2.78,0.423,6.901,0,9.706
			c-0.102,0.674,0.172,0.715-0.674,0.809c-0.675,0.074-0.412-0.096-0.539-0.674c-0.069-0.317-0.098-0.918-0.135-1.349
			C206.66,52.803,206.414,49.89,206.109,47.349z"/>
		<path fill="#FFFFFF" d="M209.208,47.349c3.819,0,7.638,0,11.456,0c-0.697,2.852-1,6.097-1.752,8.897
			c-2.839,0.438-6.135,1.143-8.761,1.346C209.793,54.223,209.403,50.884,209.208,47.349z"/>
		<path fill="#FFFFFF" d="M324.174,57.188c1.891-0.596,2.99,0.748,2.562,2.428c-0.525,2.057-4.541,1.589-3.773-1.35
			C323.051,57.922,323.487,57.405,324.174,57.188z M324.849,60.559c1.913,0.016,2.134-3.576-0.27-3.101
			C322.615,57.848,323.284,60.546,324.849,60.559z"/>
		<path fill="#FFFFFF" d="M257.055,57.188c0.115-0.021,0.127,0.054,0.134,0.136c-1.267,6.459-2.457,12.999-3.908,19.272
			c-3.146,0-6.29,0-9.435,0c1.061-6.574,2.44-12.834,3.638-19.272C250.631,57.234,254.134,57.503,257.055,57.188z"/>
		<path fill="#FFFFFF" d="M301.936,57.188c-0.257,1.629-0.572,3.203-0.944,4.719c-1.796,0-3.594,0-5.391,0
			c-1.109,4.777-2.016,9.756-2.965,14.689c-3.189,0-6.379,0-9.569,0c1.004-4.882,1.957-9.812,2.964-14.689c-1.841,0-3.683,0-5.525,0
			c0.412-1.521,0.459-3.405,1.079-4.719C288.369,57.188,295.152,57.188,301.936,57.188z"/>
		<path fill="#FFFFFF" d="M306.788,57.188c4.448,0,8.896,0,13.344,0c1.169,6.334,2.5,13.225,3.368,19.408c-3.324,0-6.649,0-9.973,0
			c-0.209-0.688-0.296-1.501-0.404-2.291c-2.201,0-4.404,0-6.604,0c-0.585,0.627-0.92,1.506-1.35,2.291c-3.189,0-6.379,0-9.569,0
			C299.166,69.963,302.964,63.562,306.788,57.188z M308.541,70.126c1.349,0,2.695,0,4.042,0c-0.248-2.086-0.46-4.211-0.808-6.199
			c-0.029-0.104-0.112-0.155-0.271-0.134C310.598,65.986,309.492,67.979,308.541,70.126z"/>
		<path fill="#FFFFFF" d="M219.722,57.323c3.009,0,6.02,0,9.029,0c-2.848,0.61-5.999,0.92-8.895,1.481
			C219.955,58.166,219.705,57.878,219.722,57.323z"/>
		<path fill="#FFFFFF" d="M241.69,57.323c-2.122,0.528-4.459,0.843-6.738,1.213c-0.051-0.591,0.385-0.691,0.404-1.213
			C237.467,57.323,239.579,57.323,241.69,57.323z"/>
		<path fill="#FFFFFF" d="M245.734,57.323c0.114-0.024,0.126,0.052,0.135,0.135c-3.449,6.347-6.851,12.735-10.244,19.14
			c-4.538,0-9.075,0-13.612,0c-0.532-4.681-1.177-9.246-1.617-14.019c2.961-0.677,6.03-1.248,9.031-1.888
			c0.025,2.896,0.219,5.623,0.134,8.627c0.778-0.495,0.979-1.49,1.348-2.291c1.066-2.317,2.299-4.984,3.504-7.412
			C238.292,58.955,242.042,58.17,245.734,57.323z"/>
		<path fill="#FFFFFF" d="M279.293,57.323c-0.378,1.463-0.64,3.044-0.944,4.583c-1.308,0.48-8.364-0.977-8.625,0.809
			c-0.166,1.135,1.54,1.332,3.1,2.021c1.912,0.846,4.183,2.511,4.449,4.719c0.237,1.977-0.582,3.826-1.483,4.852
			c-3.414,3.881-13.049,1.711-20.082,2.291c0.123-1.721,0.562-3.123,0.808-4.72c1.307,0,3.3,0,5.391,0
			c1.631,0,4.183,0.347,4.312-0.942c0.119-1.184-2.555-2.099-3.773-2.694c-1.406-0.689-3.095-1.604-3.504-2.831
			c-0.716-2.146,0.172-4.667,1.483-5.932C264.043,55.99,272.483,57.747,279.293,57.323z"/>
		<path fill="#FFFFFF" d="M218.375,57.861c0.611,0.062,0.028,0.93,0,1.215c-2.017,0.052-4.315,0.74-6.334,0.943
			c-0.571,0.058-1.587,0.496-1.751-0.403c0.444-0.507,1.248-0.421,1.886-0.54C214.088,58.717,216.294,58.247,218.375,57.861z"/>
		<path fill="#FFFFFF" d="M324.04,57.997c0.229-0.31,1.03-0.05,1.482-0.136c0.07,0.201,0.198,0.341,0.271,0.539
			c0,0.404-0.243,0.566-0.538,0.676c0.033,0.333,0.623,0.802,0.405,0.943c-0.665-0.012-0.418-0.933-1.08-0.943
			c-0.417,0.033,0.21,1.107-0.405,0.943C323.953,59.268,324.38,58.669,324.04,57.997z M324.445,58.807
			c0.43-0.02,1.031,0.133,0.943-0.404c-0.021-0.385-0.562-0.245-0.943-0.271C324.445,58.357,324.445,58.582,324.445,58.807z"/>
		<path fill="#FFFFFF" d="M229.156,58.27c0.547-0.056,0.149,0.838,0.271,1.211c-3.026,0.613-6.146,1.136-9.3,1.617
			c-0.081-0.279,0.167-0.886-0.135-0.943C222.857,59.336,226.173,58.967,229.156,58.27z"/>
		<path fill="#FFFFFF" d="M218.104,60.559c0.108,0.467-0.201,0.519-0.134,0.942c-2.394,0.481-4.889,0.863-7.413,1.214
			c-0.295-0.936,0.626-0.913,1.213-1.078c0.592-0.166,1.479-0.166,2.022-0.271C215.316,61.076,216.506,60.708,218.104,60.559z"/>
		<path fill="#FFFFFF" d="M202.335,60.827c0.244,1.327-1.841,1.155-2.83,1.349c-3.32,0.643-7.22,1.402-10.378,2.156
			c-0.092-0.635,0.967-1.279,1.349-1.889C194.466,61.945,198.329,61.314,202.335,60.827z"/>
		<path fill="#FFFFFF" d="M217.295,63.253c0.479,0.396,0.086,1.168,0,1.616c-0.696,3.627-1.802,7.973-2.562,11.727
			c-1.393,0-2.784,0-4.177,0c0-4.044,0-8.086,0-12.13C212.864,64.122,215.01,63.619,217.295,63.253z"/>
		<path fill="#FFFFFF" d="M207.726,65.007c0.09,0,0.179,0,0.27,0c0.674-0.014,0.483,0.859,0.54,1.213
			c0.505,3.12,0.635,7.017,1.213,10.243c-0.407,0.311-1.391,0.047-2.022,0.135C207.726,72.732,207.726,68.869,207.726,65.007z"/>
		<path fill="#FFFFFF" d="M205.03,65.409c0.135,0,0.27,0,0.405,0c0.509,3.67,0.908,7.448,1.348,11.187c-0.673,0-1.348,0-2.021,0
			c0-3.639,0-7.277,0-10.918C204.794,65.534,205.029,65.588,205.03,65.409z"/>
		<path fill="#FFFFFF" d="M178.345,76.598c0-0.045,0-0.09,0-0.136c1.876-2.067,3.68-4.03,5.525-6.198
			c0.709-0.834,1.129-1.736,1.887-2.022c0.474-0.179,1.345-0.171,2.021-0.269c5.131-0.748,9.782-1.402,14.961-2.021
			c0.027,2.264,0.49,4.092,0.539,6.335c-2.561,0-5.121,0-7.683,0c-0.64,0.782-1.367,1.366-2.156,2.155
			c-0.661,0.662-1.319,1.923-2.291,2.156c-1.808,0.436-4.283,0-6.335,0C182.63,76.598,180.532,76.598,178.345,76.598z"/>
		<path fill="#FFFFFF" d="M202.335,48.427c0,3.505,0,7.011,0,10.515c-3.696,0.754-7.381,1.516-10.917,2.426
			c1.473-2.163,3.479-4.389,5.392-6.604C198.704,52.567,200.542,50.255,202.335,48.427z"/>
		<path fill="#FFFFFF" d="M202.47,63.793c-0.194,0.809-1.174,0.555-1.751,0.674c-4.293,0.895-9.639,2.045-14.152,2.83
			c-0.114-0.023-0.127,0.055-0.134,0.135c0.261-0.563,0.806-1.646,1.617-2.021c0.824-0.381,2.354-0.339,3.774-0.539
			c2.962-0.418,6.088-1.087,9.165-1.349C201.411,63.486,202.341,63.077,202.47,63.793z"/>
	</g>
</g>
</svg>
