<?xml version="1.0" encoding="utf-8"?>
<!-- Generator: Adobe Illustrator 15.0.2, SVG Export Plug-In . SVG Version: 6.00 Build 0)  -->
<!DOCTYPE svg PUBLIC "-//W3C//DTD SVG 1.1//EN" "http://www.w3.org/Graphics/SVG/1.1/DTD/svg11.dtd">
<svg version="1.1" id="Layer_1" xmlns="http://www.w3.org/2000/svg" xmlns:xlink="http://www.w3.org/1999/xlink" x="0px" y="0px"
	 width="487.508px" height="104.727px" viewBox="0 0 487.508 104.727" enable-background="new 0 0 487.508 104.727"
	 xml:space="preserve">
<g id="sky">
</g>
<g id="hills3">
</g>
<g id="hills1">
</g>
<g id="tractor">
</g>
<g id="hills">
</g>
<g id="foreground">
</g>
<g id="cows">
</g>
<g id="balloons">
</g>
<path opacity="0.7" fill="#FFFFFF" enable-background="new    " d="M485.506,94.554c-7.908-3.396-24.863-3.396-27.131-11.31
	c-2.254-7.913,12.436-24.88-9.041-29.396c-21.479-4.512-23.146,1.126-37.84,1.126c-14.695,0-18.519-8.942-21.65-14.686
	c-4.406-8.062-12.125-25.64-19.465-31.159c-13.391-10.075-46.668-13.305-67-2c-20.354,11.298-53.713,27.51-72.936,20.708
	c-19.221-6.774-44.083-29.376-75.737-21.476c-18.728,4.688-31.174,19.608-37.826,29.606c-0.935,1.406-2.375,4.146-3.385,5.843
	c-1.201,2.021-2.427,4.011-3.768,5.938c-2.595,3.737-5.398,7.785-9.339,10.229c-3.604,2.234-8.179,3.067-12.25,4
	c-3.021,0.692-9.603,0.363-12.526,2.08c0-0.003,0-0.006,0-0.009c-1.907,0.789-3.859,1.862-5.858,3.363
	C56.187,77.591,67.326,90.027,52.637,88.9c-14.702-1.141-26.002-7.917-35.054-2.267c-9.039,5.663-17.585,18.093-17.585,18.093
	h480.35C480.348,104.726,493.426,97.948,485.506,94.554z"/>
<g>
	<path fill="#0079A3" d="M141.603,48.204c0,3.465-2.115,5.323-4.695,5.323c-2.685,0-4.545-2.085-4.545-5.145
		c0-3.209,1.98-5.31,4.68-5.31C139.818,43.074,141.603,45.189,141.603,48.204z M133.743,48.354c0,2.175,1.17,4.11,3.24,4.11
		c2.07,0,3.24-1.905,3.24-4.2c0-2.023-1.05-4.125-3.225-4.125S133.743,46.149,133.743,48.354z"/>
	<path fill="#0079A3" d="M143.253,48.369c0-0.855-0.015-1.592-0.06-2.267h1.155l0.06,1.44h0.045c0.33-0.977,1.14-1.59,2.025-1.59
		c0.135,0,0.24,0.015,0.36,0.028v1.245c-0.135-0.028-0.27-0.028-0.45-0.028c-0.93,0-1.59,0.688-1.77,1.68
		c-0.03,0.18-0.045,0.405-0.045,0.615v3.869h-1.32V48.369L143.253,48.369z"/>
	<path fill="#0079A3" d="M148.743,49.974c0.03,1.785,1.155,2.521,2.49,2.521c0.945,0,1.53-0.165,2.01-0.375l0.24,0.943
		c-0.465,0.21-1.275,0.465-2.43,0.465c-2.235,0-3.57-1.483-3.57-3.675c0-2.188,1.29-3.898,3.405-3.898c2.385,0,3,2.068,3,3.403
		c0,0.271-0.015,0.467-0.045,0.615H148.743z M152.613,49.029c0.015-0.823-0.345-2.13-1.83-2.13c-1.35,0-1.92,1.217-2.025,2.13
		H152.613z"/>
	<path fill="#0079A3" d="M161.733,52.299c0,1.68-0.345,2.685-1.035,3.331c-0.72,0.645-1.74,0.869-2.655,0.869
		c-0.87,0-1.83-0.21-2.415-0.602l0.33-1.02c0.48,0.312,1.23,0.584,2.13,0.584c1.35,0,2.34-0.705,2.34-2.55v-0.795h-0.03
		c-0.39,0.675-1.185,1.216-2.31,1.216c-1.8,0-3.09-1.531-3.09-3.541c0-2.46,1.605-3.84,3.285-3.84c1.26,0,1.935,0.645,2.265,1.245
		h0.03l0.045-1.097h1.17c-0.045,0.51-0.06,1.11-0.06,1.98V52.299L161.733,52.299z M160.413,48.969c0-0.225-0.015-0.42-0.075-0.585
		c-0.24-0.78-0.87-1.41-1.845-1.41c-1.26,0-2.16,1.065-2.16,2.745c0,1.425,0.735,2.61,2.145,2.61c0.825,0,1.56-0.512,1.83-1.352
		c0.075-0.225,0.105-0.479,0.105-0.705V48.969z"/>
	<path fill="#0079A3" d="M170.478,49.674c0,2.685-1.875,3.854-3.615,3.854c-1.95,0-3.48-1.438-3.48-3.733
		c0-2.415,1.605-3.84,3.6-3.84C169.068,45.954,170.478,47.469,170.478,49.674z M164.733,49.749c0,1.59,0.9,2.79,2.19,2.79
		c1.26,0,2.205-1.187,2.205-2.82c0-1.229-0.615-2.775-2.175-2.775C165.408,46.944,164.733,48.384,164.733,49.749z"/>
	<path fill="#0079A3" d="M172.143,48.069c0-0.765-0.015-1.363-0.06-1.965h1.17l0.075,1.2h0.03c0.36-0.675,1.2-1.35,2.4-1.35
		c1.005,0,2.565,0.6,2.565,3.09v4.32h-1.32v-4.187c0-1.17-0.435-2.145-1.68-2.145c-0.855,0-1.53,0.613-1.771,1.35
		c-0.06,0.165-0.09,0.39-0.09,0.615v4.364h-1.32L172.143,48.069L172.143,48.069z"/>
	<path fill="#0079A3" d="M183.647,48.369c0-0.855-0.015-1.592-0.06-2.267h1.155l0.06,1.44h0.045c0.33-0.977,1.14-1.59,2.025-1.59
		c0.135,0,0.24,0.015,0.36,0.028v1.245c-0.135-0.028-0.27-0.028-0.45-0.028c-0.93,0-1.59,0.688-1.77,1.68
		c-0.03,0.18-0.045,0.405-0.045,0.615v3.869h-1.32V48.369L183.647,48.369z"/>
	<path fill="#0079A3" d="M193.578,51.624c0,0.63,0.03,1.245,0.105,1.74h-1.185l-0.105-0.915h-0.045
		c-0.405,0.567-1.185,1.078-2.22,1.078c-1.47,0-2.22-1.033-2.22-2.085c0-1.755,1.56-2.715,4.365-2.698v-0.15
		c0-0.585-0.165-1.68-1.65-1.665c-0.69,0-1.395,0.195-1.905,0.54l-0.3-0.885c0.6-0.375,1.485-0.63,2.4-0.63
		c2.22,0,2.76,1.515,2.76,2.955V51.624z M192.303,49.658c-1.44-0.03-3.075,0.225-3.075,1.635c0,0.87,0.57,1.26,1.23,1.26
		c0.96,0,1.575-0.6,1.785-1.215c0.045-0.15,0.06-0.3,0.06-0.42V49.658z"/>
	<path fill="#0079A3" d="M195.708,48.069c0-0.765-0.015-1.363-0.06-1.965h1.17l0.075,1.2h0.03c0.36-0.675,1.2-1.35,2.4-1.35
		c1.005,0,2.565,0.6,2.565,3.09v4.32h-1.32v-4.187c0-1.17-0.435-2.145-1.68-2.145c-0.855,0-1.53,0.613-1.77,1.35
		c-0.06,0.165-0.09,0.39-0.09,0.615v4.364h-1.32V48.069L195.708,48.069z"/>
	<path fill="#0079A3" d="M205.337,49.434h0.03c0.18-0.255,0.42-0.568,0.63-0.825l2.145-2.505h1.575l-2.79,2.985l3.195,4.275h-1.62
		l-2.49-3.48l-0.675,0.75v2.73h-1.305v-10.65h1.305V49.434L205.337,49.434z"/>
	<path fill="#0079A3" d="M210.888,52.029c0.405,0.24,1.095,0.512,1.755,0.512c0.945,0,1.395-0.465,1.395-1.08
		c0-0.63-0.375-0.96-1.335-1.32c-1.32-0.479-1.935-1.185-1.935-2.055c0-1.17,0.96-2.13,2.505-2.13c0.735,0,1.38,0.193,1.77,0.448
		l-0.315,0.962c-0.285-0.182-0.81-0.437-1.485-0.437c-0.78,0-1.2,0.45-1.2,0.99c0,0.6,0.42,0.87,1.365,1.245
		c1.245,0.465,1.905,1.095,1.905,2.175c0,1.29-1.005,2.188-2.7,2.188c-0.795,0-1.53-0.21-2.04-0.511L210.888,52.029z"/>
	<path fill="#0079A3" d="M225.287,51.624c0,0.63,0.03,1.245,0.105,1.74h-1.185l-0.105-0.915h-0.045
		c-0.405,0.567-1.185,1.078-2.22,1.078c-1.47,0-2.22-1.033-2.22-2.085c0-1.755,1.56-2.715,4.365-2.698v-0.15
		c0-0.585-0.165-1.68-1.65-1.665c-0.69,0-1.395,0.195-1.905,0.54l-0.3-0.885c0.6-0.375,1.485-0.63,2.4-0.63
		c2.22,0,2.76,1.515,2.76,2.955V51.624z M224.012,49.658c-1.44-0.03-3.075,0.225-3.075,1.635c0,0.87,0.57,1.26,1.23,1.26
		c0.96,0,1.575-0.6,1.785-1.215c0.045-0.15,0.06-0.3,0.06-0.42V49.658z"/>
	<path fill="#0079A3" d="M227.237,52.029c0.405,0.24,1.095,0.512,1.755,0.512c0.945,0,1.395-0.465,1.395-1.08
		c0-0.63-0.375-0.96-1.335-1.32c-1.32-0.479-1.935-1.185-1.935-2.055c0-1.17,0.96-2.13,2.505-2.13c0.735,0,1.38,0.193,1.77,0.448
		l-0.315,0.962c-0.285-0.182-0.81-0.437-1.485-0.437c-0.78,0-1.2,0.45-1.2,0.99c0,0.6,0.42,0.87,1.365,1.245
		c1.245,0.465,1.905,1.095,1.905,2.175c0,1.29-1.005,2.188-2.7,2.188c-0.795,0-1.53-0.21-2.04-0.511L227.237,52.029z"/>
	<path fill="#0079A3" d="M238.127,44.365v1.738h1.89v1.005h-1.89v3.915c0,0.9,0.255,1.41,0.99,1.41c0.36,0,0.57-0.03,0.765-0.09
		l0.06,1.004c-0.255,0.091-0.66,0.181-1.17,0.181c-0.615,0-1.11-0.21-1.425-0.556c-0.36-0.404-0.51-1.049-0.51-1.904v-3.96h-1.125
		v-1.005h1.125v-1.35L238.127,44.365z"/>
	<path fill="#0079A3" d="M241.501,42.714h1.32v4.544h0.03c0.21-0.375,0.54-0.72,0.945-0.945c0.39-0.225,0.854-0.358,1.351-0.358
		c0.976,0,2.535,0.6,2.535,3.09v4.318h-1.32v-4.17c0-1.17-0.436-2.145-1.68-2.145c-0.854,0-1.516,0.6-1.771,1.305
		c-0.075,0.195-0.09,0.392-0.09,0.63v4.38h-1.32V42.714L241.501,42.714z"/>
	<path fill="#0079A3" d="M250.562,49.974c0.027,1.785,1.152,2.521,2.487,2.521c0.944,0,1.53-0.165,2.011-0.375l0.239,0.943
		c-0.465,0.21-1.272,0.465-2.431,0.465c-2.234,0-3.569-1.483-3.569-3.675c0-2.188,1.29-3.898,3.405-3.898c2.385,0,3,2.068,3,3.403
		c0,0.271-0.018,0.467-0.045,0.615H250.562z M254.432,49.029c0.018-0.823-0.345-2.13-1.83-2.13c-1.35,0-1.92,1.217-2.023,2.13
		H254.432z"/>
	<path fill="#0079A3" d="M260.102,53.365v-0.812l1.035-1.005c2.489-2.37,3.629-3.63,3.629-5.1c0-0.99-0.465-1.905-1.92-1.905
		c-0.885,0-1.619,0.45-2.068,0.825l-0.42-0.932c0.658-0.555,1.636-0.988,2.744-0.988c2.102,0,2.984,1.438,2.984,2.835
		c0,1.8-1.305,3.255-3.359,5.233l-0.766,0.722v0.028h4.365v1.097L260.102,53.365L260.102,53.365z"/>
	<path fill="#0079A3" d="M268.216,48.069c0-0.765-0.015-1.363-0.06-1.965h1.17l0.074,1.2h0.031c0.357-0.675,1.197-1.35,2.397-1.35
		c1.005,0,2.563,0.6,2.563,3.09v4.32h-1.318v-4.187c0-1.17-0.438-2.145-1.682-2.145c-0.854,0-1.528,0.613-1.771,1.35
		c-0.06,0.165-0.09,0.39-0.09,0.615v4.364h-1.32v-5.296h0.004V48.069z"/>
	<path fill="#0079A3" d="M282.796,42.714v8.772c0,0.646,0.03,1.382,0.06,1.875h-1.17l-0.06-1.26h-0.045
		c-0.39,0.812-1.261,1.425-2.444,1.425c-1.756,0-3.121-1.483-3.121-3.688c-0.014-2.415,1.5-3.885,3.256-3.885
		c1.125,0,1.859,0.523,2.189,1.095h0.03v-4.334H282.796z M281.491,49.059c0-0.165-0.015-0.39-0.06-0.555
		c-0.195-0.825-0.916-1.515-1.906-1.515c-1.364,0-2.174,1.198-2.174,2.788c0,1.472,0.732,2.687,2.145,2.687
		c0.885,0,1.695-0.6,1.936-1.575c0.045-0.18,0.062-0.36,0.062-0.57L281.491,49.059L281.491,49.059z"/>
	<path fill="#0079A3" d="M288.182,48.069c0-0.765-0.031-1.363-0.061-1.965h1.154l0.061,1.187h0.045
		c0.404-0.69,1.08-1.335,2.295-1.335c0.975,0,1.725,0.6,2.04,1.455h0.03c0.225-0.42,0.523-0.722,0.824-0.945
		c0.436-0.33,0.9-0.51,1.59-0.51c0.977,0,2.4,0.63,2.4,3.148v4.262h-1.291v-4.097c0-1.41-0.523-2.233-1.574-2.233
		c-0.766,0-1.334,0.555-1.574,1.185c-0.061,0.195-0.105,0.42-0.105,0.66v4.485h-1.289v-4.352c0-1.155-0.511-1.979-1.516-1.979
		c-0.811,0-1.426,0.658-1.635,1.318c-0.075,0.182-0.105,0.42-0.105,0.646v4.365h-1.289V48.069L288.182,48.069z"/>
	<path fill="#0079A3" d="M307.26,49.674c0,2.685-1.875,3.854-3.613,3.854c-1.951,0-3.479-1.438-3.479-3.733
		c0-2.415,1.604-3.84,3.602-3.84C305.852,45.954,307.26,47.469,307.26,49.674z M301.516,49.749c0,1.59,0.9,2.79,2.189,2.79
		c1.26,0,2.205-1.187,2.205-2.82c0-1.229-0.615-2.775-2.176-2.775C302.189,46.944,301.516,48.384,301.516,49.749z"/>
	<path fill="#0079A3" d="M308.746,52.029c0.404,0.24,1.095,0.512,1.755,0.512c0.944,0,1.396-0.465,1.396-1.08
		c0-0.63-0.375-0.96-1.338-1.32c-1.317-0.479-1.935-1.185-1.935-2.055c0-1.17,0.96-2.13,2.505-2.13c0.734,0,1.38,0.193,1.771,0.448
		l-0.314,0.962c-0.285-0.182-0.811-0.437-1.484-0.437c-0.779,0-1.199,0.45-1.199,0.99c0,0.6,0.42,0.87,1.363,1.245
		c1.245,0.465,1.905,1.095,1.905,2.175c0,1.29-1.005,2.188-2.7,2.188c-0.795,0-1.527-0.21-2.039-0.511L308.746,52.029z"/>
	<path fill="#0079A3" d="M316.456,44.365v1.738h1.89v1.005h-1.89v3.915c0,0.9,0.255,1.41,0.989,1.41c0.358,0,0.568-0.03,0.766-0.09
		l0.062,1.004c-0.258,0.091-0.66,0.181-1.172,0.181c-0.613,0-1.109-0.21-1.426-0.556c-0.357-0.404-0.51-1.049-0.51-1.904v-3.96
		h-1.125v-1.005h1.125v-1.35L316.456,44.365z"/>
	<path fill="#0079A3" d="M323.746,49.974c0.029,1.785,1.154,2.521,2.489,2.521c0.942,0,1.528-0.165,2.01-0.375l0.24,0.943
		c-0.467,0.21-1.274,0.465-2.433,0.465c-2.232,0-3.567-1.483-3.567-3.675c0-2.188,1.29-3.898,3.403-3.898c2.387,0,3,2.068,3,3.403
		c0,0.271-0.016,0.467-0.045,0.615H323.746z M327.615,49.029c0.016-0.823-0.347-2.13-1.83-2.13c-1.352,0-1.92,1.217-2.025,2.13
		H327.615z"/>
	<path fill="#0079A3" d="M330.525,48.069c0-0.765-0.017-1.363-0.062-1.965h1.17l0.075,1.2h0.029c0.358-0.675,1.2-1.35,2.398-1.35
		c1.005,0,2.564,0.6,2.564,3.09v4.32h-1.32v-4.187c0-1.17-0.435-2.145-1.68-2.145c-0.854,0-1.529,0.613-1.771,1.35
		c-0.061,0.165-0.09,0.39-0.09,0.615v4.364h-1.318v-5.296h0.004V48.069z"/>
	<path fill="#0079A3" d="M339.586,49.974c0.029,1.785,1.154,2.521,2.489,2.521c0.943,0,1.53-0.165,2.01-0.375l0.24,0.943
		c-0.465,0.21-1.275,0.465-2.432,0.465c-2.233,0-3.568-1.483-3.568-3.675c0-2.188,1.29-3.898,3.405-3.898c2.385,0,3,2.068,3,3.403
		c0,0.271-0.018,0.467-0.047,0.615H339.586z M343.455,49.029c0.015-0.823-0.345-2.13-1.83-2.13c-1.35,0-1.92,1.217-2.025,2.13
		H343.455z"/>
	<path fill="#0079A3" d="M346.365,48.369c0-0.855-0.017-1.592-0.062-2.267h1.154l0.061,1.44h0.047c0.328-0.977,1.14-1.59,2.022-1.59
		c0.136,0,0.24,0.015,0.36,0.028v1.245c-0.136-0.028-0.271-0.028-0.45-0.028c-0.93,0-1.59,0.688-1.771,1.68
		c-0.028,0.18-0.045,0.405-0.045,0.615v3.869h-1.318L346.365,48.369L346.365,48.369z"/>
	<path fill="#0079A3" d="M357.36,52.299c0,1.68-0.347,2.685-1.035,3.331c-0.72,0.645-1.739,0.869-2.654,0.869
		c-0.87,0-1.83-0.21-2.415-0.602l0.33-1.02c0.479,0.312,1.229,0.584,2.13,0.584c1.352,0,2.34-0.705,2.34-2.55v-0.795h-0.028
		c-0.392,0.675-1.187,1.216-2.312,1.216c-1.8,0-3.09-1.531-3.09-3.541c0-2.46,1.604-3.84,3.284-3.84
		c1.261,0,1.936,0.645,2.266,1.245h0.029l0.045-1.097h1.17c-0.045,0.51-0.06,1.11-0.06,1.98V52.299z M356.04,48.969
		c0-0.225-0.015-0.42-0.074-0.585c-0.24-0.78-0.87-1.41-1.846-1.41c-1.26,0-2.159,1.065-2.159,2.745c0,1.425,0.734,2.61,2.146,2.61
		c0.823,0,1.56-0.512,1.828-1.352c0.075-0.225,0.104-0.479,0.104-0.705V48.969L356.04,48.969z"/>
	<path fill="#0079A3" d="M360.016,46.104l1.574,4.29c0.183,0.48,0.36,1.05,0.48,1.485h0.028c0.137-0.437,0.285-0.99,0.467-1.515
		l1.438-4.262h1.396l-1.98,5.175c-0.944,2.489-1.59,3.75-2.489,4.547c-0.66,0.555-1.29,0.778-1.62,0.84l-0.329-1.097
		c0.329-0.104,0.766-0.312,1.154-0.645c0.359-0.285,0.795-0.795,1.109-1.471c0.061-0.137,0.104-0.24,0.104-0.314
		c0-0.075-0.028-0.18-0.104-0.345l-2.67-6.69L360.016,46.104L360.016,46.104z"/>
	<path fill="#0079A3" d="M130.286,67.974c0.03,1.784,1.155,2.521,2.49,2.521c0.945,0,1.53-0.165,2.01-0.375l0.24,0.943
		c-0.465,0.21-1.275,0.465-2.43,0.465c-2.235,0-3.57-1.483-3.57-3.675c0-2.188,1.29-3.898,3.405-3.898c2.385,0,3,2.068,3,3.403
		c0,0.271-0.015,0.467-0.045,0.615H130.286z M134.155,67.029c0.015-0.823-0.345-2.13-1.83-2.13c-1.35,0-1.92,1.217-2.025,2.13
		H134.155z"/>
	<path fill="#0079A3" d="M146.155,62.004c-0.33-0.211-0.87-0.393-1.485-0.393c-1.38,0-1.8,0.978-1.8,2.133v0.357h4.229v7.262h-1.32
		v-6.257h-2.91v6.257h-1.305v-6.257h-3.06v6.257H137.2v-6.257h-1.005v-1.005h1.005v-0.255c0-0.897,0.255-1.8,0.87-2.397
		c0.42-0.438,1.05-0.705,1.86-0.705c0.495,0,1.005,0.18,1.275,0.312l-0.375,0.977c-0.225-0.137-0.57-0.256-0.9-0.256
		c-0.42,0-0.72,0.149-0.945,0.375c-0.36,0.391-0.48,1.051-0.48,1.682v0.27h3.06V63.7c0-1.906,1.125-3.15,3.165-3.15
		c0.66,0,1.425,0.21,1.815,0.465L146.155,62.004z"/>
	<path fill="#0079A3" d="M154.465,71.109c-0.345,0.165-1.11,0.42-2.084,0.42c-2.19,0-3.615-1.483-3.615-3.703
		c0-2.235,1.53-3.87,3.9-3.87c0.78,0,1.47,0.193,1.83,0.391l-0.3,1.005c-0.315-0.165-0.81-0.345-1.53-0.345
		c-1.665,0-2.565,1.244-2.565,2.744c0,1.68,1.08,2.715,2.52,2.715c0.75,0,1.245-0.18,1.62-0.345L154.465,71.109z"/>
	<path fill="#0079A3" d="M157.48,62.064c0,0.45-0.315,0.812-0.84,0.812c-0.48,0-0.795-0.359-0.795-0.812s0.33-0.823,0.825-0.823
		C157.15,61.24,157.48,61.599,157.48,62.064z M156.01,71.365v-7.262h1.32v7.262H156.01z"/>
	<path fill="#0079A3" d="M160.255,67.974c0.03,1.784,1.155,2.521,2.49,2.521c0.945,0,1.53-0.165,2.01-0.375l0.24,0.943
		c-0.465,0.21-1.275,0.465-2.43,0.465c-2.235,0-3.57-1.483-3.57-3.675c0-2.188,1.29-3.898,3.405-3.898c2.385,0,3,2.068,3,3.403
		c0,0.271-0.015,0.467-0.045,0.615H160.255z M164.125,67.029c0.015-0.823-0.345-2.13-1.83-2.13c-1.35,0-1.92,1.217-2.025,2.13
		H164.125z"/>
	<path fill="#0079A3" d="M167.035,66.069c0-0.765-0.015-1.363-0.06-1.965h1.17l0.075,1.2h0.03c0.36-0.675,1.2-1.351,2.4-1.351
		c1.005,0,2.565,0.601,2.565,3.09v4.318h-1.32v-4.186c0-1.17-0.435-2.145-1.68-2.145c-0.855,0-1.53,0.613-1.77,1.35
		c-0.06,0.166-0.09,0.391-0.09,0.615v4.363h-1.32V66.069L167.035,66.069z"/>
	<path fill="#0079A3" d="M176.89,62.365v1.738h1.89v1.005h-1.89v3.915c0,0.9,0.255,1.41,0.99,1.41c0.36,0,0.57-0.03,0.765-0.09
		l0.06,1.004c-0.255,0.091-0.66,0.181-1.17,0.181c-0.615,0-1.11-0.21-1.425-0.556c-0.36-0.404-0.51-1.049-0.51-1.904v-3.96h-1.125
		v-1.005h1.125v-1.35L176.89,62.365z"/>
	<path fill="#0079A3" d="M183.265,70.029c0.405,0.24,1.095,0.512,1.755,0.512c0.945,0,1.395-0.465,1.395-1.079
		c0-0.631-0.375-0.961-1.335-1.32c-1.32-0.479-1.935-1.186-1.935-2.055c0-1.17,0.96-2.131,2.505-2.131
		c0.735,0,1.38,0.193,1.77,0.448l-0.315,0.962c-0.285-0.182-0.81-0.437-1.485-0.437c-0.78,0-1.2,0.45-1.2,0.989
		c0,0.601,0.42,0.871,1.365,1.246c1.245,0.465,1.905,1.094,1.905,2.174c0,1.291-1.005,2.188-2.7,2.188
		c-0.795,0-1.53-0.21-2.04-0.511L183.265,70.029z"/>
	<path fill="#0079A3" d="M190.975,62.365v1.738h1.89v1.005h-1.89v3.915c0,0.9,0.255,1.41,0.99,1.41c0.36,0,0.57-0.03,0.765-0.09
		l0.06,1.004c-0.255,0.091-0.66,0.181-1.17,0.181c-0.615,0-1.11-0.21-1.425-0.556c-0.36-0.404-0.51-1.049-0.51-1.904v-3.96h-1.125
		v-1.005h1.125v-1.35L190.975,62.365z"/>
	<path fill="#0079A3" d="M199.449,69.623c0,0.631,0.03,1.245,0.105,1.738h-1.185l-0.105-0.913h-0.045
		c-0.405,0.567-1.185,1.078-2.22,1.078c-1.47,0-2.22-1.033-2.22-2.085c0-1.755,1.56-2.715,4.365-2.697v-0.15
		c0-0.586-0.165-1.68-1.65-1.665c-0.69,0-1.395,0.194-1.905,0.54l-0.3-0.885c0.6-0.375,1.485-0.631,2.4-0.631
		c2.22,0,2.76,1.516,2.76,2.955V69.623z M198.174,67.658c-1.44-0.029-3.075,0.225-3.075,1.635c0,0.87,0.57,1.26,1.23,1.26
		c0.96,0,1.575-0.6,1.785-1.215c0.045-0.149,0.06-0.299,0.06-0.42V67.658z"/>
	<path fill="#0079A3" d="M203.109,62.365v1.738h1.89v1.005h-1.89v3.915c0,0.9,0.255,1.41,0.99,1.41c0.36,0,0.57-0.03,0.765-0.09
		l0.06,1.004c-0.255,0.091-0.66,0.181-1.17,0.181c-0.615,0-1.11-0.21-1.425-0.556c-0.36-0.404-0.51-1.049-0.51-1.904v-3.96h-1.125
		v-1.005h1.125v-1.35L203.109,62.365z"/>
	<path fill="#0079A3" d="M207.129,67.974c0.03,1.784,1.155,2.521,2.49,2.521c0.945,0,1.53-0.165,2.01-0.375l0.24,0.943
		c-0.465,0.21-1.275,0.465-2.43,0.465c-2.235,0-3.57-1.483-3.57-3.675c0-2.188,1.29-3.898,3.405-3.898c2.385,0,3,2.068,3,3.403
		c0,0.271-0.015,0.467-0.045,0.615H207.129z M210.999,67.029c0.015-0.823-0.345-2.13-1.83-2.13c-1.35,0-1.92,1.217-2.025,2.13
		H210.999z"/>
	<path fill="#0079A3" d="M217.089,60.714h1.305v4.56h0.03c0.465-0.811,1.305-1.318,2.475-1.318c1.815,0,3.075,1.5,3.075,3.688
		c0,2.597-1.65,3.885-3.27,3.885c-1.05,0-1.89-0.403-2.445-1.351h-0.03l-0.075,1.188h-1.125c0.03-0.495,0.06-1.23,0.06-1.875V60.714
		z M218.394,68.453c0,0.165,0.015,0.33,0.06,0.479c0.24,0.914,1.02,1.545,1.98,1.545c1.395,0,2.205-1.125,2.205-2.79
		c0-1.455-0.75-2.699-2.175-2.699c-0.885,0-1.725,0.632-1.995,1.619c-0.045,0.165-0.075,0.347-0.075,0.558V68.453z"/>
	<path fill="#0079A3" d="M225.999,64.104l1.575,4.29c0.18,0.479,0.36,1.05,0.48,1.485h0.03c0.135-0.438,0.285-0.99,0.465-1.518
		l1.44-4.26h1.395l-1.979,5.175c-0.945,2.489-1.59,3.75-2.49,4.547c-0.66,0.555-1.29,0.778-1.62,0.84l-0.33-1.097
		c0.33-0.104,0.765-0.312,1.155-0.645c0.36-0.285,0.795-0.795,1.11-1.471c0.06-0.137,0.105-0.24,0.105-0.314
		c0-0.075-0.03-0.18-0.105-0.346l-2.67-6.689L225.999,64.104L225.999,64.104z"/>
	<path fill="#0079A3" d="M237.354,62.365v1.738h1.89v1.005h-1.89v3.915c0,0.9,0.255,1.41,0.99,1.41c0.36,0,0.57-0.03,0.765-0.09
		l0.06,1.004c-0.255,0.091-0.66,0.181-1.17,0.181c-0.615,0-1.11-0.21-1.425-0.556c-0.36-0.404-0.51-1.049-0.51-1.904v-3.96h-1.125
		v-1.005h1.125v-1.35L237.354,62.365z"/>
	<path fill="#0079A3" d="M240.729,60.714h1.32v4.544h0.03c0.21-0.374,0.54-0.719,0.945-0.944c0.39-0.226,0.855-0.358,1.35-0.358
		c0.976,0,2.535,0.601,2.535,3.09v4.32h-1.32v-4.172c0-1.17-0.435-2.145-1.679-2.145c-0.855,0-1.515,0.6-1.77,1.305
		c-0.075,0.195-0.09,0.393-0.09,0.63v4.382h-1.32L240.729,60.714L240.729,60.714z"/>
	<path fill="#0079A3" d="M249.789,67.974c0.029,1.784,1.154,2.521,2.488,2.521c0.945,0,1.531-0.165,2.011-0.375l0.239,0.943
		c-0.465,0.21-1.273,0.465-2.43,0.465c-2.234,0-3.57-1.483-3.57-3.675c0-2.188,1.291-3.898,3.406-3.898c2.385,0,3,2.068,3,3.403
		c0,0.271-0.018,0.467-0.045,0.615H249.789z M253.658,67.029c0.016-0.823-0.346-2.13-1.83-2.13c-1.35,0-1.92,1.217-2.025,2.13
		H253.658z"/>
	<path fill="#0079A3" d="M261.428,68.184l-1.049,3.182h-1.352l3.451-10.109h1.56l3.45,10.109h-1.396l-1.078-3.182H261.428z
		 M264.758,67.164l-1.005-2.91c-0.226-0.66-0.375-1.26-0.524-1.846H263.2c-0.149,0.586-0.302,1.215-0.513,1.828l-0.987,2.928
		H264.758z"/>
	<path fill="#0079A3" d="M268.883,66.069c0-0.765-0.029-1.363-0.059-1.965h1.154l0.061,1.188h0.045
		c0.404-0.69,1.08-1.336,2.295-1.336c0.975,0,1.725,0.601,2.039,1.455h0.03c0.226-0.42,0.524-0.722,0.825-0.945
		c0.435-0.329,0.898-0.51,1.59-0.51c0.975,0,2.4,0.631,2.4,3.148v4.262h-1.291v-4.097c0-1.41-0.524-2.233-1.574-2.233
		c-0.768,0-1.336,0.555-1.575,1.186c-0.06,0.195-0.104,0.42-0.104,0.66v4.484h-1.291v-4.352c0-1.155-0.51-1.979-1.514-1.979
		c-0.811,0-1.426,0.658-1.637,1.318c-0.074,0.182-0.104,0.42-0.104,0.646v4.365h-1.291L268.883,66.069L268.883,66.069z"/>
	<path fill="#0079A3" d="M282.129,67.974c0.029,1.784,1.154,2.521,2.489,2.521c0.944,0,1.53-0.165,2.01-0.375l0.24,0.943
		c-0.466,0.21-1.274,0.465-2.431,0.465c-2.234,0-3.569-1.483-3.569-3.675c0-2.188,1.29-3.898,3.405-3.898c2.385,0,3,2.068,3,3.403
		c0,0.271-0.018,0.467-0.045,0.615H282.129z M285.998,67.029c0.016-0.823-0.346-2.13-1.83-2.13c-1.35,0-1.92,1.217-2.025,2.13
		H285.998z"/>
	<path fill="#0079A3" d="M288.908,66.369c0-0.855-0.016-1.593-0.061-2.268h1.154l0.061,1.439h0.045
		c0.33-0.977,1.141-1.59,2.023-1.59c0.137,0,0.24,0.016,0.36,0.028v1.245c-0.136-0.027-0.271-0.027-0.45-0.027
		c-0.932,0-1.59,0.688-1.771,1.68c-0.028,0.18-0.045,0.404-0.045,0.615v3.867h-1.32v-4.991L288.908,66.369L288.908,66.369z"/>
	<path fill="#0079A3" d="M295.344,62.064c0,0.45-0.314,0.812-0.84,0.812c-0.48,0-0.795-0.359-0.795-0.812s0.329-0.823,0.824-0.823
		C295.014,61.24,295.344,61.599,295.344,62.064z M293.873,71.365v-7.262h1.32v7.262H293.873z"/>
	<path fill="#0079A3" d="M302.559,71.109c-0.346,0.165-1.109,0.42-2.086,0.42c-2.188,0-3.615-1.483-3.615-3.703
		c0-2.235,1.531-3.87,3.9-3.87c0.78,0,1.471,0.193,1.83,0.391l-0.3,1.005c-0.315-0.165-0.81-0.345-1.53-0.345
		c-1.665,0-2.564,1.244-2.564,2.744c0,1.68,1.08,2.715,2.521,2.715c0.75,0,1.245-0.18,1.62-0.345L302.559,71.109z"/>
	<path fill="#0079A3" d="M309.203,69.623c0,0.631,0.029,1.245,0.104,1.738h-1.186l-0.105-0.913h-0.045
		c-0.402,0.567-1.185,1.078-2.219,1.078c-1.471,0-2.221-1.033-2.221-2.085c0-1.755,1.561-2.715,4.363-2.697v-0.15
		c0-0.586-0.164-1.68-1.648-1.665c-0.688,0-1.396,0.194-1.904,0.54l-0.301-0.885c0.602-0.375,1.484-0.631,2.4-0.631
		c2.22,0,2.76,1.516,2.76,2.955L309.203,69.623L309.203,69.623z M307.928,67.658c-1.438-0.029-3.074,0.225-3.074,1.635
		c0,0.87,0.57,1.26,1.229,1.26c0.96,0,1.575-0.6,1.785-1.215c0.045-0.149,0.06-0.299,0.06-0.42V67.658z"/>
	<path fill="#0079A3" d="M311.333,66.069c0-0.765-0.015-1.363-0.06-1.965h1.17l0.072,1.2h0.031c0.359-0.675,1.199-1.351,2.399-1.351
		c1.005,0,2.563,0.601,2.563,3.09v4.318h-1.318v-4.186c0-1.17-0.438-2.145-1.682-2.145c-0.854,0-1.528,0.613-1.771,1.35
		c-0.062,0.166-0.09,0.391-0.09,0.615v4.363h-1.32v-5.293h0.004V66.069z"/>
	<path fill="#0079A3" d="M329.932,71.049c-0.465,0.239-1.438,0.479-2.669,0.479c-2.851,0-4.979-1.8-4.979-5.13
		c0-3.18,2.145-5.31,5.278-5.31c1.244,0,2.056,0.271,2.399,0.45l-0.33,1.062c-0.479-0.24-1.186-0.42-2.023-0.42
		c-2.37,0-3.945,1.518-3.945,4.17c0,2.49,1.426,4.064,3.87,4.064c0.81,0,1.62-0.164,2.146-0.42L329.932,71.049z"/>
	<path fill="#0079A3" d="M337.942,67.674c0,2.685-1.875,3.854-3.614,3.854c-1.95,0-3.48-1.438-3.48-3.733
		c0-2.414,1.605-3.84,3.602-3.84C336.533,63.953,337.942,65.469,337.942,67.674z M332.197,67.748c0,1.59,0.898,2.79,2.188,2.79
		c1.261,0,2.205-1.187,2.205-2.819c0-1.229-0.615-2.775-2.175-2.775C332.873,64.944,332.197,66.383,332.197,67.748z"/>
	<path fill="#0079A3" d="M345.683,69.368c0,0.765,0.017,1.425,0.062,1.993h-1.17l-0.075-1.186h-0.029
		c-0.33,0.586-1.108,1.351-2.398,1.351c-1.142,0-2.505-0.646-2.505-3.18v-4.245h1.318v4.005c0,1.38,0.437,2.325,1.62,2.325
		c0.885,0,1.5-0.615,1.739-1.215c0.075-0.18,0.12-0.42,0.12-0.676v-4.439h1.318V69.368z"/>
	<path fill="#0079A3" d="M347.872,66.069c0-0.765-0.015-1.363-0.06-1.965h1.17l0.073,1.2h0.029c0.36-0.675,1.2-1.351,2.4-1.351
		c1.005,0,2.562,0.601,2.562,3.09v4.318h-1.317v-4.186c0-1.17-0.438-2.145-1.683-2.145c-0.854,0-1.528,0.613-1.77,1.35
		c-0.062,0.166-0.09,0.391-0.09,0.615v4.363h-1.32v-5.293h0.004V66.069z"/>
	<path fill="#0079A3" d="M361.372,71.109c-0.345,0.165-1.109,0.42-2.085,0.42c-2.189,0-3.614-1.483-3.614-3.703
		c0-2.235,1.529-3.87,3.899-3.87c0.778,0,1.47,0.193,1.83,0.391l-0.302,1.005c-0.313-0.165-0.811-0.345-1.528-0.345
		c-1.665,0-2.564,1.244-2.564,2.744c0,1.68,1.08,2.715,2.521,2.715c0.75,0,1.245-0.18,1.62-0.345L361.372,71.109z"/>
	<path fill="#0079A3" d="M364.387,62.064c0,0.45-0.312,0.812-0.84,0.812c-0.479,0-0.795-0.359-0.795-0.812s0.33-0.823,0.825-0.823
		C364.058,61.24,364.387,61.599,364.387,62.064z M362.917,71.365v-7.262h1.32v7.262H362.917z"/>
	<path fill="#0079A3" d="M366.427,60.714h1.32v10.647h-1.32V60.714z"/>
	<path fill="#0079A3" d="M151.345,89.365v-6.257h-1.005v-1.005h1.005v-0.345c0-1.021,0.24-1.95,0.84-2.535
		c0.495-0.479,1.155-0.675,1.77-0.675c0.48,0,0.87,0.104,1.125,0.21l-0.18,1.021c-0.195-0.093-0.45-0.166-0.84-0.166
		c-1.125,0-1.41,0.976-1.41,2.1v0.391h1.755v1.005h-1.755v6.257L151.345,89.365L151.345,89.365z"/>
	<path fill="#0079A3" d="M161.965,85.674c0,2.685-1.875,3.854-3.615,3.854c-1.95,0-3.48-1.438-3.48-3.733
		c0-2.414,1.605-3.84,3.6-3.84C160.555,81.953,161.965,83.469,161.965,85.674z M156.22,85.748c0,1.59,0.9,2.79,2.19,2.79
		c1.26,0,2.205-1.187,2.205-2.819c0-1.229-0.615-2.775-2.175-2.775C156.895,82.944,156.22,84.383,156.22,85.748z"/>
	<path fill="#0079A3" d="M163.63,84.369c0-0.855-0.015-1.593-0.06-2.268h1.155l0.06,1.439h0.045c0.33-0.977,1.14-1.59,2.025-1.59
		c0.135,0,0.24,0.016,0.36,0.028v1.245c-0.135-0.027-0.27-0.027-0.45-0.027c-0.93,0-1.59,0.688-1.77,1.68
		c-0.03,0.18-0.045,0.404-0.045,0.615v3.867h-1.32V84.369L163.63,84.369z"/>
	<path fill="#0079A3" d="M176.815,87.623c0,0.631,0.03,1.245,0.105,1.738h-1.185l-0.105-0.913h-0.045
		c-0.405,0.567-1.185,1.078-2.22,1.078c-1.47,0-2.22-1.033-2.22-2.085c0-1.755,1.56-2.715,4.365-2.697v-0.15
		c0-0.586-0.165-1.68-1.65-1.665c-0.69,0-1.395,0.194-1.905,0.54l-0.3-0.885c0.6-0.375,1.485-0.631,2.4-0.631
		c2.22,0,2.76,1.516,2.76,2.955V87.623z M175.54,85.658c-1.44-0.029-3.075,0.225-3.075,1.635c0,0.87,0.57,1.26,1.23,1.26
		c0.96,0,1.575-0.6,1.785-1.215c0.045-0.149,0.06-0.299,0.06-0.42V85.658z"/>
	<path fill="#0079A3" d="M178.945,84.069c0-0.765-0.015-1.363-0.06-1.965h1.17l0.075,1.2h0.03c0.36-0.675,1.2-1.351,2.4-1.351
		c1.005,0,2.565,0.601,2.565,3.09v4.318h-1.32v-4.186c0-1.17-0.435-2.145-1.68-2.145c-0.855,0-1.53,0.613-1.77,1.35
		c-0.06,0.166-0.09,0.391-0.09,0.615v4.363h-1.32V84.069z"/>
	<path fill="#0079A3" d="M195.714,84.623h-3.915v3.646h4.38v1.097h-5.7v-10.11h5.475v1.095h-4.155v3.194h3.915V84.623
		L195.714,84.623z"/>
	<path fill="#0079A3" d="M197.829,84.069c0-0.765-0.015-1.363-0.06-1.965h1.17l0.075,1.2h0.03c0.36-0.675,1.2-1.351,2.4-1.351
		c1.005,0,2.565,0.601,2.565,3.09v4.318h-1.32v-4.186c0-1.17-0.435-2.145-1.68-2.145c-0.855,0-1.53,0.613-1.77,1.35
		c-0.06,0.166-0.09,0.391-0.09,0.615v4.363h-1.32V84.069z"/>
	<path fill="#0079A3" d="M206.89,85.974c0.03,1.784,1.155,2.521,2.49,2.521c0.945,0,1.53-0.165,2.01-0.375l0.24,0.943
		c-0.465,0.21-1.275,0.465-2.43,0.465c-2.235,0-3.57-1.483-3.57-3.675c0-2.188,1.29-3.898,3.405-3.898c2.385,0,3,2.068,3,3.403
		c0,0.271-0.015,0.467-0.045,0.615H206.89z M210.759,85.029c0.015-0.823-0.345-2.13-1.83-2.13c-1.35,0-1.92,1.217-2.025,2.13
		H210.759z"/>
	<path fill="#0079A3" d="M213.669,84.369c0-0.855-0.015-1.593-0.06-2.268h1.155l0.06,1.439h0.045c0.33-0.977,1.14-1.59,2.025-1.59
		c0.135,0,0.24,0.016,0.36,0.028v1.245c-0.135-0.027-0.27-0.027-0.45-0.027c-0.93,0-1.59,0.688-1.77,1.68
		c-0.03,0.18-0.045,0.404-0.045,0.615v3.867h-1.32V84.369z"/>
	<path fill="#0079A3" d="M224.664,88.299c0,1.68-0.345,2.685-1.035,3.33c-0.72,0.645-1.74,0.869-2.655,0.869
		c-0.87,0-1.83-0.21-2.415-0.602l0.33-1.02c0.48,0.312,1.23,0.584,2.13,0.584c1.35,0,2.34-0.705,2.34-2.55v-0.795h-0.03
		c-0.39,0.675-1.185,1.216-2.31,1.216c-1.8,0-3.09-1.531-3.09-3.541c0-2.459,1.605-3.84,3.285-3.84c1.26,0,1.935,0.646,2.265,1.246
		h0.03l0.045-1.098h1.17c-0.045,0.51-0.06,1.109-0.06,1.98V88.299z M223.344,84.969c0-0.225-0.015-0.42-0.075-0.586
		c-0.24-0.779-0.87-1.409-1.845-1.409c-1.26,0-2.16,1.065-2.16,2.745c0,1.425,0.735,2.609,2.145,2.609
		c0.825,0,1.56-0.512,1.83-1.352c0.075-0.225,0.104-0.479,0.104-0.705L223.344,84.969L223.344,84.969z"/>
	<path fill="#0079A3" d="M227.319,82.104l1.575,4.29c0.18,0.479,0.36,1.05,0.48,1.485h0.03c0.135-0.438,0.285-0.99,0.465-1.518
		l1.44-4.26h1.395l-1.98,5.175c-0.945,2.489-1.59,3.75-2.49,4.547c-0.66,0.555-1.29,0.778-1.62,0.84l-0.33-1.097
		c0.33-0.104,0.765-0.312,1.155-0.645c0.36-0.285,0.795-0.795,1.11-1.471c0.06-0.137,0.105-0.24,0.105-0.314
		c0-0.075-0.03-0.18-0.105-0.346l-2.67-6.689L227.319,82.104L227.319,82.104z"/>
	<path fill="#0079A3" d="M244.984,84.623h-3.916v3.646h4.379v1.097h-5.699v-10.11h5.476v1.095h-4.156v3.194h3.916V84.623z"/>
	<path fill="#0079A3" d="M256.188,80.004c-0.33-0.211-0.869-0.393-1.483-0.393c-1.379,0-1.8,0.978-1.8,2.133v0.357h4.229v7.26
		h-1.319v-6.255h-2.908v6.255H251.6v-6.255h-3.062v6.255h-1.306v-6.255h-1.004v-1.005h1.004v-0.255c0-0.897,0.256-1.8,0.871-2.397
		c0.42-0.438,1.049-0.705,1.858-0.705c0.495,0,1.006,0.18,1.274,0.312l-0.375,0.977c-0.226-0.137-0.569-0.256-0.899-0.256
		c-0.42,0-0.72,0.149-0.944,0.375c-0.358,0.391-0.479,1.051-0.479,1.682v0.27h3.062V81.7c0-1.906,1.125-3.15,3.166-3.15
		c0.658,0,1.424,0.21,1.813,0.465L256.188,80.004z"/>
	<path fill="#0079A3" d="M264.499,89.109c-0.347,0.165-1.108,0.42-2.084,0.42c-2.19,0-3.615-1.483-3.615-3.703
		c0-2.235,1.529-3.87,3.898-3.87c0.78,0,1.471,0.193,1.829,0.391l-0.299,1.005c-0.315-0.165-0.812-0.345-1.53-0.345
		c-1.664,0-2.564,1.244-2.564,2.744c0,1.68,1.08,2.715,2.521,2.715c0.75,0,1.244-0.18,1.619-0.345L264.499,89.109z"/>
	<path fill="#0079A3" d="M267.516,80.064c0,0.45-0.314,0.812-0.841,0.812c-0.479,0-0.795-0.359-0.795-0.812
		c0-0.449,0.329-0.823,0.824-0.823C267.186,79.24,267.516,79.599,267.516,80.064z M266.044,89.365v-7.262h1.32v7.262H266.044z"/>
	<path fill="#0079A3" d="M270.288,85.974c0.03,1.784,1.155,2.521,2.489,2.521c0.945,0,1.529-0.165,2.011-0.375l0.239,0.943
		c-0.465,0.21-1.273,0.465-2.43,0.465c-2.234,0-3.57-1.483-3.57-3.675c0-2.188,1.291-3.898,3.404-3.898c2.387,0,3,2.068,3,3.403
		c0,0.271-0.015,0.467-0.045,0.615H270.288z M274.159,85.029c0.015-0.823-0.347-2.13-1.83-2.13c-1.351,0-1.92,1.217-2.024,2.13
		H274.159z"/>
	<path fill="#0079A3" d="M277.068,84.069c0-0.765-0.016-1.363-0.061-1.965h1.17l0.075,1.2h0.03c0.357-0.675,1.199-1.351,2.398-1.351
		c1.004,0,2.563,0.601,2.563,3.09v4.318h-1.319v-4.186c0-1.17-0.435-2.145-1.681-2.145c-0.854,0-1.528,0.613-1.771,1.35
		c-0.061,0.166-0.09,0.391-0.09,0.615v4.363h-1.32v-5.293h0.004V84.069z"/>
	<path fill="#0079A3" d="M286.925,80.365v1.738h1.89v1.005h-1.89v3.915c0,0.9,0.255,1.41,0.988,1.41c0.36,0,0.569-0.03,0.767-0.09
		l0.061,1.004c-0.256,0.091-0.66,0.181-1.17,0.181c-0.615,0-1.109-0.21-1.426-0.556c-0.359-0.404-0.511-1.049-0.511-1.904v-3.96
		h-1.125v-1.005h1.125v-1.35L286.925,80.365z"/>
	<path fill="#0079A3" d="M298.743,84.623h-3.914v3.646h4.379v1.097h-5.699v-10.11h5.476v1.095h-4.154v3.194h3.914L298.743,84.623
		L298.743,84.623z"/>
	<path fill="#0079A3" d="M305.975,89.109c-0.347,0.165-1.109,0.42-2.086,0.42c-2.189,0-3.613-1.483-3.613-3.703
		c0-2.235,1.529-3.87,3.897-3.87c0.781,0,1.472,0.193,1.83,0.391l-0.301,1.005c-0.313-0.165-0.81-0.345-1.529-0.345
		c-1.664,0-2.563,1.244-2.563,2.744c0,1.68,1.08,2.715,2.521,2.715c0.75,0,1.246-0.18,1.621-0.345L305.975,89.109z"/>
	<path fill="#0079A3" d="M313.998,85.674c0,2.685-1.875,3.854-3.614,3.854c-1.95,0-3.479-1.438-3.479-3.733
		c0-2.414,1.604-3.84,3.601-3.84C312.589,81.953,313.998,83.469,313.998,85.674z M308.253,85.748c0,1.59,0.899,2.79,2.189,2.79
		c1.261,0,2.204-1.187,2.204-2.819c0-1.229-0.613-2.775-2.175-2.775C308.929,82.944,308.253,84.383,308.253,85.748z"/>
	<path fill="#0079A3" d="M315.663,84.069c0-0.765-0.016-1.363-0.062-1.965h1.171l0.074,1.2h0.029c0.359-0.675,1.2-1.351,2.399-1.351
		c1.006,0,2.563,0.601,2.563,3.09v4.318h-1.32v-4.186c0-1.17-0.435-2.145-1.68-2.145c-0.854,0-1.529,0.613-1.771,1.35
		c-0.062,0.166-0.091,0.391-0.091,0.615v4.363h-1.318v-5.293h0.004V84.069z"/>
	<path fill="#0079A3" d="M330.558,85.674c0,2.685-1.875,3.854-3.613,3.854c-1.949,0-3.479-1.438-3.479-3.733
		c0-2.414,1.604-3.84,3.601-3.84C329.148,81.953,330.558,83.469,330.558,85.674z M324.812,85.748c0,1.59,0.9,2.79,2.189,2.79
		c1.26,0,2.205-1.187,2.205-2.819c0-1.229-0.615-2.775-2.175-2.775C325.488,82.944,324.812,84.383,324.812,85.748z"/>
	<path fill="#0079A3" d="M332.224,84.069c0-0.765-0.029-1.363-0.061-1.965h1.154l0.061,1.188h0.045
		c0.405-0.69,1.08-1.336,2.295-1.336c0.977,0,1.727,0.601,2.041,1.455h0.029c0.225-0.42,0.523-0.722,0.824-0.945
		c0.436-0.329,0.898-0.51,1.591-0.51c0.976,0,2.397,0.631,2.397,3.148v4.262h-1.288v-4.097c0-1.41-0.524-2.233-1.575-2.233
		c-0.766,0-1.335,0.555-1.574,1.186c-0.062,0.195-0.105,0.42-0.105,0.66v4.484h-1.289v-4.352c0-1.155-0.51-1.979-1.516-1.979
		c-0.811,0-1.425,0.658-1.635,1.318c-0.074,0.182-0.105,0.42-0.105,0.646v4.365h-1.289V84.069L332.224,84.069z"/>
	<path fill="#0079A3" d="M345.019,82.104l1.575,4.29c0.181,0.479,0.36,1.05,0.479,1.485h0.028c0.136-0.438,0.285-0.99,0.466-1.518
		l1.439-4.26h1.396l-1.979,5.175c-0.945,2.489-1.59,3.75-2.49,4.547c-0.659,0.555-1.29,0.778-1.619,0.84l-0.33-1.097
		c0.33-0.104,0.767-0.312,1.154-0.645c0.36-0.285,0.795-0.795,1.11-1.471c0.06-0.137,0.104-0.24,0.104-0.314
		c0-0.075-0.028-0.18-0.104-0.346l-2.67-6.689L345.019,82.104L345.019,82.104z"/>
	<path fill="#0079A3" d="M350.704,88.584c0-0.541,0.375-0.945,0.897-0.945c0.525,0,0.886,0.39,0.886,0.945
		c0,0.539-0.358,0.942-0.914,0.942C351.062,89.529,350.704,89.123,350.704,88.584z"/>
</g>
<g>
	<path fill="#95C6C6" d="M238.294,83.083v0.96h-3.705v-0.96H238.294z"/>
</g>
</svg>
