<?xml version="1.0" encoding="utf-8"?>
<!-- Generator: Adobe Illustrator 15.0.2, SVG Export Plug-In . SVG Version: 6.00 Build 0)  -->
<!DOCTYPE svg PUBLIC "-//W3C//DTD SVG 1.1//EN" "http://www.w3.org/Graphics/SVG/1.1/DTD/svg11.dtd">
<svg version="1.1" id="Layer_1" xmlns="http://www.w3.org/2000/svg" xmlns:xlink="http://www.w3.org/1999/xlink" x="0px" y="0px"
	 width="530.746px" height="111.641px" viewBox="0 0 530.746 111.641" enable-background="new 0 0 530.746 111.641"
	 xml:space="preserve">
<path opacity="0.7" fill="#FFFFFF" enable-background="new    " d="M482.91,92.043c-8.291-6.122-17.485-8.831-25.166-11.655
	c-6.004-2.206-7.122-15.938-17.571-21.53c-15.27-8.167-33.83,14.338-55.331-1.755c-20.502-15.344-9.518-22.498-30.854-33.141
	c-12.87-6.418-38.724-2.534-55.854,1.238c-17.991,3.959-48.848,8.146-75.207-0.767c-18.025-6.092-51.191-18.211-66.522-5.441
	c-6.083,5.062-11.233,14.865-14.369,22.85c-2.525,6.424-11.375,9.065-17.348,9.591c-8.643,0.762-14.83-5.646-32.243,4.207
	C77.398,64.16,81.737,80.565,79.281,88.37c-2.347,7.46-26.638,10.61-42.865,8.847c-11.364-1.238-20.156,14.422-20.156,14.422H487.03
	C487.032,111.64,491.188,98.177,482.91,92.043z"/>
<g id="sky">
</g>
<g id="hills3">
</g>
<g id="hills1">
</g>
<g id="tractor">
</g>
<g id="hills">
</g>
<g id="foreground">
</g>
<g id="cows">
</g>
<g id="balloons">
</g>
<g>
	<g enable-background="new    ">
		<path fill="#0079A3" d="M134.712,58.821h-3.075v-1.108h7.485v1.108h-3.09v9h-1.32V58.821z"/>
	</g>
	<g enable-background="new    ">
		<path fill="#0079A3" d="M140.097,57.171h1.32v4.545h0.03c0.21-0.375,0.54-0.721,0.945-0.945c0.39-0.225,0.855-0.359,1.35-0.359
			c0.975,0,2.535,0.601,2.535,3.09v4.319h-1.32v-4.17c0-1.17-0.435-2.145-1.68-2.145c-0.855,0-1.515,0.6-1.77,1.305
			c-0.075,0.195-0.09,0.391-0.09,0.63v4.38h-1.32V57.171L140.097,57.171z"/>
		<path fill="#0079A3" d="M149.157,64.431c0.03,1.785,1.155,2.521,2.49,2.521c0.945,0,1.53-0.165,2.01-0.375l0.24,0.944
			c-0.465,0.21-1.275,0.465-2.43,0.465c-2.235,0-3.57-1.484-3.57-3.675c0-2.189,1.29-3.899,3.405-3.899c2.385,0,3,2.069,3,3.404
			c0,0.271-0.015,0.466-0.045,0.615H149.157L149.157,64.431z M153.027,63.486c0.015-0.824-0.345-2.13-1.83-2.13
			c-1.35,0-1.92,1.215-2.025,2.13H153.027z"/>
		<path fill="#0079A3" d="M167.802,62.66c0,3.465-2.115,5.324-4.695,5.324c-2.685,0-4.545-2.085-4.545-5.145
			c0-3.21,1.98-5.312,4.68-5.312C166.017,57.531,167.802,59.646,167.802,62.66z M159.942,62.811c0,2.175,1.17,4.109,3.24,4.109
			c2.07,0,3.24-1.904,3.24-4.199c0-2.025-1.05-4.125-3.225-4.125C161.022,58.596,159.942,60.606,159.942,62.811z"/>
	</g>
	<g enable-background="new    ">
		<path fill="#0079A3" d="M169.452,62.825c0-0.854-0.015-1.591-0.06-2.266h1.155l0.06,1.44h0.045c0.33-0.977,1.14-1.591,2.025-1.591
			c0.135,0,0.24,0.016,0.36,0.029v1.245c-0.135-0.03-0.27-0.03-0.45-0.03c-0.93,0-1.59,0.69-1.77,1.682
			c-0.03,0.18-0.045,0.404-0.045,0.614v3.869h-1.32V62.825L169.452,62.825z"/>
	</g>
	<g enable-background="new    ">
		<path fill="#0079A3" d="M174.941,64.431c0.03,1.785,1.155,2.521,2.49,2.521c0.945,0,1.53-0.165,2.01-0.375l0.24,0.944
			c-0.465,0.21-1.275,0.465-2.43,0.465c-2.235,0-3.57-1.484-3.57-3.675c0-2.189,1.29-3.899,3.405-3.899c2.385,0,3,2.069,3,3.404
			c0,0.271-0.015,0.466-0.045,0.615H174.941L174.941,64.431z M178.811,63.486c0.015-0.824-0.345-2.13-1.83-2.13
			c-1.35,0-1.92,1.215-2.025,2.13H178.811z"/>
		<path fill="#0079A3" d="M187.931,66.755c0,1.681-0.345,2.686-1.035,3.33c-0.72,0.646-1.74,0.87-2.655,0.87
			c-0.87,0-1.83-0.21-2.415-0.601l0.33-1.021c0.479,0.314,1.229,0.585,2.13,0.585c1.35,0,2.34-0.705,2.34-2.55v-0.795h-0.03
			c-0.39,0.675-1.185,1.215-2.31,1.215c-1.8,0-3.09-1.529-3.09-3.54c0-2.459,1.605-3.84,3.285-3.84c1.26,0,1.935,0.646,2.265,1.244
			h0.03l0.045-1.095h1.17c-0.045,0.51-0.06,1.11-0.06,1.98V66.755L187.931,66.755z M186.611,63.426c0-0.226-0.015-0.42-0.075-0.585
			c-0.24-0.78-0.87-1.41-1.845-1.41c-1.26,0-2.16,1.064-2.16,2.745c0,1.425,0.735,2.609,2.145,2.609c0.825,0,1.56-0.511,1.83-1.351
			c0.075-0.226,0.105-0.479,0.105-0.705V63.426z"/>
		<path fill="#0079A3" d="M196.676,64.131c0,2.685-1.875,3.854-3.615,3.854c-1.95,0-3.48-1.439-3.48-3.734
			c0-2.414,1.605-3.84,3.6-3.84C195.266,60.41,196.676,61.926,196.676,64.131z M190.931,64.205c0,1.59,0.9,2.79,2.19,2.79
			c1.26,0,2.205-1.186,2.205-2.819c0-1.23-0.615-2.775-2.175-2.775C191.606,61.401,190.931,62.841,190.931,64.205z"/>
		<path fill="#0079A3" d="M198.341,62.526c0-0.765-0.015-1.364-0.06-1.965h1.17l0.075,1.2h0.03c0.36-0.675,1.2-1.351,2.4-1.351
			c1.005,0,2.565,0.601,2.565,3.09v4.319h-1.32v-4.185c0-1.17-0.435-2.146-1.68-2.146c-0.855,0-1.53,0.614-1.77,1.351
			c-0.06,0.165-0.09,0.39-0.09,0.614v4.364h-1.32V62.526z"/>
	</g>
	<g enable-background="new    ">
		<path fill="#0079A3" d="M209.876,57.711h1.32v9.015h4.32v1.095h-5.64V57.711L209.876,57.711z"/>
	</g>
	<g enable-background="new    ">
		<path fill="#0079A3" d="M217.451,64.431c0.03,1.785,1.155,2.521,2.49,2.521c0.945,0,1.53-0.165,2.01-0.375l0.24,0.944
			c-0.465,0.21-1.275,0.465-2.43,0.465c-2.235,0-3.57-1.484-3.57-3.675c0-2.189,1.29-3.899,3.405-3.899c2.385,0,3,2.069,3,3.404
			c0,0.271-0.015,0.466-0.045,0.615H217.451L217.451,64.431z M221.321,63.486c0.015-0.824-0.345-2.13-1.83-2.13
			c-1.35,0-1.92,1.215-2.025,2.13H221.321z"/>
	</g>
	<g enable-background="new    ">
		<path fill="#0079A3" d="M230.441,66.755c0,1.681-0.345,2.686-1.035,3.33c-0.72,0.646-1.74,0.87-2.655,0.87
			c-0.87,0-1.83-0.21-2.415-0.601l0.33-1.021c0.48,0.314,1.23,0.585,2.13,0.585c1.35,0,2.34-0.705,2.34-2.55v-0.795h-0.03
			c-0.39,0.675-1.185,1.215-2.31,1.215c-1.8,0-3.09-1.529-3.09-3.54c0-2.459,1.605-3.84,3.285-3.84c1.26,0,1.935,0.646,2.265,1.244
			h0.03l0.045-1.095h1.17c-0.045,0.51-0.06,1.11-0.06,1.98V66.755L230.441,66.755z M229.121,63.426c0-0.226-0.015-0.42-0.075-0.585
			c-0.24-0.78-0.87-1.41-1.845-1.41c-1.26,0-2.16,1.064-2.16,2.745c0,1.425,0.735,2.609,2.145,2.609c0.825,0,1.56-0.511,1.83-1.351
			c0.075-0.226,0.105-0.479,0.105-0.705V63.426z"/>
	</g>
	<g enable-background="new    ">
		<path fill="#0079A3" d="M233.996,58.521c0,0.45-0.315,0.812-0.84,0.812c-0.48,0-0.795-0.36-0.795-0.812s0.33-0.825,0.825-0.825
			C233.666,57.696,233.996,58.056,233.996,58.521z M232.526,67.821v-7.26h1.32v7.26H232.526z"/>
		<path fill="#0079A3" d="M235.856,66.486c0.405,0.24,1.095,0.511,1.755,0.511c0.945,0,1.395-0.465,1.395-1.08
			c0-0.63-0.375-0.96-1.335-1.319c-1.32-0.479-1.935-1.186-1.935-2.055c0-1.171,0.96-2.131,2.505-2.131
			c0.735,0,1.38,0.194,1.77,0.449l-0.315,0.96c-0.285-0.18-0.81-0.435-1.485-0.435c-0.78,0-1.2,0.45-1.2,0.99
			c0,0.6,0.42,0.869,1.365,1.244c1.245,0.466,1.905,1.096,1.905,2.175c0,1.29-1.005,2.189-2.7,2.189c-0.795,0-1.53-0.21-2.04-0.51
			L235.856,66.486z"/>
		<path fill="#0079A3" d="M241.976,57.171h1.32V67.82h-1.32V57.171z"/>
	</g>
	<g enable-background="new    ">
		<path fill="#0079A3" d="M250.616,66.08c0,0.63,0.03,1.245,0.105,1.739h-1.185l-0.105-0.914h-0.045
			c-0.405,0.569-1.185,1.079-2.22,1.079c-1.47,0-2.22-1.034-2.22-2.085c0-1.755,1.56-2.715,4.365-2.699v-0.149
			c0-0.585-0.165-1.681-1.65-1.665c-0.69,0-1.395,0.194-1.905,0.54l-0.3-0.885c0.6-0.375,1.485-0.631,2.4-0.631
			c2.22,0,2.76,1.516,2.76,2.955V66.08z M249.341,64.115c-1.44-0.029-3.075,0.226-3.075,1.635c0,0.87,0.57,1.261,1.23,1.261
			c0.96,0,1.575-0.601,1.785-1.216c0.045-0.149,0.06-0.3,0.06-0.42V64.115z"/>
	</g>
	<g enable-background="new    ">
		<path fill="#0079A3" d="M254.275,58.821v1.74h1.89v1.005h-1.89v3.915c0,0.9,0.255,1.41,0.99,1.41c0.36,0,0.57-0.03,0.765-0.09
			l0.06,1.005c-0.255,0.09-0.66,0.18-1.17,0.18c-0.615,0-1.11-0.21-1.425-0.555c-0.36-0.405-0.51-1.05-0.51-1.905v-3.96h-1.125
			v-1.005h1.125v-1.35L254.275,58.821z"/>
		<path fill="#0079A3" d="M263.725,65.825c0,0.766,0.015,1.425,0.06,1.994h-1.17l-0.075-1.185h-0.03c-0.33,0.585-1.11,1.35-2.4,1.35
			c-1.14,0-2.505-0.646-2.505-3.18V60.56h1.32v4.005c0,1.38,0.435,2.325,1.62,2.325c0.885,0,1.5-0.615,1.74-1.215
			c0.075-0.181,0.12-0.42,0.12-0.676V60.56h1.32V65.825L263.725,65.825z"/>
	</g>
	<g enable-background="new    ">
		<path fill="#0079A3" d="M265.915,62.825c0-0.854-0.015-1.591-0.06-2.266h1.154L267.07,62h0.045
			c0.33-0.977,1.141-1.591,2.025-1.591c0.135,0,0.238,0.016,0.358,0.029v1.245c-0.135-0.03-0.271-0.03-0.449-0.03
			c-0.931,0-1.591,0.69-1.771,1.682c-0.03,0.18-0.045,0.404-0.045,0.614v3.869h-1.32L265.915,62.825L265.915,62.825z"/>
	</g>
	<g enable-background="new    ">
		<path fill="#0079A3" d="M271.404,64.431c0.031,1.785,1.156,2.521,2.49,2.521c0.944,0,1.529-0.165,2.01-0.375l0.24,0.944
			c-0.465,0.21-1.274,0.465-2.431,0.465c-2.233,0-3.569-1.484-3.569-3.675c0-2.189,1.291-3.899,3.404-3.899c2.387,0,3,2.069,3,3.404
			c0,0.271-0.015,0.466-0.045,0.615H271.404L271.404,64.431z M275.275,63.486c0.015-0.824-0.346-2.13-1.83-2.13
			c-1.35,0-1.92,1.215-2.025,2.13H275.275z"/>
		<path fill="#0079A3" d="M286.465,66.08c0,0.63,0.029,1.245,0.105,1.739h-1.187l-0.104-0.914h-0.045
			c-0.404,0.569-1.186,1.079-2.219,1.079c-1.472,0-2.222-1.034-2.222-2.085c0-1.755,1.562-2.715,4.365-2.699v-0.149
			c0-0.585-0.166-1.681-1.65-1.665c-0.688,0-1.396,0.194-1.903,0.54l-0.301-0.885c0.6-0.375,1.484-0.631,2.399-0.631
			c2.22,0,2.76,1.516,2.76,2.955L286.465,66.08L286.465,66.08z M285.189,64.115c-1.439-0.029-3.074,0.226-3.074,1.635
			c0,0.87,0.57,1.261,1.229,1.261c0.961,0,1.575-0.601,1.785-1.216c0.045-0.149,0.061-0.3,0.061-0.42V64.115z"/>
		<path fill="#0079A3" d="M288.596,62.931c0-0.93-0.031-1.68-0.061-2.37h1.17l0.074,1.245h0.031
			c0.523-0.885,1.395-1.396,2.578-1.396c1.771,0,3.09,1.484,3.09,3.676c0,2.608-1.604,3.898-3.313,3.898
			c-0.96,0-1.8-0.42-2.235-1.14H289.9v3.944h-1.307v-7.858H288.596z M289.9,64.865c0,0.194,0.015,0.375,0.06,0.54
			c0.239,0.914,1.034,1.545,1.979,1.545c1.396,0,2.205-1.141,2.205-2.806c0-1.439-0.766-2.685-2.16-2.685
			c-0.899,0-1.754,0.63-1.994,1.619c-0.045,0.165-0.09,0.359-0.09,0.524V64.865z"/>
		<path fill="#0079A3" d="M297.129,62.931c0-0.93-0.029-1.68-0.059-2.37h1.17l0.074,1.245h0.029
			c0.524-0.885,1.396-1.396,2.579-1.396c1.771,0,3.091,1.484,3.091,3.676c0,2.608-1.604,3.898-3.314,3.898
			c-0.959,0-1.801-0.42-2.234-1.14h-0.029v3.944h-1.307V62.931L297.129,62.931z M298.436,64.865c0,0.194,0.015,0.375,0.06,0.54
			c0.239,0.914,1.034,1.545,1.979,1.545c1.396,0,2.205-1.141,2.205-2.806c0-1.439-0.766-2.685-2.16-2.685
			c-0.899,0-1.754,0.63-1.994,1.619c-0.045,0.165-0.09,0.359-0.09,0.524V64.865z"/>
	</g>
	<g enable-background="new    ">
		<path fill="#0079A3" d="M305.665,62.825c0-0.854-0.015-1.591-0.06-2.266h1.153L306.82,62h0.045
			c0.33-0.977,1.141-1.591,2.024-1.591c0.136,0,0.239,0.016,0.359,0.029v1.245c-0.135-0.03-0.27-0.03-0.449-0.03
			c-0.931,0-1.591,0.69-1.771,1.682c-0.03,0.18-0.045,0.404-0.045,0.614v3.869h-1.32L305.665,62.825L305.665,62.825z"/>
	</g>
	<g enable-background="new    ">
		<path fill="#0079A3" d="M316.988,64.131c0,2.685-1.875,3.854-3.614,3.854c-1.95,0-3.479-1.439-3.479-3.734
			c0-2.414,1.604-3.84,3.601-3.84C315.579,60.41,316.988,61.926,316.988,64.131z M311.244,64.205c0,1.59,0.899,2.79,2.188,2.79
			c1.261,0,2.205-1.186,2.205-2.819c0-1.23-0.614-2.775-2.175-2.775C311.919,61.401,311.244,62.841,311.244,64.205z"/>
	</g>
	<g enable-background="new    ">
		<path fill="#0079A3" d="M319.061,60.561l1.425,4.064c0.239,0.676,0.436,1.274,0.586,1.875h0.045
			c0.164-0.601,0.375-1.199,0.615-1.875l1.408-4.064h1.38l-2.85,7.26h-1.26l-2.76-7.26H319.061z"/>
	</g>
	<g enable-background="new    ">
		<path fill="#0079A3" d="M326.35,64.431c0.029,1.785,1.154,2.521,2.49,2.521c0.944,0,1.529-0.165,2.01-0.375l0.24,0.944
			c-0.465,0.21-1.274,0.465-2.431,0.465c-2.235,0-3.569-1.484-3.569-3.675c0-2.189,1.289-3.899,3.404-3.899c2.385,0,3,2.069,3,3.404
			c0,0.271-0.016,0.466-0.045,0.615H326.35L326.35,64.431z M330.219,63.486c0.017-0.824-0.344-2.13-1.83-2.13
			c-1.35,0-1.92,1.215-2.023,2.13H330.219z"/>
		<path fill="#0079A3" d="M332.949,66.486c0.403,0.24,1.095,0.511,1.755,0.511c0.944,0,1.396-0.465,1.396-1.08
			c0-0.63-0.375-0.96-1.336-1.319c-1.318-0.479-1.935-1.186-1.935-2.055c0-1.171,0.96-2.131,2.505-2.131
			c0.734,0,1.38,0.194,1.77,0.449l-0.313,0.96c-0.285-0.18-0.812-0.435-1.484-0.435c-0.78,0-1.2,0.45-1.2,0.99
			c0,0.6,0.42,0.869,1.364,1.244c1.245,0.466,1.905,1.096,1.905,2.175c0,1.29-1.005,2.189-2.7,2.189c-0.795,0-1.528-0.21-2.039-0.51
			L332.949,66.486z"/>
		<path fill="#0079A3" d="M347.35,66.08c0,0.63,0.029,1.245,0.104,1.739h-1.186l-0.104-0.914h-0.045
			c-0.405,0.569-1.187,1.079-2.22,1.079c-1.471,0-2.221-1.034-2.221-2.085c0-1.755,1.561-2.715,4.364-2.699v-0.149
			c0-0.585-0.165-1.681-1.649-1.665c-0.689,0-1.396,0.194-1.904,0.54l-0.3-0.885c0.6-0.375,1.483-0.631,2.399-0.631
			c2.219,0,2.76,1.516,2.76,2.955L347.35,66.08L347.35,66.08z M346.074,64.115c-1.439-0.029-3.075,0.226-3.075,1.635
			c0,0.87,0.57,1.261,1.229,1.261c0.962,0,1.576-0.601,1.785-1.216c0.045-0.149,0.062-0.3,0.062-0.42V64.115z"/>
		<path fill="#0079A3" d="M352.479,66.486c0.405,0.24,1.097,0.511,1.757,0.511c0.943,0,1.395-0.465,1.395-1.08
			c0-0.63-0.375-0.96-1.335-1.319c-1.319-0.479-1.935-1.186-1.935-2.055c0-1.171,0.959-2.131,2.504-2.131
			c0.734,0,1.381,0.194,1.771,0.449l-0.314,0.96c-0.285-0.18-0.811-0.435-1.484-0.435c-0.78,0-1.2,0.45-1.2,0.99
			c0,0.6,0.42,0.869,1.365,1.244c1.245,0.466,1.905,1.096,1.905,2.175c0,1.29-1.006,2.189-2.7,2.189c-0.796,0-1.53-0.21-2.04-0.51
			L352.479,66.486z"/>
		<path fill="#0079A3" d="M365.168,64.131c0,2.685-1.875,3.854-3.614,3.854c-1.95,0-3.479-1.439-3.479-3.734
			c0-2.414,1.604-3.84,3.6-3.84C363.759,60.41,365.168,61.926,365.168,64.131z M359.424,64.205c0,1.59,0.9,2.79,2.189,2.79
			c1.26,0,2.205-1.186,2.205-2.819c0-1.23-0.615-2.775-2.176-2.775C360.099,61.401,359.424,62.841,359.424,64.205z"/>
		<path fill="#0079A3" d="M366.834,57.171h1.32V67.82h-1.32V57.171z"/>
		<path fill="#0079A3" d="M375.474,66.08c0,0.63,0.03,1.245,0.104,1.739h-1.186l-0.104-0.914h-0.045
			c-0.405,0.569-1.187,1.079-2.221,1.079c-1.471,0-2.221-1.034-2.221-2.085c0-1.755,1.561-2.715,4.364-2.699v-0.149
			c0-0.585-0.164-1.681-1.649-1.665c-0.689,0-1.396,0.194-1.904,0.54l-0.299-0.885c0.6-0.375,1.483-0.631,2.398-0.631
			c2.22,0,2.76,1.516,2.76,2.955L375.474,66.08L375.474,66.08z M374.199,64.115c-1.44-0.029-3.076,0.226-3.076,1.635
			c0,0.87,0.57,1.261,1.23,1.261c0.96,0,1.574-0.601,1.784-1.216c0.045-0.149,0.062-0.3,0.062-0.42V64.115L374.199,64.115z"/>
		<path fill="#0079A3" d="M377.604,62.825c0-0.854-0.015-1.591-0.06-2.266h1.155l0.06,1.44h0.045
			c0.33-0.977,1.141-1.591,2.024-1.591c0.135,0,0.24,0.016,0.359,0.029v1.245c-0.135-0.03-0.271-0.03-0.449-0.03
			c-0.931,0-1.59,0.69-1.771,1.682c-0.03,0.18-0.045,0.404-0.045,0.614v3.869h-1.32L377.604,62.825L377.604,62.825z"/>
	</g>
	<g enable-background="new    ">
		<path fill="#0079A3" d="M129.208,85.821v-6.255h-1.005v-1.005h1.005v-0.345c0-1.021,0.24-1.95,0.84-2.535
			c0.495-0.479,1.155-0.675,1.77-0.675c0.48,0,0.87,0.104,1.125,0.21l-0.18,1.02c-0.195-0.09-0.45-0.165-0.84-0.165
			c-1.125,0-1.41,0.977-1.41,2.102v0.39h1.755v1.005h-1.755v6.255L129.208,85.821L129.208,85.821z"/>
	</g>
	<g enable-background="new    ">
		<path fill="#0079A3" d="M133.992,82.431c0.03,1.785,1.155,2.521,2.49,2.521c0.945,0,1.53-0.165,2.01-0.375l0.24,0.944
			c-0.465,0.21-1.275,0.465-2.43,0.465c-2.235,0-3.57-1.484-3.57-3.675c0-2.189,1.29-3.899,3.405-3.899c2.385,0,3,2.069,3,3.404
			c0,0.271-0.015,0.466-0.045,0.615H133.992L133.992,82.431z M137.862,81.486c0.015-0.824-0.345-2.13-1.83-2.13
			c-1.35,0-1.92,1.215-2.025,2.13H137.862z"/>
		<path fill="#0079A3" d="M141.507,82.431c0.03,1.785,1.155,2.521,2.49,2.521c0.945,0,1.53-0.165,2.01-0.375l0.24,0.944
			c-0.465,0.21-1.275,0.465-2.43,0.465c-2.235,0-3.57-1.484-3.57-3.675c0-2.189,1.29-3.899,3.405-3.899c2.385,0,3,2.069,3,3.404
			c0,0.271-0.015,0.466-0.045,0.615H141.507L141.507,82.431z M145.376,81.486c0.015-0.824-0.345-2.13-1.83-2.13
			c-1.35,0-1.92,1.215-2.025,2.13H145.376z"/>
		<path fill="#0079A3" d="M154.542,75.171v8.773c0,0.646,0.03,1.381,0.06,1.875h-1.17l-0.06-1.26h-0.045
			c-0.39,0.811-1.26,1.425-2.445,1.425c-1.755,0-3.12-1.484-3.12-3.688c-0.015-2.415,1.5-3.886,3.255-3.886
			c1.125,0,1.86,0.524,2.19,1.096h0.03v-4.335H154.542z M153.237,81.516c0-0.165-0.015-0.39-0.06-0.555
			c-0.195-0.825-0.915-1.517-1.905-1.517c-1.365,0-2.175,1.2-2.175,2.79c0,1.471,0.735,2.686,2.145,2.686
			c0.885,0,1.695-0.601,1.935-1.574c0.045-0.181,0.06-0.36,0.06-0.57V81.516z"/>
		<path fill="#0079A3" d="M159.807,81.29v0.96h-3.705v-0.96H159.807z"/>
		<path fill="#0079A3" d="M162.822,76.521c0,0.45-0.315,0.812-0.84,0.812c-0.48,0-0.795-0.36-0.795-0.812s0.33-0.825,0.825-0.825
			C162.492,75.696,162.822,76.056,162.822,76.521z M161.352,85.821v-7.26h1.32v7.26H161.352z"/>
		<path fill="#0079A3" d="M164.861,80.526c0-0.765-0.015-1.364-0.06-1.965h1.17l0.075,1.2h0.03c0.36-0.675,1.2-1.351,2.4-1.351
			c1.005,0,2.565,0.601,2.565,3.09v4.319h-1.32v-4.185c0-1.17-0.435-2.146-1.68-2.146c-0.855,0-1.53,0.614-1.77,1.351
			c-0.06,0.165-0.09,0.39-0.09,0.614v4.364h-1.32V80.526L164.861,80.526z"/>
		<path fill="#0079A3" d="M177.957,76.821v1.74h1.89v1.005h-1.89v3.915c0,0.9,0.255,1.41,0.99,1.41c0.36,0,0.57-0.03,0.765-0.09
			l0.06,1.005c-0.255,0.09-0.66,0.18-1.17,0.18c-0.615,0-1.11-0.21-1.425-0.555c-0.36-0.405-0.51-1.05-0.51-1.905v-3.96h-1.125
			v-1.005h1.125v-1.35L177.957,76.821z"/>
		<path fill="#0079A3" d="M186.431,84.08c0,0.63,0.03,1.245,0.105,1.739h-1.185l-0.105-0.914h-0.045
			c-0.405,0.569-1.185,1.079-2.22,1.079c-1.47,0-2.22-1.034-2.22-2.085c0-1.755,1.56-2.715,4.365-2.699v-0.149
			c0-0.585-0.165-1.681-1.65-1.665c-0.69,0-1.395,0.194-1.905,0.54l-0.3-0.885c0.6-0.375,1.485-0.631,2.4-0.631
			c2.22,0,2.76,1.516,2.76,2.955V84.08z M185.156,82.115c-1.44-0.029-3.075,0.226-3.075,1.635c0,0.87,0.57,1.261,1.23,1.261
			c0.96,0,1.575-0.601,1.785-1.216c0.045-0.149,0.06-0.3,0.06-0.42V82.115z"/>
	</g>
	<g enable-background="new    ">
		<path fill="#0079A3" d="M188.561,80.825c0-0.854-0.015-1.591-0.06-2.266h1.155l0.06,1.44h0.045c0.33-0.977,1.14-1.591,2.025-1.591
			c0.135,0,0.24,0.016,0.36,0.029v1.245c-0.135-0.03-0.27-0.03-0.45-0.03c-0.93,0-1.59,0.69-1.77,1.682
			c-0.03,0.18-0.045,0.404-0.045,0.614v3.869h-1.32V80.825L188.561,80.825z"/>
	</g>
	<g enable-background="new    ">
		<path fill="#0079A3" d="M194.996,76.521c0,0.45-0.315,0.812-0.84,0.812c-0.48,0-0.795-0.36-0.795-0.812s0.33-0.825,0.825-0.825
			C194.666,75.696,194.996,76.056,194.996,76.521z M193.526,85.821v-7.26h1.32v7.26H193.526z"/>
		<path fill="#0079A3" d="M201.536,85.821v-6.255h-3.06v6.255h-1.305v-6.255h-1.005v-1.005h1.005v-0.225
			c0-1.021,0.24-1.892,0.81-2.477c0.42-0.42,1.02-0.675,1.83-0.675c0.42,0,0.81,0.135,1.035,0.255l-0.27,0.99
			c-0.195-0.104-0.48-0.195-0.78-0.195c-1.035,0-1.32,0.887-1.32,2.025v0.3h3.06v-0.345c0-1.021,0.225-1.95,0.84-2.535
			c0.495-0.479,1.155-0.675,1.755-0.675c0.48,0,0.885,0.104,1.125,0.21l-0.165,1.02c-0.21-0.09-0.465-0.165-0.855-0.165
			c-1.11,0-1.395,0.977-1.395,2.102v0.39h1.74v1.005h-1.74v6.255H201.536z"/>
		<path fill="#0079A3" d="M208.96,80.931c0-0.93-0.03-1.68-0.06-2.37h1.17l0.075,1.245h0.03c0.525-0.885,1.395-1.396,2.58-1.396
			c1.77,0,3.09,1.484,3.09,3.676c0,2.608-1.605,3.898-3.314,3.898c-0.96,0-1.8-0.42-2.235-1.14h-0.03v3.944h-1.305L208.96,80.931
			L208.96,80.931z M210.266,82.865c0,0.194,0.015,0.375,0.06,0.54c0.24,0.914,1.035,1.545,1.98,1.545
			c1.395,0,2.205-1.141,2.205-2.806c0-1.439-0.765-2.685-2.16-2.685c-0.9,0-1.755,0.63-1.995,1.619
			c-0.045,0.165-0.09,0.359-0.09,0.524V82.865z"/>
		<path fill="#0079A3" d="M218.965,76.521c0,0.45-0.315,0.812-0.84,0.812c-0.48,0-0.795-0.36-0.795-0.812s0.33-0.825,0.825-0.825
			C218.635,75.696,218.965,76.056,218.965,76.521z M217.495,85.821v-7.26h1.32v7.26H217.495z"/>
		<path fill="#0079A3" d="M221.005,75.171h1.32V85.82h-1.32V75.171z"/>
		<path fill="#0079A3" d="M231.115,82.131c0,2.685-1.875,3.854-3.615,3.854c-1.95,0-3.48-1.439-3.48-3.734
			c0-2.414,1.605-3.84,3.6-3.84C229.705,78.41,231.115,79.926,231.115,82.131z M225.37,82.205c0,1.59,0.9,2.79,2.19,2.79
			c1.26,0,2.205-1.186,2.205-2.819c0-1.23-0.615-2.775-2.175-2.775C226.045,79.401,225.37,80.841,225.37,82.205z"/>
	</g>
	<g enable-background="new    ">
		<path fill="#0079A3" d="M234.371,76.821v1.74h1.89v1.005h-1.89v3.915c0,0.9,0.255,1.41,0.99,1.41c0.36,0,0.57-0.03,0.765-0.09
			l0.06,1.005c-0.255,0.09-0.66,0.18-1.17,0.18c-0.615,0-1.11-0.21-1.425-0.555c-0.36-0.405-0.51-1.05-0.51-1.905v-3.96h-1.125
			v-1.005h1.125v-1.35L234.371,76.821z"/>
	</g>
	<g enable-background="new    ">
		<path fill="#0079A3" d="M236.847,87.681c0.33-0.899,0.735-2.505,0.9-3.601l1.47-0.149c-0.36,1.274-1.02,2.939-1.44,3.646
			L236.847,87.681z"/>
		<path fill="#0079A3" d="M243.986,80.526c0-0.765-0.03-1.364-0.06-1.965h1.155l0.06,1.186h0.045
			c0.405-0.689,1.08-1.335,2.295-1.335c0.975,0,1.725,0.601,2.04,1.455h0.03c0.225-0.421,0.525-0.721,0.825-0.944
			c0.435-0.33,0.9-0.511,1.59-0.511c0.975,0,2.4,0.631,2.4,3.149v4.26h-1.29v-4.095c0-1.41-0.525-2.234-1.575-2.234
			c-0.765,0-1.335,0.556-1.575,1.186c-0.06,0.194-0.105,0.42-0.105,0.66v4.483h-1.29v-4.35c0-1.155-0.51-1.979-1.515-1.979
			c-0.81,0-1.425,0.659-1.635,1.319c-0.075,0.181-0.105,0.42-0.105,0.646v4.364h-1.29V80.526L243.986,80.526z"/>
		<path fill="#0079A3" d="M263.065,82.131c0,2.685-1.875,3.854-3.615,3.854c-1.95,0-3.48-1.439-3.48-3.734
			c0-2.414,1.605-3.84,3.6-3.84C261.656,78.41,263.065,79.926,263.065,82.131z M257.321,82.205c0,1.59,0.9,2.79,2.19,2.79
			c1.26,0,2.205-1.186,2.205-2.819c0-1.23-0.615-2.775-2.175-2.775C257.996,79.401,257.321,80.841,257.321,82.205z"/>
		<path fill="#0079A3" d="M270.986,75.171v8.773c0,0.646,0.029,1.381,0.06,1.875h-1.17l-0.06-1.26h-0.045
			c-0.392,0.811-1.261,1.425-2.445,1.425c-1.755,0-3.12-1.484-3.12-3.688c-0.015-2.415,1.5-3.886,3.255-3.886
			c1.125,0,1.859,0.524,2.189,1.096h0.031v-4.335H270.986z M269.682,81.516c0-0.165-0.016-0.39-0.061-0.555
			c-0.195-0.825-0.915-1.517-1.905-1.517c-1.364,0-2.175,1.2-2.175,2.79c0,1.471,0.734,2.686,2.145,2.686
			c0.885,0,1.695-0.601,1.937-1.574c0.045-0.181,0.062-0.36,0.062-0.57v-1.26H269.682z"/>
		<path fill="#0079A3" d="M273.926,82.431c0.029,1.785,1.154,2.521,2.49,2.521c0.943,0,1.529-0.165,2.01-0.375l0.24,0.944
			c-0.465,0.21-1.275,0.465-2.432,0.465c-2.234,0-3.568-1.484-3.568-3.675c0-2.189,1.289-3.899,3.404-3.899c2.385,0,3,2.069,3,3.404
			c0,0.271-0.016,0.466-0.045,0.615H273.926L273.926,82.431z M277.795,81.486c0.016-0.824-0.344-2.13-1.83-2.13
			c-1.35,0-1.92,1.215-2.023,2.13H277.795z"/>
		<path fill="#0079A3" d="M280.705,75.171h1.32V85.82h-1.32V75.171z"/>
		<path fill="#0079A3" d="M284.98,82.431c0.029,1.785,1.154,2.521,2.49,2.521c0.944,0,1.528-0.165,2.01-0.375l0.24,0.944
			c-0.466,0.21-1.275,0.465-2.431,0.465c-2.235,0-3.569-1.484-3.569-3.675c0-2.189,1.289-3.899,3.403-3.899c2.386,0,3,2.069,3,3.404
			c0,0.271-0.015,0.466-0.045,0.615H284.98L284.98,82.431z M288.852,81.486c0.015-0.824-0.346-2.13-1.83-2.13
			c-1.351,0-1.92,1.215-2.024,2.13H288.852z"/>
		<path fill="#0079A3" d="M298.016,75.171v8.773c0,0.646,0.029,1.381,0.061,1.875h-1.17l-0.061-1.26h-0.045
			c-0.391,0.811-1.26,1.425-2.445,1.425c-1.754,0-3.119-1.484-3.119-3.688c-0.016-2.415,1.5-3.886,3.255-3.886
			c1.125,0,1.858,0.524,2.188,1.096h0.031v-4.335H298.016z M296.711,81.516c0-0.165-0.016-0.39-0.061-0.555
			c-0.195-0.825-0.916-1.517-1.905-1.517c-1.364,0-2.175,1.2-2.175,2.79c0,1.471,0.734,2.686,2.145,2.686
			c0.885,0,1.695-0.601,1.936-1.574c0.045-0.181,0.062-0.36,0.062-0.57L296.711,81.516L296.711,81.516z"/>
		<path fill="#0079A3" d="M309.97,82.131c0,2.685-1.875,3.854-3.613,3.854c-1.95,0-3.48-1.439-3.48-3.734
			c0-2.414,1.604-3.84,3.6-3.84C308.561,78.41,309.97,79.926,309.97,82.131z M304.225,82.205c0,1.59,0.9,2.79,2.19,2.79
			c1.26,0,2.205-1.186,2.205-2.819c0-1.23-0.615-2.775-2.175-2.775C304.9,79.401,304.225,80.841,304.225,82.205z"/>
		<path fill="#0079A3" d="M311.635,80.526c0-0.765-0.014-1.364-0.059-1.965h1.17l0.074,1.2h0.029c0.36-0.675,1.2-1.351,2.399-1.351
			c1.006,0,2.565,0.601,2.565,3.09v4.319h-1.32v-4.185c0-1.17-0.436-2.146-1.68-2.146c-0.854,0-1.53,0.614-1.771,1.351
			c-0.06,0.165-0.09,0.39-0.09,0.614v4.364h-1.32v-5.293H311.635z"/>
		<path fill="#0079A3" d="M322.96,84.486c0.405,0.24,1.095,0.511,1.755,0.511c0.945,0,1.396-0.465,1.396-1.08
			c0-0.63-0.375-0.96-1.334-1.319c-1.32-0.479-1.937-1.186-1.937-2.055c0-1.171,0.96-2.131,2.505-2.131
			c0.735,0,1.38,0.194,1.771,0.449l-0.315,0.96c-0.285-0.18-0.81-0.435-1.484-0.435c-0.779,0-1.199,0.45-1.199,0.99
			c0,0.6,0.42,0.869,1.365,1.244c1.243,0.466,1.903,1.096,1.903,2.175c0,1.29-1.005,2.189-2.7,2.189c-0.795,0-1.529-0.21-2.04-0.51
			L322.96,84.486z"/>
		<path fill="#0079A3" d="M335.154,83.825c0,0.766,0.016,1.425,0.061,1.994h-1.17l-0.075-1.185h-0.029
			c-0.33,0.585-1.109,1.35-2.4,1.35c-1.139,0-2.504-0.646-2.504-3.18V78.56h1.32v4.005c0,1.38,0.434,2.325,1.618,2.325
			c0.886,0,1.5-0.615,1.74-1.215c0.074-0.181,0.119-0.42,0.119-0.676V78.56h1.32V83.825L335.154,83.825z"/>
	</g>
	<g enable-background="new    ">
		<path fill="#0079A3" d="M342.52,85.566c-0.346,0.165-1.109,0.42-2.085,0.42c-2.189,0-3.614-1.484-3.614-3.704
			c0-2.234,1.529-3.87,3.898-3.87c0.781,0,1.472,0.194,1.83,0.391l-0.299,1.005c-0.316-0.165-0.811-0.345-1.531-0.345
			c-1.664,0-2.563,1.244-2.563,2.744c0,1.681,1.08,2.715,2.52,2.715c0.75,0,1.246-0.18,1.621-0.345L342.52,85.566z"/>
		<path fill="#0079A3" d="M349.148,85.566c-0.345,0.165-1.109,0.42-2.084,0.42c-2.189,0-3.615-1.484-3.615-3.704
			c0-2.234,1.529-3.87,3.899-3.87c0.779,0,1.471,0.194,1.83,0.391l-0.301,1.005c-0.313-0.165-0.81-0.345-1.529-0.345
			c-1.666,0-2.564,1.244-2.564,2.744c0,1.681,1.08,2.715,2.521,2.715c0.75,0,1.244-0.18,1.619-0.345L349.148,85.566z"/>
	</g>
	<g enable-background="new    ">
		<path fill="#0079A3" d="M351.34,82.431c0.029,1.785,1.154,2.521,2.489,2.521c0.944,0,1.53-0.165,2.01-0.375l0.24,0.944
			c-0.465,0.21-1.274,0.465-2.431,0.465c-2.234,0-3.569-1.484-3.569-3.675c0-2.189,1.29-3.899,3.405-3.899c2.385,0,3,2.069,3,3.404
			c0,0.271-0.017,0.466-0.045,0.615H351.34L351.34,82.431z M355.209,81.486c0.016-0.824-0.345-2.13-1.83-2.13
			c-1.35,0-1.92,1.215-2.024,2.13H355.209z"/>
		<path fill="#0079A3" d="M357.939,84.486c0.403,0.24,1.094,0.511,1.754,0.511c0.944,0,1.396-0.465,1.396-1.08
			c0-0.63-0.375-0.96-1.335-1.319c-1.32-0.479-1.936-1.186-1.936-2.055c0-1.171,0.961-2.131,2.506-2.131
			c0.733,0,1.379,0.194,1.77,0.449l-0.313,0.96c-0.285-0.18-0.812-0.435-1.485-0.435c-0.78,0-1.2,0.45-1.2,0.99
			c0,0.6,0.42,0.869,1.365,1.244c1.244,0.466,1.904,1.096,1.904,2.175c0,1.29-1.004,2.189-2.699,2.189c-0.795,0-1.53-0.21-2.04-0.51
			L357.939,84.486z"/>
		<path fill="#0079A3" d="M363.879,84.486c0.404,0.24,1.095,0.511,1.755,0.511c0.944,0,1.396-0.465,1.396-1.08
			c0-0.63-0.375-0.96-1.336-1.319c-1.319-0.479-1.936-1.186-1.936-2.055c0-1.171,0.96-2.131,2.505-2.131
			c0.734,0,1.38,0.194,1.771,0.449l-0.314,0.96c-0.285-0.18-0.811-0.435-1.483-0.435c-0.781,0-1.201,0.45-1.201,0.99
			c0,0.6,0.42,0.869,1.365,1.244c1.244,0.466,1.904,1.096,1.904,2.175c0,1.29-1.005,2.189-2.699,2.189
			c-0.796,0-1.529-0.21-2.039-0.51L363.879,84.486z"/>
		<path fill="#0079A3" d="M370.134,85.821v-6.255h-1.005v-1.005h1.005v-0.345c0-1.021,0.239-1.95,0.84-2.535
			c0.495-0.479,1.155-0.675,1.771-0.675c0.479,0,0.869,0.104,1.125,0.21l-0.181,1.02c-0.194-0.09-0.45-0.165-0.841-0.165
			c-1.125,0-1.409,0.977-1.409,2.102v0.39h1.755v1.005h-1.755v6.255L370.134,85.821L370.134,85.821z"/>
		<path fill="#0079A3" d="M380.453,83.825c0,0.766,0.016,1.425,0.061,1.994h-1.17l-0.075-1.185h-0.029
			c-0.33,0.585-1.109,1.35-2.4,1.35c-1.139,0-2.504-0.646-2.504-3.18V78.56h1.32v4.005c0,1.38,0.434,2.325,1.619,2.325
			c0.885,0,1.5-0.615,1.739-1.215c0.074-0.181,0.119-0.42,0.119-0.676V78.56h1.32V83.825L380.453,83.825z"/>
		<path fill="#0079A3" d="M382.644,75.171h1.32V85.82h-1.32V75.171z"/>
	</g>
	<g enable-background="new    ">
		<path fill="#0079A3" d="M150.297,103.821v-6.255h-1.005v-1.005h1.005v-0.345c0-1.021,0.24-1.95,0.84-2.535
			c0.495-0.479,1.155-0.675,1.77-0.675c0.48,0,0.87,0.104,1.125,0.21l-0.18,1.02c-0.195-0.09-0.45-0.165-0.84-0.165
			c-1.125,0-1.41,0.977-1.41,2.102v0.39h1.755v1.005h-1.755v6.255L150.297,103.821L150.297,103.821z"/>
	</g>
	<g enable-background="new    ">
		<path fill="#0079A3" d="M155.083,100.431c0.03,1.785,1.155,2.521,2.49,2.521c0.945,0,1.53-0.165,2.01-0.375l0.24,0.944
			c-0.465,0.21-1.275,0.465-2.43,0.465c-2.235,0-3.57-1.484-3.57-3.675c0-2.189,1.29-3.899,3.405-3.899c2.385,0,3,2.069,3,3.404
			c0,0.271-0.015,0.466-0.045,0.615H155.083L155.083,100.431z M158.952,99.486c0.015-0.824-0.345-2.13-1.83-2.13
			c-1.35,0-1.92,1.215-2.025,2.13H158.952z"/>
		<path fill="#0079A3" d="M162.597,100.431c0.03,1.785,1.155,2.521,2.49,2.521c0.945,0,1.53-0.165,2.01-0.375l0.24,0.944
			c-0.465,0.21-1.275,0.465-2.43,0.465c-2.235,0-3.57-1.484-3.57-3.675c0-2.189,1.29-3.899,3.405-3.899c2.385,0,3,2.069,3,3.404
			c0,0.271-0.015,0.466-0.045,0.615H162.597L162.597,100.431z M166.467,99.486c0.015-0.824-0.345-2.13-1.83-2.13
			c-1.35,0-1.92,1.215-2.025,2.13H166.467z"/>
		<path fill="#0079A3" d="M175.632,93.171v8.773c0,0.646,0.03,1.381,0.06,1.875h-1.17l-0.06-1.26h-0.045
			c-0.39,0.811-1.26,1.425-2.445,1.425c-1.755,0-3.12-1.484-3.12-3.688c-0.015-2.415,1.5-3.886,3.255-3.886
			c1.125,0,1.86,0.524,2.19,1.096h0.03v-4.335H175.632z M174.327,99.516c0-0.165-0.015-0.39-0.06-0.555
			c-0.195-0.825-0.915-1.517-1.905-1.517c-1.365,0-2.175,1.2-2.175,2.79c0,1.471,0.735,2.686,2.145,2.686
			c0.885,0,1.695-0.601,1.935-1.574c0.045-0.181,0.06-0.36,0.06-0.57V99.516z"/>
		<path fill="#0079A3" d="M180.897,99.29v0.96h-3.705v-0.96H180.897z"/>
		<path fill="#0079A3" d="M183.912,94.521c0,0.45-0.315,0.812-0.84,0.812c-0.48,0-0.795-0.36-0.795-0.812s0.33-0.825,0.825-0.825
			C183.582,93.696,183.912,94.056,183.912,94.521z M182.442,103.821v-7.26h1.32v7.26H182.442z"/>
		<path fill="#0079A3" d="M185.952,98.526c0-0.765-0.015-1.364-0.06-1.965h1.17l0.075,1.2h0.03c0.36-0.675,1.2-1.351,2.4-1.351
			c1.005,0,2.565,0.601,2.565,3.09v4.319h-1.32v-4.185c0-1.17-0.435-2.146-1.68-2.146c-0.855,0-1.53,0.614-1.77,1.351
			c-0.06,0.165-0.09,0.39-0.09,0.614v4.364h-1.32V98.526L185.952,98.526z"/>
		<path fill="#0079A3" d="M199.047,94.821v1.74h1.89v1.005h-1.89v3.915c0,0.9,0.255,1.41,0.99,1.41c0.36,0,0.57-0.03,0.765-0.09
			l0.06,1.005c-0.255,0.09-0.66,0.18-1.17,0.18c-0.615,0-1.11-0.21-1.425-0.555c-0.36-0.405-0.51-1.05-0.51-1.905v-3.96h-1.125
			v-1.005h1.125v-1.35L199.047,94.821z"/>
		<path fill="#0079A3" d="M207.521,102.08c0,0.63,0.03,1.245,0.105,1.739h-1.185l-0.105-0.914h-0.045
			c-0.405,0.569-1.185,1.079-2.22,1.079c-1.47,0-2.22-1.034-2.22-2.085c0-1.755,1.56-2.715,4.365-2.699v-0.149
			c0-0.585-0.165-1.681-1.65-1.665c-0.69,0-1.395,0.194-1.905,0.54l-0.3-0.885c0.6-0.375,1.485-0.631,2.4-0.631
			c2.22,0,2.76,1.516,2.76,2.955V102.08z M206.247,100.115c-1.44-0.029-3.075,0.226-3.075,1.635c0,0.87,0.57,1.261,1.23,1.261
			c0.96,0,1.575-0.601,1.785-1.216c0.045-0.149,0.06-0.3,0.06-0.42V100.115z"/>
	</g>
	<g enable-background="new    ">
		<path fill="#0079A3" d="M209.651,98.825c0-0.854-0.015-1.591-0.06-2.266h1.155l0.06,1.44h0.045c0.33-0.977,1.14-1.591,2.025-1.591
			c0.135,0,0.24,0.016,0.36,0.029v1.245c-0.135-0.03-0.27-0.03-0.45-0.03c-0.93,0-1.59,0.69-1.77,1.682
			c-0.03,0.18-0.045,0.404-0.045,0.614v3.869h-1.32V98.825z"/>
	</g>
	<g enable-background="new    ">
		<path fill="#0079A3" d="M216.086,94.521c0,0.45-0.315,0.812-0.84,0.812c-0.48,0-0.795-0.36-0.795-0.812s0.33-0.825,0.825-0.825
			C215.756,93.696,216.086,94.056,216.086,94.521z M214.616,103.821v-7.26h1.32v7.26H214.616z"/>
		<path fill="#0079A3" d="M222.626,103.821v-6.255h-3.06v6.255h-1.305v-6.255h-1.005v-1.005h1.005v-0.225
			c0-1.021,0.24-1.892,0.81-2.477c0.42-0.42,1.02-0.675,1.83-0.675c0.42,0,0.81,0.135,1.035,0.255l-0.27,0.99
			c-0.195-0.104-0.48-0.195-0.78-0.195c-1.035,0-1.32,0.887-1.32,2.025v0.3h3.06v-0.345c0-1.021,0.225-1.95,0.84-2.535
			c0.495-0.479,1.155-0.675,1.755-0.675c0.48,0,0.885,0.104,1.125,0.21l-0.165,1.02c-0.21-0.09-0.465-0.165-0.855-0.165
			c-1.11,0-1.395,0.977-1.395,2.102v0.39h1.74v1.005h-1.74v6.255H222.626z"/>
		<path fill="#0079A3" d="M230.051,98.931c0-0.93-0.03-1.68-0.06-2.37h1.17l0.075,1.245h0.03c0.525-0.885,1.395-1.396,2.58-1.396
			c1.77,0,3.09,1.484,3.09,3.676c0,2.608-1.605,3.898-3.314,3.898c-0.96,0-1.8-0.42-2.235-1.14h-0.03v3.944h-1.305L230.051,98.931
			L230.051,98.931z M231.356,100.865c0,0.194,0.015,0.375,0.06,0.54c0.24,0.914,1.035,1.545,1.98,1.545
			c1.395,0,2.205-1.141,2.205-2.806c0-1.439-0.765-2.685-2.16-2.685c-0.9,0-1.755,0.63-1.995,1.619
			c-0.045,0.165-0.09,0.359-0.09,0.524V100.865z"/>
	</g>
	<g enable-background="new    ">
		<path fill="#0079A3" d="M238.585,98.825c0-0.854-0.015-1.591-0.06-2.266h1.155l0.06,1.44h0.045c0.33-0.977,1.14-1.591,2.025-1.591
			c0.135,0,0.24,0.016,0.36,0.029v1.245c-0.135-0.03-0.27-0.03-0.45-0.03c-0.93,0-1.59,0.69-1.77,1.682
			c-0.03,0.18-0.045,0.404-0.045,0.614v3.869h-1.32V98.825L238.585,98.825z"/>
	</g>
	<g enable-background="new    ">
		<path fill="#0079A3" d="M249.91,100.131c0,2.685-1.875,3.854-3.615,3.854c-1.95,0-3.48-1.439-3.48-3.734
			c0-2.414,1.605-3.84,3.6-3.84C248.5,96.41,249.91,97.926,249.91,100.131z M244.165,100.205c0,1.59,0.9,2.79,2.19,2.79
			c1.26,0,2.205-1.186,2.205-2.819c0-1.23-0.615-2.775-2.175-2.775C244.84,97.401,244.165,98.841,244.165,100.205z"/>
	</g>
	<g enable-background="new    ">
		<path fill="#0079A3" d="M257.785,102.755c0,1.681-0.345,2.686-1.035,3.33c-0.72,0.646-1.74,0.87-2.655,0.87
			c-0.87,0-1.83-0.21-2.415-0.601l0.33-1.021c0.48,0.314,1.23,0.585,2.13,0.585c1.35,0,2.34-0.705,2.34-2.55v-0.795h-0.03
			c-0.39,0.675-1.185,1.215-2.31,1.215c-1.8,0-3.09-1.529-3.09-3.54c0-2.459,1.605-3.84,3.285-3.84c1.26,0,1.935,0.646,2.265,1.244
			h0.03l0.045-1.095h1.17c-0.045,0.51-0.06,1.11-0.06,1.98V102.755L257.785,102.755z M256.465,99.426
			c0-0.226-0.015-0.42-0.075-0.585c-0.24-0.78-0.87-1.41-1.845-1.41c-1.26,0-2.16,1.064-2.16,2.745c0,1.425,0.735,2.609,2.145,2.609
			c0.825,0,1.56-0.511,1.83-1.351c0.075-0.226,0.105-0.479,0.105-0.705V99.426z"/>
	</g>
	<g enable-background="new    ">
		<path fill="#0079A3" d="M259.87,98.825c0-0.854-0.015-1.591-0.06-2.266h1.155l0.06,1.44h0.045c0.33-0.977,1.14-1.591,2.025-1.591
			c0.135,0,0.24,0.016,0.36,0.029v1.245c-0.135-0.03-0.27-0.03-0.45-0.03c-0.93,0-1.59,0.69-1.77,1.682
			c-0.03,0.18-0.045,0.404-0.045,0.614v3.869h-1.32V98.825L259.87,98.825z"/>
	</g>
	<g enable-background="new    ">
		<path fill="#0079A3" d="M269.801,102.08c0,0.63,0.029,1.245,0.104,1.739h-1.184l-0.105-0.914h-0.045
			c-0.405,0.569-1.187,1.079-2.221,1.079c-1.47,0-2.22-1.034-2.22-2.085c0-1.755,1.56-2.715,4.365-2.699v-0.149
			c0-0.585-0.165-1.681-1.649-1.665c-0.689,0-1.396,0.194-1.905,0.54l-0.3-0.885c0.6-0.375,1.484-0.631,2.4-0.631
			c2.219,0,2.76,1.516,2.76,2.955V102.08z M268.525,100.115c-1.439-0.029-3.075,0.226-3.075,1.635c0,0.87,0.569,1.261,1.229,1.261
			c0.961,0,1.575-0.601,1.784-1.216c0.045-0.149,0.062-0.3,0.062-0.42V100.115z"/>
		<path fill="#0079A3" d="M271.93,98.526c0-0.765-0.029-1.364-0.059-1.965h1.154l0.061,1.186h0.045
			c0.404-0.689,1.08-1.335,2.295-1.335c0.975,0,1.725,0.601,2.039,1.455h0.03c0.226-0.421,0.524-0.721,0.825-0.944
			c0.435-0.33,0.9-0.511,1.59-0.511c0.975,0,2.4,0.631,2.4,3.149v4.26h-1.291v-4.095c0-1.41-0.524-2.234-1.574-2.234
			c-0.766,0-1.336,0.556-1.575,1.186c-0.06,0.194-0.104,0.42-0.104,0.66v4.483h-1.291v-4.35c0-1.155-0.51-1.979-1.514-1.979
			c-0.811,0-1.426,0.659-1.636,1.319c-0.075,0.181-0.104,0.42-0.104,0.646v4.364h-1.291V98.526L271.93,98.526z"/>
		<path fill="#0079A3" d="M284.26,102.486c0.405,0.24,1.096,0.511,1.756,0.511c0.944,0,1.396-0.465,1.396-1.08
			c0-0.63-0.375-0.96-1.335-1.319c-1.319-0.479-1.936-1.186-1.936-2.055c0-1.171,0.959-2.131,2.504-2.131
			c0.735,0,1.381,0.194,1.771,0.449l-0.314,0.96c-0.285-0.18-0.811-0.435-1.484-0.435c-0.78,0-1.2,0.45-1.2,0.99
			c0,0.6,0.42,0.869,1.365,1.244c1.245,0.466,1.905,1.096,1.905,2.175c0,1.29-1.006,2.189-2.701,2.189
			c-0.795,0-1.529-0.21-2.039-0.51L284.26,102.486z"/>
		<path fill="#0079A3" d="M295.029,94.521c0,0.45-0.314,0.812-0.84,0.812c-0.479,0-0.795-0.36-0.795-0.812s0.33-0.825,0.826-0.825
			C294.7,93.696,295.029,94.056,295.029,94.521z M293.561,103.821v-7.26h1.32v7.26H293.561z"/>
		<path fill="#0079A3" d="M297.07,98.526c0-0.765-0.016-1.364-0.062-1.965h1.171l0.074,1.2h0.03
			c0.358-0.675,1.198-1.351,2.399-1.351c1.004,0,2.564,0.601,2.564,3.09v4.319h-1.32v-4.185c0-1.17-0.435-2.146-1.68-2.146
			c-0.855,0-1.529,0.614-1.77,1.351c-0.062,0.165-0.09,0.39-0.09,0.614v4.364h-1.32v-5.293H297.07z"/>
	</g>
	<g enable-background="new    ">
		<path fill="#0079A3" d="M316.329,103.37c-0.585,0.226-1.755,0.556-3.12,0.556c-1.529,0-2.789-0.391-3.779-1.335
			c-0.87-0.841-1.41-2.19-1.41-3.766c0-3.016,2.086-5.221,5.476-5.221c1.17,0,2.1,0.255,2.535,0.465l-0.33,1.065
			c-0.54-0.255-1.215-0.435-2.234-0.435c-2.461,0-4.064,1.528-4.064,4.063c0,2.564,1.529,4.08,3.898,4.08
			c0.855,0,1.44-0.12,1.74-0.271v-3.016H313v-1.05h3.33L316.329,103.37L316.329,103.37z"/>
	</g>
	<g enable-background="new    ">
		<path fill="#0079A3" d="M319.074,100.431c0.028,1.785,1.153,2.521,2.49,2.521c0.943,0,1.528-0.165,2.01-0.375l0.24,0.944
			c-0.466,0.21-1.275,0.465-2.432,0.465c-2.234,0-3.568-1.484-3.568-3.675c0-2.189,1.288-3.899,3.403-3.899c2.385,0,3,2.069,3,3.404
			c0,0.271-0.015,0.466-0.045,0.615H319.074L319.074,100.431z M322.943,99.486c0.016-0.824-0.345-2.13-1.83-2.13
			c-1.351,0-1.92,1.215-2.024,2.13H322.943z"/>
	</g>
	<g enable-background="new    ">
		<path fill="#0079A3" d="M325.854,98.825c0-0.854-0.014-1.591-0.059-2.266h1.154L327.01,98h0.045
			c0.33-0.977,1.141-1.591,2.024-1.591c0.135,0,0.239,0.016,0.36,0.029v1.245c-0.136-0.03-0.271-0.03-0.45-0.03
			c-0.932,0-1.591,0.69-1.771,1.682c-0.028,0.18-0.045,0.404-0.045,0.614v3.869h-1.32L325.854,98.825L325.854,98.825z"/>
	</g>
	<g enable-background="new    ">
		<path fill="#0079A3" d="M330.818,98.526c0-0.765-0.029-1.364-0.06-1.965h1.154l0.061,1.186h0.045
			c0.404-0.689,1.08-1.335,2.296-1.335c0.975,0,1.725,0.601,2.039,1.455h0.029c0.227-0.421,0.524-0.721,0.825-0.944
			c0.437-0.33,0.9-0.511,1.59-0.511c0.976,0,2.4,0.631,2.4,3.149v4.26h-1.291v-4.095c0-1.41-0.524-2.234-1.574-2.234
			c-0.766,0-1.335,0.556-1.575,1.186c-0.06,0.194-0.104,0.42-0.104,0.66v4.483h-1.291v-4.35c0-1.155-0.51-1.979-1.515-1.979
			c-0.811,0-1.426,0.659-1.636,1.319c-0.075,0.181-0.104,0.42-0.104,0.646v4.364h-1.291V98.526L330.818,98.526z"/>
		<path fill="#0079A3" d="M348.429,102.08c0,0.63,0.03,1.245,0.104,1.739h-1.186l-0.104-0.914h-0.045
			c-0.406,0.569-1.187,1.079-2.222,1.079c-1.47,0-2.22-1.034-2.22-2.085c0-1.755,1.561-2.715,4.364-2.699v-0.149
			c0-0.585-0.164-1.681-1.649-1.665c-0.689,0-1.396,0.194-1.904,0.54l-0.3-0.885c0.601-0.375,1.484-0.631,2.399-0.631
			c2.22,0,2.76,1.516,2.76,2.955L348.429,102.08L348.429,102.08z M347.154,100.115c-1.44-0.029-3.076,0.226-3.076,1.635
			c0,0.87,0.57,1.261,1.229,1.261c0.96,0,1.575-0.601,1.785-1.216c0.045-0.149,0.062-0.3,0.062-0.42V100.115L347.154,100.115z"/>
	</g>
	<g enable-background="new    ">
		<path fill="#0079A3" d="M350.559,98.526c0-0.765-0.014-1.364-0.059-1.965h1.17l0.074,1.2h0.03
			c0.359-0.675,1.199-1.351,2.398-1.351c1.006,0,2.565,0.601,2.565,3.09v4.319h-1.32v-4.185c0-1.17-0.435-2.146-1.68-2.146
			c-0.854,0-1.53,0.614-1.771,1.351c-0.06,0.165-0.09,0.39-0.09,0.614v4.364h-1.32v-5.293H350.559z"/>
	</g>
	<g enable-background="new    ">
		<path fill="#0079A3" d="M359.169,96.561l1.575,4.29c0.18,0.479,0.359,1.05,0.479,1.484h0.029c0.135-0.436,0.285-0.989,0.465-1.516
			l1.44-4.26h1.396l-1.979,5.175c-0.945,2.49-1.59,3.75-2.49,4.546c-0.66,0.555-1.289,0.779-1.619,0.84l-0.33-1.096
			c0.33-0.104,0.766-0.314,1.154-0.646c0.359-0.284,0.795-0.795,1.109-1.47c0.061-0.136,0.104-0.24,0.104-0.314
			c0-0.075-0.029-0.181-0.104-0.346l-2.67-6.689L359.169,96.561L359.169,96.561z"/>
	</g>
	<g enable-background="new    ">
		<path fill="#0079A3" d="M364.854,103.04c0-0.54,0.375-0.944,0.9-0.944s0.885,0.39,0.885,0.944c0,0.54-0.358,0.944-0.914,0.944
			C365.215,103.986,364.854,103.58,364.854,103.04z"/>
	</g>
</g>
</svg>
