<?xml version="1.0" encoding="utf-8"?>
<!-- Generator: Adobe Illustrator 15.0.2, SVG Export Plug-In . SVG Version: 6.00 Build 0)  -->
<!DOCTYPE svg PUBLIC "-//W3C//DTD SVG 1.1//EN" "http://www.w3.org/Graphics/SVG/1.1/DTD/svg11.dtd">
<svg version="1.1" id="Layer_1" xmlns="http://www.w3.org/2000/svg" xmlns:xlink="http://www.w3.org/1999/xlink" x="0px" y="0px"
	 width="530.746px" height="111.641px" viewBox="0 0 530.746 111.641" enable-background="new 0 0 530.746 111.641"
	 xml:space="preserve">
<g id="sky">
</g>
<g id="hills3">
</g>
<g id="hills1">
</g>
<g id="tractor">
</g>
<g id="hills">
</g>
<g id="foreground">
</g>
<g id="cows">
</g>
<g id="balloons">
</g>
<path opacity="0.7" fill="#FFFFFF" enable-background="new    " d="M482.704,82.043c-8.291-6.122-17.485-8.831-25.166-11.655
	c-6.004-2.206-7.122-15.94-17.571-21.53c-15.27-8.166-33.83,14.338-55.331-1.755c-20.502-15.344-9.518-22.498-30.854-33.141
	c-12.87-6.418-38.721-2.534-55.854,1.238c-17.992,3.959-48.848,8.146-75.207-0.764c-18.025-6.092-51.191-18.211-66.522-5.444
	c-6.083,5.063-11.233,14.868-14.369,22.85c-2.525,6.424-11.375,9.065-17.348,9.591c-8.643,0.762-14.83-5.646-32.243,4.207
	c-15.047,8.52-29.91,16.877-32.366,24.683c-2.347,7.46-11.773,17.768-28,16c-11.364-1.238-15.819,15.316-15.819,15.316h470.77
	C486.826,101.64,490.98,88.177,482.704,82.043z"/>
<g>
	<path fill="#0079A3" d="M157.488,33.96h1.32v9.015h4.32v1.095h-5.64V33.96L157.488,33.96z"/>
	<path fill="#0079A3" d="M169.638,42.33c0,0.63,0.03,1.245,0.105,1.739h-1.185l-0.105-0.914h-0.045
		c-0.405,0.569-1.185,1.079-2.22,1.079c-1.47,0-2.22-1.034-2.22-2.085c0-1.755,1.56-2.715,4.365-2.699V39.3
		c0-0.585-0.165-1.68-1.65-1.665c-0.69,0-1.395,0.195-1.905,0.54l-0.3-0.885c0.6-0.375,1.485-0.63,2.4-0.63
		c2.22,0,2.76,1.515,2.76,2.955V42.33z M168.363,40.365c-1.44-0.03-3.075,0.225-3.075,1.635c0,0.87,0.57,1.26,1.23,1.26
		c0.96,0,1.575-0.6,1.785-1.215c0.045-0.15,0.06-0.3,0.06-0.42V40.365z"/>
	<path fill="#0079A3" d="M177.843,42.074c0,0.765,0.015,1.425,0.06,1.994h-1.17l-0.075-1.185h-0.03c-0.33,0.585-1.11,1.35-2.4,1.35
		c-1.14,0-2.505-0.645-2.505-3.18V36.81h1.32v4.005c0,1.38,0.435,2.325,1.62,2.325c0.885,0,1.5-0.615,1.74-1.215
		c0.075-0.18,0.12-0.42,0.12-0.675v-4.44h1.32V42.074z"/>
	<path fill="#0079A3" d="M180.033,38.775c0-0.765-0.015-1.364-0.06-1.965h1.17l0.075,1.2h0.03c0.36-0.675,1.2-1.35,2.4-1.35
		c1.005,0,2.565,0.6,2.565,3.09v4.319h-1.32v-4.185c0-1.17-0.435-2.145-1.68-2.145c-0.855,0-1.53,0.614-1.77,1.35
		c-0.06,0.165-0.09,0.39-0.09,0.615v4.364h-1.32V38.775L180.033,38.775z"/>
	<path fill="#0079A3" d="M193.532,43.815c-0.345,0.165-1.11,0.42-2.084,0.42c-2.19,0-3.615-1.484-3.615-3.704
		c0-2.235,1.53-3.87,3.9-3.87c0.78,0,1.47,0.194,1.83,0.39l-0.3,1.005c-0.315-0.165-0.81-0.345-1.53-0.345
		c-1.665,0-2.565,1.245-2.565,2.745c0,1.68,1.08,2.715,2.52,2.715c0.75,0,1.245-0.18,1.62-0.345L193.532,43.815z"/>
	<path fill="#0079A3" d="M195.078,33.42h1.32v4.544h0.03c0.21-0.375,0.54-0.72,0.945-0.945c0.39-0.225,0.855-0.359,1.35-0.359
		c0.975,0,2.535,0.6,2.535,3.09v4.319h-1.32V39.9c0-1.17-0.435-2.145-1.68-2.145c-0.855,0-1.515,0.6-1.77,1.305
		c-0.075,0.195-0.09,0.391-0.09,0.63v4.38h-1.32V33.42z"/>
	<path fill="#0079A3" d="M206.627,34.08c0.63-0.105,1.455-0.195,2.505-0.195c1.29,0,2.235,0.3,2.834,0.84
		c0.54,0.48,0.885,1.215,0.885,2.115c0,0.915-0.27,1.635-0.78,2.16c-0.705,0.734-1.815,1.109-3.09,1.109
		c-0.39,0-0.75-0.015-1.05-0.09v4.05h-1.305L206.627,34.08L206.627,34.08z M207.932,38.955c0.285,0.075,0.645,0.104,1.08,0.104
		c1.575,0,2.535-0.779,2.535-2.145c0-1.351-0.96-1.995-2.385-1.995c-0.57,0-1.005,0.045-1.23,0.104V38.955z"/>
	<path fill="#0079A3" d="M219.272,42.33c0,0.63,0.03,1.245,0.105,1.739h-1.185l-0.105-0.914h-0.045
		c-0.405,0.569-1.185,1.079-2.22,1.079c-1.47,0-2.22-1.034-2.22-2.085c0-1.755,1.56-2.715,4.365-2.699V39.3
		c0-0.585-0.165-1.68-1.65-1.665c-0.69,0-1.395,0.195-1.905,0.54l-0.3-0.885c0.6-0.375,1.485-0.63,2.4-0.63
		c2.22,0,2.76,1.515,2.76,2.955V42.33z M217.998,40.365c-1.44-0.03-3.075,0.225-3.075,1.635c0,0.87,0.57,1.26,1.23,1.26
		c0.96,0,1.575-0.6,1.785-1.215c0.045-0.15,0.06-0.3,0.06-0.42V40.365z"/>
	<path fill="#0079A3" d="M222.933,35.07v1.74h1.89v1.005h-1.89v3.915c0,0.9,0.255,1.41,0.99,1.41c0.36,0,0.57-0.03,0.765-0.09
		l0.06,1.005c-0.255,0.09-0.66,0.18-1.17,0.18c-0.615,0-1.11-0.21-1.425-0.555c-0.36-0.405-0.51-1.05-0.51-1.905v-3.96h-1.125V36.81
		h1.125v-1.35L222.933,35.07z"/>
	<path fill="#0079A3" d="M226.307,33.42h1.32v4.544h0.03c0.21-0.375,0.54-0.72,0.945-0.945c0.39-0.225,0.855-0.359,1.35-0.359
		c0.975,0,2.535,0.6,2.535,3.09v4.319h-1.32V39.9c0-1.17-0.435-2.145-1.68-2.145c-0.855,0-1.515,0.6-1.77,1.305
		c-0.075,0.195-0.09,0.391-0.09,0.63v4.38h-1.32V33.42z"/>
	<path fill="#0079A3" d="M239.402,35.07v1.74h1.89v1.005h-1.89v3.915c0,0.9,0.255,1.41,0.99,1.41c0.36,0,0.57-0.03,0.765-0.09
		l0.06,1.005c-0.255,0.09-0.66,0.18-1.17,0.18c-0.615,0-1.11-0.21-1.425-0.555c-0.36-0.405-0.51-1.05-0.51-1.905v-3.96h-1.125V36.81
		h1.125v-1.35L239.402,35.07z"/>
	<path fill="#0079A3" d="M249.257,40.38c0,2.685-1.875,3.854-3.615,3.854c-1.95,0-3.48-1.439-3.48-3.734
		c0-2.415,1.605-3.84,3.6-3.84C247.847,36.66,249.257,38.175,249.257,40.38z M243.512,40.455c0,1.59,0.9,2.79,2.19,2.79
		c1.26,0,2.205-1.186,2.205-2.82c0-1.23-0.615-2.775-2.175-2.775C244.187,37.65,243.512,39.09,243.512,40.455z"/>
	<path fill="#0079A3" d="M254.146,44.07V33.96h1.44l3.225,5.115c0.735,1.185,1.335,2.25,1.8,3.284l0.045-0.015
		c-0.12-1.35-0.149-2.58-0.149-4.155V33.96h1.229V44.07h-1.319l-3.21-5.13c-0.705-1.125-1.38-2.279-1.875-3.375l-0.045,0.016
		c0.074,1.274,0.09,2.489,0.09,4.17v4.319H254.146z"/>
	<path fill="#0079A3" d="M264.707,40.68c0.03,1.785,1.155,2.521,2.49,2.521c0.943,0,1.529-0.165,2.01-0.375l0.238,0.944
		c-0.465,0.21-1.273,0.465-2.43,0.465c-2.233,0-3.568-1.484-3.568-3.675c0-2.189,1.29-3.899,3.404-3.899c2.385,0,3,2.069,3,3.404
		c0,0.271-0.016,0.466-0.045,0.615H264.707z M268.577,39.735c0.015-0.824-0.347-2.13-1.83-2.13c-1.351,0-1.92,1.215-2.025,2.13
		H268.577z"/>
	<path fill="#0079A3" d="M273.076,35.07v1.74h1.891v1.005h-1.891v3.915c0,0.9,0.255,1.41,0.99,1.41c0.359,0,0.569-0.03,0.765-0.09
		l0.062,1.005c-0.256,0.09-0.66,0.18-1.17,0.18c-0.615,0-1.111-0.21-1.426-0.555c-0.359-0.405-0.511-1.05-0.511-1.905v-3.96h-1.125
		V36.81h1.125v-1.35L273.076,35.07z"/>
	<path fill="#0079A3" d="M278.986,43.304l5.595-8.205v-0.045h-5.115V33.96h6.825v0.795l-5.58,8.174v0.045h5.655v1.095h-7.38V43.304
		L278.986,43.304z"/>
	<path fill="#0079A3" d="M288.48,40.68c0.03,1.785,1.155,2.521,2.49,2.521c0.944,0,1.529-0.165,2.01-0.375l0.24,0.944
		c-0.466,0.21-1.275,0.465-2.431,0.465c-2.233,0-3.569-1.484-3.569-3.675c0-2.189,1.291-3.899,3.404-3.899c2.385,0,3,2.069,3,3.404
		c0,0.271-0.016,0.466-0.045,0.615H288.48z M292.352,39.735c0.016-0.824-0.346-2.13-1.83-2.13c-1.351,0-1.92,1.215-2.024,2.13
		H292.352z"/>
	<path fill="#0079A3" d="M295.261,39.075c0-0.855-0.015-1.591-0.06-2.266h1.154l0.061,1.44h0.045c0.33-0.976,1.141-1.59,2.025-1.59
		c0.135,0,0.238,0.015,0.359,0.029v1.245c-0.136-0.029-0.271-0.029-0.451-0.029c-0.93,0-1.59,0.689-1.77,1.68
		c-0.029,0.18-0.045,0.405-0.045,0.615v3.869h-1.32L295.261,39.075L295.261,39.075z"/>
	<path fill="#0079A3" d="M306.587,40.38c0,2.685-1.875,3.854-3.614,3.854c-1.951,0-3.479-1.439-3.479-3.734
		c0-2.415,1.604-3.84,3.6-3.84C305.177,36.66,306.587,38.175,306.587,40.38z M300.842,40.455c0,1.59,0.9,2.79,2.189,2.79
		c1.261,0,2.205-1.186,2.205-2.82c0-1.23-0.614-2.775-2.176-2.775C301.518,37.65,300.842,39.09,300.842,40.455z"/>
	<path fill="#0079A3" d="M307.037,45.929c0.33-0.9,0.734-2.505,0.898-3.6l1.472-0.15c-0.36,1.275-1.021,2.94-1.44,3.646
		L307.037,45.929z"/>
	<path fill="#0079A3" d="M319.275,42.33c0,0.63,0.029,1.245,0.104,1.739h-1.185l-0.105-0.914h-0.045
		c-0.405,0.569-1.185,1.079-2.22,1.079c-1.47,0-2.22-1.034-2.22-2.085c0-1.755,1.56-2.715,4.363-2.699V39.3
		c0-0.585-0.165-1.68-1.648-1.665c-0.69,0-1.396,0.195-1.905,0.54l-0.3-0.885c0.6-0.375,1.483-0.63,2.398-0.63
		c2.221,0,2.761,1.515,2.761,2.955L319.275,42.33L319.275,42.33z M318.001,40.365c-1.44-0.03-3.075,0.225-3.075,1.635
		c0,0.87,0.57,1.26,1.23,1.26c0.96,0,1.574-0.6,1.784-1.215c0.046-0.15,0.061-0.3,0.061-0.42V40.365z"/>
	<path fill="#0079A3" d="M324.586,39.18c0-0.93-0.029-1.68-0.06-2.37h1.17l0.075,1.245h0.028c0.525-0.885,1.396-1.395,2.58-1.395
		c1.771,0,3.09,1.484,3.09,3.675c0,2.609-1.604,3.899-3.313,3.899c-0.96,0-1.8-0.42-2.235-1.14h-0.03v3.945h-1.305V39.18
		L324.586,39.18z M325.891,41.115c0,0.194,0.017,0.375,0.062,0.54c0.24,0.914,1.035,1.545,1.979,1.545
		c1.396,0,2.205-1.141,2.205-2.806c0-1.439-0.765-2.685-2.16-2.685c-0.898,0-1.755,0.63-1.993,1.62
		c-0.046,0.165-0.092,0.359-0.092,0.524V41.115z"/>
	<path fill="#0079A3" d="M334.59,34.77c0,0.45-0.313,0.811-0.84,0.811c-0.479,0-0.795-0.36-0.795-0.811s0.33-0.825,0.825-0.825
		C334.261,33.945,334.59,34.305,334.59,34.77z M333.12,44.07v-7.26h1.32v7.26H333.12z"/>
	<path fill="#0079A3" d="M336.63,33.42h1.32V44.07h-1.32V33.42z"/>
	<path fill="#0079A3" d="M346.74,40.38c0,2.685-1.875,3.854-3.615,3.854c-1.95,0-3.479-1.439-3.479-3.734
		c0-2.415,1.604-3.84,3.6-3.84C345.33,36.66,346.74,38.175,346.74,40.38z M340.995,40.455c0,1.59,0.899,2.79,2.188,2.79
		c1.262,0,2.205-1.186,2.205-2.82c0-1.23-0.613-2.775-2.175-2.775C341.67,37.65,340.995,39.09,340.995,40.455z"/>
	<path fill="#0079A3" d="M349.995,35.07v1.74h1.891v1.005h-1.891v3.915c0,0.9,0.255,1.41,0.99,1.41c0.359,0,0.569-0.03,0.765-0.09
		l0.061,1.005c-0.255,0.09-0.659,0.18-1.17,0.18c-0.614,0-1.109-0.21-1.425-0.555c-0.359-0.405-0.511-1.05-0.511-1.905v-3.96h-1.125
		V36.81h1.125v-1.35L349.995,35.07z"/>
	<path fill="#0079A3" d="M157.593,62.07v-6.255h-1.005V54.81h1.005v-0.345c0-1.021,0.24-1.95,0.84-2.535
		c0.495-0.479,1.155-0.675,1.77-0.675c0.48,0,0.87,0.104,1.125,0.21l-0.18,1.02c-0.195-0.09-0.45-0.165-0.84-0.165
		c-1.125,0-1.41,0.976-1.41,2.101v0.39h1.755v1.005h-1.755v6.255H157.593z"/>
	<path fill="#0079A3" d="M168.213,58.38c0,2.685-1.875,3.854-3.615,3.854c-1.95,0-3.48-1.438-3.48-3.733
		c0-2.416,1.605-3.84,3.6-3.84C166.803,54.66,168.213,56.175,168.213,58.38z M162.468,58.455c0,1.59,0.9,2.789,2.19,2.789
		c1.26,0,2.205-1.186,2.205-2.819c0-1.23-0.615-2.775-2.175-2.775C163.143,55.65,162.468,57.09,162.468,58.455z"/>
	<path fill="#0079A3" d="M169.878,57.075c0-0.855-0.015-1.592-0.06-2.267h1.155l0.06,1.44h0.045c0.33-0.976,1.14-1.59,2.025-1.59
		c0.135,0,0.24,0.015,0.36,0.029v1.245c-0.135-0.03-0.27-0.03-0.45-0.03c-0.93,0-1.59,0.69-1.77,1.681
		c-0.03,0.18-0.045,0.403-0.045,0.615v3.868h-1.32V57.075z"/>
	<path fill="#0079A3" d="M184.533,58.38c0,2.685-1.875,3.854-3.615,3.854c-1.95,0-3.48-1.438-3.48-3.733
		c0-2.416,1.605-3.84,3.6-3.84C183.123,54.66,184.533,56.175,184.533,58.38z M178.788,58.455c0,1.59,0.9,2.789,2.19,2.789
		c1.26,0,2.205-1.186,2.205-2.819c0-1.23-0.615-2.775-2.175-2.775C179.463,55.65,178.788,57.09,178.788,58.455z"/>
	<path fill="#0079A3" d="M186.618,54.81l0.975,3.69c0.195,0.81,0.39,1.56,0.525,2.31h0.045c0.165-0.734,0.405-1.515,0.645-2.295
		l1.185-3.705h1.11l1.125,3.63c0.27,0.87,0.48,1.636,0.645,2.37h0.045c0.12-0.734,0.315-1.5,0.555-2.354l1.035-3.646h1.305
		l-2.34,7.26h-1.2l-1.11-3.465c-0.255-0.81-0.465-1.528-0.645-2.385h-0.03c-0.18,0.87-0.405,1.62-0.66,2.4l-1.17,3.448h-1.2
		l-2.19-7.26L186.618,54.81L186.618,54.81z"/>
	<path fill="#0079A3" d="M197.133,56.775c0-0.765-0.015-1.364-0.06-1.965h1.17l0.075,1.2h0.03c0.36-0.675,1.2-1.35,2.4-1.35
		c1.005,0,2.565,0.6,2.565,3.09v4.318h-1.32v-4.185c0-1.17-0.435-2.145-1.68-2.145c-0.855,0-1.53,0.614-1.77,1.35
		c-0.06,0.165-0.09,0.39-0.09,0.615v4.363h-1.32V56.775z"/>
	<path fill="#0079A3" d="M206.193,58.68c0.03,1.785,1.155,2.521,2.49,2.521c0.945,0,1.53-0.165,2.01-0.375l0.24,0.944
		c-0.465,0.21-1.275,0.465-2.43,0.465c-2.235,0-3.57-1.483-3.57-3.675c0-2.188,1.29-3.899,3.405-3.899c2.385,0,3,2.069,3,3.404
		c0,0.271-0.015,0.466-0.045,0.615H206.193z M210.062,57.735c0.015-0.823-0.345-2.13-1.83-2.13c-1.35,0-1.92,1.215-2.025,2.13
		H210.062z"/>
	<path fill="#0079A3" d="M212.973,57.075c0-0.855-0.015-1.592-0.06-2.267h1.155l0.06,1.44h0.045c0.33-0.976,1.14-1.59,2.025-1.59
		c0.135,0,0.24,0.015,0.36,0.029v1.245c-0.135-0.03-0.27-0.03-0.45-0.03c-0.93,0-1.59,0.69-1.77,1.681
		c-0.03,0.18-0.045,0.403-0.045,0.615v3.868h-1.32V57.075L212.973,57.075z"/>
	<path fill="#0079A3" d="M217.698,60.735c0.405,0.24,1.095,0.511,1.755,0.511c0.945,0,1.395-0.465,1.395-1.079
		c0-0.63-0.375-0.96-1.335-1.32c-1.32-0.479-1.935-1.185-1.935-2.055c0-1.17,0.96-2.13,2.505-2.13c0.735,0,1.38,0.194,1.77,0.449
		l-0.315,0.96c-0.285-0.18-0.81-0.435-1.485-0.435c-0.78,0-1.2,0.45-1.2,0.99c0,0.6,0.42,0.87,1.365,1.245
		c1.245,0.465,1.905,1.095,1.905,2.175c0,1.29-1.005,2.188-2.7,2.188c-0.795,0-1.53-0.21-2.04-0.51L217.698,60.735z"/>
	<path fill="#0079A3" d="M227.523,54.81l0.975,3.69c0.195,0.81,0.39,1.56,0.525,2.31h0.045c0.165-0.734,0.405-1.515,0.645-2.295
		l1.185-3.705h1.11l1.125,3.63c0.27,0.87,0.48,1.636,0.645,2.37h0.045c0.12-0.734,0.315-1.5,0.555-2.354l1.035-3.646h1.305
		l-2.34,7.26h-1.2l-1.11-3.465c-0.255-0.81-0.465-1.528-0.645-2.385h-0.03c-0.18,0.87-0.405,1.62-0.66,2.4l-1.17,3.448h-1.2
		l-2.19-7.26L227.523,54.81L227.523,54.81z"/>
	<path fill="#0079A3" d="M238.037,51.42h1.32v4.544h0.03c0.21-0.375,0.54-0.72,0.945-0.945c0.39-0.225,0.855-0.359,1.35-0.359
		c0.975,0,2.535,0.6,2.535,3.09v4.318h-1.32V57.9c0-1.17-0.435-2.145-1.68-2.145c-0.855,0-1.515,0.6-1.77,1.305
		c-0.075,0.195-0.09,0.392-0.09,0.63v4.38h-1.32V51.42L238.037,51.42z"/>
	<path fill="#0079A3" d="M252.933,58.38c0,2.685-1.875,3.854-3.615,3.854c-1.95,0-3.48-1.438-3.48-3.733
		c0-2.416,1.605-3.84,3.6-3.84C251.522,54.66,252.933,56.175,252.933,58.38z M247.188,58.455c0,1.59,0.9,2.789,2.189,2.789
		c1.261,0,2.205-1.186,2.205-2.819c0-1.23-0.614-2.775-2.175-2.775C247.862,55.65,247.188,57.09,247.188,58.455z"/>
	<path fill="#0079A3" d="M262.952,61.815c-0.345,0.165-1.109,0.42-2.085,0.42c-2.189,0-3.614-1.483-3.614-3.704
		c0-2.235,1.529-3.87,3.899-3.87c0.78,0,1.47,0.194,1.83,0.39l-0.3,1.005c-0.315-0.165-0.811-0.345-1.53-0.345
		c-1.665,0-2.564,1.246-2.564,2.746c0,1.68,1.08,2.715,2.52,2.715c0.75,0,1.245-0.181,1.62-0.346L262.952,61.815z"/>
	<path fill="#0079A3" d="M270.979,58.38c0,2.685-1.875,3.854-3.615,3.854c-1.95,0-3.479-1.438-3.479-3.733
		c0-2.416,1.604-3.84,3.601-3.84C269.566,54.66,270.979,56.175,270.979,58.38z M265.232,58.455c0,1.59,0.9,2.789,2.189,2.789
		c1.261,0,2.205-1.186,2.205-2.819c0-1.23-0.614-2.775-2.175-2.775C265.907,55.65,265.232,57.09,265.232,58.455z"/>
	<path fill="#0079A3" d="M272.643,56.775c0-0.765-0.016-1.364-0.061-1.965h1.17l0.075,1.2h0.028c0.36-0.675,1.201-1.35,2.4-1.35
		c1.006,0,2.564,0.6,2.564,3.09v4.318h-1.319v-4.185c0-1.17-0.437-2.145-1.681-2.145c-0.854,0-1.529,0.614-1.771,1.35
		c-0.06,0.165-0.09,0.39-0.09,0.615v4.363h-1.319v-5.293H272.643z"/>
	<path fill="#0079A3" d="M280.787,60.735c0.404,0.24,1.095,0.511,1.755,0.511c0.944,0,1.396-0.465,1.396-1.079
		c0-0.63-0.375-0.96-1.336-1.32c-1.318-0.479-1.935-1.185-1.935-2.055c0-1.17,0.96-2.13,2.505-2.13c0.735,0,1.38,0.194,1.77,0.449
		l-0.313,0.96c-0.285-0.18-0.81-0.435-1.485-0.435c-0.778,0-1.199,0.45-1.199,0.99c0,0.6,0.421,0.87,1.365,1.245
		c1.244,0.465,1.904,1.095,1.904,2.175c0,1.29-1.005,2.188-2.699,2.188c-0.796,0-1.529-0.21-2.041-0.51L280.787,60.735z"/>
	<path fill="#0079A3" d="M288.496,53.07v1.74h1.891v1.005h-1.891v3.915c0,0.9,0.255,1.41,0.99,1.41c0.359,0,0.57-0.03,0.765-0.09
		l0.062,1.005c-0.256,0.09-0.66,0.18-1.17,0.18c-0.615,0-1.11-0.21-1.426-0.555c-0.359-0.405-0.511-1.05-0.511-1.905v-3.96h-1.125
		V54.81h1.125v-1.35L288.496,53.07z"/>
	<path fill="#0079A3" d="M291.872,57.075c0-0.855-0.015-1.592-0.06-2.267h1.153l0.062,1.44h0.045c0.33-0.976,1.14-1.59,2.025-1.59
		c0.135,0,0.238,0.015,0.358,0.029v1.245c-0.136-0.03-0.271-0.03-0.45-0.03c-0.93,0-1.59,0.69-1.77,1.681
		c-0.03,0.18-0.045,0.403-0.045,0.615v3.868h-1.32L291.872,57.075L291.872,57.075z"/>
	<path fill="#0079A3" d="M302.852,60.074c0,0.766,0.016,1.426,0.061,1.994h-1.17l-0.075-1.185h-0.028
		c-0.33,0.585-1.111,1.35-2.4,1.35c-1.141,0-2.506-0.645-2.506-3.18V54.81h1.32v4.005c0,1.38,0.436,2.325,1.62,2.325
		c0.886,0,1.5-0.615,1.739-1.215c0.074-0.18,0.12-0.42,0.12-0.675v-4.44h1.319V60.074z"/>
	<path fill="#0079A3" d="M310.216,61.815c-0.345,0.165-1.108,0.42-2.085,0.42c-2.189,0-3.613-1.483-3.613-3.704
		c0-2.235,1.528-3.87,3.898-3.87c0.78,0,1.47,0.194,1.83,0.39l-0.3,1.005c-0.315-0.165-0.812-0.345-1.53-0.345
		c-1.665,0-2.564,1.246-2.564,2.746c0,1.68,1.08,2.715,2.521,2.715c0.75,0,1.245-0.181,1.62-0.346L310.216,61.815z"/>
	<path fill="#0079A3" d="M313.546,53.07v1.74h1.891v1.005h-1.891v3.915c0,0.9,0.255,1.41,0.99,1.41c0.359,0,0.57-0.03,0.765-0.09
		l0.062,1.005c-0.255,0.09-0.66,0.18-1.17,0.18c-0.615,0-1.11-0.21-1.426-0.555c-0.359-0.405-0.511-1.05-0.511-1.905v-3.96h-1.125
		V54.81h1.125v-1.35L313.546,53.07z"/>
	<path fill="#0079A3" d="M320.101,51.42h1.307v4.56h0.028c0.466-0.81,1.306-1.319,2.477-1.319c1.813,0,3.074,1.5,3.074,3.689
		c0,2.595-1.649,3.885-3.271,3.885c-1.05,0-1.89-0.404-2.444-1.35h-0.029l-0.075,1.185h-1.125c0.03-0.494,0.06-1.229,0.06-1.875
		L320.101,51.42L320.101,51.42z M321.406,59.16c0,0.164,0.015,0.329,0.06,0.479c0.24,0.915,1.021,1.545,1.979,1.545
		c1.396,0,2.205-1.125,2.205-2.79c0-1.455-0.75-2.7-2.176-2.7c-0.885,0-1.725,0.631-1.994,1.62
		c-0.046,0.165-0.074,0.347-0.074,0.557V59.16z"/>
	<path fill="#0079A3" d="M334.711,60.074c0,0.766,0.015,1.426,0.061,1.994h-1.171l-0.074-1.185h-0.029
		c-0.33,0.585-1.11,1.35-2.4,1.35c-1.14,0-2.505-0.645-2.505-3.18V54.81h1.32v4.005c0,1.38,0.435,2.325,1.62,2.325
		c0.885,0,1.5-0.615,1.739-1.215c0.074-0.18,0.119-0.42,0.119-0.675v-4.44h1.32V60.074z"/>
	<path fill="#0079A3" d="M338.37,52.77c0,0.45-0.314,0.811-0.84,0.811c-0.479,0-0.795-0.36-0.795-0.811s0.33-0.825,0.824-0.825
		C338.041,51.945,338.37,52.305,338.37,52.77z M336.9,62.07v-7.26h1.319v7.26H336.9z"/>
	<path fill="#0079A3" d="M340.41,51.42h1.32V62.07h-1.32V51.42z"/>
	<path fill="#0079A3" d="M350.205,51.42v8.773c0,0.646,0.03,1.381,0.061,1.875h-1.17l-0.061-1.26h-0.045
		c-0.391,0.811-1.261,1.425-2.445,1.425c-1.755,0-3.119-1.483-3.119-3.688c-0.016-2.416,1.5-3.885,3.255-3.885
		c1.125,0,1.859,0.524,2.189,1.095h0.03V51.42H350.205z M348.9,57.765c0-0.165-0.017-0.39-0.062-0.555
		c-0.194-0.825-0.915-1.516-1.904-1.516c-1.364,0-2.175,1.2-2.175,2.79c0,1.472,0.734,2.687,2.146,2.687
		c0.885,0,1.694-0.602,1.935-1.575c0.045-0.18,0.062-0.36,0.062-0.57L348.9,57.765L348.9,57.765z"/>
	<path fill="#0079A3" d="M353.88,52.77c0,0.45-0.313,0.811-0.84,0.811c-0.479,0-0.795-0.36-0.795-0.811s0.33-0.825,0.825-0.825
		C353.551,51.945,353.88,52.305,353.88,52.77z M352.41,62.07v-7.26h1.32v7.26H352.41z"/>
	<path fill="#0079A3" d="M355.92,56.775c0-0.765-0.015-1.364-0.06-1.965h1.17l0.075,1.2h0.028c0.36-0.675,1.2-1.35,2.4-1.35
		c1.005,0,2.563,0.6,2.563,3.09v4.318h-1.318v-4.185c0-1.17-0.437-2.145-1.682-2.145c-0.854,0-1.528,0.614-1.77,1.35
		c-0.061,0.165-0.09,0.39-0.09,0.615v4.363h-1.32v-5.293H355.92z"/>
	<path fill="#0079A3" d="M370.455,61.005c0,1.68-0.345,2.685-1.035,3.33c-0.72,0.645-1.739,0.869-2.654,0.869
		c-0.869,0-1.83-0.21-2.415-0.601l0.33-1.02c0.479,0.313,1.229,0.585,2.13,0.585c1.351,0,2.341-0.705,2.341-2.551v-0.795h-0.03
		c-0.391,0.676-1.186,1.216-2.311,1.216c-1.8,0-3.09-1.53-3.09-3.54c0-2.46,1.604-3.84,3.284-3.84c1.261,0,1.937,0.645,2.266,1.244
		h0.029l0.045-1.095h1.17c-0.045,0.51-0.06,1.11-0.06,1.98V61.005z M369.135,57.675c0-0.225-0.015-0.42-0.074-0.585
		c-0.239-0.78-0.869-1.41-1.846-1.41c-1.26,0-2.159,1.065-2.159,2.745c0,1.425,0.734,2.609,2.146,2.609
		c0.825,0,1.56-0.511,1.83-1.351c0.075-0.225,0.104-0.479,0.104-0.705V57.675L369.135,57.675z"/>
	<path fill="#0079A3" d="M372.45,60.735c0.405,0.24,1.095,0.511,1.755,0.511c0.945,0,1.395-0.465,1.395-1.079
		c0-0.63-0.375-0.96-1.335-1.32c-1.318-0.479-1.935-1.185-1.935-2.055c0-1.17,0.96-2.13,2.505-2.13c0.735,0,1.38,0.194,1.771,0.449
		l-0.314,0.96c-0.285-0.18-0.81-0.435-1.485-0.435c-0.778,0-1.198,0.45-1.198,0.99c0,0.6,0.42,0.87,1.363,1.245
		c1.245,0.465,1.905,1.095,1.905,2.175c0,1.29-1.005,2.188-2.7,2.188c-0.795,0-1.528-0.21-2.04-0.51L372.45,60.735z"/>
	<path fill="#0079A3" d="M157.983,72.81l0.975,3.69c0.195,0.81,0.39,1.56,0.525,2.31h0.045c0.165-0.734,0.405-1.515,0.645-2.295
		l1.185-3.705h1.11l1.125,3.63c0.27,0.87,0.48,1.636,0.645,2.37h0.045c0.12-0.734,0.315-1.5,0.555-2.354l1.035-3.646h1.305
		l-2.34,7.26h-1.2l-1.11-3.465c-0.255-0.81-0.465-1.528-0.645-2.385h-0.03c-0.18,0.87-0.405,1.62-0.66,2.4l-1.17,3.448h-1.2
		l-2.19-7.26L157.983,72.81L157.983,72.81z"/>
	<path fill="#0079A3" d="M169.968,70.77c0,0.45-0.315,0.812-0.84,0.812c-0.48,0-0.795-0.36-0.795-0.812
		c0-0.449,0.33-0.824,0.825-0.824C169.638,69.946,169.968,70.305,169.968,70.77z M168.498,80.07v-7.26h1.32v7.26H168.498z"/>
	<path fill="#0079A3" d="M173.598,71.071v1.739h1.89v1.005h-1.89v3.915c0,0.9,0.255,1.41,0.99,1.41c0.36,0,0.57-0.03,0.765-0.09
		l0.06,1.005c-0.255,0.09-0.66,0.18-1.17,0.18c-0.615,0-1.11-0.21-1.425-0.555c-0.36-0.405-0.51-1.05-0.51-1.905v-3.96h-1.125V72.81
		h1.125v-1.35L173.598,71.071z"/>
	<path fill="#0079A3" d="M176.973,69.42h1.32v4.545h0.03c0.21-0.375,0.54-0.72,0.945-0.945c0.39-0.225,0.855-0.358,1.35-0.358
		c0.975,0,2.535,0.6,2.535,3.09v4.318h-1.32V75.9c0-1.17-0.435-2.145-1.68-2.145c-0.855,0-1.515,0.6-1.77,1.305
		c-0.075,0.195-0.09,0.392-0.09,0.63v4.38h-1.32V69.42z"/>
	<path fill="#0079A3" d="M189.213,76.68c0.03,1.785,1.155,2.521,2.49,2.521c0.945,0,1.53-0.165,2.01-0.375l0.24,0.944
		c-0.465,0.21-1.275,0.465-2.43,0.465c-2.235,0-3.57-1.483-3.57-3.675c0-2.188,1.29-3.898,3.405-3.898c2.385,0,3,2.068,3,3.403
		c0,0.271-0.015,0.465-0.045,0.615H189.213z M193.083,75.735c0.015-0.823-0.345-2.13-1.83-2.13c-1.35,0-1.92,1.215-2.025,2.13
		H193.083z"/>
	<path fill="#0079A3" d="M196.562,72.81l1.035,1.562c0.285,0.403,0.51,0.765,0.75,1.17h0.03c0.24-0.42,0.48-0.795,0.735-1.187
		l1.005-1.545h1.44l-2.475,3.51l2.535,3.75h-1.485l-1.08-1.635c-0.285-0.42-0.525-0.825-0.78-1.26h-0.03
		c-0.24,0.435-0.48,0.825-0.765,1.26l-1.05,1.635h-1.455l2.58-3.704l-2.459-3.556H196.562z"/>
	<path fill="#0079A3" d="M207.842,79.815c-0.345,0.165-1.11,0.42-2.084,0.42c-2.19,0-3.615-1.483-3.615-3.704
		c0-2.234,1.53-3.869,3.9-3.869c0.78,0,1.47,0.193,1.83,0.39l-0.3,1.005c-0.315-0.165-0.81-0.345-1.53-0.345
		c-1.665,0-2.565,1.245-2.565,2.745c0,1.68,1.08,2.715,2.52,2.715c0.75,0,1.245-0.181,1.62-0.346L207.842,79.815z"/>
	<path fill="#0079A3" d="M210.033,76.68c0.03,1.785,1.155,2.521,2.49,2.521c0.945,0,1.53-0.165,2.01-0.375l0.24,0.944
		c-0.465,0.21-1.275,0.465-2.43,0.465c-2.235,0-3.57-1.483-3.57-3.675c0-2.188,1.29-3.898,3.405-3.898c2.385,0,3,2.068,3,3.403
		c0,0.271-0.015,0.465-0.045,0.615H210.033z M213.902,75.735c0.015-0.823-0.345-2.13-1.83-2.13c-1.35,0-1.92,1.215-2.025,2.13
		H213.902z"/>
	<path fill="#0079A3" d="M216.812,75.18c0-0.93-0.03-1.68-0.06-2.37h1.17l0.075,1.245h0.03c0.525-0.885,1.395-1.395,2.58-1.395
		c1.77,0,3.09,1.483,3.09,3.675c0,2.608-1.605,3.898-3.314,3.898c-0.96,0-1.8-0.42-2.235-1.14h-0.03v3.944h-1.305L216.812,75.18
		L216.812,75.18z M218.118,77.115c0,0.194,0.015,0.375,0.06,0.54c0.24,0.914,1.035,1.545,1.98,1.545
		c1.395,0,2.205-1.141,2.205-2.806c0-1.438-0.765-2.685-2.16-2.685c-0.9,0-1.755,0.63-1.995,1.62
		c-0.045,0.165-0.09,0.358-0.09,0.523V77.115z"/>
	<path fill="#0079A3" d="M226.938,71.071v1.739h1.89v1.005h-1.89v3.915c0,0.9,0.255,1.41,0.99,1.41c0.36,0,0.57-0.03,0.765-0.09
		l0.06,1.005c-0.255,0.09-0.66,0.18-1.17,0.18c-0.615,0-1.11-0.21-1.425-0.555c-0.36-0.405-0.51-1.05-0.51-1.905v-3.96h-1.125V72.81
		h1.125v-1.35L226.938,71.071z"/>
	<path fill="#0079A3" d="M231.782,70.77c0,0.45-0.315,0.812-0.84,0.812c-0.48,0-0.795-0.36-0.795-0.812
		c0-0.449,0.33-0.824,0.825-0.824C231.452,69.946,231.782,70.305,231.782,70.77z M230.312,80.07v-7.26h1.32v7.26H230.312z"/>
	<path fill="#0079A3" d="M240.392,76.38c0,2.685-1.875,3.854-3.615,3.854c-1.95,0-3.48-1.438-3.48-3.733
		c0-2.415,1.605-3.84,3.6-3.84C238.982,72.66,240.392,74.175,240.392,76.38z M234.647,76.455c0,1.59,0.9,2.789,2.19,2.789
		c1.26,0,2.205-1.186,2.205-2.819c0-1.23-0.615-2.775-2.175-2.775C235.322,73.65,234.647,75.09,234.647,76.455z"/>
	<path fill="#0079A3" d="M242.057,74.775c0-0.765-0.015-1.363-0.06-1.965h1.17l0.075,1.2h0.03c0.36-0.675,1.2-1.35,2.4-1.35
		c1.005,0,2.564,0.6,2.564,3.09v4.318h-1.319v-4.185c0-1.17-0.436-2.145-1.68-2.145c-0.855,0-1.53,0.613-1.77,1.35
		c-0.06,0.165-0.09,0.39-0.09,0.615v4.363h-1.32V74.775z"/>
	<path fill="#0079A3" d="M255.481,78.33c0,0.63,0.03,1.244,0.105,1.738h-1.185l-0.105-0.915h-0.045
		c-0.405,0.57-1.185,1.08-2.22,1.08c-1.47,0-2.22-1.034-2.22-2.085c0-1.755,1.56-2.715,4.364-2.698V75.3
		c0-0.585-0.165-1.68-1.649-1.665c-0.69,0-1.396,0.195-1.905,0.54l-0.3-0.885c0.6-0.375,1.484-0.63,2.399-0.63
		c2.22,0,2.76,1.515,2.76,2.955L255.481,78.33L255.481,78.33z M254.207,76.365c-1.44-0.029-3.075,0.226-3.075,1.636
		c0,0.869,0.57,1.26,1.23,1.26c0.96,0,1.574-0.601,1.784-1.215c0.046-0.15,0.061-0.3,0.061-0.42V76.365z"/>
	<path fill="#0079A3" d="M257.611,69.42h1.32V80.07h-1.32V69.42z"/>
	<path fill="#0079A3" d="M265.066,76.68c0.03,1.785,1.155,2.521,2.491,2.521c0.943,0,1.528-0.165,2.01-0.375l0.238,0.944
		c-0.465,0.21-1.273,0.465-2.43,0.465c-2.234,0-3.569-1.483-3.569-3.675c0-2.188,1.29-3.898,3.404-3.898c2.386,0,3,2.068,3,3.403
		c0,0.271-0.015,0.465-0.045,0.615H265.066z M268.938,75.735c0.015-0.823-0.347-2.13-1.83-2.13c-1.352,0-1.92,1.215-2.025,2.13
		H268.938z"/>
	<path fill="#0079A3" d="M271.848,74.775c0-0.765-0.016-1.363-0.061-1.965h1.17l0.075,1.2h0.028c0.36-0.675,1.201-1.35,2.4-1.35
		c1.005,0,2.564,0.6,2.564,3.09v4.318h-1.319v-4.185c0-1.17-0.437-2.145-1.681-2.145c-0.854,0-1.529,0.613-1.771,1.35
		c-0.06,0.165-0.09,0.39-0.09,0.615v4.363h-1.319v-5.293H271.848z"/>
	<path fill="#0079A3" d="M280.906,76.68c0.029,1.785,1.154,2.521,2.49,2.521c0.943,0,1.528-0.165,2.01-0.375l0.238,0.944
		c-0.465,0.21-1.273,0.465-2.43,0.465c-2.234,0-3.568-1.483-3.568-3.675c0-2.188,1.289-3.898,3.403-3.898c2.386,0,3,2.068,3,3.403
		c0,0.271-0.015,0.465-0.045,0.615H280.906z M284.775,75.735c0.016-0.823-0.346-2.13-1.83-2.13c-1.35,0-1.92,1.215-2.024,2.13
		H284.775z"/>
	<path fill="#0079A3" d="M287.688,75.075c0-0.855-0.016-1.592-0.061-2.267h1.154l0.061,1.44h0.045c0.33-0.977,1.141-1.59,2.025-1.59
		c0.135,0,0.238,0.015,0.359,0.028v1.245c-0.135-0.029-0.271-0.029-0.451-0.029c-0.93,0-1.59,0.689-1.77,1.681
		c-0.029,0.18-0.045,0.404-0.045,0.615v3.868h-1.32v-4.992H287.688z"/>
	<path fill="#0079A3" d="M298.682,79.005c0,1.68-0.346,2.685-1.035,3.33c-0.721,0.645-1.739,0.869-2.654,0.869
		c-0.87,0-1.83-0.21-2.415-0.601l0.33-1.02c0.479,0.313,1.229,0.585,2.13,0.585c1.35,0,2.34-0.705,2.34-2.551v-0.795h-0.029
		c-0.391,0.676-1.186,1.216-2.311,1.216c-1.801,0-3.09-1.53-3.09-3.54c0-2.46,1.604-3.84,3.283-3.84
		c1.262,0,1.937,0.645,2.267,1.244h0.028l0.045-1.096h1.171c-0.046,0.511-0.06,1.11-0.06,1.98V79.005z M297.359,75.675
		c0-0.225-0.015-0.42-0.073-0.585c-0.24-0.78-0.87-1.41-1.847-1.41c-1.26,0-2.158,1.065-2.158,2.745
		c0,1.425,0.734,2.609,2.145,2.609c0.825,0,1.561-0.511,1.83-1.351c0.075-0.225,0.104-0.479,0.104-0.705V75.675L297.359,75.675z"/>
	<path fill="#0079A3" d="M301.336,72.81l1.574,4.29c0.181,0.48,0.359,1.05,0.48,1.485h0.029c0.135-0.437,0.285-0.99,0.465-1.517
		l1.439-4.26h1.396l-1.979,5.175c-0.944,2.49-1.59,3.75-2.489,4.545c-0.66,0.556-1.29,0.78-1.62,0.841l-0.33-1.096
		c0.33-0.104,0.766-0.313,1.155-0.645c0.358-0.285,0.795-0.795,1.108-1.471c0.062-0.136,0.105-0.239,0.105-0.314
		s-0.029-0.18-0.105-0.345l-2.67-6.69L301.336,72.81L301.336,72.81z"/>
	<path fill="#0079A3" d="M311.101,75.18c0-0.93-0.028-1.68-0.06-2.37h1.17l0.075,1.245h0.029c0.524-0.885,1.396-1.395,2.579-1.395
		c1.771,0,3.091,1.483,3.091,3.675c0,2.608-1.604,3.898-3.314,3.898c-0.96,0-1.8-0.42-2.235-1.14h-0.028v3.944h-1.307V75.18
		L311.101,75.18z M312.406,77.115c0,0.194,0.015,0.375,0.06,0.54c0.24,0.914,1.035,1.545,1.979,1.545
		c1.396,0,2.205-1.141,2.205-2.806c0-1.438-0.766-2.685-2.16-2.685c-0.899,0-1.755,0.63-1.994,1.62
		c-0.045,0.165-0.09,0.358-0.09,0.523V77.115z"/>
	<path fill="#0079A3" d="M320.371,76.68c0.03,1.785,1.155,2.521,2.49,2.521c0.943,0,1.528-0.165,2.01-0.375l0.239,0.944
		c-0.466,0.21-1.274,0.465-2.431,0.465c-2.233,0-3.568-1.483-3.568-3.675c0-2.188,1.29-3.898,3.403-3.898c2.386,0,3,2.068,3,3.403
		c0,0.271-0.015,0.465-0.045,0.615H320.371z M324.241,75.735c0.015-0.823-0.347-2.13-1.83-2.13c-1.352,0-1.92,1.215-2.025,2.13
		H324.241z"/>
	<path fill="#0079A3" d="M327.15,75.075c0-0.855-0.016-1.592-0.061-2.267h1.154l0.061,1.44h0.045c0.33-0.977,1.141-1.59,2.024-1.59
		c0.136,0,0.24,0.015,0.36,0.028v1.245c-0.136-0.029-0.271-0.029-0.45-0.029c-0.931,0-1.59,0.689-1.771,1.681
		c-0.029,0.18-0.045,0.404-0.045,0.615v3.868h-1.319L327.15,75.075L327.15,75.075z"/>
	<path fill="#0079A3" d="M332.64,80.07v-6.255h-1.005V72.81h1.005v-0.345c0-1.021,0.24-1.95,0.842-2.535
		c0.493-0.479,1.153-0.675,1.77-0.675c0.48,0,0.87,0.104,1.125,0.21l-0.18,1.021c-0.195-0.091-0.45-0.165-0.84-0.165
		c-1.125,0-1.41,0.976-1.41,2.101v0.39h1.755v1.005h-1.755v6.255L332.64,80.07L332.64,80.07z"/>
	<path fill="#0079A3" d="M343.261,76.38c0,2.685-1.875,3.854-3.614,3.854c-1.95,0-3.479-1.438-3.479-3.733
		c0-2.415,1.604-3.84,3.6-3.84C341.851,72.66,343.261,74.175,343.261,76.38z M337.516,76.455c0,1.59,0.9,2.789,2.189,2.789
		c1.261,0,2.205-1.186,2.205-2.819c0-1.23-0.614-2.775-2.175-2.775C338.19,73.65,337.516,75.09,337.516,76.455z"/>
	<path fill="#0079A3" d="M344.925,75.075c0-0.855-0.015-1.592-0.06-2.267h1.153l0.062,1.44h0.045c0.33-0.977,1.14-1.59,2.025-1.59
		c0.135,0,0.238,0.015,0.358,0.028v1.245c-0.135-0.029-0.27-0.029-0.45-0.029c-0.93,0-1.59,0.689-1.77,1.681
		c-0.03,0.18-0.045,0.404-0.045,0.615v3.868h-1.32L344.925,75.075L344.925,75.075z"/>
	<path fill="#0079A3" d="M349.891,74.775c0-0.765-0.028-1.363-0.06-1.965h1.154l0.061,1.187h0.045
		c0.405-0.69,1.08-1.335,2.295-1.335c0.976,0,1.726,0.6,2.04,1.455h0.03c0.225-0.421,0.524-0.722,0.824-0.945
		c0.436-0.33,0.899-0.51,1.59-0.51c0.976,0,2.399,0.63,2.399,3.148v4.26h-1.289v-4.095c0-1.41-0.525-2.233-1.575-2.233
		c-0.766,0-1.335,0.555-1.574,1.185c-0.062,0.195-0.105,0.42-0.105,0.66v4.483h-1.29v-4.35c0-1.155-0.51-1.979-1.515-1.979
		c-0.811,0-1.425,0.658-1.635,1.318c-0.075,0.182-0.105,0.42-0.105,0.646v4.363h-1.29V74.775L349.891,74.775z"/>
	<path fill="#0079A3" d="M367.5,78.33c0,0.63,0.03,1.244,0.105,1.738h-1.186l-0.104-0.915h-0.046c-0.404,0.57-1.185,1.08-2.22,1.08
		c-1.47,0-2.22-1.034-2.22-2.085c0-1.755,1.56-2.715,4.364-2.698V75.3c0-0.585-0.165-1.68-1.649-1.665
		c-0.689,0-1.396,0.195-1.905,0.54l-0.3-0.885c0.601-0.375,1.484-0.63,2.399-0.63c2.22,0,2.76,1.515,2.76,2.955L367.5,78.33
		L367.5,78.33z M366.226,76.365c-1.439-0.029-3.074,0.226-3.074,1.636c0,0.869,0.569,1.26,1.229,1.26
		c0.96,0,1.574-0.601,1.784-1.215c0.046-0.15,0.061-0.3,0.061-0.42V76.365z"/>
	<path fill="#0079A3" d="M369.63,74.775c0-0.765-0.015-1.363-0.06-1.965h1.17l0.075,1.2h0.028c0.36-0.675,1.2-1.35,2.4-1.35
		c1.005,0,2.563,0.6,2.563,3.09v4.318h-1.318v-4.185c0-1.17-0.437-2.145-1.682-2.145c-0.854,0-1.528,0.613-1.77,1.35
		c-0.06,0.165-0.09,0.39-0.09,0.615v4.363h-1.32v-5.293H369.63z"/>
	<path fill="#0079A3" d="M383.13,79.815c-0.345,0.165-1.108,0.42-2.085,0.42c-2.188,0-3.614-1.483-3.614-3.704
		c0-2.234,1.529-3.869,3.899-3.869c0.78,0,1.47,0.193,1.83,0.39l-0.3,1.005c-0.315-0.165-0.812-0.345-1.53-0.345
		c-1.665,0-2.564,1.245-2.564,2.745c0,1.68,1.08,2.715,2.521,2.715c0.75,0,1.245-0.181,1.62-0.346L383.13,79.815z"/>
	<path fill="#0079A3" d="M385.32,76.68c0.029,1.785,1.154,2.521,2.489,2.521c0.944,0,1.529-0.165,2.011-0.375l0.238,0.944
		c-0.465,0.21-1.273,0.465-2.43,0.465c-2.234,0-3.569-1.483-3.569-3.675c0-2.188,1.29-3.898,3.404-3.898c2.385,0,3,2.068,3,3.403
		c0,0.271-0.015,0.465-0.045,0.615H385.32z M389.19,75.735c0.015-0.823-0.347-2.13-1.83-2.13c-1.352,0-1.92,1.215-2.025,2.13H389.19
		z"/>
	<path fill="#0079A3" d="M391.605,79.29c0-0.54,0.375-0.945,0.898-0.945c0.525,0,0.885,0.39,0.885,0.945
		c0,0.539-0.358,0.943-0.914,0.943C391.965,80.235,391.605,79.829,391.605,79.29z"/>
</g>
<path fill="#0079A3" stroke="#FFFFFF" stroke-width="3" stroke-miterlimit="10" d="M142.413,73.42c0,6.297-5.104,11.399-11.4,11.399
	h-59.28c-6.296,0-11.4-5.104-11.4-11.399v-34.2c0-6.296,5.104-11.4,11.4-11.4h59.28c6.296,0,11.4,5.104,11.4,11.4V73.42z"/>
<g id="play_1_">
	<path id="play" fill="#FFFFFF" d="M120.582,57.932L89.718,74.071c-0.436,0.337-0.845,0.16-0.845-0.389V40.959
		c0-0.551,0.405-0.726,0.841-0.39l30.892,16.14C121.041,57.045,121.018,57.596,120.582,57.932z"/>
</g>
</svg>
