<?xml version="1.0" encoding="utf-8"?>
<!-- Generator: Adobe Illustrator 15.0.2, SVG Export Plug-In . SVG Version: 6.00 Build 0)  -->
<!DOCTYPE svg PUBLIC "-//W3C//DTD SVG 1.1//EN" "http://www.w3.org/Graphics/SVG/1.1/DTD/svg11.dtd">
<svg version="1.1" id="Layer_1" xmlns="http://www.w3.org/2000/svg" xmlns:xlink="http://www.w3.org/1999/xlink" x="0px" y="0px"
	 width="530.746px" height="111.641px" viewBox="0 0 530.746 111.641" enable-background="new 0 0 530.746 111.641"
	 xml:space="preserve">
<path opacity="0.7" fill="#FFFFFF" enable-background="new    " d="M482.691,96.387c-8.291-6.122-17.485-8.831-25.166-11.655
	c-6.004-2.206-7.122-15.938-17.571-21.529c-15.271-8.167-33.83,14.338-55.331-1.755c-20.502-15.345-9.518-22.498-30.854-33.142
	c-12.87-6.418-38.723-2.534-55.854,1.238c-17.991,3.959-48.848,8.146-75.207-0.766c-18.025-6.092-51.191-18.211-66.522-5.442
	c-6.083,5.062-11.233,14.867-14.369,22.85c-2.525,6.424-11.375,9.065-17.348,9.591c-8.643,0.763-14.83-5.646-32.243,4.207
	c-15.047,8.521-10.708,24.926-13.164,32.73c-2.347,7.46-26.638,10.612-42.865,8.847c-11.364-1.237-20.156,14.422-20.156,14.422
	h470.77C486.812,115.984,490.969,102.521,482.691,96.387z"/>
<g id="sky">
</g>
<g id="hills3">
</g>
<g id="hills1">
</g>
<g id="tractor">
</g>
<g id="hills">
</g>
<g id="foreground">
</g>
<g id="cows">
</g>
<g id="balloons">
</g>
<g>
	<path fill="#0079A3" d="M148.178,60.712h-3.998v3.723h4.472v1.117h-5.82V55.23h5.59v1.118h-4.242v3.263h3.998L148.178,60.712
		L148.178,60.712z"/>
	<path fill="#0079A3" d="M150.965,58.14l1.057,1.593c0.291,0.413,0.521,0.782,0.766,1.195h0.03c0.246-0.429,0.49-0.812,0.75-1.211
		l1.026-1.577h1.47l-2.527,3.583l2.588,3.829h-1.517l-1.103-1.669c-0.291-0.429-0.536-0.843-0.796-1.286h-0.03
		c-0.246,0.443-0.49,0.842-0.781,1.286l-1.073,1.669h-1.485l2.634-3.782l-2.511-3.63H150.965z"/>
	<path fill="#0079A3" d="M157.428,60.56c0-0.949-0.031-1.715-0.062-2.42h1.195l0.077,1.271h0.03
		c0.536-0.903,1.424-1.426,2.634-1.426c1.807,0,3.155,1.517,3.155,3.754c0,2.662-1.639,3.979-3.383,3.979
		c-0.98,0-1.838-0.429-2.282-1.164h-0.031v4.027h-1.332L157.428,60.56L157.428,60.56z M158.76,62.535
		c0,0.197,0.016,0.383,0.062,0.551c0.245,0.934,1.057,1.578,2.021,1.578c1.424,0,2.251-1.165,2.251-2.865
		c0-1.47-0.781-2.741-2.206-2.741c-0.919,0-1.792,0.645-2.037,1.653c-0.046,0.169-0.092,0.367-0.092,0.535L158.76,62.535
		L158.76,62.535z"/>
	<path fill="#0079A3" d="M171.349,63.776c0,0.644,0.031,1.271,0.107,1.775h-1.21l-0.107-0.934h-0.046
		c-0.413,0.582-1.21,1.103-2.266,1.103c-1.501,0-2.267-1.056-2.267-2.129c0-1.792,1.593-2.772,4.457-2.756v-0.153
		c0-0.597-0.168-1.716-1.685-1.699c-0.705,0-1.424,0.198-1.945,0.552l-0.306-0.903c0.612-0.383,1.516-0.645,2.45-0.645
		c2.267,0,2.818,1.548,2.818,3.018V63.776L171.349,63.776z M170.047,61.769c-1.47-0.028-3.14,0.23-3.14,1.67
		c0,0.889,0.582,1.287,1.256,1.287c0.98,0,1.608-0.613,1.823-1.241c0.046-0.152,0.061-0.307,0.061-0.429V61.769z"/>
	<path fill="#0079A3" d="M173.524,60.146c0-0.779-0.015-1.393-0.061-2.006h1.195l0.076,1.227h0.031
		c0.368-0.689,1.225-1.38,2.45-1.38c1.026,0,2.619,0.613,2.619,3.154v4.41h-1.348v-4.272c0-1.193-0.444-2.189-1.715-2.189
		c-0.873,0-1.562,0.627-1.807,1.379c-0.062,0.168-0.092,0.397-0.092,0.627v4.456h-1.348V60.146L173.524,60.146z"/>
	<path fill="#0079A3" d="M188.411,54.679v8.958c0,0.66,0.031,1.41,0.061,1.914h-1.194l-0.062-1.286h-0.046
		c-0.398,0.827-1.287,1.455-2.496,1.455c-1.792,0-3.186-1.516-3.186-3.767c-0.016-2.467,1.531-3.968,3.323-3.968
		c1.148,0,1.899,0.535,2.236,1.118h0.031v-4.426L188.411,54.679L188.411,54.679z M187.079,61.156c0-0.169-0.016-0.397-0.062-0.565
		c-0.199-0.843-0.934-1.549-1.945-1.549c-1.394,0-2.221,1.226-2.221,2.849c0,1.502,0.75,2.742,2.19,2.742
		c0.903,0,1.73-0.613,1.976-1.607c0.046-0.185,0.062-0.367,0.062-0.582V61.156z"/>
	<path fill="#0079A3" d="M199.192,65.292c-0.352,0.168-1.133,0.429-2.128,0.429c-2.236,0-3.691-1.516-3.691-3.782
		c0-2.28,1.562-3.951,3.982-3.951c0.796,0,1.5,0.198,1.869,0.398l-0.307,1.026c-0.322-0.169-0.827-0.354-1.562-0.354
		c-1.7,0-2.619,1.271-2.619,2.802c0,1.718,1.102,2.772,2.573,2.772c0.766,0,1.271-0.184,1.654-0.353L199.192,65.292z"/>
	<path fill="#0079A3" d="M206.973,63.515c0,0.782,0.015,1.455,0.061,2.036h-1.194l-0.077-1.209h-0.031
		c-0.337,0.597-1.133,1.378-2.451,1.378c-1.164,0-2.558-0.659-2.558-3.247v-4.334h1.348v4.089c0,1.409,0.444,2.374,1.654,2.374
		c0.904,0,1.531-0.628,1.777-1.24c0.076-0.185,0.123-0.429,0.123-0.689V58.14h1.348V63.515L206.973,63.515z"/>
	<path fill="#0079A3" d="M209.025,64.19c0.414,0.245,1.119,0.521,1.792,0.521c0.965,0,1.424-0.477,1.424-1.104
		c0-0.643-0.383-0.979-1.363-1.347c-1.348-0.489-1.976-1.211-1.976-2.098c0-1.196,0.98-2.177,2.558-2.177
		c0.75,0,1.409,0.198,1.807,0.458l-0.321,0.98c-0.291-0.184-0.827-0.443-1.517-0.443c-0.796,0-1.225,0.459-1.225,1.012
		c0,0.611,0.429,0.888,1.394,1.271c1.271,0.477,1.945,1.118,1.945,2.221c0,1.316-1.026,2.235-2.757,2.235
		c-0.812,0-1.562-0.215-2.083-0.521L209.025,64.19z"/>
	<path fill="#0079A3" d="M216.897,56.363v1.777h1.93v1.026h-1.93v3.997c0,0.919,0.261,1.438,1.011,1.438
		c0.368,0,0.582-0.029,0.781-0.092l0.062,1.026c-0.261,0.092-0.674,0.184-1.195,0.184c-0.627,0-1.133-0.215-1.455-0.566
		c-0.368-0.413-0.521-1.071-0.521-1.944v-4.043h-1.149V58.14h1.149v-1.378L216.897,56.363z"/>
	<path fill="#0079A3" d="M226.959,61.785c0,2.74-1.915,3.935-3.691,3.935c-1.991,0-3.553-1.47-3.553-3.812
		c0-2.466,1.639-3.921,3.676-3.921C225.52,57.987,226.959,59.533,226.959,61.785z M221.094,61.861c0,1.624,0.919,2.85,2.236,2.85
		c1.286,0,2.251-1.21,2.251-2.878c0-1.257-0.628-2.834-2.221-2.834C221.782,58.997,221.094,60.468,221.094,61.861z"/>
	<path fill="#0079A3" d="M228.659,60.146c0-0.779-0.031-1.393-0.062-2.006h1.18l0.061,1.21h0.046
		c0.414-0.703,1.103-1.362,2.343-1.362c0.996,0,1.761,0.613,2.083,1.485h0.03c0.23-0.43,0.537-0.736,0.843-0.964
		c0.444-0.337,0.919-0.521,1.623-0.521c0.996,0,2.451,0.645,2.451,3.217v4.349h-1.317v-4.181c0-1.439-0.537-2.281-1.608-2.281
		c-0.781,0-1.363,0.567-1.608,1.21c-0.061,0.199-0.107,0.429-0.107,0.675v4.577H233.3v-4.44c0-1.18-0.521-2.021-1.547-2.021
		c-0.827,0-1.455,0.673-1.669,1.347c-0.076,0.186-0.107,0.43-0.107,0.659v4.456h-1.317L228.659,60.146L228.659,60.146z"/>
	<path fill="#0079A3" d="M242.183,62.091c0.031,1.823,1.18,2.573,2.542,2.573c0.965,0,1.562-0.168,2.052-0.383l0.245,0.965
		c-0.475,0.214-1.302,0.475-2.481,0.475c-2.282,0-3.645-1.516-3.645-3.752s1.317-3.981,3.476-3.981c2.436,0,3.063,2.112,3.063,3.477
		c0,0.277-0.016,0.476-0.046,0.628L242.183,62.091L242.183,62.091z M246.135,61.126c0.015-0.842-0.353-2.175-1.869-2.175
		c-1.378,0-1.96,1.239-2.067,2.175H246.135z"/>
	<path fill="#0079A3" d="M249.105,60.452c0-0.873-0.016-1.625-0.061-2.313h1.179l0.062,1.471h0.046
		c0.337-0.997,1.164-1.624,2.067-1.624c0.138,0,0.245,0.017,0.368,0.029v1.271c-0.138-0.031-0.276-0.031-0.46-0.031
		c-0.95,0-1.623,0.705-1.807,1.718c-0.03,0.185-0.046,0.412-0.046,0.627v3.95h-1.348V60.452L249.105,60.452z"/>
	<path fill="#0079A3" d="M257.36,60.452c0-0.873-0.015-1.625-0.061-2.313h1.179l0.062,1.471h0.046
		c0.337-0.997,1.164-1.624,2.067-1.624c0.138,0,0.246,0.017,0.368,0.029v1.271c-0.138-0.031-0.276-0.031-0.46-0.031
		c-0.95,0-1.623,0.705-1.807,1.718c-0.03,0.185-0.046,0.412-0.046,0.627v3.95h-1.348V60.452L257.36,60.452z"/>
	<path fill="#0079A3" d="M262.965,62.091c0.031,1.823,1.18,2.573,2.542,2.573c0.964,0,1.562-0.168,2.052-0.383l0.246,0.965
		c-0.477,0.214-1.302,0.475-2.481,0.475c-2.282,0-3.645-1.516-3.645-3.752s1.317-3.981,3.476-3.981c2.436,0,3.063,2.112,3.063,3.477
		c0,0.277-0.017,0.476-0.046,0.628L262.965,62.091L262.965,62.091z M266.917,61.126c0.017-0.842-0.354-2.175-1.869-2.175
		c-1.378,0-1.96,1.239-2.068,2.175H266.917z"/>
	<path fill="#0079A3" d="M275.096,63.776c0,0.644,0.029,1.271,0.107,1.775h-1.211l-0.107-0.934h-0.046
		c-0.413,0.582-1.211,1.103-2.266,1.103c-1.503,0-2.269-1.056-2.269-2.129c0-1.792,1.594-2.772,4.457-2.756v-0.153
		c0-0.597-0.17-1.716-1.686-1.699c-0.703,0-1.424,0.198-1.943,0.552l-0.308-0.903c0.612-0.383,1.516-0.645,2.45-0.645
		c2.267,0,2.816,1.548,2.816,3.018L275.096,63.776L275.096,63.776z M273.793,61.769c-1.47-0.028-3.139,0.23-3.139,1.67
		c0,0.889,0.582,1.287,1.254,1.287c0.98,0,1.607-0.613,1.822-1.241c0.045-0.152,0.062-0.307,0.062-0.429L273.793,61.769
		L273.793,61.769z"/>
	<path fill="#0079A3" d="M282.555,65.292c-0.354,0.168-1.134,0.429-2.129,0.429c-2.236,0-3.691-1.516-3.691-3.782
		c0-2.28,1.562-3.951,3.98-3.951c0.797,0,1.501,0.198,1.868,0.398l-0.306,1.026c-0.322-0.169-0.829-0.354-1.562-0.354
		c-1.699,0-2.617,1.271-2.617,2.802c0,1.718,1.103,2.772,2.572,2.772c0.766,0,1.271-0.184,1.654-0.353L282.555,65.292z"/>
	<path fill="#0079A3" d="M284.131,54.679h1.348v4.641h0.03c0.214-0.383,0.552-0.735,0.964-0.966
		c0.399-0.229,0.873-0.366,1.379-0.366c0.998,0,2.59,0.613,2.59,3.154v4.41h-1.35v-4.258c0-1.194-0.443-2.189-1.715-2.189
		c-0.871,0-1.547,0.612-1.809,1.332c-0.075,0.2-0.092,0.399-0.092,0.645v4.472h-1.349V54.679H284.131z"/>
	<path fill="#0079A3" d="M301.085,63.776c0,0.644,0.03,1.271,0.106,1.775h-1.211l-0.105-0.934h-0.046
		c-0.414,0.582-1.212,1.103-2.269,1.103c-1.5,0-2.267-1.056-2.267-2.129c0-1.792,1.593-2.772,4.456-2.756v-0.153
		c0-0.597-0.168-1.716-1.684-1.699c-0.705,0-1.426,0.198-1.945,0.552l-0.307-0.903c0.612-0.383,1.516-0.645,2.451-0.645
		c2.266,0,2.816,1.548,2.816,3.018L301.085,63.776L301.085,63.776z M299.783,61.769c-1.471-0.028-3.141,0.23-3.141,1.67
		c0,0.889,0.582,1.287,1.254,1.287c0.981,0,1.609-0.613,1.824-1.241c0.045-0.152,0.062-0.307,0.062-0.429L299.783,61.769
		L299.783,61.769z"/>
	<path fill="#0079A3" d="M303.259,60.146c0-0.779-0.014-1.393-0.06-2.006h1.193l0.076,1.227h0.029c0.368-0.689,1.227-1.38,2.45-1.38
		c1.026,0,2.619,0.613,2.619,3.154v4.41h-1.349v-4.272c0-1.193-0.443-2.189-1.715-2.189c-0.873,0-1.562,0.627-1.809,1.379
		c-0.062,0.168-0.092,0.397-0.092,0.627v4.456h-1.35v-5.404L303.259,60.146L303.259,60.146z"/>
	<path fill="#0079A3" d="M318.146,54.679v8.958c0,0.66,0.031,1.41,0.062,1.914h-1.195l-0.062-1.286h-0.046
		c-0.397,0.827-1.286,1.455-2.496,1.455c-1.791,0-3.187-1.516-3.187-3.767c-0.015-2.467,1.532-3.968,3.324-3.968
		c1.149,0,1.898,0.535,2.236,1.118h0.028v-4.426L318.146,54.679L318.146,54.679z M316.812,61.156c0-0.169-0.016-0.397-0.062-0.565
		c-0.198-0.843-0.935-1.549-1.944-1.549c-1.395,0-2.222,1.226-2.222,2.849c0,1.502,0.751,2.742,2.191,2.742
		c0.902,0,1.729-0.613,1.976-1.607c0.047-0.185,0.062-0.367,0.062-0.582L316.812,61.156L316.812,61.156z"/>
	<path fill="#0079A3" d="M323.644,54.679h1.335v4.655h0.029c0.477-0.826,1.333-1.348,2.527-1.348c1.852,0,3.139,1.531,3.139,3.768
		c0,2.648-1.684,3.967-3.339,3.967c-1.072,0-1.93-0.413-2.495-1.378h-0.029l-0.077,1.209h-1.147c0.03-0.504,0.061-1.254,0.061-1.914
		L323.644,54.679L323.644,54.679z M324.977,62.581c0,0.168,0.017,0.337,0.062,0.488c0.245,0.936,1.043,1.577,2.021,1.577
		c1.425,0,2.253-1.147,2.253-2.849c0-1.485-0.767-2.757-2.224-2.757c-0.903,0-1.761,0.644-2.035,1.653
		c-0.047,0.168-0.077,0.354-0.077,0.567V62.581L324.977,62.581z"/>
	<path fill="#0079A3" d="M333.109,62.091c0.03,1.823,1.18,2.573,2.541,2.573c0.965,0,1.562-0.168,2.053-0.383l0.245,0.965
		c-0.477,0.214-1.302,0.475-2.481,0.475c-2.281,0-3.645-1.516-3.645-3.752s1.317-3.981,3.476-3.981c2.438,0,3.063,2.112,3.063,3.477
		c0,0.277-0.017,0.476-0.046,0.628L333.109,62.091L333.109,62.091z M337.061,61.126c0.017-0.842-0.354-2.175-1.867-2.175
		c-1.379,0-1.961,1.239-2.068,2.175H337.061z"/>
	<path fill="#0079A3" d="M346.372,64.464c0,1.716-0.354,2.742-1.058,3.4c-0.733,0.658-1.775,0.889-2.711,0.889
		c-0.888,0-1.867-0.215-2.466-0.613l0.337-1.042c0.49,0.321,1.257,0.597,2.176,0.597c1.379,0,2.389-0.72,2.389-2.603v-0.812h-0.028
		c-0.399,0.688-1.212,1.24-2.359,1.24c-1.839,0-3.154-1.562-3.154-3.614c0-2.512,1.639-3.921,3.354-3.921
		c1.286,0,1.977,0.659,2.312,1.271h0.031l0.046-1.117h1.193c-0.046,0.521-0.062,1.134-0.062,2.022V64.464L346.372,64.464z
		 M345.024,61.066c0-0.229-0.016-0.429-0.076-0.598c-0.246-0.797-0.89-1.439-1.884-1.439c-1.287,0-2.206,1.088-2.206,2.804
		c0,1.454,0.751,2.664,2.19,2.664c0.841,0,1.593-0.521,1.868-1.379c0.076-0.23,0.106-0.489,0.106-0.721L345.024,61.066
		L345.024,61.066z"/>
	<path fill="#0079A3" d="M350.002,56.057c0,0.46-0.322,0.828-0.857,0.828c-0.488,0-0.812-0.367-0.812-0.828s0.336-0.843,0.843-0.843
		C349.665,55.214,350.002,55.582,350.002,56.057z M348.502,65.552V58.14h1.347v7.412H348.502z"/>
	<path fill="#0079A3" d="M352.085,60.146c0-0.779-0.016-1.393-0.062-2.006h1.194l0.076,1.227h0.03
		c0.367-0.689,1.225-1.38,2.451-1.38c1.024,0,2.616,0.613,2.616,3.154v4.41h-1.348v-4.272c0-1.193-0.444-2.189-1.715-2.189
		c-0.873,0-1.562,0.627-1.809,1.379c-0.062,0.168-0.091,0.397-0.091,0.627v4.456h-1.349v-5.404L352.085,60.146L352.085,60.146z"/>
	<path fill="#0079A3" d="M136.538,80.163c0,2.74-1.915,3.935-3.691,3.935c-1.991,0-3.553-1.47-3.553-3.812
		c0-2.466,1.639-3.921,3.676-3.921C135.099,76.365,136.538,77.912,136.538,80.163z M130.672,80.24c0,1.622,0.919,2.849,2.236,2.849
		c1.287,0,2.251-1.21,2.251-2.879c0-1.256-0.628-2.833-2.221-2.833C131.36,77.376,130.672,78.847,130.672,80.24z"/>
	<path fill="#0079A3" d="M142.832,83.931v-6.387h-3.125v6.387h-1.333v-6.387h-1.026v-1.026h1.026v-0.229
		c0-1.043,0.245-1.933,0.827-2.529c0.429-0.429,1.042-0.688,1.869-0.688c0.429,0,0.827,0.138,1.056,0.26l-0.275,1.012
		c-0.199-0.106-0.49-0.2-0.796-0.2c-1.057,0-1.348,0.906-1.348,2.068v0.307h3.125v-0.353c0-1.043,0.229-1.991,0.857-2.589
		c0.506-0.488,1.179-0.688,1.792-0.688c0.49,0,0.904,0.105,1.148,0.214l-0.168,1.041c-0.214-0.092-0.475-0.168-0.873-0.168
		c-1.133,0-1.424,0.997-1.424,2.146v0.396h1.777v1.026h-1.777v6.387L142.832,83.931L142.832,83.931z"/>
	<path fill="#0079A3" d="M147.718,80.47c0.031,1.822,1.18,2.573,2.542,2.573c0.965,0,1.562-0.168,2.052-0.383l0.245,0.964
		c-0.475,0.215-1.301,0.475-2.481,0.475c-2.282,0-3.645-1.516-3.645-3.752c0-2.235,1.317-3.98,3.477-3.98
		c2.435,0,3.063,2.112,3.063,3.477c0,0.276-0.015,0.476-0.046,0.628L147.718,80.47L147.718,80.47z M151.669,79.504
		c0.016-0.841-0.353-2.174-1.869-2.174c-1.378,0-1.96,1.239-2.067,2.174H151.669z"/>
	<path fill="#0079A3" d="M154.64,78.83c0-0.872-0.015-1.624-0.061-2.312h1.179l0.062,1.472h0.046
		c0.337-0.998,1.164-1.625,2.067-1.625c0.138,0,0.245,0.017,0.368,0.029v1.271c-0.138-0.031-0.276-0.031-0.46-0.031
		c-0.949,0-1.623,0.705-1.807,1.717c-0.03,0.185-0.046,0.413-0.046,0.628v3.95h-1.348V78.83L154.64,78.83z"/>
	<path fill="#0079A3" d="M161.21,74.436c0,0.459-0.322,0.828-0.858,0.828c-0.49,0-0.812-0.368-0.812-0.828
		c0-0.461,0.337-0.843,0.843-0.843C160.874,73.593,161.21,73.961,161.21,74.436z M159.709,83.931v-7.413h1.348v7.413H159.709z"/>
	<path fill="#0079A3" d="M163.293,78.525c0-0.78-0.015-1.394-0.061-2.007h1.194l0.076,1.227h0.031
		c0.367-0.688,1.225-1.379,2.45-1.379c1.026,0,2.619,0.612,2.619,3.154v4.41h-1.347v-4.271c0-1.194-0.444-2.19-1.716-2.19
		c-0.873,0-1.562,0.627-1.807,1.379c-0.062,0.168-0.092,0.397-0.092,0.627v4.456h-1.348L163.293,78.525L163.293,78.525z"/>
	<path fill="#0079A3" d="M178.134,82.843c0,1.716-0.352,2.742-1.057,3.4c-0.735,0.658-1.776,0.888-2.711,0.888
		c-0.888,0-1.868-0.214-2.466-0.613l0.337-1.042c0.49,0.321,1.255,0.599,2.174,0.599c1.378,0,2.39-0.721,2.39-2.604v-0.812h-0.031
		c-0.398,0.688-1.21,1.239-2.359,1.239c-1.837,0-3.155-1.562-3.155-3.613c0-2.512,1.639-3.921,3.354-3.921
		c1.286,0,1.976,0.658,2.312,1.271h0.031l0.046-1.118h1.194c-0.046,0.521-0.062,1.134-0.062,2.022v4.305H178.134z M176.786,79.444
		c0-0.229-0.015-0.429-0.077-0.597c-0.245-0.797-0.888-1.439-1.883-1.439c-1.287,0-2.206,1.087-2.206,2.803
		c0,1.455,0.75,2.665,2.19,2.665c0.843,0,1.593-0.521,1.869-1.38c0.076-0.229,0.107-0.489,0.107-0.721V79.444z"/>
	<path fill="#0079A3" d="M185.103,74.436c0,0.459-0.321,0.828-0.858,0.828c-0.49,0-0.812-0.368-0.812-0.828
		c0-0.461,0.337-0.843,0.842-0.843C184.766,73.593,185.103,73.961,185.103,74.436z M183.602,83.931v-7.413h1.348v7.413H183.602z"/>
	<path fill="#0079A3" d="M187.186,78.525c0-0.78-0.016-1.394-0.062-2.007h1.195l0.076,1.227h0.031
		c0.368-0.688,1.226-1.379,2.451-1.379c1.026,0,2.619,0.612,2.619,3.154v4.41h-1.348v-4.271c0-1.194-0.444-2.19-1.715-2.19
		c-0.873,0-1.562,0.627-1.807,1.379c-0.062,0.168-0.092,0.397-0.092,0.627v4.456h-1.348V78.525L187.186,78.525z"/>
	<path fill="#0079A3" d="M200.969,83.67c-0.353,0.169-1.134,0.429-2.128,0.429c-2.237,0-3.691-1.516-3.691-3.781
		c0-2.281,1.562-3.951,3.982-3.951c0.797,0,1.501,0.198,1.869,0.398l-0.306,1.025c-0.322-0.168-0.827-0.353-1.562-0.353
		c-1.7,0-2.619,1.271-2.619,2.803c0,1.716,1.103,2.771,2.573,2.771c0.766,0,1.271-0.183,1.654-0.352L200.969,83.67z"/>
	<path fill="#0079A3" d="M203.206,80.47c0.03,1.822,1.179,2.573,2.542,2.573c0.965,0,1.562-0.168,2.053-0.383l0.245,0.964
		c-0.475,0.215-1.302,0.475-2.481,0.475c-2.282,0-3.645-1.516-3.645-3.752c0-2.235,1.317-3.98,3.477-3.98
		c2.435,0,3.063,2.112,3.063,3.477c0,0.276-0.016,0.476-0.046,0.628L203.206,80.47L203.206,80.47z M207.155,79.504
		c0.016-0.841-0.352-2.174-1.868-2.174c-1.378,0-1.961,1.239-2.068,2.174H207.155z"/>
	<path fill="#0079A3" d="M210.127,78.525c0-0.78-0.015-1.394-0.062-2.007h1.195l0.076,1.227h0.03
		c0.368-0.688,1.226-1.379,2.451-1.379c1.026,0,2.619,0.612,2.619,3.154v4.41h-1.348v-4.271c0-1.194-0.444-2.19-1.715-2.19
		c-0.873,0-1.562,0.627-1.807,1.379c-0.062,0.168-0.092,0.397-0.092,0.627v4.456h-1.348L210.127,78.525L210.127,78.525z"/>
	<path fill="#0079A3" d="M220.19,74.741v1.775h1.93v1.026h-1.93v3.997c0,0.92,0.261,1.439,1.011,1.439
		c0.367,0,0.582-0.03,0.781-0.092l0.061,1.026c-0.26,0.092-0.674,0.183-1.195,0.183c-0.627,0-1.133-0.214-1.455-0.564
		c-0.368-0.414-0.521-1.072-0.521-1.946v-4.043h-1.149v-1.026h1.149V75.14L220.19,74.741z"/>
	<path fill="#0079A3" d="M225.137,74.436c0,0.459-0.322,0.828-0.857,0.828c-0.491,0-0.812-0.368-0.812-0.828
		c0-0.461,0.337-0.843,0.842-0.843C224.8,73.593,225.137,73.961,225.137,74.436z M223.635,83.931v-7.413h1.348v7.413H223.635z"/>
	<path fill="#0079A3" d="M227.74,76.518l1.455,4.15c0.245,0.689,0.444,1.301,0.597,1.914h0.046c0.169-0.613,0.383-1.225,0.628-1.914
		l1.44-4.15h1.409l-2.91,7.413h-1.287l-2.818-7.413H227.74z"/>
	<path fill="#0079A3" d="M235.183,80.47c0.031,1.822,1.18,2.573,2.542,2.573c0.965,0,1.562-0.168,2.052-0.383l0.245,0.964
		c-0.475,0.215-1.302,0.475-2.481,0.475c-2.282,0-3.645-1.516-3.645-3.752c0-2.235,1.317-3.98,3.476-3.98
		c2.436,0,3.063,2.112,3.063,3.477c0,0.276-0.015,0.476-0.045,0.628L235.183,80.47L235.183,80.47z M239.135,79.504
		c0.015-0.841-0.353-2.174-1.869-2.174c-1.378,0-1.96,1.239-2.068,2.174H239.135z"/>
	<path fill="#0079A3" d="M241.922,82.568c0.414,0.245,1.118,0.521,1.792,0.521c0.964,0,1.424-0.475,1.424-1.104
		c0-0.644-0.383-0.979-1.363-1.348c-1.348-0.489-1.976-1.21-1.976-2.098c0-1.195,0.98-2.176,2.558-2.176
		c0.75,0,1.409,0.198,1.807,0.459l-0.321,0.979c-0.291-0.184-0.827-0.444-1.516-0.444c-0.797,0-1.226,0.46-1.226,1.013
		c0,0.611,0.429,0.887,1.394,1.27c1.271,0.477,1.945,1.119,1.945,2.221c0,1.317-1.026,2.235-2.757,2.235
		c-0.812,0-1.562-0.214-2.083-0.521L241.922,82.568z"/>
	<path fill="#0079A3" d="M251.556,83.931v-6.387h-1.026v-1.026h1.026v-0.352c0-1.043,0.245-1.991,0.857-2.588
		c0.505-0.489,1.179-0.689,1.807-0.689c0.49,0,0.888,0.105,1.148,0.215l-0.184,1.04c-0.199-0.091-0.459-0.168-0.858-0.168
		c-1.148,0-1.439,0.997-1.439,2.146v0.397h1.792v1.025h-1.792v6.387L251.556,83.931L251.556,83.931z"/>
	<path fill="#0079A3" d="M262.399,80.163c0,2.74-1.915,3.935-3.691,3.935c-1.991,0-3.553-1.47-3.553-3.812
		c0-2.466,1.639-3.921,3.676-3.921C260.959,76.365,262.399,77.912,262.399,80.163z M256.533,80.24c0,1.622,0.919,2.849,2.236,2.849
		c1.286,0,2.251-1.21,2.251-2.879c0-1.256-0.628-2.833-2.221-2.833C257.222,77.376,256.533,78.847,256.533,80.24z"/>
	<path fill="#0079A3" d="M264.099,78.83c0-0.872-0.015-1.624-0.061-2.312h1.179l0.061,1.472h0.046
		c0.337-0.998,1.164-1.625,2.068-1.625c0.137,0,0.244,0.017,0.365,0.029v1.271c-0.137-0.031-0.273-0.031-0.458-0.031
		c-0.948,0-1.624,0.705-1.808,1.717c-0.03,0.185-0.046,0.413-0.046,0.628v3.95h-1.348L264.099,78.83L264.099,78.83z"/>
	<path fill="#0079A3" d="M273.104,80.47c0.03,1.822,1.18,2.573,2.543,2.573c0.963,0,1.562-0.168,2.053-0.383l0.244,0.964
		c-0.476,0.215-1.301,0.475-2.481,0.475c-2.28,0-3.646-1.516-3.646-3.752c0-2.235,1.317-3.98,3.478-3.98
		c2.437,0,3.063,2.112,3.063,3.477c0,0.276-0.017,0.476-0.047,0.628L273.104,80.47L273.104,80.47z M277.057,79.504
		c0.016-0.841-0.354-2.174-1.869-2.174c-1.379,0-1.961,1.239-2.066,2.174H277.057z"/>
	<path fill="#0079A3" d="M280.025,78.525c0-0.78-0.016-1.394-0.062-2.007h1.194l0.076,1.227h0.031
		c0.365-0.688,1.223-1.379,2.449-1.379c1.025,0,2.617,0.612,2.617,3.154v4.41h-1.348v-4.271c0-1.194-0.442-2.19-1.715-2.19
		c-0.873,0-1.562,0.627-1.808,1.379c-0.062,0.168-0.092,0.397-0.092,0.627v4.456h-1.349v-5.404L280.025,78.525L280.025,78.525z"/>
	<path fill="#0079A3" d="M289.275,80.47c0.031,1.822,1.18,2.573,2.543,2.573c0.964,0,1.562-0.168,2.052-0.383l0.245,0.964
		c-0.477,0.215-1.303,0.475-2.481,0.475c-2.28,0-3.645-1.516-3.645-3.752c0-2.235,1.317-3.98,3.477-3.98
		c2.437,0,3.062,2.112,3.062,3.477c0,0.276-0.016,0.476-0.045,0.628L289.275,80.47L289.275,80.47z M293.229,79.504
		c0.017-0.841-0.354-2.174-1.869-2.174c-1.377,0-1.959,1.239-2.065,2.174H293.229z"/>
	<path fill="#0079A3" d="M296.199,78.83c0-0.872-0.016-1.624-0.062-2.312h1.18l0.062,1.472h0.046
		c0.337-0.998,1.165-1.625,2.068-1.625c0.138,0,0.244,0.017,0.367,0.029v1.271c-0.14-0.031-0.276-0.031-0.459-0.031
		c-0.95,0-1.623,0.705-1.809,1.717c-0.031,0.185-0.046,0.413-0.046,0.628v3.95h-1.349L296.199,78.83L296.199,78.83z"/>
	<path fill="#0079A3" d="M307.425,82.843c0,1.716-0.352,2.742-1.057,3.4c-0.734,0.658-1.775,0.888-2.71,0.888
		c-0.887,0-1.869-0.214-2.465-0.613l0.336-1.042c0.488,0.321,1.255,0.599,2.175,0.599c1.379,0,2.39-0.721,2.39-2.604v-0.812h-0.029
		c-0.398,0.688-1.211,1.239-2.359,1.239c-1.837,0-3.155-1.562-3.155-3.613c0-2.512,1.64-3.921,3.354-3.921
		c1.285,0,1.977,0.658,2.312,1.271h0.029l0.046-1.118h1.195c-0.046,0.521-0.062,1.134-0.062,2.022V82.843L307.425,82.843z
		 M306.079,79.444c0-0.229-0.017-0.429-0.078-0.597c-0.244-0.797-0.888-1.439-1.883-1.439c-1.288,0-2.205,1.087-2.205,2.803
		c0,1.455,0.75,2.665,2.19,2.665c0.842,0,1.592-0.521,1.869-1.38c0.074-0.229,0.105-0.489,0.105-0.721L306.079,79.444
		L306.079,79.444z"/>
	<path fill="#0079A3" d="M310.136,76.518l1.608,4.381c0.184,0.489,0.366,1.072,0.49,1.517h0.028
		c0.139-0.445,0.291-1.011,0.476-1.548l1.471-4.35h1.424l-2.02,5.283c-0.966,2.543-1.625,3.829-2.543,4.642
		c-0.674,0.566-1.317,0.797-1.653,0.857l-0.337-1.119c0.337-0.105,0.781-0.32,1.179-0.659c0.366-0.29,0.812-0.812,1.132-1.5
		c0.062-0.139,0.107-0.245,0.107-0.32c0-0.077-0.03-0.186-0.107-0.354l-2.727-6.83H310.136L310.136,76.518z"/>
	<path fill="#0079A3" d="M319.923,79.305v0.98h-3.783v-0.98H319.923z"/>
	<path fill="#0079A3" d="M322.526,80.47c0.029,1.822,1.18,2.573,2.541,2.573c0.966,0,1.562-0.168,2.053-0.383l0.245,0.964
		c-0.476,0.215-1.303,0.475-2.481,0.475c-2.281,0-3.646-1.516-3.646-3.752c0-2.235,1.317-3.98,3.478-3.98
		c2.437,0,3.062,2.112,3.062,3.477c0,0.276-0.017,0.476-0.047,0.628L322.526,80.47L322.526,80.47z M326.478,79.504
		c0.016-0.841-0.353-2.174-1.867-2.174c-1.378,0-1.961,1.239-2.068,2.174H326.478z"/>
	<path fill="#0079A3" d="M338.729,74.374c-0.337-0.214-0.889-0.399-1.517-0.399c-1.408,0-1.837,0.997-1.837,2.176v0.367h4.318v7.412
		h-1.349v-6.387h-2.971v6.387h-1.332v-6.387h-3.126v6.387h-1.332v-6.387h-1.026v-1.025h1.026v-0.261c0-0.918,0.26-1.838,0.888-2.45
		c0.43-0.444,1.072-0.719,1.899-0.719c0.504,0,1.024,0.184,1.301,0.32l-0.383,0.995c-0.23-0.139-0.582-0.262-0.918-0.262
		c-0.43,0-0.736,0.154-0.965,0.383c-0.368,0.4-0.49,1.073-0.49,1.719v0.273h3.126v-0.412c0-1.943,1.148-3.216,3.23-3.216
		c0.674,0,1.454,0.214,1.853,0.476L338.729,74.374z"/>
	<path fill="#0079A3" d="M347.213,83.67c-0.351,0.169-1.132,0.429-2.128,0.429c-2.234,0-3.688-1.516-3.688-3.781
		c0-2.281,1.562-3.951,3.98-3.951c0.795,0,1.501,0.198,1.868,0.398l-0.307,1.025c-0.321-0.168-0.828-0.353-1.562-0.353
		c-1.701,0-2.619,1.271-2.619,2.803c0,1.716,1.104,2.771,2.574,2.771c0.766,0,1.27-0.183,1.653-0.352L347.213,83.67z"/>
	<path fill="#0079A3" d="M350.292,74.436c0,0.459-0.32,0.828-0.857,0.828c-0.488,0-0.812-0.368-0.812-0.828
		c0-0.461,0.336-0.843,0.842-0.843C349.955,73.593,350.292,73.961,350.292,74.436z M348.793,83.931v-7.413h1.347v7.413H348.793z"/>
	<path fill="#0079A3" d="M353.126,80.47c0.03,1.822,1.179,2.573,2.543,2.573c0.964,0,1.562-0.168,2.052-0.383l0.245,0.964
		c-0.475,0.215-1.301,0.475-2.48,0.475c-2.282,0-3.646-1.516-3.646-3.752c0-2.235,1.316-3.98,3.477-3.98
		c2.436,0,3.062,2.112,3.062,3.477c0,0.276-0.016,0.476-0.046,0.628L353.126,80.47L353.126,80.47z M357.076,79.504
		c0.018-0.841-0.352-2.174-1.868-2.174c-1.378,0-1.96,1.239-2.066,2.174H357.076z"/>
	<path fill="#0079A3" d="M360.048,78.525c0-0.78-0.015-1.394-0.061-2.007h1.193l0.077,1.227h0.028
		c0.368-0.688,1.226-1.379,2.451-1.379c1.025,0,2.616,0.612,2.616,3.154v4.41h-1.347v-4.271c0-1.194-0.444-2.19-1.716-2.19
		c-0.872,0-1.561,0.627-1.808,1.379c-0.062,0.168-0.093,0.397-0.093,0.627v4.456h-1.348v-5.404L360.048,78.525L360.048,78.525z"/>
	<path fill="#0079A3" d="M370.11,74.741v1.775h1.93v1.026h-1.93v3.997c0,0.92,0.261,1.439,1.011,1.439
		c0.366,0,0.581-0.03,0.781-0.092l0.061,1.026c-0.26,0.092-0.674,0.183-1.194,0.183c-0.628,0-1.133-0.214-1.453-0.564
		c-0.368-0.414-0.521-1.072-0.521-1.946v-4.043h-1.149v-1.026h1.149V75.14L370.11,74.741z"/>
	<path fill="#0079A3" d="M167.796,96.903c0-0.779-0.015-1.393-0.061-2.006h1.194l0.077,1.227h0.03
		c0.368-0.688,1.226-1.379,2.451-1.379c1.026,0,2.619,0.612,2.619,3.153v4.411h-1.348v-4.272c0-1.194-0.444-2.19-1.715-2.19
		c-0.873,0-1.562,0.627-1.807,1.379c-0.062,0.169-0.092,0.398-0.092,0.628v4.455h-1.348V96.903L167.796,96.903z"/>
	<path fill="#0079A3" d="M177.046,98.848c0.031,1.823,1.179,2.574,2.543,2.574c0.964,0,1.562-0.169,2.052-0.383l0.246,0.964
		c-0.475,0.215-1.302,0.475-2.481,0.475c-2.282,0-3.646-1.516-3.646-3.752c0-2.234,1.317-3.98,3.477-3.98
		c2.435,0,3.063,2.112,3.063,3.476c0,0.277-0.016,0.476-0.046,0.628L177.046,98.848L177.046,98.848z M180.998,97.883
		c0.016-0.842-0.353-2.175-1.869-2.175c-1.378,0-1.96,1.24-2.067,2.175H180.998z"/>
	<path fill="#0079A3" d="M184.505,94.897l0.995,3.769c0.199,0.827,0.398,1.593,0.537,2.357h0.046
		c0.168-0.749,0.413-1.546,0.658-2.343l1.21-3.783h1.133l1.149,3.706c0.275,0.89,0.49,1.671,0.658,2.42h0.046
		c0.123-0.749,0.322-1.53,0.567-2.402l1.057-3.724h1.333l-2.389,7.412h-1.225l-1.133-3.537c-0.26-0.827-0.475-1.562-0.659-2.436
		h-0.031c-0.184,0.889-0.414,1.654-0.674,2.45l-1.194,3.521h-1.226l-2.236-7.413L184.505,94.897L184.505,94.897z"/>
	<path fill="#0079A3" d="M198.487,96.903c0-0.779-0.03-1.393-0.062-2.006h1.18l0.061,1.211h0.046
		c0.413-0.704,1.102-1.362,2.343-1.362c0.996,0,1.762,0.612,2.083,1.484h0.031c0.229-0.43,0.536-0.734,0.842-0.964
		c0.444-0.337,0.919-0.521,1.624-0.521c0.996,0,2.45,0.645,2.45,3.216v4.349h-1.317v-4.181c0-1.439-0.536-2.281-1.607-2.281
		c-0.781,0-1.363,0.567-1.608,1.211c-0.062,0.198-0.107,0.43-0.107,0.674v4.577h-1.317V97.87c0-1.181-0.521-2.021-1.547-2.021
		c-0.827,0-1.455,0.673-1.669,1.349c-0.077,0.185-0.107,0.429-0.107,0.658v4.455h-1.317v-5.408H198.487z"/>
	<path fill="#0079A3" d="M216.467,100.532c0,0.644,0.031,1.271,0.107,1.775h-1.21l-0.107-0.934h-0.046
		c-0.413,0.581-1.21,1.102-2.266,1.102c-1.501,0-2.267-1.056-2.267-2.129c0-1.792,1.593-2.771,4.457-2.756V97.44
		c0-0.598-0.168-1.716-1.685-1.699c-0.705,0-1.424,0.197-1.945,0.552l-0.306-0.904c0.612-0.383,1.516-0.644,2.45-0.644
		c2.267,0,2.818,1.548,2.818,3.018V100.532z M215.166,98.527c-1.47-0.029-3.139,0.23-3.139,1.669c0,0.89,0.582,1.287,1.255,1.287
		c0.98,0,1.608-0.612,1.823-1.24c0.046-0.152,0.061-0.308,0.061-0.43V98.527z"/>
	<path fill="#0079A3" d="M218.642,96.903c0-0.779-0.015-1.393-0.061-2.006h1.195l0.076,1.227h0.031
		c0.368-0.688,1.225-1.379,2.451-1.379c1.026,0,2.619,0.612,2.619,3.153v4.411h-1.348v-4.272c0-1.194-0.444-2.19-1.715-2.19
		c-0.873,0-1.562,0.627-1.807,1.379c-0.062,0.169-0.092,0.398-0.092,0.628v4.455h-1.348L218.642,96.903L218.642,96.903z"/>
	<path fill="#0079A3" d="M233.346,100.273c0,0.781,0.015,1.454,0.062,2.036h-1.195l-0.077-1.21h-0.031
		c-0.336,0.599-1.133,1.378-2.45,1.378c-1.164,0-2.558-0.659-2.558-3.246v-4.335h1.348v4.089c0,1.409,0.444,2.374,1.654,2.374
		c0.904,0,1.532-0.628,1.777-1.239c0.077-0.186,0.122-0.43,0.122-0.689v-4.533h1.348V100.273z"/>
	<path fill="#0079A3" d="M235.719,102.309v-6.386h-1.026v-1.026h1.026v-0.352c0-1.043,0.246-1.991,0.858-2.589
		c0.505-0.488,1.179-0.688,1.807-0.688c0.49,0,0.888,0.105,1.148,0.214l-0.184,1.041c-0.199-0.092-0.46-0.169-0.858-0.169
		c-1.148,0-1.439,0.998-1.439,2.146v0.396h1.792v1.026h-1.792v6.387L235.719,102.309L235.719,102.309L235.719,102.309z"/>
	<path fill="#0079A3" d="M245.261,100.532c0,0.644,0.03,1.271,0.107,1.775h-1.21l-0.107-0.934h-0.046
		c-0.414,0.581-1.21,1.102-2.267,1.102c-1.5,0-2.266-1.056-2.266-2.129c0-1.792,1.593-2.771,4.457-2.756V97.44
		c0-0.598-0.168-1.716-1.685-1.699c-0.705,0-1.424,0.197-1.945,0.552l-0.307-0.904c0.613-0.383,1.517-0.644,2.45-0.644
		c2.267,0,2.818,1.548,2.818,3.018L245.261,100.532L245.261,100.532z M243.959,98.527c-1.47-0.029-3.14,0.23-3.14,1.669
		c0,0.89,0.582,1.287,1.256,1.287c0.98,0,1.608-0.612,1.822-1.24c0.046-0.152,0.062-0.308,0.062-0.43V98.527z"/>
	<path fill="#0079A3" d="M252.719,102.049c-0.352,0.169-1.133,0.429-2.128,0.429c-2.236,0-3.691-1.516-3.691-3.782
		c0-2.28,1.562-3.95,3.982-3.95c0.797,0,1.501,0.197,1.869,0.397l-0.306,1.026c-0.322-0.169-0.827-0.353-1.562-0.353
		c-1.7,0-2.619,1.271-2.619,2.803c0,1.716,1.103,2.771,2.573,2.771c0.766,0,1.271-0.184,1.654-0.352L252.719,102.049z"/>
	<path fill="#0079A3" d="M256.119,93.12v1.775h1.93v1.026h-1.93v3.997c0,0.92,0.261,1.438,1.011,1.438
		c0.367,0,0.582-0.029,0.781-0.091l0.061,1.025c-0.26,0.092-0.673,0.184-1.194,0.184c-0.628,0-1.133-0.214-1.455-0.565
		c-0.367-0.414-0.521-1.071-0.521-1.945v-4.043h-1.148v-1.026h1.148v-1.378L256.119,93.12z"/>
	<path fill="#0079A3" d="M265.768,100.273c0,0.781,0.016,1.454,0.062,2.036h-1.195l-0.077-1.21h-0.03
		c-0.337,0.599-1.134,1.378-2.451,1.378c-1.164,0-2.558-0.659-2.558-3.246v-4.335h1.348v4.089c0,1.409,0.444,2.374,1.654,2.374
		c0.904,0,1.532-0.628,1.777-1.239c0.076-0.186,0.122-0.43,0.122-0.689v-4.533h1.348V100.273L265.768,100.273z"/>
	<path fill="#0079A3" d="M268.004,97.209c0-0.873-0.018-1.624-0.062-2.313h1.181l0.062,1.472h0.047
		c0.336-0.997,1.164-1.624,2.065-1.624c0.138,0,0.244,0.016,0.368,0.028v1.271c-0.139-0.03-0.277-0.03-0.461-0.03
		c-0.949,0-1.623,0.705-1.807,1.717c-0.03,0.185-0.047,0.413-0.047,0.627v3.95h-1.348v-5.098H268.004z"/>
	<path fill="#0079A3" d="M273.609,98.848c0.029,1.823,1.179,2.574,2.543,2.574c0.963,0,1.561-0.169,2.052-0.383l0.245,0.964
		c-0.475,0.215-1.303,0.475-2.482,0.475c-2.281,0-3.644-1.516-3.644-3.752c0-2.234,1.315-3.98,3.476-3.98
		c2.436,0,3.062,2.112,3.062,3.476c0,0.277-0.016,0.476-0.045,0.628L273.609,98.848L273.609,98.848z M277.561,97.883
		c0.017-0.842-0.352-2.175-1.869-2.175c-1.377,0-1.961,1.24-2.065,2.175H277.561z"/>
	<path fill="#0079A3" d="M286.919,91.436v8.958c0,0.66,0.029,1.41,0.062,1.915h-1.193l-0.062-1.287h-0.045
		c-0.398,0.828-1.287,1.455-2.496,1.455c-1.793,0-3.186-1.516-3.186-3.766c-0.018-2.466,1.531-3.968,3.322-3.968
		c1.147,0,1.897,0.534,2.234,1.117h0.032v-4.426L286.919,91.436L286.919,91.436z M285.587,97.914c0-0.169-0.017-0.398-0.062-0.566
		c-0.199-0.843-0.936-1.549-1.946-1.549c-1.392,0-2.22,1.226-2.22,2.849c0,1.502,0.75,2.742,2.189,2.742
		c0.903,0,1.73-0.613,1.977-1.606c0.045-0.186,0.062-0.368,0.062-0.582L285.587,97.914L285.587,97.914z"/>
	<path fill="#0079A3" d="M292.417,91.436h1.349v4.642h0.029c0.214-0.384,0.55-0.736,0.965-0.966
		c0.397-0.229,0.871-0.366,1.379-0.366c0.994,0,2.588,0.612,2.588,3.153v4.41h-1.349v-4.257c0-1.194-0.444-2.19-1.715-2.19
		c-0.873,0-1.548,0.612-1.808,1.333c-0.078,0.199-0.093,0.398-0.093,0.644v4.472h-1.347L292.417,91.436L292.417,91.436z"/>
	<path fill="#0079A3" d="M307.624,98.542c0,2.741-1.914,3.935-3.69,3.935c-1.99,0-3.552-1.47-3.552-3.812
		c0-2.465,1.638-3.921,3.677-3.921C306.185,94.743,307.624,96.291,307.624,98.542z M301.76,98.618c0,1.623,0.917,2.849,2.235,2.849
		c1.286,0,2.251-1.211,2.251-2.879c0-1.256-0.628-2.834-2.223-2.834C302.447,95.754,301.76,97.225,301.76,98.618z"/>
	<path fill="#0079A3" d="M309.324,96.903c0-0.779-0.03-1.393-0.062-2.006h1.18l0.062,1.211h0.046
		c0.412-0.704,1.104-1.362,2.343-1.362c0.995,0,1.763,0.612,2.083,1.484h0.03c0.23-0.43,0.535-0.734,0.842-0.964
		c0.445-0.337,0.919-0.521,1.623-0.521c0.997,0,2.451,0.645,2.451,3.216v4.349h-1.317v-4.181c0-1.439-0.534-2.281-1.607-2.281
		c-0.78,0-1.362,0.567-1.607,1.211c-0.062,0.198-0.105,0.43-0.105,0.674v4.577h-1.317V97.87c0-1.181-0.521-2.021-1.548-2.021
		c-0.827,0-1.455,0.673-1.669,1.349c-0.076,0.185-0.106,0.429-0.106,0.658v4.455h-1.316v-5.408H309.324z"/>
	<path fill="#0079A3" d="M322.848,98.848c0.029,1.823,1.179,2.574,2.542,2.574c0.964,0,1.562-0.169,2.054-0.383l0.244,0.964
		c-0.475,0.215-1.302,0.475-2.481,0.475c-2.282,0-3.646-1.516-3.646-3.752c0-2.234,1.316-3.98,3.478-3.98
		c2.435,0,3.062,2.112,3.062,3.476c0,0.277-0.015,0.476-0.046,0.628L322.848,98.848L322.848,98.848z M326.799,97.883
		c0.017-0.842-0.353-2.175-1.869-2.175c-1.379,0-1.96,1.24-2.065,2.175H326.799z"/>
	<path fill="#0079A3" d="M329.587,100.948c0.413,0.244,1.118,0.521,1.792,0.521c0.965,0,1.425-0.475,1.425-1.103
		c0-0.645-0.383-0.98-1.361-1.349c-1.349-0.489-1.978-1.21-1.978-2.098c0-1.195,0.979-2.176,2.558-2.176
		c0.751,0,1.409,0.197,1.809,0.459l-0.322,0.979c-0.291-0.184-0.826-0.443-1.515-0.443c-0.796,0-1.227,0.461-1.227,1.012
		c0,0.611,0.431,0.888,1.396,1.271c1.271,0.477,1.944,1.119,1.944,2.222c0,1.316-1.027,2.234-2.758,2.234
		c-0.812,0-1.562-0.215-2.082-0.521L329.587,100.948z"/>
	<path fill="#0079A3" d="M335.346,101.513c0-0.552,0.383-0.965,0.918-0.965c0.537,0,0.904,0.397,0.904,0.965
		c0,0.551-0.366,0.964-0.935,0.964C335.713,102.478,335.346,102.064,335.346,101.513z"/>
</g>
</svg>
