<?xml version="1.0" encoding="utf-8"?>
<!-- Generator: Adobe Illustrator 15.0.2, SVG Export Plug-In . SVG Version: 6.00 Build 0)  -->
<!DOCTYPE svg PUBLIC "-//W3C//DTD SVG 1.1//EN" "http://www.w3.org/Graphics/SVG/1.1/DTD/svg11.dtd">
<svg version="1.1" id="Layer_1" xmlns="http://www.w3.org/2000/svg" xmlns:xlink="http://www.w3.org/1999/xlink" x="0px" y="0px"
	 width="636.458px" height="79.266px" viewBox="0 0 636.458 79.266" enable-background="new 0 0 636.458 79.266"
	 xml:space="preserve">
<g id="sky">
</g>
<g id="hills3">
</g>
<g id="hills1">
</g>
<g id="tractor">
</g>
<g id="hills">
</g>
<g id="foreground">
</g>
<g id="cows">
</g>
<g id="balloons">
</g>
<g>
	<path fill="#00B6D2" d="M0.975,52.426c0,0.174-0.219,0.314-0.488,0.314l0,0C0.219,52.74,0,52.6,0,52.426V30.852
		c0-0.174,0.219-0.312,0.486-0.312l0,0c0.27,0,0.488,0.141,0.488,0.312L0.975,52.426L0.975,52.426z"/>
	<rect x="123.992" y="39.225" fill="#006796" width="33.896" height="1.094"/>
	<circle fill="#606049" cx="46.795" cy="32.912" r="3.375"/>
	<path fill="#606049" d="M51.67,40.131c0,1.52-1.369,2.75-3.062,2.75l0,0c-1.693,0-3.062-1.23-3.062-2.75V36.85
		c0-1.52,1.369-2.75,3.062-2.75l0,0c1.693,0,3.062,1.23,3.062,2.75V40.131z"/>
	<path fill="#00B6D2" d="M129.322,34.486c0,5.896-3.588,10.35-9.477,10.35c-5.889,0-24.418-6.938-18.771-8.611
		c9.842-2.916,11.697-12.393,17.586-12.393C124.549,23.826,129.322,28.6,129.322,34.486z"/>
	<path fill="#006796" d="M28.512,61.732c-0.012,0.125-0.432,0.189-0.941,0.146l0,0c-0.504-0.045-0.912-0.188-0.9-0.312l4.605-16.107
		c0.008-0.125,0.428-0.191,0.939-0.146l0,0c0.506,0.043,0.912,0.186,0.902,0.311L28.512,61.732z"/>
	<rect x="0.523" y="40.41" fill="#006796" width="3.826" height="2.316"/>
	<circle fill="#006796" cx="27.022" cy="63.59" r="3.372"/>
	<path fill="#00B6D2" d="M121.986,38.77c0,0-41.223-5.959-68.795-6.924c-0.705-0.025-0.025,3.482-0.734,3.461
		c-2.4-0.082-7.07,0.887-9.471,0.82c-0.631-0.021-0.508-1.969-1.135-1.984C15.514,33.459,6.072,35.357,3.264,38.77
		c-1.951,2.373-0.201,6.9,1.828,10.08c3.729,0.229,13.016,4.062,15.934,4.316c7.014,0.625,13.793,0.125,20.699-1.143
		c14.025-2.559,26.543-8.645,41.121-8.555c3.537,0.021,22.252-0.521,29.873,2.672c5.688-0.934,9.268-1.545,9.268-1.545
		L121.986,38.77L121.986,38.77z"/>
	<path fill="#006796" d="M82.846,43.475c-14.578-0.09-27.201,3.396-41.227,5.957c-6.906,1.258-17.316-1.928-24.33-2.553
		c-2.916-0.26-8.469,2.197-12.197,1.971c0.146,0.23,0.293,0.457,0.443,0.672c6.686,9.66,28.717,6.523,38.453,6.021
		c15.119-0.789,51.549-6.566,68.73-9.396C105.098,42.953,86.383,43.496,82.846,43.475z"/>
	<path fill="#006796" d="M31.227,51.074c0.074,0.229-0.18,0.506-0.561,0.623l0,0c-0.377,0.111-0.742,0.021-0.812-0.197
		l-8.717-28.174c-0.074-0.229,0.18-0.512,0.561-0.625l0,0c0.377-0.117,0.742-0.027,0.812,0.193L31.227,51.074z"/>
	<path fill="#006796" d="M42.148,48.818c0.072,0.229-0.18,0.51-0.561,0.621l0,0c-0.377,0.117-0.744,0.027-0.814-0.193l-8.717-28.178
		c-0.072-0.227,0.182-0.508,0.559-0.625l0,0c0.379-0.111,0.746-0.021,0.814,0.199L42.148,48.818z"/>
	<path fill="#00B6D2" d="M76.062,51.818c0,1.42-1.07,1.277-2.043,1.277l-51.967,1.293c-0.973,0-1.76-1.15-1.76-2.57l0,0
		c0-1.422,0.867-4.479,1.84-4.479l52.17,1.91C75.275,49.248,76.062,50.396,76.062,51.818L76.062,51.818z"/>
	<path fill="#00B6D2" d="M64.764,22.477c0,1.42-1.07,1.279-2.043,1.279l-51.967,1.293c-0.973,0-1.76-1.152-1.76-2.572l0,0
		c0-1.42,0.867-4.479,1.84-4.479l52.17,1.908C63.977,19.906,64.764,21.057,64.764,22.477L64.764,22.477z"/>
	<g>
		<polygon fill="#0079A3" points="636.458,79.266 570.122,79.266 570.122,7.966 636.458,7.966 618.325,43.616 		"/>
		<polygon fill="#006796" points="580.555,79.167 570.032,79.266 570.032,7.966 580.555,7.868 		"/>
		<polygon fill="#00516D" points="577.321,71.299 570.032,79.266 570.032,7.966 577.321,0 		"/>
		<rect x="156.611" y="0" fill="#0079A3" width="420.921" height="71.299"/>
	</g>
	<g>
		<path fill="#FFFFFF" d="M310.383,9.849c0.646-0.147,1.687-0.255,2.707-0.255c1.481,0,2.437,0.255,3.134,0.834
			c0.597,0.443,0.971,1.124,0.971,2.026c0,1.124-0.749,2.094-1.941,2.52v0.054c1.09,0.258,2.367,1.155,2.367,2.858
			c0,0.988-0.393,1.754-0.986,2.299c-0.784,0.732-2.078,1.073-3.951,1.073c-1.021,0-1.805-0.065-2.299-0.136L310.383,9.849
			L310.383,9.849z M311.866,14.549h1.344c1.549,0,2.47-0.834,2.47-1.938c0-1.326-1.005-1.874-2.503-1.874
			c-0.682,0-1.073,0.054-1.311,0.104V14.549L311.866,14.549z M311.866,20.032c0.305,0.051,0.715,0.062,1.242,0.062
			c1.532,0,2.945-0.562,2.945-2.229c0-1.552-1.345-2.217-2.964-2.217h-1.225L311.866,20.032L311.866,20.032z"/>
		<path fill="#FFFFFF" d="M320.461,17.307c0.035,2.026,1.312,2.861,2.828,2.861c1.072,0,1.736-0.188,2.281-0.426l0.27,1.07
			c-0.525,0.236-1.445,0.525-2.758,0.525c-2.537,0-4.053-1.688-4.053-4.172c0-2.486,1.465-4.427,3.867-4.427
			c2.707,0,3.404,2.35,3.404,3.862c0,0.31-0.018,0.525-0.051,0.695h-5.791v0.01H320.461z M324.856,16.236
			c0.016-0.938-0.393-2.418-2.078-2.418c-1.533,0-2.18,1.382-2.299,2.418H324.856z"/>
		<path fill="#FFFFFF" d="M335.208,19.948c0,1.901-0.393,3.048-1.176,3.774c-0.816,0.732-1.977,0.988-3.014,0.988
			c-0.988,0-2.078-0.238-2.742-0.681l0.375-1.158c0.545,0.355,1.396,0.664,2.418,0.664c1.533,0,2.656-0.803,2.656-2.896v-0.897
			h-0.033c-0.443,0.767-1.346,1.379-2.623,1.379c-2.043,0-3.508-1.737-3.508-4.021c0-2.793,1.822-4.354,3.729-4.354
			c1.432,0,2.197,0.729,2.572,1.413h0.033l0.051-1.243h1.33c-0.053,0.579-0.068,1.26-0.068,2.248V19.948L335.208,19.948z
			 M333.708,16.167c0-0.256-0.016-0.479-0.084-0.664c-0.271-0.886-0.988-1.604-2.096-1.604c-1.43,0-2.451,1.209-2.451,3.113
			c0,1.618,0.834,2.966,2.434,2.966c0.939,0,1.771-0.579,2.078-1.53c0.086-0.258,0.119-0.548,0.119-0.803V16.167L333.708,16.167z"/>
		<path fill="#FFFFFF" d="M339.239,10.598c0,0.514-0.357,0.919-0.953,0.919c-0.545,0-0.902-0.406-0.902-0.919
			c0-0.511,0.375-0.937,0.939-0.937C338.864,9.661,339.239,10.071,339.239,10.598z M337.569,21.156v-8.242h1.5v8.242H337.569z"/>
		<path fill="#FFFFFF" d="M341.553,15.145c0-0.866-0.018-1.549-0.064-2.229h1.328l0.086,1.359h0.031
			c0.408-0.769,1.361-1.529,2.729-1.529c1.141,0,2.91,0.681,2.91,3.508v4.904h-1.498v-4.751c0-1.328-0.494-2.438-1.906-2.438
			c-0.971,0-1.734,0.698-2.01,1.533c-0.066,0.188-0.104,0.439-0.104,0.698v4.956h-1.5L341.553,15.145L341.553,15.145z"/>
		<path fill="#FFFFFF" d="M354.407,19.64c0.459,0.272,1.242,0.579,1.992,0.579c1.07,0,1.584-0.525,1.584-1.226
			c0-0.718-0.43-1.093-1.52-1.499c-1.5-0.545-2.195-1.348-2.195-2.333c0-1.328,1.09-2.418,2.846-2.418
			c0.834,0,1.562,0.221,2.01,0.511l-0.359,1.09c-0.316-0.204-0.918-0.494-1.686-0.494c-0.887,0-1.361,0.517-1.361,1.124
			c0,0.687,0.48,0.988,1.549,1.414c1.414,0.528,2.162,1.243,2.162,2.472c0,1.467-1.141,2.483-3.061,2.483
			c-0.9,0-1.734-0.239-2.314-0.579L354.407,19.64z"/>
		<path fill="#FFFFFF" d="M362.188,17.307c0.033,2.026,1.312,2.861,2.824,2.861c1.074,0,1.738-0.188,2.283-0.426l0.271,1.07
			c-0.527,0.236-1.447,0.525-2.764,0.525c-2.537,0-4.055-1.688-4.055-4.172c0-2.486,1.465-4.427,3.867-4.427
			c2.707,0,3.406,2.35,3.406,3.862c0,0.31-0.021,0.525-0.055,0.695h-5.787v0.004h0.004v0.004h0.004V17.307z M366.581,16.236
			c0.018-0.938-0.395-2.418-2.078-2.418c-1.533,0-2.18,1.382-2.299,2.418H366.581z"/>
		<path fill="#FFFFFF" d="M369.881,15.487c0-0.974-0.018-1.808-0.064-2.569h1.312l0.068,1.635h0.051
			c0.375-1.104,1.295-1.805,2.299-1.805c0.152,0,0.271,0.017,0.408,0.031v1.413c-0.152-0.031-0.307-0.031-0.51-0.031
			c-1.062,0-1.811,0.781-2.014,1.903c-0.029,0.203-0.053,0.461-0.053,0.696v4.396h-1.498v-5.673V15.487L369.881,15.487z"/>
		<path fill="#FFFFFF" d="M376.452,12.914l1.619,4.612c0.27,0.769,0.494,1.444,0.664,2.131h0.051
			c0.188-0.687,0.426-1.362,0.697-2.131l1.602-4.612h1.566l-3.234,8.242h-1.432l-3.137-8.242H376.452z"/>
		<path fill="#FFFFFF" d="M385.731,10.598c0,0.514-0.357,0.919-0.953,0.919c-0.545,0-0.904-0.406-0.904-0.919
			c0-0.511,0.375-0.937,0.938-0.937C385.356,9.661,385.731,10.071,385.731,10.598z M384.063,21.156v-8.242h1.496v8.242H384.063z"/>
		<path fill="#FFFFFF" d="M388.045,15.145c0-0.866-0.018-1.549-0.066-2.229h1.328l0.086,1.359h0.033
			c0.408-0.769,1.361-1.529,2.729-1.529c1.141,0,2.912,0.681,2.912,3.508v4.904h-1.5v-4.751c0-1.328-0.494-2.438-1.906-2.438
			c-0.973,0-1.738,0.698-2.01,1.533c-0.068,0.188-0.104,0.439-0.104,0.698v4.956h-1.5L388.045,15.145L388.045,15.145z"/>
		<path fill="#FFFFFF" d="M404.543,19.948c0,1.901-0.393,3.048-1.176,3.774c-0.814,0.732-1.98,0.988-3.018,0.988
			c-0.984,0-2.074-0.238-2.738-0.681l0.375-1.158c0.545,0.355,1.395,0.664,2.418,0.664c1.533,0,2.652-0.803,2.652-2.896v-0.897
			h-0.029c-0.443,0.767-1.35,1.379-2.623,1.379c-2.043,0-3.508-1.737-3.508-4.021c0-2.793,1.818-4.354,3.729-4.354
			c1.432,0,2.197,0.729,2.572,1.413h0.033l0.051-1.243h1.33c-0.057,0.579-0.068,1.26-0.068,2.248V19.948L404.543,19.948z
			 M403.045,16.167c0-0.256-0.018-0.479-0.086-0.664c-0.27-0.886-0.986-1.604-2.094-1.604c-1.436,0-2.453,1.209-2.453,3.113
			c0,1.618,0.834,2.966,2.438,2.966c0.938,0,1.771-0.579,2.078-1.53c0.084-0.258,0.117-0.548,0.117-0.803V16.167L403.045,16.167z"/>
		<path fill="#FFFFFF" d="M410.668,21.156V9.679h1.637l3.662,5.812c0.834,1.345,1.518,2.554,2.043,3.729l0.051-0.017
			c-0.135-1.532-0.17-2.935-0.17-4.72V9.679h1.396v11.479h-1.498l-3.646-5.824c-0.801-1.277-1.564-2.588-2.129-3.832l-0.053,0.017
			c0.086,1.447,0.105,2.827,0.105,4.734v4.904L410.668,21.156L410.668,21.156z"/>
		<path fill="#FFFFFF" d="M423.745,21.156l-2.912-11.479h1.566l1.359,5.81c0.34,1.433,0.646,2.858,0.854,3.97h0.033
			c0.188-1.146,0.547-2.503,0.938-3.984l1.533-5.79h1.551l1.396,5.824c0.322,1.362,0.633,2.725,0.805,3.934h0.031
			c0.236-1.26,0.561-2.534,0.922-3.968l1.516-5.79h1.518L431.6,21.16h-1.551l-1.447-5.979c-0.354-1.464-0.598-2.588-0.748-3.747
			h-0.031c-0.189,1.146-0.461,2.271-0.889,3.747l-1.637,5.979L423.745,21.156L423.745,21.156z"/>
		<path fill="#FFFFFF" d="M439.883,21.156V9.679h1.635l3.662,5.812c0.834,1.345,1.518,2.554,2.043,3.729l0.053-0.017
			c-0.139-1.532-0.172-2.935-0.172-4.72V9.679h1.396v11.479H447l-3.645-5.824c-0.805-1.277-1.566-2.588-2.133-3.832l-0.051,0.017
			c0.086,1.447,0.105,2.827,0.105,4.734v4.904L439.883,21.156L439.883,21.156z"/>
		<path fill="#FFFFFF" d="M456.823,19.18c0,0.715,0.033,1.414,0.119,1.979h-1.348l-0.119-1.039h-0.051
			c-0.461,0.646-1.348,1.226-2.521,1.226c-1.668,0-2.521-1.175-2.521-2.367c0-1.986,1.771-3.082,4.955-3.062v-0.17
			c0-0.664-0.188-1.907-1.873-1.896c-0.783,0-1.582,0.227-2.162,0.613l-0.344-1.005c0.684-0.425,1.689-0.715,2.73-0.715
			c2.52,0,3.133,1.72,3.133,3.354L456.823,19.18L456.823,19.18z M455.375,16.95c-1.635-0.034-3.49,0.255-3.49,1.854
			c0,0.988,0.646,1.434,1.396,1.434c1.09,0,1.789-0.684,2.021-1.379c0.057-0.173,0.066-0.344,0.066-0.479L455.375,16.95
			L455.375,16.95z"/>
		<path fill="#FFFFFF" d="M460.975,10.942v1.978h2.146v1.141h-2.146v4.444c0,1.021,0.291,1.601,1.125,1.601
			c0.408,0,0.646-0.028,0.869-0.103l0.066,1.141c-0.289,0.104-0.75,0.205-1.328,0.205c-0.697,0-1.26-0.237-1.619-0.63
			c-0.406-0.459-0.576-1.19-0.576-2.163v-4.496h-1.275v-1.142h1.275v-1.532L460.975,10.942z"/>
		<path fill="#FFFFFF" d="M471.702,18.891c0,0.868,0.018,1.618,0.064,2.271h-1.324l-0.086-1.351h-0.033
			c-0.375,0.664-1.264,1.533-2.729,1.533c-1.293,0-2.846-0.729-2.846-3.607v-4.817h1.5v4.547c0,1.567,0.494,2.64,1.84,2.64
			c1.004,0,1.701-0.692,1.979-1.379c0.084-0.205,0.135-0.477,0.135-0.766v-5.043h1.5V18.891L471.702,18.891z"/>
		<path fill="#FFFFFF" d="M474.186,15.487c0-0.974-0.02-1.808-0.066-2.569h1.312l0.066,1.635h0.053
			c0.375-1.104,1.293-1.805,2.299-1.805c0.15,0,0.271,0.017,0.406,0.031v1.413c-0.148-0.031-0.307-0.031-0.51-0.031
			c-1.057,0-1.805,0.781-2.01,1.903c-0.035,0.203-0.055,0.461-0.055,0.696v4.396h-1.5L474.186,15.487L474.186,15.487z"/>
		<path fill="#FFFFFF" d="M485.458,19.18c0,0.715,0.033,1.414,0.119,1.979h-1.346l-0.119-1.039h-0.053
			c-0.461,0.646-1.348,1.226-2.521,1.226c-1.668,0-2.521-1.175-2.521-2.367c0-1.986,1.771-3.082,4.955-3.062v-0.17
			c0-0.664-0.188-1.907-1.873-1.896c-0.777,0-1.582,0.227-2.158,0.613l-0.346-1.005c0.686-0.425,1.689-0.715,2.73-0.715
			c2.52,0,3.133,1.72,3.133,3.354V19.18L485.458,19.18z M484.01,16.95c-1.637-0.034-3.49,0.255-3.49,1.854
			c0,0.988,0.646,1.434,1.396,1.434c1.09,0,1.787-0.684,2.027-1.379c0.051-0.173,0.062-0.344,0.062-0.479v-1.43H484.01z"/>
		<path fill="#FFFFFF" d="M487.874,9.067h1.498v12.093h-1.498V9.067z"/>
		<path fill="#FFFFFF" d="M495.499,15.487c0-0.974-0.016-1.808-0.066-2.569h1.312l0.068,1.635h0.051
			c0.375-1.104,1.295-1.805,2.299-1.805c0.154,0,0.271,0.017,0.41,0.031v1.413c-0.154-0.031-0.311-0.031-0.514-0.031
			c-1.059,0-1.807,0.781-2.01,1.903c-0.033,0.203-0.053,0.461-0.053,0.696v4.396H495.5L495.499,15.487L495.499,15.487z"/>
		<path fill="#FFFFFF" d="M501.731,17.307c0.031,2.026,1.311,2.861,2.824,2.861c1.072,0,1.734-0.188,2.281-0.426l0.271,1.07
			c-0.527,0.236-1.447,0.525-2.762,0.525c-2.537,0-4.055-1.688-4.055-4.172c0-2.486,1.465-4.427,3.865-4.427
			c2.709,0,3.406,2.35,3.406,3.862c0,0.31-0.02,0.525-0.053,0.695h-5.789v0.004h0.006v0.004h0.004V17.307z M506.124,16.236
			c0.018-0.938-0.393-2.418-2.076-2.418c-1.533,0-2.182,1.382-2.301,2.418H506.124z"/>
		<path fill="#FFFFFF" d="M509.221,19.64c0.459,0.272,1.24,0.579,1.99,0.579c1.074,0,1.586-0.525,1.586-1.226
			c0-0.718-0.428-1.093-1.518-1.499c-1.5-0.545-2.197-1.348-2.197-2.333c0-1.328,1.092-2.418,2.846-2.418
			c0.834,0,1.564,0.221,2.01,0.511l-0.357,1.09c-0.322-0.204-0.918-0.494-1.688-0.494c-0.887,0-1.359,0.517-1.359,1.124
			c0,0.687,0.479,0.988,1.549,1.414c1.414,0.528,2.162,1.243,2.162,2.472c0,1.467-1.143,2.483-3.062,2.483
			c-0.898,0-1.732-0.239-2.312-0.579L509.221,19.64z"/>
		<path fill="#FFFFFF" d="M517.834,10.598c0,0.514-0.355,0.919-0.953,0.919c-0.545,0-0.9-0.406-0.9-0.919
			c0-0.511,0.375-0.937,0.938-0.937C517.459,9.661,517.834,10.071,517.834,10.598z M516.167,21.156v-8.242h1.498v8.242H516.167z"/>
		<path fill="#FFFFFF" d="M527.25,9.067v9.962c0,0.729,0.035,1.563,0.068,2.131h-1.328l-0.066-1.437h-0.053
			c-0.441,0.92-1.43,1.618-2.773,1.618c-1.99,0-3.543-1.686-3.543-4.188c-0.018-2.738,1.703-4.407,3.693-4.407
			c1.277,0,2.113,0.596,2.486,1.24h0.033v-4.92L527.25,9.067L527.25,9.067z M525.77,16.269c0-0.188-0.02-0.438-0.066-0.63
			c-0.221-0.937-1.039-1.72-2.162-1.72c-1.551,0-2.469,1.362-2.469,3.167c0,1.669,0.834,3.048,2.434,3.048
			c1.008,0,1.928-0.682,2.197-1.788c0.051-0.205,0.066-0.409,0.066-0.646V16.269L525.77,16.269z"/>
		<path fill="#FFFFFF" d="M530.584,17.307c0.035,2.026,1.312,2.861,2.828,2.861c1.072,0,1.736-0.188,2.281-0.426l0.27,1.07
			c-0.525,0.236-1.447,0.525-2.762,0.525c-2.537,0-4.053-1.688-4.053-4.172c0-2.486,1.465-4.427,3.863-4.427
			c2.709,0,3.406,2.35,3.406,3.862c0,0.31-0.018,0.525-0.053,0.695h-5.787v0.004h0.004v0.006H530.584z M534.979,16.236
			c0.02-0.938-0.395-2.418-2.076-2.418c-1.533,0-2.182,1.382-2.301,2.418H534.979z"/>
		<path fill="#FFFFFF" d="M538.28,15.145c0-0.866-0.02-1.549-0.068-2.229h1.33l0.084,1.359h0.035
			c0.408-0.769,1.361-1.529,2.727-1.529c1.145,0,2.91,0.681,2.91,3.508v4.904h-1.498v-4.751c0-1.328-0.494-2.438-1.906-2.438
			c-0.973,0-1.732,0.698-2.01,1.533c-0.062,0.188-0.104,0.439-0.104,0.698v4.956h-1.498L538.28,15.145L538.28,15.145z"/>
		<path fill="#FFFFFF" d="M549.465,10.942v1.978h2.146v1.141h-2.146v4.444c0,1.021,0.287,1.601,1.125,1.601
			c0.406,0,0.646-0.028,0.867-0.103l0.068,1.141c-0.291,0.104-0.75,0.205-1.33,0.205c-0.697,0-1.264-0.237-1.617-0.63
			c-0.41-0.459-0.58-1.19-0.58-2.163v-4.496h-1.275v-1.142h1.275v-1.532L549.465,10.942z"/>
		<path fill="#FFFFFF" d="M554.965,10.598c0,0.514-0.355,0.919-0.955,0.919c-0.545,0-0.9-0.406-0.9-0.919
			c0-0.511,0.375-0.937,0.938-0.937C554.59,9.661,554.965,10.071,554.965,10.598z M553.295,21.156v-8.242h1.498v8.242H553.295z"/>
		<path fill="#FFFFFF" d="M563.069,19.18c0,0.715,0.031,1.414,0.119,1.979h-1.35l-0.117-1.039h-0.053
			c-0.461,0.646-1.346,1.226-2.521,1.226c-1.67,0-2.521-1.175-2.521-2.367c0-1.986,1.771-3.082,4.955-3.062v-0.17
			c0-0.664-0.188-1.907-1.873-1.896c-0.781,0-1.582,0.227-2.162,0.613l-0.342-1.005c0.684-0.425,1.689-0.715,2.727-0.715
			c2.521,0,3.139,1.72,3.139,3.354V19.18L563.069,19.18z M561.62,16.95c-1.635-0.034-3.49,0.255-3.49,1.854
			c0,0.988,0.646,1.434,1.396,1.434c1.09,0,1.787-0.684,2.023-1.379c0.051-0.173,0.066-0.344,0.066-0.479L561.62,16.95L561.62,16.95
			z"/>
		<path fill="#FFFFFF" d="M565.485,9.067h1.498v12.093h-1.498V9.067z"/>
		<path fill="#FFFFFF" d="M316.124,39.61c0,0.718,0.033,1.414,0.119,1.979h-1.347l-0.118-1.039h-0.052
			c-0.46,0.646-1.346,1.226-2.521,1.226c-1.668,0-2.521-1.175-2.521-2.361c0-1.992,1.771-3.082,4.955-3.065v-0.17
			c0-0.664-0.188-1.907-1.873-1.89c-0.782,0-1.583,0.221-2.162,0.607l-0.342-1.005c0.682-0.425,1.687-0.715,2.726-0.715
			c2.521,0,3.133,1.72,3.133,3.354L316.124,39.61L316.124,39.61z M314.674,37.379c-1.635-0.034-3.491,0.255-3.491,1.854
			c0,0.985,0.647,1.434,1.396,1.434c1.09,0,1.789-0.684,2.027-1.379c0.051-0.17,0.067-0.344,0.067-0.479V37.379L314.674,37.379z"/>
		<path fill="#FFFFFF" d="M318.538,35.574c0-0.869-0.017-1.552-0.067-2.231h1.329l0.084,1.362h0.035
			c0.408-0.77,1.361-1.532,2.727-1.532c1.141,0,2.91,0.681,2.91,3.508v4.904h-1.498v-4.751c0-1.328-0.494-2.438-1.906-2.438
			c-0.973,0-1.736,0.695-2.01,1.53c-0.068,0.188-0.104,0.442-0.104,0.698v4.956h-1.498L318.538,35.574L318.538,35.574
			L318.538,35.574z"/>
		<path fill="#FFFFFF" d="M335.088,29.494v9.962c0,0.729,0.033,1.562,0.066,2.128h-1.328l-0.066-1.434h-0.051
			c-0.443,0.923-1.434,1.615-2.777,1.615c-1.99,0-3.541-1.686-3.541-4.188c-0.018-2.741,1.703-4.41,3.695-4.41
			c1.275,0,2.111,0.596,2.484,1.243h0.033V29.49L335.088,29.494L335.088,29.494z M333.606,36.698c0-0.188-0.018-0.443-0.066-0.633
			c-0.223-0.938-1.039-1.723-2.164-1.723c-1.551,0-2.469,1.362-2.469,3.167c0,1.669,0.834,3.048,2.436,3.048
			c1.004,0,1.924-0.682,2.197-1.785c0.051-0.205,0.066-0.406,0.066-0.646V36.698z"/>
		<path fill="#FFFFFF" d="M341.196,29.494h1.479v5.177h0.033c0.527-0.919,1.48-1.499,2.812-1.499c2.062,0,3.488,1.703,3.488,4.188
			c0,2.943-1.871,4.408-3.711,4.408c-1.189,0-2.146-0.46-2.773-1.527h-0.033l-0.086,1.345h-1.275
			c0.033-0.562,0.066-1.396,0.066-2.128V29.494L341.196,29.494z M342.676,38.281c0,0.188,0.021,0.375,0.068,0.545
			c0.27,1.039,1.158,1.754,2.248,1.754c1.584,0,2.504-1.277,2.504-3.167c0-1.652-0.855-3.065-2.471-3.065
			c-1.006,0-1.957,0.715-2.268,1.839c-0.051,0.188-0.086,0.396-0.086,0.633L342.676,38.281L342.676,38.281z"/>
		<path fill="#FFFFFF" d="M357.78,39.321c0,0.865,0.018,1.615,0.064,2.268h-1.328l-0.086-1.345h-0.031
			c-0.375,0.664-1.262,1.53-2.729,1.53c-1.293,0-2.844-0.729-2.844-3.607v-4.819h1.498v4.547c0,1.567,0.492,2.646,1.84,2.646
			c1.004,0,1.703-0.698,1.977-1.379c0.084-0.205,0.139-0.479,0.139-0.771v-5.041h1.498L357.78,39.321L357.78,39.321z"/>
		<path fill="#FFFFFF" d="M360.059,40.07c0.459,0.271,1.242,0.579,1.992,0.579c1.074,0,1.584-0.525,1.584-1.229
			c0-0.715-0.426-1.09-1.518-1.499c-1.5-0.545-2.195-1.345-2.195-2.333c0-1.328,1.09-2.418,2.844-2.418
			c0.834,0,1.566,0.221,2.012,0.511l-0.357,1.093c-0.324-0.204-0.92-0.491-1.686-0.491c-0.889,0-1.363,0.511-1.363,1.121
			c0,0.684,0.477,0.985,1.549,1.414c1.414,0.525,2.166,1.24,2.166,2.472c0,1.464-1.143,2.48-3.062,2.48
			c-0.9,0-1.736-0.233-2.314-0.576L360.059,40.07z"/>
		<path fill="#FFFFFF" d="M368.672,31.028c0,0.514-0.354,0.922-0.955,0.922c-0.545,0-0.898-0.409-0.898-0.922
			c0-0.514,0.375-0.938,0.938-0.938C368.297,30.09,368.672,30.499,368.672,31.028z M367.004,41.585v-8.242h1.5v8.242H367.004z"/>
		<path fill="#FFFFFF" d="M370.987,35.574c0-0.869-0.02-1.552-0.066-2.231h1.328l0.086,1.362h0.033
			c0.408-0.77,1.359-1.532,2.725-1.532c1.146,0,2.912,0.681,2.912,3.508v4.904h-1.498v-4.751c0-1.328-0.494-2.438-1.908-2.438
			c-0.969,0-1.73,0.695-2.008,1.53c-0.062,0.188-0.104,0.442-0.104,0.698v4.956h-1.498L370.987,35.574L370.987,35.574z"/>
		<path fill="#FFFFFF" d="M381.272,37.737c0.029,2.023,1.311,2.858,2.824,2.858c1.07,0,1.734-0.187,2.279-0.426l0.273,1.073
			c-0.529,0.236-1.447,0.522-2.764,0.522c-2.537,0-4.053-1.686-4.053-4.172c0-2.483,1.465-4.427,3.865-4.427
			c2.707,0,3.406,2.351,3.406,3.865c0,0.307-0.02,0.524-0.055,0.695h-5.789v0.004h0.006v0.004h0.006V37.737z M385.663,36.663
			c0.02-0.938-0.391-2.418-2.076-2.418c-1.533,0-2.18,1.379-2.299,2.418H385.663z"/>
		<path fill="#FFFFFF" d="M388.76,40.07c0.461,0.271,1.242,0.579,1.992,0.579c1.072,0,1.582-0.525,1.582-1.229
			c0-0.715-0.426-1.09-1.516-1.499c-1.498-0.545-2.197-1.345-2.197-2.333c0-1.328,1.09-2.418,2.846-2.418
			c0.834,0,1.566,0.221,2.012,0.511l-0.357,1.093c-0.32-0.204-0.918-0.491-1.688-0.491c-0.887,0-1.359,0.511-1.359,1.121
			c0,0.684,0.479,0.985,1.549,1.414c1.414,0.525,2.162,1.24,2.162,2.472c0,1.464-1.143,2.48-3.062,2.48
			c-0.898,0-1.732-0.233-2.312-0.576L388.76,40.07z"/>
		<path fill="#FFFFFF" d="M395.502,40.07c0.459,0.271,1.242,0.579,1.992,0.579c1.074,0,1.584-0.525,1.584-1.229
			c0-0.715-0.426-1.09-1.516-1.499c-1.5-0.545-2.197-1.345-2.197-2.333c0-1.328,1.09-2.418,2.844-2.418
			c0.834,0,1.566,0.221,2.012,0.511l-0.355,1.093c-0.324-0.204-0.92-0.491-1.689-0.491c-0.887,0-1.357,0.511-1.357,1.121
			c0,0.684,0.477,0.985,1.549,1.414c1.414,0.525,2.164,1.24,2.164,2.472c0,1.464-1.146,2.48-3.066,2.48
			c-0.896,0-1.732-0.233-2.311-0.576L395.502,40.07z"/>
		<path fill="#FFFFFF" d="M411.932,41.295c-0.395,0.188-1.262,0.477-2.365,0.477c-2.486,0-4.104-1.686-4.104-4.203
			c0-2.535,1.736-4.396,4.43-4.396c0.887,0,1.67,0.221,2.074,0.442l-0.34,1.141c-0.354-0.188-0.918-0.392-1.734-0.392
			c-1.893,0-2.91,1.411-2.91,3.11c0,1.907,1.227,3.083,2.857,3.083c0.854,0,1.414-0.202,1.84-0.392L411.932,41.295z"/>
		<path fill="#FFFFFF" d="M420.581,39.321c0,0.865,0.018,1.615,0.068,2.268h-1.33l-0.084-1.345H419.2
			c-0.375,0.664-1.26,1.53-2.727,1.53c-1.295,0-2.846-0.729-2.846-3.607v-4.819h1.498v4.547c0,1.567,0.494,2.646,1.842,2.646
			c1.004,0,1.701-0.698,1.977-1.379c0.086-0.205,0.137-0.479,0.137-0.771v-5.041h1.498L420.581,39.321L420.581,39.321z"/>
		<path fill="#FFFFFF" d="M422.86,40.07c0.459,0.271,1.24,0.579,1.99,0.579c1.072,0,1.582-0.525,1.582-1.229
			c0-0.715-0.426-1.09-1.518-1.499c-1.498-0.545-2.195-1.345-2.195-2.333c0-1.328,1.094-2.418,2.848-2.418
			c0.834,0,1.562,0.221,2.008,0.511l-0.355,1.093c-0.318-0.204-0.92-0.491-1.688-0.491c-0.887,0-1.363,0.511-1.363,1.121
			c0,0.684,0.48,0.985,1.551,1.414c1.414,0.525,2.164,1.24,2.164,2.472c0,1.464-1.143,2.48-3.061,2.48
			c-0.902,0-1.738-0.233-2.316-0.576L422.86,40.07z"/>
		<path fill="#FFFFFF" d="M431.61,31.367v1.975h2.146v1.144h-2.146v4.442c0,1.021,0.291,1.604,1.125,1.604
			c0.406,0,0.645-0.034,0.865-0.104l0.066,1.146c-0.287,0.102-0.748,0.2-1.326,0.2c-0.697,0-1.262-0.234-1.617-0.631
			c-0.406-0.459-0.58-1.188-0.58-2.163v-4.493h-1.273v-1.144h1.273v-1.532L431.61,31.367z"/>
		<path fill="#FFFFFF" d="M442.795,37.396c0,3.054-2.127,4.376-4.104,4.376c-2.217,0-3.951-1.635-3.951-4.234
			c0-2.742,1.822-4.359,4.088-4.359C441.196,33.173,442.795,34.892,442.795,37.396z M436.274,37.483
			c0,1.808,1.021,3.167,2.484,3.167c1.432,0,2.502-1.348,2.502-3.199c0-1.396-0.695-3.15-2.471-3.15
			C437.04,34.297,436.274,35.931,436.274,37.483z"/>
		<path fill="#FFFFFF" d="M444.684,35.574c0-0.869-0.031-1.552-0.064-2.231h1.311l0.066,1.349h0.051
			c0.463-0.781,1.23-1.519,2.605-1.519c1.105,0,1.959,0.681,2.314,1.652H451c0.258-0.479,0.598-0.817,0.938-1.073
			c0.494-0.375,1.021-0.579,1.807-0.579c1.105,0,2.727,0.715,2.727,3.576v4.836h-1.463v-4.649c0-1.601-0.598-2.534-1.789-2.534
			c-0.867,0-1.518,0.633-1.787,1.348c-0.064,0.221-0.115,0.477-0.115,0.749v5.092h-1.469v-4.94c0-1.312-0.576-2.247-1.721-2.247
			c-0.92,0-1.617,0.749-1.854,1.499c-0.088,0.201-0.119,0.479-0.119,0.729v4.956h-1.465v-6.013H444.684z"/>
		<path fill="#FFFFFF" d="M459.717,37.737c0.031,2.023,1.312,2.858,2.824,2.858c1.074,0,1.738-0.187,2.283-0.426l0.27,1.073
			c-0.525,0.236-1.443,0.522-2.76,0.522c-2.535,0-4.053-1.686-4.053-4.172c0-2.483,1.465-4.427,3.865-4.427
			c2.709,0,3.402,2.351,3.402,3.865c0,0.307-0.02,0.524-0.053,0.695h-5.787v0.004h0.004v0.004h0.004V37.737z M464.11,36.663
			c0.018-0.938-0.395-2.418-2.078-2.418c-1.533,0-2.182,1.379-2.299,2.418H464.11z"/>
		<path fill="#FFFFFF" d="M467.411,35.914c0-0.974-0.02-1.808-0.066-2.572h1.312l0.064,1.635h0.055
			c0.375-1.104,1.293-1.805,2.299-1.805c0.15,0,0.27,0.02,0.408,0.034v1.413c-0.152-0.034-0.309-0.034-0.514-0.034
			c-1.057,0-1.807,0.784-2.01,1.907c-0.033,0.205-0.051,0.46-0.051,0.695v4.396h-1.5v-5.67H467.411z"/>
		<path fill="#FFFFFF" d="M472.774,40.07c0.459,0.271,1.24,0.579,1.99,0.579c1.072,0,1.582-0.525,1.582-1.229
			c0-0.715-0.426-1.09-1.518-1.499c-1.498-0.545-2.195-1.345-2.195-2.333c0-1.328,1.09-2.418,2.848-2.418
			c0.834,0,1.562,0.221,2.008,0.511l-0.355,1.093c-0.322-0.204-0.922-0.491-1.688-0.491c-0.889,0-1.363,0.511-1.363,1.121
			c0,0.684,0.48,0.985,1.551,1.414c1.414,0.525,2.162,1.24,2.162,2.472c0,1.464-1.141,2.48-3.061,2.48
			c-0.902,0-1.736-0.233-2.316-0.576L472.774,40.07z"/>
		<path fill="#FFFFFF" d="M483.924,33.343l1.105,4.189c0.221,0.919,0.438,1.771,0.596,2.619h0.053
			c0.188-0.834,0.459-1.723,0.73-2.604l1.344-4.207h1.262l1.275,4.121c0.309,0.988,0.545,1.854,0.732,2.688h0.051
			c0.137-0.834,0.354-1.7,0.631-2.676l1.174-4.138h1.482l-2.658,8.242h-1.359l-1.262-3.937c-0.291-0.921-0.527-1.734-0.73-2.708
			h-0.031c-0.205,0.985-0.459,1.839-0.75,2.728l-1.328,3.917h-1.363l-2.482-8.242L483.924,33.343L483.924,33.343z"/>
		<path fill="#FFFFFF" d="M497.526,31.028c0,0.514-0.357,0.922-0.953,0.922c-0.545,0-0.904-0.409-0.904-0.922
			c0-0.514,0.375-0.938,0.939-0.938C497.151,30.09,497.526,30.499,497.526,31.028z M495.858,41.585v-8.242h1.498v8.242H495.858z"/>
		<path fill="#FFFFFF" d="M501.647,31.367v1.975h2.145v1.144h-2.145v4.442c0,1.021,0.285,1.604,1.121,1.604
			c0.408,0,0.646-0.034,0.869-0.104l0.066,1.146c-0.291,0.102-0.75,0.2-1.33,0.2c-0.695,0-1.26-0.234-1.617-0.631
			c-0.408-0.459-0.578-1.188-0.578-2.163v-4.493h-1.273v-1.144h1.273v-1.532L501.647,31.367z"/>
		<path fill="#FFFFFF" d="M505.475,29.494h1.5v5.157h0.033c0.236-0.429,0.611-0.814,1.072-1.07c0.443-0.255,0.973-0.409,1.533-0.409
			c1.104,0,2.877,0.681,2.877,3.508v4.904h-1.5V36.85c0-1.329-0.494-2.435-1.906-2.435c-0.971,0-1.721,0.681-2.01,1.479
			c-0.084,0.227-0.105,0.442-0.105,0.718v4.976h-1.5L505.475,29.494L505.475,29.494z"/>
		<path fill="#FFFFFF" d="M525.583,40.376c0,1.907-0.393,3.048-1.176,3.78c-0.816,0.729-1.979,0.982-3.016,0.982
			c-0.986,0-2.076-0.232-2.74-0.681l0.375-1.158c0.545,0.358,1.396,0.664,2.418,0.664c1.529,0,2.654-0.8,2.654-2.896v-0.9h-0.031
			c-0.443,0.767-1.348,1.379-2.623,1.379c-2.043,0-3.51-1.737-3.51-4.021c0-2.793,1.82-4.356,3.729-4.356
			c1.432,0,2.197,0.729,2.572,1.413h0.031l0.053-1.243h1.33c-0.055,0.579-0.068,1.26-0.068,2.248L525.583,40.376L525.583,40.376z
			 M524.084,36.596c0-0.256-0.018-0.477-0.086-0.664c-0.271-0.886-0.986-1.601-2.094-1.601c-1.436,0-2.453,1.209-2.453,3.116
			c0,1.615,0.834,2.963,2.438,2.963c0.938,0,1.771-0.579,2.076-1.533c0.086-0.255,0.119-0.545,0.119-0.8V36.596z"/>
		<path fill="#FFFFFF" d="M533.84,39.61c0,0.718,0.033,1.414,0.119,1.979h-1.346l-0.119-1.039h-0.051
			c-0.461,0.646-1.352,1.226-2.521,1.226c-1.67,0-2.52-1.175-2.52-2.361c0-1.992,1.77-3.082,4.955-3.065v-0.17
			c0-0.664-0.189-1.907-1.873-1.89c-0.783,0-1.584,0.221-2.164,0.607l-0.34-1.005c0.68-0.425,1.686-0.715,2.725-0.715
			c2.52,0,3.133,1.72,3.133,3.354v3.081L533.84,39.61L533.84,39.61z M532.391,37.379c-1.635-0.034-3.488,0.255-3.488,1.854
			c0,0.985,0.646,1.434,1.396,1.434c1.09,0,1.785-0.684,2.025-1.379c0.051-0.17,0.062-0.344,0.062-0.479L532.391,37.379
			L532.391,37.379z"/>
		<path fill="#FFFFFF" d="M536.051,40.07c0.459,0.271,1.24,0.579,1.99,0.579c1.074,0,1.584-0.525,1.584-1.229
			c0-0.715-0.426-1.09-1.516-1.499c-1.5-0.545-2.197-1.345-2.197-2.333c0-1.328,1.092-2.418,2.846-2.418
			c0.834,0,1.564,0.221,2.008,0.511l-0.355,1.093c-0.322-0.204-0.918-0.491-1.688-0.491c-0.889,0-1.359,0.511-1.359,1.121
			c0,0.684,0.477,0.985,1.549,1.414c1.414,0.525,2.162,1.24,2.162,2.472c0,1.464-1.143,2.48-3.062,2.48
			c-0.898,0-1.732-0.233-2.312-0.576L536.051,40.07z"/>
		<path fill="#FFFFFF" d="M311.167,58.165c0.035,2.023,1.312,2.858,2.828,2.858c1.072,0,1.736-0.188,2.281-0.429l0.271,1.073
			c-0.527,0.239-1.446,0.527-2.758,0.527c-2.537,0-4.053-1.688-4.053-4.174c0-2.483,1.465-4.43,3.865-4.43
			c2.708,0,3.405,2.354,3.405,3.865c0,0.309-0.016,0.526-0.051,0.698h-5.791v0.01H311.167z M315.561,57.092
			c0.019-0.937-0.393-2.418-2.076-2.418c-1.532,0-2.181,1.379-2.3,2.418H315.561z"/>
		<path fill="#FFFFFF" d="M329.178,51.388c-0.375-0.235-0.986-0.438-1.686-0.438c-1.566,0-2.043,1.104-2.043,2.418v0.402h4.803
			v8.242h-1.5v-7.101h-3.303v7.101h-1.482v-7.101h-3.473v7.101h-1.482v-7.101h-1.141v-1.146h1.141V53.48
			c0-1.021,0.291-2.044,0.988-2.728c0.477-0.494,1.191-0.801,2.111-0.801c0.561,0,1.141,0.205,1.445,0.354l-0.426,1.106
			c-0.256-0.153-0.646-0.29-1.02-0.29c-0.479,0-0.816,0.17-1.072,0.426c-0.41,0.443-0.545,1.192-0.545,1.907v0.306h3.473v-0.459
			c0-2.162,1.277-3.573,3.594-3.573c0.748,0,1.617,0.235,2.061,0.525L329.178,51.388z"/>
		<path fill="#FFFFFF" d="M338.61,61.724c-0.395,0.188-1.26,0.479-2.367,0.479c-2.484,0-4.104-1.688-4.104-4.206
			c0-2.538,1.738-4.396,4.43-4.396c0.885,0,1.666,0.227,2.076,0.442l-0.34,1.141c-0.355-0.187-0.92-0.392-1.736-0.392
			c-1.891,0-2.912,1.414-2.912,3.116c0,1.904,1.225,3.083,2.859,3.083c0.854,0,1.414-0.205,1.84-0.396L338.61,61.724z"/>
		<path fill="#FFFFFF" d="M342.032,51.456c0,0.511-0.357,0.919-0.955,0.919c-0.545,0-0.902-0.409-0.902-0.919
			c0-0.514,0.375-0.938,0.939-0.938C341.657,50.519,342.032,50.928,342.032,51.456z M340.362,62.013v-8.242h1.498v8.242H340.362z"/>
		<path fill="#FFFFFF" d="M345.178,58.165c0.035,2.023,1.312,2.858,2.828,2.858c1.072,0,1.736-0.188,2.281-0.429l0.27,1.073
			c-0.525,0.239-1.445,0.527-2.762,0.527c-2.535,0-4.053-1.688-4.053-4.174c0-2.483,1.465-4.43,3.865-4.43
			c2.709,0,3.404,2.354,3.404,3.865c0,0.309-0.018,0.526-0.053,0.698h-5.789v0.004h0.004v0.004h0.004V58.165z M349.573,57.092
			c0.018-0.937-0.393-2.418-2.076-2.418c-1.533,0-2.182,1.379-2.301,2.418H349.573z"/>
		<path fill="#FFFFFF" d="M352.875,56.002c0-0.869-0.018-1.549-0.068-2.231h1.33l0.084,1.362h0.035
			c0.408-0.766,1.361-1.532,2.729-1.532c1.141,0,2.908,0.687,2.908,3.511v4.901h-1.498v-4.751c0-1.328-0.492-2.435-1.904-2.435
			c-0.975,0-1.736,0.695-2.01,1.53c-0.068,0.188-0.105,0.439-0.105,0.695v4.956h-1.498V56L352.875,56.002L352.875,56.002z"/>
		<path fill="#FFFFFF" d="M368.198,61.724c-0.395,0.188-1.26,0.479-2.365,0.479c-2.486,0-4.104-1.688-4.104-4.206
			c0-2.538,1.736-4.396,4.43-4.396c0.887,0,1.67,0.227,2.078,0.442l-0.344,1.141c-0.354-0.187-0.92-0.392-1.734-0.392
			c-1.893,0-2.912,1.414-2.912,3.116c0,1.904,1.227,3.083,2.861,3.083c0.854,0,1.412-0.205,1.84-0.396L368.198,61.724z"/>
		<path fill="#FFFFFF" d="M370.799,53.771l1.787,4.871c0.205,0.545,0.41,1.192,0.545,1.688h0.035
			c0.152-0.494,0.324-1.124,0.527-1.723l1.635-4.839h1.584l-2.248,5.875c-1.074,2.827-1.805,4.263-2.828,5.16
			c-0.748,0.63-1.463,0.888-1.838,0.953l-0.375-1.243c0.375-0.12,0.869-0.354,1.312-0.729c0.406-0.324,0.898-0.902,1.262-1.669
			c0.064-0.153,0.119-0.272,0.119-0.357s-0.033-0.205-0.119-0.392l-3.029-7.601h1.631V53.771L370.799,53.771z"/>
		<path fill="#FFFFFF" d="M383.553,51.456c0,0.511-0.355,0.919-0.957,0.919c-0.545,0-0.898-0.409-0.898-0.919
			c0-0.514,0.375-0.938,0.938-0.938C383.176,50.519,383.553,50.928,383.553,51.456z M381.881,62.013v-8.242h1.5v8.242H381.881z"/>
		<path fill="#FFFFFF" d="M385.866,56.002c0-0.869-0.02-1.549-0.066-2.231h1.328l0.084,1.362h0.035
			c0.408-0.766,1.361-1.532,2.727-1.532c1.145,0,2.912,0.687,2.912,3.511v4.901h-1.5v-4.751c0-1.328-0.494-2.435-1.904-2.435
			c-0.973,0-1.734,0.695-2.012,1.53c-0.062,0.188-0.104,0.439-0.104,0.695v4.956h-1.498L385.866,56.002L385.866,56.002z"/>
		<path fill="#FFFFFF" d="M401.19,61.724c-0.395,0.188-1.262,0.479-2.367,0.479c-2.486,0-4.104-1.688-4.104-4.206
			c0-2.538,1.734-4.396,4.43-4.396c0.885,0,1.668,0.227,2.076,0.442l-0.342,1.141c-0.354-0.187-0.92-0.392-1.734-0.392
			c-1.893,0-2.912,1.414-2.912,3.116c0,1.904,1.227,3.083,2.859,3.083c0.854,0,1.414-0.205,1.838-0.396L401.19,61.724z"/>
		<path fill="#FFFFFF" d="M403.674,58.165c0.031,2.023,1.312,2.858,2.824,2.858c1.074,0,1.738-0.188,2.283-0.429l0.27,1.073
			c-0.525,0.239-1.443,0.527-2.76,0.527c-2.535,0-4.053-1.688-4.053-4.174c0-2.483,1.465-4.43,3.867-4.43
			c2.705,0,3.4,2.354,3.4,3.865c0,0.309-0.018,0.526-0.051,0.698h-5.789v0.004h0.004v0.004h0.004V58.165z M408.067,57.092
			c0.018-0.937-0.395-2.418-2.076-2.418c-1.533,0-2.184,1.379-2.299,2.418H408.067z"/>
		<path fill="#FFFFFF" d="M411.368,56.002c0-0.869-0.02-1.549-0.066-2.231h1.328l0.086,1.362h0.033
			c0.408-0.766,1.361-1.532,2.727-1.532c1.145,0,2.912,0.687,2.912,3.511v4.901h-1.5v-4.751c0-1.328-0.494-2.435-1.902-2.435
			c-0.975,0-1.736,0.695-2.014,1.53c-0.062,0.188-0.104,0.439-0.104,0.695v4.956h-1.498L411.368,56.002L411.368,56.002z"/>
		<path fill="#FFFFFF" d="M422.553,51.796v1.975h2.146v1.146h-2.146v4.442c0,1.021,0.291,1.604,1.125,1.604
			c0.406,0,0.646-0.034,0.867-0.104L424.614,62c-0.289,0.102-0.75,0.205-1.328,0.205c-0.699,0-1.26-0.239-1.619-0.63
			c-0.406-0.459-0.578-1.192-0.578-2.163v-4.496h-1.273V53.77h1.273v-1.526L422.553,51.796z"/>
		<path fill="#FFFFFF" d="M428.053,51.456c0,0.511-0.355,0.919-0.955,0.919c-0.545,0-0.9-0.409-0.9-0.919
			c0-0.514,0.375-0.938,0.938-0.938C427.678,50.519,428.053,50.928,428.053,51.456z M426.383,62.013v-8.242h1.5v8.242H426.383z"/>
		<path fill="#FFFFFF" d="M430.946,53.771l1.617,4.615c0.271,0.771,0.492,1.447,0.662,2.128h0.053
			c0.188-0.681,0.426-1.356,0.695-2.128l1.604-4.615h1.564l-3.232,8.242h-1.434l-3.133-8.242H430.946z"/>
		<path fill="#FFFFFF" d="M439.219,58.165c0.033,2.023,1.312,2.858,2.826,2.858c1.072,0,1.736-0.188,2.281-0.429l0.27,1.073
			c-0.523,0.239-1.443,0.527-2.76,0.527c-2.537,0-4.055-1.688-4.055-4.174c0-2.483,1.465-4.43,3.867-4.43
			c2.707,0,3.402,2.354,3.402,3.865c0,0.309-0.018,0.526-0.051,0.698h-5.787v0.004h0.004v0.006H439.219z M443.612,57.092
			c0.018-0.937-0.395-2.418-2.078-2.418c-1.533,0-2.182,1.379-2.299,2.418H443.612z"/>
		<path fill="#FFFFFF" d="M446.709,60.498c0.459,0.271,1.242,0.579,1.992,0.579c1.074,0,1.584-0.528,1.584-1.229
			c0-0.715-0.426-1.09-1.516-1.499c-1.5-0.545-2.197-1.345-2.197-2.333c0-1.325,1.09-2.418,2.844-2.418
			c0.834,0,1.566,0.227,2.012,0.514l-0.355,1.093c-0.324-0.204-0.92-0.494-1.689-0.494c-0.887,0-1.357,0.511-1.357,1.124
			c0,0.681,0.477,0.985,1.549,1.414c1.414,0.525,2.164,1.243,2.164,2.469c0,1.464-1.146,2.486-3.066,2.486
			c-0.896,0-1.732-0.239-2.311-0.579L446.709,60.498z"/>
		<path fill="#FFFFFF" d="M463.053,60.038c0,0.715,0.033,1.414,0.121,1.976h-1.348l-0.119-1.039h-0.051
			c-0.461,0.647-1.352,1.229-2.521,1.229c-1.67,0-2.521-1.178-2.521-2.367c0-1.992,1.771-3.082,4.955-3.065v-0.17
			c0-0.664-0.188-1.901-1.873-1.89c-0.783,0-1.582,0.221-2.162,0.613l-0.342-1.008c0.682-0.428,1.688-0.718,2.725-0.718
			c2.521,0,3.135,1.726,3.135,3.354L463.053,60.038L463.053,60.038z M461.606,57.807c-1.637-0.031-3.49,0.255-3.49,1.856
			c0,0.985,0.645,1.431,1.395,1.431c1.09,0,1.789-0.681,2.025-1.379c0.053-0.17,0.066-0.341,0.066-0.479L461.606,57.807
			L461.606,57.807z"/>
		<path fill="#FFFFFF" d="M465.469,56.002c0-0.869-0.018-1.549-0.064-2.231h1.328l0.086,1.362h0.031
			c0.408-0.766,1.359-1.532,2.727-1.532c1.141,0,2.912,0.687,2.912,3.511v4.901h-1.498v-4.751c0-1.328-0.494-2.435-1.908-2.435
			c-0.971,0-1.734,0.695-2.008,1.53c-0.068,0.188-0.105,0.439-0.105,0.695v4.956h-1.498L465.469,56.002L465.469,56.002z"/>
		<path fill="#FFFFFF" d="M482.02,49.923v9.962c0,0.732,0.033,1.566,0.066,2.128h-1.326l-0.066-1.431h-0.053
			c-0.441,0.92-1.434,1.618-2.773,1.618c-1.992,0-3.543-1.688-3.543-4.189c-0.02-2.741,1.703-4.41,3.693-4.41
			c1.275,0,2.109,0.602,2.484,1.243h0.033v-4.921H482.02z M480.538,57.126c0-0.188-0.02-0.443-0.066-0.63
			c-0.223-0.938-1.039-1.723-2.164-1.723c-1.549,0-2.471,1.359-2.471,3.167c0,1.669,0.836,3.051,2.439,3.051
			c1.004,0,1.924-0.688,2.193-1.788c0.053-0.205,0.066-0.409,0.066-0.647v-1.43H480.538z"/>
		<path fill="#FFFFFF" d="M487.924,60.498c0.459,0.271,1.24,0.579,1.99,0.579c1.074,0,1.584-0.528,1.584-1.229
			c0-0.715-0.426-1.09-1.516-1.499c-1.5-0.545-2.197-1.345-2.197-2.333c0-1.325,1.09-2.418,2.846-2.418
			c0.834,0,1.564,0.227,2.01,0.514l-0.355,1.093c-0.324-0.204-0.92-0.494-1.689-0.494c-0.887,0-1.357,0.511-1.357,1.124
			c0,0.681,0.477,0.985,1.549,1.414c1.414,0.525,2.164,1.243,2.164,2.469c0,1.464-1.146,2.486-3.064,2.486
			c-0.898,0-1.734-0.239-2.312-0.579L487.924,60.498z"/>
		<path fill="#FFFFFF" d="M495.704,58.165c0.035,2.023,1.312,2.858,2.828,2.858c1.072,0,1.734-0.188,2.281-0.429l0.27,1.073
			c-0.525,0.239-1.445,0.527-2.758,0.527c-2.537,0-4.053-1.688-4.053-4.174c0-2.483,1.465-4.43,3.863-4.43
			c2.709,0,3.406,2.354,3.406,3.865c0,0.309-0.018,0.526-0.053,0.698H495.7L495.704,58.165L495.704,58.165z M500.098,57.092
			c0.02-0.937-0.395-2.418-2.076-2.418c-1.531,0-2.182,1.379-2.301,2.418H500.098z"/>
		<path fill="#FFFFFF" d="M503.399,56.343c0-0.971-0.021-1.805-0.068-2.572h1.311l0.066,1.641h0.053
			c0.375-1.106,1.295-1.811,2.303-1.811c0.148,0,0.27,0.021,0.406,0.034v1.413c-0.148-0.034-0.309-0.034-0.514-0.034
			c-1.055,0-1.805,0.784-2.01,1.907c-0.033,0.205-0.051,0.46-0.051,0.698v4.394h-1.498L503.399,56.343L503.399,56.343z"/>
		<path fill="#FFFFFF" d="M509.969,53.771l1.617,4.615c0.271,0.771,0.494,1.447,0.664,2.128h0.053
			c0.188-0.681,0.426-1.356,0.695-2.128l1.604-4.615h1.564l-3.234,8.242h-1.43l-3.133-8.242H509.969z"/>
		<path fill="#FFFFFF" d="M519.249,51.456c0,0.511-0.357,0.919-0.955,0.919c-0.545,0-0.9-0.409-0.9-0.919
			c0-0.514,0.375-0.938,0.939-0.938C518.874,50.519,519.249,50.928,519.249,51.456z M517.579,62.013v-8.242h1.5v8.242H517.579z"/>
		<path fill="#FFFFFF" d="M527.438,61.724c-0.395,0.188-1.26,0.479-2.365,0.479c-2.486,0-4.104-1.688-4.104-4.206
			c0-2.538,1.734-4.396,4.43-4.396c0.885,0,1.67,0.227,2.074,0.442l-0.34,1.141c-0.354-0.187-0.92-0.392-1.734-0.392
			c-1.895,0-2.912,1.414-2.912,3.116c0,1.904,1.227,3.083,2.859,3.083c0.854,0,1.414-0.205,1.838-0.396L527.438,61.724z"/>
		<path fill="#FFFFFF" d="M529.922,58.165c0.033,2.023,1.312,2.858,2.826,2.858c1.074,0,1.738-0.188,2.283-0.429l0.27,1.073
			c-0.525,0.239-1.445,0.527-2.76,0.527c-2.535,0-4.053-1.688-4.053-4.174c0-2.483,1.465-4.43,3.865-4.43
			c2.709,0,3.402,2.354,3.402,3.865c0,0.309-0.018,0.526-0.053,0.698h-5.789v0.004h0.004v0.004h0.004V58.165z M534.315,57.092
			c0.018-0.937-0.395-2.418-2.076-2.418c-1.533,0-2.184,1.379-2.299,2.418H534.315z"/>
		<path fill="#FFFFFF" d="M537.411,60.498c0.461,0.271,1.244,0.579,1.994,0.579c1.07,0,1.582-0.528,1.582-1.229
			c0-0.715-0.426-1.09-1.518-1.499c-1.5-0.545-2.195-1.345-2.195-2.333c0-1.325,1.09-2.418,2.844-2.418
			c0.834,0,1.564,0.227,2.01,0.514l-0.354,1.093c-0.322-0.204-0.92-0.494-1.689-0.494c-0.887,0-1.361,0.511-1.361,1.124
			c0,0.681,0.48,0.985,1.555,1.414c1.412,0.525,2.162,1.243,2.162,2.469c0,1.464-1.146,2.486-3.064,2.486
			c-0.9,0-1.736-0.239-2.314-0.579L537.411,60.498z"/>
		<path fill="#FFFFFF" d="M543.813,61.128c0-0.613,0.426-1.073,1.02-1.073c0.598,0,1.006,0.443,1.006,1.073
			c0,0.613-0.408,1.073-1.037,1.073C544.221,62.201,543.813,61.741,543.813,61.128z"/>
	</g>
	<g>
		<g>
			<g>
				<path id="SVGID_1_" fill="#FFFFFF" d="M184.373,40.741c0.671-3.163,0.366-6.709-0.571-9.375
					c-1.04-2.958-2.322-4.796-3.726-6.371l-5.724,5.726L184.373,40.741"/>
			</g>
			<g>
				<defs>
					<path id="SVGID_2_" d="M184.373,40.741c0.671-3.163,0.366-6.709-0.571-9.375c-1.04-2.958-2.322-4.796-3.726-6.371l-5.724,5.726
						L184.373,40.741"/>
				</defs>
				<clipPath id="SVGID_4_">
					<use xlink:href="#SVGID_2_"  overflow="visible"/>
				</clipPath>
				<rect x="165.86" y="24.977" clip-path="url(#SVGID_4_)" fill="#FFFFFF" width="28.192" height="15.75"/>
			</g>
		</g>
	</g>
	<g>
		<g>
			<g>
				<path id="SVGID_3_" fill="#FFFFFF" d="M175.791,37.436c-0.413,2.185-0.597,5.248,0.263,8.302
					c0.688,2.447,1.829,4.973,4.041,7.439l5.722-5.723L175.791,37.436"/>
			</g>
			<g>
				<defs>
					<path id="SVGID_6_" d="M175.791,37.436c-0.413,2.185-0.597,5.248,0.263,8.302c0.688,2.447,1.829,4.973,4.041,7.439l5.722-5.723
						L175.791,37.436"/>
				</defs>
				<clipPath id="SVGID_8_">
					<use xlink:href="#SVGID_6_"  overflow="visible"/>
				</clipPath>
				<rect x="165.86" y="37.42" clip-path="url(#SVGID_8_)" fill="#FFFFFF" width="28.192" height="15.746"/>
			</g>
		</g>
	</g>
	<g>
		<g>
			<g>
				<path id="SVGID_5_" fill="#FFFFFF" d="M194.188,39.083l-6.146-6.146c0.048,0.242,0.093,0.486,0.133,0.731
					c0.758,4.608-0.099,9.625-2.27,13.696L194.188,39.083"/>
			</g>
			<g>
				<defs>
					<path id="SVGID_9_" d="M194.188,39.083l-6.146-6.146c0.048,0.242,0.093,0.486,0.133,0.731c0.758,4.608-0.099,9.625-2.27,13.696
						L194.188,39.083"/>
				</defs>
				<clipPath id="SVGID_10_">
					<use xlink:href="#SVGID_9_"  overflow="visible"/>
				</clipPath>
				<rect x="193.933" y="32.921" clip-path="url(#SVGID_10_)" fill="#FFFFFF" width="0.268" height="14.432"/>
			</g>
			<g>
				<defs>
					<path id="SVGID_11_" d="M194.188,39.083l-6.146-6.146c0.048,0.242,0.093,0.486,0.133,0.731
						c0.758,4.608-0.099,9.625-2.27,13.696L194.188,39.083"/>
				</defs>
				<clipPath id="SVGID_12_">
					<use xlink:href="#SVGID_11_"  overflow="visible"/>
				</clipPath>
				<rect x="165.86" y="32.921" clip-path="url(#SVGID_12_)" fill="#FFFFFF" width="28.192" height="14.432"/>
			</g>
		</g>
	</g>
	<g>
		<g>
			<g>
				<path id="SVGID_7_" fill="#FFFFFF" d="M171.757,42.212c-0.264-5.198,1.339-9.195,2.499-11.396l-8.267,8.269l6.137,6.138
					C171.939,44.255,171.811,43.252,171.757,42.212"/>
			</g>
			<g>
				<defs>
					<path id="SVGID_13_" d="M171.757,42.212c-0.264-5.198,1.339-9.195,2.499-11.396l-8.267,8.269l6.137,6.138
						C171.939,44.255,171.811,43.252,171.757,42.212"/>
				</defs>
				<clipPath id="SVGID_14_">
					<use xlink:href="#SVGID_13_"  overflow="visible"/>
				</clipPath>
				<rect x="165.86" y="30.798" clip-path="url(#SVGID_14_)" fill="#FFFFFF" width="28.192" height="14.409"/>
			</g>
		</g>
	</g>
	<polyline fill="#FFFFFF" points="208.972,34.527 210.981,34.527 210.981,43.097 209.474,43.097 206.407,38.859 206.407,43.097 
		204.411,43.097 204.411,34.527 205.904,34.527 208.972,38.769 208.972,34.527 	"/>
	<polyline fill="#FFFFFF" points="222.707,43.231 221.048,43.231 219.377,38.033 217.706,43.231 216.047,43.231 213.077,34.527 
		215.366,34.527 216.883,39.42 218.387,34.527 220.367,34.527 221.871,39.42 223.388,34.527 225.676,34.527 222.707,43.231 	"/>
	<polyline fill="#FFFFFF" points="237.575,34.527 239.583,34.527 239.583,43.097 238.077,43.097 235.01,38.859 235.01,43.097 
		233.013,43.097 233.013,34.527 234.507,34.527 237.575,38.769 237.575,34.527 	"/>
	<path fill="#FFFFFF" d="M246.708,39.736c0,1.018-0.516,1.84-1.133,1.84c-0.605,0-1.121-0.822-1.121-1.84
		c0-1.016,0.515-1.838,1.121-1.838C246.192,37.898,246.708,38.72,246.708,39.736z M248.868,43.09v-6.708h-0.489l-0.899,0.771
		c-0.578-0.577-1.337-0.911-2.188-0.911c-1.785,0-3.222,1.555-3.222,3.494c0,1.942,1.437,3.495,3.222,3.495
		c0.85,0,1.609-0.346,2.188-0.91l0.899,0.771L248.868,43.09"/>
	<path fill="#FFFFFF" d="M254.938,43.231c-1.377,0-2.691-0.986-2.691-2.732v-2.542h-1.504v-0.488l3.307-3.443h0.49v2.366h2.52v1.565
		h-2.52v2.299c0,1.091,0.54,1.451,1.285,1.451c0.321,0,1.028-0.258,1.235-0.463v1.321C256.648,42.988,255.556,43.231,254.938,43.231
		"/>
	<path fill="#FFFFFF" d="M265.513,43.089l-1.03-0.887c-0.425,0.487-1.298,1.027-2.246,1.027c-2.007,0-2.806-1.222-2.806-2.544V36.39
		h2.292v3.668c0,1.065,0.256,1.398,0.82,1.398c0.551,0,0.909-0.282,1.166-0.731V36.39h2.292v6.699H265.513"/>
	<path fill="#FFFFFF" d="M271.262,43.097h-2.292v-6.715h0.49l0.914,0.783c0.45-0.476,1.377-0.925,2.187-0.925
		c0.27,0,0.501,0.052,0.63,0.128v3.659h-0.45l-1.479-1.477V43.097"/>
	<path fill="#FFFFFF" d="M280.055,39.736c0,1.018-0.515,1.84-1.133,1.84c-0.606,0-1.121-0.822-1.121-1.84
		c0-1.016,0.514-1.838,1.121-1.838C279.54,37.898,280.055,38.72,280.055,39.736z M282.214,43.09v-6.708h-0.49l-0.898,0.771
		c-0.579-0.577-1.338-0.911-2.188-0.911c-1.786,0-3.221,1.555-3.221,3.494c0,1.942,1.436,3.495,3.221,3.495
		c0.849,0,1.608-0.346,2.188-0.91l0.898,0.771L282.214,43.09"/>
	<rect x="285.18" y="33.096" fill="#FFFFFF" width="2.292" height="10.001"/>
	<path fill="#FFFFFF" d="M288.78,34.728c0-0.799,0.602-1.4,1.374-1.4c0.763,0,1.365,0.603,1.365,1.4c0,0.812-0.602,1.41-1.365,1.41
		C289.382,36.138,288.78,35.54,288.78,34.728z M290.154,36.419c0.919,0,1.704-0.714,1.704-1.691c0-0.968-0.785-1.683-1.704-1.683
		c-0.928,0-1.713,0.715-1.713,1.683C288.441,35.705,289.226,36.419,290.154,36.419z M289.797,34.862h0.339l0.513,0.845h0.331
		l-0.554-0.857c0.286-0.035,0.505-0.188,0.505-0.535c0-0.384-0.228-0.553-0.688-0.553h-0.741v1.945h0.295V34.862L289.797,34.862z
		 M289.797,34.612v-0.603h0.401c0.206,0,0.424,0.045,0.424,0.286c0,0.299-0.223,0.315-0.473,0.315L289.797,34.612L289.797,34.612z"
		/>
</g>
</svg>
