<?xml version="1.0" encoding="utf-8"?>
<!-- Generator: Adobe Illustrator 15.0.2, SVG Export Plug-In . SVG Version: 6.00 Build 0)  -->
<!DOCTYPE svg PUBLIC "-//W3C//DTD SVG 1.1//EN" "http://www.w3.org/Graphics/SVG/1.1/DTD/svg11.dtd">
<svg version="1.1" id="Layer_1" xmlns="http://www.w3.org/2000/svg" xmlns:xlink="http://www.w3.org/1999/xlink" x="0px" y="0px"
	 width="591.689px" height="79.266px" viewBox="0 0 591.689 79.266" enable-background="new 0 0 591.689 79.266"
	 xml:space="preserve">
<g id="sky">
</g>
<g id="hills3">
</g>
<g id="hills1">
</g>
<g id="tractor">
</g>
<g id="hills">
</g>
<g id="foreground">
</g>
<g id="cows">
</g>
<g id="balloons">
</g>
<path fill="#00B6D2" d="M0.975,52.426c0,0.174-0.219,0.314-0.488,0.314l0,0C0.219,52.74,0,52.6,0,52.426V30.852
	c0-0.174,0.219-0.312,0.486-0.312l0,0c0.27,0,0.488,0.141,0.488,0.312L0.975,52.426L0.975,52.426z"/>
<rect x="123.992" y="39.225" fill="#006796" width="33.896" height="1.094"/>
<circle fill="#606049" cx="46.795" cy="32.912" r="3.375"/>
<path fill="#606049" d="M51.67,40.131c0,1.52-1.369,2.75-3.062,2.75l0,0c-1.693,0-3.062-1.23-3.062-2.75V36.85
	c0-1.52,1.369-2.75,3.062-2.75l0,0c1.693,0,3.062,1.23,3.062,2.75V40.131z"/>
<path fill="#00B6D2" d="M129.322,34.486c0,5.896-3.588,10.349-9.477,10.349c-5.889,0-24.418-6.938-18.771-8.611
	c9.842-2.916,11.697-12.393,17.586-12.393C124.549,23.826,129.322,28.6,129.322,34.486z"/>
<path fill="#006796" d="M28.512,61.732c-0.012,0.125-0.432,0.189-0.941,0.146l0,0c-0.504-0.045-0.912-0.187-0.9-0.312l4.605-16.108
	c0.008-0.125,0.428-0.191,0.939-0.146l0,0c0.506,0.043,0.912,0.185,0.902,0.31L28.512,61.732z"/>
<rect x="0.523" y="40.41" fill="#006796" width="3.826" height="2.317"/>
<circle fill="#006796" cx="27.022" cy="63.59" r="3.372"/>
<path fill="#00B6D2" d="M121.986,38.77c0,0-41.223-5.959-68.795-6.924c-0.705-0.025-0.025,3.482-0.734,3.461
	c-2.4-0.082-7.07,0.887-9.471,0.82c-0.631-0.021-0.508-1.969-1.135-1.984C15.514,33.459,6.072,35.357,3.264,38.77
	c-1.951,2.373-0.201,6.9,1.828,10.08c3.729,0.229,13.016,4.062,15.934,4.316c7.014,0.625,13.793,0.125,20.699-1.142
	c14.025-2.559,26.543-8.645,41.121-8.555c3.537,0.021,22.252-0.521,29.873,2.672c5.688-0.934,9.268-1.545,9.268-1.545L121.986,38.77
	L121.986,38.77z"/>
<path fill="#006796" d="M82.846,43.475c-14.578-0.09-27.201,3.396-41.227,5.957c-6.906,1.258-17.316-1.928-24.33-2.553
	c-2.916-0.26-8.469,2.197-12.197,1.971c0.146,0.23,0.293,0.457,0.443,0.672c6.686,9.66,28.717,6.523,38.453,6.021
	c15.119-0.789,51.549-6.566,68.73-9.396C105.098,42.953,86.383,43.496,82.846,43.475z"/>
<path fill="#006796" d="M31.227,51.074c0.074,0.229-0.18,0.506-0.561,0.623l0,0c-0.377,0.112-0.742,0.022-0.812-0.197l-8.717-28.174
	c-0.074-0.229,0.18-0.511,0.561-0.625l0,0c0.377-0.117,0.742-0.027,0.812,0.194L31.227,51.074z"/>
<path fill="#006796" d="M42.148,48.818c0.072,0.229-0.18,0.509-0.561,0.621l0,0c-0.377,0.117-0.744,0.027-0.814-0.194l-8.717-28.177
	c-0.072-0.227,0.182-0.508,0.559-0.625l0,0c0.379-0.112,0.746-0.022,0.814,0.199L42.148,48.818z"/>
<path fill="#00B6D2" d="M76.062,51.818c0,1.42-1.07,1.277-2.043,1.277l-51.967,1.293c-0.973,0-1.76-1.15-1.76-2.57l0,0
	c0-1.422,0.867-4.479,1.84-4.479l52.17,1.91C75.275,49.248,76.062,50.396,76.062,51.818L76.062,51.818z"/>
<path fill="#00B6D2" d="M64.764,22.477c0,1.42-1.07,1.279-2.043,1.279l-51.967,1.293c-0.973,0-1.76-1.152-1.76-2.572l0,0
	c0-1.42,0.867-4.479,1.84-4.479l52.17,1.908C63.977,19.906,64.764,21.057,64.764,22.477L64.764,22.477z"/>
<g>
	<polygon fill="#0079A3" points="589.423,79.266 523.087,79.266 523.087,7.966 589.423,7.966 571.291,43.616 	"/>
	<polygon fill="#006796" points="533.521,79.167 522.998,79.266 522.998,7.966 533.521,7.868 	"/>
	<polygon fill="#00516D" points="530.287,71.3 522.998,79.266 522.998,7.966 530.287,0 	"/>
	<rect x="156.611" y="0" fill="#0079A3" width="373.887" height="71.3"/>
</g>
<g>
	<path fill="#FFFFFF" d="M311.022,17.24c0.646-0.151,1.688-0.258,2.708-0.258c1.48,0,2.436,0.258,3.133,0.834
		c0.598,0.443,0.973,1.124,0.973,2.026c0,1.124-0.75,2.094-1.941,2.521v0.053c1.091,0.255,2.367,1.156,2.367,2.856
		c0,0.988-0.395,1.757-0.986,2.302c-0.784,0.729-2.077,1.07-3.95,1.07c-1.021,0-1.807-0.063-2.3-0.136L311.022,17.24L311.022,17.24z
		 M312.505,21.94h1.345c1.55,0,2.47-0.834,2.47-1.938c0-1.329-1.005-1.874-2.503-1.874c-0.682,0-1.073,0.051-1.312,0.103V21.94z
		 M312.505,27.423c0.306,0.051,0.715,0.066,1.241,0.066c1.533,0,2.945-0.562,2.945-2.229c0-1.549-1.346-2.214-2.964-2.214h-1.226
		L312.505,27.423L312.505,27.423z"/>
	<path fill="#FFFFFF" d="M321.101,24.698c0.034,2.023,1.312,2.858,2.827,2.858c1.071,0,1.735-0.187,2.282-0.426l0.271,1.073
		c-0.527,0.234-1.446,0.523-2.759,0.523c-2.538,0-4.053-1.686-4.053-4.172c0-2.483,1.464-4.427,3.864-4.427
		c2.708,0,3.406,2.35,3.406,3.865c0,0.307-0.019,0.523-0.053,0.693h-5.791v0.005h0.003L321.101,24.698L321.101,24.698z
		 M325.494,23.626c0.019-0.938-0.394-2.418-2.078-2.418c-1.53,0-2.18,1.379-2.299,2.418H325.494z"/>
	<path fill="#FFFFFF" d="M335.846,27.338c0,1.905-0.394,3.048-1.175,3.778c-0.816,0.729-1.978,0.985-3.016,0.985
		c-0.986,0-2.078-0.235-2.742-0.681l0.375-1.158c0.546,0.358,1.396,0.664,2.418,0.664c1.533,0,2.657-0.8,2.657-2.896V27.13h-0.034
		c-0.441,0.767-1.345,1.379-2.623,1.379c-2.043,0-3.508-1.737-3.508-4.021c0-2.794,1.821-4.356,3.729-4.356
		c1.431,0,2.197,0.729,2.57,1.413h0.033l0.053-1.243h1.327c-0.051,0.579-0.066,1.26-0.066,2.248L335.846,27.338L335.846,27.338z
		 M334.347,23.558c0-0.256-0.019-0.477-0.085-0.664c-0.271-0.886-0.987-1.601-2.097-1.601c-1.43,0-2.45,1.209-2.45,3.114
		c0,1.615,0.834,2.965,2.436,2.965c0.938,0,1.771-0.579,2.077-1.533c0.085-0.255,0.119-0.545,0.119-0.8V23.558z"/>
	<path fill="#FFFFFF" d="M339.879,17.99c0,0.513-0.357,0.919-0.954,0.919c-0.545,0-0.903-0.407-0.903-0.919
		c0-0.514,0.375-0.938,0.938-0.938C339.504,17.052,339.879,17.461,339.879,17.99z M338.21,28.547v-8.242h1.499v8.242H338.21z"/>
	<path fill="#FFFFFF" d="M342.194,22.535c0-0.867-0.019-1.552-0.066-2.229h1.327l0.085,1.362h0.034
		c0.408-0.771,1.36-1.532,2.727-1.532c1.142,0,2.912,0.681,2.912,3.508v4.904h-1.499v-4.751c0-1.328-0.494-2.438-1.907-2.438
		c-0.97,0-1.735,0.698-2.009,1.533c-0.068,0.188-0.104,0.442-0.104,0.698v4.956h-1.499L342.194,22.535L342.194,22.535z"/>
	<path fill="#FFFFFF" d="M355.046,27.031c0.461,0.271,1.241,0.576,1.991,0.576c1.072,0,1.582-0.523,1.582-1.226
		c0-0.715-0.426-1.09-1.517-1.499c-1.5-0.545-2.196-1.345-2.196-2.333c0-1.328,1.09-2.418,2.847-2.418
		c0.834,0,1.563,0.221,2.01,0.511l-0.357,1.09c-0.32-0.201-0.918-0.491-1.688-0.491c-0.886,0-1.36,0.513-1.36,1.124
		c0,0.683,0.479,0.985,1.55,1.411c1.414,0.528,2.162,1.243,2.162,2.474c0,1.464-1.143,2.481-3.062,2.481
		c-0.902,0-1.736-0.236-2.315-0.576L355.046,27.031z"/>
	<path fill="#FFFFFF" d="M362.826,24.698c0.035,2.023,1.312,2.858,2.828,2.858c1.071,0,1.735-0.187,2.28-0.426l0.271,1.073
		c-0.525,0.234-1.445,0.523-2.76,0.523c-2.537,0-4.055-1.686-4.055-4.172c0-2.483,1.467-4.427,3.867-4.427
		c2.707,0,3.403,2.35,3.403,3.865c0,0.307-0.019,0.523-0.051,0.693h-5.789v0.005h0.003L362.826,24.698L362.826,24.698z
		 M367.22,23.626c0.02-0.938-0.394-2.418-2.078-2.418c-1.531,0-2.18,1.379-2.299,2.418H367.22z"/>
	<path fill="#FFFFFF" d="M370.52,22.877c0-0.976-0.016-1.81-0.065-2.572h1.312l0.065,1.635h0.054
		c0.375-1.104,1.295-1.805,2.299-1.805c0.154,0,0.271,0.017,0.41,0.034v1.413c-0.153-0.034-0.31-0.034-0.515-0.034
		c-1.055,0-1.805,0.784-2.008,1.907c-0.035,0.203-0.054,0.46-0.054,0.693v4.396h-1.498V22.877L370.52,22.877L370.52,22.877z"/>
	<path fill="#FFFFFF" d="M377.093,20.305l1.616,4.615c0.271,0.766,0.492,1.445,0.662,2.128h0.054
		c0.188-0.683,0.426-1.362,0.696-2.128l1.603-4.615h1.563l-3.231,8.242h-1.435l-3.133-8.242H377.093z"/>
	<path fill="#FFFFFF" d="M386.369,17.99c0,0.513-0.354,0.919-0.953,0.919c-0.545,0-0.901-0.407-0.901-0.919
		c0-0.514,0.375-0.938,0.938-0.938C385.994,17.052,386.369,17.461,386.369,17.99z M384.701,28.547v-8.242h1.5v8.242H384.701z"/>
	<path fill="#FFFFFF" d="M388.684,22.535c0-0.867-0.02-1.552-0.065-2.229h1.328l0.086,1.362h0.033
		c0.407-0.771,1.36-1.532,2.726-1.532c1.143,0,2.911,0.681,2.911,3.508v4.904h-1.497v-4.751c0-1.328-0.492-2.438-1.906-2.438
		c-0.972,0-1.736,0.698-2.011,1.533c-0.065,0.188-0.104,0.442-0.104,0.698v4.956h-1.498v-6.014L388.684,22.535L388.684,22.535z"/>
	<path fill="#FFFFFF" d="M405.182,27.338c0,1.905-0.393,3.048-1.174,3.778c-0.817,0.729-1.979,0.985-3.016,0.985
		c-0.986,0-2.078-0.235-2.74-0.681l0.375-1.158c0.545,0.358,1.396,0.664,2.418,0.664c1.528,0,2.651-0.8,2.651-2.896V27.13h-0.032
		c-0.439,0.767-1.347,1.379-2.619,1.379c-2.047,0-3.51-1.737-3.51-4.021c0-2.794,1.818-4.356,3.729-4.356
		c1.431,0,2.197,0.729,2.569,1.413h0.034l0.053-1.243h1.326c-0.052,0.579-0.066,1.26-0.066,2.248L405.182,27.338L405.182,27.338z
		 M403.684,23.558c0-0.256-0.02-0.477-0.086-0.664c-0.271-0.886-0.987-1.601-2.094-1.601c-1.435,0-2.453,1.209-2.453,3.114
		c0,1.615,0.834,2.965,2.437,2.965c0.938,0,1.771-0.579,2.078-1.533c0.084-0.255,0.118-0.545,0.118-0.8V23.558z"/>
	<path fill="#FFFFFF" d="M419.312,28.19c-0.529,0.272-1.636,0.545-3.031,0.545c-3.231,0-5.649-2.043-5.649-5.821
		c0-3.608,2.435-6.026,5.993-6.026c1.41,0,2.331,0.306,2.726,0.511l-0.375,1.209c-0.545-0.271-1.346-0.477-2.299-0.477
		c-2.69,0-4.479,1.72-4.479,4.729c0,2.827,1.619,4.615,4.396,4.615c0.92,0,1.84-0.188,2.437-0.477L419.312,28.19z"/>
	<path fill="#FFFFFF" d="M426.804,26.571c0,0.718,0.033,1.414,0.119,1.979h-1.349l-0.118-1.039h-0.052
		c-0.461,0.646-1.347,1.226-2.521,1.226c-1.668,0-2.521-1.175-2.521-2.364c0-1.99,1.771-3.082,4.955-3.063v-0.17
		c0-0.664-0.188-1.907-1.873-1.892c-0.782,0-1.584,0.223-2.161,0.61l-0.343-1.005c0.684-0.425,1.688-0.715,2.728-0.715
		c2.521,0,3.133,1.72,3.133,3.354v3.082L426.804,26.571L426.804,26.571z M425.354,24.341c-1.635-0.034-3.489,0.255-3.489,1.854
		c0,0.988,0.646,1.436,1.396,1.436c1.09,0,1.787-0.686,2.025-1.379c0.053-0.172,0.064-0.343,0.064-0.479L425.354,24.341
		L425.354,24.341z"/>
	<path fill="#FFFFFF" d="M429.015,27.031c0.459,0.271,1.242,0.576,1.992,0.576c1.072,0,1.584-0.523,1.584-1.226
		c0-0.715-0.428-1.09-1.521-1.499c-1.498-0.545-2.192-1.345-2.192-2.333c0-1.328,1.09-2.418,2.844-2.418
		c0.834,0,1.564,0.221,2.009,0.511l-0.356,1.09c-0.32-0.201-0.918-0.491-1.687-0.491c-0.888,0-1.363,0.513-1.363,1.124
		c0,0.683,0.479,0.985,1.552,1.411c1.414,0.528,2.162,1.243,2.162,2.474c0,1.464-1.142,2.481-3.062,2.481
		c-0.901,0-1.737-0.236-2.315-0.576L429.015,27.031z"/>
	<path fill="#FFFFFF" d="M441.834,28.258c-0.395,0.188-1.262,0.477-2.366,0.477c-2.485,0-4.104-1.686-4.104-4.206
		c0-2.535,1.735-4.394,4.43-4.394c0.886,0,1.671,0.221,2.077,0.44l-0.343,1.143c-0.354-0.188-0.918-0.394-1.734-0.394
		c-1.893,0-2.911,1.411-2.911,3.113c0,1.907,1.228,3.083,2.858,3.083c0.854,0,1.414-0.205,1.842-0.392L441.834,28.258z"/>
	<path fill="#FFFFFF" d="M449.375,26.571c0,0.718,0.034,1.414,0.118,1.979h-1.347l-0.119-1.039h-0.051
		c-0.46,0.646-1.345,1.226-2.521,1.226c-1.67,0-2.521-1.175-2.521-2.364c0-1.99,1.771-3.082,4.955-3.063v-0.17
		c0-0.664-0.188-1.907-1.873-1.892c-0.782,0-1.582,0.223-2.161,0.61l-0.343-1.005c0.683-0.425,1.688-0.715,2.728-0.715
		c2.521,0,3.134,1.72,3.134,3.354v3.077L449.375,26.571L449.375,26.571z M447.929,24.341c-1.636-0.034-3.489,0.255-3.489,1.854
		c0,0.988,0.646,1.436,1.396,1.436c1.092,0,1.787-0.686,2.024-1.379c0.051-0.172,0.067-0.343,0.067-0.479L447.929,24.341
		L447.929,24.341z"/>
	<path fill="#FFFFFF" d="M458.893,16.457v9.962c0,0.729,0.033,1.562,0.068,2.128h-1.328l-0.067-1.433h-0.052
		c-0.442,0.92-1.434,1.615-2.776,1.615c-1.989,0-3.541-1.686-3.541-4.188c-0.019-2.741,1.703-4.41,3.694-4.41
		c1.277,0,2.111,0.596,2.486,1.243h0.031v-4.921L458.893,16.457L458.893,16.457z M457.413,23.659c0-0.188-0.02-0.441-0.066-0.633
		c-0.222-0.937-1.039-1.72-2.164-1.72c-1.549,0-2.469,1.362-2.469,3.167c0,1.669,0.834,3.048,2.437,3.048
		c1.004,0,1.924-0.682,2.196-1.788c0.052-0.202,0.066-0.406,0.066-0.646V23.659z"/>
	<path fill="#FFFFFF" d="M462.227,24.698c0.035,2.023,1.312,2.858,2.828,2.858c1.072,0,1.736-0.187,2.281-0.426l0.271,1.073
		c-0.526,0.234-1.444,0.523-2.759,0.523c-2.536,0-4.053-1.686-4.053-4.172c0-2.483,1.465-4.427,3.862-4.427
		c2.71,0,3.406,2.35,3.406,3.865c0,0.307-0.019,0.523-0.052,0.693h-5.789L462.227,24.698L462.227,24.698z M466.622,23.626
		c0.018-0.938-0.394-2.418-2.076-2.418c-1.533,0-2.185,1.379-2.302,2.418H466.622z"/>
	<path fill="#FFFFFF" d="M473.584,28.547V17.07h1.635l3.662,5.812c0.834,1.345,1.514,2.554,2.043,3.729l0.051-0.017
		c-0.137-1.532-0.17-2.931-0.17-4.717V17.07h1.396v11.479h-1.498l-3.646-5.824c-0.799-1.274-1.565-2.588-2.127-3.832l-0.051,0.02
		c0.084,1.444,0.102,2.824,0.102,4.731v4.904L473.584,28.547L473.584,28.547z"/>
	<path fill="#FFFFFF" d="M490.521,26.571c0,0.718,0.034,1.414,0.118,1.979h-1.343l-0.119-1.039h-0.051
		c-0.462,0.646-1.349,1.226-2.521,1.226c-1.671,0-2.521-1.175-2.521-2.364c0-1.99,1.771-3.082,4.954-3.063v-0.17
		c0-0.664-0.188-1.907-1.872-1.892c-0.783,0-1.584,0.223-2.164,0.61l-0.341-1.005c0.681-0.425,1.687-0.715,2.726-0.715
		c2.521,0,3.134,1.72,3.134,3.354L490.521,26.571L490.521,26.571z M489.074,24.341c-1.635-0.034-3.487,0.255-3.487,1.854
		c0,0.988,0.646,1.436,1.396,1.436c1.09,0,1.786-0.686,2.024-1.379c0.051-0.172,0.065-0.343,0.065-0.479L489.074,24.341
		L489.074,24.341z"/>
	<path fill="#FFFFFF" d="M494.677,18.331v1.975h2.146v1.144h-2.146v4.442c0,1.021,0.289,1.604,1.123,1.604
		c0.409,0,0.646-0.032,0.868-0.104l0.066,1.144c-0.289,0.104-0.75,0.202-1.328,0.202c-0.695,0-1.26-0.235-1.615-0.63
		c-0.409-0.459-0.579-1.188-0.579-2.163V21.45h-1.277v-1.145h1.277v-1.532L494.677,18.331z"/>
	<path fill="#FFFFFF" d="M505.4,26.281c0,0.865,0.021,1.615,0.067,2.267h-1.328l-0.084-1.347h-0.034
		c-0.375,0.664-1.261,1.53-2.726,1.53c-1.293,0-2.846-0.729-2.846-3.605v-4.82h1.5v4.547c0,1.567,0.491,2.643,1.839,2.643
		c1.005,0,1.702-0.696,1.976-1.379c0.086-0.205,0.138-0.479,0.138-0.769v-5.043h1.498V26.281L505.4,26.281z"/>
	<path fill="#FFFFFF" d="M507.886,22.877c0-0.976-0.018-1.81-0.067-2.572h1.312l0.065,1.635h0.053
		c0.375-1.104,1.296-1.805,2.3-1.805c0.151,0,0.271,0.017,0.409,0.034v1.413c-0.153-0.034-0.311-0.034-0.514-0.034
		c-1.058,0-1.806,0.784-2.011,1.907c-0.034,0.203-0.051,0.46-0.051,0.693v4.396h-1.5L507.886,22.877L507.886,22.877z"/>
	<path fill="#FFFFFF" d="M519.156,26.571c0,0.718,0.033,1.414,0.119,1.979h-1.347l-0.119-1.039h-0.051
		c-0.459,0.646-1.346,1.226-2.521,1.226c-1.668,0-2.521-1.175-2.521-2.364c0-1.99,1.771-3.082,4.955-3.063v-0.17
		c0-0.664-0.188-1.907-1.873-1.892c-0.783,0-1.582,0.223-2.162,0.61l-0.342-1.005c0.683-0.425,1.687-0.715,2.726-0.715
		c2.521,0,3.133,1.72,3.133,3.354v3.082L519.156,26.571L519.156,26.571z M517.709,24.341c-1.639-0.034-3.491,0.255-3.491,1.854
		c0,0.988,0.646,1.436,1.396,1.436c1.09,0,1.787-0.686,2.024-1.379c0.052-0.172,0.066-0.343,0.066-0.479v-1.43L517.709,24.341
		L517.709,24.341z"/>
	<path fill="#FFFFFF" d="M521.572,16.457h1.498v12.09h-1.498V16.457z"/>
	<path fill="#FFFFFF" d="M319.775,48.465c-0.664,0.255-1.992,0.63-3.542,0.63c-1.737,0-3.167-0.443-4.291-1.518
		c-0.987-0.952-1.602-2.484-1.602-4.272c0-3.423,2.367-5.926,6.215-5.926c1.328,0,2.385,0.29,2.878,0.526l-0.375,1.209
		c-0.611-0.29-1.379-0.492-2.537-0.492c-2.793,0-4.615,1.732-4.615,4.61c0,2.912,1.736,4.635,4.43,4.635
		c0.971,0,1.636-0.139,1.977-0.31v-3.422h-2.315v-1.192h3.779L319.775,48.465L319.775,48.465z"/>
	<path fill="#FFFFFF" d="M327.895,47c0,0.715,0.034,1.414,0.12,1.976h-1.346l-0.119-1.039h-0.053
		c-0.46,0.647-1.346,1.229-2.521,1.229c-1.669,0-2.521-1.178-2.521-2.365c0-1.992,1.771-3.082,4.956-3.065v-0.17
		c0-0.664-0.188-1.904-1.874-1.89c-0.78,0-1.582,0.221-2.16,0.611l-0.344-1.008c0.684-0.425,1.688-0.715,2.728-0.715
		c2.521,0,3.133,1.723,3.133,3.354L327.895,47L327.895,47z M326.448,44.77c-1.636-0.034-3.491,0.255-3.491,1.856
		c0,0.983,0.646,1.431,1.396,1.431c1.092,0,1.788-0.681,2.027-1.379c0.051-0.17,0.066-0.341,0.066-0.479L326.448,44.77
		L326.448,44.77z"/>
	<path fill="#FFFFFF" d="M330.105,47.46c0.46,0.271,1.242,0.579,1.992,0.579c1.073,0,1.583-0.528,1.583-1.229
		c0-0.715-0.426-1.09-1.516-1.499c-1.499-0.545-2.197-1.345-2.197-2.333c0-1.328,1.09-2.418,2.845-2.418
		c0.834,0,1.566,0.224,2.011,0.514l-0.356,1.092c-0.322-0.204-0.919-0.494-1.688-0.494c-0.888,0-1.36,0.511-1.36,1.124
		c0,0.681,0.478,0.986,1.549,1.414c1.414,0.523,2.163,1.241,2.163,2.469c0,1.464-1.143,2.484-3.064,2.484
		c-0.901,0-1.736-0.237-2.313-0.577L330.105,47.46z"/>
	<path fill="#FFFFFF" d="M346.536,48.686c-0.394,0.188-1.261,0.479-2.365,0.479c-2.486,0-4.104-1.688-4.104-4.204
		c0-2.538,1.736-4.396,4.429-4.396c0.887,0,1.668,0.224,2.078,0.442l-0.342,1.141c-0.356-0.187-0.92-0.392-1.736-0.392
		c-1.891,0-2.911,1.414-2.911,3.114c0,1.904,1.227,3.083,2.859,3.083c0.854,0,1.414-0.203,1.84-0.395L346.536,48.686z"/>
	<path fill="#FFFFFF" d="M355.184,46.711c0,0.866,0.019,1.616,0.066,2.265h-1.328l-0.085-1.345h-0.034
		c-0.375,0.664-1.26,1.533-2.727,1.533c-1.294,0-2.845-0.732-2.845-3.61v-4.819h1.499v4.55c0,1.564,0.493,2.642,1.84,2.642
		c1.004,0,1.702-0.698,1.977-1.379c0.085-0.205,0.136-0.479,0.136-0.771v-5.041h1.499v5.979L355.184,46.711L355.184,46.711z"/>
	<path fill="#FFFFFF" d="M357.464,47.46c0.461,0.271,1.241,0.579,1.991,0.579c1.072,0,1.582-0.528,1.582-1.229
		c0-0.715-0.426-1.09-1.516-1.499c-1.498-0.545-2.197-1.345-2.197-2.333c0-1.328,1.092-2.418,2.847-2.418
		c0.834,0,1.565,0.224,2.01,0.514l-0.355,1.092c-0.322-0.204-0.92-0.494-1.688-0.494c-0.888,0-1.361,0.511-1.361,1.124
		c0,0.681,0.479,0.986,1.549,1.414c1.414,0.523,2.164,1.241,2.164,2.469c0,1.464-1.143,2.484-3.062,2.484
		c-0.901,0-1.737-0.237-2.315-0.577L357.464,47.46z"/>
	<path fill="#FFFFFF" d="M366.216,38.758v1.975h2.146v1.146h-2.146v4.44c0,1.021,0.289,1.604,1.123,1.604
		c0.407,0,0.646-0.034,0.866-0.104l0.068,1.146c-0.289,0.102-0.748,0.203-1.328,0.203c-0.696,0-1.261-0.237-1.617-0.63
		c-0.408-0.459-0.579-1.19-0.579-2.163V41.88h-1.275v-1.146h1.275V39.2L366.216,38.758z"/>
	<path fill="#FFFFFF" d="M377.4,44.786c0,3.05-2.129,4.376-4.104,4.376c-2.217,0-3.951-1.638-3.951-4.238
		c0-2.742,1.82-4.359,4.086-4.359C375.8,40.564,377.4,42.282,377.4,44.786z M370.88,44.873c0,1.805,1.021,3.167,2.483,3.167
		c1.432,0,2.502-1.35,2.502-3.202c0-1.396-0.695-3.15-2.469-3.15C371.645,41.688,370.88,43.323,370.88,44.873z"/>
	<path fill="#FFFFFF" d="M379.287,42.965c0-0.869-0.03-1.549-0.065-2.231h1.312l0.067,1.351h0.052
		c0.461-0.784,1.229-1.521,2.604-1.521c1.104,0,1.957,0.684,2.312,1.652h0.033c0.258-0.479,0.598-0.817,0.938-1.073
		c0.492-0.375,1.021-0.579,1.807-0.579c1.104,0,2.726,0.715,2.726,3.576v4.836h-1.463v-4.646c0-1.604-0.599-2.535-1.789-2.535
		c-0.867,0-1.517,0.63-1.787,1.345c-0.065,0.221-0.117,0.479-0.117,0.749v5.092h-1.467V44.04c0-1.312-0.577-2.247-1.721-2.247
		c-0.921,0-1.617,0.749-1.854,1.499c-0.085,0.202-0.118,0.477-0.118,0.729v4.956h-1.464v-6.013L379.287,42.965L379.287,42.965z"/>
	<path fill="#FFFFFF" d="M394.32,45.127c0.032,2.021,1.312,2.856,2.826,2.856c1.073,0,1.737-0.187,2.282-0.426l0.271,1.073
		c-0.524,0.239-1.444,0.526-2.758,0.526c-2.539,0-4.054-1.688-4.054-4.175c0-2.481,1.463-4.427,3.865-4.427
		c2.709,0,3.403,2.354,3.403,3.865c0,0.307-0.019,0.528-0.051,0.698h-5.789L394.32,45.127L394.32,45.127z M398.714,44.054
		c0.019-0.938-0.396-2.418-2.076-2.418c-1.532,0-2.182,1.379-2.299,2.418H398.714z"/>
	<path fill="#FFFFFF" d="M402.015,43.305c0-0.971-0.018-1.805-0.067-2.572h1.312l0.065,1.638h0.054
		c0.375-1.104,1.295-1.808,2.299-1.808c0.152,0,0.271,0.021,0.41,0.034v1.413c-0.154-0.034-0.312-0.034-0.515-0.034
		c-1.058,0-1.806,0.784-2.01,1.907c-0.035,0.205-0.052,0.46-0.052,0.698v4.394h-1.5L402.015,43.305L402.015,43.305z"/>
	<path fill="#FFFFFF" d="M407.378,47.46c0.461,0.271,1.242,0.579,1.992,0.579c1.071,0,1.582-0.528,1.582-1.229
		c0-0.715-0.427-1.09-1.518-1.499c-1.5-0.545-2.196-1.345-2.196-2.333c0-1.328,1.091-2.418,2.847-2.418
		c0.834,0,1.563,0.224,2.01,0.514l-0.356,1.092c-0.32-0.204-0.92-0.494-1.687-0.494c-0.889,0-1.362,0.511-1.362,1.124
		c0,0.681,0.479,0.986,1.549,1.414c1.414,0.523,2.164,1.241,2.164,2.469c0,1.464-1.142,2.484-3.062,2.484
		c-0.902,0-1.738-0.237-2.315-0.577L407.378,47.46z"/>
	<path fill="#FFFFFF" d="M419.6,38.418c0,0.511-0.356,0.919-0.952,0.919c-0.546,0-0.904-0.409-0.904-0.919
		c0-0.513,0.375-0.938,0.938-0.938C419.225,37.481,419.6,37.89,419.6,38.418z M417.932,48.976v-8.242h1.498v8.242H417.932z"/>
	<path fill="#FFFFFF" d="M421.916,42.965c0-0.869-0.02-1.549-0.066-2.231h1.328l0.086,1.362h0.033
		c0.408-0.766,1.358-1.532,2.725-1.532c1.146,0,2.912,0.684,2.912,3.511v4.901h-1.498v-4.751c0-1.328-0.493-2.435-1.907-2.435
		c-0.972,0-1.733,0.693-2.009,1.528c-0.066,0.188-0.102,0.442-0.102,0.698v4.956h-1.5L421.916,42.965L421.916,42.965z"/>
	<path fill="#FFFFFF" d="M444.834,43.117c0,3.936-2.402,6.045-5.33,6.045c-3.051,0-5.16-2.365-5.16-5.844
		c0-3.645,2.248-6.023,5.312-6.023C442.806,37.294,444.834,39.695,444.834,43.117z M435.91,43.287c0,2.471,1.326,4.666,3.681,4.666
		c2.351,0,3.679-2.161,3.679-4.771c0-2.299-1.193-4.683-3.662-4.683C437.138,38.499,435.91,40.784,435.91,43.287z"/>
	<path fill="#FFFFFF" d="M446.701,43.305c0-0.971-0.019-1.805-0.065-2.572h1.312l0.067,1.638h0.052
		c0.375-1.104,1.293-1.808,2.299-1.808c0.151,0,0.271,0.021,0.408,0.034v1.413c-0.151-0.034-0.308-0.034-0.511-0.034
		c-1.059,0-1.807,0.784-2.01,1.907c-0.033,0.205-0.054,0.46-0.054,0.698v4.394h-1.497v-5.67H446.701z"/>
	<path fill="#FFFFFF" d="M452.932,45.127c0.035,2.021,1.312,2.856,2.828,2.856c1.07,0,1.734-0.187,2.281-0.426l0.271,1.073
		c-0.526,0.239-1.447,0.526-2.759,0.526c-2.537,0-4.054-1.688-4.054-4.175c0-2.481,1.466-4.427,3.865-4.427
		c2.707,0,3.404,2.354,3.404,3.865c0,0.307-0.017,0.528-0.052,0.698h-5.789L452.932,45.127L452.932,45.127z M457.326,44.054
		c0.021-0.938-0.394-2.418-2.073-2.418c-1.533,0-2.185,1.379-2.304,2.418H457.326z"/>
	<path fill="#FFFFFF" d="M467.679,47.767c0,1.907-0.396,3.048-1.176,3.78c-0.815,0.729-1.979,0.986-3.017,0.986
		c-0.986,0-2.078-0.236-2.741-0.684l0.375-1.158c0.546,0.358,1.396,0.664,2.418,0.664c1.53,0,2.655-0.8,2.655-2.895V47.56h-0.031
		c-0.441,0.77-1.347,1.379-2.623,1.379c-2.043,0-3.509-1.734-3.509-4.019c0-2.793,1.821-4.359,3.729-4.359
		c1.431,0,2.195,0.732,2.57,1.413h0.032l0.054-1.243h1.328c-0.054,0.579-0.066,1.263-0.066,2.248L467.679,47.767L467.679,47.767z
		 M466.181,43.987c0-0.256-0.02-0.477-0.086-0.661c-0.271-0.889-0.987-1.604-2.095-1.604c-1.434,0-2.452,1.209-2.452,3.116
		c0,1.618,0.834,2.963,2.437,2.963c0.938,0,1.771-0.579,2.078-1.533c0.084-0.255,0.118-0.545,0.118-0.8V43.987z"/>
	<path fill="#FFFFFF" d="M477.602,44.786c0,3.05-2.127,4.376-4.104,4.376c-2.214,0-3.949-1.638-3.949-4.238
		c0-2.742,1.82-4.359,4.088-4.359C476.003,40.564,477.602,42.282,477.602,44.786z M471.082,44.873c0,1.805,1.021,3.167,2.484,3.167
		c1.431,0,2.502-1.35,2.502-3.202c0-1.396-0.696-3.15-2.47-3.15C471.847,41.688,471.082,43.323,471.082,44.873z"/>
	<path fill="#FFFFFF" d="M479.49,42.965c0-0.869-0.019-1.549-0.065-2.231h1.33l0.084,1.362h0.034
		c0.406-0.766,1.359-1.532,2.726-1.532c1.142,0,2.912,0.684,2.912,3.511v4.901h-1.5v-4.751c0-1.328-0.494-2.435-1.905-2.435
		c-0.972,0-1.738,0.693-2.011,1.528c-0.067,0.188-0.104,0.442-0.104,0.698v4.956h-1.5L479.49,42.965L479.49,42.965z"/>
	<path fill="#FFFFFF" d="M488.582,48.09c0-0.613,0.427-1.073,1.021-1.073c0.594,0,1.004,0.443,1.004,1.073
		c0,0.611-0.408,1.071-1.039,1.071C488.988,49.162,488.582,48.702,488.582,48.09z"/>
</g>
<g>
	<path fill="#FFFFFF" d="M183.285,9.092l-21.94,37.593l43.77-0.026L183.285,9.092z M186.365,42.64
		c1.035-1.395,0.804-3.95,0.536-4.419c-0.733-1.284-1.397-2.114-2.812-2.544c2.041,2.032,0.201,6.83-2.812,6.83
		c-2.009,0-2.994-1.308-3.616-2.275c-3.482-5.424,3.081-17.812,6.831-23.706c-0.354,2.383-0.257,3.846,0.401,6.161
		c0.575,2.022,1.229,3.083,2.41,4.822C192.994,35.878,189.914,40.9,186.365,42.64z"/>
	<path fill="#FFFFFF" d="M287.383,42.706l0.733,1.277h0.481v-1.277h-0.449v0.577h-0.006l-0.331-0.577H287.383L287.383,42.706
		L287.383,42.706z M286.718,42.706v1.277h0.449v-1.277H286.718L286.718,42.706L286.718,42.706z M278.188,42.706
		c-0.003,0.039-0.003,0.081-0.003,0.124c0,1.082,0.802,1.214,1.108,1.214c0.305,0,1.108-0.132,1.108-1.214
		c0-0.043-0.001-0.085-0.003-0.126l-0.483,0.002c0.003,0.038,0.005,0.08,0.005,0.124c0,0.645-0.366,0.806-0.626,0.806
		c-0.26,0-0.626-0.161-0.626-0.806c0-0.044,0.001-0.086,0.004-0.126L278.188,42.706L278.188,42.706L278.188,42.706z M271.402,42.706
		v1.277h0.482v-1.277H271.402L271.402,42.706L271.402,42.706z M264.021,42.706v1.277h0.481v-1.277H264.021L264.021,42.706
		L264.021,42.706z M255.763,42.706l-0.455,1.277h0.507l0.161-0.476h0.851l0.148,0.476h0.523l-0.451-1.277h-0.482l0.127,0.402h-0.589
		l0.131-0.402H255.763L255.763,42.706L255.763,42.706z M247.214,42.706v1.277h0.472v-0.902h0.498c0.356,0,0.375,0.121,0.375,0.437
		c0,0.238,0.021,0.357,0.052,0.467h0.533v-0.062c-0.102-0.039-0.102-0.122-0.102-0.46c0-0.432-0.103-0.502-0.292-0.585
		c0.1-0.033,0.181-0.094,0.24-0.174L247.214,42.706L247.214,42.706L247.214,42.706z M238.66,42.706
		c-0.002,0.039-0.003,0.081-0.003,0.124c0,1.082,0.803,1.214,1.109,1.214c0.304,0,1.108-0.132,1.108-1.214
		c0-0.043-0.001-0.085-0.004-0.126l-0.483,0.002c0.003,0.038,0.005,0.08,0.005,0.124c0,0.645-0.366,0.806-0.626,0.806
		c-0.26,0-0.626-0.161-0.626-0.806c0-0.044,0.002-0.086,0.004-0.126L238.66,42.706L238.66,42.706L238.66,42.706z M230.662,42.706
		v1.277h0.482V43.15h0.552c0.411,0,0.601-0.229,0.681-0.446l-0.566,0.003c-0.053,0.027-0.123,0.047-0.22,0.047h-0.447v-0.047
		H230.662L230.662,42.706L230.662,42.706z M222.388,42.706v1.277h0.473v-0.902h0.498c0.356,0,0.376,0.121,0.376,0.437
		c0,0.238,0.019,0.357,0.051,0.467h0.533v-0.062c-0.103-0.039-0.103-0.122-0.103-0.46c0-0.432-0.103-0.502-0.292-0.585
		c0.1-0.033,0.181-0.094,0.24-0.174L222.388,42.706L222.388,42.706L222.388,42.706z M213.835,42.706
		c-0.002,0.039-0.004,0.081-0.004,0.124c0,1.082,0.803,1.214,1.109,1.214c0.305,0,1.108-0.132,1.108-1.214
		c0-0.043-0.001-0.085-0.004-0.126l-0.483,0.002c0.003,0.038,0.005,0.08,0.005,0.124c0,0.645-0.366,0.806-0.626,0.806
		c-0.261,0-0.627-0.161-0.627-0.806c0-0.044,0.001-0.086,0.005-0.126L213.835,42.706L213.835,42.706L213.835,42.706z
		 M205.562,42.706c-0.003,0.039-0.004,0.082-0.004,0.127c0,0.797,0.44,1.211,1.054,1.211c0.578,0,0.906-0.352,1.002-0.852h-0.481
		c-0.058,0.281-0.244,0.435-0.511,0.435c-0.408,0-0.572-0.373-0.572-0.787c0-0.048,0.001-0.094,0.005-0.136L205.562,42.706
		L205.562,42.706L205.562,42.706z"/>
	<path fill="#FFFFFF" d="M247.686,42.693v-0.616h0.602c0.282,0,0.336,0.181,0.336,0.302c0,0.229-0.122,0.314-0.372,0.314H247.686
		L247.686,42.693L247.686,42.693z M222.86,42.693v-0.616h0.601c0.283,0,0.337,0.181,0.337,0.302c0,0.229-0.123,0.314-0.373,0.314
		H222.86L222.86,42.693L222.86,42.693z M288.597,42.706v-1.029h-0.449v1.029H288.597L288.597,42.706L288.597,42.706z
		 M287.167,42.706v-0.368h0.007l0.209,0.368h0.428l-0.585-1.029h-0.508v1.029H287.167L287.167,42.706L287.167,42.706z
		 M278.671,42.706c0.044-0.543,0.38-0.683,0.622-0.683s0.576,0.14,0.621,0.681l0.483,0.002c-0.06-0.969-0.811-1.091-1.104-1.091
		s-1.045,0.122-1.105,1.089L278.671,42.706L278.671,42.706L278.671,42.706z M271.884,42.706v-1.029h-0.482v1.029H271.884
		L271.884,42.706L271.884,42.706z M264.503,42.706v-0.621h0.697v-0.408h-1.875v0.408h0.697v0.621H264.503L264.503,42.706
		L264.503,42.706z M256.235,42.706l0.165-0.509h0.006l0.159,0.509h0.482l-0.363-1.029h-0.555l-0.367,1.029H256.235L256.235,42.706
		L256.235,42.706z M248.989,42.706c0.076-0.104,0.116-0.235,0.116-0.377c0-0.198-0.113-0.652-0.725-0.652h-1.167v1.029H248.989
		L248.989,42.706L248.989,42.706z M239.144,42.706c0.045-0.543,0.379-0.683,0.622-0.683c0.242,0,0.576,0.14,0.621,0.681l0.483,0.002
		c-0.06-0.969-0.811-1.091-1.104-1.091s-1.045,0.122-1.105,1.089L239.144,42.706L239.144,42.706L239.144,42.706z M231.144,42.706
		v-0.631h0.382c0.299,0,0.425,0.094,0.425,0.316c0,0.075,0,0.233-0.14,0.312l0.566,0.002c0.042-0.113,0.055-0.222,0.055-0.29
		c0-0.453-0.27-0.739-0.716-0.739h-1.054v1.029H231.144L231.144,42.706L231.144,42.706z M224.164,42.706
		c0.076-0.104,0.117-0.235,0.117-0.377c0-0.198-0.112-0.652-0.726-0.652h-1.167v1.029H224.164L224.164,42.706L224.164,42.706z
		 M214.318,42.706c0.044-0.543,0.379-0.683,0.622-0.683c0.242,0,0.576,0.14,0.621,0.681l0.483,0.002
		c-0.06-0.969-0.812-1.091-1.104-1.091c-0.293,0-1.046,0.122-1.105,1.089L214.318,42.706L214.318,42.706L214.318,42.706z
		 M206.055,42.706c0.044-0.541,0.352-0.673,0.566-0.673c0.398,0,0.473,0.261,0.511,0.397h0.481c-0.025-0.34-0.305-0.815-0.995-0.815
		c-0.562,0-1.009,0.367-1.056,1.089L206.055,42.706L206.055,42.706L206.055,42.706z"/>
	<polygon fill="#FFFFFF" points="288.817,37.953 288.817,38.89 202.972,38.89 202.302,37.953 288.817,37.953 	"/>
	<path fill="#FFFFFF" d="M293.008,39.406v-0.994h0.235c0.521,0,0.799,0.166,0.799,0.477c0,0.339-0.272,0.519-0.782,0.519
		L293.008,39.406L293.008,39.406L293.008,39.406z M293.536,39.653c0.548-0.042,0.895-0.334,0.895-0.765
		c0-0.248-0.156-0.484-0.394-0.613c-0.203-0.105-0.449-0.147-0.852-0.147h-0.575v2.761h0.398v-1.209h0.102l1.071,1.209h0.482
		L293.536,39.653L293.536,39.653L293.536,39.653z"/>
	<g>
		<path fill="#FFFFFF" d="M293.515,41.965c-1.36,0-2.468-1.106-2.468-2.467s1.107-2.467,2.468-2.467
			c1.361,0,2.467,1.106,2.467,2.467C295.981,40.859,294.875,41.965,293.515,41.965z M293.515,37.144
			c-1.297,0-2.354,1.057-2.354,2.354c0,1.297,1.058,2.354,2.354,2.354c1.298,0,2.353-1.057,2.353-2.354
			C295.867,38.2,294.812,37.144,293.515,37.144z"/>
	</g>
	<path fill="#FFFFFF" d="M234.751,48.415h0.67l-0.061-1.204h-0.007L234.751,48.415L234.751,48.415z M235.234,46.859h0.412
		l0.137,2.493h-0.321l-0.032-0.686h-0.796l-0.331,0.686h-0.321L235.234,46.859L235.234,46.859z"/>
	<path fill="#FFFFFF" d="M238.25,47.504c0.057-0.262,0.001-0.442-0.293-0.442c-0.258,0-0.441,0.14-0.499,0.404
		c-0.149,0.701,1.117,0.282,0.922,1.194c-0.124,0.574-0.581,0.738-0.935,0.738c-0.583,0-0.689-0.3-0.576-0.83h0.307
		c-0.06,0.279-0.106,0.579,0.344,0.579c0.244,0,0.47-0.175,0.528-0.439c0.15-0.704-1.114-0.296-0.918-1.212
		c0.049-0.229,0.244-0.688,0.877-0.688c0.475,0,0.64,0.236,0.55,0.694L238.25,47.504L238.25,47.504z"/>
	<path fill="#FFFFFF" d="M239.766,49.352h-0.279l0.047-0.221h-0.006c-0.114,0.172-0.331,0.269-0.512,0.269
		c-0.493,0-0.413-0.373-0.366-0.593l0.284-1.327h0.293l-0.277,1.292c-0.03,0.145-0.07,0.377,0.195,0.377
		c0.158,0,0.393-0.104,0.451-0.377l0.276-1.292h0.293L239.766,49.352L239.766,49.352z"/>
	<path fill="#FFFFFF" d="M240.847,49.149c0.273,0,0.408-0.308,0.5-0.732c0.096-0.446,0.087-0.732-0.186-0.732
		c-0.314,0-0.456,0.37-0.534,0.732C240.545,48.8,240.533,49.149,240.847,49.149L240.847,49.149z M240.685,46.859h0.293l-0.179,0.834
		h0.006c0.101-0.159,0.301-0.261,0.489-0.261c0.507,0,0.442,0.593,0.359,0.983c-0.112,0.527-0.388,0.983-0.822,0.983
		c-0.202,0-0.336-0.139-0.345-0.277h-0.007l-0.05,0.229h-0.279L240.685,46.859L240.685,46.859z"/>
	<path fill="#FFFFFF" d="M242.855,48.029c0.05-0.237,0.016-0.366-0.198-0.366c-0.095,0-0.309,0.023-0.365,0.286
		c-0.046,0.22,0.174,0.262,0.389,0.339c0.21,0.075,0.423,0.156,0.344,0.526c-0.084,0.396-0.38,0.586-0.729,0.586
		c-0.635,0-0.542-0.471-0.5-0.663h0.293c-0.048,0.229-0.03,0.435,0.257,0.435c0.094,0,0.32-0.046,0.377-0.312
		c0.054-0.252-0.165-0.305-0.376-0.381c-0.211-0.076-0.43-0.144-0.347-0.53c0.074-0.35,0.382-0.517,0.708-0.517
		c0.544,0,0.485,0.376,0.44,0.597H242.855L242.855,48.029z"/>
	<path fill="#FFFFFF" d="M243.741,46.859h0.293l-0.071,0.335h-0.293L243.741,46.859L243.741,46.859z M243.608,47.48h0.293
		l-0.4,1.872h-0.293L243.608,47.48L243.608,47.48z"/>
	<path fill="#FFFFFF" d="M244.527,49.149c0.324,0,0.442-0.308,0.534-0.732c0.078-0.362,0.094-0.732-0.221-0.732
		c-0.272,0-0.403,0.286-0.499,0.732C244.246,48.863,244.254,49.149,244.527,49.149L244.527,49.149z M245.136,49.352h-0.279
		l0.049-0.229h-0.007c-0.069,0.14-0.263,0.277-0.465,0.277c-0.442,0-0.526-0.394-0.4-0.983c0.083-0.392,0.274-0.983,0.801-0.983
		c0.167,0,0.323,0.102,0.356,0.261h0.006l0.18-0.834h0.292L245.136,49.352L245.136,49.352z"/>
	<path fill="#FFFFFF" d="M246.071,46.859h0.293l-0.071,0.335H246L246.071,46.859L246.071,46.859z M245.938,47.48h0.294l-0.4,1.872
		h-0.293L245.938,47.48L245.938,47.48z"/>
	<path fill="#FFFFFF" d="M247.312,48.332c-0.133,0.115-0.397,0.139-0.547,0.22c-0.105,0.06-0.172,0.133-0.207,0.297
		c-0.04,0.188-0.002,0.321,0.197,0.321c0.192,0,0.412-0.164,0.453-0.356L247.312,48.332L247.312,48.332z M246.469,48.045
		c0.09-0.426,0.312-0.613,0.759-0.613c0.569,0,0.496,0.342,0.454,0.537l-0.223,1.043c-0.017,0.078-0.032,0.15,0.059,0.15
		c0.038,0,0.058-0.006,0.074-0.018l-0.045,0.21c-0.022,0.002-0.102,0.018-0.175,0.018c-0.112,0-0.251,0-0.214-0.241h-0.008
		c-0.129,0.168-0.333,0.269-0.507,0.269c-0.349,0-0.465-0.209-0.394-0.544c0.056-0.262,0.207-0.442,0.463-0.517l0.42-0.119
		c0.228-0.066,0.24-0.126,0.274-0.283c0.038-0.174-0.045-0.274-0.241-0.274c-0.321,0-0.385,0.301-0.4,0.366l-0.003,0.018
		L246.469,48.045L246.469,48.045z"/>
	<path fill="#FFFFFF" d="M248.186,47.48h0.294l-0.061,0.279h0.007c0.122-0.177,0.266-0.327,0.476-0.327
		c0.059,0,0.099,0.006,0.125,0.021l-0.061,0.284c-0.027-0.003-0.061-0.014-0.154-0.014c-0.147,0-0.413,0.134-0.48,0.443
		l-0.252,1.185h-0.293L248.186,47.48L248.186,47.48z"/>
	<path fill="#FFFFFF" d="M249.125,47.48h0.321l0.049,1.502h0.007l0.649-1.502h0.32l-0.968,1.997
		c-0.124,0.259-0.25,0.489-0.604,0.489c-0.115,0-0.162-0.007-0.211-0.011l0.05-0.23c0.041,0.007,0.096,0.011,0.169,0.011
		c0.135,0,0.212-0.079,0.269-0.182l0.091-0.164L249.125,47.48L249.125,47.48z"/>
	<path fill="#FFFFFF" d="M252.289,48.415c0.086-0.404,0.102-0.754-0.214-0.754c-0.295,0-0.435,0.35-0.52,0.754
		c-0.087,0.404-0.102,0.755,0.199,0.755C252.064,49.17,252.202,48.821,252.289,48.415L252.289,48.415z M252.132,47.432
		c0.542,0,0.576,0.456,0.463,0.983c-0.112,0.527-0.346,0.983-0.884,0.983c-0.542,0-0.577-0.456-0.463-0.983
		C251.36,47.888,251.595,47.432,252.132,47.432L252.132,47.432z"/>
	<path fill="#FFFFFF" d="M253.127,47.711h-0.273l0.05-0.231h0.272l0.047-0.22c0.061-0.283,0.214-0.43,0.498-0.43h0.212l-0.054,0.252
		h-0.136c-0.126,0-0.199,0.048-0.227,0.178l-0.047,0.22h0.321l-0.049,0.231h-0.322l-0.352,1.641h-0.292L253.127,47.711
		L253.127,47.711z"/>
	<polygon fill="#FFFFFF" points="254.983,46.859 255.5,46.859 255.577,48.835 255.584,48.835 256.506,46.859 257.022,46.859 
		256.489,49.352 256.182,49.352 256.648,47.172 256.641,47.172 255.624,49.352 255.316,49.352 255.23,47.172 255.224,47.172 
		254.758,49.352 254.45,49.352 	"/>
	<path fill="#FFFFFF" d="M257.294,49.1h0.322c0.531,0,0.707-0.545,0.802-0.991c0.103-0.48,0.181-0.999-0.377-0.999h-0.321
		L257.294,49.1L257.294,49.1z M257.467,46.859h0.667c0.776,0,0.754,0.56,0.607,1.246c-0.135,0.628-0.424,1.247-1.108,1.247h-0.699
		L257.467,46.859L257.467,46.859z"/>
	<path fill="#FFFFFF" d="M259.351,46.859h0.308l-0.375,1.753c-0.079,0.366,0.003,0.537,0.308,0.537c0.327,0,0.465-0.188,0.541-0.537
		l0.375-1.753h0.307l-0.375,1.753c-0.102,0.479-0.413,0.788-0.902,0.788c-0.499,0-0.671-0.274-0.562-0.788L259.351,46.859
		L259.351,46.859z"/>
	<path fill="#FFFFFF" d="M262.095,47.99h0.305c0.181,0,0.513,0,0.615-0.481c0.052-0.245-0.079-0.398-0.364-0.398h-0.367
		L262.095,47.99L262.095,47.99z M262.03,46.859h0.807c0.392,0,0.59,0.229,0.506,0.625c-0.06,0.272-0.214,0.559-0.519,0.628
		l-0.002,0.009c0.212,0.023,0.295,0.202,0.265,0.416l-0.07,0.425c-0.045,0.274-0.015,0.346,0.049,0.392h-0.37
		c-0.042-0.053-0.026-0.236-0.007-0.359l0.062-0.389c0.049-0.342-0.135-0.362-0.292-0.362h-0.415l-0.237,1.11h-0.308L262.03,46.859
		L262.03,46.859z"/>
	<path fill="#FFFFFF" d="M264.463,48.22l0.021-0.101c0.045-0.21,0.031-0.458-0.227-0.458c-0.308,0-0.423,0.377-0.447,0.488
		l-0.015,0.069L264.463,48.22L264.463,48.22z M263.737,48.45c-0.061,0.285-0.154,0.72,0.205,0.72c0.28,0,0.381-0.293,0.411-0.435
		h0.293c-0.042,0.199-0.26,0.663-0.77,0.663c-0.457,0-0.582-0.316-0.445-0.96c0.1-0.467,0.307-1.008,0.883-1.008
		c0.573,0,0.518,0.498,0.432,0.9l-0.025,0.118L263.737,48.45L263.737,48.45z"/>
	<path fill="#FFFFFF" d="M265.938,48.029c0.05-0.237,0.015-0.366-0.199-0.366c-0.094,0-0.308,0.023-0.365,0.286
		c-0.047,0.22,0.175,0.262,0.389,0.339c0.211,0.075,0.424,0.156,0.345,0.526c-0.083,0.396-0.38,0.586-0.729,0.586
		c-0.636,0-0.543-0.471-0.5-0.663h0.293c-0.048,0.229-0.03,0.435,0.257,0.435c0.094,0,0.32-0.046,0.377-0.312
		c0.054-0.252-0.166-0.305-0.376-0.381c-0.211-0.076-0.431-0.144-0.347-0.53c0.074-0.35,0.383-0.517,0.707-0.517
		c0.545,0,0.484,0.376,0.441,0.597H265.938L265.938,48.029z"/>
	<path fill="#FFFFFF" d="M267.423,48.415c0.087-0.404,0.103-0.754-0.212-0.754c-0.297,0-0.435,0.35-0.521,0.754
		s-0.103,0.755,0.198,0.755C267.199,49.17,267.335,48.821,267.423,48.415L267.423,48.415z M267.267,47.432
		c0.541,0,0.576,0.456,0.464,0.983c-0.113,0.527-0.347,0.983-0.884,0.983c-0.542,0-0.576-0.456-0.464-0.983
		C266.495,47.888,266.728,47.432,267.267,47.432L267.267,47.432z"/>
	<path fill="#FFFFFF" d="M269.056,49.352h-0.278l0.047-0.221h-0.007c-0.113,0.172-0.33,0.269-0.512,0.269
		c-0.491,0-0.412-0.373-0.365-0.593l0.284-1.327h0.294l-0.277,1.292c-0.03,0.145-0.07,0.377,0.196,0.377
		c0.158,0,0.393-0.104,0.45-0.377l0.276-1.292h0.293L269.056,49.352L269.056,49.352z"/>
	<path fill="#FFFFFF" d="M269.841,47.48h0.293l-0.059,0.279h0.006c0.122-0.177,0.266-0.327,0.476-0.327
		c0.059,0,0.1,0.006,0.125,0.021l-0.062,0.284c-0.027-0.003-0.06-0.014-0.154-0.014c-0.147,0-0.413,0.134-0.479,0.443l-0.252,1.185
		h-0.293L269.841,47.48L269.841,47.48z"/>
	<path fill="#FFFFFF" d="M271.645,48.049c0.039-0.182,0.009-0.388-0.214-0.388c-0.181,0-0.385,0.092-0.532,0.774
		c-0.052,0.244-0.153,0.733,0.199,0.733c0.252,0,0.364-0.267,0.408-0.468h0.292c-0.063,0.297-0.295,0.696-0.764,0.696
		c-0.458,0-0.581-0.316-0.444-0.96c0.1-0.467,0.308-1.008,0.882-1.008c0.51,0,0.512,0.4,0.465,0.617h-0.292V48.049z"/>
	<path fill="#FFFFFF" d="M273.127,48.22l0.022-0.101c0.045-0.21,0.032-0.458-0.227-0.458c-0.307,0-0.422,0.377-0.446,0.488
		l-0.016,0.069L273.127,48.22L273.127,48.22z M272.401,48.45c-0.061,0.285-0.154,0.72,0.205,0.72c0.28,0,0.38-0.293,0.411-0.435
		h0.293c-0.042,0.199-0.26,0.663-0.77,0.663c-0.458,0-0.582-0.316-0.444-0.96c0.1-0.467,0.307-1.008,0.882-1.008
		c0.572,0,0.518,0.498,0.433,0.9l-0.025,0.118L272.401,48.45L272.401,48.45z"/>
	<path fill="#FFFFFF" d="M274.602,48.029c0.051-0.237,0.015-0.366-0.198-0.366c-0.094,0-0.309,0.023-0.365,0.286
		c-0.046,0.22,0.175,0.262,0.389,0.339c0.21,0.075,0.424,0.156,0.345,0.526c-0.084,0.396-0.38,0.586-0.729,0.586
		c-0.637,0-0.542-0.471-0.5-0.663h0.292c-0.048,0.229-0.03,0.435,0.257,0.435c0.094,0,0.32-0.046,0.376-0.312
		c0.053-0.252-0.165-0.305-0.375-0.381c-0.21-0.076-0.43-0.144-0.348-0.53c0.075-0.35,0.384-0.517,0.708-0.517
		c0.545,0,0.485,0.376,0.441,0.597H274.602L274.602,48.029z"/>
	<path fill="#FFFFFF" d="M277.355,47.549c0.042-0.262-0.007-0.487-0.312-0.487c-0.426,0-0.581,0.469-0.705,1.043
		c-0.123,0.576-0.167,1.044,0.259,1.044c0.426,0,0.566-0.51,0.637-0.841h-0.491l0.054-0.251h0.772l-0.277,1.295h-0.231l0.073-0.34
		h-0.007c-0.111,0.215-0.349,0.388-0.621,0.388c-0.649,0-0.632-0.624-0.488-1.295c0.135-0.629,0.393-1.295,1.081-1.295
		c0.715,0,0.602,0.61,0.578,0.739H277.355L277.355,47.549z"/>
	<path fill="#FFFFFF" d="M278.052,47.48h0.294l-0.061,0.279h0.007c0.123-0.177,0.267-0.327,0.476-0.327
		c0.059,0,0.099,0.006,0.125,0.021l-0.061,0.284c-0.028-0.003-0.061-0.014-0.154-0.014c-0.147,0-0.413,0.134-0.479,0.443
		l-0.252,1.185h-0.293L278.052,47.48L278.052,47.48z"/>
	<path fill="#FFFFFF" d="M279.835,48.415c0.088-0.404,0.102-0.754-0.212-0.754c-0.297,0-0.434,0.35-0.521,0.754
		c-0.086,0.404-0.101,0.755,0.199,0.755C279.611,49.17,279.749,48.821,279.835,48.415L279.835,48.415z M279.68,47.432
		c0.542,0,0.576,0.456,0.464,0.983c-0.113,0.527-0.347,0.983-0.885,0.983c-0.542,0-0.576-0.456-0.463-0.983
		C278.907,47.888,279.142,47.432,279.68,47.432L279.68,47.432z"/>
	<path fill="#FFFFFF" d="M281.47,49.352h-0.28l0.048-0.221h-0.007c-0.114,0.172-0.33,0.269-0.512,0.269
		c-0.493,0-0.413-0.373-0.366-0.593l0.284-1.327h0.293l-0.276,1.292c-0.029,0.145-0.07,0.377,0.196,0.377
		c0.157,0,0.392-0.104,0.45-0.377l0.276-1.292h0.293L281.47,49.352L281.47,49.352z"/>
	<path fill="#FFFFFF" d="M282.551,49.149c0.272,0,0.404-0.286,0.506-0.768c0.088-0.412,0.079-0.698-0.193-0.698
		c-0.324,0-0.441,0.308-0.534,0.732C282.253,48.779,282.237,49.149,282.551,49.149L282.551,49.149z M282.256,47.48h0.278
		l-0.049,0.231h0.007c0.068-0.142,0.262-0.279,0.465-0.279c0.442,0,0.526,0.395,0.407,0.949c-0.09,0.426-0.343,1.019-0.829,1.019
		c-0.168,0-0.303-0.101-0.335-0.261h-0.007l-0.178,0.827h-0.293L282.256,47.48L282.256,47.48z"/>
	<path fill="#FFFFFF" d="M283.618,48.982h0.321l-0.065,0.305c-0.057,0.266-0.128,0.502-0.446,0.583l0.035-0.165
		c0.135-0.06,0.181-0.129,0.211-0.269l0.017-0.084h-0.153L283.618,48.982L283.618,48.982z"/>
	<polygon fill="#FFFFFF" points="285.564,46.859 285.871,46.859 285.339,49.352 285.031,49.352 	"/>
	<path fill="#FFFFFF" d="M286.134,47.48h0.279l-0.046,0.221h0.006c0.113-0.17,0.33-0.269,0.512-0.269
		c0.491,0,0.412,0.373,0.365,0.593l-0.284,1.327h-0.292l0.276-1.293c0.031-0.143,0.07-0.376-0.195-0.376
		c-0.157,0-0.393,0.104-0.451,0.376l-0.276,1.293h-0.293L286.134,47.48L286.134,47.48z"/>
	<path fill="#FFFFFF" d="M288.52,48.049c0.039-0.182,0.01-0.388-0.213-0.388c-0.181,0-0.387,0.092-0.533,0.774
		c-0.052,0.244-0.153,0.733,0.2,0.733c0.251,0,0.365-0.267,0.407-0.468h0.295c-0.064,0.297-0.297,0.696-0.766,0.696
		c-0.458,0-0.581-0.316-0.443-0.96c0.1-0.467,0.306-1.008,0.882-1.008c0.509,0,0.511,0.4,0.465,0.617h-0.294V48.049z"/>
	<polygon fill="#FFFFFF" points="288.985,48.982 289.306,48.982 289.226,49.352 288.906,49.352 	"/>
	<path fill="#FFFFFF" d="M202.318,21.927l0.188,0.144c-0.129,0.21-0.245,0.422-0.345,0.639c-0.581,0.254-1.14,0.435-1.678,0.541
		s-1.157,0.16-1.858,0.16c-1.311,0-2.419-0.191-3.325-0.575c-0.906-0.384-1.603-0.924-2.09-1.62
		c-0.488-0.697-0.732-1.495-0.732-2.396c0-1.297,0.552-2.358,1.656-3.188c1.103-0.827,2.626-1.241,4.567-1.241
		c0.646,0,1.285,0.048,1.918,0.145c0.632,0.096,1.262,0.24,1.887,0.438l0.053,0.094c-0.092,0.226-0.157,0.442-0.192,0.65
		c-0.066,0.363-0.117,0.812-0.153,1.351h-0.631c-0.03-0.658-0.06-1.02-0.09-1.085c-0.03-0.064-0.167-0.175-0.413-0.332
		c-0.245-0.155-0.576-0.282-0.993-0.381c-0.418-0.098-0.879-0.146-1.383-0.146c-1.2,0-2.153,0.309-2.861,0.926
		s-1.061,1.476-1.061,2.577c0,1.192,0.425,2.158,1.276,2.896c0.786,0.685,1.864,1.026,3.235,1.026c0.53,0,1.027-0.046,1.49-0.138
		C201.246,22.317,201.758,22.156,202.318,21.927L202.318,21.927z"/>
	<path fill="#FFFFFF" d="M206.536,18.144l-1.225,2.486c0.356,0.016,0.749,0.022,1.178,0.022c0.449,0,0.878-0.008,1.289-0.022
		L206.536,18.144L206.536,18.144z M202.729,22.834c0.364-0.018,0.588-0.047,0.673-0.092c0.058-0.032,0.148-0.155,0.272-0.368
		c0.236-0.418,0.537-1,0.905-1.744l2.053-4.191h0.853l2.622,5.191c0.34,0.655,0.55,1.014,0.628,1.076
		c0.08,0.062,0.324,0.104,0.734,0.128v0.438c-0.63-0.021-1.226-0.033-1.786-0.033c-0.668,0-1.305,0.011-1.907,0.033v-0.438
		c0.46-0.018,0.726-0.038,0.797-0.064c0.072-0.026,0.107-0.075,0.107-0.145c0-0.061-0.081-0.266-0.244-0.613l-0.382-0.808
		c-0.48-0.011-1.017-0.015-1.608-0.015c-0.515,0-0.984,0.004-1.406,0.015l-0.254,0.543c-0.07,0.147-0.155,0.368-0.256,0.662
		c-0.022,0.065-0.034,0.125-0.034,0.179c0,0.073,0.037,0.124,0.113,0.154c0.075,0.029,0.347,0.061,0.814,0.092v0.438
		c-0.379-0.021-0.85-0.033-1.414-0.033c-0.537,0-0.964,0.011-1.281,0.033L202.729,22.834L202.729,22.834z"/>
	<path fill="#FFFFFF" d="M211.958,21.23h0.511c0.004,0.478,0.022,0.756,0.055,0.838c0.033,0.082,0.144,0.19,0.333,0.324
		c0.189,0.133,0.435,0.241,0.737,0.326c0.301,0.083,0.611,0.125,0.928,0.125c0.545,0,0.981-0.121,1.308-0.362
		c0.326-0.24,0.49-0.542,0.49-0.902c0-0.332-0.109-0.586-0.325-0.764c-0.221-0.178-0.638-0.304-1.253-0.377
		c-0.913-0.109-1.528-0.229-1.847-0.357s-0.57-0.322-0.754-0.581c-0.184-0.257-0.276-0.566-0.276-0.929
		c0-0.605,0.256-1.119,0.768-1.54c0.512-0.422,1.33-0.632,2.454-0.632c0.44,0,0.832,0.027,1.173,0.083
		c0.342,0.056,0.685,0.146,1.028,0.271l0.058,0.117c-0.062,0.203-0.105,0.386-0.13,0.551c-0.026,0.164-0.048,0.448-0.067,0.852
		h-0.499c-0.019-0.496-0.048-0.773-0.087-0.834c-0.073-0.105-0.26-0.218-0.56-0.335c-0.299-0.117-0.643-0.176-1.03-0.176
		c-0.529,0-0.94,0.106-1.232,0.321c-0.292,0.214-0.438,0.491-0.438,0.829c0,0.206,0.06,0.385,0.179,0.538
		c0.12,0.152,0.288,0.266,0.502,0.338c0.215,0.071,0.676,0.154,1.383,0.249c0.642,0.081,1.077,0.158,1.305,0.236
		c0.375,0.125,0.659,0.317,0.853,0.575c0.193,0.258,0.29,0.583,0.29,0.977c0,0.683-0.313,1.25-0.94,1.702
		c-0.626,0.452-1.482,0.679-2.569,0.679c-0.483,0-0.922-0.038-1.316-0.116c-0.395-0.077-0.802-0.204-1.224-0.381
		c0.069-0.226,0.116-0.431,0.139-0.613C211.937,22.005,211.954,21.662,211.958,21.23L211.958,21.23z"/>
	<path fill="#FFFFFF" d="M225.74,22.225l0.145,0.111c-0.1,0.162-0.188,0.326-0.266,0.493c-0.45,0.196-0.882,0.336-1.296,0.418
		c-0.417,0.082-0.894,0.123-1.436,0.123c-1.013,0-1.869-0.147-2.569-0.444c-0.7-0.296-1.238-0.714-1.615-1.252
		s-0.565-1.155-0.565-1.851c0-1.003,0.426-1.823,1.278-2.463c0.853-0.64,2.029-0.96,3.53-0.96c0.499,0,0.993,0.037,1.482,0.112
		c0.489,0.074,0.975,0.187,1.458,0.338l0.041,0.073c-0.071,0.173-0.12,0.341-0.147,0.502c-0.052,0.28-0.091,0.628-0.12,1.044h-0.487
		c-0.023-0.509-0.047-0.789-0.069-0.838c-0.023-0.05-0.13-0.135-0.318-0.256c-0.19-0.121-0.445-0.219-0.768-0.294
		c-0.323-0.076-0.679-0.114-1.069-0.114c-0.927,0-1.664,0.238-2.211,0.715c-0.545,0.478-0.819,1.142-0.819,1.991
		c0,0.921,0.329,1.667,0.986,2.238c0.606,0.528,1.44,0.793,2.5,0.793c0.409,0,0.792-0.036,1.151-0.106
		C224.911,22.526,225.307,22.402,225.74,22.225L225.74,22.225z"/>
	<path fill="#FFFFFF" d="M229.946,18.144l-1.224,2.486c0.355,0.016,0.748,0.022,1.177,0.022c0.45,0,0.879-0.008,1.289-0.022
		L229.946,18.144L229.946,18.144z M226.141,22.834c0.364-0.018,0.588-0.047,0.673-0.092c0.058-0.032,0.148-0.155,0.272-0.368
		c0.237-0.418,0.538-1,0.905-1.744l2.053-4.191h0.853l2.622,5.191c0.34,0.655,0.55,1.014,0.63,1.076
		c0.079,0.062,0.323,0.104,0.733,0.128v0.438c-0.63-0.021-1.225-0.033-1.785-0.033c-0.669,0-1.305,0.011-1.909,0.033v-0.438
		c0.46-0.018,0.726-0.038,0.798-0.064c0.071-0.026,0.107-0.075,0.107-0.145c0-0.061-0.082-0.266-0.244-0.613l-0.383-0.808
		c-0.48-0.011-1.016-0.015-1.608-0.015c-0.516,0-0.983,0.004-1.406,0.015l-0.254,0.543c-0.07,0.147-0.155,0.368-0.255,0.662
		c-0.023,0.065-0.035,0.125-0.035,0.179c0,0.073,0.038,0.124,0.113,0.154c0.076,0.029,0.347,0.061,0.814,0.092v0.438
		c-0.378-0.021-0.85-0.033-1.413-0.033c-0.538,0-0.965,0.011-1.282,0.033L226.141,22.834L226.141,22.834z"/>
	<path fill="#FFFFFF" d="M237.712,22.674c0.326,0.048,0.657,0.073,0.998,0.073c0.863,0,1.521-0.104,1.973-0.311
		c0.452-0.207,0.818-0.542,1.099-1.011c0.28-0.469,0.42-1.044,0.42-1.726c0-0.899-0.278-1.583-0.835-2.054
		c-0.491-0.419-1.293-0.628-2.407-0.628c-0.239,0-0.655,0.017-1.247,0.048l-0.046,3.012
		C237.666,21.345,237.683,22.211,237.712,22.674L237.712,22.674z M235.363,23.274v-0.251c0.267-0.129,0.457-0.226,0.569-0.29
		c0.054-0.566,0.081-1.628,0.081-3.183c0-0.673-0.008-1.236-0.026-1.688s-0.044-0.711-0.078-0.775
		c-0.016-0.032-0.041-0.056-0.075-0.072c-0.059-0.026-0.343-0.064-0.854-0.116v-0.406c0.584,0.017,1.255,0.023,2.013,0.023
		l2.859-0.023c1.04,0,1.83,0.108,2.37,0.328c0.54,0.221,0.968,0.556,1.285,1.007c0.317,0.45,0.476,0.999,0.476,1.644
		c0,0.828-0.248,1.542-0.743,2.141c-0.496,0.601-1.099,1.027-1.81,1.281c-0.712,0.254-1.472,0.382-2.28,0.382l-2.198-0.033
		C236.601,23.24,236.071,23.251,235.363,23.274L235.363,23.274z"/>
	<path fill="#FFFFFF" d="M244.047,23.274v-0.261c0.206-0.078,0.393-0.167,0.563-0.271c0.077-0.502,0.116-1.56,0.116-3.172
		c0-1.099-0.014-1.826-0.041-2.185c-0.012-0.19-0.052-0.311-0.119-0.36c-0.068-0.05-0.355-0.093-0.863-0.128v-0.406
		c0.913,0.029,1.633,0.043,2.162,0.043l3.194-0.043c0.335,0,0.638,0.012,0.909,0.034l0.041,0.054
		c-0.085,0.354-0.146,0.827-0.186,1.416h-0.458c-0.021-0.471-0.042-0.723-0.067-0.754c-0.025-0.033-0.113-0.062-0.263-0.093
		c-0.322-0.058-0.813-0.087-1.474-0.087c-0.324,0-0.704,0.013-1.137,0.033c-0.05,0.996-0.079,1.789-0.086,2.379
		c0.413,0.022,0.802,0.033,1.166,0.033c0.538,0,0.859-0.014,0.968-0.043c0.066-0.02,0.112-0.066,0.139-0.14
		c0.022-0.059,0.05-0.262,0.082-0.608h0.499c-0.02,0.545-0.03,0.9-0.03,1.065l0.03,1.09h-0.499
		c-0.028-0.426-0.062-0.669-0.105-0.734c-0.023-0.039-0.075-0.067-0.156-0.083c-0.193-0.036-0.629-0.053-1.306-0.053
		c-0.212,0-0.462,0.011-0.748,0.034c-0.007,0.17-0.01,0.343-0.01,0.52c0,0.919,0.019,1.625,0.057,2.119l1.151,0.015
		c0.655,0,1.253-0.028,1.796-0.087c0.097-0.298,0.189-0.636,0.278-1.015h0.481c-0.089,0.574-0.141,1.125-0.157,1.653
		c-0.352,0.021-0.691,0.033-1.015,0.033c-0.212,0-0.632-0.006-1.258-0.017c-0.584-0.011-1.122-0.017-1.613-0.017
		C245.443,23.24,244.763,23.251,244.047,23.274L244.047,23.274z"/>
	<path fill="#FFFFFF" d="M200.733,34.926v-0.478c0.555-0.021,0.88-0.05,0.976-0.092c0.064-0.03,0.111-0.08,0.143-0.147
		c0.05-0.09,0.081-0.412,0.094-0.961c0.023-0.91,0.036-1.597,0.036-2.059l-0.014-2.405c0-0.638-0.025-1.004-0.074-1.104
		c-0.028-0.057-0.071-0.099-0.13-0.125c-0.09-0.045-0.434-0.089-1.031-0.131v-0.478c0.711,0.019,1.237,0.027,1.58,0.027
		c0.378,0,0.808-0.01,1.289-0.027c1.051,1.116,2.238,2.329,3.563,3.636c0.882,0.874,1.643,1.596,2.282,2.166v-2.257
		c0-0.855-0.012-1.593-0.034-2.213c-0.018-0.368-0.055-0.594-0.109-0.678c-0.027-0.046-0.078-0.078-0.15-0.097
		c-0.073-0.021-0.392-0.046-0.956-0.08v-0.478c0.495,0.019,0.987,0.027,1.478,0.027c0.672,0,1.28-0.01,1.825-0.027v0.478
		c-0.506,0.026-0.812,0.057-0.917,0.091c-0.059,0.02-0.106,0.045-0.142,0.08c-0.036,0.033-0.063,0.077-0.082,0.13
		c-0.031,0.091-0.05,0.383-0.056,0.876l-0.025,2.275l-0.014,2.292c0,0.614,0.016,1.228,0.048,1.842l-0.089,0.08
		c-0.554-0.083-0.944-0.139-1.173-0.165c-1.169-1.08-2.582-2.436-4.238-4.069c-0.837-0.824-1.513-1.521-2.026-2.085v2.21
		c0,0.603,0.011,1.328,0.034,2.177c0.013,0.625,0.045,0.983,0.096,1.078c0.018,0.042,0.052,0.074,0.102,0.098
		c0.086,0.042,0.414,0.08,0.982,0.114v0.478c-0.734-0.027-1.259-0.04-1.577-0.04C202.163,34.886,201.599,34.899,200.733,34.926
		L200.733,34.926z"/>
	<path fill="#FFFFFF" d="M214.677,29.789l-1.224,2.485c0.356,0.017,0.748,0.024,1.178,0.024c0.449,0,0.878-0.008,1.288-0.024
		L214.677,29.789L214.677,29.789z M210.872,34.48c0.363-0.016,0.587-0.046,0.673-0.092c0.058-0.032,0.149-0.155,0.272-0.368
		c0.236-0.418,0.538-1,0.905-1.745l2.053-4.19h0.853l2.622,5.19c0.341,0.655,0.55,1.015,0.629,1.076
		c0.079,0.062,0.324,0.105,0.733,0.127v0.44c-0.63-0.022-1.224-0.034-1.785-0.034c-0.669,0-1.305,0.011-1.908,0.034v-0.44
		c0.459-0.016,0.726-0.038,0.797-0.063c0.072-0.027,0.107-0.075,0.107-0.145c0-0.06-0.081-0.265-0.243-0.613l-0.383-0.808
		c-0.479-0.01-1.016-0.015-1.608-0.015c-0.515,0-0.983,0.005-1.405,0.015l-0.255,0.543c-0.069,0.147-0.155,0.369-0.255,0.661
		c-0.023,0.066-0.035,0.125-0.035,0.179c0,0.072,0.038,0.124,0.113,0.154c0.076,0.029,0.347,0.06,0.815,0.092v0.44
		c-0.378-0.022-0.851-0.034-1.415-0.034c-0.537,0-0.963,0.011-1.28,0.034V34.48L210.872,34.48z"/>
	<path fill="#FFFFFF" d="M220.311,34.92v-0.406c0.219,0,0.449-0.017,0.689-0.048c0.113-0.016,0.191-0.042,0.238-0.08
		c0.046-0.037,0.081-0.105,0.104-0.206c0.027-0.138,0.05-0.646,0.07-1.525c0.012-0.625,0.018-1.262,0.018-1.912
		c0-1.278-0.004-1.93-0.015-1.953c-0.01-0.024-0.146-0.037-0.41-0.037c-0.539,0-1.002,0.013-1.39,0.039
		c-0.224,0.016-0.352,0.032-0.381,0.048c-0.029,0.017-0.051,0.044-0.066,0.085s-0.048,0.323-0.099,0.849h-0.499
		c0.007-0.618-0.012-1.148-0.058-1.595l0.063-0.039c1.218,0.048,2.403,0.072,3.556,0.072c1.148,0,2.434-0.023,3.857-0.072
		l0.064,0.077c-0.074,0.443-0.126,0.961-0.157,1.557h-0.481c-0.034-0.544-0.069-0.838-0.104-0.883
		c-0.027-0.036-0.089-0.061-0.186-0.074c-0.31-0.042-0.924-0.062-1.845-0.062c-0.077,0-0.124,0.01-0.139,0.029
		c-0.015,0.022-0.023,0.107-0.023,0.257l-0.035,3.25c0,0.941,0.01,1.521,0.029,1.734c0.02,0.214,0.066,0.345,0.141,0.39
		c0.05,0.028,0.355,0.062,0.916,0.102v0.406c-0.57-0.022-1.174-0.034-1.813-0.034C221.515,34.886,220.833,34.897,220.311,34.92
		L220.311,34.92z"/>
	<path fill="#FFFFFF" d="M226.336,28.544v-0.406c0.79,0.022,1.481,0.033,2.077,0.033c0.378,0,0.914-0.011,1.606-0.033v0.406
		c-0.356,0-0.607,0.024-0.754,0.077c-0.05,0.016-0.091,0.043-0.122,0.082c-0.043,0.046-0.071,0.121-0.087,0.228
		c-0.023,0.18-0.043,0.698-0.058,1.556c-0.012,0.597-0.018,1.201-0.018,1.817c0,0.505,0.069,0.877,0.209,1.114
		c0.139,0.237,0.343,0.413,0.609,0.53c0.386,0.163,0.807,0.245,1.263,0.245c0.623,0,1.099-0.085,1.428-0.256
		c0.327-0.171,0.548-0.405,0.66-0.705s0.168-0.956,0.168-1.968l-0.005-1.789c-0.004-0.402-0.028-0.644-0.069-0.725
		c-0.023-0.045-0.065-0.079-0.123-0.102c-0.093-0.045-0.375-0.081-0.847-0.105v-0.406c0.499,0.022,0.959,0.033,1.381,0.033
		c0.363,0,0.809-0.011,1.339-0.033v0.406c-0.383,0-0.621,0.035-0.717,0.105c-0.094,0.07-0.152,0.254-0.171,0.552
		c-0.042,0.722-0.065,1.538-0.069,2.449c0,0.583-0.01,0.966-0.029,1.146c-0.043,0.445-0.172,0.824-0.389,1.139
		c-0.217,0.314-0.577,0.572-1.08,0.775c-0.502,0.203-1.127,0.305-1.873,0.305c-0.777,0-1.424-0.097-1.937-0.291
		c-0.514-0.192-0.88-0.437-1.097-0.731c-0.216-0.294-0.325-0.729-0.325-1.299l0.029-2.175c0-0.174-0.01-0.617-0.029-1.329
		c-0.008-0.222-0.037-0.374-0.087-0.454c-0.032-0.045-0.079-0.08-0.142-0.105C227.018,28.605,226.769,28.576,226.336,28.544
		L226.336,28.544z"/>
	<path fill="#FFFFFF" d="M235.426,34.92v-0.406c0.448-0.033,0.706-0.062,0.771-0.091c0.042-0.021,0.073-0.05,0.092-0.092
		c0.039-0.078,0.066-0.338,0.082-0.783c0.019-0.689,0.028-1.232,0.028-1.629c0-0.535-0.008-1.215-0.023-2.04
		c-0.015-0.616-0.052-0.993-0.11-1.131c-0.015-0.042-0.046-0.074-0.093-0.098c-0.062-0.031-0.311-0.067-0.748-0.105v-0.406
		c0.801,0.022,1.316,0.033,1.549,0.033l2.906-0.033c0.63,0,1.089,0.05,1.377,0.152c0.288,0.101,0.516,0.264,0.684,0.486
		c0.168,0.225,0.253,0.487,0.253,0.789c0,0.387-0.135,0.726-0.404,1.017s-0.735,0.549-1.4,0.773l1.235,1.553l0.962,1.188
		c0.183,0.193,0.317,0.312,0.407,0.351c0.089,0.041,0.234,0.062,0.435,0.064v0.373l-0.342,0.004
		c-0.983,0.007-1.615,0.017-1.897,0.029c-0.336-0.448-0.838-1.097-1.508-1.948l-1.195-1.513c0.035-0.056,0.064-0.113,0.087-0.174
		c0.155,0.017,0.269,0.024,0.342,0.024c0.359,0,0.713-0.122,1.061-0.364c0.349-0.241,0.522-0.587,0.522-1.035
		c0-0.392-0.137-0.694-0.413-0.91c-0.275-0.217-0.688-0.325-1.238-0.325c-0.174,0-0.411,0.012-0.709,0.035l-0.038,1.427
		l-0.049,1.809c0,0.41,0.021,0.935,0.059,1.572c0.031,0.481,0.061,0.75,0.092,0.809c0.022,0.042,0.065,0.075,0.127,0.102
		c0.081,0.039,0.342,0.068,0.785,0.087v0.406c-0.696-0.022-1.311-0.034-1.848-0.034C236.696,34.886,236.083,34.897,235.426,34.92
		L235.426,34.92z"/>
	<path fill="#FFFFFF" d="M247.52,29.789l-1.224,2.485c0.356,0.017,0.748,0.024,1.178,0.024c0.449,0,0.878-0.008,1.288-0.024
		L247.52,29.789L247.52,29.789z M243.715,34.48c0.363-0.016,0.587-0.046,0.672-0.092c0.058-0.032,0.149-0.155,0.272-0.368
		c0.236-0.418,0.537-1,0.905-1.745l2.053-4.19h0.853l2.622,5.19c0.34,0.655,0.55,1.015,0.629,1.076
		c0.079,0.062,0.324,0.105,0.734,0.127v0.44c-0.63-0.022-1.227-0.034-1.786-0.034c-0.669,0-1.305,0.011-1.908,0.034v-0.44
		c0.46-0.016,0.726-0.038,0.797-0.063c0.072-0.027,0.107-0.075,0.107-0.145c0-0.06-0.082-0.265-0.243-0.613l-0.383-0.808
		c-0.48-0.01-1.016-0.015-1.608-0.015c-0.515,0-0.983,0.005-1.405,0.015l-0.255,0.543c-0.069,0.147-0.154,0.369-0.255,0.661
		c-0.022,0.066-0.035,0.125-0.035,0.179c0,0.072,0.039,0.124,0.113,0.154c0.075,0.029,0.346,0.06,0.814,0.092v0.44
		c-0.378-0.022-0.85-0.034-1.414-0.034c-0.537,0-0.963,0.011-1.28,0.034L243.715,34.48L243.715,34.48z"/>
	<path fill="#FFFFFF" d="M252.902,34.92v-0.251c0.213-0.083,0.414-0.183,0.603-0.295c0.05-0.873,0.077-1.783,0.077-2.73
		c0-0.744-0.01-1.446-0.029-2.106c-0.013-0.471-0.039-0.741-0.082-0.812c-0.02-0.042-0.06-0.073-0.119-0.094
		c-0.061-0.021-0.342-0.05-0.843-0.085V28.14c0.746,0.017,1.438,0.024,2.076,0.024c0.619,0,1.204-0.008,1.758-0.024v0.406
		c-0.532,0.029-0.837,0.066-0.919,0.116c-0.05,0.028-0.084,0.088-0.105,0.176c-0.021,0.089-0.038,0.61-0.049,1.563l-0.035,2.354
		c0,0.441,0.013,0.952,0.041,1.532c0.504,0.021,0.878,0.034,1.12,0.034c0.728,0,1.341-0.049,1.838-0.146
		c0.103-0.291,0.203-0.637,0.301-1.039h0.511c-0.086,0.47-0.164,1.053-0.231,1.75c-0.367,0.022-0.706,0.034-1.014,0.034
		l-2.098-0.022l-0.938-0.011C254.329,34.882,253.71,34.894,252.902,34.92L252.902,34.92z"/>
	<path fill="#FFFFFF" d="M268.843,32.128v-0.461c0.828,0.02,1.567,0.03,2.218,0.03c0.6,0,1.249-0.011,1.944-0.03v0.364
		c-0.2,0.054-0.391,0.115-0.573,0.188c-0.055,0.383-0.083,0.709-0.083,0.979c0,0.193,0.028,0.576,0.083,1.148
		c-0.901,0.271-1.655,0.454-2.262,0.549c-0.607,0.097-1.237,0.145-1.887,0.145c-1.756,0-3.131-0.38-4.125-1.141
		c-0.994-0.76-1.491-1.746-1.491-2.954c0-1.243,0.507-2.238,1.521-2.985c1.015-0.747,2.471-1.12,4.367-1.12
		c0.669,0,1.311,0.043,1.924,0.131c0.614,0.087,1.199,0.22,1.754,0.398l0.061,0.085c-0.132,0.48-0.229,1.081-0.293,1.797h-0.573
		c-0.004-0.361-0.034-0.68-0.089-0.956c-0.291-0.281-0.666-0.491-1.122-0.632c-0.458-0.141-0.998-0.21-1.621-0.21
		c-1.169,0-2.101,0.296-2.794,0.888c-0.694,0.592-1.041,1.402-1.041,2.43c0,1.098,0.365,1.98,1.095,2.649
		c0.73,0.67,1.63,1.005,2.699,1.005c0.569,0,1.174-0.116,1.815-0.347c0.037-0.292,0.055-0.569,0.055-0.831
		c0-0.584-0.041-0.906-0.123-0.966C270.221,32.22,269.734,32.169,268.843,32.128L268.843,32.128z"/>
	<path fill="#FFFFFF" d="M276.721,29.789l-1.225,2.485c0.356,0.017,0.749,0.024,1.178,0.024c0.449,0,0.878-0.008,1.288-0.024
		L276.721,29.789L276.721,29.789z M272.914,34.48c0.364-0.016,0.588-0.046,0.673-0.092c0.058-0.032,0.149-0.155,0.273-0.368
		c0.235-0.418,0.537-1,0.904-1.745l2.054-4.19h0.852l2.622,5.19c0.34,0.655,0.55,1.015,0.629,1.076
		c0.079,0.062,0.324,0.105,0.733,0.127v0.44c-0.629-0.022-1.225-0.034-1.786-0.034c-0.668,0-1.304,0.011-1.908,0.034v-0.44
		c0.46-0.016,0.727-0.038,0.798-0.063c0.072-0.027,0.107-0.075,0.107-0.145c0-0.06-0.081-0.265-0.243-0.613l-0.383-0.808
		c-0.48-0.01-1.016-0.015-1.608-0.015c-0.515,0-0.984,0.005-1.406,0.015l-0.254,0.543c-0.07,0.147-0.155,0.369-0.255,0.661
		c-0.024,0.066-0.035,0.125-0.035,0.179c0,0.072,0.038,0.124,0.113,0.154c0.076,0.029,0.348,0.06,0.814,0.092v0.44
		c-0.378-0.022-0.85-0.034-1.413-0.034c-0.538,0-0.964,0.011-1.281,0.034V34.48L272.914,34.48z"/>
	<path fill="#FFFFFF" d="M282.381,32.876h0.509c0.005,0.477,0.023,0.756,0.056,0.838c0.033,0.082,0.144,0.189,0.333,0.324
		c0.189,0.134,0.436,0.242,0.737,0.326c0.301,0.084,0.611,0.125,0.928,0.125c0.545,0,0.98-0.12,1.308-0.361
		c0.327-0.242,0.49-0.542,0.49-0.903c0-0.332-0.108-0.586-0.325-0.763c-0.221-0.178-0.638-0.303-1.252-0.377
		c-0.914-0.11-1.529-0.229-1.847-0.358c-0.32-0.129-0.572-0.321-0.755-0.581c-0.184-0.258-0.275-0.566-0.275-0.928
		c0-0.606,0.256-1.12,0.768-1.541c0.512-0.42,1.331-0.631,2.454-0.631c0.44,0,0.832,0.027,1.173,0.083
		c0.342,0.055,0.685,0.145,1.029,0.271l0.057,0.117c-0.061,0.203-0.105,0.386-0.129,0.552c-0.025,0.164-0.047,0.448-0.067,0.852
		h-0.498c-0.02-0.495-0.049-0.773-0.088-0.834c-0.072-0.106-0.26-0.218-0.559-0.335c-0.3-0.118-0.643-0.176-1.029-0.176
		c-0.53,0-0.941,0.106-1.233,0.32c-0.292,0.213-0.438,0.49-0.438,0.828c0,0.206,0.059,0.386,0.179,0.539
		c0.12,0.153,0.288,0.266,0.502,0.338s0.675,0.155,1.383,0.248c0.642,0.082,1.076,0.16,1.305,0.237
		c0.375,0.126,0.66,0.316,0.853,0.575c0.193,0.257,0.29,0.582,0.29,0.976c0,0.683-0.312,1.25-0.939,1.702
		c-0.626,0.453-1.483,0.679-2.569,0.679c-0.484,0-0.922-0.039-1.317-0.117c-0.395-0.075-0.803-0.203-1.225-0.381
		c0.07-0.226,0.116-0.431,0.14-0.612C282.359,33.651,282.376,33.308,282.381,32.876L282.381,32.876z"/>
	<path fill="#FFFFFF" d="M181.383,57.174c0.334,0,0.669,0.009,1.003,0.009c0.4,0,0.799-0.009,1.199-0.009l-0.073,0.222l-0.645,0.262
		l-0.555,2.096c-0.342,1.312-0.563,2.243-0.571,2.324l0.693,0.27l-0.098,0.212c-0.399,0-0.807-0.008-1.215-0.008
		c-0.399,0-0.808,0.008-1.215,0.008l0.081-0.212l0.677-0.27c0.049-0.099,0.302-0.972,0.669-2.324l0.579-2.096l-0.62-0.271
		L181.383,57.174L181.383,57.174z"/>
	<path fill="#FFFFFF" d="M183.086,62.615c0.204-0.556,0.881-2.922,0.881-3.124l-0.587-0.074l0.065-0.188
		c0.261-0.114,1.321-0.376,1.558-0.399l0.017,0.023c-0.033,0.181-0.31,1.077-0.571,1.925h0.016c0.53-0.808,1.118-1.477,1.713-1.753
		c0.179-0.091,0.481-0.188,0.8-0.188c0.293,0,0.326,0.049,0.204,0.473c-0.31,1.045-0.677,2.333-0.726,2.635l0.75-0.05l-0.106,0.271
		c-0.456,0.139-1.493,0.439-1.729,0.539l-0.073-0.09c0.049-0.223,0.816-2.578,0.938-3.035c0.032-0.106,0.017-0.139-0.041-0.139
		c-0.367,0-1.036,0.79-1.493,1.533c-0.31,0.506-0.465,0.864-0.701,1.574L183.086,62.615L183.086,62.615z"/>
	<path fill="#FFFFFF" d="M191.826,57.721l0.049,0.049l-0.375,1.216h1.028l-0.146,0.295l-0.987,0.098
		c-0.155,0.546-0.522,1.753-0.758,2.797l0.017,0.018c0.448-0.091,0.913-0.448,1.321-0.955l0.042,0.203
		c-0.334,1.021-1.297,1.217-1.713,1.217c-0.49,0-0.669-0.229-0.555-0.693c0.106-0.439,0.547-1.966,0.726-2.585l-0.636-0.098
		l0.171-0.295h0.579l0.236-0.774L191.826,57.721L191.826,57.721z"/>
	<path fill="#FFFFFF" d="M192.257,62.615c0.18-0.62,0.416-1.444,0.792-2.814c0.367-1.395,0.546-2.072,0.611-2.39l-0.587-0.114
		l0.089-0.18c0.318-0.132,1.281-0.262,1.583-0.262l0.016,0.018c-0.106,0.334-0.399,1.279-1.142,3.866h0.024
		c0.514-0.775,1.166-1.443,1.721-1.714c0.146-0.082,0.473-0.188,0.742-0.188c0.277,0,0.359,0.063,0.237,0.464
		c-0.318,1.061-0.685,2.342-0.726,2.644l0.75-0.05l-0.106,0.271c-0.465,0.139-1.485,0.433-1.729,0.539l-0.074-0.074
		c0.041-0.229,0.808-2.586,0.93-3.042c0.033-0.106,0.009-0.139-0.057-0.139c-0.27,0-1.012,0.741-1.493,1.558
		c-0.294,0.498-0.441,0.881-0.669,1.542L192.257,62.615L192.257,62.615z"/>
	<path fill="#FFFFFF" d="M199.122,59.14c-0.367,0-0.897,0.62-1.142,1.542c0.4-0.082,1.068-0.27,1.256-0.562
		c0.098-0.147,0.147-0.345,0.147-0.58c0-0.293-0.114-0.399-0.253-0.399L199.122,59.14L199.122,59.14z M199.971,61.669
		c-0.433,0.612-1.102,0.986-1.819,0.986c-0.645,0-1.231-0.303-1.248-1.265c-0.016-1.035,0.881-2.553,2.333-2.553
		c0.652,0,0.987,0.383,1.003,0.872c0,0.229-0.09,0.439-0.253,0.562c-0.27,0.304-1.403,0.612-2.056,0.719
		c-0.041,0.163-0.057,0.295-0.048,0.44c0,0.358,0.138,0.718,0.611,0.718c0.538,0,1.118-0.425,1.419-0.782h0.016L199.971,61.669
		L199.971,61.669z"/>
	<path fill="#FFFFFF" d="M207.479,61.4c-0.196,0.318-0.489,0.751-0.75,1.003c-0.408,0.163-1.003,0.304-1.476,0.304
		c-1.525,0-2.529-0.891-2.529-2.391c0-1.787,1.493-3.271,3.515-3.271c0.539,0,0.963,0.163,1.158,0.326
		c0.188-0.099,0.441-0.171,0.677-0.212l0.057,0.072c-0.13,0.407-0.497,1.24-0.612,1.429l-0.138,0.04
		c-0.049-0.31-0.09-0.701-0.115-1.036c-0.196-0.139-0.506-0.211-0.873-0.211c-1.615,0-2.594,1.378-2.594,2.812
		c0,1.216,0.628,1.998,1.794,1.998c0.147,0,0.31-0.017,0.473-0.048c0.465-0.4,0.881-0.734,1.321-1.036L207.479,61.4L207.479,61.4z"
		/>
	<path fill="#FFFFFF" d="M209.801,59.14c-0.612,0-1.224,1.438-1.224,2.447c0,0.521,0.163,0.767,0.417,0.767
		c0.611,0,1.215-1.41,1.215-2.463c0-0.417-0.114-0.751-0.399-0.751H209.801L209.801,59.14z M209.883,58.839
		c0.775,0,1.289,0.57,1.289,1.468c0,1.207-0.962,2.35-2.251,2.35c-0.734,0-1.297-0.529-1.305-1.411c0-1.297,1.06-2.405,2.259-2.405
		L209.883,58.839L209.883,58.839z"/>
	<path fill="#FFFFFF" d="M211.626,62.615c0.204-0.556,0.881-2.912,0.881-3.124l-0.587-0.065l0.057-0.195
		c0.277-0.114,1.305-0.376,1.55-0.392l0.024,0.023c-0.057,0.236-0.31,1.076-0.571,1.9h0.024c0.546-0.856,1.159-1.493,1.705-1.737
		c0.163-0.082,0.465-0.188,0.824-0.188c0.196,0,0.245,0.049,0.122,0.505c-0.122,0.457-0.236,0.849-0.416,1.379l0.024,0.008
		c0.506-0.767,1.085-1.419,1.688-1.704c0.171-0.082,0.489-0.188,0.832-0.188c0.236,0,0.285,0.057,0.163,0.473
		c-0.31,1.045-0.677,2.333-0.727,2.635l0.751-0.05l-0.106,0.271c-0.457,0.139-1.484,0.439-1.729,0.539l-0.065-0.09
		c0.041-0.223,0.815-2.587,0.938-3.042c0.032-0.106,0.008-0.141-0.049-0.141c-0.293,0-1.02,0.728-1.517,1.566
		c-0.294,0.487-0.424,0.864-0.669,1.55l-0.914,0.065c0.155-0.475,0.8-2.473,0.897-3.042c0.024-0.106,0.008-0.141-0.048-0.141
		c-0.294,0-0.971,0.646-1.509,1.574c-0.286,0.479-0.424,0.855-0.661,1.542L211.626,62.615L211.626,62.615z"/>
	<path fill="#FFFFFF" d="M218.433,62.615c0.204-0.556,0.881-2.912,0.881-3.124l-0.587-0.065l0.057-0.195
		c0.277-0.114,1.305-0.376,1.55-0.392l0.024,0.023c-0.057,0.236-0.31,1.076-0.571,1.9h0.025c0.546-0.856,1.158-1.493,1.704-1.737
		c0.163-0.082,0.465-0.188,0.824-0.188c0.196,0,0.244,0.049,0.123,0.505c-0.123,0.457-0.237,0.849-0.416,1.379l0.024,0.008
		c0.505-0.767,1.084-1.419,1.689-1.704c0.17-0.082,0.488-0.188,0.831-0.188c0.237,0,0.285,0.057,0.164,0.473
		c-0.311,1.045-0.677,2.333-0.727,2.635l0.75-0.05l-0.106,0.271c-0.457,0.139-1.484,0.439-1.729,0.539l-0.065-0.09
		c0.041-0.223,0.815-2.587,0.938-3.042c0.032-0.106,0.008-0.141-0.049-0.141c-0.293,0-1.02,0.728-1.517,1.566
		c-0.293,0.487-0.424,0.864-0.669,1.55l-0.914,0.065c0.155-0.475,0.8-2.473,0.897-3.042c0.024-0.106,0.009-0.141-0.049-0.141
		c-0.293,0-0.97,0.646-1.508,1.574c-0.286,0.479-0.424,0.855-0.661,1.542L218.433,62.615L218.433,62.615z"/>
	<path fill="#FFFFFF" d="M225.542,59.409l0.065-0.173c0.342-0.13,1.272-0.35,1.623-0.397l0.065,0.007
		c-0.228,0.571-0.848,2.562-0.954,3.02c-0.041,0.139-0.024,0.195,0.056,0.195c0.384,0,1.061-0.733,1.55-1.592
		c0.261-0.448,0.408-0.822,0.628-1.492c0.302-0.057,0.686-0.112,1.028-0.146l0.032,0.058l-0.334,0.456
		c-0.18,0.481-0.505,1.762-0.742,2.7l0.016,0.017c0.522-0.139,0.799-0.538,0.906-0.686l0.057,0.146
		c-0.081,0.456-0.595,1.134-1.615,1.134c-0.146,0-0.26-0.017-0.358-0.05c0.106-0.343,0.277-0.922,0.538-1.786h-0.033
		c-0.481,0.728-0.987,1.347-1.542,1.633c-0.228,0.122-0.497,0.203-0.75,0.203c-0.245,0-0.522-0.073-0.351-0.67
		c0.236-0.84,0.595-2.006,0.733-2.471L225.542,59.409L225.542,59.409z"/>
	<path fill="#FFFFFF" d="M229.944,62.615c0.203-0.556,0.88-2.922,0.88-3.124l-0.587-0.074l0.065-0.188
		c0.261-0.114,1.322-0.376,1.559-0.399l0.016,0.023c-0.033,0.181-0.31,1.077-0.571,1.925h0.017c0.53-0.808,1.117-1.477,1.712-1.753
		c0.181-0.091,0.481-0.188,0.8-0.188c0.293,0,0.327,0.049,0.204,0.473c-0.31,1.045-0.677,2.333-0.726,2.635l0.75-0.05l-0.107,0.271
		c-0.456,0.139-1.492,0.439-1.729,0.539l-0.073-0.09c0.049-0.223,0.816-2.578,0.938-3.035c0.032-0.106,0.016-0.139-0.041-0.139
		c-0.367,0-1.037,0.79-1.493,1.533c-0.31,0.506-0.465,0.864-0.702,1.574L229.944,62.615L229.944,62.615z"/>
	<path fill="#FFFFFF" d="M236.45,57.094c0.098,0.089,0.286,0.432,0.302,0.604l-0.016,0.049c-0.09,0.171-0.49,0.506-0.637,0.562
		h-0.048c-0.123-0.098-0.286-0.398-0.343-0.628l0.009-0.022c0.236-0.319,0.554-0.508,0.685-0.562L236.45,57.094L236.45,57.094z
		 M234.893,59.426l0.081-0.195c0.269-0.14,1.215-0.385,1.525-0.392l0.025,0.023c-0.481,1.55-0.929,3.025-0.995,3.336l0.017,0.009
		c0.318-0.065,0.84-0.628,1.035-0.85l0.033,0.141c-0.065,0.366-0.498,1.157-1.469,1.157c-0.35,0-0.587-0.244-0.399-0.931
		c0.073-0.228,0.367-1.23,0.693-2.21L234.893,59.426L234.893,59.426z"/>
	<path fill="#FFFFFF" d="M239.359,57.721l0.05,0.049l-0.375,1.216h1.027l-0.146,0.295l-0.988,0.098
		c-0.154,0.546-0.521,1.753-0.757,2.797l0.016,0.018c0.448-0.091,0.913-0.448,1.322-0.955l0.04,0.203
		c-0.334,1.021-1.296,1.217-1.712,1.217c-0.489,0-0.669-0.229-0.555-0.693c0.106-0.439,0.547-1.966,0.726-2.585l-0.636-0.098
		l0.171-0.295h0.579l0.236-0.774L239.359,57.721L239.359,57.721z"/>
	<path fill="#FFFFFF" d="M240.019,60.086c0.368-0.921,0.915-1.247,1.249-1.256c0.229,0.016,0.466,0.235,0.612,0.93
		c0.122,0.562,0.171,1.379,0.171,2.031h0.017c0.31-0.48,0.823-1.859,0.848-2.3l-0.245-0.344l0.016-0.09
		c0.229-0.123,0.539-0.213,0.775-0.22c0.065,0,0.123,0.023,0.115,0.072c-0.082,0.489-0.22,0.923-0.514,1.615
		c-0.465,1.108-1.085,1.997-1.574,2.602c-0.759,0.938-1.387,1.306-1.518,1.306c-0.098,0-0.383-0.212-0.514-0.808l0.033-0.099
		c0.245,0.01,0.53,0.091,0.889,0.245c0.058-0.023,0.327-0.229,0.538-0.53c0.278-0.392,0.359-0.7,0.359-1.247
		c0-0.743-0.155-1.723-0.335-2.221c-0.041-0.129-0.089-0.201-0.138-0.201c-0.073,0-0.334,0.293-0.595,0.699L240.019,60.086
		L240.019,60.086z"/>
	<path fill="#FFFFFF" d="M247.872,57.721l0.049,0.049l-0.375,1.216h1.028l-0.146,0.295l-0.988,0.098
		c-0.154,0.546-0.522,1.753-0.758,2.797l0.017,0.018c0.449-0.091,0.913-0.448,1.321-0.955l0.04,0.203
		c-0.333,1.021-1.297,1.217-1.712,1.217c-0.489,0-0.669-0.229-0.555-0.693c0.106-0.439,0.547-1.966,0.726-2.585l-0.636-0.098
		l0.171-0.295h0.579l0.237-0.774L247.872,57.721L247.872,57.721z"/>
	<path fill="#FFFFFF" d="M250.724,59.14c-0.612,0-1.222,1.438-1.222,2.447c0,0.521,0.163,0.767,0.415,0.767
		c0.612,0,1.215-1.41,1.215-2.463c0-0.417-0.114-0.751-0.399-0.751H250.724L250.724,59.14z M250.806,58.839
		c0.775,0,1.289,0.57,1.289,1.468c0,1.207-0.962,2.35-2.252,2.35c-0.733,0-1.296-0.529-1.304-1.411c0-1.297,1.06-2.405,2.26-2.405
		L250.806,58.839L250.806,58.839z"/>
	<path fill="#FFFFFF" d="M256.969,57.044c0.473,0,0.767,0.139,0.971,0.316c0.179-0.097,0.489-0.212,0.627-0.243l0.09,0.049
		c-0.073,0.276-0.375,1.142-0.506,1.371l-0.139,0.057c-0.073-0.237-0.147-0.628-0.179-0.905c-0.065-0.091-0.302-0.262-0.734-0.262
		c-0.653,0-1.003,0.466-1.003,0.905c0,0.295,0.106,0.498,0.359,0.727c0.245,0.212,0.554,0.449,0.996,0.824
		c0.48,0.408,0.644,0.767,0.644,1.198c0,0.963-0.848,1.606-2.007,1.606c-0.791,0-1.5-0.384-1.786-0.678
		c0.025-0.146,0.383-0.986,0.595-1.247h0.122c0.058,0.221,0.098,1.003,0.147,1.396c0.188,0.099,0.465,0.153,0.783,0.153
		c0.767,0,1.167-0.438,1.167-0.944c0-0.277-0.123-0.531-0.417-0.791c-0.293-0.254-0.612-0.516-0.897-0.775
		c-0.425-0.375-0.595-0.75-0.595-1.191c0-0.978,0.823-1.564,1.754-1.564L256.969,57.044L256.969,57.044z"/>
	<path fill="#FFFFFF" d="M260.58,59.14c-0.367,0-0.897,0.62-1.142,1.542c0.399-0.082,1.068-0.27,1.256-0.562
		c0.098-0.147,0.147-0.345,0.147-0.58c0-0.293-0.115-0.399-0.253-0.399L260.58,59.14L260.58,59.14z M261.429,61.669
		c-0.432,0.612-1.102,0.986-1.819,0.986c-0.645,0-1.231-0.303-1.249-1.265c-0.016-1.035,0.882-2.553,2.333-2.553
		c0.652,0,0.986,0.383,1.003,0.872c0,0.229-0.089,0.439-0.253,0.562c-0.27,0.304-1.403,0.612-2.055,0.719
		c-0.041,0.163-0.057,0.295-0.049,0.44c0,0.358,0.139,0.718,0.612,0.718c0.538,0,1.118-0.425,1.418-0.782h0.017L261.429,61.669
		L261.429,61.669z"/>
	<path fill="#FFFFFF" d="M262.112,59.231c0.27-0.146,1.06-0.366,1.346-0.392l0.017,0.007c0.016,0.254-0.024,0.743-0.188,1.404h0.025
		c0.693-1.289,1.24-1.411,1.549-1.411c0.14,0,0.254,0.04,0.327,0.097c-0.008,0.229-0.286,0.947-0.432,1.15l-0.123,0.064
		c-0.064-0.122-0.146-0.357-0.244-0.685c-0.016-0.009-0.033-0.009-0.05-0.009c-0.113,0-0.48,0.204-1.003,1.387
		c-0.187,0.416-0.342,0.946-0.554,1.705l-0.938,0.065c0.448-1.421,0.775-2.774,0.808-3.107l-0.587-0.091L262.112,59.231
		L262.112,59.231z"/>
	<path fill="#FFFFFF" d="M265.494,59.434l0.042-0.196c0.268-0.146,1.239-0.397,1.394-0.397l0.024,0.016
		c0.008,0.954,0.016,1.886,0.064,2.855h0.018c0.375-0.376,0.84-0.995,1.036-1.444c0.155-0.358,0.245-0.709,0.204-1.297
		c0.172-0.104,0.417-0.164,0.62-0.171l0.016,0.007c0.058,0.091,0.115,0.312,0.115,0.522c0.008,0.856-1.591,2.333-2.268,3.101
		c-0.106,0.105-0.399,0.212-0.521,0.236l-0.033-0.018c-0.017-0.254-0.065-1.509-0.115-2.405c-0.024-0.448-0.056-0.693-0.065-0.733
		L265.494,59.434L265.494,59.434z"/>
	<path fill="#FFFFFF" d="M271.202,59.14c-0.367,0-0.897,0.62-1.142,1.542c0.4-0.082,1.068-0.27,1.255-0.562
		c0.098-0.147,0.147-0.345,0.147-0.58c0-0.293-0.114-0.399-0.252-0.399L271.202,59.14L271.202,59.14z M272.051,61.669
		c-0.432,0.612-1.102,0.986-1.819,0.986c-0.644,0-1.231-0.303-1.248-1.265c-0.016-1.035,0.881-2.553,2.333-2.553
		c0.653,0,0.989,0.383,1.004,0.872c0,0.229-0.089,0.439-0.253,0.562c-0.268,0.304-1.403,0.612-2.055,0.719
		c-0.041,0.163-0.057,0.295-0.049,0.44c0,0.358,0.139,0.718,0.612,0.718c0.539,0,1.118-0.425,1.418-0.782h0.017L272.051,61.669
		L272.051,61.669z"/>
	<path fill="#FFFFFF" d="M273.27,58.45c0.111-0.028,0.244-0.035,0.363-0.035c0.245,0,0.342,0.084,0.342,0.203
		c0,0.125-0.098,0.175-0.154,0.201c0.028,0.062,0.098,0.16,0.161,0.244c0.063,0.105,0.084,0.127,0.105,0.153l-0.007,0.021
		c-0.181-0.007-0.238-0.048-0.293-0.091c-0.056-0.056-0.132-0.174-0.195-0.313c0.104-0.041,0.161-0.076,0.161-0.175
		c0-0.098-0.084-0.146-0.196-0.14v0.593l0.132,0.035l-0.021,0.069h-0.418l0.013-0.069l0.098-0.026v-0.587h-0.111L273.27,58.45
		L273.27,58.45z M273.64,58.151c-0.349,0-0.635,0.313-0.635,0.691c0,0.376,0.286,0.69,0.642,0.69c0.35,0,0.629-0.314,0.629-0.698
		c0-0.37-0.279-0.685-0.629-0.685L273.64,58.151L273.64,58.151z M273.654,57.982c0.461,0,0.831,0.371,0.831,0.86
		c0,0.488-0.37,0.866-0.845,0.866c-0.476,0-0.845-0.378-0.845-0.866c0-0.482,0.377-0.86,0.852-0.86H273.654L273.654,57.982z"/>
</g>
</svg>
