<?xml version="1.0" encoding="utf-8"?>
<!-- Generator: Adobe Illustrator 15.0.2, SVG Export Plug-In . SVG Version: 6.00 Build 0)  -->
<!DOCTYPE svg PUBLIC "-//W3C//DTD SVG 1.1//EN" "http://www.w3.org/Graphics/SVG/1.1/DTD/svg11.dtd">
<svg version="1.1" id="Layer_1" xmlns="http://www.w3.org/2000/svg" xmlns:xlink="http://www.w3.org/1999/xlink" x="0px" y="0px"
	 width="596.426px" height="100.133px" viewBox="0 0 596.426 100.133" enable-background="new 0 0 596.426 100.133"
	 xml:space="preserve">
<g id="sky">
</g>
<g id="hills3">
</g>
<g id="hills1">
</g>
<g id="tractor">
</g>
<g id="hills">
</g>
<g id="foreground">
</g>
<g id="cows">
</g>
<g id="balloons">
</g>
<path fill="#00B6D2" d="M0.975,64.426c0,0.174-0.219,0.314-0.488,0.314l0,0C0.219,64.74,0,64.6,0,64.426V42.852
	c0-0.174,0.219-0.312,0.486-0.312l0,0c0.27,0,0.488,0.141,0.488,0.312L0.975,64.426L0.975,64.426z"/>
<rect x="123.992" y="51.225" fill="#006796" width="33.896" height="1.094"/>
<circle fill="#606049" cx="46.795" cy="44.912" r="3.375"/>
<path fill="#606049" d="M51.67,52.131c0,1.52-1.369,2.75-3.062,2.75l0,0c-1.693,0-3.062-1.23-3.062-2.75V48.85
	c0-1.52,1.369-2.75,3.062-2.75l0,0c1.693,0,3.062,1.23,3.062,2.75V52.131z"/>
<path fill="#00B6D2" d="M129.322,46.486c0,5.896-3.588,10.349-9.477,10.349c-5.889,0-24.418-6.938-18.771-8.611
	c9.842-2.916,11.697-12.393,17.586-12.393C124.549,35.826,129.322,40.6,129.322,46.486z"/>
<path fill="#006796" d="M28.512,73.732c-0.012,0.125-0.432,0.188-0.941,0.146l0,0c-0.504-0.045-0.912-0.187-0.9-0.312l4.605-16.108
	c0.008-0.125,0.428-0.19,0.939-0.146l0,0c0.506,0.043,0.912,0.185,0.902,0.31L28.512,73.732z"/>
<rect x="0.523" y="52.41" fill="#006796" width="3.826" height="2.316"/>
<circle fill="#006796" cx="27.022" cy="75.59" r="3.372"/>
<path fill="#00B6D2" d="M121.986,50.77c0,0-41.223-5.958-68.795-6.922c-0.705-0.025-0.025,3.482-0.734,3.461
	c-2.4-0.082-7.07,0.887-9.471,0.82c-0.631-0.021-0.508-1.969-1.135-1.984C15.514,45.459,6.072,47.357,3.264,50.77
	c-1.951,2.373-0.201,6.9,1.828,10.08c3.729,0.229,13.016,4.062,15.934,4.316c7.014,0.625,13.793,0.125,20.699-1.143
	c14.025-2.56,26.543-8.646,41.121-8.556c3.537,0.021,22.252-0.521,29.873,2.673c5.688-0.935,9.268-1.545,9.268-1.545L121.986,50.77
	L121.986,50.77z"/>
<path fill="#006796" d="M82.846,55.475c-14.578-0.09-27.201,3.396-41.227,5.957c-6.906,1.258-17.316-1.928-24.33-2.553
	c-2.916-0.26-8.469,2.197-12.197,1.971c0.146,0.23,0.293,0.457,0.443,0.672c6.686,9.66,28.717,6.523,38.453,6.021
	c15.119-0.789,51.549-6.566,68.73-9.396C105.098,54.953,86.383,55.496,82.846,55.475z"/>
<path fill="#006796" d="M31.227,63.074c0.074,0.229-0.18,0.506-0.561,0.623l0,0c-0.377,0.111-0.742,0.021-0.812-0.197l-8.717-28.174
	c-0.074-0.229,0.18-0.511,0.561-0.625l0,0c0.377-0.117,0.742-0.027,0.812,0.194L31.227,63.074z"/>
<path fill="#006796" d="M42.148,60.818c0.072,0.229-0.18,0.509-0.561,0.621l0,0c-0.377,0.117-0.744,0.025-0.814-0.194l-8.717-28.177
	c-0.072-0.227,0.182-0.508,0.559-0.625l0,0c0.379-0.112,0.746-0.022,0.814,0.199L42.148,60.818z"/>
<path fill="#00B6D2" d="M76.062,63.818c0,1.42-1.07,1.275-2.043,1.275l-51.967,1.295c-0.973,0-1.76-1.15-1.76-2.57l0,0
	c0-1.422,0.867-4.479,1.84-4.479l52.17,1.91C75.275,61.248,76.062,62.396,76.062,63.818L76.062,63.818z"/>
<path fill="#00B6D2" d="M64.764,34.477c0,1.42-1.07,1.279-2.043,1.279l-51.967,1.293c-0.973,0-1.76-1.152-1.76-2.572l0,0
	c0-1.42,0.867-4.479,1.84-4.479l52.17,1.908C63.977,31.906,64.764,33.057,64.764,34.477L64.764,34.477z"/>
<g>
	<polygon fill="#0079A3" points="596.426,95.766 530.09,95.766 530.09,16.37 596.426,16.37 578.294,56.068 	"/>
	<polygon fill="#006796" points="540.523,95.656 530.001,95.766 530.001,16.37 540.523,16.262 	"/>
	<polygon fill="#00516D" points="537.29,86.896 530.001,95.766 530.001,16.37 537.29,7.5 	"/>
	<rect x="156.611" y="7.5" fill="#0079A3" width="380.89" height="79.396"/>
</g>
<g>
	<g enable-background="new    ">
		<path fill="#FFFFFF" d="M273.329,17.063c0.57-0.135,1.485-0.225,2.385-0.225c1.305,0,2.145,0.225,2.76,0.734
			c0.525,0.391,0.855,0.989,0.855,1.784c0,0.99-0.66,1.846-1.71,2.221v0.045c0.96,0.226,2.085,1.021,2.085,2.521
			c0,0.87-0.345,1.545-0.87,2.024c-0.69,0.646-1.83,0.944-3.479,0.944c-0.9,0-1.59-0.06-2.025-0.12L273.329,17.063L273.329,17.063z
			 M274.633,21.203h1.185c1.365,0,2.175-0.734,2.175-1.71c0-1.17-0.885-1.649-2.205-1.649c-0.6,0-0.945,0.045-1.155,0.09V21.203z
			 M274.633,26.032c0.27,0.045,0.63,0.062,1.095,0.062c1.35,0,2.595-0.495,2.595-1.965c0-1.365-1.185-1.95-2.61-1.95h-1.08V26.032
			L274.633,26.032z"/>
	</g>
	<g enable-background="new    ">
		<path fill="#FFFFFF" d="M282.208,23.633c0.03,1.784,1.155,2.52,2.49,2.52c0.945,0,1.53-0.165,2.01-0.375l0.24,0.945
			c-0.465,0.21-1.275,0.465-2.43,0.465c-2.235,0-3.57-1.485-3.57-3.675s1.29-3.9,3.405-3.9c2.385,0,3,2.07,3,3.405
			c0,0.271-0.015,0.465-0.045,0.615H282.208z M286.077,22.688c0.015-0.825-0.345-2.13-1.83-2.13c-1.35,0-1.92,1.215-2.025,2.13
			H286.077z"/>
	</g>
	<g enable-background="new    ">
		<path fill="#FFFFFF" d="M295.198,25.957c0,1.682-0.345,2.687-1.035,3.33c-0.72,0.646-1.74,0.87-2.655,0.87
			c-0.87,0-1.83-0.21-2.415-0.6l0.33-1.021c0.48,0.315,1.23,0.585,2.13,0.585c1.35,0,2.34-0.705,2.34-2.55v-0.795h-0.03
			c-0.39,0.675-1.185,1.215-2.31,1.215c-1.8,0-3.09-1.528-3.09-3.54c0-2.459,1.605-3.84,3.285-3.84c1.26,0,1.935,0.646,2.265,1.245
			h0.03l0.045-1.095h1.17c-0.045,0.51-0.06,1.109-0.06,1.979V25.957L295.198,25.957z M293.878,22.629
			c0-0.227-0.015-0.421-0.075-0.586c-0.24-0.779-0.87-1.409-1.845-1.409c-1.26,0-2.16,1.063-2.16,2.745
			c0,1.425,0.735,2.608,2.145,2.608c0.825,0,1.56-0.51,1.83-1.35c0.075-0.227,0.105-0.48,0.105-0.705V22.629L293.878,22.629z"/>
	</g>
	<g enable-background="new    ">
		<path fill="#FFFFFF" d="M298.754,17.723c0,0.45-0.315,0.811-0.84,0.811c-0.48,0-0.795-0.359-0.795-0.811
			c0-0.452,0.33-0.825,0.825-0.825C298.423,16.898,298.754,17.258,298.754,17.723z M297.283,27.023v-7.26h1.32v7.26H297.283z"/>
		<path fill="#FFFFFF" d="M300.793,21.728c0-0.765-0.016-1.365-0.061-1.965h1.17l0.076,1.2h0.026c0.36-0.676,1.2-1.352,2.399-1.352
			c1.006,0,2.562,0.602,2.562,3.09v4.32h-1.32v-4.185c0-1.171-0.435-2.146-1.68-2.146c-0.854,0-1.529,0.615-1.77,1.351
			c-0.061,0.165-0.09,0.391-0.09,0.614v4.365h-1.32v-5.292H300.793z"/>
	</g>
	<g enable-background="new    ">
		<path fill="#FFFFFF" d="M317.473,26.768c-0.345,0.165-1.106,0.42-2.084,0.42c-2.188,0-3.612-1.485-3.612-3.705
			c0-2.234,1.526-3.87,3.896-3.87c0.78,0,1.47,0.195,1.83,0.392l-0.3,1.005c-0.315-0.165-0.812-0.346-1.53-0.346
			c-1.665,0-2.562,1.244-2.562,2.744c0,1.682,1.077,2.715,2.521,2.715c0.75,0,1.245-0.18,1.62-0.345L317.473,26.768z"/>
	</g>
	<g enable-background="new    ">
		<path fill="#FFFFFF" d="M325.498,23.333c0,2.686-1.875,3.854-3.614,3.854c-1.95,0-3.479-1.44-3.479-3.735
			c0-2.414,1.604-3.84,3.6-3.84C324.089,19.613,325.498,21.129,325.498,23.333z M319.754,23.407c0,1.59,0.9,2.79,2.189,2.79
			c1.26,0,2.205-1.185,2.205-2.818c0-1.23-0.615-2.775-2.178-2.775C320.429,20.603,319.754,22.043,319.754,23.407z"/>
		<path fill="#FFFFFF" d="M327.164,16.373h1.32v10.649h-1.32V16.373z"/>
		<path fill="#FFFFFF" d="M330.703,16.373h1.32v10.649h-1.32V16.373z"/>
		<path fill="#FFFFFF" d="M334.979,23.633c0.03,1.784,1.155,2.52,2.49,2.52c0.945,0,1.529-0.165,2.01-0.375l0.24,0.945
			c-0.465,0.21-1.272,0.465-2.43,0.465c-2.235,0-3.57-1.485-3.57-3.675s1.29-3.9,3.404-3.9c2.386,0,3,2.07,3,3.405
			c0,0.271-0.015,0.465-0.045,0.615H334.979z M338.849,22.688c0.018-0.825-0.345-2.13-1.83-2.13c-1.35,0-1.92,1.215-2.021,2.13
			H338.849z"/>
	</g>
	<g enable-background="new    ">
		<path fill="#FFFFFF" d="M346.932,26.768c-0.345,0.165-1.106,0.42-2.084,0.42c-2.188,0-3.612-1.485-3.612-3.705
			c0-2.234,1.526-3.87,3.896-3.87c0.78,0,1.47,0.195,1.83,0.392l-0.3,1.005c-0.315-0.165-0.812-0.346-1.53-0.346
			c-1.665,0-2.562,1.244-2.562,2.744c0,1.682,1.079,2.715,2.521,2.715c0.75,0,1.245-0.18,1.62-0.345L346.932,26.768z"/>
	</g>
	<g enable-background="new    ">
		<path fill="#FFFFFF" d="M350.264,18.023v1.74h1.892v1.005h-1.892v3.915c0,0.899,0.254,1.41,0.989,1.41
			c0.36,0,0.569-0.03,0.765-0.091l0.062,1.006c-0.256,0.09-0.66,0.18-1.17,0.18c-0.615,0-1.11-0.21-1.426-0.555
			c-0.359-0.405-0.513-1.051-0.513-1.905v-3.96h-1.125v-1.005h1.125v-1.351L350.264,18.023z"/>
		<path fill="#FFFFFF" d="M355.107,17.723c0,0.45-0.314,0.811-0.843,0.811c-0.479,0-0.795-0.359-0.795-0.811
			c0-0.452,0.33-0.825,0.825-0.825C354.777,16.898,355.107,17.258,355.107,17.723z M353.638,27.023v-7.26h1.32v7.26H353.638z"/>
		<path fill="#FFFFFF" d="M357.147,21.728c0-0.765-0.018-1.365-0.062-1.965h1.17l0.074,1.2h0.031
			c0.356-0.676,1.196-1.352,2.396-1.352c1.005,0,2.565,0.602,2.565,3.09v4.32h-1.32v-4.185c0-1.171-0.436-2.146-1.68-2.146
			c-0.855,0-1.53,0.615-1.771,1.351c-0.06,0.165-0.09,0.391-0.09,0.614v4.365h-1.32v-5.292H357.147z"/>
		<path fill="#FFFFFF" d="M371.683,25.957c0,1.682-0.345,2.687-1.032,3.33c-0.723,0.646-1.739,0.87-2.655,0.87
			c-0.869,0-1.829-0.21-2.414-0.6l0.33-1.021c0.479,0.315,1.229,0.585,2.129,0.585c1.351,0,2.341-0.705,2.341-2.55v-0.795h-0.03
			c-0.391,0.675-1.186,1.215-2.311,1.215c-1.799,0-3.09-1.528-3.09-3.54c0-2.459,1.604-3.84,3.285-3.84
			c1.26,0,1.936,0.646,2.266,1.245h0.029l0.045-1.095h1.17c-0.045,0.51-0.062,1.109-0.062,1.979V25.957z M370.363,22.629
			c0-0.227-0.019-0.421-0.076-0.586c-0.239-0.779-0.869-1.409-1.844-1.409c-1.264,0-2.16,1.063-2.16,2.745
			c0,1.425,0.731,2.608,2.145,2.608c0.825,0,1.562-0.51,1.83-1.35c0.074-0.227,0.105-0.48,0.105-0.705V22.629z"/>
		<path fill="#FFFFFF" d="M377.037,22.133c0-0.931-0.029-1.681-0.062-2.37h1.171l0.074,1.245h0.029
			c0.525-0.886,1.396-1.396,2.58-1.396c1.77,0,3.09,1.485,3.09,3.676c0,2.609-1.604,3.899-3.312,3.899
			c-0.962,0-1.804-0.42-2.235-1.14h-0.03v3.943h-1.305V22.133L377.037,22.133z M378.342,24.068c0,0.195,0.019,0.375,0.062,0.54
			c0.237,0.915,1.035,1.545,1.979,1.545c1.396,0,2.204-1.14,2.204-2.805c0-1.44-0.765-2.686-2.159-2.686
			c-0.897,0-1.756,0.63-1.996,1.619c-0.045,0.165-0.09,0.36-0.09,0.525V24.068L378.342,24.068z"/>
		<path fill="#FFFFFF" d="M391.647,25.028c0,0.766,0.015,1.425,0.06,1.995h-1.17l-0.074-1.185h-0.031
			c-0.329,0.585-1.106,1.35-2.396,1.35c-1.143,0-2.505-0.646-2.505-3.18v-4.245h1.317v4.005c0,1.38,0.438,2.325,1.619,2.325
			c0.886,0,1.5-0.615,1.74-1.216c0.075-0.181,0.12-0.42,0.12-0.676v-4.438h1.317L391.647,25.028L391.647,25.028z"/>
		<path fill="#FFFFFF" d="M393.837,16.373h1.306v4.561h0.029c0.465-0.811,1.305-1.32,2.478-1.32c1.812,0,3.072,1.5,3.072,3.69
			c0,2.595-1.646,3.885-3.27,3.885c-1.05,0-1.891-0.405-2.444-1.35h-0.031l-0.071,1.185h-1.125c0.026-0.495,0.06-1.229,0.06-1.875
			L393.837,16.373L393.837,16.373z M395.143,24.113c0,0.165,0.018,0.33,0.062,0.48c0.239,0.915,1.021,1.545,1.979,1.545
			c1.396,0,2.205-1.125,2.205-2.79c0-1.455-0.75-2.7-2.175-2.7c-0.885,0-1.725,0.63-1.995,1.62
			c-0.045,0.165-0.074,0.345-0.074,0.555L395.143,24.113L395.143,24.113z"/>
		<path fill="#FFFFFF" d="M402.371,16.373h1.32v10.649h-1.32V16.373z"/>
		<path fill="#FFFFFF" d="M407.382,17.723c0,0.45-0.312,0.811-0.84,0.811c-0.479,0-0.795-0.359-0.795-0.811
			c0-0.452,0.329-0.825,0.825-0.825C407.052,16.898,407.382,17.258,407.382,17.723z M405.912,27.023v-7.26h1.32v7.26H405.912z"/>
		<path fill="#FFFFFF" d="M414.596,26.768c-0.344,0.165-1.106,0.42-2.084,0.42c-2.188,0-3.612-1.485-3.612-3.705
			c0-2.234,1.527-3.87,3.897-3.87c0.779,0,1.47,0.195,1.83,0.392l-0.301,1.005c-0.314-0.165-0.812-0.346-1.529-0.346
			c-1.666,0-2.562,1.244-2.562,2.744c0,1.682,1.078,2.715,2.521,2.715c0.75,0,1.244-0.18,1.619-0.345L414.596,26.768z"/>
		<path fill="#FFFFFF" d="M419.321,22.133c0-0.931-0.03-1.681-0.062-2.37h1.17l0.074,1.245h0.031
			c0.521-0.886,1.395-1.396,2.579-1.396c1.771,0,3.09,1.485,3.09,3.676c0,2.609-1.604,3.899-3.314,3.899
			c-0.96,0-1.8-0.42-2.232-1.14h-0.029v3.943h-1.306V22.133L419.321,22.133z M420.627,24.068c0,0.195,0.015,0.375,0.062,0.54
			c0.236,0.915,1.031,1.545,1.979,1.545c1.396,0,2.205-1.14,2.205-2.805c0-1.44-0.766-2.686-2.16-2.686
			c-0.896,0-1.754,0.63-1.994,1.619c-0.045,0.165-0.09,0.36-0.09,0.525L420.627,24.068L420.627,24.068z"/>
		<path fill="#FFFFFF" d="M433.932,25.028c0,0.766,0.017,1.425,0.062,1.995h-1.17l-0.074-1.185h-0.03
			c-0.329,0.585-1.107,1.35-2.396,1.35c-1.144,0-2.506-0.646-2.506-3.18v-4.245h1.317v4.005c0,1.38,0.438,2.325,1.62,2.325
			c0.886,0,1.5-0.615,1.74-1.216c0.075-0.181,0.12-0.42,0.12-0.676v-4.438h1.317V25.028L433.932,25.028z"/>
	</g>
	<g enable-background="new    ">
		<path fill="#FFFFFF" d="M436.12,22.028c0-0.854-0.015-1.59-0.062-2.265h1.154l0.062,1.439h0.045
			c0.33-0.976,1.141-1.591,2.022-1.591c0.137,0,0.239,0.016,0.359,0.03v1.245c-0.135-0.03-0.271-0.03-0.449-0.03
			c-0.931,0-1.591,0.69-1.771,1.681c-0.03,0.181-0.046,0.404-0.046,0.614v3.87h-1.319L436.12,22.028L436.12,22.028z"/>
	</g>
	<g enable-background="new    ">
		<path fill="#FFFFFF" d="M441.085,22.133c0-0.931-0.03-1.681-0.06-2.37h1.17l0.074,1.245h0.028
			c0.524-0.886,1.396-1.396,2.579-1.396c1.771,0,3.09,1.485,3.09,3.676c0,2.609-1.604,3.899-3.312,3.899
			c-0.96,0-1.8-0.42-2.235-1.14h-0.029v3.943h-1.306V22.133L441.085,22.133z M442.391,24.068c0,0.195,0.018,0.375,0.062,0.54
			c0.239,0.915,1.034,1.545,1.979,1.545c1.396,0,2.205-1.14,2.205-2.805c0-1.44-0.765-2.686-2.16-2.686
			c-0.896,0-1.754,0.63-1.992,1.619c-0.045,0.165-0.092,0.36-0.092,0.525L442.391,24.068L442.391,24.068z"/>
		<path fill="#FFFFFF" d="M456.189,23.333c0,2.686-1.875,3.854-3.615,3.854c-1.949,0-3.479-1.44-3.479-3.735
			c0-2.414,1.604-3.84,3.604-3.84C454.779,19.613,456.189,21.129,456.189,23.333z M450.445,23.407c0,1.59,0.896,2.79,2.188,2.79
			c1.261,0,2.205-1.185,2.205-2.818c0-1.23-0.615-2.775-2.176-2.775C451.119,20.603,450.445,22.043,450.445,23.407z"/>
		<path fill="#FFFFFF" d="M457.675,25.688c0.405,0.24,1.095,0.51,1.755,0.51c0.945,0,1.396-0.465,1.396-1.08
			c0-0.63-0.375-0.96-1.334-1.318c-1.32-0.48-1.938-1.187-1.938-2.056c0-1.171,0.96-2.131,2.505-2.131
			c0.735,0,1.381,0.195,1.771,0.45l-0.315,0.96c-0.284-0.18-0.81-0.435-1.482-0.435c-0.779,0-1.199,0.449-1.199,0.989
			c0,0.601,0.42,0.869,1.365,1.244c1.243,0.466,1.901,1.096,1.901,2.175c0,1.29-1.005,2.19-2.697,2.19c-0.797,0-1.53-0.21-2.04-0.51
			L457.675,25.688z"/>
		<path fill="#FFFFFF" d="M464.529,23.633c0.027,1.784,1.152,2.52,2.487,2.52c0.945,0,1.529-0.165,2.013-0.375l0.237,0.945
			c-0.465,0.21-1.272,0.465-2.43,0.465c-2.233,0-3.57-1.485-3.57-3.675s1.29-3.9,3.404-3.9c2.386,0,3,2.07,3,3.405
			c0,0.271-0.015,0.465-0.045,0.615H464.529z M468.399,22.688c0.015-0.825-0.348-2.13-1.83-2.13c-1.353,0-1.92,1.215-2.024,2.13
			H468.399z"/>
		<path fill="#FFFFFF" d="M474.625,27.023v-6.255h-1.006v-1.005h1.006v-0.345c0-1.021,0.239-1.949,0.84-2.534
			c0.494-0.479,1.154-0.676,1.771-0.676c0.479,0,0.869,0.104,1.125,0.21l-0.183,1.021c-0.192-0.09-0.448-0.165-0.84-0.165
			c-1.125,0-1.41,0.976-1.41,2.101v0.391h1.755v1.004h-1.755v6.255h-1.305L474.625,27.023L474.625,27.023z"/>
		<path fill="#FFFFFF" d="M484.944,25.028c0,0.766,0.015,1.425,0.06,1.995h-1.17l-0.074-1.185h-0.031
			c-0.326,0.585-1.106,1.35-2.396,1.35c-1.143,0-2.505-0.646-2.505-3.18v-4.245h1.317v4.005c0,1.38,0.438,2.325,1.619,2.325
			c0.889,0,1.5-0.615,1.74-1.216c0.075-0.181,0.12-0.42,0.12-0.676v-4.438h1.32V25.028z"/>
		<path fill="#FFFFFF" d="M487.135,21.728c0-0.765-0.016-1.365-0.061-1.965h1.17l0.075,1.2h0.027c0.359-0.676,1.199-1.352,2.4-1.352
			c1.004,0,2.562,0.602,2.562,3.09v4.32h-1.317v-4.185c0-1.171-0.438-2.146-1.683-2.146c-0.854,0-1.526,0.615-1.77,1.351
			c-0.061,0.165-0.09,0.391-0.09,0.614v4.365h-1.32v-5.292H487.135z"/>
		<path fill="#FFFFFF" d="M501.714,16.373v8.774c0,0.646,0.03,1.38,0.062,1.875h-1.173l-0.06-1.26h-0.045
			c-0.39,0.81-1.26,1.425-2.444,1.425c-1.756,0-3.121-1.485-3.121-3.689c-0.014-2.415,1.5-3.886,3.258-3.886
			c1.125,0,1.857,0.525,2.188,1.096h0.03v-4.335H501.714z M500.409,22.718c0-0.165-0.018-0.391-0.062-0.556
			c-0.192-0.824-0.916-1.516-1.902-1.516c-1.365,0-2.176,1.2-2.176,2.79c0,1.47,0.732,2.685,2.146,2.685
			c0.885,0,1.695-0.6,1.936-1.573c0.045-0.182,0.062-0.36,0.062-0.57L500.409,22.718L500.409,22.718z"/>
		<path fill="#FFFFFF" d="M503.739,25.688c0.405,0.24,1.095,0.51,1.755,0.51c0.945,0,1.395-0.465,1.395-1.08
			c0-0.63-0.375-0.96-1.334-1.318c-1.317-0.48-1.936-1.187-1.936-2.056c0-1.171,0.96-2.131,2.505-2.131
			c0.735,0,1.38,0.195,1.771,0.45l-0.312,0.96c-0.285-0.18-0.812-0.435-1.485-0.435c-0.776,0-1.196,0.449-1.196,0.989
			c0,0.601,0.42,0.869,1.362,1.244c1.244,0.466,1.904,1.096,1.904,2.175c0,1.29-1.005,2.19-2.7,2.19c-0.795,0-1.529-0.21-2.04-0.51
			L503.739,25.688z"/>
		<path fill="#FFFFFF" d="M514.509,17.723c0,0.45-0.312,0.811-0.84,0.811c-0.479,0-0.795-0.359-0.795-0.811
			c0-0.452,0.329-0.825,0.825-0.825C514.179,16.898,514.509,17.258,514.509,17.723z M513.039,27.023v-7.26h1.32v7.26H513.039z"/>
		<path fill="#FFFFFF" d="M516.549,21.728c0-0.765-0.015-1.365-0.06-1.965h1.17l0.075,1.2h0.026c0.36-0.676,1.2-1.352,2.4-1.352
			c1.005,0,2.562,0.602,2.562,3.09v4.32h-1.317v-4.185c0-1.171-0.438-2.146-1.683-2.146c-0.854,0-1.526,0.615-1.77,1.351
			c-0.062,0.165-0.09,0.391-0.09,0.614v4.365h-1.32v-5.292H516.549z"/>
	</g>
	<g enable-background="new    ">
		<path fill="#FFFFFF" d="M281.848,39.583c-0.075-1.409-0.165-3.119-0.165-4.364h-0.03c-0.36,1.17-0.765,2.444-1.275,3.84
			l-1.785,4.905h-0.99l-1.65-4.815c-0.48-1.439-0.87-2.729-1.155-3.93h-0.03c-0.03,1.26-0.105,2.938-0.195,4.47l-0.27,4.335h-1.245
			l0.705-10.109h1.665l1.725,4.891c0.42,1.245,0.75,2.354,1.02,3.404h0.03c0.27-1.021,0.63-2.131,1.08-3.404l1.8-4.891h1.665
			l0.63,10.109h-1.29L281.848,39.583z"/>
	</g>
	<g enable-background="new    ">
		<path fill="#FFFFFF" d="M290.532,42.282c0,0.63,0.03,1.245,0.105,1.74h-1.185l-0.105-0.915h-0.045
			c-0.405,0.57-1.185,1.08-2.22,1.08c-1.47,0-2.22-1.035-2.22-2.085c0-1.755,1.56-2.715,4.365-2.7v-0.148
			c0-0.586-0.165-1.682-1.65-1.665c-0.69,0-1.395,0.193-1.905,0.54l-0.3-0.886c0.6-0.375,1.485-0.631,2.4-0.631
			c2.22,0,2.76,1.517,2.76,2.955V42.282z M289.257,40.318c-1.44-0.029-3.075,0.226-3.075,1.635c0,0.87,0.57,1.262,1.23,1.262
			c0.96,0,1.575-0.602,1.785-1.217c0.045-0.148,0.06-0.3,0.06-0.42V40.318z"/>
	</g>
	<g enable-background="new    ">
		<path fill="#FFFFFF" d="M292.663,39.028c0-0.854-0.015-1.59-0.06-2.265h1.155l0.06,1.439h0.045c0.33-0.976,1.14-1.591,2.025-1.591
			c0.135,0,0.24,0.016,0.36,0.03v1.245c-0.135-0.03-0.27-0.03-0.45-0.03c-0.93,0-1.59,0.69-1.77,1.681
			c-0.03,0.181-0.045,0.404-0.045,0.614v3.87h-1.32V39.028L292.663,39.028z"/>
	</g>
	<g enable-background="new    ">
		<path fill="#FFFFFF" d="M302.594,43.768c-0.346,0.165-1.109,0.42-2.085,0.42c-2.19,0-3.615-1.485-3.615-3.705
			c0-2.234,1.53-3.87,3.899-3.87c0.781,0,1.471,0.195,1.83,0.392l-0.299,1.005c-0.316-0.165-0.811-0.346-1.531-0.346
			c-1.664,0-2.564,1.244-2.564,2.744c0,1.682,1.08,2.715,2.52,2.715c0.75,0,1.246-0.18,1.621-0.345L302.594,43.768z"/>
		<path fill="#FFFFFF" d="M304.139,33.373h1.32v4.545h0.029c0.21-0.375,0.54-0.721,0.942-0.944c0.393-0.226,0.854-0.36,1.353-0.36
			c0.975,0,2.535,0.602,2.535,3.09v4.32h-1.32v-4.17c0-1.17-0.437-2.146-1.68-2.146c-0.855,0-1.517,0.601-1.771,1.306
			c-0.074,0.194-0.09,0.39-0.09,0.63v4.38h-1.318V33.373L304.139,33.373z"/>
	</g>
	<g enable-background="new    ">
		<path fill="#FFFFFF" d="M317.232,35.023v1.74h1.889v1.005h-1.889v3.915c0,0.899,0.254,1.41,0.986,1.41
			c0.36,0,0.569-0.03,0.768-0.091l0.061,1.006c-0.256,0.09-0.66,0.18-1.17,0.18c-0.615,0-1.11-0.21-1.426-0.555
			c-0.359-0.405-0.51-1.051-0.51-1.905v-3.96h-1.125v-1.005h1.125v-1.351L317.232,35.023z"/>
	</g>
	<g enable-background="new    ">
		<path fill="#FFFFFF" d="M327.086,40.333c0,2.686-1.875,3.854-3.614,3.854c-1.95,0-3.479-1.44-3.479-3.735
			c0-2.414,1.604-3.84,3.6-3.84C325.677,36.613,327.086,38.129,327.086,40.333z M321.342,40.407c0,1.59,0.9,2.79,2.189,2.79
			c1.26,0,2.205-1.185,2.205-2.818c0-1.23-0.615-2.775-2.178-2.775C322.017,37.603,321.342,39.043,321.342,40.407z"/>
		<path fill="#FFFFFF" d="M331.752,42.688c0.404,0.24,1.095,0.51,1.755,0.51c0.944,0,1.396-0.465,1.396-1.08
			c0-0.63-0.375-0.96-1.336-1.318c-1.319-0.48-1.938-1.187-1.938-2.056c0-1.171,0.96-2.131,2.505-2.131
			c0.734,0,1.38,0.195,1.771,0.45l-0.314,0.96c-0.285-0.18-0.811-0.435-1.481-0.435c-0.781,0-1.201,0.449-1.201,0.989
			c0,0.601,0.42,0.869,1.365,1.244c1.242,0.466,1.902,1.096,1.902,2.175c0,1.29-1.005,2.19-2.7,2.19c-0.795,0-1.526-0.21-2.036-0.51
			L331.752,42.688z"/>
		<path fill="#FFFFFF" d="M338.606,40.633c0.027,1.784,1.152,2.52,2.486,2.52c0.945,0,1.53-0.165,2.013-0.375l0.237,0.945
			c-0.465,0.21-1.271,0.465-2.43,0.465c-2.234,0-3.57-1.485-3.57-3.675s1.291-3.9,3.405-3.9c2.386,0,3,2.07,3,3.405
			c0,0.271-0.015,0.465-0.045,0.615H338.606z M342.477,39.688c0.018-0.825-0.346-2.13-1.827-2.13c-1.353,0-1.923,1.215-2.025,2.13
			H342.477z"/>
	</g>
	<g enable-background="new    ">
		<path fill="#FFFFFF" d="M345.388,39.028c0-0.854-0.015-1.59-0.06-2.265h1.154l0.061,1.439h0.045
			c0.33-0.976,1.141-1.591,2.025-1.591c0.135,0,0.236,0.016,0.356,0.03v1.245c-0.135-0.03-0.27-0.03-0.446-0.03
			c-0.934,0-1.594,0.69-1.771,1.681c-0.03,0.181-0.045,0.404-0.045,0.614v3.87h-1.32L345.388,39.028L345.388,39.028z"/>
	</g>
	<g enable-background="new    ">
		<path fill="#FFFFFF" d="M351.178,36.763l1.424,4.063c0.24,0.676,0.438,1.275,0.589,1.875h0.045c0.164-0.6,0.375-1.199,0.612-1.875
			l1.409-4.063h1.38l-2.85,7.26h-1.26l-2.763-7.26H351.178z"/>
	</g>
	<g enable-background="new    ">
		<path fill="#FFFFFF" d="M358.467,40.633c0.029,1.784,1.154,2.52,2.49,2.52c0.944,0,1.529-0.165,2.01-0.375l0.24,0.945
			c-0.465,0.21-1.275,0.465-2.431,0.465c-2.235,0-3.569-1.485-3.569-3.675s1.289-3.9,3.404-3.9c2.385,0,3,2.07,3,3.405
			c0,0.271-0.018,0.465-0.045,0.615H358.467z M362.336,39.688c0.016-0.825-0.344-2.13-1.83-2.13c-1.35,0-1.92,1.215-2.021,2.13
			H362.336z"/>
		<path fill="#FFFFFF" d="M368.472,34.033c0.63-0.104,1.454-0.194,2.505-0.194c1.289,0,2.234,0.3,2.835,0.84
			c0.54,0.479,0.888,1.215,0.888,2.114c0,0.915-0.271,1.636-0.78,2.16c-0.705,0.734-1.813,1.109-3.09,1.109
			c-0.393,0-0.75-0.015-1.05-0.09v4.05h-1.308V34.033L368.472,34.033z M369.776,38.907c0.282,0.075,0.646,0.105,1.08,0.105
			c1.572,0,2.531-0.78,2.531-2.146c0-1.351-0.959-1.995-2.385-1.995c-0.569,0-1.004,0.045-1.229,0.104L369.776,38.907
			L369.776,38.907z"/>
		<path fill="#FFFFFF" d="M384.161,43.573c-0.585,0.227-1.755,0.557-3.12,0.557c-1.529,0-2.789-0.392-3.779-1.336
			c-0.87-0.841-1.41-2.189-1.41-3.766c0-3.015,2.088-5.22,5.478-5.22c1.17,0,2.1,0.255,2.535,0.465l-0.33,1.065
			c-0.54-0.256-1.215-0.436-2.234-0.436c-2.461,0-4.062,1.529-4.062,4.064c0,2.563,1.527,4.08,3.896,4.08
			c0.855,0,1.44-0.12,1.74-0.271V39.76h-2.04v-1.05h3.33L384.161,43.573L384.161,43.573z"/>
		<path fill="#FFFFFF" d="M391.361,39.282h-3.915v3.646h4.38v1.095h-5.699v-10.11h5.475v1.096h-4.152v3.194h3.915L391.361,39.282
			L391.361,39.282z"/>
		<path fill="#FFFFFF" d="M401.756,42.282c0,0.63,0.029,1.245,0.105,1.74h-1.188l-0.104-0.915h-0.045
			c-0.404,0.57-1.188,1.08-2.222,1.08c-1.471,0-2.221-1.035-2.221-2.085c0-1.755,1.562-2.715,4.365-2.7v-0.148
			c0-0.586-0.166-1.682-1.65-1.665c-0.688,0-1.395,0.193-1.903,0.54l-0.302-0.886c0.603-0.375,1.485-0.631,2.4-0.631
			c2.22,0,2.76,1.517,2.76,2.955L401.756,42.282L401.756,42.282z M400.48,40.318c-1.439-0.029-3.074,0.226-3.074,1.635
			c0,0.87,0.567,1.262,1.229,1.262c0.96,0,1.575-0.602,1.785-1.217c0.045-0.148,0.062-0.3,0.062-0.42L400.48,40.318L400.48,40.318z"
			/>
		<path fill="#FFFFFF" d="M403.886,38.728c0-0.765-0.015-1.365-0.06-1.965h1.17l0.074,1.2h0.028
			c0.359-0.676,1.199-1.352,2.399-1.352c1.005,0,2.564,0.602,2.564,3.09v4.32h-1.319v-4.185c0-1.171-0.438-2.146-1.681-2.146
			c-0.854,0-1.529,0.615-1.771,1.351c-0.06,0.165-0.09,0.391-0.09,0.614v4.365h-1.32v-5.293L403.886,38.728L403.886,38.728z"/>
		<path fill="#FFFFFF" d="M418.465,33.373v8.774c0,0.646,0.031,1.38,0.062,1.875h-1.17l-0.062-1.26h-0.045
			c-0.39,0.81-1.26,1.425-2.444,1.425c-1.755,0-3.12-1.485-3.12-3.689c-0.015-2.415,1.5-3.886,3.258-3.886
			c1.125,0,1.857,0.525,2.188,1.096h0.029v-4.335H418.465z M417.16,39.718c0-0.165-0.018-0.391-0.062-0.556
			c-0.192-0.824-0.915-1.516-1.902-1.516c-1.365,0-2.178,1.2-2.178,2.79c0,1.47,0.735,2.685,2.146,2.685
			c0.885,0,1.694-0.6,1.935-1.573c0.047-0.182,0.062-0.36,0.062-0.57L417.16,39.718L417.16,39.718z"/>
	</g>
	<g enable-background="new    ">
		<path fill="#FFFFFF" d="M423.896,34.033c0.629-0.104,1.451-0.194,2.504-0.194c1.29,0,2.232,0.3,2.835,0.84
			c0.54,0.479,0.886,1.215,0.886,2.114c0,0.915-0.271,1.636-0.78,2.16c-0.705,0.734-1.812,1.109-3.091,1.109
			c-0.389,0-0.749-0.015-1.049-0.09v4.05h-1.305V34.033z M425.201,38.907c0.285,0.075,0.645,0.105,1.08,0.105
			c1.574,0,2.533-0.78,2.533-2.146c0-1.351-0.959-1.995-2.387-1.995c-0.566,0-1.005,0.045-1.229,0.104L425.201,38.907
			L425.201,38.907z"/>
	</g>
	<g enable-background="new    ">
		<path fill="#FFFFFF" d="M436.541,42.282c0,0.63,0.03,1.245,0.105,1.74h-1.188l-0.104-0.915h-0.046
			c-0.402,0.57-1.185,1.08-2.22,1.08c-1.471,0-2.221-1.035-2.221-2.085c0-1.755,1.561-2.715,4.365-2.7v-0.148
			c0-0.586-0.165-1.682-1.65-1.665c-0.688,0-1.396,0.193-1.904,0.54l-0.3-0.886c0.601-0.375,1.485-0.631,2.399-0.631
			c2.221,0,2.76,1.517,2.76,2.955L436.541,42.282L436.541,42.282z M435.267,40.318c-1.438-0.029-3.072,0.226-3.072,1.635
			c0,0.87,0.567,1.262,1.229,1.262c0.959,0,1.574-0.602,1.785-1.217c0.045-0.148,0.06-0.3,0.06-0.42L435.267,40.318L435.267,40.318z
			"/>
		<path fill="#FFFFFF" d="M443.846,43.768c-0.344,0.165-1.106,0.42-2.084,0.42c-2.188,0-3.615-1.485-3.615-3.705
			c0-2.234,1.53-3.87,3.9-3.87c0.779,0,1.47,0.195,1.83,0.392l-0.301,1.005c-0.314-0.165-0.812-0.346-1.529-0.346
			c-1.666,0-2.562,1.244-2.562,2.744c0,1.682,1.078,2.715,2.521,2.715c0.75,0,1.244-0.18,1.619-0.345L443.846,43.768z"/>
		<path fill="#FFFFFF" d="M446.861,34.723c0,0.45-0.314,0.811-0.84,0.811c-0.48,0-0.798-0.359-0.798-0.811
			c0-0.452,0.33-0.825,0.824-0.825C446.531,33.898,446.861,34.258,446.861,34.723z M445.391,44.023v-7.26h1.32v7.26H445.391z"/>
		<path fill="#FFFFFF" d="M449.037,44.023v-6.255h-1.006v-1.005h1.006v-0.405c0-1.904,1.125-3.149,3.164-3.149
			c0.676,0,1.471,0.21,1.846,0.479l-0.375,1.005c-0.33-0.225-0.885-0.42-1.53-0.42c-1.396,0-1.8,0.976-1.8,2.13v0.36h4.215v7.26
			h-1.317v-6.255h-2.896v6.255H449.037z"/>
		<path fill="#FFFFFF" d="M461.921,43.768c-0.345,0.165-1.11,0.42-2.085,0.42c-2.189,0-3.615-1.485-3.615-3.705
			c0-2.234,1.531-3.87,3.9-3.87c0.78,0,1.471,0.195,1.83,0.392l-0.3,1.005c-0.315-0.165-0.812-0.346-1.53-0.346
			c-1.665,0-2.564,1.244-2.564,2.744c0,1.682,1.08,2.715,2.521,2.715c0.75,0,1.245-0.18,1.62-0.345L461.921,43.768z"/>
	</g>
	<g enable-background="new    ">
		<path fill="#FFFFFF" d="M466.691,34.033c0.629-0.104,1.453-0.194,2.504-0.194c1.29,0,2.232,0.3,2.835,0.84
			c0.54,0.479,0.886,1.215,0.886,2.114c0,0.915-0.271,1.636-0.78,2.16c-0.705,0.734-1.812,1.109-3.091,1.109
			c-0.389,0-0.749-0.015-1.049-0.09v4.05h-1.305V34.033L466.691,34.033z M467.996,38.907c0.285,0.075,0.645,0.105,1.08,0.105
			c1.574,0,2.534-0.78,2.534-2.146c0-1.351-0.96-1.995-2.388-1.995c-0.566,0-1.005,0.045-1.229,0.104L467.996,38.907L467.996,38.907
			z"/>
	</g>
	<g enable-background="new    ">
		<path fill="#FFFFFF" d="M480.82,40.333c0,2.686-1.875,3.854-3.614,3.854c-1.95,0-3.479-1.44-3.479-3.735
			c0-2.414,1.604-3.84,3.603-3.84C479.411,36.613,480.82,38.129,480.82,40.333z M475.076,40.407c0,1.59,0.897,2.79,2.188,2.79
			c1.263,0,2.205-1.185,2.205-2.818c0-1.23-0.613-2.775-2.175-2.775C475.751,37.603,475.076,39.043,475.076,40.407z"/>
	</g>
	<g enable-background="new    ">
		<path fill="#FFFFFF" d="M482.907,36.763l0.975,3.688c0.195,0.812,0.393,1.562,0.525,2.312h0.045
			c0.165-0.735,0.405-1.516,0.646-2.295l1.187-3.705h1.108l1.124,3.63c0.271,0.87,0.479,1.635,0.646,2.37h0.045
			c0.119-0.735,0.313-1.5,0.555-2.355l1.035-3.645h1.306l-2.341,7.26h-1.196l-1.111-3.465c-0.254-0.811-0.465-1.53-0.646-2.385
			h-0.026c-0.184,0.869-0.405,1.619-0.66,2.398l-1.17,3.45h-1.2l-2.189-7.26L482.907,36.763L482.907,36.763z"/>
	</g>
	<g enable-background="new    ">
		<path fill="#FFFFFF" d="M494.006,40.633c0.029,1.784,1.154,2.52,2.49,2.52c0.944,0,1.529-0.165,2.01-0.375l0.24,0.945
			c-0.465,0.21-1.275,0.465-2.431,0.465c-2.235,0-3.569-1.485-3.569-3.675s1.289-3.9,3.404-3.9c2.385,0,3,2.07,3,3.405
			c0,0.271-0.018,0.465-0.045,0.615H494.006z M497.875,39.688c0.016-0.825-0.344-2.13-1.83-2.13c-1.35,0-1.92,1.215-2.023,2.13
			H497.875z"/>
		<path fill="#FFFFFF" d="M500.785,39.028c0-0.854-0.016-1.59-0.062-2.265h1.155l0.062,1.439h0.045
			c0.33-0.976,1.14-1.591,2.021-1.591c0.138,0,0.24,0.016,0.36,0.03v1.245c-0.135-0.03-0.271-0.03-0.45-0.03
			c-0.93,0-1.59,0.69-1.771,1.681c-0.029,0.181-0.047,0.404-0.047,0.614v3.87h-1.317L500.785,39.028L500.785,39.028z"/>
	</g>
	<g enable-background="new    ">
		<path fill="#FFFFFF" d="M278.458,60.768c-0.345,0.166-1.11,0.42-2.084,0.42c-2.19,0-3.615-1.483-3.615-3.705
			c0-2.232,1.53-3.868,3.9-3.868c0.78,0,1.47,0.194,1.83,0.392l-0.3,1.005c-0.315-0.165-0.81-0.346-1.53-0.346
			c-1.665,0-2.565,1.244-2.565,2.744c0,1.682,1.08,2.715,2.52,2.715c0.75,0,1.245-0.181,1.62-0.347L278.458,60.768z"/>
		<path fill="#FFFFFF" d="M286.078,59.027c0,0.767,0.015,1.426,0.06,1.996h-1.17l-0.075-1.187h-0.03
			c-0.33,0.585-1.11,1.351-2.4,1.351c-1.14,0-2.505-0.646-2.505-3.181v-4.243h1.32v4.004c0,1.381,0.435,2.324,1.62,2.324
			c0.885,0,1.5-0.613,1.74-1.216c0.075-0.183,0.12-0.42,0.12-0.676v-4.438h1.32V59.027L286.078,59.027z"/>
		<path fill="#FFFFFF" d="M288.088,59.688c0.405,0.24,1.095,0.512,1.755,0.512c0.945,0,1.395-0.467,1.395-1.08
			c0-0.63-0.375-0.96-1.335-1.318c-1.32-0.479-1.935-1.187-1.935-2.056c0-1.171,0.96-2.131,2.505-2.131
			c0.735,0,1.38,0.194,1.77,0.448l-0.315,0.961c-0.285-0.181-0.81-0.436-1.485-0.436c-0.78,0-1.2,0.449-1.2,0.989
			c0,0.601,0.42,0.868,1.365,1.243c1.245,0.467,1.905,1.097,1.905,2.176c0,1.29-1.005,2.189-2.7,2.189
			c-0.795,0-1.53-0.209-2.04-0.511L288.088,59.688z"/>
	</g>
	<g enable-background="new    ">
		<path fill="#FFFFFF" d="M295.798,52.023v1.74h1.89v1.004h-1.89v3.916c0,0.897,0.255,1.408,0.99,1.408
			c0.36,0,0.57-0.029,0.765-0.091l0.06,1.006c-0.255,0.091-0.66,0.181-1.17,0.181c-0.615,0-1.11-0.209-1.425-0.556
			c-0.36-0.403-0.51-1.051-0.51-1.903v-3.961h-1.125v-1.004h1.125v-1.353L295.798,52.023z"/>
	</g>
	<g enable-background="new    ">
		<path fill="#FFFFFF" d="M305.652,57.333c0,2.687-1.875,3.854-3.614,3.854c-1.95,0-3.48-1.44-3.48-3.735
			c0-2.414,1.605-3.841,3.6-3.841C304.243,53.613,305.652,55.129,305.652,57.333z M299.908,57.407c0,1.59,0.9,2.79,2.189,2.79
			c1.26,0,2.202-1.187,2.202-2.818c0-1.23-0.612-2.775-2.175-2.775C300.583,54.604,299.908,56.043,299.908,57.407z"/>
		<path fill="#FFFFFF" d="M307.318,55.729c0-0.766-0.03-1.364-0.062-1.965h1.155l0.06,1.186h0.045
			c0.405-0.688,1.08-1.335,2.296-1.335c0.978,0,1.728,0.602,2.04,1.454h0.029c0.228-0.42,0.525-0.721,0.825-0.943
			c0.435-0.33,0.899-0.511,1.59-0.511c0.979,0,2.399,0.631,2.399,3.149v4.26h-1.289v-4.096c0-1.41-0.525-2.234-1.575-2.234
			c-0.765,0-1.335,0.557-1.575,1.188c-0.061,0.193-0.104,0.42-0.104,0.659v4.483h-1.289v-4.351c0-1.155-0.513-1.979-1.519-1.979
			c-0.81,0-1.425,0.66-1.635,1.32c-0.074,0.18-0.104,0.42-0.104,0.646v4.364h-1.288L307.318,55.729L307.318,55.729z"/>
		<path fill="#FFFFFF" d="M320.562,57.633c0.028,1.784,1.153,2.52,2.487,2.52c0.945,0,1.53-0.163,2.013-0.375l0.237,0.945
			c-0.465,0.211-1.271,0.465-2.43,0.465c-2.234,0-3.57-1.483-3.57-3.674c0-2.189,1.291-3.899,3.405-3.899c2.386,0,3,2.069,3,3.403
			c0,0.271-0.015,0.465-0.045,0.615H320.562z M324.434,56.688c0.018-0.823-0.346-2.129-1.83-2.129c-1.35,0-1.92,1.215-2.022,2.129
			H324.434z"/>
		<path fill="#FFFFFF" d="M327.343,56.027c0-0.854-0.015-1.59-0.06-2.264h1.151l0.062,1.438h0.045
			c0.33-0.977,1.141-1.592,2.025-1.592c0.135,0,0.236,0.017,0.356,0.029v1.245c-0.135-0.03-0.27-0.03-0.449-0.03
			c-0.931,0-1.591,0.69-1.771,1.683c-0.03,0.181-0.045,0.403-0.045,0.612v3.871h-1.32L327.343,56.027L327.343,56.027z"/>
		<path fill="#FFFFFF" d="M332.068,59.688c0.401,0.24,1.094,0.512,1.754,0.512c0.942,0,1.396-0.467,1.396-1.08
			c0-0.63-0.375-0.96-1.335-1.318c-1.32-0.479-1.936-1.187-1.936-2.056c0-1.171,0.961-2.131,2.506-2.131
			c0.734,0,1.379,0.194,1.77,0.448l-0.312,0.961c-0.285-0.181-0.812-0.436-1.485-0.436c-0.779,0-1.2,0.449-1.2,0.989
			c0,0.601,0.421,0.868,1.365,1.243c1.244,0.467,1.904,1.097,1.904,2.176c0,1.29-1.004,2.189-2.699,2.189
			c-0.795,0-1.53-0.209-2.04-0.511L332.068,59.688z"/>
		<path fill="#FFFFFF" d="M341.893,53.764l0.978,3.688c0.195,0.812,0.391,1.562,0.522,2.312h0.048
			c0.163-0.736,0.402-1.517,0.646-2.296l1.186-3.704h1.109l1.124,3.629c0.271,0.871,0.48,1.635,0.646,2.371h0.045
			c0.12-0.736,0.312-1.5,0.556-2.354l1.035-3.646h1.305l-2.34,7.26h-1.2l-1.107-3.465c-0.258-0.812-0.468-1.531-0.646-2.386h-0.03
			c-0.181,0.869-0.402,1.619-0.657,2.397l-1.173,3.451h-1.197l-2.189-7.262L341.893,53.764L341.893,53.764z"/>
		<path fill="#FFFFFF" d="M353.877,51.723c0,0.45-0.312,0.812-0.84,0.812c-0.479,0-0.795-0.359-0.795-0.812
			c0-0.451,0.33-0.824,0.825-0.824C353.547,50.898,353.877,51.258,353.877,51.723z M352.407,61.023v-7.26h1.317v7.26H352.407z"/>
		<path fill="#FFFFFF" d="M357.508,52.023v1.74h1.893v1.004h-1.893v3.916c0,0.897,0.255,1.408,0.99,1.408
			c0.359,0,0.569-0.029,0.765-0.091l0.062,1.006c-0.255,0.091-0.66,0.181-1.17,0.181c-0.615,0-1.109-0.209-1.428-0.556
			c-0.357-0.403-0.51-1.051-0.51-1.903v-3.961h-1.125v-1.004h1.125v-1.353L357.508,52.023z"/>
		<path fill="#FFFFFF" d="M360.883,50.373h1.32v4.545h0.029c0.21-0.375,0.54-0.721,0.942-0.943c0.393-0.227,0.854-0.359,1.353-0.359
			c0.975,0,2.534,0.602,2.534,3.09v4.318h-1.319v-4.17c0-1.17-0.438-2.146-1.681-2.146c-0.854,0-1.518,0.601-1.771,1.306
			c-0.076,0.194-0.09,0.391-0.09,0.631v4.379h-1.32L360.883,50.373L360.883,50.373z"/>
		<path fill="#FFFFFF" d="M373.123,57.633c0.029,1.784,1.154,2.52,2.489,2.52c0.941,0,1.527-0.163,2.01-0.375l0.24,0.945
			c-0.465,0.211-1.274,0.465-2.434,0.465c-2.231,0-3.566-1.483-3.566-3.674c0-2.189,1.29-3.899,3.402-3.899c2.388,0,3,2.069,3,3.403
			c0,0.271-0.016,0.465-0.045,0.615H373.123z M376.992,56.688c0.016-0.823-0.345-2.129-1.83-2.129c-1.35,0-1.92,1.215-2.025,2.129
			H376.992z"/>
		<path fill="#FFFFFF" d="M379.902,50.373h1.317v10.648h-1.317V50.373z"/>
		<path fill="#FFFFFF" d="M384.178,57.633c0.029,1.784,1.154,2.52,2.489,2.52c0.944,0,1.53-0.163,2.01-0.375l0.24,0.945
			c-0.465,0.211-1.274,0.465-2.431,0.465c-2.234,0-3.569-1.483-3.569-3.674c0-2.189,1.29-3.899,3.405-3.899c2.385,0,3,2.069,3,3.403
			c0,0.271-0.019,0.465-0.045,0.615H384.178z M388.047,56.688c0.016-0.823-0.345-2.129-1.83-2.129c-1.35,0-1.92,1.215-2.022,2.129
			H388.047z"/>
	</g>
	<g enable-background="new    ">
		<path fill="#FFFFFF" d="M396.132,60.768c-0.345,0.166-1.107,0.42-2.085,0.42c-2.188,0-3.615-1.483-3.615-3.705
			c0-2.232,1.531-3.868,3.9-3.868c0.78,0,1.471,0.194,1.83,0.392l-0.3,1.005c-0.315-0.165-0.812-0.346-1.53-0.346
			c-1.665,0-2.564,1.244-2.564,2.744c0,1.682,1.08,2.715,2.521,2.715c0.75,0,1.245-0.181,1.62-0.347L396.132,60.768z"/>
	</g>
	<g enable-background="new    ">
		<path fill="#FFFFFF" d="M399.461,52.023v1.74h1.891v1.004h-1.891v3.916c0,0.897,0.256,1.408,0.99,1.408
			c0.356,0,0.57-0.029,0.766-0.091l0.062,1.006c-0.257,0.091-0.66,0.181-1.17,0.181c-0.615,0-1.11-0.209-1.428-0.556
			c-0.357-0.403-0.51-1.051-0.51-1.903v-3.961h-1.125v-1.004h1.125v-1.353L399.461,52.023z"/>
	</g>
	<g enable-background="new    ">
		<path fill="#FFFFFF" d="M402.837,56.027c0-0.854-0.015-1.59-0.06-2.264h1.151l0.062,1.438h0.045
			c0.33-0.977,1.141-1.592,2.024-1.592c0.136,0,0.237,0.017,0.357,0.029v1.245c-0.135-0.03-0.27-0.03-0.449-0.03
			c-0.931,0-1.591,0.69-1.771,1.683c-0.03,0.181-0.045,0.403-0.045,0.612v3.871h-1.32L402.837,56.027L402.837,56.027z"/>
	</g>
	<g enable-background="new    ">
		<path fill="#FFFFFF" d="M409.271,51.723c0,0.45-0.314,0.812-0.843,0.812c-0.479,0-0.795-0.359-0.795-0.812
			c0-0.451,0.33-0.824,0.825-0.824C408.941,50.898,409.271,51.258,409.271,51.723z M407.802,61.023v-7.26h1.32v7.26H407.802z"/>
		<path fill="#FFFFFF" d="M416.486,60.768c-0.348,0.166-1.109,0.42-2.084,0.42c-2.19,0-3.615-1.483-3.615-3.705
			c0-2.232,1.529-3.868,3.896-3.868c0.78,0,1.473,0.194,1.83,0.392l-0.3,1.005c-0.312-0.165-0.811-0.346-1.53-0.346
			c-1.665,0-2.562,1.244-2.562,2.744c0,1.682,1.08,2.715,2.521,2.715c0.75,0,1.245-0.181,1.62-0.347L416.486,60.768z"/>
		<path fill="#FFFFFF" d="M421.947,57.633c0.026,1.784,1.151,2.52,2.486,2.52c0.944,0,1.53-0.163,2.013-0.375l0.237,0.945
			c-0.465,0.211-1.271,0.465-2.431,0.465c-2.231,0-3.569-1.483-3.569-3.674c0-2.189,1.29-3.899,3.405-3.899c2.385,0,3,2.069,3,3.403
			c0,0.271-0.016,0.465-0.045,0.615H421.947z M425.816,56.688c0.016-0.823-0.348-2.129-1.83-2.129c-1.353,0-1.92,1.215-2.025,2.129
			H425.816z"/>
		<path fill="#FFFFFF" d="M437.816,51.663c-0.33-0.21-0.87-0.392-1.484-0.392c-1.381,0-1.801,0.977-1.801,2.131v0.358h4.229v7.261
			h-1.317v-6.254h-2.91v6.254h-1.308v-6.254h-3.061v6.254h-1.305v-6.254h-1.004v-1.007h1.004v-0.255
			c0-0.898,0.256-1.801,0.871-2.398c0.42-0.437,1.049-0.706,1.856-0.706c0.494,0,1.005,0.18,1.275,0.314l-0.375,0.976
			c-0.229-0.135-0.57-0.254-0.9-0.254c-0.42,0-0.721,0.148-0.945,0.375c-0.356,0.391-0.479,1.049-0.479,1.681v0.271h3.061v-0.404
			c0-1.903,1.125-3.148,3.165-3.148c0.659,0,1.428,0.211,1.815,0.466L437.816,51.663z"/>
		<path fill="#FFFFFF" d="M446.126,60.768c-0.345,0.166-1.11,0.42-2.085,0.42c-2.189,0-3.615-1.483-3.615-3.705
			c0-2.232,1.531-3.868,3.9-3.868c0.78,0,1.471,0.194,1.83,0.392l-0.3,1.005c-0.315-0.165-0.812-0.346-1.53-0.346
			c-1.665,0-2.564,1.244-2.564,2.744c0,1.682,1.08,2.715,2.521,2.715c0.75,0,1.245-0.181,1.62-0.347L446.126,60.768z"/>
		<path fill="#FFFFFF" d="M449.141,51.723c0,0.45-0.312,0.812-0.84,0.812c-0.479,0-0.795-0.359-0.795-0.812
			c0-0.451,0.33-0.824,0.825-0.824C448.811,50.898,449.141,51.258,449.141,51.723z M447.671,61.023v-7.26h1.32v7.26H447.671z"/>
		<path fill="#FFFFFF" d="M451.916,57.633c0.03,1.784,1.155,2.52,2.49,2.52c0.942,0,1.526-0.163,2.01-0.375l0.24,0.945
			c-0.465,0.211-1.275,0.465-2.433,0.465c-2.232,0-3.567-1.483-3.567-3.674c0-2.189,1.29-3.899,3.401-3.899c2.389,0,3,2.069,3,3.403
			c0,0.271-0.015,0.465-0.045,0.615H451.916z M455.786,56.688c0.015-0.823-0.345-2.129-1.83-2.129c-1.35,0-1.92,1.215-2.024,2.129
			H455.786z"/>
		<path fill="#FFFFFF" d="M458.695,55.729c0-0.766-0.017-1.364-0.062-1.965h1.17l0.074,1.199h0.03
			c0.357-0.676,1.2-1.352,2.396-1.352c1.008,0,2.565,0.602,2.565,3.09v4.32h-1.32v-4.187c0-1.171-0.435-2.146-1.68-2.146
			c-0.854,0-1.53,0.615-1.771,1.352c-0.062,0.165-0.092,0.391-0.092,0.614v4.364h-1.317v-5.293h0.004v0.002H458.695z"/>
	</g>
	<g enable-background="new    ">
		<path fill="#FFFFFF" d="M472.195,60.768c-0.348,0.166-1.109,0.42-2.084,0.42c-2.19,0-3.615-1.483-3.615-3.705
			c0-2.232,1.529-3.868,3.898-3.868c0.778,0,1.471,0.194,1.828,0.392l-0.3,1.005c-0.312-0.165-0.811-0.346-1.528-0.346
			c-1.664,0-2.564,1.244-2.564,2.744c0,1.682,1.08,2.715,2.521,2.715c0.75,0,1.244-0.181,1.619-0.347L472.195,60.768z"/>
	</g>
	<g enable-background="new    ">
		<path fill="#FFFFFF" d="M474.49,53.764l1.576,4.289c0.18,0.479,0.356,1.051,0.479,1.483h0.03c0.135-0.435,0.285-0.988,0.465-1.515
			l1.438-4.262h1.396l-1.979,5.176c-0.943,2.489-1.592,3.75-2.488,4.545c-0.66,0.556-1.29,0.779-1.62,0.84l-0.33-1.094
			c0.33-0.105,0.765-0.315,1.155-0.646c0.356-0.283,0.795-0.795,1.106-1.471c0.062-0.135,0.105-0.239,0.105-0.312
			c0-0.074-0.03-0.182-0.105-0.347l-2.67-6.688L474.49,53.764L474.49,53.764z"/>
		<path fill="#FFFFFF" d="M489.355,59.282c0,0.63,0.026,1.245,0.104,1.739h-1.186l-0.105-0.914h-0.045
			c-0.404,0.568-1.186,1.08-2.219,1.08c-1.474,0-2.224-1.035-2.224-2.086c0-1.754,1.562-2.716,4.365-2.699v-0.148
			c0-0.586-0.166-1.682-1.647-1.665c-0.689,0-1.396,0.193-1.904,0.54l-0.301-0.886c0.6-0.375,1.482-0.632,2.397-0.632
			c2.222,0,2.76,1.518,2.76,2.955v2.716H489.355z M488.08,57.318c-1.439-0.029-3.074,0.226-3.074,1.635
			c0,0.87,0.57,1.262,1.229,1.262c0.96,0,1.572-0.602,1.782-1.217c0.047-0.148,0.062-0.3,0.062-0.42V57.318z"/>
		<path fill="#FFFFFF" d="M491.485,55.729c0-0.766-0.018-1.364-0.062-1.965h1.17l0.074,1.199h0.031
			c0.356-0.676,1.198-1.352,2.396-1.352c1.005,0,2.565,0.602,2.565,3.09v4.32h-1.32v-4.187c0-1.171-0.436-2.146-1.68-2.146
			c-0.855,0-1.53,0.615-1.771,1.352c-0.06,0.165-0.09,0.391-0.09,0.614v4.364h-1.317v-5.293h0.003L491.485,55.729L491.485,55.729z"
			/>
		<path fill="#FFFFFF" d="M506.065,50.373v8.773c0,0.646,0.027,1.381,0.06,1.875h-1.17l-0.062-1.261h-0.045
			c-0.39,0.812-1.26,1.427-2.441,1.427c-1.756,0-3.121-1.485-3.121-3.689c-0.014-2.415,1.5-3.887,3.256-3.887
			c1.125,0,1.859,0.524,2.189,1.097h0.027v-4.335H506.065z M504.761,56.718c0-0.165-0.015-0.391-0.06-0.556
			c-0.195-0.824-0.916-1.516-1.905-1.516c-1.365,0-2.175,1.198-2.175,2.789c0,1.471,0.734,2.686,2.145,2.686
			c0.888,0,1.695-0.6,1.938-1.573c0.045-0.182,0.06-0.36,0.06-0.569L504.761,56.718L504.761,56.718z"/>
	</g>
	<g enable-background="new    ">
		<path fill="#FFFFFF" d="M273.283,73.027c0-0.854-0.015-1.59-0.06-2.264h1.155l0.06,1.438h0.045c0.33-0.977,1.14-1.592,2.025-1.592
			c0.135,0,0.24,0.017,0.36,0.029v1.245c-0.135-0.03-0.27-0.03-0.45-0.03c-0.93,0-1.59,0.69-1.77,1.683
			c-0.03,0.181-0.045,0.403-0.045,0.612v3.871h-1.32V73.027L273.283,73.027z"/>
	</g>
	<g enable-background="new    ">
		<path fill="#FFFFFF" d="M278.773,74.633c0.03,1.784,1.155,2.52,2.49,2.52c0.945,0,1.53-0.163,2.01-0.375l0.24,0.945
			c-0.465,0.211-1.275,0.465-2.43,0.465c-2.235,0-3.57-1.483-3.57-3.674c0-2.189,1.29-3.899,3.405-3.899c2.385,0,3,2.069,3,3.403
			c0,0.271-0.015,0.465-0.045,0.615H278.773z M282.643,73.688c0.015-0.823-0.345-2.129-1.83-2.129c-1.35,0-1.92,1.215-2.025,2.129
			H282.643z"/>
		<path fill="#FFFFFF" d="M285.553,72.729c0-0.766-0.015-1.364-0.06-1.965h1.17l0.075,1.199h0.03c0.36-0.676,1.2-1.352,2.4-1.352
			c1.005,0,2.565,0.602,2.565,3.09v4.32h-1.32v-4.187c0-1.171-0.435-2.146-1.68-2.146c-0.855,0-1.53,0.615-1.77,1.352
			c-0.06,0.165-0.09,0.391-0.09,0.613v4.365h-1.32V72.729L285.553,72.729z"/>
		<path fill="#FFFFFF" d="M294.613,74.633c0.03,1.784,1.155,2.52,2.49,2.52c0.945,0,1.53-0.163,2.01-0.375l0.24,0.945
			c-0.465,0.211-1.275,0.465-2.434,0.465c-2.235,0-3.57-1.483-3.57-3.674c0-2.189,1.29-3.899,3.405-3.899c2.388,0,3,2.069,3,3.403
			c0,0.271-0.015,0.465-0.045,0.615H294.613z M298.483,73.688c0.015-0.823-0.345-2.129-1.83-2.129c-1.35,0-1.92,1.215-2.025,2.129
			H298.483z"/>
	</g>
	<g enable-background="new    ">
		<path fill="#FFFFFF" d="M301.917,70.764l0.976,3.688c0.194,0.812,0.392,1.562,0.524,2.312h0.045
			c0.165-0.736,0.405-1.517,0.646-2.296l1.187-3.704h1.111l1.124,3.629c0.271,0.871,0.479,1.635,0.646,2.371h0.045
			c0.119-0.736,0.314-1.5,0.558-2.354l1.032-3.646h1.308l-2.34,7.26h-1.199l-1.111-3.465c-0.254-0.812-0.465-1.531-0.645-2.386
			h-0.029c-0.182,0.869-0.404,1.619-0.66,2.397l-1.17,3.451h-1.199l-2.19-7.262L301.917,70.764L301.917,70.764z"/>
	</g>
	<g enable-background="new    ">
		<path fill="#FFFFFF" d="M317.473,76.282c0,0.63,0.03,1.245,0.105,1.739h-1.188l-0.104-0.914h-0.045
			c-0.405,0.568-1.188,1.08-2.222,1.08c-1.472,0-2.222-1.035-2.222-2.086c0-1.754,1.562-2.716,4.365-2.699v-0.148
			c0-0.586-0.165-1.682-1.65-1.665c-0.688,0-1.395,0.193-1.901,0.54l-0.303-0.886c0.603-0.375,1.485-0.632,2.399-0.632
			c2.221,0,2.76,1.518,2.76,2.955L317.473,76.282L317.473,76.282z M316.198,74.318c-1.44-0.029-3.075,0.226-3.075,1.635
			c0,0.87,0.57,1.262,1.229,1.262c0.96,0,1.574-0.602,1.785-1.217c0.045-0.148,0.062-0.3,0.062-0.42L316.198,74.318L316.198,74.318z
			"/>
		<path fill="#FFFFFF" d="M319.604,67.373h1.308v4.561h0.028c0.467-0.811,1.307-1.318,2.477-1.318c1.812,0,3.075,1.5,3.075,3.689
			c0,2.594-1.65,3.885-3.271,3.885c-1.051,0-1.891-0.404-2.442-1.351h-0.03l-0.075,1.185h-1.125c0.03-0.493,0.062-1.229,0.062-1.875
			v-8.773L319.604,67.373L319.604,67.373z M320.908,75.113c0,0.164,0.016,0.33,0.061,0.479c0.239,0.915,1.021,1.547,1.979,1.547
			c1.396,0,2.204-1.125,2.204-2.791c0-1.455-0.75-2.699-2.177-2.699c-0.885,0-1.725,0.629-1.992,1.619
			c-0.046,0.166-0.075,0.346-0.075,0.556V75.113L320.908,75.113z"/>
		<path fill="#FFFFFF" d="M328.138,67.373h1.32v10.648h-1.32V67.373z"/>
		<path fill="#FFFFFF" d="M332.413,74.633c0.03,1.784,1.155,2.52,2.489,2.52c0.942,0,1.527-0.163,2.01-0.375l0.24,0.945
			c-0.465,0.211-1.274,0.465-2.433,0.465c-2.231,0-3.567-1.483-3.567-3.674c0-2.189,1.291-3.899,3.402-3.899
			c2.389,0,3,2.069,3,3.403c0,0.271-0.015,0.465-0.045,0.615H332.413z M336.283,73.688c0.015-0.823-0.349-2.129-1.83-2.129
			c-1.353,0-1.92,1.215-2.025,2.129H336.283z"/>
		<path fill="#FFFFFF" d="M343.107,74.633c0.027,1.784,1.152,2.52,2.487,2.52c0.945,0,1.529-0.163,2.013-0.375l0.237,0.945
			c-0.465,0.211-1.272,0.465-2.43,0.465c-2.235,0-3.57-1.483-3.57-3.674c0-2.189,1.29-3.899,3.404-3.899c2.386,0,3,2.069,3,3.403
			c0,0.271-0.015,0.465-0.045,0.615H343.107z M346.978,73.688c0.018-0.823-0.345-2.129-1.827-2.129
			c-1.353,0-1.923,1.215-2.024,2.129H346.978z"/>
		<path fill="#FFFFFF" d="M349.887,72.729c0-0.766-0.014-1.364-0.059-1.965h1.17l0.074,1.199h0.027
			c0.36-0.676,1.2-1.352,2.399-1.352c1.006,0,2.565,0.602,2.565,3.09v4.32h-1.32v-4.187c0-1.171-0.438-2.146-1.68-2.146
			c-0.854,0-1.53,0.615-1.771,1.352c-0.06,0.165-0.09,0.391-0.09,0.613v4.365h-1.32v-5.293h0.003L349.887,72.729L349.887,72.729z"/>
		<path fill="#FFFFFF" d="M358.947,74.633c0.026,1.784,1.151,2.52,2.487,2.52c0.944,0,1.529-0.163,2.013-0.375l0.237,0.945
			c-0.465,0.211-1.272,0.465-2.431,0.465c-2.232,0-3.569-1.483-3.569-3.674c0-2.189,1.289-3.899,3.404-3.899
			c2.385,0,3,2.069,3,3.403c0,0.271-0.015,0.465-0.045,0.615H358.947z M362.816,73.688c0.016-0.823-0.347-2.129-1.83-2.129
			c-1.353,0-1.92,1.215-2.024,2.129H362.816z"/>
	</g>
	<g enable-background="new    ">
		<path fill="#FFFFFF" d="M365.726,73.027c0-0.854-0.015-1.59-0.06-2.264h1.154l0.061,1.438h0.045
			c0.33-0.977,1.144-1.592,2.025-1.592c0.135,0,0.239,0.017,0.356,0.029v1.245c-0.135-0.03-0.27-0.03-0.446-0.03
			c-0.934,0-1.594,0.69-1.771,1.683c-0.03,0.181-0.045,0.403-0.045,0.612v3.871h-1.32L365.726,73.027L365.726,73.027z"/>
	</g>
	<g enable-background="new    ">
		<path fill="#FFFFFF" d="M376.723,76.957c0,1.682-0.345,2.688-1.035,3.33c-0.72,0.646-1.737,0.87-2.651,0.87
			c-0.87,0-1.83-0.21-2.415-0.601l0.329-1.021c0.479,0.314,1.229,0.585,2.131,0.585c1.35,0,2.34-0.705,2.34-2.552v-0.795h-0.03
			c-0.39,0.677-1.185,1.217-2.31,1.217c-1.801,0-3.09-1.528-3.09-3.54c0-2.459,1.604-3.841,3.285-3.841
			c1.26,0,1.934,0.646,2.264,1.244h0.031l0.045-1.095h1.17c-0.045,0.511-0.062,1.109-0.062,1.979L376.723,76.957L376.723,76.957z
			 M375.402,73.629c0-0.227-0.018-0.421-0.074-0.586c-0.24-0.779-0.87-1.409-1.846-1.409c-1.263,0-2.16,1.063-2.16,2.745
			c0,1.426,0.732,2.607,2.146,2.607c0.825,0,1.562-0.51,1.83-1.351c0.075-0.227,0.104-0.479,0.104-0.704V73.629L375.402,73.629z"/>
		<path fill="#FFFFFF" d="M379.377,70.764l1.576,4.289c0.18,0.479,0.359,1.051,0.479,1.483h0.03
			c0.135-0.435,0.285-0.988,0.465-1.515l1.439-4.262h1.396l-1.979,5.176c-0.945,2.489-1.591,3.75-2.49,4.545
			c-0.66,0.556-1.29,0.779-1.62,0.84l-0.33-1.094c0.33-0.105,0.768-0.315,1.155-0.646c0.359-0.283,0.795-0.795,1.109-1.471
			c0.061-0.135,0.104-0.239,0.104-0.312c0-0.074-0.03-0.182-0.104-0.347l-2.67-6.688L379.377,70.764L379.377,70.764z"/>
		<path fill="#FFFFFF" d="M390.612,68.723c0,0.45-0.315,0.812-0.84,0.812c-0.479,0-0.798-0.359-0.798-0.812
			c0-0.451,0.329-0.824,0.825-0.824C390.282,67.898,390.612,68.258,390.612,68.723z M389.143,78.023v-7.26h1.32v7.26H389.143z"/>
		<path fill="#FFFFFF" d="M392.652,72.729c0-0.766-0.018-1.364-0.062-1.965h1.17l0.075,1.199h0.029
			c0.357-0.676,1.2-1.352,2.397-1.352c1.006,0,2.564,0.602,2.564,3.09v4.32h-1.32v-4.187c0-1.171-0.435-2.146-1.68-2.146
			c-0.854,0-1.529,0.615-1.771,1.352c-0.061,0.165-0.09,0.391-0.09,0.613v4.365h-1.317v-5.293h0.004L392.652,72.729L392.652,72.729z
			"/>
	</g>
	<g enable-background="new    ">
		<path fill="#FFFFFF" d="M406.15,77.768c-0.348,0.166-1.109,0.42-2.084,0.42c-2.19,0-3.615-1.483-3.615-3.705
			c0-2.232,1.529-3.868,3.896-3.868c0.78,0,1.473,0.194,1.83,0.392l-0.3,1.005c-0.312-0.165-0.811-0.346-1.53-0.346
			c-1.665,0-2.562,1.244-2.562,2.744c0,1.682,1.08,2.715,2.521,2.715c0.75,0,1.245-0.181,1.62-0.347L406.15,77.768z"/>
	</g>
	<g enable-background="new    ">
		<path fill="#FFFFFF" d="M408.342,74.633c0.029,1.784,1.154,2.52,2.49,2.52c0.944,0,1.529-0.163,2.01-0.375l0.24,0.945
			c-0.465,0.211-1.275,0.465-2.431,0.465c-2.235,0-3.569-1.483-3.569-3.674c0-2.189,1.289-3.899,3.404-3.899
			c2.385,0,3,2.069,3,3.403c0,0.271-0.018,0.465-0.045,0.615H408.342z M412.211,73.688c0.016-0.823-0.344-2.129-1.83-2.129
			c-1.35,0-1.92,1.215-2.021,2.129H412.211z"/>
	</g>
	<g enable-background="new    ">
		<path fill="#FFFFFF" d="M415.121,72.729c0-0.766-0.015-1.364-0.062-1.965h1.173l0.072,1.199h0.029c0.36-0.676,1.2-1.352,2.4-1.352
			c1.005,0,2.562,0.602,2.562,3.09v4.32h-1.32v-4.187c0-1.171-0.435-2.146-1.68-2.146c-0.854,0-1.529,0.615-1.77,1.352
			c-0.062,0.165-0.092,0.391-0.092,0.613v4.365h-1.318v-5.293h0.004v0.002H415.121z"/>
	</g>
	<g enable-background="new    ">
		<path fill="#FFFFFF" d="M424.977,69.023v1.74h1.892v1.004h-1.892v3.916c0,0.897,0.254,1.408,0.989,1.408
			c0.36,0,0.569-0.029,0.768-0.09l0.061,1.005c-0.256,0.091-0.66,0.181-1.17,0.181c-0.615,0-1.11-0.209-1.426-0.556
			c-0.359-0.403-0.513-1.051-0.513-1.903v-3.961h-1.125v-1.004h1.125v-1.353L424.977,69.023z"/>
		<path fill="#FFFFFF" d="M429.82,68.723c0,0.45-0.314,0.812-0.84,0.812c-0.479,0-0.798-0.359-0.798-0.812
			c0-0.451,0.33-0.824,0.825-0.824C429.49,67.898,429.82,68.258,429.82,68.723z M428.351,78.023v-7.26h1.32v7.26H428.351z"/>
	</g>
	<g enable-background="new    ">
		<path fill="#FFFFFF" d="M432.371,70.764l1.424,4.062c0.24,0.676,0.438,1.275,0.586,1.875h0.045c0.164-0.6,0.375-1.199,0.615-1.875
			l1.409-4.062h1.38l-2.85,7.26h-1.263l-2.76-7.26H432.371z"/>
	</g>
	<g enable-background="new    ">
		<path fill="#FFFFFF" d="M439.662,74.633c0.029,1.784,1.154,2.52,2.49,2.52c0.941,0,1.526-0.163,2.01-0.375l0.24,0.945
			c-0.465,0.211-1.275,0.465-2.434,0.465c-2.232,0-3.566-1.483-3.566-3.674c0-2.189,1.289-3.899,3.401-3.899
			c2.388,0,3,2.069,3,3.403c0,0.271-0.015,0.465-0.045,0.615H439.662z M443.531,73.688c0.016-0.823-0.344-2.129-1.83-2.129
			c-1.353,0-1.92,1.215-2.024,2.129H443.531z"/>
		<path fill="#FFFFFF" d="M446.262,76.688c0.404,0.24,1.098,0.512,1.755,0.512c0.944,0,1.396-0.467,1.396-1.08
			c0-0.63-0.375-0.96-1.336-1.318c-1.319-0.479-1.938-1.187-1.938-2.056c0-1.171,0.96-2.131,2.507-2.131
			c0.732,0,1.381,0.194,1.771,0.448l-0.313,0.961c-0.283-0.181-0.812-0.436-1.482-0.436c-0.781,0-1.201,0.449-1.201,0.989
			c0,0.601,0.42,0.868,1.365,1.243c1.245,0.467,1.902,1.097,1.902,2.176c0,1.29-1.005,2.189-2.697,2.189
			c-0.795,0-1.529-0.209-2.039-0.511L446.262,76.688z"/>
		<path fill="#FFFFFF" d="M460.662,76.282c0,0.63,0.029,1.245,0.104,1.739h-1.185l-0.105-0.914h-0.045
			c-0.402,0.568-1.186,1.08-2.22,1.08c-1.47,0-2.22-1.035-2.22-2.086c0-1.754,1.56-2.716,4.364-2.699v-0.148
			c0-0.586-0.166-1.682-1.649-1.665c-0.69,0-1.396,0.193-1.905,0.54l-0.3-0.886c0.6-0.375,1.484-0.632,2.4-0.632
			c2.219,0,2.76,1.518,2.76,2.955L460.662,76.282L460.662,76.282z M459.387,74.318c-1.438-0.029-3.074,0.226-3.074,1.635
			c0,0.87,0.569,1.262,1.229,1.262c0.961,0,1.576-0.602,1.785-1.217c0.045-0.148,0.061-0.3,0.061-0.42L459.387,74.318
			L459.387,74.318z"/>
		<path fill="#FFFFFF" d="M462.791,72.729c0-0.766-0.014-1.364-0.059-1.965h1.17l0.071,1.199h0.03c0.36-0.676,1.2-1.352,2.399-1.352
			c1.006,0,2.562,0.602,2.562,3.09v4.32h-1.317v-4.187c0-1.171-0.438-2.146-1.683-2.146c-0.854,0-1.528,0.615-1.771,1.352
			c-0.062,0.165-0.09,0.391-0.09,0.613v4.365h-1.32v-5.293h0.004v0.002H462.791z"/>
		<path fill="#FFFFFF" d="M477.371,67.373v8.773c0,0.646,0.03,1.381,0.061,1.875h-1.17l-0.061-1.261h-0.045
			c-0.394,0.812-1.26,1.427-2.445,1.427c-1.754,0-3.119-1.485-3.119-3.689c-0.016-2.415,1.5-3.887,3.254-3.887
			c1.125,0,1.86,0.524,2.19,1.097h0.03v-4.335H477.371z M476.066,73.718c0-0.165-0.019-0.391-0.062-0.556
			c-0.195-0.824-0.914-1.516-1.904-1.516c-1.362,0-2.176,1.198-2.176,2.789c0,1.471,0.735,2.686,2.146,2.686
			c0.885,0,1.691-0.6,1.935-1.573c0.045-0.182,0.062-0.36,0.062-0.569L476.066,73.718L476.066,73.718z"/>
		<path fill="#FFFFFF" d="M482.576,76.688c0.404,0.24,1.095,0.512,1.755,0.512c0.944,0,1.396-0.467,1.396-1.08
			c0-0.63-0.375-0.96-1.336-1.318c-1.316-0.479-1.935-1.187-1.935-2.056c0-1.171,0.96-2.131,2.505-2.131
			c0.734,0,1.38,0.194,1.77,0.448l-0.312,0.961c-0.285-0.181-0.812-0.436-1.484-0.436c-0.778,0-1.198,0.449-1.198,0.989
			c0,0.601,0.42,0.868,1.362,1.243c1.245,0.467,1.905,1.097,1.905,2.176c0,1.29-1.005,2.189-2.7,2.189
			c-0.795,0-1.526-0.209-2.039-0.511L482.576,76.688z"/>
		<path fill="#FFFFFF" d="M489.432,74.633c0.029,1.784,1.154,2.52,2.489,2.52c0.944,0,1.53-0.163,2.01-0.375l0.24,0.945
			c-0.465,0.211-1.271,0.465-2.431,0.465c-2.234,0-3.569-1.483-3.569-3.674c0-2.189,1.29-3.899,3.405-3.899c2.385,0,3,2.069,3,3.403
			c0,0.271-0.016,0.465-0.045,0.615H489.432z M493.301,73.688c0.019-0.823-0.345-2.129-1.83-2.129c-1.35,0-1.92,1.215-2.022,2.129
			H493.301z"/>
	</g>
	<g enable-background="new    ">
		<path fill="#FFFFFF" d="M496.21,73.027c0-0.854-0.015-1.59-0.06-2.264h1.151l0.062,1.438h0.045
			c0.33-0.977,1.141-1.592,2.022-1.592c0.138,0,0.239,0.017,0.359,0.029v1.245c-0.135-0.03-0.27-0.03-0.449-0.03
			c-0.931,0-1.591,0.69-1.771,1.683c-0.03,0.181-0.045,0.403-0.045,0.612v3.871h-1.32L496.21,73.027L496.21,73.027z"/>
	</g>
	<g enable-background="new    ">
		<path fill="#FFFFFF" d="M502,70.764l1.424,4.062c0.24,0.676,0.438,1.275,0.586,1.875h0.045c0.164-0.6,0.375-1.199,0.615-1.875
			l1.409-4.062h1.38l-2.85,7.26h-1.263l-2.76-7.26H502z"/>
		<path fill="#FFFFFF" d="M510.174,68.723c0,0.45-0.312,0.812-0.84,0.812c-0.479,0-0.795-0.359-0.795-0.812
			c0-0.451,0.33-0.824,0.825-0.824C509.844,67.898,510.174,68.258,510.174,68.723z M508.704,78.023v-7.26h1.32v7.26H508.704z"/>
	</g>
	<g enable-background="new    ">
		<path fill="#FFFFFF" d="M517.389,77.768c-0.345,0.166-1.106,0.42-2.084,0.42c-2.188,0-3.612-1.483-3.612-3.705
			c0-2.232,1.526-3.868,3.896-3.868c0.78,0,1.47,0.194,1.83,0.392l-0.3,1.005c-0.315-0.165-0.812-0.346-1.53-0.346
			c-1.665,0-2.562,1.244-2.562,2.744c0,1.682,1.077,2.715,2.521,2.715c0.75,0,1.245-0.181,1.62-0.347L517.389,77.768z"/>
	</g>
	<g enable-background="new    ">
		<path fill="#FFFFFF" d="M519.58,74.633c0.029,1.784,1.154,2.52,2.49,2.52c0.941,0,1.526-0.163,2.01-0.375l0.24,0.945
			c-0.465,0.211-1.275,0.465-2.434,0.465c-2.232,0-3.566-1.483-3.566-3.674c0-2.189,1.289-3.899,3.401-3.899
			c2.388,0,3,2.069,3,3.403c0,0.271-0.015,0.465-0.045,0.615H519.58z M523.449,73.688c0.016-0.823-0.344-2.129-1.83-2.129
			c-1.353,0-1.92,1.215-2.024,2.129H523.449z"/>
	</g>
	<g enable-background="new    ">
		<path fill="#FFFFFF" d="M526.18,76.688c0.404,0.24,1.098,0.512,1.755,0.512c0.944,0,1.396-0.467,1.396-1.08
			c0-0.63-0.375-0.96-1.336-1.318c-1.319-0.479-1.938-1.187-1.938-2.056c0-1.171,0.961-2.131,2.508-2.131
			c0.731,0,1.38,0.194,1.77,0.448l-0.312,0.961c-0.285-0.181-0.812-0.436-1.484-0.436c-0.781,0-1.201,0.449-1.201,0.989
			c0,0.601,0.42,0.868,1.365,1.243c1.245,0.467,1.905,1.097,1.905,2.176c0,1.29-1.007,2.189-2.7,2.189
			c-0.795,0-1.529-0.209-2.039-0.511L526.18,76.688z"/>
	</g>
	<g enable-background="new    ">
		<path fill="#FFFFFF" d="M531.82,77.242c0-0.54,0.375-0.943,0.897-0.943c0.525,0,0.888,0.391,0.888,0.943
			c0,0.54-0.359,0.945-0.914,0.945C532.182,78.188,531.82,77.782,531.82,77.242z"/>
	</g>
</g>
<g>
	<path fill="#FFFFFF" d="M225.011,27.697c-5.204-3.92-10.419-7.827-15.601-11.771c0.338-0.41,0.72-0.777,1.407-0.839
		c-0.002-0.051,0.022-0.078,0.06-0.089c0.219,0,0.438,0,0.658,0c0.157,0.111,0.376,0.098,0.57,0.18
		c0.646,0.272,1.2,0.929,1.736,1.467C217.536,20.343,221.383,24.002,225.011,27.697z"/>
	<path fill="#FFFFFF" d="M213.931,28.326c-0.018,0.503-0.103,0.937-0.12,1.437c-0.43-0.131-0.883-0.349-1.407-0.389
		c-1.206-0.093-2.361,0.394-2.695,1.258c-0.675,1.741,0.831,3.367,2.666,2.845c0-0.439,0-0.878,0-1.318c-0.33,0-0.658,0-0.988,0
		c-0.068-0.35-0.011-0.826-0.031-1.226c0.849-0.072,1.827-0.012,2.726-0.03c0.07,1.168,0.01,2.466,0.029,3.684
		c-0.805,0.214-1.571,0.327-2.485,0.33c-2.252,0.005-3.77-1.19-3.893-3.175c-0.056-0.907,0.214-1.936,0.749-2.547
		C209.441,28.1,212.055,27.697,213.931,28.326z"/>
	<path fill="#FFFFFF" d="M202.462,28.148c2.48-0.042,5.083-0.24,5.031,2.214c-0.035,1.609-1.425,2.256-3.294,2.126
		c-0.071,0.699-0.01,1.529-0.031,2.276c-0.52,0.069-1.167,0.011-1.737,0.03c-0.07-2.126-0.01-4.382-0.03-6.561
		C202.401,28.186,202.424,28.159,202.462,28.148z M205.546,29.763c-0.237-0.325-0.724-0.342-1.347-0.329
		c-0.07,0.529-0.01,1.189-0.03,1.767C205.29,31.473,206.111,30.535,205.546,29.763z"/>
	<path fill="#FFFFFF" d="M215.069,28.148c1.536,0.018,3.154-0.042,4.641,0.028c0,0.412,0,0.82,0,1.228
		c-0.908,0.07-1.946,0.013-2.903,0.029c0,0.44,0,0.881,0,1.318c0.908,0,1.815,0,2.724,0c0,0.43,0,0.859,0,1.288
		c-0.909,0-1.817,0-2.724,0c0,0.487,0,0.977,0,1.467c0.988,0.02,2.056-0.039,2.994,0.031c0,0.409,0,0.818,0,1.228
		c-1.527,0.048-3.265,0.048-4.792,0c0-2.177,0-4.352,0-6.53C215.007,28.186,215.032,28.159,215.069,28.148z"/>
	<path fill="#FFFFFF" d="M215.039,45.395c0.423-0.694,0.94-1.329,1.437-1.976c3.239-4.217,6.43-8.586,9.672-12.877
		c0.123-0.163,0.27-0.317,0.389-0.478c0.145-0.2,0.265-0.396,0.449-0.541c0.024,0.006,0.03,0.03,0.061,0.03
		c0.894,0.642,1.125,2.218,0.389,3.234c-0.407,0.562-1.023,1.054-1.557,1.587C222.299,37.955,218.555,41.87,215.039,45.395z"/>
	<path fill="#FFFFFF" d="M197.581,35.124c-0.005-0.023,0.012-0.028,0.03-0.029c5.288,3.956,10.565,7.922,15.812,11.917
		c-0.449,0.784-1.751,1.21-2.725,0.778c-0.624-0.273-1.198-0.928-1.736-1.467C205.257,42.62,201.215,38.712,197.581,35.124z"/>
	<path fill="#FFFFFF" d="M207.822,17.398c-0.897,1.371-1.973,2.623-2.964,3.95c-2.465,3.302-4.988,6.621-7.457,9.943
		c-0.494,0.664-0.973,1.338-1.528,1.947c-0.449-0.469-0.917-0.957-0.928-1.797c-0.015-1.078,0.783-1.786,1.377-2.364
		c1.797-1.755,3.577-3.676,5.36-5.452C203.813,21.507,205.861,19.414,207.822,17.398z"/>
</g>
<g>
	<g>
		<path fill="#F9F9F9" d="M162.662,62.152c4.48-0.121,9.188-0.018,13.756-0.051c0.053,0.176-0.166,0.32-0.265,0.422
			c-2.087,2.135-4.441,4.418-6.613,6.509C167.269,66.716,164.976,64.424,162.662,62.152z"/>
		<path fill="#F9F9F9" d="M176.524,63.582c0.051,0,0.041,0.062,0.053,0.105c-1.812,1.927-3.859,3.617-5.661,5.556
			c0.644-0.081,1.073-0.628,1.534-1.007c1.33-1.086,2.758-2.269,4.127-3.229c-0.092,0.531-0.595,0.836-0.952,1.165
			c-1.076,0.986-2.248,1.972-3.281,3.068c0.506,0.017,0.815-0.423,1.164-0.688c1.004-0.771,2.084-1.634,3.069-2.33
			c0.131,0.469-0.275,0.729-0.529,0.953c-0.746,0.661-1.566,1.307-2.276,2.063c1.201-0.351,1.782-1.321,2.805-1.854
			c0.101,1.179-1.009,1.146-1.375,1.854c0.671,0.001,0.957-0.664,1.375-0.74c0,2.45,0,4.901,0,7.354
			c-0.166,0.057-0.326-0.168-0.424-0.267c-2.071-2.026-4.338-4.271-6.349-6.399C172.086,67.363,174.3,65.468,176.524,63.582z"/>
	</g>
	<g>
		<path fill="#F9F9F9" d="M231.251,61.941c0.388,0,0.777,0,1.165,0c2.375,0.184,3.27,1.724,3.18,4.134
			c-0.092,2.444-1.45,3.405-3.895,3.393c-2.415-0.015-3.707-1.11-3.815-3.524C227.773,63.462,229.074,62.141,231.251,61.941z
			 M229.899,63.98c-0.451,0.769-0.451,2.68,0.106,3.393c0.172,0.22,0.447,0.409,0.689,0.504c0.643,0.252,1.742,0.244,2.358-0.08
			c0.643-0.339,0.9-1.202,0.9-2.146c0-1.713-0.664-2.52-2.305-2.465C230.729,63.218,230.229,63.422,229.899,63.98z"/>
		<path fill="#F9F9F9" d="M220.626,61.967c0.773,0,1.788,0,2.809,0c1.367,0,2.782-0.14,3.445,0.424
			c0.421,0.359,0.691,1.053,0.715,1.803c0.023,0.748-0.065,1.556-0.425,2.066c-0.803,1.143-3.211,0.535-5.087,0.688
			c-0.061,0.741-0.008,1.599-0.026,2.384c-0.495,0-0.99,0-1.483,0c0-2.428,0-4.855,0-7.285
			C220.572,62.002,220.592,61.979,220.626,61.967z M225.29,65.677c0.235-0.026,0.505-0.128,0.636-0.266
			c0.326-0.345,0.337-1.237,0.106-1.669c-0.193-0.361-0.61-0.467-1.086-0.479c-0.969-0.021-1.948,0.018-2.914,0
			c0,0.805,0,1.607,0,2.411C223.054,65.592,224.281,65.789,225.29,65.677z"/>
		<path fill="#F9F9F9" d="M236.868,61.967c0.505,1.508,0.956,3.071,1.458,4.584c0.514-1.5,0.946-3.081,1.458-4.584
			c0.539,0,1.077,0,1.615,0c0.474,1.533,0.972,3.039,1.432,4.584c0.186-0.352,0.255-0.758,0.37-1.14
			c0.337-1.114,0.734-2.304,1.086-3.444c0.521,0,1.042,0,1.563,0c-0.694,2.497-1.477,4.9-2.172,7.393c-0.521,0-1.043,0-1.562,0
			c-0.479-1.532-1.006-3.021-1.483-4.558c-0.321,0.729-0.536,1.511-0.795,2.279c-0.256,0.761-0.534,1.513-0.769,2.278
			c-0.494,0-0.989,0-1.483,0c-0.745-2.451-1.52-4.875-2.278-7.312c0-0.025,0-0.053,0-0.08
			C235.827,61.967,236.347,61.967,236.868,61.967z"/>
		<path fill="#F9F9F9" d="M246.354,61.967c1.871,0.018,3.814-0.035,5.644,0.027c0,0.439,0,0.883,0,1.324c-1.37,0-2.738,0-4.107,0
			c-0.062,0.459-0.008,1.031-0.027,1.537c1.158,0.062,2.43,0.009,3.631,0.024c0,0.479,0,0.954,0,1.431c-1.201,0-2.403,0-3.604,0
			c-0.061,0.53-0.008,1.176-0.026,1.75c1.378,0,2.755,0,4.133,0c0,0.433,0,0.864,0,1.299c-1.891-0.02-3.851,0.035-5.697-0.025
			c0-2.43,0-4.857,0-7.287C246.299,62.002,246.32,61.979,246.354,61.967z"/>
		<path fill="#F9F9F9" d="M260.158,69.307c0,0.01,0,0.02,0,0.025c-0.565,0-1.131,0-1.696,0c-0.465-0.688-0.936-1.402-1.377-2.092
			c-0.149-0.234-0.27-0.501-0.476-0.689c-0.778,0-1.554,0-2.333,0c-0.018,0.928,0.035,1.926-0.026,2.809c-0.477,0-0.955,0-1.432,0
			c0.018-2.453-0.035-4.979,0.027-7.393c0.833,0,1.724,0,2.597,0c0.847,0,1.712-0.087,2.437,0.105
			c0.647,0.172,1.192,0.688,1.378,1.352c0.198,0.709,0.073,1.645-0.371,2.227c-0.146,0.192-0.36,0.343-0.556,0.449
			c-0.067,0.039-0.168,0.051-0.212,0.133C258.812,67.243,259.458,68.303,260.158,69.307z M254.25,63.346c0,0.617,0,1.235,0,1.854
			c1.023-0.15,2.876,0.334,3.392-0.343c0.256-0.34,0.23-1.018-0.08-1.326c-0.585-0.586-2.322-0.104-3.286-0.266
			C254.246,63.27,254.247,63.307,254.25,63.346z"/>
		<path fill="#F9F9F9" d="M189.705,62.1c0.451,0,0.902,0,1.352,0c1.115,2.289,2.203,4.642,3.312,6.971
			c0.063,0.134,0.194,0.26,0.185,0.424c-0.539,0-1.077,0-1.617,0c-0.206-0.483-0.468-0.91-0.662-1.404c-1.272,0-2.544,0-3.814,0
			c-0.271,0.438-0.45,0.963-0.717,1.404c-0.546,0-1.094,0-1.641,0C187.278,67.003,188.496,64.555,189.705,62.1z M189.043,66.816
			c0.865,0,1.731,0,2.597,0c-0.423-0.894-0.839-1.793-1.299-2.649C189.917,65.059,189.474,65.932,189.043,66.816z"/>
		<path fill="#F9F9F9" d="M199.668,62.127c0,0.434,0,0.865,0,1.297c-0.851,0.038-1.46-0.051-2.226,0
			c-1.458,0.098-2.209,1.264-2.2,2.598c0.004,0.461,0.107,0.957,0.372,1.353c0.667,0.994,2.33,0.872,4.054,0.851
			c0,0.433,0,0.863,0,1.297c-1.25-0.051-2.346,0.098-3.259-0.08c-0.871-0.17-1.605-0.659-2.041-1.324
			c-0.93-1.424-0.646-4.131,0.503-5.141C195.862,62.105,197.7,62.068,199.668,62.127z"/>
		<path fill="#F9F9F9" d="M202.529,62.127c1.881,0,3.762,0,5.644,0c0,0.45,0,0.9,0,1.352c-1.368,0-2.738,0-4.106,0
			c-0.062,0.449-0.009,1.017-0.027,1.511c1.156,0.062,2.428,0.01,3.63,0.024c0,0.479,0,0.954,0,1.432
			c-1.157,0.062-2.429,0.01-3.63,0.027c0,1.006,0,2.012,0,3.021c-0.512,0-1.024,0-1.537,0c0-2.432,0-4.858,0-7.287
			C202.501,62.168,202.499,62.131,202.529,62.127z"/>
		<path fill="#F9F9F9" d="M216.705,62.127c0,0.434,0,0.865,0,1.297c-1.524-0.016-2.917-0.127-3.683,0.584
			c-0.62,0.573-0.972,2.069-0.53,3.073c0.575,1.302,2.316,1.175,4.213,1.14c0,0.435,0,0.865,0,1.299
			c-1.561-0.037-2.955,0.138-3.947-0.293c-0.98-0.424-1.599-1.188-1.802-2.41c-0.218-1.319,0.021-2.654,0.637-3.443
			c0.636-0.812,1.568-1.152,2.994-1.221C215.25,62.122,215.952,62.122,216.705,62.127z"/>
		<path fill="#F9F9F9" d="M180.327,62.152c1.632,0.088,3.515-0.113,5.086,0c0.444,0.033,0.924,0.192,1.192,0.426
			c1.018,0.877,0.972,3.551-0.159,4.266c-0.6,0.381-1.433,0.291-2.198,0.291c-0.775,0-1.597,0-2.491,0c0,0.795,0,1.59,0,2.387
			c-0.486,0-0.972,0-1.458,0c0-2.431,0-4.857,0-7.287C180.296,62.195,180.295,62.157,180.327,62.152z M181.757,63.504
			c0,0.777,0,1.555,0,2.332c0.659,0,1.314,0,2.04,0c0.676,0,1.5,0.089,1.828-0.238c0.322-0.322,0.364-1.285,0.107-1.723
			c-0.315-0.533-1.142-0.451-2.041-0.451c-0.688,0-1.392,0-1.908,0C181.752,63.43,181.753,63.467,181.757,63.504z"/>
		<path fill="#F9F9F9" d="M200.33,62.152c0.495,0,0.99,0,1.483,0c0,2.465,0,4.93,0,7.394c-0.502,0-1.006,0-1.509,0
			c0-2.437,0-4.875,0-7.312C200.302,62.195,200.299,62.157,200.33,62.152z"/>
		<path fill="#F9F9F9" d="M208.836,62.152c0.494,0,0.988,0,1.483,0c0,2.465,0,4.93,0,7.394c-0.504,0-1.007,0-1.511,0
			c0-2.437,0-4.875,0-7.312C208.807,62.195,208.804,62.157,208.836,62.152z"/>
	</g>
</g>
</svg>
