<?xml version="1.0" encoding="utf-8"?>
<!-- Generator: Adobe Illustrator 15.0.2, SVG Export Plug-In . SVG Version: 6.00 Build 0)  -->
<!DOCTYPE svg PUBLIC "-//W3C//DTD SVG 1.1//EN" "http://www.w3.org/Graphics/SVG/1.1/DTD/svg11.dtd">
<svg version="1.1" id="Layer_1" xmlns="http://www.w3.org/2000/svg" xmlns:xlink="http://www.w3.org/1999/xlink" x="0px" y="0px"
	 width="658.473px" height="93.616px" viewBox="0 -6.384 658.473 93.616" enable-background="new 0 -6.384 658.473 93.616"
	 xml:space="preserve">
<g id="sky">
</g>
<g id="hills3">
</g>
<g id="hills1">
</g>
<g id="tractor">
</g>
<g id="hills">
</g>
<g id="foreground">
</g>
<g id="cows">
</g>
<g id="balloons">
</g>
<g>
	<path fill="#00B6D2" d="M0.975,52.426c0,0.175-0.219,0.314-0.488,0.314l0,0C0.219,52.74,0,52.6,0,52.426V30.852
		c0-0.175,0.219-0.312,0.486-0.312l0,0c0.27,0,0.488,0.142,0.488,0.312L0.975,52.426L0.975,52.426z"/>
	<rect x="123.992" y="39.225" fill="#006796" width="33.896" height="1.094"/>
	<circle fill="#606049" cx="46.795" cy="32.912" r="3.375"/>
	<path fill="#606049" d="M51.67,40.131c0,1.521-1.369,2.75-3.062,2.75l0,0c-1.693,0-3.062-1.229-3.062-2.75v-3.28
		c0-1.521,1.369-2.75,3.062-2.75l0,0c1.693,0,3.062,1.229,3.062,2.75V40.131z"/>
	<path fill="#00B6D2" d="M129.322,34.486c0,5.896-3.588,10.35-9.477,10.35c-5.889,0-24.418-6.938-18.771-8.61
		c9.842-2.916,11.697-12.394,17.586-12.394C124.549,23.826,129.322,28.6,129.322,34.486z"/>
	<path fill="#006796" d="M28.512,61.732c-0.012,0.125-0.432,0.188-0.941,0.146l0,0c-0.504-0.045-0.912-0.188-0.9-0.312l4.605-16.107
		c0.008-0.125,0.428-0.19,0.939-0.146l0,0c0.506,0.043,0.912,0.186,0.902,0.311L28.512,61.732z"/>
	<rect x="0.523" y="40.41" fill="#006796" width="3.826" height="2.316"/>
	<circle fill="#006796" cx="27.022" cy="63.59" r="3.372"/>
	<path fill="#00B6D2" d="M121.986,38.77c0,0-41.223-5.959-68.795-6.924c-0.705-0.025-0.025,3.481-0.734,3.461
		c-2.4-0.082-7.07,0.887-9.471,0.819c-0.631-0.021-0.508-1.969-1.135-1.983C15.514,33.459,6.072,35.357,3.264,38.77
		c-1.951,2.373-0.201,6.899,1.828,10.08c3.729,0.229,13.016,4.062,15.934,4.315c7.014,0.625,13.793,0.125,20.699-1.143
		c14.025-2.56,26.543-8.646,41.121-8.556c3.537,0.021,22.252-0.521,29.873,2.673c5.688-0.935,9.268-1.546,9.268-1.546L121.986,38.77
		L121.986,38.77z"/>
	<path fill="#006796" d="M82.846,43.475c-14.578-0.091-27.201,3.396-41.227,5.957c-6.906,1.258-17.316-1.929-24.33-2.554
		c-2.916-0.26-8.469,2.197-12.197,1.972c0.146,0.229,0.293,0.457,0.443,0.672c6.686,9.66,28.717,6.522,38.453,6.021
		c15.119-0.789,51.549-6.565,68.73-9.396C105.098,42.953,86.383,43.496,82.846,43.475z"/>
	<path fill="#006796" d="M31.227,51.074c0.074,0.229-0.18,0.506-0.561,0.623l0,0c-0.377,0.111-0.742,0.021-0.812-0.197
		l-8.717-28.174c-0.074-0.229,0.18-0.512,0.561-0.625l0,0c0.377-0.117,0.742-0.027,0.812,0.193L31.227,51.074z"/>
	<path fill="#006796" d="M42.148,48.818c0.072,0.229-0.18,0.51-0.561,0.621l0,0c-0.377,0.117-0.744,0.026-0.814-0.193l-8.717-28.178
		c-0.072-0.228,0.182-0.508,0.559-0.625l0,0c0.379-0.111,0.746-0.021,0.814,0.199L42.148,48.818z"/>
	<path fill="#00B6D2" d="M76.062,51.818c0,1.42-1.07,1.276-2.043,1.276l-51.967,1.294c-0.973,0-1.76-1.15-1.76-2.57l0,0
		c0-1.422,0.867-4.479,1.84-4.479l52.17,1.91C75.275,49.248,76.062,50.396,76.062,51.818L76.062,51.818z"/>
	<path fill="#00B6D2" d="M64.764,22.477c0,1.42-1.07,1.278-2.043,1.278l-51.967,1.293c-0.973,0-1.76-1.151-1.76-2.571l0,0
		c0-1.42,0.867-4.479,1.84-4.479l52.17,1.908C63.977,19.906,64.764,21.057,64.764,22.477L64.764,22.477z"/>
	<g>
		<polygon fill="#0079A3" points="658.473,83.735 592.137,83.735 592.137,4.468 658.473,4.468 640.34,40.118 		"/>
		<polygon fill="#006796" points="602.569,83.635 592.047,83.735 592.047,4.468 602.569,4.37 		"/>
		<polygon fill="#00516D" points="599.336,75.768 592.047,83.735 592.047,4.468 599.336,-3.498 		"/>
		<rect x="156.611" y="-3.498" fill="#0079A3" width="442.937" height="79.267"/>
	</g>
	<g>
		<path fill="#FFFFFF" d="M329.897,12.725L327.3,2.497h1.396l1.212,5.175c0.305,1.273,0.576,2.554,0.76,3.535h0.029
			c0.168-1.018,0.486-2.229,0.836-3.551l1.365-5.159h1.381l1.244,5.189c0.289,1.213,0.561,2.429,0.715,3.506h0.027
			c0.213-1.123,0.502-2.261,0.82-3.534l1.352-5.16h1.348l-2.898,10.229h-1.379L334.217,7.4c-0.316-1.306-0.531-2.307-0.666-3.339
			h-0.029c-0.17,1.019-0.41,2.021-0.791,3.339l-1.455,5.327L329.897,12.725L329.897,12.725z"/>
		<path fill="#FFFFFF" d="M345.68,10.964c0,0.639,0.031,1.258,0.107,1.762h-1.199l-0.104-0.927h-0.049
			c-0.408,0.577-1.195,1.093-2.244,1.093c-1.484,0-2.244-1.047-2.244-2.107c0-1.775,1.578-2.747,4.416-2.731V7.903
			c0-0.592-0.168-1.7-1.67-1.687c-0.697,0-1.41,0.197-1.93,0.55l-0.303-0.896c0.607-0.379,1.502-0.638,2.428-0.638
			c2.246,0,2.793,1.531,2.793,2.983L345.68,10.964L345.68,10.964z M344.389,8.977c-1.455-0.029-3.105,0.229-3.105,1.653
			c0,0.882,0.576,1.274,1.242,1.274c0.971,0,1.594-0.605,1.805-1.229c0.047-0.151,0.062-0.304,0.062-0.425V8.977H344.389z"/>
		<path fill="#FFFFFF" d="M347.657,11.374c0.41,0.242,1.107,0.518,1.775,0.518c0.957,0,1.41-0.472,1.41-1.095
			c0-0.637-0.379-0.971-1.352-1.334c-1.334-0.485-1.957-1.198-1.957-2.08c0-1.188,0.973-2.153,2.535-2.153
			c0.74,0,1.395,0.196,1.789,0.452l-0.318,0.977c-0.287-0.187-0.816-0.445-1.502-0.445c-0.789,0-1.213,0.456-1.213,1.002
			c0,0.605,0.424,0.88,1.381,1.261c1.262,0.471,1.928,1.106,1.928,2.198c0,1.306-1.018,2.217-2.73,2.217
			c-0.807,0-1.547-0.213-2.064-0.516L347.657,11.374z"/>
		<path fill="#FFFFFF" d="M353.852,1.951h1.336v4.598h0.029c0.213-0.38,0.547-0.729,0.955-0.955c0.396-0.23,0.865-0.364,1.365-0.364
			c0.986,0,2.564,0.604,2.564,3.126v4.37h-1.336v-4.22c0-1.188-0.439-2.169-1.699-2.169c-0.865,0-1.533,0.604-1.789,1.319
			c-0.078,0.196-0.094,0.395-0.094,0.638v4.432h-1.334L353.852,1.951L353.852,1.951z"/>
		<path fill="#FFFFFF" d="M363.764,3.319c0,0.451-0.316,0.815-0.85,0.815c-0.486,0-0.805-0.362-0.805-0.815
			c0-0.454,0.334-0.835,0.834-0.835C363.432,2.483,363.764,2.847,363.764,3.319z M362.276,12.725V5.381h1.338v7.345H362.276z"/>
		<path fill="#FFFFFF" d="M365.831,7.369c0-0.771-0.016-1.383-0.061-1.984h1.184l0.076,1.214h0.029
			c0.365-0.683,1.215-1.365,2.43-1.365c1.016,0,2.596,0.604,2.596,3.126v4.37h-1.338V8.496c0-1.188-0.439-2.172-1.699-2.172
			c-0.865,0-1.547,0.618-1.789,1.362c-0.061,0.17-0.092,0.396-0.092,0.621v4.416h-1.336V7.369L365.831,7.369z"/>
		<path fill="#FFFFFF" d="M380.54,11.647c0,1.701-0.35,2.715-1.047,3.365c-0.73,0.656-1.766,0.881-2.689,0.881
			c-0.881,0-1.852-0.213-2.443-0.604l0.336-1.033c0.484,0.318,1.244,0.593,2.152,0.593c1.367,0,2.367-0.71,2.367-2.578v-0.806
			h-0.025c-0.396,0.683-1.201,1.229-2.34,1.229c-1.82,0-3.125-1.547-3.125-3.58c0-2.487,1.623-3.881,3.322-3.881
			c1.273,0,1.955,0.651,2.291,1.259h0.031l0.043-1.106h1.188c-0.045,0.513-0.062,1.123-0.062,2.004L380.54,11.647L380.54,11.647z
			 M379.202,8.281c0-0.232-0.016-0.427-0.076-0.597c-0.242-0.789-0.881-1.429-1.869-1.429c-1.273,0-2.184,1.082-2.184,2.778
			c0,1.439,0.744,2.64,2.17,2.64c0.832,0,1.576-0.516,1.85-1.364c0.078-0.229,0.107-0.485,0.107-0.711L379.202,8.281L379.202,8.281z
			"/>
		<path fill="#FFFFFF" d="M384.352,3.62v1.765h1.912v1.018h-1.912v3.96c0,0.91,0.258,1.428,1.004,1.428
			c0.359,0,0.572-0.026,0.77-0.091l0.062,1.02C385.93,12.805,385.52,12.9,385,12.9c-0.621,0-1.123-0.213-1.439-0.558
			c-0.365-0.409-0.518-1.065-0.518-1.928V6.408h-1.137v-1.02h1.137V4.024L384.352,3.62z"/>
		<path fill="#FFFFFF" d="M394.325,8.992c0,2.715-1.898,3.897-3.658,3.897c-1.977,0-3.521-1.452-3.521-3.777
			c0-2.442,1.623-3.881,3.643-3.881C392.897,5.229,394.325,6.76,394.325,8.992z M388.51,9.068c0,1.606,0.91,2.819,2.215,2.819
			c1.275,0,2.232-1.199,2.232-2.854c0-1.244-0.621-2.809-2.199-2.809C389.194,6.231,388.51,7.688,388.51,9.068z"/>
		<path fill="#FFFFFF" d="M396.01,7.369c0-0.771-0.016-1.383-0.061-1.984h1.188l0.076,1.214h0.029
			c0.363-0.683,1.213-1.365,2.426-1.365c1.021,0,2.598,0.604,2.598,3.126v4.37h-1.336V8.496c0-1.188-0.439-2.172-1.699-2.172
			c-0.865,0-1.551,0.618-1.791,1.362c-0.062,0.17-0.09,0.396-0.09,0.621v4.416h-1.336V7.369H396.01z"/>
		<path fill="#FFFFFF" d="M407.657,7.672c0-0.864-0.018-1.606-0.062-2.291h1.17l0.062,1.453h0.045
			c0.336-0.981,1.152-1.606,2.049-1.606c0.137,0,0.24,0.016,0.363,0.026v1.259c-0.135-0.026-0.271-0.026-0.453-0.026
			c-0.939,0-1.607,0.698-1.791,1.7c-0.025,0.183-0.045,0.41-0.045,0.621v3.916h-1.336L407.657,7.672L407.657,7.672z"/>
		<path fill="#FFFFFF" d="M413.211,9.295c0.029,1.808,1.17,2.55,2.521,2.55c0.957,0,1.549-0.167,2.031-0.38l0.238,0.955
			c-0.471,0.213-1.291,0.472-2.455,0.472c-2.26,0-3.607-1.502-3.607-3.717c0-2.214,1.303-3.943,3.445-3.943
			c2.408,0,3.031,2.095,3.031,3.442c0,0.273-0.018,0.472-0.045,0.622L413.211,9.295L413.211,9.295z M417.127,8.34
			c0.018-0.836-0.35-2.153-1.85-2.153c-1.367,0-1.943,1.229-2.049,2.153H417.127z"/>
		<path fill="#FFFFFF" d="M419.891,11.374c0.408,0.242,1.107,0.518,1.773,0.518c0.957,0,1.41-0.472,1.41-1.095
			c0-0.637-0.381-0.971-1.35-1.334c-1.336-0.485-1.957-1.198-1.957-2.08c0-1.188,0.973-2.153,2.533-2.153
			c0.744,0,1.396,0.196,1.789,0.452l-0.316,0.977c-0.289-0.187-0.818-0.445-1.502-0.445c-0.789,0-1.215,0.456-1.215,1.002
			c0,0.605,0.426,0.88,1.381,1.261c1.262,0.471,1.928,1.106,1.928,2.198c0,1.306-1.02,2.217-2.73,2.217
			c-0.805,0-1.549-0.213-2.062-0.516L419.891,11.374z"/>
		<path fill="#FFFFFF" d="M427.573,3.319c0,0.451-0.318,0.815-0.852,0.815c-0.486,0-0.807-0.362-0.807-0.815
			c0-0.454,0.338-0.835,0.836-0.835C427.241,2.483,427.573,2.847,427.573,3.319z M426.086,12.725V5.381h1.336v7.345H426.086z"/>
		<path fill="#FFFFFF" d="M435.967,1.951v8.877c0,0.651,0.029,1.396,0.062,1.896h-1.186l-0.061-1.274h-0.047
			c-0.396,0.815-1.275,1.44-2.473,1.44c-1.775,0-3.154-1.502-3.154-3.731c-0.02-2.441,1.516-3.927,3.293-3.927
			c1.137,0,1.883,0.531,2.215,1.107h0.029V1.95L435.967,1.951L435.967,1.951z M434.647,8.369c0-0.166-0.018-0.396-0.062-0.558
			c-0.195-0.836-0.924-1.533-1.926-1.533c-1.381,0-2.199,1.215-2.199,2.818c0,1.485,0.744,2.717,2.17,2.717
			c0.896,0,1.715-0.606,1.959-1.598c0.045-0.183,0.062-0.359,0.062-0.572L434.647,8.369L434.647,8.369z"/>
		<path fill="#FFFFFF" d="M438.946,9.295c0.027,1.808,1.17,2.55,2.518,2.55c0.957,0,1.551-0.167,2.033-0.38l0.238,0.955
			c-0.471,0.213-1.291,0.472-2.455,0.472c-2.26,0-3.609-1.502-3.609-3.717c0-2.214,1.305-3.943,3.445-3.943
			c2.41,0,3.033,2.095,3.033,3.442c0,0.273-0.02,0.472-0.045,0.622L438.946,9.295L438.946,9.295z M442.86,8.34
			c0.018-0.836-0.35-2.153-1.854-2.153c-1.363,0-1.939,1.229-2.047,2.153H442.86z"/>
		<path fill="#FFFFFF" d="M445.809,7.369c0-0.771-0.02-1.383-0.062-1.984h1.186l0.078,1.214h0.027
			c0.365-0.683,1.217-1.365,2.43-1.365c1.018,0,2.596,0.604,2.596,3.126v4.37h-1.336V8.496c0-1.188-0.439-2.172-1.699-2.172
			c-0.867,0-1.551,0.618-1.791,1.362c-0.062,0.17-0.09,0.396-0.09,0.621v4.416h-1.336L445.809,7.369L445.809,7.369z"/>
		<path fill="#FFFFFF" d="M455.782,3.62v1.765h1.914v1.018h-1.914v3.96c0,0.91,0.258,1.428,1.002,1.428
			c0.365,0,0.576-0.026,0.771-0.091l0.062,1.02c-0.258,0.088-0.666,0.183-1.188,0.183c-0.619,0-1.123-0.213-1.441-0.558
			c-0.363-0.409-0.516-1.065-0.516-1.928V6.408h-1.137v-1.02h1.137V4.024L455.782,3.62z"/>
		<path fill="#FFFFFF" d="M460.686,3.319c0,0.451-0.318,0.815-0.852,0.815c-0.486,0-0.807-0.362-0.807-0.815
			c0-0.454,0.338-0.835,0.834-0.835C460.352,2.483,460.686,2.847,460.686,3.319z M459.2,12.725V5.381h1.334v7.345H459.2z"/>
		<path fill="#FFFFFF" d="M467.911,10.964c0,0.639,0.029,1.258,0.105,1.762h-1.197l-0.105-0.927h-0.045
			c-0.408,0.577-1.197,1.093-2.244,1.093c-1.486,0-2.242-1.047-2.242-2.107c0-1.775,1.576-2.747,4.414-2.731V7.903
			c0-0.592-0.168-1.7-1.67-1.687c-0.695,0-1.406,0.197-1.924,0.55L462.7,5.871c0.604-0.379,1.502-0.638,2.428-0.638
			c2.244,0,2.791,1.531,2.791,2.983v2.75L467.911,10.964L467.911,10.964z M466.622,8.977c-1.457-0.029-3.111,0.229-3.111,1.653
			c0,0.882,0.576,1.274,1.242,1.274c0.977,0,1.596-0.605,1.809-1.229c0.045-0.151,0.061-0.304,0.061-0.425V8.977L466.622,8.977z"/>
		<path fill="#FFFFFF" d="M470.069,1.951h1.336v10.772h-1.336V1.951z"/>
		<path fill="#FFFFFF" d="M482.03,10.964c0,0.639,0.027,1.258,0.104,1.762h-1.195l-0.105-0.927h-0.047
			c-0.408,0.577-1.197,1.093-2.244,1.093c-1.486,0-2.242-1.047-2.242-2.107c0-1.775,1.576-2.747,4.414-2.731V7.903
			c0-0.592-0.168-1.7-1.668-1.687c-0.699,0-1.41,0.197-1.926,0.55l-0.303-0.896c0.604-0.379,1.504-0.638,2.428-0.638
			c2.244,0,2.791,1.531,2.791,2.983v2.75L482.03,10.964L482.03,10.964z M480.739,8.977c-1.453-0.029-3.109,0.229-3.109,1.653
			c0,0.882,0.576,1.274,1.242,1.274c0.975,0,1.594-0.605,1.809-1.229c0.043-0.151,0.061-0.304,0.061-0.425L480.739,8.977
			L480.739,8.977z"/>
		<path fill="#FFFFFF" d="M484.188,7.369c0-0.771-0.018-1.383-0.062-1.984h1.188l0.078,1.214h0.027
			c0.363-0.683,1.215-1.365,2.428-1.365c1.02,0,2.596,0.604,2.596,3.126v4.37h-1.334V8.496c0-1.188-0.441-2.172-1.701-2.172
			c-0.867,0-1.551,0.618-1.791,1.362c-0.062,0.17-0.09,0.396-0.09,0.621v4.416h-1.336L484.188,7.369L484.188,7.369z"/>
		<path fill="#FFFFFF" d="M498.942,1.951v8.877c0,0.651,0.027,1.396,0.062,1.896h-1.188l-0.062-1.274h-0.043
			c-0.396,0.815-1.273,1.44-2.475,1.44c-1.773,0-3.154-1.502-3.154-3.731c-0.018-2.441,1.518-3.927,3.295-3.927
			c1.137,0,1.881,0.531,2.217,1.107h0.025V1.95L498.942,1.951L498.942,1.951z M497.622,8.369c0-0.166-0.016-0.396-0.062-0.558
			c-0.195-0.836-0.924-1.533-1.926-1.533c-1.383,0-2.197,1.215-2.197,2.818c0,1.485,0.744,2.717,2.17,2.717
			c0.896,0,1.715-0.606,1.959-1.598c0.045-0.183,0.061-0.359,0.061-0.572L497.622,8.369L497.622,8.369z"/>
		<path fill="#FFFFFF" d="M509.631,12.467c-0.348,0.166-1.123,0.425-2.109,0.425c-2.217,0-3.656-1.502-3.656-3.746
			c0-2.263,1.547-3.916,3.943-3.916c0.789,0,1.486,0.196,1.852,0.396l-0.301,1.021c-0.318-0.17-0.82-0.349-1.551-0.349
			c-1.686,0-2.598,1.26-2.598,2.776c0,1.699,1.094,2.746,2.553,2.746c0.76,0,1.26-0.187,1.641-0.351L509.631,12.467z"/>
		<path fill="#FFFFFF" d="M517.75,8.992c0,2.715-1.895,3.897-3.658,3.897c-1.975,0-3.52-1.452-3.52-3.777
			c0-2.442,1.623-3.881,3.643-3.881C516.325,5.229,517.75,6.76,517.75,8.992z M511.94,9.068c0,1.606,0.91,2.819,2.215,2.819
			c1.273,0,2.23-1.199,2.23-2.854c0-1.244-0.619-2.809-2.197-2.809C512.624,6.231,511.94,7.688,511.94,9.068z"/>
		<path fill="#FFFFFF" d="M519.44,7.369c0-0.771-0.029-1.383-0.062-1.984h1.17l0.062,1.194h0.047c0.408-0.698,1.09-1.348,2.32-1.348
			c0.982,0,1.742,0.604,2.062,1.472h0.029c0.229-0.425,0.529-0.728,0.832-0.954c0.439-0.339,0.912-0.518,1.607-0.518
			c0.984,0,2.43,0.638,2.43,3.188v4.311h-1.305V8.584c0-1.426-0.531-2.257-1.596-2.257c-0.771,0-1.348,0.558-1.594,1.195
			c-0.062,0.194-0.105,0.425-0.105,0.666v4.537h-1.305V8.326c0-1.173-0.516-2.003-1.533-2.003c-0.816,0-1.441,0.664-1.654,1.335
			c-0.078,0.182-0.105,0.426-0.105,0.651v4.416h-1.305L519.44,7.369L519.44,7.369z"/>
		<path fill="#FFFFFF" d="M532.104,7.369c0-0.771-0.029-1.383-0.062-1.984h1.168l0.062,1.194h0.045
			c0.408-0.698,1.092-1.348,2.322-1.348c0.982,0,1.742,0.604,2.062,1.472h0.029c0.229-0.425,0.529-0.728,0.834-0.954
			c0.438-0.339,0.91-0.518,1.605-0.518c0.984,0,2.43,0.638,2.43,3.188v4.311h-1.307V8.584c0-1.426-0.531-2.257-1.594-2.257
			c-0.773,0-1.35,0.558-1.596,1.195c-0.062,0.194-0.105,0.425-0.105,0.666v4.537h-1.303V8.326c0-1.173-0.518-2.003-1.533-2.003
			c-0.818,0-1.443,0.664-1.656,1.335c-0.076,0.182-0.104,0.426-0.104,0.651v4.416h-1.305L532.104,7.369L532.104,7.369z"/>
		<path fill="#FFFFFF" d="M545.508,9.295c0.029,1.808,1.17,2.55,2.521,2.55c0.955,0,1.549-0.167,2.029-0.38l0.24,0.955
			c-0.471,0.213-1.291,0.472-2.457,0.472c-2.26,0-3.609-1.502-3.609-3.717c0-2.214,1.305-3.943,3.443-3.943
			c2.412,0,3.033,2.095,3.033,3.442c0,0.273-0.016,0.472-0.045,0.622L545.508,9.295L545.508,9.295z M549.422,8.34
			c0.02-0.836-0.348-2.153-1.85-2.153c-1.367,0-1.943,1.229-2.049,2.153H549.422z"/>
		<path fill="#FFFFFF" d="M552.372,7.672c0-0.864-0.02-1.606-0.062-2.291h1.17l0.061,1.453h0.047
			c0.334-0.981,1.15-1.606,2.049-1.606c0.135,0,0.238,0.016,0.363,0.026v1.259c-0.137-0.026-0.273-0.026-0.455-0.026
			c-0.939,0-1.607,0.698-1.791,1.7c-0.025,0.183-0.043,0.41-0.043,0.621v3.916h-1.336L552.372,7.672L552.372,7.672z"/>
		<path fill="#FFFFFF" d="M562.418,12.467c-0.35,0.166-1.125,0.425-2.111,0.425c-2.215,0-3.656-1.502-3.656-3.746
			c0-2.263,1.549-3.916,3.943-3.916c0.789,0,1.486,0.196,1.854,0.396l-0.303,1.021c-0.318-0.17-0.816-0.349-1.551-0.349
			c-1.684,0-2.596,1.26-2.596,2.776c0,1.699,1.092,2.746,2.551,2.746c0.762,0,1.26-0.187,1.641-0.351L562.418,12.467z"/>
		<path fill="#FFFFFF" d="M565.469,3.319c0,0.451-0.316,0.815-0.85,0.815c-0.486,0-0.805-0.362-0.805-0.815
			c0-0.454,0.336-0.835,0.834-0.835C565.137,2.483,565.469,2.847,565.469,3.319z M563.983,12.725V5.381h1.338v7.345H563.983z"/>
		<path fill="#FFFFFF" d="M572.694,10.964c0,0.639,0.029,1.258,0.104,1.762h-1.195l-0.105-0.927h-0.045
			c-0.408,0.577-1.197,1.093-2.244,1.093c-1.488,0-2.244-1.047-2.244-2.107c0-1.775,1.578-2.747,4.416-2.731V7.903
			c0-0.592-0.168-1.7-1.67-1.687c-0.697,0-1.408,0.197-1.926,0.55l-0.301-0.896c0.604-0.379,1.504-0.638,2.428-0.638
			c2.244,0,2.793,1.531,2.793,2.983v2.75L572.694,10.964L572.694,10.964z M571.405,8.977c-1.455-0.029-3.109,0.229-3.109,1.653
			c0,0.882,0.576,1.274,1.242,1.274c0.973,0,1.594-0.605,1.807-1.229c0.047-0.151,0.062-0.304,0.062-0.425L571.405,8.977
			L571.405,8.977z"/>
		<path fill="#FFFFFF" d="M574.856,1.951h1.336v10.772h-1.336V1.951z"/>
		<path fill="#FFFFFF" d="M333.413,30.686c-0.35,0.166-1.121,0.425-2.109,0.425c-2.214,0-3.655-1.503-3.655-3.746
			c0-2.263,1.549-3.921,3.944-3.921c0.789,0,1.486,0.198,1.854,0.396l-0.307,1.017c-0.316-0.166-0.814-0.344-1.547-0.344
			c-1.684,0-2.595,1.255-2.595,2.771c0,1.7,1.093,2.748,2.548,2.748c0.76,0,1.262-0.183,1.639-0.347L333.413,30.686z"/>
		<path fill="#FFFFFF" d="M341.127,28.926c0,0.773,0.014,1.444,0.062,2.021h-1.186l-0.076-1.199h-0.029
			c-0.334,0.593-1.121,1.366-2.43,1.366c-1.15,0-2.531-0.656-2.531-3.219V23.6h1.334v4.051c0,1.397,0.439,2.354,1.639,2.354
			c0.896,0,1.52-0.623,1.762-1.233c0.074-0.183,0.121-0.424,0.121-0.684v-4.49h1.336v5.328H341.127z"/>
		<path fill="#FFFFFF" d="M343.165,29.594c0.41,0.242,1.105,0.517,1.775,0.517c0.955,0,1.41-0.471,1.41-1.094
			c0-0.638-0.381-0.972-1.352-1.334c-1.336-0.489-1.959-1.199-1.959-2.083c0-1.185,0.973-2.155,2.535-2.155
			c0.742,0,1.396,0.198,1.791,0.457l-0.32,0.972c-0.287-0.185-0.816-0.44-1.5-0.44c-0.789,0-1.215,0.456-1.215,1.002
			c0,0.606,0.426,0.88,1.381,1.26c1.26,0.472,1.928,1.106,1.928,2.199c0,1.302-1.016,2.216-2.73,2.216
			c-0.805,0-1.547-0.212-2.064-0.516L343.165,29.594z"/>
		<path fill="#FFFFFF" d="M350.965,21.839V23.6h1.914v1.021h-1.914v3.96c0,0.91,0.26,1.427,1.002,1.427
			c0.365,0,0.578-0.029,0.775-0.091l0.061,1.018c-0.258,0.09-0.668,0.186-1.186,0.186c-0.621,0-1.123-0.212-1.441-0.562
			c-0.361-0.41-0.516-1.062-0.516-1.925v-4.006h-1.139v-1.021h1.139v-1.371L350.965,21.839z"/>
		<path fill="#FFFFFF" d="M360.938,27.211c0,2.715-1.896,3.898-3.656,3.898c-1.973,0-3.521-1.456-3.521-3.777
			c0-2.441,1.625-3.885,3.645-3.885C359.512,23.448,360.938,24.98,360.938,27.211z M355.127,27.287c0,1.606,0.91,2.821,2.215,2.821
			c1.273,0,2.23-1.198,2.23-2.854c0-1.244-0.623-2.812-2.199-2.812C355.809,24.449,355.127,25.906,355.127,27.287z"/>
		<path fill="#FFFFFF" d="M362.627,25.588c0-0.774-0.029-1.382-0.061-1.987h1.168l0.061,1.198h0.045
			c0.41-0.698,1.094-1.352,2.322-1.352c0.986,0,1.744,0.605,2.062,1.472h0.029c0.229-0.425,0.529-0.725,0.836-0.954
			c0.439-0.336,0.908-0.518,1.607-0.518c0.984,0,2.43,0.639,2.43,3.188v4.312h-1.307v-4.146c0-1.426-0.531-2.26-1.594-2.26
			c-0.773,0-1.352,0.562-1.594,1.199c-0.061,0.195-0.105,0.424-0.105,0.667v4.535h-1.307v-4.401c0-1.168-0.516-2.003-1.529-2.003
			c-0.82,0-1.441,0.669-1.654,1.335c-0.074,0.187-0.105,0.43-0.105,0.655v4.416h-1.305V25.588L362.627,25.588z"/>
		<path fill="#FFFFFF" d="M376.032,27.516c0.031,1.807,1.168,2.549,2.518,2.549c0.957,0,1.551-0.166,2.033-0.379l0.242,0.955
			c-0.471,0.213-1.291,0.471-2.459,0.471c-2.26,0-3.609-1.504-3.609-3.717c0-2.215,1.307-3.944,3.445-3.944
			c2.41,0,3.033,2.094,3.033,3.446c0,0.272-0.018,0.473-0.047,0.622L376.032,27.516L376.032,27.516z M379.946,26.559
			c0.016-0.832-0.348-2.149-1.852-2.149c-1.363,0-1.939,1.229-2.047,2.149H379.946z"/>
		<path fill="#FFFFFF" d="M382.893,25.891c0-0.869-0.016-1.608-0.061-2.293h1.166l0.062,1.456h0.045
			c0.334-0.985,1.152-1.608,2.049-1.608c0.135,0,0.242,0.02,0.363,0.031v1.258c-0.137-0.029-0.273-0.029-0.451-0.029
			c-0.941,0-1.607,0.702-1.793,1.704c-0.029,0.182-0.047,0.405-0.047,0.616v3.92h-1.336L382.893,25.891L382.893,25.891z"/>
		<path fill="#FFFFFF" d="M387.678,29.594c0.408,0.242,1.109,0.517,1.775,0.517c0.957,0,1.408-0.471,1.408-1.094
			c0-0.638-0.381-0.972-1.352-1.334c-1.338-0.489-1.957-1.199-1.957-2.083c0-1.185,0.975-2.155,2.535-2.155
			c0.744,0,1.396,0.198,1.789,0.457l-0.318,0.972c-0.289-0.185-0.814-0.44-1.504-0.44c-0.785,0-1.213,0.456-1.213,1.002
			c0,0.606,0.428,0.88,1.381,1.26c1.262,0.472,1.926,1.106,1.926,2.199c0,1.302-1.018,2.216-2.729,2.216
			c-0.807,0-1.551-0.212-2.064-0.516L387.678,29.594z"/>
		<path fill="#FFFFFF" d="M403.739,27.211c0,2.715-1.898,3.898-3.66,3.898c-1.977,0-3.52-1.456-3.52-3.777
			c0-2.441,1.623-3.885,3.643-3.885C402.309,23.448,403.739,24.98,403.739,27.211z M397.926,27.287c0,1.606,0.908,2.821,2.215,2.821
			c1.275,0,2.23-1.198,2.23-2.854c0-1.244-0.621-2.812-2.199-2.812C398.608,24.449,397.926,25.906,397.926,27.287z"/>
		<path fill="#FFFFFF" d="M405.563,30.944v-6.325h-1.021v-1.021h1.021V23.25c0-1.031,0.238-1.977,0.85-2.563
			c0.5-0.483,1.17-0.684,1.791-0.684c0.486,0,0.877,0.105,1.135,0.212l-0.184,1.032c-0.195-0.091-0.453-0.171-0.852-0.171
			c-1.135,0-1.426,0.985-1.426,2.129V23.6h1.773v1.021h-1.773v6.327L405.563,30.944L405.563,30.944z"/>
		<path fill="#FFFFFF" d="M413.124,30.944V20.716h1.453l3.264,5.176c0.744,1.194,1.352,2.276,1.82,3.322l0.043-0.02
			c-0.123-1.362-0.148-2.607-0.148-4.198v-4.28h1.24v10.229h-1.336l-3.246-5.192c-0.713-1.133-1.396-2.308-1.896-3.413l-0.045,0.02
			c0.076,1.29,0.09,2.517,0.09,4.22v4.368L413.124,30.944L413.124,30.944z"/>
		<path fill="#FFFFFF" d="M424.78,30.944l-2.598-10.229h1.396l1.217,5.176c0.303,1.274,0.574,2.55,0.76,3.534h0.027
			c0.168-1.016,0.486-2.232,0.834-3.555l1.365-5.155h1.383l1.242,5.19c0.291,1.213,0.561,2.428,0.711,3.506h0.027
			c0.215-1.126,0.502-2.261,0.818-3.539l1.35-5.156h1.35l-2.898,10.229h-1.383l-1.291-5.325c-0.314-1.306-0.527-2.308-0.666-3.344
			h-0.025c-0.17,1.021-0.41,2.021-0.789,3.344l-1.457,5.325L424.78,30.944L424.78,30.944z"/>
		<path fill="#FFFFFF" d="M439.174,30.944V20.716h1.455l3.262,5.176c0.744,1.194,1.352,2.276,1.82,3.322l0.045-0.02
			c-0.125-1.362-0.15-2.607-0.15-4.198v-4.28h1.242v10.229h-1.338l-3.244-5.192c-0.711-1.133-1.396-2.308-1.896-3.413l-0.045,0.02
			c0.078,1.29,0.09,2.517,0.09,4.22v4.368L439.174,30.944L439.174,30.944z"/>
		<path fill="#FFFFFF" d="M454.276,29.184c0,0.637,0.029,1.26,0.105,1.765h-1.197l-0.105-0.927h-0.043
			c-0.41,0.577-1.199,1.094-2.246,1.094c-1.486,0-2.242-1.048-2.242-2.109c0-1.774,1.576-2.747,4.414-2.73v-0.151
			c0-0.592-0.168-1.699-1.668-1.687c-0.699,0-1.41,0.197-1.926,0.548l-0.303-0.895c0.604-0.381,1.502-0.64,2.428-0.64
			c2.246,0,2.793,1.532,2.793,2.988v2.746L454.276,29.184L454.276,29.184z M452.987,27.199c-1.455-0.031-3.109,0.227-3.109,1.651
			c0,0.881,0.576,1.274,1.242,1.274c0.973,0,1.594-0.604,1.805-1.229c0.047-0.15,0.062-0.305,0.062-0.425V27.199L452.987,27.199z"/>
		<path fill="#FFFFFF" d="M457.983,21.839V23.6h1.914v1.021h-1.914v3.96c0,0.91,0.258,1.427,1.002,1.427
			c0.363,0,0.578-0.029,0.771-0.091l0.062,1.018c-0.258,0.09-0.666,0.186-1.189,0.186c-0.619,0-1.121-0.212-1.439-0.562
			c-0.363-0.41-0.518-1.062-0.518-1.925v-4.006h-1.137v-1.021h1.137v-1.371L457.983,21.839z"/>
		<path fill="#FFFFFF" d="M467.545,28.926c0,0.773,0.02,1.444,0.062,2.021h-1.188l-0.076-1.199h-0.025
			c-0.338,0.593-1.127,1.366-2.432,1.366c-1.15,0-2.531-0.656-2.531-3.219V23.6h1.334v4.051c0,1.397,0.441,2.354,1.641,2.354
			c0.895,0,1.518-0.623,1.76-1.233c0.078-0.183,0.125-0.424,0.125-0.684v-4.49h1.336L467.545,28.926L467.545,28.926z"/>
		<path fill="#FFFFFF" d="M469.766,25.891c0-0.869-0.02-1.608-0.062-2.293h1.17l0.062,1.456h0.045
			c0.336-0.985,1.15-1.608,2.047-1.608c0.137,0,0.242,0.02,0.365,0.031v1.258c-0.139-0.029-0.273-0.029-0.455-0.029
			c-0.939,0-1.607,0.702-1.789,1.704c-0.027,0.182-0.045,0.405-0.045,0.616v3.92h-1.336L469.766,25.891L469.766,25.891z"/>
		<path fill="#FFFFFF" d="M479.813,29.184c0,0.637,0.025,1.26,0.104,1.765h-1.195l-0.107-0.927h-0.045
			c-0.41,0.577-1.197,1.094-2.244,1.094c-1.488,0-2.244-1.048-2.244-2.109c0-1.774,1.578-2.747,4.416-2.73v-0.151
			c0-0.592-0.168-1.699-1.668-1.687c-0.699,0-1.41,0.197-1.926,0.548l-0.305-0.895c0.605-0.381,1.504-0.64,2.43-0.64
			c2.244,0,2.793,1.532,2.793,2.988v2.746L479.813,29.184L479.813,29.184z M478.522,27.199c-1.455-0.031-3.109,0.227-3.109,1.651
			c0,0.881,0.576,1.274,1.244,1.274c0.971,0,1.594-0.604,1.805-1.229c0.045-0.15,0.062-0.305,0.062-0.425L478.522,27.199
			L478.522,27.199z"/>
		<path fill="#FFFFFF" d="M481.973,20.17h1.334v10.777h-1.334V20.17z"/>
		<path fill="#FFFFFF" d="M495.053,29.866c0,1.699-0.346,2.716-1.045,3.367c-0.729,0.652-1.762,0.882-2.686,0.882
			c-0.881,0-1.854-0.214-2.443-0.607l0.334-1.027c0.486,0.318,1.244,0.593,2.154,0.593c1.365,0,2.367-0.714,2.367-2.579v-0.805
			h-0.029c-0.396,0.683-1.197,1.229-2.338,1.229c-1.818,0-3.127-1.547-3.127-3.58c0-2.487,1.623-3.885,3.322-3.885
			c1.273,0,1.959,0.655,2.293,1.26h0.027l0.045-1.106h1.188c-0.045,0.517-0.062,1.127-0.062,2.002V29.866L495.053,29.866z
			 M493.719,26.498c0-0.229-0.018-0.425-0.076-0.592c-0.242-0.789-0.879-1.428-1.867-1.428c-1.275,0-2.189,1.077-2.189,2.776
			c0,1.439,0.742,2.641,2.17,2.641c0.834,0,1.578-0.517,1.854-1.364c0.078-0.232,0.105-0.486,0.105-0.714L493.719,26.498
			L493.719,26.498z"/>
		<path fill="#FFFFFF" d="M502.418,29.184c0,0.637,0.029,1.26,0.107,1.765h-1.197l-0.105-0.927h-0.047
			c-0.406,0.577-1.195,1.094-2.244,1.094c-1.486,0-2.242-1.048-2.242-2.109c0-1.774,1.578-2.747,4.414-2.73v-0.151
			c0-0.592-0.166-1.699-1.666-1.687c-0.701,0-1.41,0.197-1.93,0.548l-0.303-0.895c0.607-0.381,1.504-0.64,2.43-0.64
			c2.244,0,2.791,1.532,2.791,2.988v2.746L502.418,29.184L502.418,29.184z M501.129,27.199c-1.455-0.031-3.107,0.227-3.107,1.651
			c0,0.881,0.572,1.274,1.238,1.274c0.977,0,1.596-0.604,1.809-1.229c0.047-0.15,0.062-0.305,0.062-0.425L501.129,27.199
			L501.129,27.199z"/>
		<path fill="#FFFFFF" d="M506.063,21.536c0,0.454-0.32,0.818-0.854,0.818c-0.484,0-0.805-0.364-0.805-0.818
			c0-0.456,0.336-0.835,0.836-0.835C505.731,20.701,506.063,21.066,506.063,21.536z M504.577,30.944v-7.348h1.336v7.348H504.577z"/>
		<path fill="#FFFFFF" d="M508.131,25.588c0-0.774-0.018-1.382-0.062-1.987h1.186l0.078,1.213h0.029
			c0.363-0.683,1.213-1.364,2.428-1.364c1.018,0,2.596,0.606,2.596,3.13v4.37h-1.336v-4.236c0-1.185-0.439-2.171-1.701-2.171
			c-0.865,0-1.551,0.622-1.789,1.366c-0.062,0.167-0.092,0.396-0.092,0.62v4.416h-1.336V25.588L508.131,25.588z"/>
		<path fill="#FFFFFF" d="M524.932,29.184c0,0.637,0.029,1.26,0.107,1.765h-1.199l-0.104-0.927h-0.045
			c-0.408,0.577-1.199,1.094-2.244,1.094c-1.488,0-2.244-1.048-2.244-2.109c0-1.774,1.578-2.747,4.414-2.73v-0.151
			c0-0.592-0.166-1.699-1.666-1.687c-0.699,0-1.412,0.197-1.928,0.548l-0.305-0.895c0.605-0.381,1.504-0.64,2.43-0.64
			c2.244,0,2.793,1.532,2.793,2.988v2.746L524.932,29.184L524.932,29.184z M523.643,27.199c-1.455-0.031-3.109,0.227-3.109,1.651
			c0,0.881,0.576,1.274,1.242,1.274c0.973,0,1.594-0.604,1.807-1.229c0.045-0.15,0.062-0.305,0.062-0.425L523.643,27.199
			L523.643,27.199z"/>
		<path fill="#FFFFFF" d="M532.327,30.686c-0.348,0.166-1.123,0.425-2.109,0.425c-2.215,0-3.656-1.503-3.656-3.746
			c0-2.263,1.549-3.921,3.943-3.921c0.787,0,1.486,0.198,1.854,0.396l-0.305,1.017c-0.316-0.166-0.816-0.344-1.549-0.344
			c-1.684,0-2.596,1.255-2.596,2.771c0,1.7,1.092,2.748,2.551,2.748c0.76,0,1.258-0.183,1.641-0.347L532.327,30.686z"/>
		<path fill="#FFFFFF" d="M539.038,30.686c-0.35,0.166-1.125,0.425-2.111,0.425c-2.215,0-3.654-1.503-3.654-3.746
			c0-2.263,1.549-3.921,3.941-3.921c0.789,0,1.488,0.198,1.854,0.396l-0.305,1.017c-0.316-0.166-0.814-0.344-1.549-0.344
			c-1.682,0-2.594,1.255-2.594,2.771c0,1.7,1.09,2.748,2.549,2.748c0.76,0,1.26-0.183,1.641-0.347L539.038,30.686z"/>
		<path fill="#FFFFFF" d="M541.256,27.516c0.029,1.807,1.17,2.549,2.52,2.549c0.957,0,1.551-0.166,2.031-0.379l0.24,0.955
			c-0.471,0.213-1.291,0.471-2.455,0.471c-2.26,0-3.609-1.504-3.609-3.717c0-2.215,1.303-3.944,3.443-3.944
			c2.412,0,3.033,2.094,3.033,3.446c0,0.272-0.016,0.473-0.045,0.622L541.256,27.516L541.256,27.516z M545.172,26.559
			c0.018-0.832-0.35-2.149-1.852-2.149c-1.367,0-1.941,1.229-2.049,2.149H545.172z"/>
		<path fill="#FFFFFF" d="M547.938,29.594c0.408,0.242,1.105,0.517,1.773,0.517c0.955,0,1.41-0.471,1.41-1.094
			c0-0.638-0.381-0.972-1.35-1.334c-1.338-0.489-1.957-1.199-1.957-2.083c0-1.185,0.973-2.155,2.533-2.155
			c0.742,0,1.396,0.198,1.789,0.457l-0.316,0.972c-0.289-0.185-0.818-0.44-1.504-0.44c-0.787,0-1.213,0.456-1.213,1.002
			c0,0.606,0.426,0.88,1.381,1.26c1.26,0.472,1.926,1.106,1.926,2.199c0,1.302-1.02,2.216-2.729,2.216
			c-0.807,0-1.551-0.212-2.066-0.516L547.938,29.594z"/>
		<path fill="#FFFFFF" d="M553.948,29.594c0.41,0.242,1.107,0.517,1.773,0.517c0.957,0,1.41-0.471,1.41-1.094
			c0-0.638-0.381-0.972-1.35-1.334c-1.338-0.489-1.957-1.199-1.957-2.083c0-1.185,0.973-2.155,2.533-2.155
			c0.744,0,1.396,0.198,1.791,0.457l-0.318,0.972c-0.289-0.185-0.818-0.44-1.504-0.44c-0.787,0-1.213,0.456-1.213,1.002
			c0,0.606,0.426,0.88,1.381,1.26c1.26,0.472,1.926,1.106,1.926,2.199c0,1.302-1.018,2.216-2.729,2.216
			c-0.807,0-1.549-0.212-2.064-0.516L553.948,29.594z"/>
		<path fill="#FFFFFF" d="M564.969,21.839V23.6h1.912v1.021h-1.912v3.96c0,0.91,0.258,1.427,1.002,1.427
			c0.363,0,0.574-0.029,0.771-0.091l0.062,1.018c-0.26,0.09-0.666,0.186-1.188,0.186c-0.621,0-1.123-0.212-1.441-0.562
			c-0.361-0.41-0.516-1.062-0.516-1.925v-4.006h-1.137v-1.021h1.137v-1.371L564.969,21.839z"/>
		<path fill="#FFFFFF" d="M574.942,27.211c0,2.715-1.896,3.898-3.658,3.898c-1.977,0-3.52-1.456-3.52-3.777
			c0-2.441,1.621-3.885,3.641-3.885C573.514,23.448,574.942,24.98,574.942,27.211z M569.129,27.287c0,1.606,0.91,2.821,2.215,2.821
			c1.275,0,2.232-1.198,2.232-2.854c0-1.244-0.621-2.812-2.199-2.812C569.815,24.449,569.129,25.906,569.129,27.287z"/>
		<path fill="#FFFFFF" d="M333.506,44.367h-3.96v3.686h4.429v1.109h-5.765V38.934h5.539v1.107h-4.203v3.234h3.96V44.367z"/>
		<path fill="#FFFFFF" d="M335.649,43.805c0-0.772-0.016-1.386-0.061-1.987h1.184l0.074,1.215h0.031
			c0.363-0.683,1.213-1.365,2.428-1.365c1.018,0,2.596,0.604,2.596,3.125v4.371h-1.336V44.93c0-1.187-0.439-2.171-1.699-2.171
			c-0.865,0-1.547,0.619-1.789,1.367c-0.062,0.166-0.092,0.394-0.092,0.617v4.416h-1.336V43.805L335.649,43.805z"/>
		<path fill="#FFFFFF" d="M344.819,45.733c0.029,1.806,1.168,2.55,2.52,2.55c0.955,0,1.547-0.166,2.033-0.38l0.242,0.955
			c-0.473,0.213-1.289,0.472-2.457,0.472c-2.264,0-3.611-1.502-3.611-3.718c0-2.213,1.305-3.944,3.445-3.944
			c2.412,0,3.033,2.097,3.033,3.444c0,0.277-0.016,0.472-0.047,0.621H344.819L344.819,45.733z M348.733,44.778
			c0.016-0.836-0.35-2.155-1.852-2.155c-1.365,0-1.941,1.229-2.051,2.155H348.733z"/>
		<path fill="#FFFFFF" d="M351.68,44.108c0-0.862-0.016-1.606-0.061-2.29h1.168l0.061,1.454h0.047
			c0.334-0.981,1.154-1.607,2.051-1.607c0.135,0,0.24,0.016,0.361,0.028v1.258c-0.135-0.027-0.271-0.027-0.455-0.027
			c-0.939,0-1.605,0.699-1.789,1.701c-0.031,0.185-0.047,0.408-0.047,0.621v3.914h-1.336V44.108L351.68,44.108z"/>
		<path fill="#FFFFFF" d="M362.803,48.084c0,1.701-0.348,2.715-1.047,3.369c-0.729,0.651-1.76,0.877-2.686,0.877
			c-0.881,0-1.852-0.213-2.441-0.604l0.334-1.033c0.484,0.317,1.242,0.593,2.154,0.593c1.365,0,2.367-0.711,2.367-2.574v-0.81
			h-0.031c-0.395,0.683-1.199,1.231-2.336,1.231c-1.822,0-3.127-1.551-3.127-3.582c0-2.491,1.625-3.885,3.324-3.885
			c1.271,0,1.957,0.651,2.291,1.26h0.027l0.049-1.106h1.184c-0.045,0.517-0.062,1.123-0.062,2.005V48.084L362.803,48.084z
			 M361.469,44.717c0-0.231-0.014-0.426-0.072-0.592c-0.244-0.791-0.883-1.428-1.867-1.428c-1.275,0-2.188,1.077-2.188,2.771
			c0,1.445,0.744,2.642,2.17,2.642c0.834,0,1.576-0.514,1.852-1.366c0.076-0.228,0.104-0.484,0.104-0.709v-1.32h0.002V44.717
			L361.469,44.717z"/>
		<path fill="#FFFFFF" d="M365.497,41.818l1.594,4.34c0.184,0.485,0.363,1.062,0.484,1.504h0.031c0.137-0.443,0.287-1,0.471-1.531
			l1.455-4.312h1.412l-2.004,5.236c-0.955,2.519-1.607,3.793-2.52,4.596c-0.666,0.562-1.305,0.791-1.639,0.854l-0.334-1.106
			c0.334-0.108,0.773-0.321,1.168-0.655c0.365-0.287,0.805-0.806,1.123-1.486c0.061-0.137,0.104-0.241,0.104-0.317
			c0-0.08-0.029-0.187-0.104-0.351l-2.701-6.769L365.497,41.818L365.497,41.818z"/>
		<path fill="#FFFFFF" d="M376.745,40.057h-3.109v-1.123h7.57v1.123h-3.129v9.104h-1.332V40.057L376.745,40.057z"/>
		<path fill="#FFFFFF" d="M381.618,44.108c0-0.862-0.016-1.606-0.062-2.29h1.17l0.062,1.454h0.045
			c0.334-0.981,1.152-1.607,2.047-1.607c0.137,0,0.242,0.016,0.363,0.028v1.258c-0.135-0.027-0.271-0.027-0.453-0.027
			c-0.939,0-1.607,0.699-1.793,1.701c-0.027,0.185-0.043,0.408-0.043,0.621v3.914h-1.338v-5.054L381.618,44.108L381.618,44.108z"/>
		<path fill="#FFFFFF" d="M392.729,47.145c0,0.772,0.016,1.438,0.061,2.019h-1.184l-0.078-1.199h-0.029
			c-0.334,0.597-1.125,1.365-2.43,1.365c-1.15,0-2.533-0.652-2.533-3.218v-4.294h1.338v4.053c0,1.396,0.441,2.348,1.639,2.348
			c0.896,0,1.52-0.618,1.766-1.229c0.072-0.188,0.121-0.427,0.121-0.685v-4.491h1.336L392.729,47.145L392.729,47.145z"/>
		<path fill="#FFFFFF" d="M394.766,47.811c0.408,0.237,1.107,0.515,1.773,0.515c0.957,0,1.41-0.472,1.41-1.091
			c0-0.639-0.381-0.976-1.35-1.338c-1.336-0.485-1.959-1.196-1.959-2.08c0-1.188,0.977-2.153,2.537-2.153
			c0.742,0,1.396,0.196,1.787,0.455l-0.316,0.971c-0.289-0.184-0.818-0.438-1.504-0.438c-0.787,0-1.215,0.451-1.215,1.002
			c0,0.604,0.428,0.875,1.383,1.259c1.26,0.467,1.926,1.108,1.926,2.196c0,1.306-1.021,2.216-2.73,2.216
			c-0.805,0-1.553-0.214-2.064-0.513L394.766,47.811z"/>
		<path fill="#FFFFFF" d="M402.569,40.057v1.766h1.912v1.017h-1.912v3.96c0,0.914,0.258,1.427,1.002,1.427
			c0.363,0,0.576-0.026,0.771-0.088l0.062,1.019c-0.258,0.09-0.666,0.182-1.188,0.182c-0.619,0-1.121-0.213-1.441-0.557
			c-0.363-0.41-0.516-1.062-0.516-1.929v-4.006h-1.137v-1.019h1.137V40.46L402.569,40.057z"/>
		<path fill="#FFFFFF" d="M409.022,47.811c0.408,0.237,1.107,0.515,1.775,0.515c0.955,0,1.408-0.472,1.408-1.091
			c0-0.639-0.379-0.976-1.35-1.338c-1.338-0.485-1.957-1.196-1.957-2.08c0-1.188,0.973-2.153,2.535-2.153
			c0.742,0,1.396,0.196,1.789,0.455l-0.318,0.971c-0.291-0.184-0.818-0.438-1.504-0.438c-0.787,0-1.215,0.451-1.215,1.002
			c0,0.604,0.428,0.875,1.383,1.259c1.26,0.467,1.926,1.108,1.926,2.196c0,1.306-1.018,2.216-2.73,2.216
			c-0.805,0-1.549-0.214-2.062-0.513L409.022,47.811z"/>
		<path fill="#FFFFFF" d="M415.959,45.733c0.029,1.806,1.168,2.55,2.52,2.55c0.955,0,1.551-0.166,2.031-0.38l0.24,0.955
			c-0.471,0.213-1.291,0.472-2.455,0.472c-2.262,0-3.609-1.502-3.609-3.718c0-2.213,1.305-3.944,3.445-3.944
			c2.41,0,3.033,2.097,3.033,3.444c0,0.277-0.018,0.472-0.047,0.621H415.959L415.959,45.733z M419.875,44.778
			c0.016-0.836-0.35-2.155-1.854-2.155c-1.365,0-1.941,1.229-2.049,2.155H419.875z"/>
		<path fill="#FFFFFF" d="M422.823,44.108c0-0.862-0.018-1.606-0.062-2.29h1.17l0.062,1.454h0.045
			c0.336-0.981,1.152-1.607,2.049-1.607c0.137,0,0.242,0.016,0.365,0.028v1.258c-0.137-0.027-0.273-0.027-0.455-0.027
			c-0.938,0-1.607,0.699-1.791,1.701c-0.027,0.185-0.045,0.408-0.045,0.621v3.914h-1.336L422.823,44.108L422.823,44.108z"/>
		<path fill="#FFFFFF" d="M428.682,41.818l1.443,4.112c0.24,0.685,0.441,1.288,0.592,1.896h0.047
			c0.168-0.607,0.381-1.214,0.619-1.896l1.43-4.112h1.396l-2.881,7.346h-1.275l-2.791-7.346H428.682z"/>
		<path fill="#FFFFFF" d="M436.956,39.754c0,0.451-0.32,0.815-0.852,0.815c-0.486,0-0.807-0.363-0.807-0.815
			c0-0.455,0.338-0.835,0.836-0.835C436.622,38.919,436.956,39.283,436.956,39.754z M435.469,49.162v-7.346h1.336v7.346H435.469z"/>
		<path fill="#FFFFFF" d="M444.256,48.903c-0.348,0.168-1.123,0.427-2.107,0.427c-2.217,0-3.658-1.502-3.658-3.748
			c0-2.261,1.549-3.914,3.945-3.914c0.787,0,1.484,0.197,1.852,0.395l-0.303,1.021c-0.318-0.166-0.818-0.349-1.549-0.349
			c-1.686,0-2.598,1.259-2.598,2.774c0,1.701,1.092,2.746,2.551,2.746c0.762,0,1.26-0.187,1.641-0.348L444.256,48.903z"/>
		<path fill="#FFFFFF" d="M446.475,45.733c0.029,1.806,1.172,2.55,2.521,2.55c0.955,0,1.549-0.166,2.031-0.38l0.238,0.955
			c-0.471,0.213-1.291,0.472-2.453,0.472c-2.264,0-3.609-1.502-3.609-3.718c0-2.213,1.303-3.944,3.445-3.944
			c2.41,0,3.031,2.097,3.031,3.444c0,0.277-0.016,0.472-0.047,0.621H446.475L446.475,45.733z M450.391,44.778
			c0.018-0.836-0.35-2.155-1.852-2.155c-1.367,0-1.941,1.229-2.049,2.155H450.391z"/>
		<path fill="#FFFFFF" d="M453.157,47.811c0.408,0.237,1.107,0.515,1.773,0.515c0.955,0,1.408-0.472,1.408-1.091
			c0-0.639-0.381-0.976-1.35-1.338c-1.336-0.485-1.957-1.196-1.957-2.08c0-1.188,0.973-2.153,2.535-2.153
			c0.742,0,1.395,0.196,1.789,0.455l-0.318,0.971c-0.289-0.184-0.816-0.438-1.502-0.438c-0.789,0-1.215,0.451-1.215,1.002
			c0,0.604,0.426,0.875,1.383,1.259c1.258,0.467,1.924,1.108,1.924,2.196c0,1.306-1.016,2.216-2.729,2.216
			c-0.807,0-1.549-0.214-2.064-0.513L453.157,47.811z"/>
		<path fill="#FFFFFF" d="M458.319,51.043c0.336-0.91,0.744-2.533,0.91-3.644l1.488-0.149c-0.363,1.289-1.029,2.976-1.455,3.688
			L458.319,51.043z"/>
		<path fill="#FFFFFF" d="M465.545,44.108c0-0.862-0.018-1.606-0.062-2.29h1.17l0.061,1.454h0.047
			c0.336-0.981,1.15-1.607,2.049-1.607c0.137,0,0.24,0.016,0.363,0.028v1.258c-0.137-0.027-0.273-0.027-0.455-0.027
			c-0.938,0-1.607,0.699-1.789,1.701c-0.027,0.185-0.047,0.408-0.047,0.621v3.914h-1.334L465.545,44.108L465.545,44.108z"/>
		<path fill="#FFFFFF" d="M471.1,45.733c0.029,1.806,1.17,2.55,2.52,2.55c0.957,0,1.549-0.166,2.033-0.38l0.238,0.955
			c-0.471,0.213-1.291,0.472-2.455,0.472c-2.262,0-3.609-1.502-3.609-3.718c0-2.213,1.303-3.944,3.445-3.944
			c2.41,0,3.033,2.097,3.033,3.444c0,0.277-0.02,0.472-0.047,0.621H471.1L471.1,45.733z M475.016,44.778
			c0.018-0.836-0.35-2.155-1.854-2.155c-1.365,0-1.939,1.229-2.047,2.155H475.016z"/>
		<path fill="#FFFFFF" d="M477.782,47.811c0.408,0.237,1.107,0.515,1.773,0.515c0.957,0,1.408-0.472,1.408-1.091
			c0-0.639-0.379-0.976-1.35-1.338c-1.336-0.485-1.957-1.196-1.957-2.08c0-1.188,0.973-2.153,2.535-2.153
			c0.744,0,1.395,0.196,1.789,0.455l-0.318,0.971c-0.289-0.184-0.816-0.438-1.502-0.438c-0.789,0-1.215,0.451-1.215,1.002
			c0,0.604,0.426,0.875,1.381,1.259c1.26,0.467,1.926,1.108,1.926,2.196c0,1.306-1.018,2.216-2.729,2.216
			c-0.805,0-1.549-0.214-2.064-0.513L477.782,47.811z"/>
		<path fill="#FFFFFF" d="M490.622,45.43c0,2.715-1.896,3.897-3.658,3.897c-1.975,0-3.52-1.453-3.52-3.772
			c0-2.447,1.623-3.887,3.641-3.887C489.196,41.666,490.622,43.198,490.622,45.43z M484.811,45.504c0,1.606,0.91,2.82,2.215,2.82
			c1.275,0,2.23-1.197,2.23-2.854c0-1.239-0.621-2.807-2.197-2.807C485.493,42.668,484.811,44.125,484.811,45.504z"/>
		<path fill="#FFFFFF" d="M498.456,47.145c0,0.772,0.018,1.438,0.062,2.019h-1.188l-0.078-1.199h-0.025
			c-0.338,0.597-1.125,1.365-2.432,1.365c-1.15,0-2.533-0.652-2.533-3.218v-4.294h1.336v4.053c0,1.396,0.441,2.348,1.641,2.348
			c0.895,0,1.518-0.618,1.762-1.229c0.078-0.188,0.125-0.427,0.125-0.685v-4.491h1.334L498.456,47.145L498.456,47.145z"/>
		<path fill="#FFFFFF" d="M500.676,44.108c0-0.862-0.018-1.606-0.062-2.29h1.17l0.062,1.454h0.045
			c0.336-0.981,1.15-1.607,2.049-1.607c0.137,0,0.24,0.016,0.363,0.028v1.258c-0.137-0.027-0.271-0.027-0.455-0.027
			c-0.938,0-1.605,0.699-1.787,1.701c-0.029,0.185-0.047,0.408-0.047,0.621v3.914h-1.336v-5.052H500.676z"/>
		<path fill="#FFFFFF" d="M510.723,48.903c-0.348,0.168-1.123,0.427-2.109,0.427c-2.215,0-3.656-1.502-3.656-3.748
			c0-2.261,1.547-3.914,3.943-3.914c0.789,0,1.486,0.197,1.852,0.395l-0.303,1.021c-0.318-0.166-0.818-0.349-1.549-0.349
			c-1.686,0-2.598,1.259-2.598,2.774c0,1.701,1.094,2.746,2.553,2.746c0.76,0,1.258-0.187,1.639-0.348L510.723,48.903z"/>
		<path fill="#FFFFFF" d="M512.942,45.733c0.029,1.806,1.168,2.55,2.518,2.55c0.957,0,1.549-0.166,2.033-0.38l0.238,0.955
			c-0.469,0.213-1.291,0.472-2.453,0.472c-2.264,0-3.613-1.502-3.613-3.718c0-2.213,1.305-3.944,3.447-3.944
			c2.408,0,3.031,2.097,3.031,3.444c0,0.277-0.016,0.472-0.045,0.621H512.942L512.942,45.733z M516.858,44.778
			c0.016-0.836-0.352-2.155-1.855-2.155c-1.365,0-1.938,1.229-2.047,2.155H516.858z"/>
		<path fill="#FFFFFF" d="M519.622,47.811c0.41,0.237,1.109,0.515,1.775,0.515c0.955,0,1.408-0.472,1.408-1.091
			c0-0.639-0.381-0.976-1.35-1.338c-1.338-0.485-1.957-1.196-1.957-2.08c0-1.188,0.975-2.153,2.535-2.153
			c0.744,0,1.396,0.196,1.789,0.455l-0.318,0.971c-0.289-0.184-0.816-0.438-1.504-0.438c-0.787,0-1.215,0.451-1.215,1.002
			c0,0.604,0.428,0.875,1.383,1.259c1.26,0.467,1.926,1.108,1.926,2.196c0,1.306-1.018,2.216-2.73,2.216
			c-0.803,0-1.547-0.214-2.062-0.513L519.622,47.811z"/>
		<path fill="#FFFFFF" d="M534.194,47.401c0,0.64,0.029,1.263,0.104,1.763h-1.195l-0.105-0.922h-0.045
			c-0.408,0.575-1.197,1.088-2.244,1.088c-1.488,0-2.244-1.047-2.244-2.108c0-1.771,1.578-2.746,4.414-2.728V44.34
			c0-0.596-0.166-1.705-1.666-1.687c-0.699,0-1.41,0.193-1.926,0.546l-0.303-0.896c0.604-0.379,1.502-0.637,2.428-0.637
			c2.244,0,2.791,1.531,2.791,2.987v2.746h-0.008V47.401z M532.905,45.414c-1.457-0.026-3.111,0.228-3.111,1.651
			c0,0.882,0.576,1.278,1.244,1.278c0.973,0,1.594-0.604,1.807-1.231c0.045-0.151,0.062-0.301,0.062-0.426L532.905,45.414
			L532.905,45.414z"/>
		<path fill="#FFFFFF" d="M536.354,43.805c0-0.772-0.02-1.386-0.062-1.987h1.186l0.08,1.215h0.025
			c0.365-0.683,1.215-1.365,2.43-1.365c1.02,0,2.596,0.604,2.596,3.125v4.371h-1.334V44.93c0-1.187-0.443-2.171-1.703-2.171
			c-0.865,0-1.549,0.619-1.789,1.367c-0.062,0.166-0.09,0.394-0.09,0.617v4.416h-1.338V43.805L536.354,43.805z"/>
		<path fill="#FFFFFF" d="M551.108,38.388v8.878c0,0.655,0.027,1.396,0.061,1.896h-1.186l-0.062-1.274h-0.047
			c-0.393,0.819-1.275,1.44-2.473,1.44c-1.773,0-3.154-1.502-3.154-3.729c-0.018-2.447,1.518-3.932,3.295-3.932
			c1.137,0,1.879,0.532,2.215,1.107h0.027v-4.387H551.108L551.108,38.388z M549.786,44.807c0-0.17-0.016-0.396-0.062-0.562
			c-0.193-0.836-0.924-1.533-1.924-1.533c-1.383,0-2.199,1.213-2.199,2.818c0,1.489,0.742,2.717,2.172,2.717
			c0.895,0,1.713-0.606,1.957-1.595c0.045-0.187,0.061-0.362,0.061-0.575L549.786,44.807L549.786,44.807z"/>
		<path fill="#FFFFFF" d="M561.795,48.903c-0.348,0.168-1.125,0.427-2.107,0.427c-2.219,0-3.658-1.502-3.658-3.748
			c0-2.261,1.549-3.914,3.943-3.914c0.787,0,1.486,0.197,1.854,0.395l-0.303,1.021c-0.318-0.166-0.818-0.349-1.551-0.349
			c-1.686,0-2.596,1.259-2.596,2.774c0,1.701,1.09,2.746,2.551,2.746c0.762,0,1.26-0.187,1.639-0.348L561.795,48.903z"/>
		<path fill="#FFFFFF" d="M568.522,47.401c0,0.64,0.025,1.263,0.104,1.763h-1.197l-0.104-0.922h-0.047
			c-0.408,0.575-1.197,1.088-2.244,1.088c-1.486,0-2.242-1.047-2.242-2.108c0-1.771,1.576-2.746,4.414-2.728V44.34
			c0-0.596-0.168-1.705-1.668-1.687c-0.699,0-1.41,0.193-1.926,0.546l-0.305-0.896c0.605-0.379,1.504-0.637,2.43-0.637
			c2.244,0,2.791,1.531,2.791,2.987v2.746h-0.006V47.401z M567.231,45.414c-1.455-0.026-3.109,0.228-3.109,1.651
			c0,0.882,0.574,1.278,1.242,1.278c0.973,0,1.594-0.604,1.807-1.231c0.045-0.151,0.062-0.301,0.062-0.426L567.231,45.414
			L567.231,45.414z"/>
		<path fill="#FFFFFF" d="M570.499,47.811c0.408,0.237,1.107,0.515,1.773,0.515c0.955,0,1.41-0.472,1.41-1.091
			c0-0.639-0.381-0.976-1.352-1.338c-1.336-0.485-1.957-1.196-1.957-2.08c0-1.188,0.975-2.153,2.535-2.153
			c0.744,0,1.396,0.196,1.789,0.455l-0.318,0.971c-0.287-0.184-0.816-0.438-1.502-0.438c-0.789,0-1.213,0.451-1.213,1.002
			c0,0.604,0.424,0.875,1.379,1.259c1.262,0.467,1.928,1.108,1.928,2.196c0,1.306-1.02,2.216-2.729,2.216
			c-0.807,0-1.549-0.214-2.064-0.513L570.499,47.811z"/>
		<path fill="#FFFFFF" d="M576.692,38.388h1.336v4.599h0.027c0.213-0.379,0.549-0.729,0.957-0.956
			c0.396-0.229,0.865-0.363,1.365-0.363c0.984,0,2.562,0.604,2.562,3.125v4.371h-1.336v-4.22c0-1.185-0.441-2.17-1.701-2.17
			c-0.865,0-1.533,0.604-1.789,1.319c-0.076,0.197-0.09,0.396-0.09,0.638v4.433h-1.336L576.692,38.388L576.692,38.388z"/>
		<path fill="#FFFFFF" d="M329.667,57.973c0,0.454-0.318,0.819-0.849,0.819c-0.487,0-0.807-0.365-0.807-0.819
			c0-0.451,0.334-0.834,0.834-0.834C329.332,57.139,329.667,57.502,329.667,57.973z M328.179,67.381v-7.348h1.336v7.348H328.179z"/>
		<path fill="#FFFFFF" d="M331.733,62.026c0-0.774-0.016-1.383-0.062-1.987h1.186l0.076,1.213h0.029
			c0.365-0.678,1.213-1.36,2.43-1.36c1.016,0,2.594,0.604,2.594,3.125v4.371h-1.336V63.15c0-1.185-0.439-2.172-1.699-2.172
			c-0.865,0-1.547,0.623-1.789,1.366c-0.062,0.166-0.092,0.396-0.092,0.621v4.416h-1.336V62.026L331.733,62.026z"/>
		<path fill="#FFFFFF" d="M345.393,67.123c-0.352,0.166-1.121,0.424-2.107,0.424c-2.217,0-3.658-1.504-3.658-3.746
			c0-2.262,1.551-3.916,3.947-3.916c0.787,0,1.484,0.193,1.852,0.396l-0.305,1.016c-0.318-0.166-0.818-0.344-1.547-0.344
			c-1.688,0-2.598,1.258-2.598,2.771c0,1.705,1.094,2.752,2.551,2.752c0.76,0,1.26-0.187,1.639-0.351L345.393,67.123z"/>
		<path fill="#FFFFFF" d="M347.614,63.951c0.027,1.807,1.166,2.549,2.518,2.549c0.955,0,1.547-0.166,2.033-0.379l0.242,0.955
			c-0.471,0.213-1.289,0.471-2.459,0.471c-2.26,0-3.609-1.504-3.609-3.717c0-2.215,1.305-3.94,3.443-3.94
			c2.416,0,3.037,2.09,3.037,3.442c0,0.272-0.016,0.471-0.047,0.623L347.614,63.951L347.614,63.951z M351.528,62.996
			c0.016-0.836-0.35-2.154-1.852-2.154c-1.365,0-1.941,1.229-2.051,2.154H351.528z"/>
		<path fill="#FFFFFF" d="M354.471,62.026c0-0.774-0.014-1.383-0.059-1.987h1.184l0.076,1.213h0.029
			c0.365-0.678,1.213-1.36,2.428-1.36c1.016,0,2.596,0.604,2.596,3.125v4.371h-1.336V63.15c0-1.185-0.438-2.172-1.699-2.172
			c-0.863,0-1.549,0.623-1.789,1.366c-0.062,0.166-0.092,0.396-0.092,0.621v4.416h-1.338V62.026L354.471,62.026z"/>
		<path fill="#FFFFFF" d="M364.448,58.276v1.763h1.912v1.021h-1.912v3.961c0,0.91,0.258,1.426,1.002,1.426
			c0.365,0,0.578-0.028,0.771-0.09l0.062,1.021c-0.26,0.086-0.668,0.183-1.188,0.183c-0.621,0-1.123-0.213-1.439-0.562
			c-0.363-0.406-0.52-1.062-0.52-1.924v-4.007H362v-1.019h1.137V58.68L364.448,58.276z"/>
		<path fill="#FFFFFF" d="M369.35,57.973c0,0.454-0.316,0.819-0.848,0.819c-0.486,0-0.807-0.365-0.807-0.819
			c0-0.451,0.336-0.834,0.836-0.834C369.018,57.139,369.35,57.502,369.35,57.973z M367.864,67.381v-7.348h1.336v7.348H367.864z"/>
		<path fill="#FFFFFF" d="M371.934,60.037l1.441,4.11c0.242,0.685,0.441,1.293,0.592,1.896h0.045
			c0.168-0.604,0.379-1.213,0.621-1.896l1.43-4.11h1.396l-2.883,7.348h-1.277l-2.791-7.348H371.934z"/>
		<path fill="#FFFFFF" d="M379.311,63.951c0.027,1.807,1.17,2.549,2.521,2.549c0.953,0,1.547-0.166,2.031-0.379l0.242,0.955
			c-0.473,0.213-1.291,0.471-2.457,0.471c-2.262,0-3.609-1.504-3.609-3.717c0-2.215,1.305-3.94,3.445-3.94
			c2.41,0,3.031,2.09,3.031,3.442c0,0.272-0.016,0.471-0.043,0.623L379.311,63.951L379.311,63.951z M383.225,62.996
			c0.016-0.836-0.348-2.154-1.852-2.154c-1.363,0-1.941,1.229-2.049,2.154H383.225z"/>
		<path fill="#FFFFFF" d="M385.993,66.031c0.408,0.241,1.105,0.518,1.773,0.518c0.957,0,1.412-0.471,1.412-1.094
			c0-0.638-0.383-0.972-1.35-1.334c-1.338-0.486-1.959-1.199-1.959-2.084c0-1.185,0.971-2.15,2.533-2.15
			c0.746,0,1.396,0.193,1.791,0.451l-0.318,0.976c-0.291-0.187-0.818-0.442-1.504-0.442c-0.791,0-1.215,0.455-1.215,1.002
			c0,0.604,0.424,0.879,1.383,1.258c1.258,0.472,1.926,1.108,1.926,2.201c0,1.305-1.018,2.215-2.729,2.215
			c-0.807,0-1.551-0.211-2.064-0.514L385.993,66.031z"/>
		<path fill="#FFFFFF" d="M397.01,58.276v1.763h1.914v1.021h-1.914v3.961c0,0.91,0.26,1.426,1.004,1.426
			c0.363,0,0.576-0.028,0.771-0.09l0.062,1.021c-0.258,0.086-0.666,0.183-1.188,0.183c-0.621,0-1.121-0.213-1.441-0.562
			c-0.361-0.406-0.518-1.062-0.518-1.924v-4.007h-1.135v-1.019h1.135V58.68L397.01,58.276z"/>
		<path fill="#FFFFFF" d="M406.985,63.649c0,2.716-1.896,3.897-3.658,3.897c-1.977,0-3.521-1.457-3.521-3.776
			c0-2.442,1.623-3.881,3.643-3.881C405.557,59.885,406.985,61.416,406.985,63.649z M401.172,63.723
			c0,1.608,0.912,2.823,2.217,2.823c1.275,0,2.23-1.198,2.23-2.854c0-1.243-0.619-2.808-2.197-2.808
			C401.854,60.887,401.172,62.344,401.172,63.723z"/>
		<path fill="#FFFFFF" d="M411.893,56.608h1.334v4.603h0.029c0.213-0.383,0.549-0.729,0.957-0.957
			c0.395-0.229,0.867-0.362,1.365-0.362c0.982,0,2.561,0.604,2.561,3.125v4.371h-1.336v-4.222c0-1.187-0.441-2.168-1.701-2.168
			c-0.865,0-1.531,0.604-1.789,1.317c-0.076,0.194-0.09,0.396-0.09,0.64v4.43h-1.336L411.893,56.608L411.893,56.608z"/>
		<path fill="#FFFFFF" d="M421.061,63.951c0.029,1.807,1.172,2.549,2.52,2.549c0.957,0,1.549-0.166,2.031-0.379l0.242,0.955
			c-0.473,0.213-1.291,0.471-2.457,0.471c-2.26,0-3.611-1.504-3.611-3.717c0-2.215,1.305-3.94,3.445-3.94
			c2.412,0,3.033,2.09,3.033,3.442c0,0.272-0.016,0.471-0.045,0.623L421.061,63.951L421.061,63.951z M424.977,62.996
			c0.016-0.836-0.35-2.154-1.854-2.154c-1.365,0-1.939,1.229-2.047,2.154H424.977z"/>
		<path fill="#FFFFFF" d="M427.922,56.608h1.338v10.776h-1.338V56.608z"/>
		<path fill="#FFFFFF" d="M431.508,62.434c0-0.938-0.027-1.699-0.061-2.399h1.186l0.078,1.26h0.029
			c0.531-0.896,1.408-1.405,2.607-1.405c1.791,0,3.127,1.502,3.127,3.715c0,2.642-1.621,3.944-3.354,3.944
			c-0.973,0-1.816-0.424-2.258-1.151h-0.029v3.99h-1.318L431.508,62.434L431.508,62.434z M432.825,64.393
			c0,0.194,0.018,0.379,0.062,0.545c0.24,0.927,1.049,1.562,2.002,1.562c1.408,0,2.232-1.151,2.232-2.838
			c0-1.453-0.773-2.713-2.189-2.713c-0.91,0-1.771,0.637-2.02,1.637c-0.045,0.168-0.09,0.365-0.09,0.531v1.276H432.825z"/>
		<path fill="#FFFFFF" d="M443.18,66.031c0.408,0.241,1.107,0.518,1.773,0.518c0.957,0,1.41-0.471,1.41-1.094
			c0-0.638-0.379-0.972-1.35-1.334c-1.338-0.486-1.957-1.199-1.957-2.084c0-1.185,0.973-2.15,2.531-2.15
			c0.746,0,1.398,0.193,1.791,0.451l-0.316,0.976c-0.291-0.187-0.818-0.442-1.504-0.442c-0.787,0-1.215,0.455-1.215,1.002
			c0,0.604,0.426,0.879,1.383,1.258c1.26,0.472,1.926,1.108,1.926,2.201c0,1.305-1.02,2.215-2.73,2.215
			c-0.805,0-1.549-0.211-2.062-0.514L443.18,66.031z"/>
		<path fill="#FFFFFF" d="M454.534,65.619c0,0.639,0.029,1.262,0.105,1.766h-1.197l-0.105-0.926h-0.045
			c-0.41,0.576-1.197,1.092-2.246,1.092c-1.484,0-2.24-1.047-2.24-2.108c0-1.774,1.576-2.746,4.412-2.729V62.56
			c0-0.593-0.166-1.701-1.668-1.687c-0.697,0-1.408,0.196-1.924,0.549l-0.305-0.896c0.605-0.379,1.502-0.637,2.428-0.637
			c2.246,0,2.793,1.53,2.793,2.983v2.748L454.534,65.619L454.534,65.619z M453.245,63.633c-1.457-0.03-3.111,0.229-3.111,1.654
			c0,0.879,0.576,1.272,1.242,1.272c0.975,0,1.596-0.604,1.807-1.229c0.047-0.152,0.062-0.306,0.062-0.426V63.633L453.245,63.633z"
			/>
		<path fill="#FFFFFF" d="M457.088,60.037l1.441,4.11c0.242,0.685,0.441,1.293,0.594,1.896h0.047
			c0.166-0.604,0.379-1.213,0.619-1.896l1.428-4.11h1.396l-2.881,7.348h-1.275l-2.793-7.348H457.088z"/>
		<path fill="#FFFFFF" d="M464.465,63.951c0.031,1.807,1.17,2.549,2.521,2.549c0.957,0,1.551-0.166,2.031-0.379l0.24,0.955
			c-0.471,0.213-1.293,0.471-2.457,0.471c-2.262,0-3.607-1.504-3.607-3.717c0-2.215,1.303-3.94,3.443-3.94
			c2.41,0,3.031,2.09,3.031,3.442c0,0.272-0.018,0.471-0.045,0.623L464.465,63.951L464.465,63.951z M468.381,62.996
			c0.018-0.836-0.348-2.154-1.852-2.154c-1.365,0-1.941,1.229-2.047,2.154H468.381z"/>
		<path fill="#FFFFFF" d="M475.29,63.951c0.031,1.807,1.172,2.549,2.521,2.549c0.955,0,1.551-0.166,2.029-0.379l0.242,0.955
			c-0.471,0.213-1.291,0.471-2.457,0.471c-2.262,0-3.609-1.504-3.609-3.717c0-2.215,1.303-3.94,3.443-3.94
			c2.41,0,3.033,2.09,3.033,3.442c0,0.272-0.018,0.471-0.045,0.623L475.29,63.951L475.29,63.951z M479.206,62.996
			c0.018-0.836-0.348-2.154-1.85-2.154c-1.367,0-1.943,1.229-2.051,2.154H479.206z"/>
		<path fill="#FFFFFF" d="M482.155,62.026c0-0.774-0.02-1.383-0.064-1.987h1.189l0.076,1.213h0.027
			c0.363-0.678,1.215-1.36,2.43-1.36c1.018,0,2.596,0.604,2.596,3.125v4.371h-1.336V63.15c0-1.185-0.441-2.172-1.701-2.172
			c-0.865,0-1.549,0.623-1.789,1.366c-0.062,0.166-0.092,0.396-0.092,0.621v4.416h-1.334L482.155,62.026L482.155,62.026z"/>
		<path fill="#FFFFFF" d="M491.323,63.951c0.027,1.807,1.168,2.549,2.518,2.549c0.957,0,1.551-0.166,2.033-0.379l0.238,0.955
			c-0.471,0.213-1.291,0.471-2.455,0.471c-2.26,0-3.611-1.504-3.611-3.717c0-2.215,1.305-3.94,3.445-3.94
			c2.41,0,3.033,2.09,3.033,3.442c0,0.272-0.018,0.471-0.045,0.623L491.323,63.951L491.323,63.951z M495.239,62.996
			c0.016-0.836-0.35-2.154-1.854-2.154c-1.365,0-1.939,1.229-2.047,2.154H495.239z"/>
		<path fill="#FFFFFF" d="M498.186,62.328c0-0.865-0.018-1.609-0.062-2.295h1.17l0.062,1.457h0.045
			c0.334-0.986,1.15-1.607,2.047-1.607c0.137,0,0.242,0.017,0.363,0.027v1.26c-0.137-0.03-0.271-0.03-0.453-0.03
			c-0.939,0-1.607,0.7-1.789,1.702c-0.029,0.183-0.047,0.406-0.047,0.619v3.918h-1.336V62.328L498.186,62.328z"/>
		<path fill="#FFFFFF" d="M509.311,66.302c0,1.705-0.348,2.718-1.045,3.369c-0.729,0.656-1.764,0.881-2.688,0.881
			c-0.881,0-1.854-0.213-2.443-0.606l0.334-1.028c0.486,0.317,1.242,0.592,2.154,0.592c1.365,0,2.367-0.711,2.367-2.577v-0.806
			h-0.031c-0.393,0.683-1.197,1.229-2.338,1.229c-1.82,0-3.127-1.547-3.127-3.58c0-2.487,1.623-3.881,3.324-3.881
			c1.271,0,1.957,0.651,2.291,1.258h0.027l0.045-1.106h1.188c-0.045,0.513-0.062,1.125-0.062,2.002L509.311,66.302L509.311,66.302z
			 M507.975,62.936c0-0.229-0.016-0.427-0.076-0.593c-0.242-0.788-0.879-1.428-1.867-1.428c-1.275,0-2.189,1.082-2.189,2.776
			c0,1.44,0.744,2.642,2.17,2.642c0.834,0,1.578-0.517,1.854-1.367c0.078-0.227,0.105-0.483,0.105-0.713L507.975,62.936
			L507.975,62.936z"/>
		<path fill="#FFFFFF" d="M512.002,60.037l1.594,4.342c0.186,0.486,0.363,1.062,0.486,1.502h0.027c0.135-0.438,0.289-1,0.471-1.53
			l1.455-4.306h1.41l-2.004,5.233c-0.955,2.521-1.607,3.794-2.518,4.599c-0.668,0.562-1.305,0.789-1.641,0.851l-0.334-1.108
			c0.334-0.104,0.771-0.318,1.168-0.652c0.365-0.289,0.807-0.805,1.125-1.485c0.061-0.138,0.105-0.242,0.105-0.317
			c0-0.078-0.027-0.187-0.105-0.351l-2.701-6.767h1.455L512.002,60.037L512.002,60.037z"/>
		<path fill="#FFFFFF" d="M527.043,65.619c0,0.639,0.029,1.262,0.107,1.766h-1.199l-0.105-0.926h-0.045
			c-0.406,0.576-1.197,1.092-2.244,1.092c-1.486,0-2.242-1.047-2.242-2.108c0-1.774,1.576-2.746,4.414-2.729V62.56
			c0-0.593-0.166-1.701-1.666-1.687c-0.699,0-1.412,0.196-1.93,0.549l-0.303-0.896c0.607-0.379,1.504-0.637,2.428-0.637
			c2.244,0,2.793,1.53,2.793,2.983v2.748L527.043,65.619L527.043,65.619z M525.752,63.633c-1.455-0.03-3.109,0.229-3.109,1.654
			c0,0.879,0.576,1.272,1.242,1.272c0.975,0,1.596-0.604,1.809-1.229c0.045-0.152,0.061-0.306,0.061-0.426L525.752,63.633
			L525.752,63.633z"/>
		<path fill="#FFFFFF" d="M529.202,62.026c0-0.774-0.018-1.383-0.062-1.987h1.186l0.08,1.213h0.025
			c0.363-0.678,1.217-1.36,2.432-1.36c1.016,0,2.594,0.604,2.594,3.125v4.371h-1.336V63.15c0-1.185-0.441-2.172-1.701-2.172
			c-0.865,0-1.549,0.623-1.789,1.366c-0.061,0.166-0.092,0.396-0.092,0.621v4.416h-1.334L529.202,62.026L529.202,62.026z"/>
		<path fill="#FFFFFF" d="M543.954,56.608v8.882c0,0.651,0.027,1.396,0.062,1.896h-1.186l-0.062-1.274h-0.045
			c-0.396,0.815-1.275,1.44-2.475,1.44c-1.771,0-3.154-1.502-3.154-3.731c-0.018-2.442,1.518-3.926,3.293-3.926
			c1.139,0,1.883,0.53,2.217,1.106h0.027v-4.39L543.954,56.608L543.954,56.608z M542.633,63.026c0-0.166-0.016-0.396-0.061-0.558
			c-0.195-0.836-0.924-1.536-1.926-1.536c-1.383,0-2.197,1.215-2.197,2.821c0,1.486,0.744,2.715,2.17,2.715
			c0.895,0,1.713-0.604,1.957-1.592c0.045-0.185,0.061-0.364,0.061-0.578L542.633,63.026L542.633,63.026z"/>
		<path fill="#FFFFFF" d="M549.409,62.026c0-0.774-0.027-1.383-0.062-1.987h1.17l0.062,1.196h0.045
			c0.41-0.696,1.092-1.346,2.32-1.346c0.984,0,1.746,0.604,2.062,1.471h0.029c0.229-0.428,0.531-0.728,0.834-0.959
			c0.439-0.334,0.912-0.512,1.605-0.512c0.986,0,2.43,0.637,2.43,3.187v4.312H558.6V63.24c0-1.427-0.531-2.263-1.596-2.263
			c-0.771,0-1.348,0.562-1.594,1.2c-0.061,0.195-0.105,0.425-0.105,0.666v4.537h-1.303v-4.4c0-1.168-0.518-2.004-1.533-2.004
			c-0.816,0-1.441,0.668-1.654,1.34c-0.078,0.183-0.107,0.425-0.107,0.651v4.416h-1.301L549.409,62.026L549.409,62.026z"/>
		<path fill="#FFFFFF" d="M568.717,63.649c0,2.716-1.896,3.897-3.658,3.897c-1.977,0-3.52-1.457-3.52-3.776
			c0-2.442,1.623-3.881,3.643-3.881C567.29,59.885,568.717,61.416,568.717,63.649z M562.905,63.723c0,1.608,0.912,2.823,2.217,2.823
			c1.275,0,2.229-1.198,2.229-2.854c0-1.243-0.619-2.808-2.197-2.808C563.588,60.887,562.905,62.344,562.905,63.723z"/>
		<path fill="#FFFFFF" d="M570.407,62.026c0-0.774-0.02-1.383-0.064-1.987h1.189l0.078,1.213h0.025
			c0.365-0.678,1.215-1.36,2.432-1.36c1.016,0,2.594,0.604,2.594,3.125v4.371h-1.336V63.15c0-1.185-0.441-2.172-1.701-2.172
			c-0.865,0-1.549,0.623-1.789,1.366c-0.061,0.166-0.092,0.396-0.092,0.621v4.416h-1.334L570.407,62.026L570.407,62.026z"/>
		<path fill="#FFFFFF" d="M579.575,63.951c0.029,1.807,1.17,2.549,2.518,2.549c0.957,0,1.551-0.166,2.033-0.379l0.24,0.955
			c-0.471,0.213-1.293,0.471-2.455,0.471c-2.262,0-3.611-1.504-3.611-3.717c0-2.215,1.307-3.94,3.445-3.94
			c2.412,0,3.033,2.09,3.033,3.442c0,0.272-0.02,0.471-0.047,0.623L579.575,63.951L579.575,63.951z M583.491,62.996
			c0.016-0.836-0.35-2.154-1.854-2.154c-1.365,0-1.939,1.229-2.049,2.154H583.491z"/>
		<path fill="#FFFFFF" d="M586.924,60.037l1.594,4.342c0.184,0.486,0.363,1.062,0.486,1.502h0.027c0.135-0.438,0.291-1,0.471-1.53
			l1.455-4.306h1.41l-2.004,5.233c-0.955,2.521-1.607,3.794-2.518,4.599c-0.666,0.562-1.307,0.789-1.641,0.851l-0.336-1.108
			c0.336-0.104,0.771-0.318,1.17-0.652c0.365-0.289,0.807-0.805,1.125-1.485c0.061-0.138,0.105-0.242,0.105-0.317
			c0-0.078-0.027-0.187-0.105-0.351l-2.701-6.767h1.455L586.924,60.037L586.924,60.037z"/>
		<path fill="#FFFFFF" d="M592.678,66.592c0-0.551,0.379-0.954,0.91-0.954s0.896,0.394,0.896,0.954c0,0.546-0.363,0.955-0.924,0.955
			C593.042,67.547,592.678,67.137,592.678,66.592z"/>
	</g>
	<g>
		<g>
			<g>
				<path id="SVGID_1_" fill="#FFFFFF" d="M187.604,37.995c0.785-3.703,0.428-7.854-0.668-10.977
					c-1.218-3.463-2.719-5.614-4.362-7.459l-6.702,6.703L187.604,37.995"/>
			</g>
			<g>
				<defs>
					<path id="SVGID_2_" d="M187.604,37.995c0.785-3.703,0.428-7.854-0.668-10.977c-1.218-3.463-2.719-5.614-4.362-7.459
						l-6.702,6.703L187.604,37.995"/>
				</defs>
				<clipPath id="SVGID_4_">
					<use xlink:href="#SVGID_2_"  overflow="visible"/>
				</clipPath>
				<rect x="165.93" y="19.538" clip-path="url(#SVGID_4_)" fill="#FFFFFF" width="33.008" height="18.44"/>
			</g>
		</g>
	</g>
	<g>
		<g>
			<g>
				<path id="SVGID_3_" fill="#FFFFFF" d="M177.556,34.125c-0.483,2.558-0.699,6.145,0.308,9.72c0.807,2.865,2.142,5.82,4.732,8.711
					l6.699-6.7L177.556,34.125"/>
			</g>
			<g>
				<defs>
					<path id="SVGID_6_" d="M177.556,34.125c-0.483,2.558-0.699,6.145,0.308,9.72c0.807,2.865,2.142,5.82,4.732,8.711l6.699-6.7
						L177.556,34.125"/>
				</defs>
				<clipPath id="SVGID_8_">
					<use xlink:href="#SVGID_6_"  overflow="visible"/>
				</clipPath>
				<rect x="165.93" y="34.107" clip-path="url(#SVGID_8_)" fill="#FFFFFF" width="33.008" height="18.436"/>
			</g>
		</g>
	</g>
	<g>
		<g>
			<g>
				<path id="SVGID_5_" fill="#FFFFFF" d="M199.097,36.054l-7.196-7.195c0.056,0.284,0.109,0.568,0.157,0.855
					c0.886,5.397-0.116,11.271-2.658,16.036L199.097,36.054"/>
			</g>
			<g>
				<defs>
					<path id="SVGID_9_" d="M199.097,36.054l-7.196-7.195c0.056,0.284,0.109,0.568,0.157,0.855
						c0.886,5.397-0.116,11.271-2.658,16.036L199.097,36.054"/>
				</defs>
				<clipPath id="SVGID_10_">
					<use xlink:href="#SVGID_9_"  overflow="visible"/>
				</clipPath>
				<rect x="198.798" y="28.839" clip-path="url(#SVGID_10_)" fill="#FFFFFF" width="0.313" height="16.896"/>
			</g>
			<g>
				<defs>
					<path id="SVGID_11_" d="M199.097,36.054l-7.196-7.195c0.056,0.284,0.109,0.568,0.157,0.855
						c0.886,5.397-0.116,11.271-2.658,16.036L199.097,36.054"/>
				</defs>
				<clipPath id="SVGID_12_">
					<use xlink:href="#SVGID_11_"  overflow="visible"/>
				</clipPath>
				<rect x="165.93" y="28.839" clip-path="url(#SVGID_12_)" fill="#FFFFFF" width="33.008" height="16.896"/>
			</g>
		</g>
	</g>
	<g>
		<g>
			<g>
				<path id="SVGID_7_" fill="#FFFFFF" d="M172.834,39.717c-0.309-6.085,1.568-10.766,2.925-13.343l-9.679,9.681l7.186,7.187
					C173.047,42.11,172.896,40.936,172.834,39.717"/>
			</g>
			<g>
				<defs>
					<path id="SVGID_13_" d="M172.834,39.717c-0.309-6.085,1.568-10.766,2.925-13.343l-9.679,9.681l7.186,7.187
						C173.047,42.11,172.896,40.936,172.834,39.717"/>
				</defs>
				<clipPath id="SVGID_14_">
					<use xlink:href="#SVGID_13_"  overflow="visible"/>
				</clipPath>
				<rect x="165.93" y="26.354" clip-path="url(#SVGID_14_)" fill="#FFFFFF" width="33.008" height="16.87"/>
			</g>
		</g>
	</g>
	<polyline fill="#FFFFFF" points="216.405,30.719 218.758,30.719 218.758,40.753 216.993,40.753 213.402,35.791 213.402,40.753 
		211.065,40.753 211.065,30.719 212.814,30.719 216.405,35.685 216.405,30.719 	"/>
	<polyline fill="#FFFFFF" points="232.486,40.909 230.544,40.909 228.588,34.824 226.631,40.909 224.689,40.909 221.212,30.719 
		223.892,30.719 225.668,36.448 227.429,30.719 229.746,30.719 231.508,36.448 233.284,30.719 235.963,30.719 232.486,40.909 	"/>
	<polyline fill="#FFFFFF" points="249.895,30.719 252.247,30.719 252.247,40.753 250.482,40.753 246.891,35.791 246.891,40.753 
		244.554,40.753 244.554,30.719 246.304,30.719 249.895,35.685 249.895,30.719 	"/>
	<path fill="#FFFFFF" d="M260.587,36.818c0,1.189-0.604,2.153-1.327,2.153c-0.708,0-1.312-0.964-1.312-2.153
		c0-1.188,0.603-2.152,1.312-2.152C259.983,34.665,260.587,35.629,260.587,36.818z M263.116,40.745v-7.854h-0.573l-1.053,0.902
		c-0.677-0.678-1.566-1.068-2.561-1.068c-2.09,0-3.772,1.819-3.772,4.093s1.682,4.092,3.772,4.092c0.995,0,1.884-0.404,2.561-1.065
		l1.053,0.901L263.116,40.745"/>
	<path fill="#FFFFFF" d="M270.224,40.909c-1.613,0-3.15-1.155-3.15-3.199v-2.978h-1.762v-0.571l3.873-4.031h0.573V32.9h2.951v1.832
		h-2.951v2.69c0,1.278,0.632,1.699,1.505,1.699c0.376,0,1.204-0.302,1.446-0.542v1.548
		C272.226,40.625,270.947,40.909,270.224,40.909"/>
	<path fill="#FFFFFF" d="M282.604,40.743l-1.206-1.038c-0.498,0.572-1.52,1.204-2.629,1.204c-2.35,0-3.285-1.43-3.285-2.979V32.9
		h2.684v4.294c0,1.248,0.301,1.638,0.96,1.638c0.645,0,1.064-0.33,1.365-0.855v-5.075h2.684v7.843L282.604,40.743"/>
	<path fill="#FFFFFF" d="M289.336,40.753h-2.684v-7.861h0.574l1.07,0.918c0.527-0.558,1.612-1.084,2.561-1.084
		c0.315,0,0.587,0.061,0.737,0.149v4.286h-0.526l-1.731-1.729L289.336,40.753"/>
	<path fill="#FFFFFF" d="M299.63,36.818c0,1.189-0.603,2.153-1.326,2.153c-0.709,0-1.312-0.964-1.312-2.153
		c0-1.188,0.602-2.152,1.312-2.152C299.027,34.665,299.63,35.629,299.63,36.818z M302.158,40.745v-7.854h-0.573l-1.053,0.902
		c-0.677-0.678-1.566-1.068-2.561-1.068c-2.09,0-3.771,1.819-3.771,4.093s1.681,4.092,3.771,4.092c0.995,0,1.884-0.404,2.561-1.065
		l1.053,0.901L302.158,40.745"/>
	<rect x="305.631" y="29.043" fill="#FFFFFF" width="2.686" height="11.71"/>
	<path fill="#FFFFFF" d="M309.846,30.954c0-0.935,0.705-1.64,1.609-1.64c0.894,0,1.599,0.705,1.599,1.64
		c0,0.95-0.705,1.651-1.599,1.651C310.551,32.606,309.846,31.905,309.846,30.954z M311.455,32.935c1.075,0,1.995-0.836,1.995-1.98
		c0-1.133-0.92-1.97-1.995-1.97c-1.087,0-2.007,0.836-2.007,1.97C309.448,32.099,310.368,32.935,311.455,32.935z M311.037,31.111
		h0.396l0.603,0.988h0.386l-0.646-1.003c0.334-0.042,0.591-0.22,0.591-0.628c0-0.448-0.268-0.646-0.807-0.646h-0.866V32.1h0.346
		L311.037,31.111L311.037,31.111z M311.037,30.819v-0.705h0.47c0.24,0,0.497,0.052,0.497,0.334c0,0.35-0.262,0.371-0.555,0.371
		H311.037z"/>
</g>
</svg>
