<?xml version="1.0" encoding="utf-8"?>
<!-- Generator: Adobe Illustrator 15.0.2, SVG Export Plug-In . SVG Version: 6.00 Build 0)  -->
<!DOCTYPE svg PUBLIC "-//W3C//DTD SVG 1.1//EN" "http://www.w3.org/Graphics/SVG/1.1/DTD/svg11.dtd">
<svg version="1.1" id="background" xmlns="http://www.w3.org/2000/svg" xmlns:xlink="http://www.w3.org/1999/xlink" x="0px" y="0px"
	 width="2520px" height="151.13px" viewBox="0 0 2520 151.13" enable-background="new 0 0 2520 151.13" xml:space="preserve">
<g>
	<path opacity="0.5" fill="#BFBDB1" d="M0,32.554c0,0,438-28,519-27s246.414,25.41,246.414,25.41s38.498-4.668,54.832-12.834
		s71.166-23.334,98-16.334s65.332,32.666,73.5,38.5s29.166,16.33,38.5,10.5c9.334-5.832,26.832-16.332,38.5-15.166
		s26.834,27.996,44.334,29.166c17.5,1.168,42-5.832,59.5-2.332s57.166,31.498,72.334,33.832C1260.08,98.63,1291,97.554,1513,71.554
		s1007,0,1007,0l-1,79.576H1L0,32.554z"/>
	<path opacity="0.4" fill="#BFBDB1" d="M1024.5,53.054c0,0-5.633-1.027-10.75-2.5c-7.14-2.055-15.514-5.455-25.999-12.368
		C981.802,34.263,960,19.054,940,10.304c-18.717-8.188-24.145-8.919-26-8.75c-2.623,0.239,45.404,21.126,54.708,29.24
		c9.304,8.115,20.408,18.375,20.235,20.349s-14.969-4.343-16.471-4.645c-1.501-0.301-1.63,0.343,0.856,3.519
		c2.486,3.177,13.171,10.287,23.421,11.537S1024.5,53.054,1024.5,53.054z"/>
	<path opacity="0.4" fill="#BFBDB1" d="M1069.852,35.597c0,0,3.921,1.568,5.267,2.289c6.381,3.418,8.631,8.918,19.881,17.918
		c3.054,2.442,13.792,8.308,17,9.25c0.57,0.168,10.426-0.671,8.75,0.5c-3.06,2.14-17.719,2.307-19,3.5
		c-2.726,2.542,7.724,10,4.75,10c-3.75,0-18.114,2.563-18.25-7.5c-0.121-8.886-8.51-11.477-3.936-12.564
		c4.576-1.088-12.509-19.485-15.047-23.271"/>
</g>
</svg>
