<?xml version="1.0" encoding="utf-8"?>
<!-- Generator: Adobe Illustrator 15.1.0, SVG Export Plug-In  -->
<!DOCTYPE svg PUBLIC "-//W3C//DTD SVG 1.1//EN" "http://www.w3.org/Graphics/SVG/1.1/DTD/svg11.dtd" [
	<!ENTITY ns_flows "http://ns.adobe.com/Flows/1.0/">
]>
<svg version="1.1"
	 xmlns="http://www.w3.org/2000/svg" xmlns:xlink="http://www.w3.org/1999/xlink" xmlns:a="http://ns.adobe.com/AdobeSVGViewerExtensions/3.0/"
	 x="0px" y="0px" width="53px" height="8px" viewBox="0 0 53 8" overflow="visible" enable-background="new 0 0 53 8"
	 xml:space="preserve">
<defs>
</defs>
<rect x="35.737" fill="#FFFFFF" width="17.291" height="6.513"/>
<circle fill="#414042" cx="52.033" cy="7.505" r="0.898"/>
<path fill="#414042" d="M50.942,7.506c0,0.498-0.398,0.896-0.898,0.896c-0.496,0-0.896-0.398-0.896-0.896
	c0-0.496,0.399-0.898,0.896-0.898C50.543,6.606,50.942,7.01,50.942,7.506z"/>
<circle fill="#414042" cx="38.815" cy="7.505" r="0.898"/>
<circle fill="#414042" cx="36.635" cy="7.505" r="0.898"/>
<polygon fill="#FFFFFF" points="34.004,7.184 30.477,7.184 30.477,6.35 30.606,6.289 30.606,4.812 31.954,3.979 32.657,1.731 
	35.032,1.731 35.032,7.184 "/>
<path fill="#414042" d="M32.848,7.506c0,0.498-0.397,0.896-0.895,0.896c-0.5,0-0.9-0.398-0.9-0.896c0-0.496,0.4-0.898,0.9-0.898
	C32.448,6.606,32.848,7.01,32.848,7.506z"/>
<path fill="#F3732A" d="M9.872,7.184H0.172c0,0-0.434-1.021,0.074-1.312c0.51-0.291,1.896-0.512,1.969-0.875
	c0.072-0.357,1.021-2.043,2.26-2.404C5.715,2.232,8.34,2.74,8.85,4.197c0.513,1.455,0.656,1.531,1.097,1.604
	c0.438,0.07,0.729,0.438,0.729,0.875c0,0.438,0,0.438,0,0.438L9.872,7.184z"/>
<path fill="#414042" d="M2.588,7.506c0,0.498-0.4,0.896-0.895,0.896c-0.5,0-0.9-0.398-0.9-0.896c0-0.496,0.4-0.898,0.9-0.898
	C2.188,6.606,2.588,7.01,2.588,7.506z"/>
<path fill="#414042" d="M9.661,7.506c0,0.498-0.4,0.896-0.896,0.896c-0.5,0-0.897-0.398-0.897-0.896
	c0-0.496,0.397-0.898,0.897-0.898C9.26,6.606,9.661,7.01,9.661,7.506z"/>
</svg>
