<?xml version="1.0" encoding="utf-8"?>
<!-- Generator: Adobe Illustrator 15.0.2, SVG Export Plug-In . SVG Version: 6.00 Build 0)  -->
<!DOCTYPE svg PUBLIC "-//W3C//DTD SVG 1.1//EN" "http://www.w3.org/Graphics/SVG/1.1/DTD/svg11.dtd">
<svg version="1.1" xmlns="http://www.w3.org/2000/svg" xmlns:xlink="http://www.w3.org/1999/xlink" x="0px" y="0px"
	 width="343.943px" height="65.019px" viewBox="0 0 343.943 65.019" enable-background="new 0 0 343.943 65.019"
	 xml:space="preserve">
<g id="sky">
	<g>
		<path opacity="0.7" fill="#FFFFFF" d="M161.597,65.019h180c0,0,4.075-2.224,1.484-3.334c-2.594-1.113-8.15-1.113-8.89-3.703
			c-0.74-2.593,4.919-12.053-1.997-14.024c-12.993-3.709-13.748,4.641-18.562,4.641s-8.725-0.753-8.353-5.569
			c0.371-4.813,5.569-12.064-5.568-26.912c-5.574-7.433-15.779-16.708-38.052-3.715c-6.586,3.841-11.55,26.962-18.211,27.431
			c-5.919,0.416-6.108-26.663-28.195-21.861c-21.346,4.638-10.957,29.15-13.919,32.484c-2.963,3.334-9.366-0.993-13.809,2.341
			c-4.447,3.334-4.075,7.406-8.89,7.04c-4.815-0.375-8.52-2.593-11.483-0.744C164.188,60.947,161.597,65.019,161.597,65.019z"/>
		<path opacity="0.7" fill="#FFFFFF" d="M221.625,46.439H2.851c0,0-4.954-2.698-1.8-4.049c3.149-1.354,9.901-1.354,10.803-4.503
			c0.898-3.152-4.951-9.908,3.601-11.704s24.757,0.448,30.609,0.448c5.854,0,13.056,0,12.605-5.848
			c-0.448-5.851-7.203-13.509,3.154-18.012c10.352-4.497,28.809-3.146,36.91,1.356c8.104,4.497,15.757,14.405,23.411,11.698
			c7.652-2.698,17.555-11.698,30.158-8.552c12.604,3.155,16.657,15.756,20.257,19.811c3.601,4.049,12.152,0.448,17.558,4.503
			c5.402,4.049,4.951,9,10.803,8.552c5.854-0.454,10.354-3.152,13.954-0.902C218.476,41.491,221.625,46.439,221.625,46.439z"/>
	</g>
</g>
<g id="background" display="none">
	<path opacity="0.5" fill="#BFBDB1" d="M-80,149.019c0,0,32.999-4.002,47-11.001s60.999-20.001,84-14.001s56,27.999,63,33
		s24.999,13.998,33,9s23-13.998,33-12.999s23.001,23.997,38.001,24.999s36-4.998,51-1.998s48.999,26.997,62,28.998
		s14,19.002,14,19.002l-63.999,27.999H-23L-80,149.019z"/>
	<path opacity="0.4" fill="#BFBDB1" d="M-68.812,147.581c0,0,22.5-4.5,28.312-6.375s15.75-8.062,32.812-12s32.062-6,34.312-6.188
		s-40.688,9.938-49.875,15.188s-20.25,12-20.438,13.688s13.312-1.125,14.625-1.125s1.312,0.562-1.312,2.812
		s-22.875,16.5-22.875,16.5L-68.812,147.581z"/>
	<path opacity="0.4" fill="#BFBDB1" d="M179.55,152.778c0,0-3.604,0.349-4.885,0.609c-7.531,1.529-16.487,5.599-21.779,9.161
		c-2.782,1.869-7.107,4.884-9.974,4.884c-0.508,0-7.507,11.253-6.412,12.621c2,2.499,10.635-6.381,11.399-5.089
		c1.627,2.748-7.396,21.551-4.897,21.053s9.476-8.432,12.021-16.676c2.246-7.277,10.478-8.821,6.979-10.822
		s14.997-13.002,17.999-15.501"/>
</g>
<g id="river" display="none">
	<polygon display="inline" fill="#FFFFFF" points="-1.5,228.768 222.5,228.768 279,228.768 279,252.768 -1.5,252.768 	"/>
	<rect x="263.125" y="230.019" display="inline" opacity="0.3" fill="#808A94" width="4.5" height="21.744"/>
	<rect x="249.625" y="230.019" display="inline" opacity="0.3" fill="#808A94" width="4.5" height="21.744"/>
	<rect x="236.125" y="230.019" display="inline" opacity="0.3" fill="#808A94" width="4.5" height="21.744"/>
	<rect x="222.625" y="230.019" display="inline" opacity="0.3" fill="#808A94" width="4.5" height="21.744"/>
	<rect x="195.625" y="230.019" display="inline" opacity="0.3" fill="#808A94" width="4.5" height="21.744"/>
	<rect x="182.125" y="230.019" display="inline" opacity="0.3" fill="#808A94" width="4.5" height="21.744"/>
	<rect x="168.625" y="230.019" display="inline" opacity="0.3" fill="#808A94" width="4.5" height="21.744"/>
	<rect x="155.125" y="230.019" display="inline" opacity="0.3" fill="#808A94" width="4.5" height="21.744"/>
	<rect x="141.625" y="230.019" display="inline" opacity="0.3" fill="#808A94" width="4.5" height="21.744"/>
	<rect x="128.125" y="230.019" display="inline" opacity="0.3" fill="#808A94" width="4.5" height="21.744"/>
	<rect x="114.625" y="230.019" display="inline" opacity="0.3" fill="#808A94" width="4.5" height="21.744"/>
	<rect x="101.125" y="230.019" display="inline" opacity="0.3" fill="#808A94" width="4.5" height="21.744"/>
	<rect x="87.625" y="230.019" display="inline" opacity="0.3" fill="#808A94" width="4.5" height="21.744"/>
	<rect x="74.125" y="230.019" display="inline" opacity="0.3" fill="#808A94" width="4.5" height="21.744"/>
	<rect x="60.625" y="230.019" display="inline" opacity="0.3" fill="#808A94" width="4.5" height="21.744"/>
	<rect x="47.125" y="230.019" display="inline" opacity="0.3" fill="#808A94" width="4.5" height="21.744"/>
	<rect x="20.125" y="230.019" display="inline" opacity="0.3" fill="#808A94" width="4.5" height="21.744"/>
	<path display="inline" fill="#C0C289" d="M1182.003-31.983c0,0-100.002,53.001-121.002,65.001s-69,19.002-102,12
		S859,4.017,775,7.017s-128.002,48-144,54c-16,6-34.002,8.001-41.002-6c-6.998-14.001-33-29.001-54-15s-79.002,93.999-90,96
		S423,122.019,412,120.018c-11.002-2.001-37,10.998-43,16.998s-44.002,67.002-61.001,79.002s-30,15.999-30,15.999v33.999l408,20.001
		l222,9.999L1422,261.018V-31.98L1182.003-31.983z"/>
	<rect x="209" y="217.518" display="inline" fill="#FFFFFF" width="13.248" height="13.251"/>
	<rect x="33.75" y="217.518" display="inline" fill="#FFFFFF" width="13.248" height="13.251"/>
	<rect x="209.125" y="218.268" display="inline" opacity="0.3" fill="#808A94" width="4.5" height="33.495"/>
	<rect x="33.625" y="218.271" display="inline" opacity="0.3" fill="#808A94" width="4.5" height="33.492"/>
	<path display="inline" fill="#AEB69A" d="M-612.999,6.018c0,0,65.001-6.999,90-0.999s41,25.998,62,27.999s83.001,5.001,97,5.001
		s26,4.998,35,6.999s68.001-0.003,76,27.999s24,53.001,50,53.001s56-27.999,78-27s42,25.998,48,36.999s74.999,84,86,92.001
		s41.001,15.999,47.001,18.999s24,12,30,21S-81,294.018-81,294.018l-261.999-12.999L-636,154.017L-612.999,6.018z"/>
	<polygon display="inline" fill="#006796" points="-71.511,265.055 82.419,265.055 67.027,251.713 481.611,251.713 327.683,337.914 
		153.227,337.914 -77.667,294.815 	"/>
	<path display="inline" fill="#FFFFFF" d="M192.844,277.521h51.006c0,0-1.425,3.703-3.99,3.135
		c-2.565-0.571-3.989-2.279-5.984-0.571c-1.994,1.711-5.128,3.703-8.547,3.135c-3.42-0.568-5.985-1.14-7.409-0.855
		c-1.424,0.287-5.7,3.706-8.549,3.419c-2.849-0.284-5.128-2.563-7.978-2.563s-5.13,1.995-7.693,1.14
		c-2.565-0.855-5.7-6.838-5.7-6.838H192.844z"/>
	<path display="inline" fill="#FFFFFF" d="M121.919,284.066h28.166c0,0-3.208,2.854-6.06,2.854s-6.063-1.072-9.271-0.357
		s-6.062,1.787-8.2,0.715S121.919,284.066,121.919,284.066z"/>
	<path display="inline" fill="#FFFFFF" d="M172.92,267.797h18.167c0,0-2.068,1.843-3.908,1.843s-3.911-0.691-5.979-0.231
		c-2.07,0.46-3.911,1.151-5.29,0.46C174.53,269.177,172.92,267.797,172.92,267.797z"/>
	<path display="inline" fill="#FFFFFF" d="M207.01,259.275h10.666c0,0-1.214,1.084-2.294,1.084c-1.081,0-2.297-0.407-3.511-0.138
		s-2.295,0.674-3.105,0.27C207.957,260.083,207.01,259.275,207.01,259.275z"/>
	<path display="inline" fill="#FFFFFF" d="M274.92,259.591h13.667c0,0-1.556,1.383-2.94,1.383s-2.943-0.519-4.499-0.173
		c-1.557,0.346-2.943,0.864-3.98,0.346S274.92,259.591,274.92,259.591z"/>
	<path display="inline" fill="#FFFFFF" d="M329.421,268.023h-25.314c0,0,3.567,2.496,6.062,2.496s3.92-0.712,6.06,0
		s2.495,2.136,4.635,1.781s3.565-2.496,5.348-2.139s2.14,1.072,3.209,0.357s2.495-2.496,2.495-2.496H329.421z"/>
	<polygon display="inline" fill="#E8E8E8" points="56.742,246.988 -132.656,246.988 -132.656,243.988 48,243.988 56.013,246.988 	
		"/>
	<polygon display="inline" fill="#E8E8E8" points="486,236.403 278.344,236.403 278.344,235.105 494.25,235.105 492,236.403 	"/>
	<rect x="396.859" y="227.986" display="inline" fill="#FFFFFF" width="14.82" height="5.581"/>
	<g display="inline">
		<polygon opacity="0.25" fill="#E8E8E8" points="362.806,184.691 374.947,184.691 368.496,169.331 		"/>
		<polygon opacity="0.25" fill="#E8E8E8" points="362.994,184.506 368.689,175.588 375.134,184.506 368.689,169.14 		"/>
	</g>
	<g display="inline">
		<polygon opacity="0.25" fill="#E8E8E8" points="381.175,199.747 393.316,199.747 386.865,184.386 		"/>
		<polygon opacity="0.25" fill="#E8E8E8" points="381.363,199.562 387.058,190.644 393.503,199.562 387.058,184.196 		"/>
	</g>
	<g display="inline">
		<polygon opacity="0.25" fill="#E8E8E8" points="420.925,151.263 433.066,151.263 426.615,135.903 		"/>
		<polygon opacity="0.25" fill="#E8E8E8" points="421.113,151.079 426.808,142.161 433.253,151.079 426.808,135.712 		"/>
	</g>
	<g display="inline">
		<polygon opacity="0.25" fill="#E8E8E8" points="460.371,163.008 472.511,163.008 466.06,147.648 		"/>
		<polygon opacity="0.25" fill="#E8E8E8" points="460.558,162.824 466.253,153.906 472.699,162.824 466.253,147.458 		"/>
	</g>
	<g display="inline">
		<polygon opacity="0.25" fill="#E8E8E8" points="504.035,172.644 516.175,172.644 509.724,157.284 		"/>
		<polygon opacity="0.25" fill="#E8E8E8" points="504.222,172.459 509.917,163.542 516.363,172.459 509.917,157.093 		"/>
	</g>
	<g display="inline">
		<polygon opacity="0.25" fill="#E8E8E8" points="601.603,147.953 613.744,147.953 607.292,132.592 		"/>
		<polygon opacity="0.25" fill="#E8E8E8" points="601.791,147.768 607.486,138.85 613.931,147.768 607.486,132.402 		"/>
	</g>
	<g display="inline">
		<polygon opacity="0.25" fill="#E8E8E8" points="563.06,117.238 575.201,117.238 568.75,101.877 		"/>
		<polygon opacity="0.25" fill="#E8E8E8" points="563.248,117.053 568.943,108.135 575.388,117.053 568.943,101.687 		"/>
	</g>
	<g display="inline">
		<polygon opacity="0.25" fill="#E8E8E8" points="532.345,137.415 544.486,137.415 538.035,122.054 		"/>
		<polygon opacity="0.25" fill="#E8E8E8" points="532.533,137.23 538.228,128.312 544.673,137.23 538.228,121.864 		"/>
	</g>
	<g display="inline">
		<polygon opacity="0.25" fill="#E8E8E8" points="520.3,146.45 532.441,146.45 525.99,131.089 		"/>
		<polygon opacity="0.25" fill="#E8E8E8" points="520.488,146.265 526.183,137.347 532.628,146.265 526.183,130.899 		"/>
	</g>
	<g display="inline">
		<polygon opacity="0.25" fill="#E8E8E8" points="647.98,98.271 660.121,98.271 653.669,82.911 		"/>
		<polygon opacity="0.25" fill="#E8E8E8" points="648.167,98.086 653.863,89.168 660.308,98.086 653.863,82.72 		"/>
	</g>
	<g display="inline">
		<polygon opacity="0.25" fill="#E8E8E8" points="650.085,78.698 662.226,78.698 655.775,63.337 		"/>
		<polygon opacity="0.25" fill="#E8E8E8" points="650.273,78.513 655.968,69.595 662.414,78.513 655.968,63.147 		"/>
	</g>
	<g display="inline">
		<polygon opacity="0.25" fill="#E8E8E8" points="663.333,85.322 675.474,85.322 669.023,69.961 		"/>
		<polygon opacity="0.25" fill="#E8E8E8" points="663.521,85.137 669.216,76.219 675.662,85.137 669.216,69.771 		"/>
	</g>
	<g display="inline">
		<polygon opacity="0.25" fill="#E8E8E8" points="671.466,95.259 683.607,95.259 677.156,79.899 		"/>
		<polygon opacity="0.25" fill="#E8E8E8" points="671.654,95.075 677.349,86.157 683.794,95.075 677.349,79.708 		"/>
	</g>
	<g display="inline">
		<polygon opacity="0.25" fill="#E8E8E8" points="738.32,93.455 750.46,93.455 744.009,78.094 		"/>
		<polygon opacity="0.25" fill="#E8E8E8" points="738.507,93.27 744.203,84.352 750.648,93.27 744.203,77.904 		"/>
	</g>
	<g display="inline">
		<polygon opacity="0.25" fill="#E8E8E8" points="741.632,67.858 753.773,67.858 747.322,52.498 		"/>
		<polygon opacity="0.25" fill="#E8E8E8" points="741.82,67.673 747.515,58.755 753.96,67.673 747.515,52.307 		"/>
	</g>
	<g display="inline">
		<polygon opacity="0.25" fill="#E8E8E8" points="728.382,80.207 740.523,80.207 734.072,64.846 		"/>
		<polygon opacity="0.25" fill="#E8E8E8" points="728.57,80.022 734.265,71.104 740.71,80.022 734.265,64.656 		"/>
	</g>
	<g display="inline">
		<polygon opacity="0.25" fill="#E8E8E8" points="802.761,86.227 814.902,86.227 808.451,70.867 		"/>
		<polygon opacity="0.25" fill="#E8E8E8" points="802.949,86.042 808.644,77.125 815.089,86.042 808.644,70.676 		"/>
	</g>
	<g display="inline">
		<polygon opacity="0.25" fill="#E8E8E8" points="801.855,73.58 813.996,73.58 807.544,58.219 		"/>
		<polygon opacity="0.25" fill="#E8E8E8" points="802.042,73.395 807.738,64.477 814.183,73.395 807.738,58.029 		"/>
	</g>
	<g display="inline">
		<polygon opacity="0.15" fill="#E8E8E8" points="-79.948,211.993 -67.808,211.993 -74.259,196.632 		"/>
		<polygon opacity="0.15" fill="#E8E8E8" points="-79.761,211.808 -74.065,202.89 -67.62,211.808 -74.065,196.442 		"/>
	</g>
	<g display="inline">
		<polygon opacity="0.15" fill="#E8E8E8" points="-93.188,202.703 -81.047,202.703 -87.498,187.342 		"/>
		<polygon opacity="0.15" fill="#E8E8E8" points="-93,202.518 -87.305,193.6 -80.859,202.518 -87.305,187.152 		"/>
	</g>
	<g display="inline">
		<polygon opacity="0.15" fill="#E8E8E8" points="-117.188,181.703 -105.047,181.703 -111.498,166.342 		"/>
		<polygon opacity="0.15" fill="#E8E8E8" points="-117,181.518 -111.305,172.6 -104.859,181.518 -111.305,166.152 		"/>
	</g>
	<g display="inline">
		<polygon opacity="0.15" fill="#E8E8E8" points="-118.688,205.703 -106.547,205.703 -112.998,190.342 		"/>
		<polygon opacity="0.15" fill="#E8E8E8" points="-118.5,205.518 -112.805,196.6 -106.359,205.518 -112.805,190.152 		"/>
	</g>
	<g display="inline">
		<polygon opacity="0.15" fill="#E8E8E8" points="-150.188,181.703 -138.047,181.703 -144.498,166.342 		"/>
		<polygon opacity="0.15" fill="#E8E8E8" points="-150,181.518 -144.305,172.6 -137.859,181.518 -144.305,166.152 		"/>
	</g>
	<g display="inline">
		<polygon opacity="0.15" fill="#E8E8E8" points="-96.188,156.203 -84.047,156.203 -90.498,140.842 		"/>
		<polygon opacity="0.15" fill="#E8E8E8" points="-96,156.018 -90.305,147.1 -83.859,156.018 -90.305,140.652 		"/>
	</g>
	<g display="inline">
		<polygon opacity="0.15" fill="#E8E8E8" points="-105.188,168.203 -93.047,168.203 -99.498,152.842 		"/>
		<polygon opacity="0.15" fill="#E8E8E8" points="-105,168.018 -99.305,159.1 -92.859,168.018 -99.305,152.652 		"/>
	</g>
	<g display="inline">
		<polygon opacity="0.15" fill="#E8E8E8" points="-273.188,154.703 -261.047,154.703 -267.498,139.342 		"/>
		<polygon opacity="0.15" fill="#E8E8E8" points="-273,154.518 -267.305,145.6 -260.859,154.518 -267.305,139.152 		"/>
	</g>
	<g display="inline">
		<polygon opacity="0.15" fill="#E8E8E8" points="-286.688,145.703 -274.547,145.703 -280.998,130.342 		"/>
		<polygon opacity="0.15" fill="#E8E8E8" points="-286.5,145.518 -280.805,136.6 -274.359,145.518 -280.805,130.152 		"/>
	</g>
	<g display="inline">
		<polygon opacity="0.15" fill="#E8E8E8" points="-268.688,123.203 -256.547,123.203 -262.998,107.842 		"/>
		<polygon opacity="0.15" fill="#E8E8E8" points="-268.5,123.018 -262.805,114.1 -256.359,123.018 -262.805,107.652 		"/>
	</g>
	<g display="inline">
		<polygon opacity="0.15" fill="#E8E8E8" points="-318.188,112.703 -306.047,112.703 -312.498,97.342 		"/>
		<polygon opacity="0.15" fill="#E8E8E8" points="-318,112.518 -312.305,103.6 -305.859,112.518 -312.305,97.152 		"/>
	</g>
	<g display="inline">
		<polygon opacity="0.15" fill="#E8E8E8" points="-330.188,120.203 -318.047,120.203 -324.498,104.842 		"/>
		<polygon opacity="0.15" fill="#E8E8E8" points="-330,120.018 -324.305,111.1 -317.859,120.018 -324.305,104.652 		"/>
	</g>
	<g display="inline">
		<polygon opacity="0.15" fill="#E8E8E8" points="-322.688,147.203 -310.547,147.203 -316.998,131.842 		"/>
		<polygon opacity="0.15" fill="#E8E8E8" points="-322.5,147.018 -316.805,138.1 -310.359,147.018 -316.805,131.652 		"/>
	</g>
	<path display="inline" fill="#E8E8E8" d="M445.705,231.422h-13.473c0,0-4.494-4.04-2.248-5.388
		c2.248-1.348,3.592,1.348,4.043-0.899s0-3.595,1.348-4.043s3.596,1.796,3.596,1.796l1.348-75.457h2.244l2.246,77.256
		c0,0,4.043-2.25,4.043-0.451s-1.348,0.451,0,1.799s4.939-0.448,4.939,1.348s-4.49,4.04-4.49,4.04H445.705z"/>
	<polygon display="inline" fill="#F3732A" points="41.31,285.115 21.639,270.953 49.179,251.28 	"/>
	<g display="inline">
		<line fill="#F3732A" x1="27.337" y1="285.844" x2="44.156" y2="285.844"/>
		<polygon fill="#E8E8E8" points="44.156,286.688 24.562,286.688 24.562,285 44.156,285 44.156,286.688 		"/>
	</g>
	<polygon display="inline" fill="#E8E8E8" points="30.984,284.877 30.234,284.877 30,276.768 32.25,278.769 32.391,281.022 
		33.375,284.784 32.688,284.784 31.312,281.502 	"/>
	<circle display="inline" fill="#414042" cx="410.827" cy="234.419" r="0.771"/>
	<circle display="inline" fill="#414042" cx="409.122" cy="234.419" r="0.771"/>
	<circle display="inline" fill="#414042" cx="399.499" cy="234.419" r="0.771"/>
	<circle display="inline" fill="#414042" cx="397.629" cy="234.419" r="0.771"/>
	<polygon display="inline" fill="#FFFFFF" points="395.373,234.144 392.349,234.144 392.349,233.429 392.46,233.376 392.46,232.111 
		393.615,231.396 394.218,229.471 396.255,229.471 396.255,234.144 	"/>
	<path display="inline" fill="#414042" d="M394.382,234.419c0,0.428-0.342,0.771-0.768,0.771c-0.428,0-0.77-0.343-0.77-0.771
		c0-0.425,0.342-0.771,0.77-0.771C394.041,233.649,394.382,233.995,394.382,234.419z"/>
	<path display="inline" fill="#F3732A" d="M374.689,234.144h-8.314c0,0-0.371-0.876,0.064-1.125c0.438-0.249,1.627-0.439,1.688-0.75
		c0.062-0.311,0.873-1.752,1.938-2.062c1.062-0.311,3.312,0.129,3.75,1.377c0.436,1.248,0.562,1.312,0.938,1.374
		s0.623,0.375,0.623,0.75s0,0.375,0,0.375L374.689,234.144z"/>
	<circle display="inline" fill="#414042" cx="367.677" cy="234.419" r="0.77"/>
	<path display="inline" fill="#414042" d="M374.507,234.419c0,0.428-0.342,0.771-0.768,0.771c-0.428,0-0.77-0.343-0.77-0.771
		c0-0.425,0.342-0.771,0.77-0.771C374.166,233.649,374.507,233.995,374.507,234.419z"/>
</g>
<g id="factory" display="none">
	<rect x="802.992" y="190.02" display="inline" fill="#FFFFFF" width="93" height="46.998"/>
	<rect x="810.994" y="148.02" display="inline" fill="#FFFFFF" width="9.998" height="60"/>
	<rect x="817.974" y="148.395" display="inline" opacity="0.22" fill="#808A94" width="2.988" height="41.625"/>
	<rect x="873.501" y="190.583" display="inline" fill="#E8E8E8" width="22.5" height="27.938"/>
	<rect x="862.251" y="194.769" display="inline" fill="#808A94" width="4.998" height="5.001"/>
	<rect x="862.251" y="202.521" display="inline" fill="#808A94" width="4.998" height="5.001"/>
	<rect x="838.875" y="179.456" display="inline" fill="#FFFFFF" width="26.25" height="10.312"/>
	<rect x="853.626" y="180.083" display="inline" fill="#E8E8E8" width="11.625" height="9.562"/>
</g>
<g id="foreground" display="none">
	<g display="inline">
		<path opacity="0.4" fill="#FFFFFF" d="M1101.943,70.363c0,10.479-4.619,18.973-10.324,18.973c-5.703,0-10.33-8.493-10.33-18.973
			c0-10.482,4.627-18.976,10.33-18.976C1097.324,51.387,1101.943,59.88,1101.943,70.363z"/>
		<path fill="#FFFFFF" d="M1092.73,72.296c0,0,12.963-0.744,13.711-0.894c0.74-0.149,1.338-1.192,0.295-1.342
			s-12.516-0.448-13.561-0.598c-1.043-0.146-2.535,0.451-2.535,1.491C1090.64,71.998,1092.73,72.296,1092.73,72.296z"/>
		<polygon fill="#FFFFFF" points="1094.056,123.707 1095.41,70.509 1096.898,70.509 1098.152,123.707 		"/>
		<path opacity="0.4" fill="#414042" d="M1091.326,71.722c0,0,0.941,0.527,1.404,0.574c0.459,0.047,2.691-0.079,2.691-0.079v0.744
			h0.871l0.494,50.745h1.365l-1.115-51.735l9.404-0.568c0,0,0.518,0.07,0.77-0.425c0.246-0.498-1.119-0.126-1.119-0.126
			l-13.895,0.621h-1.488L1091.326,71.722z"/>
		<path fill="#FFFFFF" d="M1092.556,71.218c0,0,3.469-4.948,4.91-7.939s2.279-4.819,1.961-5.358
			c-0.777-1.292-2.717,2.728-3.584,4.175c-1.33,2.218-3.951,9.012-3.951,9.012L1092.556,71.218z"/>
		<path fill="#FFFFFF" d="M1092.298,72.144c0,0-0.703,6.645-0.592,8.974c0.111,2.326,0.164,8.493,1.246,8.514
			c1.08,0.018,0.639-6.299,0.527-9.29s-0.445-8.197-0.445-8.197H1092.298z"/>
		<path fill="#FFFFFF" d="M1091.412,70.667c0,0-3.398-2.956-5.764-6.205c-1.549-2.133-2.99-4.62-2.66-5.174
			c0.334-0.554,4.113,4.099,4.729,4.875c1.627,2.071,2.66,4.137,4.283,6.354L1091.412,70.667z"/>
	</g>
	<g display="inline">
		<path opacity="0.4" fill="#FFFFFF" d="M1328.443,56.863c0,10.479-4.619,18.973-10.324,18.973c-5.703,0-10.33-8.493-10.33-18.973
			c0-10.482,4.627-18.976,10.33-18.976C1323.824,37.887,1328.443,46.38,1328.443,56.863z"/>
		<path fill="#FFFFFF" d="M1319.23,58.796c0,0,12.963-0.744,13.711-0.894c0.74-0.149,1.338-1.192,0.295-1.342
			s-12.516-0.448-13.561-0.598c-1.043-0.146-2.535,0.451-2.535,1.491C1317.14,58.498,1319.23,58.796,1319.23,58.796z"/>
		<polygon fill="#FFFFFF" points="1320.556,110.207 1321.91,57.009 1323.398,57.009 1324.652,110.207 		"/>
		<path opacity="0.4" fill="#414042" d="M1317.826,58.222c0,0,0.941,0.527,1.404,0.574c0.459,0.047,2.691-0.079,2.691-0.079v0.744
			h0.871l0.494,50.745h1.365l-1.115-51.735l9.404-0.568c0,0,0.518,0.07,0.77-0.425c0.246-0.498-1.119-0.126-1.119-0.126
			l-13.895,0.621h-1.488L1317.826,58.222z"/>
		<path fill="#FFFFFF" d="M1319.056,57.718c0,0,3.469-4.948,4.91-7.939s2.279-4.819,1.961-5.358
			c-0.777-1.292-2.717,2.728-3.584,4.175c-1.33,2.218-3.951,9.012-3.951,9.012L1319.056,57.718z"/>
		<path fill="#FFFFFF" d="M1318.798,58.644c0,0-0.703,6.645-0.592,8.974c0.111,2.326,0.164,8.493,1.246,8.514
			c1.08,0.018,0.639-6.299,0.527-9.29s-0.445-8.197-0.445-8.197H1318.798z"/>
		<path fill="#FFFFFF" d="M1317.912,57.167c0,0-3.398-2.956-5.764-6.205c-1.549-2.133-2.99-4.62-2.66-5.174
			c0.334-0.554,4.113,4.099,4.729,4.875c1.627,2.071,2.66,4.137,4.283,6.354L1317.912,57.167z"/>
	</g>
	<polygon display="inline" fill="#5F7D43" points="-276,238.518 -648,-31.482 -736,-31.482 -736,324.018 	"/>
	<path display="inline" fill="#808A94" d="M-170,239.019c0,0-176.212-29.722-333-9c-174,22.998-233,40.998-233,40.998v73.002h242
		L-170,239.019z"/>
	<path display="inline" fill="#87AA5A" d="M-730.5,343.518c0,0,331.5-144,525-112.5s208.5,72,351,93s232.5-33,300-67.5
		s124.5-76.5,201-75s129,54,222,36s144.926-84.146,246-111c103.5-27.498,202.938-16.553,307.938,17.947c0,1.5,0,219.554,0,219.554
		L-730.5,343.518z"/>
	<polyline display="inline" fill="#5F7D43" points="-489.25,100.518 -480.58,77.567 -463.375,114.768 	"/>
	<polyline display="inline" fill="#5F7D43" points="-452.446,119.327 -443.776,96.375 -426.571,133.577 	"/>
	<polyline display="inline" fill="#5F7D43" points="-508.063,75.979 -499.393,53.028 -482.188,90.229 	"/>
	<polyline display="inline" fill="#5F7D43" points="-589.852,18.727 -581.181,-4.224 -563.977,32.977 	"/>
	<polyline display="inline" fill="#5F7D43" points="-619.979,-7.095 -611.309,-30.046 -594.104,7.155 	"/>
	<polyline display="inline" fill="#5F7D43" points="-637.912,-20.009 -629.241,-42.96 -612.037,-5.759 	"/>
	<polyline display="inline" fill="#5F7D43" points="-427,144.768 -417.501,119.672 -398.5,161.268 	"/>
	<polyline display="inline" fill="#5F7D43" points="-572.001,41.268 -562.501,16.172 -543.501,57.768 	"/>
	<g display="inline">
		<polygon opacity="0.15" fill="#E8E8E8" points="-637.661,99.481 -613.093,99.481 -626.143,68.391 		"/>
		<polygon opacity="0.15" fill="#E8E8E8" points="-637.28,99.103 -625.762,81.059 -612.712,99.103 -625.762,68.007 		"/>
	</g>
	<g display="inline">
		<polygon opacity="0.15" fill="#E8E8E8" points="-603.661,138.018 -560.413,138.018 -583.386,72.32 		"/>
		<polygon opacity="0.15" fill="#E8E8E8" points="-602.991,137.221 -582.715,99.088 -559.743,137.221 -582.715,71.508 		"/>
	</g>
	<g display="inline">
		<polygon opacity="0.15" fill="#E8E8E8" points="-683.66,107.016 -640.412,107.016 -663.385,41.318 		"/>
		<polygon opacity="0.15" fill="#E8E8E8" points="-682.991,106.219 -662.714,68.086 -639.743,106.219 -662.714,40.506 		"/>
	</g>
	<g display="inline">
		<polygon opacity="0.15" fill="#E8E8E8" points="-700.66,62.019 -668.331,62.019 -685.503,14.59 		"/>
		<polygon opacity="0.15" fill="#E8E8E8" points="-700.159,61.445 -685.002,33.915 -667.83,61.445 -685.002,14.004 		"/>
	</g>
	<g display="inline">
		<polygon opacity="0.15" fill="#E8E8E8" points="-557.66,145.02 -530.254,145.02 -544.812,96.112 		"/>
		<polygon opacity="0.15" fill="#E8E8E8" points="-557.235,144.428 -544.387,116.04 -529.83,144.428 -544.387,95.508 		"/>
	</g>
	<g display="inline">
		<path opacity="0.4" fill="#FFFFFF" d="M1218.322,16.002c0,17.733-7.818,32.104-17.469,32.104c-9.654,0-17.482-14.37-17.482-32.104
			s7.828-32.106,17.482-32.106C1210.503-16.104,1218.322-1.731,1218.322,16.002z"/>
		<path fill="#FFFFFF" d="M1202.728,19.275c0,0,21.939-1.257,23.199-1.512c1.258-0.252,2.268-2.016,0.502-2.271
			c-1.764-0.252-21.18-0.759-22.945-1.011c-1.764-0.249-4.287,0.762-4.287,2.522C1199.197,18.771,1202.728,19.275,1202.728,19.275z"
			/>
		<polygon fill="#FFFFFF" points="1204.978,106.266 1207.265,16.251 1209.785,16.251 1211.906,106.266 		"/>
		<path opacity="0.4" fill="#414042" d="M1200.357,18.302c0,0,1.588,0.894,2.371,0.973c0.779,0.079,4.559-0.132,4.559-0.132v1.26
			h1.471l0.838,85.863h2.311l-1.889-87.542l15.91-0.961c0,0,0.883,0.12,1.305-0.718c0.418-0.841-1.891-0.211-1.891-0.211
			l-23.514,1.049h-2.52L1200.357,18.302z"/>
		<path fill="#FFFFFF" d="M1202.435,17.453c0,0,5.873-8.373,8.311-13.436s3.859-8.156,3.314-9.064
			c-1.312-2.186-4.592,4.614-6.062,7.063c-2.25,3.75-6.688,15.249-6.688,15.249L1202.435,17.453z"/>
		<path fill="#FFFFFF" d="M1201.998,19.017c0,0-1.186,11.247-0.998,15.185s0.275,14.373,2.105,14.405
			c1.832,0.032,1.082-10.655,0.895-15.718s-0.754-13.872-0.754-13.872H1201.998z"/>
		<path fill="#FFFFFF" d="M1200.498,16.518c0,0-5.75-5.001-9.75-10.5c-2.621-3.606-5.062-7.813-4.5-8.751s6.961,6.932,7.998,8.25
			c2.752,3.501,4.5,6.999,7.252,10.749L1200.498,16.518z"/>
	</g>
	<g display="inline">
		<path opacity="0.4" fill="#FFFFFF" d="M1160.607,35.948c0,22.951-10.119,41.549-22.611,41.549s-22.623-18.598-22.623-41.549
			s10.131-41.552,22.623-41.552S1160.607,12.997,1160.607,35.948z"/>
		<path fill="#FFFFFF" d="M1140.425,40.184c0,0,28.395-1.629,30.023-1.957c1.629-0.325,2.936-2.61,0.65-2.938
			c-2.283-0.325-27.41-0.981-29.695-1.31c-2.283-0.322-5.549,0.987-5.549,3.267C1135.855,39.531,1140.425,40.184,1140.425,40.184z"
			/>
		<polygon fill="#FFFFFF" points="1143.337,152.766 1146.296,36.27 1149.556,36.27 1152.302,152.766 		"/>
		<path opacity="0.4" fill="#414042" d="M1137.357,38.924c0,0,2.055,1.157,3.068,1.26c1.008,0.103,5.896-0.173,5.896-0.173v1.632
			h1.904l1.084,111.123h2.992l-2.443-113.297l20.59-1.242c0,0,1.143,0.155,1.688-0.929c0.541-1.09-2.443-0.272-2.443-0.272
			l-30.434,1.356h-3.262L1137.357,38.924z"/>
		<path fill="#FFFFFF" d="M1140.044,37.826c0,0,7.602-10.837,10.758-17.388c3.154-6.554,4.992-10.559,4.289-11.733
			c-1.699-2.827-5.941,5.974-7.846,9.144c-2.912,4.852-8.658,19.734-8.658,19.734L1140.044,37.826z"/>
		<path fill="#FFFFFF" d="M1139.478,39.85c0,0-1.535,14.555-1.291,19.652c0.242,5.095,0.357,18.601,2.727,18.642
			c2.367,0.041,1.398-13.79,1.154-20.341c-0.24-6.554-0.973-17.953-0.973-17.953H1139.478z"/>
		<path fill="#FFFFFF" d="M1137.539,36.616c0,0-7.443-6.472-12.617-13.591c-3.396-4.667-6.555-10.11-5.824-11.323
			c0.727-1.213,9.008,8.971,10.35,10.676c3.561,4.532,5.824,9.059,9.385,13.91L1137.539,36.616z"/>
	</g>
	<g display="inline">
		<path opacity="0.4" fill="#FFFFFF" d="M1277.113,36.938c0,24.047-10.6,43.526-23.689,43.526
			c-13.084,0-23.699-19.479-23.699-43.526c0-24.041,10.615-43.526,23.699-43.526C1266.513-6.588,1277.113,12.897,1277.113,36.938z"
			/>
		<path fill="#FFFFFF" d="M1255.968,41.376c0,0,29.746-1.705,31.451-2.048c1.707-0.343,3.076-2.736,0.682-3.079
			c-2.391-0.34-28.713-1.028-31.107-1.371c-2.391-0.34-5.812,1.034-5.812,3.422C1251.181,40.694,1255.968,41.376,1255.968,41.376z"
			/>
		<polygon fill="#FFFFFF" points="1259.019,159.317 1262.119,37.278 1265.535,37.278 1268.412,159.317 		"/>
		<path opacity="0.4" fill="#414042" d="M1252.755,40.058c0,0,2.152,1.213,3.213,1.318c1.055,0.108,6.176-0.182,6.176-0.182v1.711
			h1.998l1.135,116.411h3.135l-2.561-118.688l21.568-1.301c0,0,1.197,0.164,1.77-0.973c0.568-1.143-2.561-0.287-2.561-0.287
			l-31.881,1.424h-3.416L1252.755,40.058z"/>
		<path fill="#FFFFFF" d="M1255.57,38.907c0,0,7.963-11.353,11.268-18.214c3.309-6.867,5.23-11.062,4.494-12.29
			c-1.777-2.965-6.223,6.255-8.217,9.577c-3.053,5.083-9.07,20.672-9.07,20.672L1255.57,38.907z"/>
		<path fill="#FFFFFF" d="M1254.978,41.028c0,0-1.607,15.246-1.354,20.587c0.252,5.338,0.375,19.485,2.857,19.529
			c2.48,0.044,1.465-14.446,1.209-21.308c-0.252-6.867-1.02-18.809-1.02-18.809H1254.978z"/>
		<path fill="#FFFFFF" d="M1252.945,37.638c0,0-7.799-6.779-13.219-14.235c-3.557-4.89-6.867-10.591-6.1-11.862
			c0.762-1.271,9.438,9.398,10.844,11.183c3.729,4.749,6.1,9.492,9.828,14.572L1252.945,37.638z"/>
	</g>
	<path display="inline" fill="#EBCC2D" d="M-736.497,304.017c0,0,75.543-24.923,167.997-45.999
		c78.718-17.947,169.778-32.391,236.002-33.999c0-0.337-29.821-0.721-90.416,6.797c-34.315,4.257-102.741,15.735-141.583,24.202
		c-117,25.5-172.5,45-172.5,45L-736.497,304.017"/>
</g>
<g id="houses" display="none">
	<polygon display="inline" fill="#FBAE18" points="537.292,171.144 570.83,171.144 570.83,195.428 537.292,208.919 	"/>
	<rect x="609" y="168.021" display="inline" fill="#EBCC2D" width="53.002" height="51"/>
	<polygon display="inline" fill="#606049" points="665.5,168.516 584.5,168.516 594.333,134.016 651.187,134.016 	"/>
	<polygon display="inline" fill="#606049" points="728.998,180.768 670.998,180.768 687.123,155.52 714.685,155.52 	"/>
	<polygon display="inline" fill="#FDE584" points="609,219.021 589.5,219.021 589.5,168.305 598,136.518 609,168.021 	"/>
	<rect x="595.75" y="195.021" display="inline" fill="#606049" width="7.5" height="24"/>
	<rect x="616.5" y="195.777" display="inline" fill="#606049" width="20.752" height="15.243"/>
	<rect x="616.5" y="171.273" display="inline" fill="#606049" width="10.002" height="15.243"/>
	<rect x="541.716" y="189.39" display="inline" fill="#606049" width="5.986" height="6.425"/>
	<rect x="593.001" y="171.273" display="inline" fill="#606049" width="12.5" height="15.243"/>
	<rect x="640.751" y="171.273" display="inline" fill="#606049" width="10.002" height="15.243"/>
	<polygon display="inline" fill="#E8E8E8" points="733.001,208.02 733.001,179.895 724.251,165.267 720.123,170.095 
		714.123,159.645 699.873,180.645 675.123,180.645 675.123,208.02 	"/>
	<rect x="674.748" y="180.27" display="inline" fill="#FFFFFF" width="25.125" height="27.375"/>
	<polygon display="inline" fill="#606049" points="706.251,180.267 714.251,180.267 725.501,164.019 717.003,164.019 	"/>
	<polygon display="inline" fill="#606049" points="736.005,180.267 733.751,180.267 722.501,164.019 725.253,164.019 	"/>
	<rect x="708.251" y="179.769" display="inline" fill="#FFFFFF" width="6.25" height="27.999"/>
	<polygon display="inline" fill="#E8E8E8" points="607.125,140.081 613.875,161.081 653.437,161.081 645.562,140.268 	"/>
	<polygon display="inline" fill="#414042" points="608.628,141.08 614.683,160.105 651.736,160.105 644.628,141.255 	"/>
	<polygon display="inline" fill="#E8E8E8" points="619.791,140.567 626.382,160.726 627.621,160.805 620.953,140.567 	"/>
	<polygon display="inline" fill="#E8E8E8" points="707.078,160.372 697.406,175.758 676.896,175.688 687.396,160.442 	"/>
	<polygon display="inline" fill="#414042" points="705.708,161.101 696.988,175.041 678.378,174.976 687.871,161.166 	"/>
	<polygon display="inline" fill="#E8E8E8" points="697.193,160.706 687.824,175.474 686.851,175.533 696.298,160.703 	"/>
	<polygon display="inline" fill="#E8E8E8" points="632.74,140.567 639.332,160.726 640.57,160.805 633.902,140.567 	"/>
	<rect x="535.369" y="166.134" display="inline" fill="#606049" width="37.004" height="19.271"/>
</g>
<g id="cars" display="none">
	<path display="inline" fill="#414042" d="M-580.868,244.761h-4.756v0.088c-0.016-0.003-0.031-0.012-0.047-0.012
		c-0.832,0-1.509,1.69-1.509,3.771s0.677,3.771,1.509,3.771c0.075,0,0.428,0.032,0.5,0.006l4.312,0.047L-580.868,244.761z"/>
	<path display="inline" fill="#414042" d="M-576.016,244.014h-4.756v0.088c-0.016-0.003-0.031-0.012-0.047-0.012
		c-0.832,0-1.509,1.69-1.509,3.771s0.677,3.771,1.509,3.771c0.075,0,0.404,0.029,0.476,0.003l4.125,0.047L-576.016,244.014z"/>
	<ellipse display="inline" fill="#414042" cx="-576.143" cy="247.884" rx="1.52" ry="3.8"/>
	<ellipse display="inline" fill="#414042" cx="-580.74" cy="248.617" rx="1.52" ry="3.8"/>
	<path display="inline" fill="#414042" d="M-550.361,240.519h-1.827v0.088c-0.016-0.003-0.031-0.012-0.047-0.012
		c-0.832,0-1.509,1.69-1.509,3.771s0.677,3.771,1.509,3.771c0.075,0,0.145-0.029,0.217-0.056h1.657V240.519z"/>
	<path display="inline" fill="#AEB69A" d="M-573.913,221.936c0,0,16.57-0.226,17.824,0c1.255,0.226,2.503,1.772,3.13,4.034
		c0.628,2.265,0.338,4.898,3.211,6.252c0.757,0.357,1.897,2.32,2.106,4.585c0.211,2.265-0.627,4.298,0.42,4.526
		c1.044,0.229,0.416,2.265-0.838,2.719c-1.254,0.451-11.259,2.13-11.259,2.206l-14.426-0.091L-573.913,221.936z"/>
	<polygon display="inline" fill="#606049" points="-561.938,221.456 -559.312,221.831 -559.312,246.206 -573.743,246.167 
		-574.312,227.831 	"/>
	<path display="inline" fill="#414042" d="M-636.693,254.599h-5.584v0.105c-0.019-0.003-0.037-0.015-0.056-0.015
		c-0.977,0-1.771,1.983-1.771,4.427s0.794,4.427,1.771,4.427c0.088,0,0.171-0.035,0.255-0.064h5.385V254.599z"/>
	<ellipse display="inline" fill="#414042" cx="-636.657" cy="259.117" rx="1.77" ry="4.427"/>
	<path display="inline" fill="#414042" d="M-632.208,253.773h-5.471v0.103c-0.018-0.003-0.035-0.015-0.054-0.015
		c-0.957,0-1.734,1.945-1.734,4.339s0.778,4.336,1.734,4.336c0.086,0,0.168-0.035,0.25-0.064h5.275V253.773z"/>
	<ellipse display="inline" fill="#414042" cx="-631.918" cy="258.071" rx="1.77" ry="4.427"/>
	<path display="inline" fill="#414042" d="M-616.16,254.599h-5.584v0.105c-0.019-0.003-0.037-0.015-0.056-0.015
		c-0.977,0-1.771,1.983-1.771,4.427s0.794,4.427,1.771,4.427c0.088,0,0.171-0.035,0.255-0.064h5.385V254.599z"/>
	<path display="inline" fill="#414042" d="M-569.082,244.846h-4.756v0.088c-0.016-0.003-0.031-0.012-0.047-0.012
		c-0.832,0-1.509,1.69-1.509,3.771s0.677,3.771,1.509,3.771c0.075,0,0.428,0.032,0.5,0.006l4.312,0.047L-569.082,244.846z"/>
	<path display="inline" fill="#414042" d="M-564.23,244.099h-4.756v0.088c-0.016-0.003-0.031-0.012-0.047-0.012
		c-0.832,0-1.509,1.69-1.509,3.771s0.677,3.771,1.509,3.771c0.075,0,0.404,0.029,0.476,0.003l4.125,0.047L-564.23,244.099z"/>
	<path display="inline" fill="#414042" d="M-611.399,253.773h-5.471v0.103c-0.018-0.003-0.035-0.015-0.054-0.015
		c-0.957,0-1.734,1.945-1.734,4.339s0.778,4.336,1.734,4.336c0.086,0,0.168-0.035,0.25-0.064h5.275V253.773z"/>
	<rect x="-646" y="211.02" display="inline" fill="#E8E8E8" width="27.501" height="44.001"/>
	<ellipse display="inline" fill="#414042" cx="-550.464" cy="244.407" rx="1.52" ry="3.8"/>
	<ellipse display="inline" fill="#414042" cx="-616.124" cy="259.117" rx="1.77" ry="4.427"/>
	<ellipse display="inline" fill="#414042" cx="-611.11" cy="258.071" rx="1.77" ry="4.427"/>
	<path display="inline" fill="#414042" d="M-553.419,229.5c0.256,1.09,0.114,1.714-0.122,1.714c-0.608,0-2.626,0.246-3.303,0.246
		c-0.734,0-0.929-0.609-0.979-1.591c-0.082-1.641-0.253-3.48-0.245-4.711c0.004-0.604,0.105-1.248,0.183-1.286
		c0.337-0.17,2-0.384,2.508,0.123C-555.044,224.327-553.898,227.461-553.419,229.5z"/>
	<polygon display="inline" fill="#BFBDB1" points="-560.5,211.02 -618.5,211.02 -618.5,254.52 -560.5,243.021 	"/>
	<ellipse display="inline" fill="#414042" cx="-564.357" cy="247.969" rx="1.52" ry="3.8"/>
	<ellipse display="inline" fill="#414042" cx="-568.953" cy="248.702" rx="1.52" ry="3.8"/>
</g>
</svg>
