<?xml version="1.0" encoding="utf-8"?>
<!-- Generator: Adobe Illustrator 15.0.2, SVG Export Plug-In . SVG Version: 6.00 Build 0)  -->
<!DOCTYPE svg PUBLIC "-//W3C//DTD SVG 1.1//EN" "http://www.w3.org/Graphics/SVG/1.1/DTD/svg11.dtd">
<svg version="1.1" id="Layer_1" xmlns="http://www.w3.org/2000/svg" xmlns:xlink="http://www.w3.org/1999/xlink" x="0px" y="0px"
	 width="113.395px" height="74.396px" viewBox="0 0 113.395 74.396" enable-background="new 0 0 113.395 74.396"
	 xml:space="preserve">
<path fill="#6D736D" d="M77.865,52.844l0.424-0.147l0.323-0.176l2.894-0.851c0,0,1.021-0.799,1.072-0.896
	c0.05-0.102,1.596-1.848,1.596-1.848l0.922-2.22l0.026-0.818l-0.998-1.922l-1.349-0.351l-1.246,0.026l-1.173,0.474l-1.771,0.249
	l-1.246,0.374l-2.094,0.398l-2.77-0.763l-0.875,0.114l-1.619,0.048l-1.646,2.694l-0.275,2.168l2.396,2.793l2.442,1.971l1.771-0.201
	L77.865,52.844z"/>
<polygon fill="#FFFFFF" points="44.019,66.635 42.867,66.847 40.847,66.374 39.638,64.902 39.214,63.606 38.802,61.685 
	41.396,61.273 43.478,60.239 43.789,59.704 44.377,59.342 46.395,58.781 46.82,58.369 49.164,57.509 50.037,56.911 50.025,56.087 
	50.71,55.401 52.082,56.537 52.817,58.693 54.662,60.214 53.902,61.885 "/>
<g>
	<g>
		<path fill="#6D736D" d="M52.245,18.206c2.151,1.035,3.48,1.148,4.596,2.683c0.799,1.098,0.852,1.943,1.342,3.445
			c2.627,8.055,6.938,17.161,14.555,20.11c-0.658-0.149,0.327,0.374,0.479,1.033c-0.462,0.077-0.718-0.285-1.26-0.127
			c-0.396,0.705,0.731,0.848,0.873,1.51c-0.065,0-0.409,0.325-0.476,0.325c-0.789-0.089-0.79,0.053-1.321,0.337
			c-0.41-0.115-0.909,0.357-0.038,0.35c-0.101,0.488-0.233,0.478,0.476,0.497c0.128,0,0.133,0.478,0.263,0.478
			c0.541,0.598-0.169,0.823-0.287,1.346c0.76,0.062-0.3,0.363,0.226,0.538c0.063,0,0.349,0.036,0.413,0.036
			c0.603-0.266,0.092,1.155,0.484,0.475c0.609-0.116,0.233,0.634,0.6,0.275c0.969,0.053,4.797-2.96,4.188-2.01
			c-0.722,1.136-1.396,3.039-1.458,3.293c-0.501,2.127-2.815,3.287-5.07,4.096c-1.035,1.069-1.772,2.438-3.83,2.488
			c-2.802,1.236-6.901,2.146-10.533,1.915c-0.762,0.424-2.211,0.973-2.872,0.385c-0.339,0.437-1.5,1.045-1.915,0.766
			c0.997-0.343,1.352-1.329,1.531-2.489c-2.003-1.079-3.901,0.93-4.979,0.958c0.429-0.721,1.018-1.28,1.915-1.532
			c-0.312-1.271,0.625-1.288,0.769-2.104c-1.137-0.245-0.144-1.113,0-1.727c-0.931,0.187-0.444-0.554-0.385-0.957
			c-1.092-0.146-1.873-2.248-0.767-2.872L35.396,32.955l-3.445-2.299c-2.355-1.666-4.913-3.129-7.089-4.98
			c-1.584-0.071-2.899-0.417-3.828-1.146c0.101-0.667,1.15-0.382,0.957-1.341c-2.078,0.196-5.394,0.569-6.703-0.575
			c1.782-1.28,5.182-0.945,6.703-2.489c-3.058-0.066-7.186,0.79-9.574-0.383c2.17-1.725,6.712-1.078,9-2.682
			c-3.558-0.274-7.976,0.312-9.958-1.532c2.288-0.84,5.954-0.302,8.043-1.341c-2.207-1.188-6.466-0.111-8.043-2.299
			c1.871-0.557,4.507-0.346,6.895-0.383c-0.873-1.619-4.266-0.714-4.979-2.489c3.314-0.619,7.438,0.59,10.149,0.573
			c-0.31-1.157-2.103-0.835-2.299-2.105L52.245,18.206z"/>
		<path fill="#6D736D" d="M101.658,43.484c0.396,0.683,0.342,0.72,0.033,1.307c-0.377-0.263-1.31-0.929-1.948-0.923
			c0.354,0.99,2.873,3.291,1.53,5.363c-1.102-0.112-1.496-0.932-2.106-1.534c-0.282,0.809,0.474,3.441-0.381,4.214
			c-2.332-0.029-2.095-2.633-2.491-4.598c-0.581,1.753-0.463,5.424-1.532,7.276c-1.174-0.294-1.465-1.473-1.916-2.487
			c-0.562,1.029-0.238,2.952-1.146,3.639c-1.688-0.354-1.68-2.409-1.914-4.213c-0.83,1.276-0.651,3.562-2.107,4.213
			c-0.771-0.633-1.274-1.534-1.533-2.681c-0.312,0.517-0.749,0.908-1.341,1.147c-1.392-1.762-3.58-1.345-5.936-1.147
			c-0.048-0.273-0.316-0.324-0.386-0.574c0.575-1.91,3.421-3.046,4.787-4.789c0.256,0,0.513,0,0.768,0c0,0.066,0,0.13,0,0.191
			c-0.03,0.222,0.043,0.341,0.189,0.385c0.104-0.154,0.2-0.312,0.19-0.576c0.3-0.438,0.3-1.857,0-2.298
			c-0.173-0.336-0.428-0.592-0.767-0.766c-0.647-0.5-1.431-0.867-2.487-0.96c3.555-1.641,7.336-3.536,12.64-3.639
			c1.417-0.16,4.317,1.03,5.746,1.915C100.104,42.296,101.658,43.484,101.658,43.484z"/>
	</g>
	<g>
		<path fill="#6D736D" d="M51.405,55.423c-0.423,0.979-0.198,2.107-0.535,2.233c-0.101,0.036-0.168,0.123-0.062,0.124
			c0,0-6.141,2.178-8.041,3.029c-0.872,0.39-3.062,0.804-3.429,1.684c-0.191,0.459,0.609,1.883,0.609,1.883
			c0.285,0.979,3.396,2.274,4.149,2.226c-2.572,2.17-5.472-2.27-5.81-3.821c-0.391-1.787,3.814-2.678,5.337-3.441
			c0,0,5.771-2.354,6.783-4.137C50.479,55.073,51.405,55.423,51.405,55.423z"/>
	</g>
</g>
<path d="M79.327,44.976c-0.034-0.312,1.251-0.389,0.956,0.189C79.821,45.246,79.867,44.818,79.327,44.976z"/>
<path fill="#FFFFFF" d="M79.724,46.641c1.165-0.705,2.565-0.763,3.89-0.129c0.574,0.271,0.021,1.619,0.612,1.78
	c2.299-4.285-3.829-5.859-7.021-4.015c-1.098,0.633-5.062-0.075-5.062-0.075c0.922,1.233-1.082,0.68-1.146,0.688
	c0.174,1.093,0.476,1.302,0.005,1.782c0.043,0.207,0.142,0.391,0.298,0.54c-0.366,0.186-0.749,0.312-1.148,0.388
	c0.078,0.54,0.976,0.479,0.19,0.958c0.188,0.484,1.199-0.155,1.341,0.382c0.031,0.642-0.644,0.608-0.766,1.147
	c0.835-0.025,0.15,0.72,0,0.959c0.369-0.142,0.751-0.205,1.146-0.189c0.156,1.368,3.883,1.404,4.569,0.008
	C77.209,49.69,78.608,47.322,79.724,46.641z M80.491,45.876c-1.206,0.979-1.387-0.626-2.301-0.764
	c0.695-1.144,2.228-0.387,3.253-0.574C81.128,44.982,80.809,45.429,80.491,45.876C80.063,46.223,80.491,45.876,80.491,45.876z"/>
</svg>
