<?xml version="1.0" encoding="utf-8"?>
<!-- Generator: Adobe Illustrator 15.1.0, SVG Export Plug-In . SVG Version: 6.00 Build 0)  -->
<!DOCTYPE svg PUBLIC "-//W3C//DTD SVG 1.1//EN" "http://www.w3.org/Graphics/SVG/1.1/DTD/svg11.dtd">
<svg version="1.1" xmlns="http://www.w3.org/2000/svg" xmlns:xlink="http://www.w3.org/1999/xlink" x="0px" y="0px" width="2520px"
	 height="485.691px" viewBox="0 0 2520 485.691" enable-background="new 0 0 2520 485.691" xml:space="preserve">
<g id="Layer_1">
	<polygon fill="#FFFFFF" points="857.025,353.432 1118.357,353.432 1184.275,353.432 1184.275,381.432 857.025,381.432 	"/>
	<rect x="1165.756" y="354.891" opacity="0.3" fill="#808A94" enable-background="new    " width="5.25" height="25.368"/>
	<rect x="1150.006" y="354.891" opacity="0.3" fill="#808A94" enable-background="new    " width="5.25" height="25.368"/>
	<rect x="1134.256" y="354.891" opacity="0.3" fill="#808A94" enable-background="new    " width="5.25" height="25.368"/>
	<rect x="1118.506" y="354.891" opacity="0.3" fill="#808A94" enable-background="new    " width="5.25" height="25.368"/>
	<rect x="1087.006" y="354.891" opacity="0.3" fill="#808A94" enable-background="new    " width="5.25" height="25.368"/>
	<rect x="1071.256" y="354.891" opacity="0.3" fill="#808A94" enable-background="new    " width="5.25" height="25.368"/>
	<rect x="1055.506" y="354.891" opacity="0.3" fill="#808A94" enable-background="new    " width="5.25" height="25.368"/>
	<rect x="1039.756" y="354.891" opacity="0.3" fill="#808A94" enable-background="new    " width="5.25" height="25.368"/>
	<rect x="1024.006" y="354.891" opacity="0.3" fill="#808A94" enable-background="new    " width="5.25" height="25.368"/>
	<rect x="1008.256" y="354.891" opacity="0.3" fill="#808A94" enable-background="new    " width="5.25" height="25.368"/>
	<rect x="992.506" y="354.891" opacity="0.3" fill="#808A94" enable-background="new    " width="5.25" height="25.368"/>
	<rect x="976.756" y="354.891" opacity="0.3" fill="#808A94" enable-background="new    " width="5.25" height="25.368"/>
	<rect x="961.006" y="354.891" opacity="0.3" fill="#808A94" enable-background="new    " width="5.25" height="25.368"/>
	<rect x="945.256" y="354.891" opacity="0.3" fill="#808A94" enable-background="new    " width="5.25" height="25.368"/>
	<rect x="929.506" y="354.891" opacity="0.3" fill="#808A94" enable-background="new    " width="5.25" height="25.368"/>
	<rect x="913.756" y="354.891" opacity="0.3" fill="#808A94" enable-background="new    " width="5.25" height="25.368"/>
	<rect x="882.256" y="354.891" opacity="0.3" fill="#808A94" enable-background="new    " width="5.25" height="25.368"/>
	<path fill="#C0C289" d="M2460.465,9.5c-29.062-11.178-55.891-11.178-89.425-6.707s-133.261,46.429-133.261,46.429
		s-116.67,61.834-141.17,75.834s-80.5,22.168-119,14s-116.668-47.834-214.668-44.334s-149.334,56-168,63s-39.67,9.334-47.834-7
		c-8.166-16.334-38.5-33.834-63-17.5s-92.17,109.666-105,112c-12.832,2.334-26.832-16.333-39.666-18.667
		s-43.166,12.832-50.166,19.833c-7,7-51.336,78.168-71.168,92.168c-19.834,14-35,18.666-35,18.666v39.664l476,23.334l259,11.666
		l603.923-41.238L2520,50.98C2520,50.98,2473.157,14.382,2460.465,9.5z"/>
	<rect x="1102.607" y="340.307" fill="#FFFFFF" width="15.457" height="15.459"/>
	<rect x="898.15" y="340.307" fill="#FFFFFF" width="15.457" height="15.459"/>
	<rect x="1102.756" y="341.182" opacity="0.3" fill="#808A94" enable-background="new    " width="5.25" height="39.077"/>
	<rect x="898.006" y="341.186" opacity="0.3" fill="#808A94" enable-background="new    " width="5.25" height="39.073"/>
	<path fill="#AEB69A" d="M-1.637,106.314c0,0,221.081-20.923,250.247-13.923s47.834,30.332,72.334,32.666
		c24.5,2.334,96.834,5.834,113.167,5.834c16.334,0,30.334,5.832,40.834,8.166s79.334-0.004,88.666,32.666
		c9.334,32.668,28,61.834,58.334,61.834c30.332,0,65.332-32.666,91-31.5c25.666,1.166,49,30.332,56,43.166
		c7,12.834,87.498,98,100.332,107.334s47.834,18.666,54.834,22.166s28,14,35,24.499c7,10.5-194.834,30.334-194.834,30.334
		L458.61,414.39l-460.915-0.406L-1.637,106.314z"/>
	<path opacity="0.1" fill="#606049" enable-background="new    " d="M899.029,402.312c30,0,64.521,3.574,60.08-3.092
		c-7-10.498-28-20.998-35-24.498s-42-12.832-54.834-22.166s-93.332-94.5-100.332-107.334c-7-12.834-30.334-42-56-43.167
		c-3.89-0.177-7.988,0.423-12.254,1.567c0,0,20.218-4.873,43.673,30.023c23.454,34.896,58,98,84.667,128.667
		C842.232,377.496,899.029,402.312,899.029,402.312z"/>
	<polygon fill="#006796" points="-2.304,395.98 954.932,395.768 936.973,380.201 2522.03,380.312 2521.696,486.312 -2.637,486.98 
		-1.304,405.648 	"/>
	<polygon fill="#E8E8E8" points="924.975,374.688 -2.971,374.98 -1.971,370.98 914.775,371.188 924.123,374.688 	"/>
	<polygon fill="#E8E8E8" points="1425.775,362.337 1183.51,362.337 1183.51,360.824 2521.696,360.898 2521.029,362.312 	"/>
	<g>
		<polygon opacity="0.25" fill="#E8E8E8" enable-background="new    " points="1282.049,302.007 1296.213,302.007 1288.688,284.087 
					"/>
		<polygon opacity="0.25" fill="#E8E8E8" enable-background="new    " points="1282.268,301.792 1288.912,291.389 1296.432,301.792 
			1288.912,283.865 		"/>
	</g>
	<g>
		<polygon opacity="0.25" fill="#E8E8E8" enable-background="new    " points="1303.48,319.572 1317.645,319.572 1310.119,301.652 
					"/>
		<polygon opacity="0.25" fill="#E8E8E8" enable-background="new    " points="1303.699,319.357 1310.344,308.953 1317.863,319.357 
			1310.344,301.432 		"/>
	</g>
	<g>
		<polygon opacity="0.25" fill="#E8E8E8" enable-background="new    " points="1349.855,263.009 1364.02,263.009 1356.494,245.087 
					"/>
		<polygon opacity="0.25" fill="#E8E8E8" enable-background="new    " points="1350.074,262.794 1356.719,252.389 1364.238,262.794 
			1356.719,244.867 		"/>
	</g>
	<g>
		<polygon opacity="0.25" fill="#E8E8E8" enable-background="new    " points="1395.875,276.712 1410.039,276.712 1402.514,258.791 
					"/>
		<polygon opacity="0.25" fill="#E8E8E8" enable-background="new    " points="1396.094,276.496 1402.738,266.091 1410.258,276.496 
			1402.738,258.568 		"/>
	</g>
	<g>
		<polygon opacity="0.25" fill="#E8E8E8" enable-background="new    " points="1446.816,287.953 1460.98,287.953 1453.455,270.033 
					"/>
		<polygon opacity="0.25" fill="#E8E8E8" enable-background="new    " points="1447.035,287.738 1453.68,277.333 1461.199,287.738 
			1453.68,269.811 		"/>
	</g>
	<g>
		<polygon opacity="0.25" fill="#E8E8E8" enable-background="new    " points="1560.645,259.146 1574.809,259.146 1567.283,241.227 
					"/>
		<polygon opacity="0.25" fill="#E8E8E8" enable-background="new    " points="1560.863,258.932 1567.508,248.527 1575.027,258.932 
			1567.508,241.004 		"/>
	</g>
	<g>
		<polygon opacity="0.25" fill="#E8E8E8" enable-background="new    " points="1515.678,223.312 1529.842,223.312 1522.316,205.393 
					"/>
		<polygon opacity="0.25" fill="#E8E8E8" enable-background="new    " points="1515.896,223.098 1522.541,212.693 1530.061,223.098 
			1522.541,205.17 		"/>
	</g>
	<g>
		<polygon opacity="0.25" fill="#E8E8E8" enable-background="new    " points="1479.844,246.854 1494.008,246.854 1486.482,228.932 
					"/>
		<polygon opacity="0.25" fill="#E8E8E8" enable-background="new    " points="1480.062,246.637 1486.707,236.232 1494.227,246.637 
			1486.707,228.709 		"/>
	</g>
	<g>
		<polygon opacity="0.25" fill="#E8E8E8" enable-background="new    " points="1465.793,257.393 1479.957,257.393 1472.432,239.473 
					"/>
		<polygon opacity="0.25" fill="#E8E8E8" enable-background="new    " points="1466.012,257.178 1472.656,246.773 1480.176,257.178 
			1472.656,239.252 		"/>
	</g>
	<g>
		<polygon opacity="0.25" fill="#E8E8E8" enable-background="new    " points="1614.752,201.186 1628.916,201.186 1621.389,183.264 
					"/>
		<polygon opacity="0.25" fill="#E8E8E8" enable-background="new    " points="1614.971,200.971 1621.615,190.564 1629.135,200.971 
			1621.615,183.043 		"/>
	</g>
	<g>
		<polygon opacity="0.25" fill="#E8E8E8" enable-background="new    " points="1617.209,178.35 1631.373,178.35 1623.846,160.43 		
			"/>
		<polygon opacity="0.25" fill="#E8E8E8" enable-background="new    " points="1617.428,178.135 1624.072,167.73 1631.592,178.135 
			1624.072,160.207 		"/>
	</g>
	<g>
		<polygon opacity="0.25" fill="#E8E8E8" enable-background="new    " points="1632.666,186.078 1646.83,186.078 1639.303,168.158 
					"/>
		<polygon opacity="0.25" fill="#E8E8E8" enable-background="new    " points="1632.885,185.861 1639.529,175.459 1647.049,185.861 
			1639.529,167.936 		"/>
	</g>
	<g>
		<polygon opacity="0.25" fill="#E8E8E8" enable-background="new    " points="1642.154,197.672 1656.318,197.672 1648.791,179.752 
					"/>
		<polygon opacity="0.25" fill="#E8E8E8" enable-background="new    " points="1642.373,197.455 1649.018,187.053 1656.537,197.455 
			1649.018,179.529 		"/>
	</g>
	<g>
		<polygon opacity="0.25" fill="#E8E8E8" enable-background="new    " points="1720.148,195.566 1734.312,195.566 1726.785,177.646 
					"/>
		<polygon opacity="0.25" fill="#E8E8E8" enable-background="new    " points="1720.367,195.35 1727.012,184.947 1734.531,195.35 
			1727.012,177.424 		"/>
	</g>
	<g>
		<polygon opacity="0.25" fill="#E8E8E8" enable-background="new    " points="1724.014,165.703 1738.178,165.703 1730.65,147.783 
					"/>
		<polygon opacity="0.25" fill="#E8E8E8" enable-background="new    " points="1724.232,165.488 1730.877,155.084 1738.396,165.488 
			1730.877,147.561 		"/>
	</g>
	<g>
		<polygon opacity="0.25" fill="#E8E8E8" enable-background="new    " points="1708.555,180.109 1722.719,180.109 1715.191,162.189 
					"/>
		<polygon opacity="0.25" fill="#E8E8E8" enable-background="new    " points="1708.773,179.895 1715.418,169.49 1722.938,179.895 
			1715.418,161.967 		"/>
	</g>
	<g>
		<polygon opacity="0.25" fill="#E8E8E8" enable-background="new    " points="1795.33,187.135 1809.494,187.135 1801.967,169.213 
					"/>
		<polygon opacity="0.25" fill="#E8E8E8" enable-background="new    " points="1795.549,186.918 1802.193,176.514 1809.713,186.918 
			1802.193,168.99 		"/>
	</g>
	<g>
		<polygon opacity="0.25" fill="#E8E8E8" enable-background="new    " points="1794.273,172.379 1808.438,172.379 1800.912,154.459 
					"/>
		<polygon opacity="0.25" fill="#E8E8E8" enable-background="new    " points="1794.492,172.162 1801.137,161.76 1808.656,172.162 
			1801.137,154.236 		"/>
	</g>
	<g>
		<polygon opacity="0.15" fill="#E8E8E8" enable-background="new    " points="765.502,333.861 779.666,333.861 772.141,315.939 		
			"/>
		<polygon opacity="0.15" fill="#E8E8E8" enable-background="new    " points="765.721,333.645 772.365,323.24 779.885,333.645 
			772.365,315.716 		"/>
	</g>
	<g>
		<polygon opacity="0.15" fill="#E8E8E8" enable-background="new    " points="750.057,323.021 764.221,323.021 756.693,305.102 		
			"/>
		<polygon opacity="0.15" fill="#E8E8E8" enable-background="new    " points="750.275,322.807 756.92,312.402 764.439,322.807 
			756.92,304.878 		"/>
	</g>
	<g>
		<polygon opacity="0.15" fill="#E8E8E8" enable-background="new    " points="722.057,298.521 736.221,298.521 728.693,280.602 		
			"/>
		<polygon opacity="0.15" fill="#E8E8E8" enable-background="new    " points="722.275,298.307 728.92,287.902 736.439,298.307 
			728.92,280.378 		"/>
	</g>
	<g>
		<polygon opacity="0.15" fill="#E8E8E8" enable-background="new    " points="720.307,326.521 734.471,326.521 726.943,308.602 		
			"/>
		<polygon opacity="0.15" fill="#E8E8E8" enable-background="new    " points="720.525,326.307 727.17,315.902 734.689,326.307 
			727.17,308.378 		"/>
	</g>
	<g>
		<polygon opacity="0.15" fill="#E8E8E8" enable-background="new    " points="683.557,298.521 697.721,298.521 690.193,280.602 		
			"/>
		<polygon opacity="0.15" fill="#E8E8E8" enable-background="new    " points="683.775,298.307 690.42,287.902 697.939,298.307 
			690.42,280.378 		"/>
	</g>
	<g>
		<polygon opacity="0.15" fill="#E8E8E8" enable-background="new    " points="746.557,268.771 760.721,268.771 753.193,250.852 		
			"/>
		<polygon opacity="0.15" fill="#E8E8E8" enable-background="new    " points="746.775,268.557 753.42,258.152 760.939,268.557 
			753.42,250.628 		"/>
	</g>
	<g>
		<polygon opacity="0.15" fill="#E8E8E8" enable-background="new    " points="736.057,282.771 750.221,282.771 742.693,264.852 		
			"/>
		<polygon opacity="0.15" fill="#E8E8E8" enable-background="new    " points="736.275,282.557 742.92,272.152 750.439,282.557 
			742.92,264.628 		"/>
	</g>
	<g>
		<polygon opacity="0.15" fill="#E8E8E8" enable-background="new    " points="540.057,267.021 554.221,267.021 546.693,249.102 		
			"/>
		<polygon opacity="0.15" fill="#E8E8E8" enable-background="new    " points="540.275,266.807 546.92,256.402 554.439,266.807 
			546.92,248.878 		"/>
	</g>
	<g>
		<polygon opacity="0.15" fill="#E8E8E8" enable-background="new    " points="524.307,256.521 538.471,256.521 530.943,238.602 		
			"/>
		<polygon opacity="0.15" fill="#E8E8E8" enable-background="new    " points="524.525,256.307 531.17,245.902 538.689,256.307 
			531.17,238.379 		"/>
	</g>
	<g>
		<polygon opacity="0.15" fill="#E8E8E8" enable-background="new    " points="545.307,230.271 559.471,230.271 551.943,212.352 		
			"/>
		<polygon opacity="0.15" fill="#E8E8E8" enable-background="new    " points="545.525,230.057 552.17,219.652 559.689,230.057 
			552.17,212.129 		"/>
	</g>
	<g>
		<polygon opacity="0.15" fill="#E8E8E8" enable-background="new    " points="487.557,218.021 501.721,218.021 494.193,200.102 		
			"/>
		<polygon opacity="0.15" fill="#E8E8E8" enable-background="new    " points="487.775,217.807 494.42,207.402 501.939,217.807 
			494.42,199.879 		"/>
	</g>
	<g>
		<polygon opacity="0.15" fill="#E8E8E8" enable-background="new    " points="473.557,226.771 487.721,226.771 480.193,208.852 		
			"/>
		<polygon opacity="0.15" fill="#E8E8E8" enable-background="new    " points="473.775,226.557 480.42,216.152 487.939,226.557 
			480.42,208.629 		"/>
	</g>
	<g>
		<polygon opacity="0.15" fill="#E8E8E8" enable-background="new    " points="482.307,258.271 496.471,258.271 488.943,240.352 		
			"/>
		<polygon opacity="0.15" fill="#E8E8E8" enable-background="new    " points="482.525,258.057 489.17,247.652 496.689,258.057 
			489.17,240.129 		"/>
	</g>
	<path fill="#E8E8E8" d="M1377.304,356.529h-6.228l-0.047-5.799l1.448-92.191h2.617l2.185,93.691L1377.304,356.529z"/>
	<g>
		<line fill="none" x1="890.668" y1="420.021" x2="910.291" y2="420.021"/>
	</g>
	<polygon opacity="0.5" fill="#BFBDB1" enable-background="new    " points="1375.279,352.73 1374.86,311.48 1374.546,352.48 	"/>
	<path fill="#BFBDB1" d="M1373.114,333.16c0,0-0.308,16.879-0.203,17.488c0.102,0.607,0.508,1.018,0.508,1.018l-0.203-19.521
		L1373.114,333.16z"/>
	<path opacity="0.1" fill="#606049" enable-background="new    " d="M547.529,153.48c0,0,11.75,6.25,14.75,14.75
		s12.75,38.75,26.25,50.25c11.062,9.425,20,14,26,15s-17-0.5-27-6s-25.5-15-30-33s-10.5-36.5-13-40s-2.5-3.5-2.5-3.5L547.529,153.48
		z"/>
	<path opacity="0.1" fill="#606049" enable-background="new    " d="M1382.029,244.646c0,0-8.438,13.451-9.551,13.893
		c-1.115,0.441-2.116,0.441-3.449-2.559s-14.333-16-18.333-20s-10.333-9.333-13.333-9.333s3.666-1.334,11.666,4.333
		s20.667,13,23.667,14s6.411,0.242,6.411,0.242L1382.029,244.646"/>
	<path opacity="0.1" fill="#606049" enable-background="new    " d="M1517.03,128.314c0,0,9,2,18,8.833s12.834,14.667,13.5,16
		s4.833,6.667,10.833,8.5s7.5,1.667,7.5,1.667s-14.333-1.167-20.333-3.833s-16.001-9.166-17.334-13.833s-2-9.167-6-12.5s-7-5-7-5
		L1517.03,128.314z"/>
	<g id="waterfall" display="none">
		<path display="inline" fill="#E8E8E8" d="M1378.764,356.529h-15.719c0,0-5.242-4.715-2.621-6.287s6.83,4.859,7.355,2.238
			c0.522-2.621-2.572-5.979-1-6.5c1.572-0.523,4.25,4.75,4.25,4.75l1.449-92.191h2.616l2.185,93.691c0,0,5.155-6.188,5.155-4.086
			c0,2.098-1.571,0.523,0,2.098c1.57,1.574,5.763-0.521,5.763,1.572c0,2.096-5.238,4.715-5.238,4.715H1378.764z"/>
		<polygon display="inline" opacity="0.5" fill="#BFBDB1" enable-background="new    " points="1375.279,352.73 1374.86,311.48 
			1374.546,352.48 		"/>
		<path display="inline" fill="#BFBDB1" d="M1373.114,333.16c0,0-0.308,16.879-0.203,17.488c0.102,0.607,0.508,1.018,0.508,1.018
			l-0.203-19.521L1373.114,333.16z"/>
	</g>
</g>
<g id="Layer_2" display="none">
	<g display="inline">
		<rect x="1321.777" y="352.52" fill="#FFFFFF" width="17.291" height="6.513"/>
		<circle fill="#414042" cx="1338.073" cy="360.025" r="0.898"/>
		<path fill="#414042" d="M1336.982,360.025c0,0.498-0.398,0.896-0.898,0.896c-0.496,0-0.896-0.398-0.896-0.896
			c0-0.496,0.399-0.898,0.896-0.898C1336.584,359.126,1336.982,359.529,1336.982,360.025z"/>
		<circle fill="#414042" cx="1324.855" cy="360.025" r="0.898"/>
		<circle fill="#414042" cx="1322.676" cy="360.025" r="0.898"/>
		<polygon fill="#FFFFFF" points="1320.045,359.703 1316.518,359.703 1316.518,358.869 1316.646,358.809 1316.646,357.332 
			1317.994,356.498 1318.697,354.251 1321.072,354.251 1321.072,359.703 		"/>
		<path fill="#414042" d="M1318.889,360.025c0,0.498-0.397,0.896-0.895,0.896c-0.5,0-0.9-0.398-0.9-0.896
			c0-0.496,0.4-0.898,0.9-0.898C1318.488,359.126,1318.889,359.529,1318.889,360.025z"/>
		<path fill="#F3732A" d="M1295.912,359.703h-9.699c0,0-0.434-1.021,0.074-1.312c0.51-0.291,1.896-0.512,1.969-0.875
			c0.072-0.357,1.021-2.043,2.26-2.404c1.24-0.359,3.865,0.148,4.375,1.605c0.513,1.455,0.656,1.531,1.097,1.604
			c0.438,0.07,0.729,0.438,0.729,0.875c0,0.438,0,0.438,0,0.438L1295.912,359.703z"/>
		<path fill="#414042" d="M1288.629,360.025c0,0.498-0.4,0.896-0.895,0.896c-0.5,0-0.9-0.398-0.9-0.896c0-0.496,0.4-0.898,0.9-0.898
			C1288.229,359.126,1288.629,359.529,1288.629,360.025z"/>
		<path fill="#414042" d="M1295.701,360.025c0,0.498-0.4,0.896-0.896,0.896c-0.5,0-0.897-0.398-0.897-0.896
			c0-0.496,0.397-0.898,0.897-0.898C1295.301,359.126,1295.701,359.529,1295.701,360.025z"/>
	</g>
</g>
</svg>
