<?xml version="1.0" encoding="utf-8"?>
<!-- Generator: Adobe Illustrator 15.1.0, SVG Export Plug-In  -->
<!DOCTYPE svg PUBLIC "-//W3C//DTD SVG 1.1//EN" "http://www.w3.org/Graphics/SVG/1.1/DTD/svg11.dtd" [
	<!ENTITY ns_flows "http://ns.adobe.com/Flows/1.0/">
]>
<svg version="1.1"
	 xmlns="http://www.w3.org/2000/svg" xmlns:xlink="http://www.w3.org/1999/xlink" xmlns:a="http://ns.adobe.com/AdobeSVGViewerExtensions/3.0/"
	 x="0px" y="0px" width="30px" height="13px" viewBox="0 -1.311 30 13" overflow="visible" enable-background="new 0 -1.311 30 13"
	 xml:space="preserve">
<defs>
</defs>
<path display="none" fill="#E8E8E8" d="M19.074,10.89H3.355c0,0-5.242-4.715-2.621-6.287s6.83,4.859,7.355,2.238
	C8.613,4.22,7.345,0.562,8.917,0.04c1.572-0.523,3.172,4.21,4.333,5.158s2.887,1.944,4.339,1.393s3.873-5.749,5.156-4.086
	c0.241,0.312-0.746,1.784,0,2.098c1.57,1.574,5.762-0.521,5.762,1.572c0,2.096-5.238,4.715-5.238,4.715H19.074z"/>
<path display="none" fill="#E8E8E8" d="M10.217,10.89h14.617c0,0,4.924-4.715,2.357-6.287s-6.687,4.859-7.201,2.238
	c-0.512-2.621,2.519-5.978,0.979-6.5c-1.539-0.523-3.024,3.802-4.161,4.75c-1.137,0.948-4.697,2.052-6.119,1.5
	S6.897,0.842,5.641,2.505c-0.236,0.312,0.73,1.784,0,2.098C4.104,6.177,0,4.081,0,6.175c0,2.096,5.128,4.715,5.128,4.715H10.217z"/>
<path fill="#E8E8E8" d="M10.217,10.89h14.617c0,0,4.15-3.653,1.583-5.226s-5.913,3.798-6.427,1.177
	c-0.512-2.621,1.3-3.32-0.24-3.843c-1.539-0.523-1.806,1.145-2.942,2.093c-1.137,0.948-2.927,1.709-4.35,1.157S9.256,0.668,8,2.331
	C7.764,2.644,6.371,4.289,5.641,4.603C4.104,6.177,1,4.081,1,6.175c0,2.096,4.128,4.715,4.128,4.715H10.217z"/>
</svg>
