<?xml version="1.0" encoding="utf-8"?>
<!-- Generator: Adobe Illustrator 15.0.2, SVG Export Plug-In . SVG Version: 6.00 Build 0)  -->
<!DOCTYPE svg PUBLIC "-//W3C//DTD SVG 1.1//EN" "http://www.w3.org/Graphics/SVG/1.1/DTD/svg11.dtd">
<svg version="1.1" id="sky" xmlns="http://www.w3.org/2000/svg" xmlns:xlink="http://www.w3.org/1999/xlink" x="0px" y="0px"
	 width="1306.715px" height="278.823px" viewBox="0 0 1306.715 278.823" enable-background="new 0 0 1306.715 278.823"
	 xml:space="preserve">
<g>
	<path opacity="0.7" fill="#FFFFFF" d="M69.477,147.178c16.309-6.983,53.666-11.67,70-11.67s21.002-2.33,30.334-11.664
		c9.334-9.336,2.336-28,42-28c39.666,0,58.334,6.996,65.334-2.336c7-9.33,67.668-97.996,158.666-93.33
		c91,4.666,109.668,28,123.668,46.666c14,18.664,21,25.668,42,23.334s28-37.338,63-32.67c35,4.67,62.996,21,72.332,35
		c9.334,14,116.668,25.67,130.668,11.67s109.662-44.332,170.332-35c60.668,9.33,77,30.334,98,28s83.074,18.121,105,35
		c28.261,21.756,77.734,92.376,63.33,127.834c-13,32-95.996,30.832-95.996,30.832s-1014.004,4.168-1192.334-2.336
		C-17.334,267.299,2.141,176.012,69.477,147.178z"/>
	<path fill="#FFFFFF" d="M111.479,161.762c0,0,24.5-5.25,40.25-5.25s28-1.75,29.75-7s-4.117-30.332,39.668-30.332
		c21,0,59.389,14.633,93.332-2.334c9.334-4.666,7.82-33.346,42-51.334c44.334-23.332,65.141-21.305,98-14
		c21,4.668,36.75,28,43.75,26.25s25.084-8.75,44.918-7.582c18.637,1.098,38.5,22.166,47.832,43.166
		c5.729,12.893,16.334,29.166,49,20.416c6.762-1.812,21-34.416,64.75-21c19.514,5.98,31.5,29.75,40.25,31.5
		s8.168-25.082,68.25-12.25c32.152,6.867,47.25,26.834,47.25,26.834s91-39.666,98,25.666c3.186,29.732-54.726,76.271-83.338,79.5
		c-195,22-581.993,17.657-772-1c-14.931-1.466-66.477,5.301-67-9C33.141,172.012,111.479,161.762,111.479,161.762"/>
</g>
</svg>
