<?xml version="1.0" encoding="utf-8"?>
<!-- Generator: Adobe Illustrator 15.0.2, SVG Export Plug-In . SVG Version: 6.00 Build 0)  -->
<!DOCTYPE svg PUBLIC "-//W3C//DTD SVG 1.1//EN" "http://www.w3.org/Graphics/SVG/1.1/DTD/svg11.dtd">
<svg version="1.1" id="Layer_1" xmlns="http://www.w3.org/2000/svg" xmlns:xlink="http://www.w3.org/1999/xlink" x="0px" y="0px"
	 width="2520px" height="317.799px" viewBox="0 0 2520 317.799" enable-background="new 0 0 2520 317.799" xml:space="preserve">
<g id="hill">
</g>
<path fill="#87AA5A" d="M0.582,14.463c0,0,119.365,32.727,266.002,51.33c312.668,39.67,591.584,149.606,782.916,177.606
	c191.33,28,308.5,74.398,308.5,74.398H0.582V14.463z"/>
<g>
	<polyline fill="#5F7D43" points="35.008,137.084 67.781,28 105.941,137.084 	"/>
	<g>
		<polygon opacity="0.15" fill="#E8E8E8" enable-background="new    " points="34.018,136.609 104.406,136.609 67.014,29.693 		"/>
		<polygon opacity="0.15" fill="#E8E8E8" enable-background="new    " points="35.104,135.332 68.111,73.258 105.502,135.332 
			68.111,28.373 		"/>
	</g>
</g>
<g>
	<polyline fill="#5F7D43" points="407.758,154.584 440.531,45.5 478.691,154.584 	"/>
	<g>
		<polygon opacity="0.15" fill="#E8E8E8" enable-background="new    " points="406.768,154.109 477.156,154.109 439.764,47.193 		
			"/>
		<polygon opacity="0.15" fill="#E8E8E8" enable-background="new    " points="407.853,152.832 440.861,90.758 478.252,152.832 
			440.861,45.873 		"/>
	</g>
</g>
<g>
	<polyline fill="#5F7D43" points="304.508,151.084 337.281,42 375.441,151.084 	"/>
	<g>
		<polygon opacity="0.15" fill="#E8E8E8" enable-background="new    " points="303.518,150.609 373.906,150.609 336.514,43.693 		
			"/>
		<polygon opacity="0.15" fill="#E8E8E8" enable-background="new    " points="304.604,149.332 337.611,87.258 375.002,149.332 
			337.611,42.373 		"/>
	</g>
</g>
<g>
	<polyline fill="#5F7D43" points="379.406,105.5 400.588,35 425.25,105.5 	"/>
	<g>
		<polygon opacity="0.15" fill="#E8E8E8" enable-background="new    " points="378.768,105.191 424.258,105.191 400.092,36.094 		
			"/>
		<polygon opacity="0.15" fill="#E8E8E8" enable-background="new    " points="379.469,104.365 400.801,64.248 424.967,104.365 
			400.801,35.24 		"/>
	</g>
</g>
<g>
	<polyline fill="#5F7D43" points="83.387,68.439 103.947,0 127.889,68.439 	"/>
	<g>
		<polygon opacity="0.15" fill="#E8E8E8" enable-background="new    " points="82.766,68.141 126.924,68.141 103.467,1.064 		"/>
		<polygon opacity="0.15" fill="#E8E8E8" enable-background="new    " points="83.447,67.338 104.156,28.393 127.613,67.338 
			104.156,0.232 		"/>
	</g>
</g>
<g>
	<polyline fill="#5F7D43" points="155.709,113.016 188.484,3.932 226.645,113.016 	"/>
	<g>
		<polygon opacity="0.15" fill="#E8E8E8" enable-background="new    " points="154.719,112.541 225.107,112.541 187.715,5.623 		"/>
		<polygon opacity="0.15" fill="#E8E8E8" enable-background="new    " points="155.807,111.262 188.814,49.189 226.205,111.262 
			188.814,4.303 		"/>
	</g>
</g>
<rect y="267.631" fill="#606049" width="143.5" height="10.5"/>
<polygon fill="#FEEA9E" points="76.43,197.438 234.082,197.033 234.207,278.123 76.033,278.123 "/>
<polygon fill="#B3966D" points="191.934,131.275 214.535,117.414 264.268,117.414 264.268,181.289 191.934,181.289 "/>
<polygon fill="#606049" points="68.266,220.222 85.922,143.959 218.672,143.959 242.682,220.222 "/>
<polygon fill="#606049" points="245.305,135.209 225.18,118.146 206.805,135.209 187.844,135.209 201.848,98.428 275.879,98.428 
	286.43,135.209 "/>
<polygon fill="#E1BF23" points="234.207,278.123 234.207,218.104 214.436,150.312 196.076,218.81 196.076,278.123 "/>
<polygon fill="#917757" points="261.205,135.209 272.285,104.584 280.598,135.209 280.598,181.289 261.205,181.289 "/>
<rect x="245.592" y="150.668" fill="#606049" width="11.658" height="16.916"/>
<rect x="266.119" y="150.668" fill="#606049" width="9.689" height="16.916"/>
<rect x="150.871" y="227.99" fill="#606049" width="33.172" height="37.422"/>
<rect x="216.541" y="227.99" fill="#606049" width="10.58" height="50.133"/>
<rect x="81.67" y="227.99" fill="#606049" width="19.762" height="37.422"/>
<path fill="#87AA5A" d="M2520,317.799h-667.418c0,0,57.61-27.737,151.684-44.477c94.074-16.738,231.213-82.459,384.946-106.175
	C2461.311,156.027,2520,136.462,2520,136.462V317.799z"/>
<path fill="#DADCD7" d="M2211.5,314.198c0,0-119-21.212-119-47.399c0-39.816,291.364-64.133,291.364-64.133
	s-233.534,30.682-233.534,57.335c0,24.748,268.742,57.798,268.742,57.798h-297.179L2211.5,314.198z"/>
<g>
	<rect x="2203" y="106.478" fill="#6D736D" width="197.828" height="137.597"/>
	<rect x="2203" y="210.843" fill="#DCC847" width="197.828" height="33.231"/>
	<rect x="2203" y="98.69" fill="#DCC847" width="197.828" height="106.962"/>
	<polygon opacity="0.1" fill="#FFFFFF" points="2400.828,98.69 2400.828,243.553 2203,243.553 	"/>
	<rect x="2400.307" y="98.69" fill="#6D736D" width="32.193" height="145.384"/>
	<polygon opacity="0.1" fill="#FFFFFF" points="2400.828,98.69 2400.828,243.553 2430.94,243.553 	"/>
	<rect x="2211.826" y="164.995" opacity="0.75" fill="#FFFFFF" width="20.77" height="37.906"/>
	<rect x="2362.922" y="161.882" fill="#6D736D" width="20.771" height="37.905"/>
	<rect x="2211.826" y="134.366" fill="#6D736D" width="57.116" height="25.96"/>
	<rect x="2272.573" y="134.366" fill="#6D736D" width="57.122" height="25.96"/>
	<rect x="2332.287" y="134.366" opacity="0.75" fill="#FFFFFF" width="18.174" height="25.96"/>
	<rect x="2298.018" y="104.248" opacity="0.75" fill="#FFFFFF" width="18.173" height="25.961"/>
	<rect x="2337.999" y="104.248" fill="#6D736D" width="57.116" height="25.961"/>
	<rect x="2237.791" y="104.248" fill="#6D736D" width="57.112" height="25.961"/>
</g>
<g>
	
		<ellipse transform="matrix(0.9868 0.1617 -0.1617 0.9868 75.2712 -351.4362)" fill="none" stroke="#606049" stroke-width="3.5" cx="2196.937" cy="286.765" rx="7.438" ry="11.594"/>
	
		<ellipse transform="matrix(0.9868 0.1617 -0.1617 0.9868 73.5918 -346.1494)" fill="none" stroke="#606049" stroke-width="3.5" cx="2163.615" cy="279.089" rx="7.438" ry="11.593"/>
	<polyline fill="none" stroke="#606049" stroke-width="3.5" points="2174.393,262.014 2182.145,282.347 2163.934,277.146 
		2173.451,259.643 2193.46,264.694 2196.938,286.766 	"/>
	<line fill="none" stroke="#606049" stroke-width="3.5" x1="2193.46" y1="264.694" x2="2182.145" y2="282.347"/>
	
		<ellipse transform="matrix(0.9868 0.1617 -0.1617 0.9868 68.7578 -351.8615)" fill="#606049" cx="2196.431" cy="246.56" rx="4.156" ry="4.376"/>
	<polyline fill="#606049" points="2182.647,281.986 2184.338,268.963 2181.506,259.188 2189.482,256.506 2195.046,265.84 
		2198.783,264.679 2189.885,245.932 2172.07,254.54 2170.358,259.579 2177.5,267.399 	"/>
	<path fill="#606049" d="M2178.037,253.3c-2.817-4.451-0.461-10.716,4.932-11.161c5.394-0.446,6.774,4.656,6.774,4.656
		S2180.854,257.751,2178.037,253.3z"/>
</g>
</svg>
