<?xml version="1.0" encoding="utf-8"?>
<!-- Generator: Adobe Illustrator 15.0.2, SVG Export Plug-In . SVG Version: 6.00 Build 0)  -->
<!DOCTYPE svg PUBLIC "-//W3C//DTD SVG 1.1//EN" "http://www.w3.org/Graphics/SVG/1.1/DTD/svg11.dtd">
<svg version="1.1" id="Layer_1" xmlns="http://www.w3.org/2000/svg" xmlns:xlink="http://www.w3.org/1999/xlink" x="0px" y="0px"
	 width="2520px" height="400.037px" viewBox="0 0 2520 400.037" enable-background="new 0 0 2520 400.037" xml:space="preserve">
<g id="background_1_">
</g>
<g id="bridge">
</g>
<g id="hills_back">
</g>
<polygon fill="#006796" points="1.686,232.037 2521.686,232.371 2521.686,400.037 1.686,400.037 "/>
<path opacity="0.5" fill="#606049" enable-background="new    " d="M1891.436-213.731l-376.518-17.98h-194.25h-313.25
	l-139.125,2.334l-0.875-10.5c0,0,77.875,6.125,133-19.834c19.131-9.01,43.75-40.25,43.75-40.25h12.25c0,0,19.25,49.584,101.5,53.084
	s100.625-2.625,134.75-19.834c11.27-5.682,26.25-33.25,26.25-33.25h10.5c0,0,14,35,50.75,45.5s103.25,3.5,103.25,3.5l7,10.5
	l402.518,19.73L1891.436-213.731z"/>
<g>
	<polygon opacity="0.5" fill="#606049" enable-background="new    " points="1344.005,250.623 1354.437,216.748 1368.498,216.685 
		1380.755,250.623 	"/>
	<rect x="1334.091" y="251.207" fill="#BFBDB1" width="57.75" height="8.75"/>
</g>
<g>
	<polygon opacity="0.5" fill="#606049" enable-background="new    " points="1575.186,250.623 1585.617,216.748 1599.679,216.685 
		1611.936,250.623 	"/>
	<rect x="1565.271" y="251.207" fill="#BFBDB1" width="57.75" height="8.75"/>
</g>
<g>
	<polygon opacity="0.5" fill="#606049" enable-background="new    " points="1085.898,250.873 1096.541,216.989 1110.447,217.021 
		1122.648,250.873 	"/>
	<rect x="1075.982" y="251.457" fill="#BFBDB1" width="57.75" height="8.75"/>
</g>
<polygon opacity="0.2" fill="#FFFFFF" enable-background="new    " points="1040.436,-231.7 1027.967,-281.669 1030.842,-284.606 
	1043.905,-231.731 "/>
<path opacity="0.5" fill="#606049" enable-background="new    " d="M1982.916,225.768l-374.98-18.381
	c-13.669-15.408-65.317-30.873-126.952-30.873c-36.638,0-69.739,8.056-93.439,14.578l-17.228-51.329l-6.836,0.168v59.813
	c-21.51-11.404-65.59-23.229-116.498-23.229c-0.168,0-0.334,0.001-0.5,0.002c-0.168,0-0.334-0.002-0.501-0.002
	c-50.135,0-93.646,11.59-115.501,22.712V139.93l-6.836-0.168l-17.333,51.577c-23.758-6.667-57.231-14.825-94.331-14.825
	c-72.073,0-130.5,19.674-130.5,39.004h10.5h204h19.501h1.001h13.998h12h208.003h12.997h13.001h1.001h20.498h196.5h17.003
	c0-0.14-0.014-0.278-0.02-0.417l369.952,17.667L1982.916,225.768z"/>
<polygon opacity="0.2" fill="#FFFFFF" enable-background="new    " points="1059.717,-231.7 1056.092,-231.731 1068.729,-281.307 
	1072.12,-280.443 "/>
<polygon opacity="0.2" fill="#FFFFFF" enable-background="new    " points="1315.999,-231.731 1305.249,-278.794 1308.03,-282.544 
	1319.592,-231.763 "/>
<polygon opacity="0.2" fill="#FFFFFF" enable-background="new    " points="1333.311,-231.7 1329.936,-231.7 1341.155,-280.919 
	1343.905,-277.763 "/>
<path fill="#BFBDB1" d="M1646.168,248.953l875.518,0.668V107.144V47.746c0,0-1.852,0.016-2.752,0.046
	c-44.041,1.5-47.424,38.849-79.434,38.849c-32.666,0-107.332-57.289-149.332-42.969c-42,14.322-142.332,83.549-182,81.16
	s-107.332-4.777-140,19.094c-32.668,23.871-67.666,78.773-126,81.158c-58.334,2.388-123.668,0-142.334,0
	S1646.168,248.953,1646.168,248.953z"/>
<path fill="#BFBDB1" d="M964.836,247.5c0,0-207.086-119.879-265.418-140.879s-102.082-7.584-148.75-7.584
	S485.334,110.705,448,96.705c-37.332-14-100.332-65.33-149.332-63c-49,2.332-123.668,37.332-156.334,18.666S77,3.367,44.334,1.037
	C11.668-1.295,1.686,4.144,1.686,4.144v240.728L964.836,247.5z"/>
<path fill="#E8E8E8" d="M475.418,197.621v-2.916h56.477v-15.168h61.9v23.334h17.971v-29.949H653.7v15.152h27.955v31.131h39.938
	v-47.168h7.986v16.834v16.633h26.955v8.838h13.979v-14.865c0,0,2.994,0.133,11.482,0.133c8.486,0,13.477-0.133,13.477-0.133v18.234
	h14.479v4.994h35.94v-12.679h17.474l7.488,11.117l-4.992-0.031v6.173h52.213v18.754h57.416l14.426,0.291v13.707h-324.33
	L475.418,197.621z"/>
<polygon opacity="0.5" fill="#E1BF23" enable-background="new    " points="845.98,246.039 854.877,246.039 854.877,221.101 
	845.98,210.308 "/>
<rect x="854.855" y="221.103" fill="#E1BF23" width="10.959" height="24.938"/>
<rect x="748.857" y="217.746" opacity="0.5" fill="#606049" enable-background="new    " width="6.123" height="6.709"/>
<rect x="827.898" y="228.83" opacity="0.5" fill="#606049" enable-background="new    " width="6.123" height="6.709"/>
<rect x="857.639" y="224.164" opacity="0.5" fill="#606049" enable-background="new    " width="6.123" height="6.711"/>
<rect x="739.523" y="225.914" opacity="0.5" fill="#606049" enable-background="new    " width="6.123" height="6.711"/>
<rect x="654.064" y="193.246" opacity="0.5" fill="#606049" enable-background="new    " width="6.123" height="6.709"/>
<rect x="657.564" y="201.996" opacity="0.5" fill="#606049" enable-background="new    " width="6.123" height="6.709"/>
<rect x="615.564" y="190.621" opacity="0.5" fill="#606049" enable-background="new    " width="6.123" height="6.709"/>
<path opacity="0.2" fill="#FFFFFF" enable-background="new    " d="M1477.739,212.629l-35.497-33.311
	c-3.47,0.484-6.865,1.021-10.204,1.593l-35.652,33.457l1.097,1.15h0.498h2.251l37.757-35.396l37.758,35.396h3.986l39.258-36.802
	l39.257,36.802h2.749l1.097-1.15l-37.55-35.238c-3.265-0.398-6.587-0.757-9.965-1.071L1477.739,212.629z"/>
<path opacity="0.2" fill="#FFFFFF" enable-background="new    " d="M1240.555,212.629l-35.497-33.311
	c-3.47,0.484-6.865,1.021-10.204,1.593l-35.652,33.457l1.097,1.15h0.498h2.251l37.757-35.396l37.758,35.396h3.986l39.258-36.802
	l39.257,36.802h2.749l1.097-1.15l-37.55-35.238c-3.265-0.398-6.587-0.757-9.965-1.071L1240.555,212.629z"/>
<path opacity="0.2" fill="#FFFFFF" enable-background="new    " d="M1003.054,212.629l-35.497-33.311
	c-3.47,0.484-6.865,1.021-10.204,1.593L921.7,214.367l1.097,1.15h0.498h2.251l37.757-35.396l37.758,35.396h3.986l39.258-36.802
	l39.257,36.802h2.749l1.097-1.15l-37.55-35.238c-3.265-0.398-6.587-0.757-9.965-1.071L1003.054,212.629z"/>
<rect x="615.564" y="200.246" opacity="0.5" fill="#606049" enable-background="new    " width="6.123" height="6.709"/>
<rect x="611.336" y="172.914" fill="#FFFFFF" width="30.771" height="52.125"/>
<rect x="807.92" y="222.125" fill="#FFFFFF" width="38.021" height="3.5"/>
<rect x="717.42" y="246.042" fill="#FFFFFF" width="271.77" height="3.5"/>
<rect x="680.752" y="216.204" fill="#FFFFFF" width="36.604" height="43.25"/>
<rect x="770.877" y="199.517" fill="#FFFFFF" width="13.416" height="25.812"/>
<rect x="757.461" y="214.587" fill="#FFFFFF" width="13.414" height="10.723"/>
<polygon fill="#E8E8E8" points="504.436,205.183 504.436,174.269 491.936,187.269 491.936,201.254 491.186,201.019 487.811,201.819 
	487.811,196.769 436.811,196.769 436.936,197.394 436.936,213.883 369.436,229.89 369.436,212.269 355.436,212.269 355.436,201.519 
	322.686,201.519 322.686,220.269 311.436,220.269 311.405,243.55 311.835,243.549 311.436,243.644 311.561,243.519 1.686,243.519 
	1.686,260.037 452.686,260.037 511.186,260.037 665.586,260.037 666.186,256.019 "/>
<rect x="719.836" y="172.021" fill="#FFFFFF" width="5.102" height="52.438"/>
<rect x="531.898" y="179.539" fill="#FFFFFF" width="35.104" height="32.666"/>
<rect x="775.59" y="217.751" fill="#FDB813" width="19.896" height="28.271"/>
<rect x="872.375" y="228.976" opacity="0.6" fill="#E1BF23" enable-background="new    " width="44.92" height="17.062"/>
<rect x="778.314" y="225.914" opacity="0.5" fill="#606049" enable-background="new    " width="6.123" height="6.711"/>
<rect x="795.48" y="217.735" fill="#F3732A" width="14.459" height="28.304"/>
<rect x="750.168" y="234.955" opacity="0.6" fill="#606049" enable-background="new    " width="25.418" height="5.834"/>
<rect x="872.459" y="239.037" opacity="0.6" fill="#606049" enable-background="new    " width="44.729" height="5.834"/>
<rect x="322.898" y="202.539" fill="#FFFFFF" width="30.104" height="32.666"/>
<rect x="356.314" y="214.996" opacity="0.5" fill="#606049" enable-background="new    " width="6.122" height="6.709"/>
<rect x="313.564" y="222.996" opacity="0.5" fill="#606049" enable-background="new    " width="6.122" height="6.709"/>
<polygon fill="#FDB813" points="367.436,237.769 367.436,216.019 381.186,216.019 381.186,213.269 386.436,213.269 412.936,213.269 
	412.936,216.269 412.936,237.769 "/>
<rect x="412.936" y="213.269" fill="#F3732A" width="6" height="24.469"/>
<rect x="369.939" y="224.871" opacity="0.5" fill="#606049" enable-background="new    " width="6.122" height="6.709"/>
<rect x="377.189" y="224.871" opacity="0.5" fill="#606049" enable-background="new    " width="6.122" height="6.709"/>
<rect x="384.439" y="224.871" opacity="0.5" fill="#606049" enable-background="new    " width="6.122" height="6.709"/>
<rect x="438.148" y="197.789" fill="#FFFFFF" width="13.854" height="32.666"/>
<rect x="452.668" y="216.455" opacity="0.6" fill="#606049" enable-background="new    " width="48.418" height="5.834"/>
<rect x="311.42" y="237.417" fill="#FFFFFF" width="271.771" height="3.5"/>
<rect x="515.357" y="207.746" opacity="0.5" fill="#606049" enable-background="new    " width="6.123" height="6.709"/>
<rect x="506.023" y="215.914" opacity="0.5" fill="#606049" enable-background="new    " width="6.123" height="6.711"/>
</svg>
