<?xml version="1.0" encoding="utf-8"?>
<!-- Generator: Adobe Illustrator 15.1.0, SVG Export Plug-In . SVG Version: 6.00 Build 0)  -->
<!DOCTYPE svg PUBLIC "-//W3C//DTD SVG 1.1//EN" "http://www.w3.org/Graphics/SVG/1.1/DTD/svg11.dtd">
<svg version="1.1" id="Layer_1" xmlns="http://www.w3.org/2000/svg" xmlns:xlink="http://www.w3.org/1999/xlink" x="0px" y="0px"
	 width="35px" height="65.83px" viewBox="0 0 35 65.83" enable-background="new 0 0 35 65.83" xml:space="preserve">
<g>
	<path fill="#FF9700" d="M35,48.33c0,9.67-7.83,17.5-17.5,17.5S0,58,0,48.33c0-2.391,0.479-4.671,1.35-6.75H1.33L17.5,0L33.66,41.58
		h-0.011C34.52,43.659,35,45.939,35,48.33z"/>
	<path fill="#FFC81F" d="M23.998,45.646h0.004L17.5,28.916l-6.506,16.73h0.008c-0.352,0.838-0.543,1.755-0.543,2.716
		c0,3.891,3.15,7.042,7.041,7.042c3.892,0,7.043-3.151,7.043-7.042C24.541,47.4,24.349,46.483,23.998,45.646z"/>
</g>
</svg>
