<?xml version="1.0" encoding="utf-8"?>
<!-- Generator: Adobe Illustrator 15.0.2, SVG Export Plug-In . SVG Version: 6.00 Build 0)  -->
<!DOCTYPE svg PUBLIC "-//W3C//DTD SVG 1.1//EN" "http://www.w3.org/Graphics/SVG/1.1/DTD/svg11.dtd">
<svg version="1.1" id="balloons" xmlns="http://www.w3.org/2000/svg" xmlns:xlink="http://www.w3.org/1999/xlink" x="0px" y="0px"
	 width="214.941px" height="180.689px" viewBox="0 0 214.941 180.689" enable-background="new 0 0 214.941 180.689"
	 xml:space="preserve">
<g>
	<polygon fill="#EBCC2D" points="34.479,161.877 47.367,161.877 49.125,149.627 32.428,149.627 	"/>
	<path fill="#EBCC2D" d="M32.137,149.627c0,0-38.281-35-31.281-60.812S31.48,62.127,36.293,62.127s4.812,0,4.812,0v87.938
		L32.137,149.627z"/>
	<path fill="#EBCC2D" d="M49.219,149.627c0,0,38.281-35,31.281-60.812S49.875,62.127,45.062,62.127s-4.812,0-4.812,0v87.938
		L49.219,149.627z"/>
	<polygon fill="#606049" points="47.449,171.502 35.199,171.502 36.512,180.689 46.793,180.689 	"/>
	<path fill="#006796" d="M41.105,62.127c-3.938-0.188-12.906,15.969-11.812,40.031c0.938,20.559,10.281,47.469,10.281,47.469h3.719
		c0,0,7.219-26.469,7.875-50.094S45.699,62.346,41.105,62.127z"/>
	<path fill="#006796" d="M34.98,62.346c0,0-14.875,8.094-17.5,32.375c-2.059,19.045,7.438,40.031,12.031,46.594
		s6.125,8.312,6.125,8.312h-1.531c0,0-20.562-19.469-26.031-43.969c-4.832-21.65,8.531-36.094,14.875-39.812
		S34.98,62.346,34.98,62.346z"/>
	<path fill="#006796" d="M45.98,62.346c0,0,14.875,8.094,17.5,32.375c2.057,19.045-7.438,40.031-12.031,46.594
		s-6.125,8.312-6.125,8.312h1.531c0,0,20.562-19.469,26.031-43.969c4.832-21.65-8.531-36.094-14.875-39.812
		S45.98,62.346,45.98,62.346z"/>
	<polygon fill="#FBAE18" points="151.037,135.826 168.59,135.826 170.98,119.145 148.246,119.145 	"/>
	<path fill="#FBAE18" d="M147.852,119.145c0,0-52.127-47.656-42.594-82.803c9.531-35.146,41.699-36.34,48.25-36.34
		c6.557,0,6.557,0,6.557,0V119.74L147.852,119.145z"/>
	<path fill="#FBAE18" d="M171.111,119.145c0,0,52.123-47.656,42.592-82.803c-9.529-35.146-41.695-36.34-48.252-36.34
		c-6.553,0-6.553,0-6.553,0V119.74L171.111,119.145z"/>
	<polygon fill="#606049" points="168.699,148.93 152.02,148.93 153.807,161.439 167.807,161.439 	"/>
	<path fill="#F3732A" d="M160.064,0.002c-5.363-0.254-17.576,21.744-16.088,54.508c1.277,27.996,14,64.635,14,64.635h5.062
		c0,0,9.832-36.039,10.725-68.209C174.66,18.768,166.316,0.301,160.064,0.002z"/>
	<path fill="#F3732A" d="M151.725,0.301c0,0-20.258,11.02-23.83,44.084c-2.803,25.93,10.127,54.506,16.383,63.441
		c6.254,8.936,8.336,11.318,8.336,11.318h-2.082c0,0-28-26.51-35.443-59.869c-6.584-29.48,11.617-49.146,20.254-54.209
		C143.977,0.002,151.725,0.301,151.725,0.301z"/>
	<path fill="#F3732A" d="M166.699,0.301c0,0,20.254,11.02,23.83,44.084c2.799,25.93-10.127,54.506-16.383,63.441
		s-8.34,11.318-8.34,11.318h2.084c0,0,27.998-26.51,35.445-59.869c6.58-29.48-11.613-49.146-20.254-54.209
		C174.443,0.002,166.699,0.301,166.699,0.301z"/>
	<polygon fill="#00B6D2" points="106.238,163.195 112.93,163.195 113.84,156.838 105.172,156.838 	"/>
	<path fill="#00B6D2" d="M113.891,156.838c0,0,19.865-18.166,16.229-31.562c-3.633-13.396-15.889-13.852-18.385-13.852
		c-2.502,0-2.502,0-2.502,0v45.641L113.891,156.838z"/>
	<path fill="#00B6D2" d="M105.777,156.838c0,0-19.865-18.166-16.229-31.562c3.633-13.396,15.889-13.852,18.385-13.852
		c2.502,0,2.502,0,2.502,0v45.641L105.777,156.838z"/>
	<polygon fill="#606049" points="112.965,168.189 106.611,168.189 107.295,172.959 112.627,172.959 	"/>
	<path opacity="0.2" fill="#606049" d="M206.381,20.521c0,0,4.598,15.783-0.451,33.992c-6.303,22.736-23.635,43.895-46.371,47.498
		c-19.34,3.064-38.268-13.057-38.268-13.057s9.002,12.156,20.936,25.213c3.441,3.766,5.625,4.977,5.625,4.977l3.186,16.682h17.553
		l2.521-16.682c0,0,17.039-16.457,27.393-31.541c10.352-15.082,16.691-30.838,16.43-44.119
		C214.711,32.229,206.381,20.521,206.381,20.521z"/>
	<path opacity="0.2" fill="#606049" d="M74.98,78.137c0,0,3.33,11.525-0.324,24.82c-4.557,16.6-17.086,32.049-33.527,34.68
		c-13.979,2.236-27.664-9.535-27.664-9.535s6.508,8.875,15.135,18.41c2.49,2.75,4.066,3.635,4.066,3.635l2.301,12.178h12.688
		l1.826-12.178c0,0,12.316-12.018,19.803-23.031c7.486-11.01,12.072-22.514,11.877-32.213C81,86.686,74.98,78.137,74.98,78.137z"/>
	<path opacity="0.2" fill="#606049" d="M127.383,119.395c0,0,1.732,6.01-0.164,12.941c-2.387,8.654-8.918,16.709-17.488,18.08
		c-7.285,1.17-14.422-4.969-14.422-4.969s3.391,4.625,7.887,9.598c1.303,1.432,2.123,1.895,2.123,1.895l1.201,6.35h6.613l0.953-6.35
		c0,0,6.422-6.266,10.322-12.008c3.906-5.738,6.295-11.736,6.197-16.795C130.516,123.852,127.383,119.395,127.383,119.395z"/>
</g>
</svg>
