<?xml version="1.0" encoding="utf-8"?>
<!-- Generator: Adobe Illustrator 15.0.2, SVG Export Plug-In . SVG Version: 6.00 Build 0)  -->
<!DOCTYPE svg PUBLIC "-//W3C//DTD SVG 1.1//EN" "http://www.w3.org/Graphics/SVG/1.1/DTD/svg11.dtd">
<svg version="1.1" id="hills1" xmlns="http://www.w3.org/2000/svg" xmlns:xlink="http://www.w3.org/1999/xlink" x="0px" y="0px"
	 width="2334.545px" height="214.287px" viewBox="0 0 2334.545 214.287" enable-background="new 0 0 2334.545 214.287"
	 xml:space="preserve">
<g>
	<path opacity="0.5" fill="#5F7D43" d="M910.336,27.662c0,0-1.457-2.551-1.457-8.969s2.334-12.834,3.5-15.168
		c1.164-2.332,5.25-4.664,7.582-2.914s4.084,7.582,4.668,11.082c0.582,3.5,0,3.5,2.332,7s3.498,3.502,2.332,6.418
		c-1.164,2.914-1.676,6.051-1.676,6.051L910.336,27.662z"/>
	<path opacity="0.5" fill="#5F7D43" d="M932.867,31.818c0-2.334-0.072-12.543,5.762-12.543c5.832,0,8.164,7,7.582,9.334
		s-2.188,5.396-2.188,5.396L932.867,31.818z"/>
	<path opacity="0.5" fill="#5F7D43" d="M877.086,22.85c1.312-2.844,0.385-11.391,6.217-11.391c5.834,0,8.166,6.998,7.584,9.332
		c-0.584,2.336-1.551,3.809-1.551,3.809L877.086,22.85z"/>
	<path opacity="0.5" fill="#5F7D43" d="M865.492,21.756c0-2.334,0.553-15.709,6.385-15.709s8.166,6.998,7.582,9.332
		c-0.582,2.336-2.373,7.471-2.373,7.471L865.492,21.756z"/>
	<path opacity="0.5" fill="#5F7D43" d="M848.648,20.006c0-2.334-0.924-7.273,4.908-7.273s8.611,4.244,8.217,6.617
		c-0.219,1.312-0.438,1.969-0.438,1.969L848.648,20.006z"/>
	<path opacity="0.7" fill="#B3966D" d="M0.633,123.111c0,0,157.5,15.164,271.834-10.5c41.762-9.379,248.494-74.668,417.662-92.168
		c169.166-17.5,309.164,26.832,338.332,33.832s112,28,112,28s154,12.836,215.834,12.836c57.559,0,185.18-29.592,313.104-38.793
		c249.375-17.938,665.146,161.875,665.146,161.875L-0.533,215.275L0.633,123.111z"/>
	<g opacity="0.4">
		<defs>
			<path id="SVGID_1_" opacity="0.4" d="M0.633,123.1c0,0,157.5,15.166,271.834-10.5c41.762-9.375,248.494-74.666,417.662-92.166
				c169.166-17.5,309.164,26.832,338.332,33.832s112,28,112,28s154,12.834,215.834,12.834c57.559,0,185.18-29.59,313.104-38.791
				c249.375-17.938,665.146,161.875,665.146,161.875L-0.533,215.266L0.633,123.1z"/>
		</defs>
		<clipPath id="SVGID_2_">
			<use xlink:href="#SVGID_1_"  overflow="visible"/>
		</clipPath>
		<path clip-path="url(#SVGID_2_)" fill="none" stroke="#5F7D43" stroke-width="5.6" d="M589.211,26.559
			c0,0,98.875,14.875,170.625,171.5"/>
		<path clip-path="url(#SVGID_2_)" fill="none" stroke="#5F7D43" stroke-width="5.6" d="M616.336,26.559
			c0,0,98.875,14.875,170.625,171.5"/>
		<path clip-path="url(#SVGID_2_)" fill="none" stroke="#5F7D43" stroke-width="5.6" d="M643.461,26.559
			c0,0,98.875,14.875,170.625,171.5"/>
		<path clip-path="url(#SVGID_2_)" fill="none" stroke="#5F7D43" stroke-width="5.6" d="M660.086,23.059
			c0,0,109.375,18.375,181.125,175"/>
		<path clip-path="url(#SVGID_2_)" fill="none" stroke="#5F7D43" stroke-width="5.6" d="M679.336,20.434c0,0,117.25,21,189,177.625"
			/>
		<path clip-path="url(#SVGID_2_)" fill="none" stroke="#5F7D43" stroke-width="5.6" d="M701.211,17.809
			c0,0,122.5,23.625,194.25,180.25"/>
		<path clip-path="url(#SVGID_2_)" fill="none" stroke="#5F7D43" stroke-width="5.6" d="M711.711,16.059
			c0,0,134.75,13.125,210.875,182"/>
		<path clip-path="url(#SVGID_2_)" fill="none" stroke="#5F7D43" stroke-width="5.6" d="M740.586,14.309
			c0,0,132.125,18.375,209.125,183.75"/>
		<path clip-path="url(#SVGID_2_)" fill="none" stroke="#5F7D43" stroke-width="5.6" d="M771.211,14.309
			c0,0,127.75,14,205.625,183.75"/>
		<path clip-path="url(#SVGID_2_)" fill="none" stroke="#5F7D43" stroke-width="5.6" d="M807.961,15.184
			c0,0,119.875,19.25,196,182.875"/>
		<path clip-path="url(#SVGID_2_)" fill="none" stroke="#5F7D43" stroke-width="5.6" d="M848.211,18.684
			c0,0,111.125,22.75,182.875,179.375"/>
		<path clip-path="url(#SVGID_2_)" fill="none" stroke="#5F7D43" stroke-width="5.6" d="M881.461,22.184
			c0,0,105,19.25,176.75,175.875"/>
		<path clip-path="url(#SVGID_2_)" fill="none" stroke="#5F7D43" stroke-width="5.6" d="M914.711,26.559
			c0,0,98.875,14.875,170.625,171.5"/>
		<path clip-path="url(#SVGID_2_)" fill="none" stroke="#5F7D43" stroke-width="5.6" d="M941.836,26.559
			c0,0,98.875,14.875,170.625,171.5"/>
		<path clip-path="url(#SVGID_2_)" fill="none" stroke="#5F7D43" stroke-width="5.6" d="M968.961,26.559
			c0,0,98.875,14.875,170.625,171.5"/>
		<path clip-path="url(#SVGID_2_)" fill="none" stroke="#5F7D43" stroke-width="5.6" d="M996.086,26.559
			c0,0,98.875,14.875,170.625,171.5"/>
		<path clip-path="url(#SVGID_2_)" fill="none" stroke="#5F7D43" stroke-width="5.6" d="M1024.086,26.559
			c0,0,98.875,14.875,170.625,171.5"/>
		<path clip-path="url(#SVGID_2_)" fill="none" stroke="#5F7D43" stroke-width="5.6" d="M1052.086,26.559
			c0,0,98.875,14.875,170.625,171.5"/>
		<path clip-path="url(#SVGID_2_)" fill="none" stroke="#5F7D43" stroke-width="5.6" d="M1080.086,26.559
			c0,0,98.875,14.875,170.625,171.5"/>
		<path clip-path="url(#SVGID_2_)" fill="none" stroke="#5F7D43" stroke-width="5.6" d="M1108.086,26.559
			c0,0,98.875,14.875,170.625,171.5"/>
		<path clip-path="url(#SVGID_2_)" fill="none" stroke="#5F7D43" stroke-width="5.6" d="M1136.086,26.559
			c0,0,98.875,14.875,170.625,171.5"/>
		<path clip-path="url(#SVGID_2_)" fill="none" stroke="#5F7D43" stroke-width="5.6" d="M1164.086,26.559
			c0,0,98.875,14.875,170.625,171.5"/>
		<path clip-path="url(#SVGID_2_)" fill="none" stroke="#5F7D43" stroke-width="5.6" d="M1192.086,26.559
			c0,0,98.875,14.875,170.625,171.5"/>
		<path clip-path="url(#SVGID_2_)" fill="none" stroke="#5F7D43" stroke-width="5.6" d="M1220.086,26.559
			c0,0,98.875,14.875,170.625,171.5"/>
		<path clip-path="url(#SVGID_2_)" fill="none" stroke="#5F7D43" stroke-width="5.6" d="M1248.086,26.559
			c0,0,98.875,14.875,170.625,171.5"/>
		<path clip-path="url(#SVGID_2_)" fill="none" stroke="#5F7D43" stroke-width="5.6" d="M1276.086,26.559
			c0,0,98.875,14.875,170.625,171.5"/>
		<path clip-path="url(#SVGID_2_)" fill="none" stroke="#5F7D43" stroke-width="10.5" d="M1304.086,26.559
			c0,0,98.875,14.875,170.625,171.5"/>
		<path clip-path="url(#SVGID_2_)" fill="none" stroke="#5F7D43" stroke-width="10.5" d="M1332.086,26.559
			c0,0,98.875,14.875,170.625,171.5"/>
		<path clip-path="url(#SVGID_2_)" fill="none" stroke="#5F7D43" stroke-width="10.5" d="M1360.086,26.559
			c0,0,98.875,14.875,170.625,171.5"/>
		<path clip-path="url(#SVGID_2_)" fill="none" stroke="#5F7D43" stroke-width="10.5" d="M1388.086,26.559
			c0,0,98.875,14.875,170.625,171.5"/>
		<path clip-path="url(#SVGID_2_)" fill="none" stroke="#5F7D43" stroke-width="10.5" d="M1416.086,26.559
			c0,0,98.875,14.875,170.625,171.5"/>
		<path clip-path="url(#SVGID_2_)" fill="none" stroke="#5F7D43" stroke-width="10.5" d="M1444.086,26.559
			c0,0,98.875,14.875,170.625,171.5"/>
		<path clip-path="url(#SVGID_2_)" fill="none" stroke="#5F7D43" stroke-width="10.5" d="M1472.086,26.559
			c0,0,98.875,14.875,170.625,171.5"/>
		<path clip-path="url(#SVGID_2_)" fill="none" stroke="#5F7D43" stroke-width="10.5" d="M1500.086,26.559
			c0,0,98.875,14.875,170.625,171.5"/>
		<path clip-path="url(#SVGID_2_)" fill="none" stroke="#5F7D43" stroke-width="10.5" d="M1528.086,26.559
			c0,0,98.875,14.875,170.625,171.5"/>
		<path clip-path="url(#SVGID_2_)" fill="none" stroke="#5F7D43" stroke-width="10.5" d="M1556.086,26.559
			c0,0,98.875,14.875,170.625,171.5"/>
		<path clip-path="url(#SVGID_2_)" fill="none" stroke="#5F7D43" stroke-width="10.5" d="M1584.086,26.559
			c0,0,98.875,14.875,170.625,171.5"/>
		<path clip-path="url(#SVGID_2_)" fill="none" stroke="#5F7D43" stroke-width="10.5" d="M1612.086,26.559
			c0,0,98.875,14.875,170.625,171.5"/>
		<path clip-path="url(#SVGID_2_)" fill="none" stroke="#5F7D43" stroke-width="10.5" d="M1640.086,26.559
			c0,0,98.875,14.875,170.625,171.5"/>
		<path clip-path="url(#SVGID_2_)" fill="none" stroke="#5F7D43" stroke-width="10.5" d="M1668.086,26.559
			c0,0,98.875,14.875,170.625,171.5"/>
		<path clip-path="url(#SVGID_2_)" fill="none" stroke="#5F7D43" stroke-width="10.5" d="M1696.086,26.559
			c0,0,98.875,14.875,170.625,171.5"/>
		<path clip-path="url(#SVGID_2_)" fill="none" stroke="#5F7D43" stroke-width="10.5" d="M1724.086,26.559
			c0,0,98.875,14.875,170.625,171.5"/>
		<path clip-path="url(#SVGID_2_)" fill="none" stroke="#5F7D43" stroke-width="10.5" d="M1752.086,26.559
			c0,0,98.875,14.875,170.625,171.5"/>
		<path clip-path="url(#SVGID_2_)" fill="none" stroke="#5F7D43" stroke-width="10.5" d="M1780.086,26.559
			c0,0,98.875,14.875,170.625,171.5"/>
		<path clip-path="url(#SVGID_2_)" fill="none" stroke="#5F7D43" stroke-width="10.5" d="M1808.086,26.559
			c0,0,98.875,14.875,170.625,171.5"/>
		<path clip-path="url(#SVGID_2_)" fill="none" stroke="#5F7D43" stroke-width="10.5" d="M1836.086,26.559
			c0,0,98.875,14.875,170.625,171.5"/>
		<path clip-path="url(#SVGID_2_)" fill="none" stroke="#5F7D43" stroke-width="10.5" d="M1864.086,26.559
			c0,0,98.875,14.875,170.625,171.5"/>
		<path clip-path="url(#SVGID_2_)" fill="none" stroke="#5F7D43" stroke-width="10.5" d="M1892.086,26.559
			c0,0,98.875,14.875,170.625,171.5"/>
		<path clip-path="url(#SVGID_2_)" fill="none" stroke="#5F7D43" stroke-width="10.5" d="M1920.086,26.559
			c0,0,98.875,14.875,170.625,171.5"/>
		<path clip-path="url(#SVGID_2_)" fill="none" stroke="#5F7D43" stroke-width="10.5" d="M1948.086,26.559
			c0,0,98.875,14.875,170.625,171.5"/>
		<path clip-path="url(#SVGID_2_)" fill="none" stroke="#5F7D43" stroke-width="10.5" d="M1976.086,26.559
			c0,0,98.875,14.875,170.625,171.5"/>
		<path clip-path="url(#SVGID_2_)" fill="none" stroke="#5F7D43" stroke-width="10.5" d="M2004.086,26.559
			c0,0,98.875,14.875,170.625,171.5"/>
		<path clip-path="url(#SVGID_2_)" fill="none" stroke="#5F7D43" stroke-width="10.5" d="M2032.086,26.559
			c0,0,98.875,14.875,170.625,171.5"/>
		<path clip-path="url(#SVGID_2_)" fill="none" stroke="#5F7D43" stroke-width="5.6" d="M565.586,26.559
			c0,0,98.875,14.875,170.625,171.5"/>
		<path clip-path="url(#SVGID_2_)" fill="none" stroke="#5F7D43" stroke-width="5.6" d="M541.961,26.559
			c0,0,98.875,14.875,170.625,171.5"/>
		<path clip-path="url(#SVGID_2_)" fill="none" stroke="#5F7D43" stroke-width="5.6" d="M518.336,26.559
			c0,0,98.875,14.875,170.625,171.5"/>
		<path clip-path="url(#SVGID_2_)" fill="none" stroke="#5F7D43" stroke-width="5.6" d="M494.711,26.559
			c0,0,98.875,14.875,170.625,171.5"/>
		<path clip-path="url(#SVGID_2_)" fill="none" stroke="#5F7D43" stroke-width="5.6" d="M471.086,26.559
			c0,0,98.875,14.875,170.625,171.5"/>
		<path clip-path="url(#SVGID_2_)" fill="none" stroke="#5F7D43" stroke-width="5.6" d="M447.461,26.559
			c0,0,98.875,14.875,170.625,171.5"/>
		<path clip-path="url(#SVGID_2_)" fill="none" stroke="#5F7D43" stroke-width="5.6" d="M423.836,26.559
			c0,0,98.875,14.875,170.625,171.5"/>
		<path clip-path="url(#SVGID_2_)" fill="none" stroke="#5F7D43" stroke-width="5.6" d="M400.211,26.559
			c0,0,98.875,14.875,170.625,171.5"/>
		<path clip-path="url(#SVGID_2_)" fill="none" stroke="#5F7D43" stroke-width="5.6" d="M376.586,26.559
			c0,0,98.875,14.875,170.625,171.5"/>
		<path clip-path="url(#SVGID_2_)" fill="none" stroke="#5F7D43" stroke-width="5.6" d="M352.961,26.559
			c0,0,98.875,14.875,170.625,171.5"/>
		<path clip-path="url(#SVGID_2_)" fill="none" stroke="#5F7D43" stroke-width="5.6" d="M329.336,26.559
			c0,0,98.875,14.875,170.625,171.5"/>
		<path clip-path="url(#SVGID_2_)" fill="none" stroke="#5F7D43" stroke-width="5.6" d="M305.711,26.559
			c0,0,98.875,14.875,170.625,171.5"/>
		<path clip-path="url(#SVGID_2_)" fill="none" stroke="#5F7D43" stroke-width="5.6" d="M282.086,26.559
			c0,0,98.875,14.875,170.625,171.5"/>
		<path clip-path="url(#SVGID_2_)" fill="none" stroke="#5F7D43" stroke-width="5.6" d="M258.461,26.559
			c0,0,98.875,14.875,170.625,171.5"/>
		<path clip-path="url(#SVGID_2_)" fill="none" stroke="#5F7D43" stroke-width="5.6" d="M234.836,26.559
			c0,0,98.875,14.875,170.625,171.5"/>
		<path clip-path="url(#SVGID_2_)" fill="none" stroke="#5F7D43" stroke-width="5.6" d="M211.211,26.559
			c0,0,98.875,14.875,170.625,171.5"/>
		<path clip-path="url(#SVGID_2_)" fill="none" stroke="#5F7D43" stroke-width="5.6" d="M187.586,26.559
			c0,0,98.875,14.875,170.625,171.5"/>
		<path clip-path="url(#SVGID_2_)" fill="none" stroke="#5F7D43" stroke-width="5.6" d="M163.961,26.559
			c0,0,98.875,14.875,170.625,171.5"/>
		<path clip-path="url(#SVGID_2_)" fill="none" stroke="#5F7D43" stroke-width="5.6" d="M140.336,26.559
			c0,0,98.875,14.875,170.625,171.5"/>
		<path clip-path="url(#SVGID_2_)" fill="none" stroke="#5F7D43" stroke-width="5.6" d="M116.711,26.559
			c0,0,98.875,14.875,170.625,171.5"/>
		<path clip-path="url(#SVGID_2_)" fill="none" stroke="#5F7D43" stroke-width="5.6" d="M93.086,26.559
			c0,0,98.875,14.875,170.625,171.5"/>
		<path clip-path="url(#SVGID_2_)" fill="none" stroke="#5F7D43" stroke-width="5.6" d="M69.461,26.559
			c0,0,98.875,14.875,170.625,171.5"/>
		<path clip-path="url(#SVGID_2_)" fill="none" stroke="#5F7D43" stroke-width="5.6" d="M45.836,26.559
			c0,0,98.875,14.875,170.625,171.5"/>
		<path clip-path="url(#SVGID_2_)" fill="none" stroke="#5F7D43" stroke-width="5.6" d="M22.211,26.559
			c0,0,98.875,14.875,170.625,171.5"/>
		<path clip-path="url(#SVGID_2_)" fill="none" stroke="#5F7D43" stroke-width="5.6" d="M-1.414,26.559
			c0,0,98.875,14.875,170.625,171.5"/>
		<path clip-path="url(#SVGID_2_)" fill="none" stroke="#5F7D43" stroke-width="5.6" d="M-25.039,26.559
			c0,0,98.875,14.875,170.625,171.5"/>
		<path clip-path="url(#SVGID_2_)" fill="none" stroke="#5F7D43" stroke-width="5.6" d="M-48.664,26.559
			c0,0,98.875,14.875,170.625,171.5"/>
		<path clip-path="url(#SVGID_2_)" fill="none" stroke="#5F7D43" stroke-width="5.6" d="M-72.289,26.559
			c0,0,98.875,14.875,170.625,171.5"/>
		<path clip-path="url(#SVGID_2_)" fill="none" stroke="#5F7D43" stroke-width="5.6" d="M-95.914,26.559
			c0,0,98.875,14.875,170.625,171.5"/>
		<path clip-path="url(#SVGID_2_)" fill="none" stroke="#5F7D43" stroke-width="5.6" d="M-119.539,26.559
			c0,0,98.875,14.875,170.625,171.5"/>
		<path clip-path="url(#SVGID_2_)" fill="none" stroke="#5F7D43" stroke-width="5.6" d="M-143.164,26.559
			c0,0,98.875,14.875,170.625,171.5"/>
		<path clip-path="url(#SVGID_2_)" fill="#C49A6C" stroke="#5F7D43" stroke-width="3.5" d="M1247.211,120.184"/>
		<path clip-path="url(#SVGID_2_)" fill="#C49A6C" stroke="#5F7D43" stroke-width="3.5" d="M1140.461,82.266"/>
	</g>
	<path opacity="0.2" fill="#E8E8E8" d="M-4.453,167.369c0,0,310.322-37.963,399.459-52.818
		c89.135-14.857,315.27-74.277,506.742-54.471s293.811,64.371,412.656,70.977c118.846,6.602,330.131-54.471,430.818-52.82
		s363.139,80.883,430.814,97.389c67.676,16.504,150.205,39.613,150.205,39.613L-0.533,215.275l1.037-44.604"/>
</g>
</svg>
