<?xml version="1.0" encoding="utf-8"?>
<!-- Generator: Adobe Illustrator 15.1.0, SVG Export Plug-In . SVG Version: 6.00 Build 0)  -->
<!DOCTYPE svg PUBLIC "-//W3C//DTD SVG 1.1//EN" "http://www.w3.org/Graphics/SVG/1.1/DTD/svg11.dtd">
<svg version="1.1" id="Layer_1" xmlns="http://www.w3.org/2000/svg" xmlns:xlink="http://www.w3.org/1999/xlink" x="0px" y="0px"
	 width="574.387px" height="120.361px" viewBox="0 0 574.387 120.361" enable-background="new 0 0 574.387 120.361"
	 xml:space="preserve">
<path opacity="0.7" fill="#FFFFFF" d="M0,120.361h567c0,0,12.834-7,4.668-10.5c-8.168-3.5-25.666-3.5-28-11.666
	c-2.336-8.168,12.83-25.666-9.336-30.334c-22.164-4.666-64.164,1.166-79.332,1.166s-33.834,0.002-32.668-15.166
	c1.168-15.166,18.67-35-8.164-46.666c-26.836-11.668-74.668-8.168-95.668,3.5c-21,11.666-40.834,37.332-60.668,30.332
	c-19.832-7-45.498-30.332-78.164-22.166c-32.668,8.166-43.166,40.834-52.5,51.334c-9.336,10.5-31.5,1.166-45.5,11.666
	s-12.834,23.332-28,22.166c-15.168-1.166-26.836-8.166-36.168-2.332C8.168,107.527,0,120.361,0,120.361z"/>
</svg>
