<?xml version="1.0" encoding="utf-8"?>
<!-- Generator: Adobe Illustrator 15.0.2, SVG Export Plug-In . SVG Version: 6.00 Build 0)  -->
<!DOCTYPE svg PUBLIC "-//W3C//DTD SVG 1.1//EN" "http://www.w3.org/Graphics/SVG/1.1/DTD/svg11.dtd">
<svg version="1.1" xmlns="http://www.w3.org/2000/svg" xmlns:xlink="http://www.w3.org/1999/xlink" x="0px" y="0px"
	 width="1880.433px" height="211.541px" viewBox="0 0 1880.433 211.541" enable-background="new 0 0 1880.433 211.541"
	 xml:space="preserve">
<g id="tractor">
	<g>
		<circle fill="#414042" cx="1243.953" cy="46.879" r="12.52"/>
		<path fill="#414042" d="M1207.699,54.621c0,3.039-2.461,5.502-5.498,5.502s-5.5-2.463-5.5-5.502c0-3.035,2.463-5.498,5.5-5.498
			S1207.699,51.586,1207.699,54.621z"/>
		<path fill="#414042" d="M1273.912,54.621c0,3.039-2.463,5.502-5.5,5.502c-3.039,0-5.502-2.463-5.502-5.502
			c0-3.035,2.463-5.498,5.502-5.498C1271.449,49.123,1273.912,51.586,1273.912,54.621z"/>
		<path fill="#414042" d="M1305.393,54.621c0,3.039-2.461,5.502-5.502,5.502c-3.039,0-5.504-2.463-5.504-5.502
			c0-3.035,2.465-5.498,5.504-5.498C1302.932,49.123,1305.393,51.586,1305.393,54.621z"/>
		<circle fill="#FFFFFF" cx="1244.206" cy="47.205" r="7.056"/>
		<path fill="#FFFFFF" d="M1204.371,54.695c0,1.197-0.973,2.168-2.17,2.168c-1.199,0-2.17-0.971-2.17-2.168
			c0-1.201,0.971-2.174,2.17-2.174C1203.398,52.521,1204.371,53.494,1204.371,54.695z"/>
		<path fill="#FFFFFF" d="M1270.582,54.695c0,1.197-0.973,2.168-2.17,2.168c-1.199,0-2.172-0.971-2.172-2.168
			c0-1.201,0.973-2.174,2.172-2.174C1269.609,52.521,1270.582,53.494,1270.582,54.695z"/>
		<path fill="#FFFFFF" d="M1302.062,54.695c0,1.197-0.977,2.168-2.172,2.168c-1.207,0-2.176-0.971-2.176-2.168
			c0-1.201,0.969-2.174,2.176-2.174C1301.086,52.521,1302.062,53.494,1302.062,54.695z"/>
		<rect x="1207.846" y="28.861" fill="#414042" width="1.953" height="7.162"/>
		<rect x="1262.768" y="33.42" fill="#8B5E3C" width="41.463" height="15.629"/>
		<path fill="#EF4136" d="M1299.668,31.898c0,0-14.537-4.342-21.271-3.037c-6.727,1.301-12.809,4.775-12.809,4.775l35.822-0.217
			L1299.668,31.898z"/>
		<rect x="1253.434" y="49.049" fill="#414042" width="14.543" height="2.389"/>
		<rect x="1195.545" y="36.096" fill="#EF4136" width="30.391" height="13.027"/>
		<polygon fill="#414042" points="1238.371,36.824 1237.23,31.432 1235.631,29.15 1234.123,29.143 1231.02,32.086 1227.75,33.23 
			1227.26,32.576 1226.279,33.068 1227.1,34.865 1225.791,36.334 1225.953,37.479 1227.75,35.842 1228.406,37.314 1229.385,36.824 
			1228.24,34.535 1232.816,33.23 1234.613,36.824 1229.602,38.295 1229.602,44.832 1228.15,45.902 1230.857,46.012 1232.334,45.938 
			1236.248,39.602 		"/>
		<path fill="#414042" d="M1235.268,27.674c0,1.084-0.877,1.961-1.959,1.961c-1.084,0-1.959-0.877-1.959-1.961
			c0-1.086,0.875-1.961,1.959-1.961C1234.391,25.713,1235.268,26.588,1235.268,27.674z"/>
		<rect x="1222.463" y="45.936" fill="#EF4136" width="8.971" height="3.041"/>
	</g>
</g>
<g id="hills">
	<g>
		<path fill="#FFFFFF" d="M690.686,22.98c0,12.693-12.104,22.982-27.035,22.982s-27.037-10.289-27.037-22.982
			C636.613,10.291,648.719,0,663.65,0S690.686,10.291,690.686,22.98z"/>
		<rect x="636.613" y="24.523" fill="#BFBDB1" width="54.072" height="147.35"/>
		<path opacity="0.15" fill="#606049" d="M667.002,145.416V24.447c0,0-0.584-12.832,10.209-13.416
			c9.07-0.49,13.416,4.373,13.416,15.166s0,10.793,0,10.793v129.176l-23.625,1V145.416z"/>
		<path fill="#E1BF23" d="M838.211,119.822c0,0,104.125-31.5,209.125-47.25s208.25-21.875,348.25-10.5s238.875,37.625,299.25,63.875
			s185.597,85.663,185.597,85.663l-469.972,0.087l-574,0.469L838.211,119.822z"/>
		<g>
			<defs>
				<path id="SVGID_1_" d="M837.281,119.82c0,0,104.125-31.5,209.125-47.25s208.25-21.875,348.25-10.5s238.875,37.625,299.25,63.875
					s185.597,85.663,185.597,85.663l-469.972,0.087l-574-0.875L837.281,119.82z"/>
			</defs>
			<clipPath id="SVGID_2_">
				<use xlink:href="#SVGID_1_"  overflow="visible"/>
			</clipPath>
			<path opacity="0.2" clip-path="url(#SVGID_2_)" fill="#606049" d="M1425.725,277.76
				c-99.565-137.789-252.055-172.688-362.445-177.701c-120.136-5.456-219.809,15.202-220.78,15.482l-0.5-3.5
				c0.993-0.286,100.094-28.054,222.5-22.5c72.068,3.273,137.294,13.972,195.019,38.639
				c72.375,30.927,132.112,78.494,177.553,141.381L1425.725,277.76z"/>
			<path opacity="0.2" clip-path="url(#SVGID_2_)" fill="#606049" d="M1395.084,299.115
				c-99.565-137.789-253.194-177.061-363.584-182.074c-120.134-5.457-220.529,17.72-221.5,18l1-10
				c0.993-0.286,99.869-23.169,222.274-17.612c72.068,3.272,137.879,17.439,195.604,42.106
				c72.375,30.927,132.112,78.494,177.553,141.381L1395.084,299.115z"/>
			<path opacity="0.2" clip-path="url(#SVGID_2_)" fill="#606049" d="M1356.309,314.728
				c-99.476-137.667-251.787-172.61-362.042-177.683c-120.19-5.529-218.04,22.183-219.013,22.464l-3.878-13.452
				c2.846,7.169,100.71-28.568,223.125-23.016c72.069,3.272,137.879,17.439,195.604,42.106
				c72.374,30.927,132.11,78.494,177.552,141.381L1356.309,314.728z"/>
			<path opacity="0.2" clip-path="url(#SVGID_2_)" fill="#606049" d="M1461.006,261.975
				c-99.564-137.789-252.053-172.687-362.443-177.7C978.42,78.817,877.971,98.761,877,99.041l-0.926-5.736
				c0.993-0.286,100.012-25.318,222.426-19.764c72.068,3.272,138.577,14.187,196.302,38.854
				c72.374,30.927,132.11,78.494,177.552,141.381L1461.006,261.975z"/>
			<path opacity="0.2" clip-path="url(#SVGID_2_)" fill="#606049" d="M1500.002,251.762
				C1400.438,113.973,1245.391,73.554,1135,68.541c-120.138-5.458-218.529,14.22-219.5,14.5l-0.432,0.051
				c0.993-0.286,98.025-28.104,220.432-22.551c72.069,3.272,140.573,16.974,198.298,41.641
				c72.374,30.927,132.111,78.494,177.552,141.381L1500.002,251.762z"/>
			<path opacity="0.2" clip-path="url(#SVGID_2_)" fill="#606049" d="M1538.07,243.406
				C1438.595,105.738,1283.256,64.113,1173,59.041c-120.201-5.528-215.01,28.865-215.983,29.146l-3.878-13.452
				c0.993-0.286,100.447-26.753,222.862-21.194c72.068,3.272,138.143,15.617,195.867,40.285
				c72.373,30.926,132.11,78.495,177.551,141.381L1538.07,243.406z"/>
			<path opacity="0.2" clip-path="url(#SVGID_2_)" fill="#606049" d="M1584.639,238.692
				c-99.563-137.789-251.748-178.138-362.139-183.15c-120.138-5.454-218.529,17.72-219.5,18l-3.295-3.519
				c0.994-0.286,99.391-26.534,221.795-20.981c72.068,3.272,139.21,15.404,196.935,40.071
				c72.374,30.926,132.111,78.494,177.552,141.38L1584.639,238.692z"/>
			<path opacity="0.2" clip-path="url(#SVGID_2_)" fill="#606049" d="M1629.99,233.193
				C1557.4,132.729,1436.946,68.384,1296.5,53.041l7.5-6.5c64.565,7.053,129.92,21.691,181.519,47.038
				c62.609,30.755,115.034,74.97,155.819,131.415L1629.99,233.193z"/>
			<path opacity="0.2" clip-path="url(#SVGID_2_)" fill="#606049" d="M1668.061,223.908
				c-61.977-85.77-150.472-141.379-263.026-165.282l2.966-9.585c116.058,24.646,207.334,77.995,271.408,166.668L1668.061,223.908z"
				/>
			<path opacity="0.2" clip-path="url(#SVGID_2_)" fill="#606049" d="M1709.842,219.264
				c-57.816-80.016-138.929-133.894-241.084-160.138l2.242-8.084c105.406,27.079,190.406,77.286,250.189,160.023L1709.842,219.264z"
				/>
			<path opacity="0.2" clip-path="url(#SVGID_2_)" fill="#606049" d="M1759.053,220.193
				c-62.169-86.039-151.01-141.72-264.056-165.498l2.881-13.7c116.561,24.517,208.25,82.048,272.522,170.999L1759.053,220.193z"/>
			<path opacity="0.2" clip-path="url(#SVGID_2_)" fill="#606049" d="M1800.838,218.336
				c-66.097-91.472-162.065-148.51-285.242-169.531l2.355-13.801c126.919,21.66,227.479,83.237,295.799,177.787L1800.838,218.336z"
				/>
			<path opacity="0.2" clip-path="url(#SVGID_2_)" fill="#606049" d="M1844.479,218.336
				c-66.097-91.472-162.065-148.51-285.242-169.531l2.355-13.801c126.919,21.66,227.588,83.487,295.908,178.037L1844.479,218.336z"
				/>
		</g>
		<polygon fill="#FFFFFF" points="1075.047,158.979 1071.547,157.531 1071.547,138.865 1075.047,138.865 1075.047,157.531 		"/>
		<polygon fill="#FFFFFF" points="1049.379,152.094 1045.879,152.094 1045.879,135.178 1049.379,135.178 1049.379,152.094 		"/>
		<polygon fill="#FFFFFF" points="1026.047,148.137 1022.547,148.137 1022.547,131.803 1026.047,131.803 1026.047,148.137 		"/>
		<polygon fill="#FFFFFF" points="1003.297,145.635 999.797,145.635 999.797,129.887 1003.297,129.887 1003.297,145.635 		"/>
		<polygon fill="#FFFFFF" points="983.465,144.928 979.965,144.928 979.965,131.512 983.465,131.512 983.465,144.928 		"/>
		<polygon fill="#FFFFFF" points="961.297,143.282 957.797,143.282 957.797,129.866 961.297,129.866 961.297,143.282 		"/>
		<polygon fill="#FFFFFF" points="942.629,141.699 939.129,141.699 939.129,132.949 942.629,132.949 942.629,141.699 		"/>
		<polygon fill="#FFFFFF" points="926.879,142.865 923.379,142.865 923.379,136.449 926.879,136.449 926.879,142.865 		"/>
		<polygon fill="#FFFFFF" points="1126.982,164.938 1099.566,155.605 1074.152,151.002 1046.684,145.162 1022.34,142.27 
			1000.15,139.35 981.715,139.365 959.5,138.781 935.334,142.84 920.898,143.447 959.26,135.307 981.76,135.865 1000.379,135.865 
			1022.775,138.797 1047.254,141.711 1074.828,147.568 1100.443,152.229 1128.111,161.625 1126.982,164.938 		"/>
		<polygon fill="#565655" points="844.629,130.029 848.711,130.029 839.961,82.197 816.25,45.729 813.711,48.365 837.043,82.779 		
			"/>
		<polygon fill="#FFFFFF" points="1101.879,166.354 1098.379,166.354 1098.379,145.219 1101.879,145.219 1101.879,163.887 		"/>
		<polygon fill="#FFFFFF" points="1196.264,212.791 1190.664,212.791 1190.664,181.041 1196.264,183.625 1196.264,212.791 		"/>
		<path opacity="0.15" fill="#606049" d="M887.789,146.698c0,0,241.943-81.812,500.021-59.373
			c234.748,20.414,232.189,35.646,307.139,57.723c45.276,13.337,175,63.1,185.126,66.494l0.175-0.001
			c-1.187-0.548-4.631-2.044-9.688-4.481c-30.25-14.581-125.586-59.382-175.727-81.183c-60.375-26.25-159.25-52.5-299.25-63.875
			c-3.904-0.317-7.771-0.616-11.618-0.906c-1.075-0.081-2.146-0.16-3.217-0.239c-3.073-0.227-6.13-0.445-9.168-0.654
			c-0.838-0.058-1.683-0.119-2.518-0.175c-3.719-0.251-7.41-0.489-11.078-0.715c-0.928-0.057-1.849-0.11-2.773-0.166
			c-2.857-0.172-5.7-0.335-8.527-0.492c-1.1-0.061-2.2-0.122-3.296-0.181c-3.56-0.19-7.103-0.372-10.616-0.538
			c-0.529-0.025-1.052-0.046-1.58-0.07c-3.04-0.141-6.062-0.272-9.068-0.395c-1.211-0.049-2.418-0.097-3.624-0.144
			c-2.562-0.099-5.111-0.191-7.65-0.277c-1.008-0.034-2.022-0.072-3.027-0.104c-3.264-0.104-6.505-0.197-9.729-0.281
			c-1.24-0.032-2.472-0.06-3.706-0.088c-2.214-0.052-4.42-0.099-6.617-0.142c-1.322-0.025-2.646-0.051-3.963-0.073
			c-2.905-0.048-5.798-0.088-8.675-0.12c-1.371-0.015-2.733-0.023-4.099-0.035c-2.065-0.017-4.126-0.03-6.178-0.038
			c-1.5-0.005-2.996-0.009-4.488-0.01c-1.854-0.001-3.7,0.003-5.543,0.009c-1.86,0.006-3.718,0.013-5.567,0.027
			c-2.326,0.016-4.646,0.037-6.956,0.065c-1.63,0.02-3.252,0.045-4.874,0.07c-1.495,0.023-2.987,0.049-4.476,0.077
			c-1.677,0.031-3.354,0.062-5.022,0.1c-1.546,0.035-3.083,0.076-4.623,0.116c-2.839,0.073-5.667,0.154-8.484,0.245
			c-1.228,0.04-2.457,0.079-3.681,0.121c-1.826,0.063-3.648,0.13-5.466,0.201c-1.076,0.042-2.148,0.087-3.221,0.131
			c-3.6,0.148-7.183,0.31-10.75,0.486c-0.694,0.034-1.39,0.066-2.083,0.101c-1.966,0.1-3.926,0.206-5.882,0.314
			c-0.885,0.049-1.768,0.099-2.65,0.15c-6.441,0.369-12.834,0.781-19.185,1.237c-0.652,0.047-1.305,0.093-1.957,0.141
			c-2.083,0.152-4.164,0.309-6.238,0.47c-0.396,0.031-0.791,0.063-1.186,0.094c-4.412,0.347-8.807,0.714-13.185,1.101
			c-0.088,0.008-0.178,0.015-0.266,0.023c-12.216,1.111-24.313,2.354-36.31,3.701c-0.023,0.003-0.045,0.005-0.068,0.008
			c-9.224,1.06-18.41,2.202-27.583,3.422c-0.15,0.02-0.299,0.041-0.449,0.061c-3.995,0.533-7.988,1.084-11.981,1.647
			c-0.934,0.132-1.869,0.263-2.803,0.396c-4.181,0.596-8.362,1.203-12.545,1.831c-105,15.75-209.125,47.25-209.125,47.25
			l-0.54,28.062C862.212,148.159,887.789,146.698,887.789,146.698z"/>
		<polygon fill="#BA2826" points="785.129,155.697 785.129,132.947 790.961,83.365 813.711,48.365 837.043,82.779 844.629,130.029 
			844.629,153.365 		"/>
		<polygon fill="#FFFFFF" points="1132.246,154.477 1097.947,145.727 1074.582,139.301 1022.322,132.35 999.709,131.197 
			981.721,133.545 957.924,130.643 943.084,134.639 923.693,138.17 905.283,144.52 896.836,144.322 922.811,134.795 
			942.316,131.229 957.67,127.086 981.707,130.018 999.574,127.713 1022.637,128.865 1075.283,135.881 1098.844,142.346 
			1133.111,151.086 1132.246,154.477 		"/>
		<polygon fill="#8B8989" points="678.879,83.947 791.461,83.365 816.254,45.74 705.42,45.74 		"/>
		<polygon fill="#EF4136" points="677.793,133.24 677.793,172.322 785.129,159.197 785.129,132.947 		"/>
		<polygon fill="#636462" points="791.461,83.365 785.629,133.322 672.461,133.322 678.879,83.952 		"/>
		<polygon fill="#D6E5E9" points="799.711,155.115 799.711,132.365 831.211,132.365 831.211,154.529 		"/>
		<polygon fill="#FFFFFF" points="1132.68,179.104 1127.08,179.104 1127.08,152.781 1132.68,152.781 1132.68,175.531 		"/>
		<rect x="809.629" y="74.029" fill="#D6E5E9" width="9.332" height="11.668"/>
		<path fill="#A7BF61" d="M1187.336,212.135c0,0-62.125-56.438-184.625-66.938s-230.609,13.33-273.875,14.875
			c-49,1.75-197.908,22.73-320.541,10.793c-98.875-9.625-171.538-28.324-225.795-28.324C63,142.541,0,212.229,0,212.229h4.375
			L1187.336,212.135z"/>
		<polygon fill="#FFFFFF" points="1163.596,195.416 1158,192.291 1157.998,165.031 1163.596,165.031 1163.596,191.865 		"/>
		<polygon fill="#FFFFFF" points="1229.279,211.869 1194.6,183.68 1159.627,167.574 1129.414,155.377 1133,151.104 
			1161.846,162.436 1197.928,179.049 1241.73,212.135 1221.178,211.869 		"/>
		<polygon fill="#FFFFFF" points="1202.461,212.229 1189.799,200.387 1159.316,181.408 1131.588,168.141 1129.586,162.697 
			1162.008,176.506 1193.631,196.176 1213.477,212.135 1198.82,212.229 		"/>
	</g>
</g>
</svg>
