<?xml version="1.0" encoding="utf-8"?>
<!-- Generator: Adobe Illustrator 15.0.2, SVG Export Plug-In . SVG Version: 6.00 Build 0)  -->
<!DOCTYPE svg PUBLIC "-//W3C//DTD SVG 1.1//EN" "http://www.w3.org/Graphics/SVG/1.1/DTD/svg11.dtd">
<svg version="1.1" xmlns="http://www.w3.org/2000/svg" xmlns:xlink="http://www.w3.org/1999/xlink" x="0px" y="0px" width="2520px"
	 height="235.82px" viewBox="0 0 2520 235.82" enable-background="new 0 0 2520 235.82" xml:space="preserve">
<g id="foreground">
</g>
<g id="cows">
	<g>
		<path fill="#5F7D43" d="M89.643,58.713c-4.982-7.473-3.738-7.473-4.982-14.947c-1.244-7.477-4.984-19.932-9.967-23.668
			c-4.98-3.738-13.703,1.244-16.191,6.225c-2.007,4.016-5.632,13.698-6.964,24.479c-0.993-2.437-2.209-4.564-3.584-5.596
			c-3.029-2.273-8.334,0.756-9.848,3.785c-1.516,3.031-4.547,11.365-4.547,19.699c0,8.336,3.787,21.215,3.787,21.215l20.466,3.811
			l28.092,6.107c0,0,6.232-21.18,8.721-27.404C97.113,66.191,94.625,66.188,89.643,58.713z"/>
		<path fill="#A7BF61" d="M2520.418,50.32c0,0-70,21-120.75,15.75s-192.5-35-330.75-21s-343,91-462,127.75
			s-197.75,50.75-222.25,54.25s-69.125,8.75-69.125,8.75l1207.914,2.844L2520.418,50.32z"/>
		<path fill="#87AA5A" d="M2520.832,99.914c0,0-0.414-49.592-0.414-49.594c0,0-70,21-120.75,15.75s-192.5-35-330.75-21
			s-343,91-462,127.75c-119,36.752-197.75,50.752-222.25,54.252s168.691-9.045,324.332-51.336c322-87.5,388.578-79.357,542.5-68.834
			C2524.5,125.568,2520.832,99.914,2520.832,99.914z"/>
		<path fill="#A7BF61" d="M884.957,237.164c0,0-70.789-26.426-89.455-33.426c-25.908-9.717-37.916-15.168-70.584-25.668
			c-41.215-13.248-217-82.25-337.75-106.75s-253.75-7-311.5-1.75s-80.461,7-80.461,7v160.844L884.957,237.164z"/>
		<path fill="#87AA5A" d="M513.168,131.695c77.875,21.875,169.566,50.104,184.625,55.125c105,35,144.449,33.613,117.152,23.934
			c-8.174-2.898-15.141-5.402-19.443-7.016c-25.908-9.717-37.916-15.168-70.584-25.668c-41.215-13.248-217-82.25-337.75-106.75
			s-253.75-7-311.5-1.75s-80.461,7-80.461,7l0.125,35.027c0,0,182.895-33.352,304.336-20.152
			C373.586,99.48,441.469,111.555,513.168,131.695z"/>
		<path fill="#414042" d="M1998.115,32.234h26.611v22.902h-1.309v-3.49c0,0-3.49-4.363-3.928-5.234
			c-0.434-0.873-6.326,1.09-10.25,1.09c-3.928,0-4.799,0.217-4.799,0.217l-0.871,7.635l-1.527,0.219l-0.436-6.545l-2.184-0.436
			l0.219,6.762h-1.309l-0.436-6.326l-2.398-1.963l-1.527-8.068L1998.115,32.234z"/>
		<path fill="#414042" d="M1992.502,32.416h4.416c0,0,1.844-1.271,3.135-1.271c1.289,0,2.209,0.363,2.209,0.363
			s-0.738,1.09-2.027,1.816s-2.209,0.727-2.209,0.727l-0.92,7.998h-4.053l-1.104-7.998c0,0-1.105,0-2.209-0.363
			s-1.658-1.998-1.658-1.998s1.289-0.182,2.213,0C1991.215,31.871,1992.502,32.416,1992.502,32.416z"/>
		<polygon fill="#414042" points="1997.246,41.104 1997.105,42.994 1993.029,42.994 1992.883,41.104 		"/>
		<path fill="#FFFFFF" d="M2101.293,4.385h91.555v78.791h-4.506V71.17c0,0-12.004-15.01-13.508-18.012
			c-1.498-3-21.762,3.752-35.27,3.752c-13.506,0-16.51,0.75-16.51,0.75l-3,26.266l-5.258,0.75l-1.492-22.51l-7.508-1.502
			l0.754,23.262h-4.506l-1.5-21.76l-8.256-6.756l-5.252-27.766L2101.293,4.385z"/>
		<path opacity="0.3" fill="#414042" d="M2101.289,4.385c0,0,17.029-0.104,16.834,0.119c-6.066,6.91-13.217,7.746-13.203,7.953
			c0.43,6.281,2.516,17.812-5.85,30.354c-2.553,3.834,24.836,6.564,36.707,7.293c41.371,2.533,57.062-16.898,57.062-16.902v49.975
			h-4.504V71.17c0,0-12.004-15.01-13.506-18.012c-1.5-3-21.762,3.752-35.266,3.752c-13.508,0-16.514,0.75-16.514,0.75l-3,26.266
			l-5.254,0.75l-1.5-22.51l-7.502-1.502l0.748,23.262h-4.504l-1.502-21.76l-8.25-6.756l-5.254-27.766L2101.289,4.385z"/>
		<path fill="none" d="M2101.293,4.385h91.555v78.791h-4.506V71.17c0,0-12.004-15.01-13.508-18.012
			c-1.498-3-21.762,3.752-35.27,3.752c-13.506,0-16.51,0.75-16.51,0.75l-3,26.266l-5.258,0.75l-1.492-22.51l-7.508-1.502
			l0.754,23.262h-4.506l-1.5-21.76l-8.256-6.756l-5.252-27.766L2101.293,4.385z"/>
		<path fill="#414042" d="M2120.809,4.631c0,0-8.496,14.264-3.748,16.764c4.744,2.5,18.002-3.252,19.756,1.998
			c1.754,5.252,6.508,10.506,12.51,6.752c6.006-3.75,9.002-10,9.002-13.256c0-3.252,0.752-12.504,0.752-12.504L2120.809,4.631z"/>
		<path fill="#414042" d="M2142.322,56.16c0,0,1.248-6.752-4.006-6.752s-7.5,1.752-12.254-0.248
			c-4.754-2.004-2.744-6.756-9.75-4.504c-7.008,2.252-12.76,0.75-11.26,6c1.5,5.256,2.752,7.508,6.498,7.754
			c3.756,0.25,11.504-0.75,11.504-0.75s8.758-0.75,11.512-0.75C2137.312,56.91,2142.322,56.16,2142.322,56.16z"/>
		<path fill="#414042" d="M2192.344,23.645c0,0-7.744,1.25-8.754,5.75c-0.996,4.504,1.258,13.508,3.254,15.512
			c2,2.002,6.006,4.254,6.006,4.254L2192.344,23.645z"/>
		<path fill="#FFFFFF" d="M2084.391,4.062h14.105c0,0,5.883-4.062,9.998-4.062c4.119,0,7.059,1.162,7.059,1.162
			s-2.352,3.484-6.471,5.803c-4.115,2.32-7.051,2.32-7.051,2.32l-2.936,25.539h-12.941l-3.529-25.539c0,0-3.525,0-7.053-1.158
			c-3.527-1.162-5.295-6.385-5.295-6.385s4.117-0.58,7.059,0C2080.275,2.32,2084.391,4.062,2084.391,4.062z"/>
		<path fill="#414042" d="M2087.465,16.602c0,0.832-0.674,1.512-1.512,1.512c-0.834,0-1.508-0.68-1.508-1.512
			c0-0.83,0.674-1.508,1.508-1.508C2086.791,15.094,2087.465,15.771,2087.465,16.602z"/>
		<path fill="#414042" d="M2100.465,16.602c0,0.832-0.672,1.512-1.51,1.512s-1.504-0.68-1.504-1.512c0-0.83,0.666-1.508,1.504-1.508
			S2100.465,15.771,2100.465,16.602z"/>
		<polygon fill="#414042" points="2099.543,31.807 2099.096,37.844 2086.072,37.844 2085.605,31.807 		"/>
		<path fill="#B3966D" d="M2305.678,19.408h-47.664v41.02h2.348v-6.25c0,0,6.248-7.814,7.035-9.377
			c0.775-1.564,11.322,1.951,18.354,1.951s8.6,0.391,8.6,0.391l1.562,13.674l2.73,0.393l0.783-11.719l3.906-0.783l-0.389,12.109
			h2.344l0.779-11.326l4.297-3.52l2.738-14.451L2305.678,19.408z"/>
		<path fill="none" d="M2305.678,19.408h-47.664v41.02h2.348v-6.25c0,0,6.248-7.814,7.035-9.377
			c0.775-1.564,11.322,1.951,18.354,1.951s8.6,0.391,8.6,0.391l1.562,13.674l2.73,0.393l0.783-11.719l3.906-0.783l-0.389,12.109
			h2.344l0.779-11.326l4.297-3.52l2.738-14.451L2305.678,19.408z"/>
		<path fill="#FFFFFF" d="M2295.52,19.539c0,0,4.422,7.422,1.947,8.725c-2.467,1.303-9.371-1.693-10.283,1.039
			c-0.914,2.734-3.385,5.473-6.516,3.518c-3.125-1.953-4.686-5.209-4.686-6.9c0-1.693-0.391-6.512-0.391-6.512L2295.52,19.539z"/>
		<path fill="#FFFFFF" d="M2284.318,46.363c0,0-0.65-3.516,2.088-3.516c2.73,0,3.9,0.914,6.375-0.129
			c2.475-1.045,1.43-3.518,5.078-2.344c3.645,1.172,6.645,0.389,5.863,3.125c-0.787,2.734-1.436,3.906-3.387,4.035
			c-1.957,0.129-5.986-0.393-5.986-0.393s-4.562-0.391-5.994-0.391C2286.926,46.752,2284.318,46.363,2284.318,46.363z"/>
		<path fill="#FFFFFF" d="M2258.277,29.438c0,0,4.029,0.648,4.555,2.992c0.52,2.346-0.652,7.033-1.695,8.074
			c-1.035,1.043-3.123,2.215-3.123,2.215L2258.277,29.438z"/>
		<path opacity="0.3" fill="#414042" d="M2305.678,19.408c0,0-8.863-0.053-8.76,0.062c3.156,3.598,6.879,4.033,6.873,4.141
			c-0.227,3.268-1.312,9.271,3.045,15.803c1.33,1.996-12.93,3.416-19.109,3.797c-21.537,1.316-29.709-8.797-29.709-8.797v26.014
			h2.344v-6.25c0,0,6.248-7.814,7.035-9.377c0.783-1.564,11.326,1.951,18.357,1.951c7.035,0,8.596,0.391,8.596,0.391l1.566,13.674
			l2.73,0.393l0.779-11.719l3.914-0.783l-0.395,12.109h2.346l0.779-11.326l4.301-3.52l2.73-14.451L2305.678,19.408z"/>
		<path fill="#B3966D" d="M2314.475,19.242h-7.342c0,0-3.062-2.113-5.205-2.113s-3.67,0.602-3.67,0.602s1.219,1.812,3.363,3.023
			c2.143,1.205,3.674,1.205,3.674,1.205l1.523,13.299h6.74l1.836-13.299c0,0,1.84,0,3.674-0.602
			c1.836-0.604,2.756-3.322,2.756-3.322s-2.145-0.305-3.676,0C2316.617,18.336,2314.475,19.242,2314.475,19.242z"/>
		<path fill="#414042" d="M2312.879,25.771c0,0.432,0.348,0.787,0.785,0.787c0.436,0,0.783-0.355,0.783-0.787
			c0-0.434-0.348-0.789-0.783-0.789C2313.227,24.982,2312.879,25.338,2312.879,25.771z"/>
		<path fill="#414042" d="M2306.107,25.771c0,0.432,0.355,0.787,0.791,0.787c0.434,0,0.781-0.355,0.781-0.787
			c0-0.434-0.348-0.789-0.781-0.789C2306.463,24.982,2306.107,25.338,2306.107,25.771z"/>
		<polygon fill="#414042" points="2306.59,33.684 2306.818,36.828 2313.604,36.828 2313.846,33.684 		"/>
	</g>
</g>
</svg>
