<?xml version="1.0" encoding="utf-8"?>
<!-- Generator: Adobe Illustrator 15.0.2, SVG Export Plug-In . SVG Version: 6.00 Build 0)  -->
<!DOCTYPE svg PUBLIC "-//W3C//DTD SVG 1.1//EN" "http://www.w3.org/Graphics/SVG/1.1/DTD/svg11.dtd">
<svg version="1.1" id="hills3" xmlns="http://www.w3.org/2000/svg" xmlns:xlink="http://www.w3.org/1999/xlink" x="0px" y="0px"
	 width="2520px" height="409.115px" viewBox="0 -77.885 2520 409.115" enable-background="new 0 -77.885 2520 409.115"
	 xml:space="preserve">
<path opacity="0.5" fill="#BEBDB0" d="M0,62.323c0,0,97.495-37.498,148.492-40.498s234.247,28.847,266.366,38.422
	s87.104,35.191,156.332,0.582c51.334-25.666,73.475-31.312,157.5-15.75c141.75,26.25,261.152-11.48,275.428-16.973
	c30.137-11.592,90.408-41.727,100.84-49.842s12.75-10.432,16.229-9.273c3.477,1.158,9.271,3.48,13.906,2.318
	c4.637-1.16,47.523-42.887,47.523-42.887s4.637-5.793,10.432,1.16c5.795,6.955,10.432,3.479,12.75,6.955s4.637,8.115,11.59,6.955
	c6.955-1.158,10.432-4.637,12.75,1.16c2.318,5.793,70.221,70.395,115.721,82.926c53.465,14.725,119,0,175,2.334
	c161.738,6.744,397.221,17.363,597.332-32.666c6.193-1.547,59.23,33.604,65.396,33.385c104.127-3.686,177.166-6.791,184.271-7.719
	c1.042-0.136,92.018-1.088,149.016,21.411c1.396,0.551-3,286.486-3,286.486c0,1.499-1281.261-1.5-1283.936-1.5
	C1226.46,329.311,0,329.31,0,329.31V62.323z"/>
<g>
	<defs>
		<path id="SVGID_1_" d="M912.44,81.829c0,0,61.543-42.133,91.678-53.723c30.137-11.592,90.408-41.727,100.84-49.842
			s12.75-10.432,16.229-9.273c3.477,1.158,9.271,3.48,13.906,2.318c4.637-1.16,47.523-42.887,47.523-42.887s4.637-5.793,10.432,1.16
			c5.795,6.955,10.432,3.479,12.75,6.955s4.637,8.115,11.59,6.955c6.955-1.158,10.432-4.637,12.75,1.16
			c2.318,5.793,56.994,56.717,99.879,76.422c42.885,19.703,119.848,14.648,146.508,11.172
			c26.658-3.479-246.387,165.082-249.863,165.082c-3.479,0-385.971-59.113-385.971-59.113L912.44,81.829z"/>
	</defs>
	<clipPath id="SVGID_2_">
		<use xlink:href="#SVGID_1_"  overflow="visible"/>
	</clipPath>
	<path clip-path="url(#SVGID_2_)" fill="#FFFFFF" d="M1073.278-5.12c0,0,18.545,5.406,29.361-0.777
		c10.818-6.18,21.637-13.906,21.637-9.271c0,4.639-3.863,11.594,0.773,11.594s23.182-3.863,23.182-1.545
		c0,2.316-7.729,16.225-10.818,20.086c-3.092,3.867,11.592-1.543,17.771-4.633c6.184-3.09,9.273-10.818,9.273-5.408
		c0,5.408-6.955,18.543-7.727,23.182c-0.775,4.633-5.41,4.633-0.775,4.633c4.637,0,33.229-14.68,36.32-28.586
		c3.09-13.912,3.09-17.773,3.09-17.773s2.316,3.861,6.953,1.543c4.637-2.316,6.957-4.637,8.502-0.771
		c1.545,3.861,7.725,13.908,15.453,11.59c7.729-2.316,10.818,5.408,10.045,9.273c-0.771,3.861,5.408,13.908,16.23,17.773
		c10.812,3.861,28.586,10.818,32.449,10.818c3.865,0-24.727-19.318-30.133-27.82c-5.41-8.5,3.863-5.41,6.18-1.543
		c2.316,3.861,13.91,13.135,21.637,16.225s18.549,8.5,22.41,10.045c3.859,1.545,2.318-1.545,0-4.635
		c-2.32-3.09-20.867-11.59-23.184-30.137c-2.316-18.545-20.09-51.768-22.408-54.861s-61.043-25.498-63.361-25.498
		s-27.816-1.545-34,0c-6.184,1.541-51,9.27-54.09,12.363c-3.092,3.09-15.455,13.908-17,16.225S1073.278-5.12,1073.278-5.12z"/>
	<path opacity="0.3" clip-path="url(#SVGID_2_)" fill="#BEBDB0" d="M1302.772,69.833c0,0-55.635-14.684-71.088-38.637
		c-15.455-23.953-34.773-76.498-34.773-81.137c0-4.635-12.75-34.193-9.658-30.328c3.09,3.867,8.693,3.867,6.373-2.316
		c-2.316-6.184,20.285,31.1,20.285,31.1s21.635,23.957,20.863,18.545c-0.771-5.41-3.863-28.59-3.863-28.59
		s115.875,73.582,138.279,77.443c22.408,3.859,66.246,16.252,57.746,19.342s-44.32,11.82-82.734,4.729
		c-10.559-1.949-32.352-8.979-32.352-8.979s11.98,15.646,19.707,20.281s-13.328,0.773-24.146-4.635
		c-10.818-5.41,15.451,16.225-25.115-6.955c-7.133-4.074-7.865-0.018-12.172-1.74c-8.691-3.477-10.623-2.127-8.305-0.578
		c2.316,1.545,43.273,23.953,57.953,29.365C1334.454,72.15,1312.821,72.15,1302.772,69.833z"/>
	<path opacity="0.3" clip-path="url(#SVGID_2_)" fill="#BEBDB0" d="M1116.55,16.515c0,0,13.137-19.322,14.682-27.045
		c1.545-7.729,10.043-16.998,3.861-18.16c-6.18-1.16-11.59-8.883-13.906-2.318c-2.32,6.57,2.316,20.479,0.771,26.66
		C1120.413,1.835,1116.55,16.515,1116.55,16.515z"/>
</g>
<path opacity="0.8" fill="#FFFFFF" d="M1253.208-9.643h250.541c0,0,6.412-0.535,2.143-2.672c-4.275-2.137-24.041-6.406-32.586-6.406
	c-8.549,0-15.623,1.006-21.902-3.703c-5.404-4.051-17.264-3.918-32.957-6.273c-3.213-0.48-56.369-5.867-56.369-5.867l-17.391-0.41
	c0,0-61.992-3.143-91.479,13.582c-6.607,3.746-6.945,2.666-13.887,4.805c-6.947,2.137-13.359,6.41-8.551,6.945
	C1235.581-9.108,1253.208-9.643,1253.208-9.643z"/>
<path opacity="0.8" fill="#FFFFFF" d="M792.229-7.927h250.541c0,0,6.412-0.537,2.143-2.674c-4.275-2.135-24.041-6.404-32.586-6.404
	c-8.549,0-15.623,1.006-21.902-3.705c-5.404-4.051-17.264-3.918-32.957-6.271c-3.211-0.482-56.367-5.869-56.367-5.869l-17.391-0.41
	c0,0-61.992-3.141-91.48,13.582c-6.605,3.746-6.945,2.668-13.887,4.807c-6.947,2.137-13.359,6.408-8.549,6.945
	C774.603-7.393,792.229-7.927,792.229-7.927z"/>
</svg>
