<?xml version="1.0" encoding="utf-8"?>
<!-- Generator: Adobe Illustrator 15.1.0, SVG Export Plug-In . SVG Version: 6.00 Build 0)  -->
<!DOCTYPE svg PUBLIC "-//W3C//DTD SVG 1.1//EN" "http://www.w3.org/Graphics/SVG/1.1/DTD/svg11.dtd">
<svg version="1.1" id="foreground" xmlns="http://www.w3.org/2000/svg" xmlns:xlink="http://www.w3.org/1999/xlink" x="0px" y="0px"
	 width="2556.5px" height="235.568px" viewBox="0 0 2556.5 235.568" enable-background="new 0 0 2556.5 235.568"
	 xml:space="preserve">
<path fill="#A7BF61" d="M774,198.784c0,0-24.5-5.5-23.396-5.646c-55.906-10.521-95.239-29.068-149.5-29.068
	c-119.5,0-182.438,71.5-182.438,71.5h4.562L873,234.568L774,198.784z"/>
<path fill="#A7BF61" d="M881.25,234.222c0,0-69.835-22.581-88.501-29.581c-25.908-9.72-37.916-15.168-70.584-25.668
	c-41.216-13.248-217-82.25-337.75-106.75s-253.75-7-311.5-1.75S-2.649,77.29-2.649,77.29v156.935L881.25,234.222L881.25,234.222z"/>
<path fill="#87AA5A" d="M513.064,130.851c77.875,21.875,169.562,50.104,184.625,55.125c105,35,144.445,33.61,117.148,23.935
	c-8.174-2.896-15.141-5.402-19.439-7.017c-25.908-9.72-37.916-15.168-70.584-25.668c-41.219-13.248-217-82.25-337.75-106.75
	c-120.75-24.5-253.75-7-311.5-1.75S0,75.542,0,75.542v35.026c0,0,178.123-33.168,299.564-19.969
	C373.482,98.635,441.365,110.71,513.064,130.851z"/>
<g>
	<polyline fill="#5F7D43" points="185.942,177.709 205.403,112.937 228.062,177.709 	"/>
	<g>
		<polygon opacity="0.15" fill="#E8E8E8" enable-background="new    " points="185.354,177.427 227.149,177.427 204.948,113.941 		
			"/>
		<polygon opacity="0.15" fill="#E8E8E8" enable-background="new    " points="186,176.668 205.599,139.81 227.801,176.668 
			205.599,113.157 		"/>
	</g>
</g>
<g>
	<polyline fill="#5F7D43" points="251.406,116.968 265.086,71.437 281.014,116.968 	"/>
	<g>
		<polygon opacity="0.15" fill="#E8E8E8" enable-background="new    " points="250.993,116.769 280.373,116.769 264.765,72.143 		
			"/>
		<polygon opacity="0.15" fill="#E8E8E8" enable-background="new    " points="251.446,116.236 265.224,90.326 280.829,116.236 
			265.224,71.592 		"/>
	</g>
</g>
<g>
	<polyline fill="#5F7D43" points="331.077,115.448 344.757,69.917 360.686,115.448 	"/>
	<g>
		<polygon opacity="0.15" fill="#E8E8E8" enable-background="new    " points="330.665,115.25 360.044,115.25 344.438,70.623 		"/>
		<polygon opacity="0.15" fill="#E8E8E8" enable-background="new    " points="331.118,114.717 344.895,88.807 360.501,114.717 
			344.895,70.073 		"/>
	</g>
</g>
<g>
	<polyline fill="#5F7D43" points="94.442,163.709 113.903,98.937 136.562,163.709 	"/>
	<g>
		<polygon opacity="0.15" fill="#E8E8E8" enable-background="new    " points="93.854,163.427 135.649,163.427 113.448,99.941 		"/>
		<polygon opacity="0.15" fill="#E8E8E8" enable-background="new    " points="94.5,162.668 114.099,125.81 136.301,162.668 
			114.099,99.157 		"/>
	</g>
</g>
<g>
	<polyline fill="#5F7D43" points="37.077,121.948 50.757,76.417 66.686,121.948 	"/>
	<g>
		<polygon opacity="0.15" fill="#E8E8E8" enable-background="new    " points="36.665,121.75 66.044,121.75 50.438,77.123 		"/>
		<polygon opacity="0.15" fill="#E8E8E8" enable-background="new    " points="37.118,121.217 50.895,95.307 66.501,121.217 
			50.895,76.573 		"/>
	</g>
</g>
<g>
	<polyline fill="#5F7D43" points="543.442,192.709 562.903,127.937 585.562,192.709 	"/>
	<g>
		<polygon opacity="0.15" fill="#E8E8E8" enable-background="new    " points="542.854,192.427 584.649,192.427 562.448,128.941 		
			"/>
		<polygon opacity="0.15" fill="#E8E8E8" enable-background="new    " points="543.5,191.668 563.099,154.81 585.301,191.668 
			563.099,128.157 		"/>
	</g>
</g>
<g>
	<polyline fill="#5F7D43" points="504.577,130.448 518.257,84.917 534.186,130.448 	"/>
	<g>
		<polygon opacity="0.15" fill="#E8E8E8" enable-background="new    " points="504.165,130.25 533.544,130.25 517.938,85.623 		"/>
		<polygon opacity="0.15" fill="#E8E8E8" enable-background="new    " points="504.618,129.717 518.395,103.807 534.001,129.717 
			518.395,85.073 		"/>
	</g>
</g>
<path fill="#006796" d="M765.5,220.026c0-4.146-169.013-7.5-377.5-7.5c-208.487,0-388,3.354-388,7.5H765.5z"/>
<polygon fill="#006796" points="824,214.775 0,214.775 0,241.284 888.5,235.556 "/>
<path fill="#A7BF61" d="M2545.25,94.534c0,0-77.79,16.57-116.051,12.612c-38.262-3.958-145.129-26.39-249.357-15.832
	c-104.228,10.555-258.593,68.604-348.309,96.312s-149.087,38.264-167.559,40.9c-18.474,2.638-52.134,7.044-52.134,7.044
	l944.659-0.002V93.784L2545.25,94.534z"/>
<path fill="#87AA5A" d="M2556.5,129.941c0,0,0-37.392,0-37.393c0,0-89.04,18.554-127.301,14.596
	c-38.262-3.958-145.129-26.39-249.357-15.832c-104.228,10.555-258.593,68.604-348.309,96.312s-149.087,38.266-167.559,40.901
	c-18.474,2.639,127.179-6.819,244.52-38.703c242.761-65.968,292.955-59.828,408.999-51.896
	C2523.312,152.001,2556.5,129.941,2556.5,129.941z"/>
<g>
	<polyline fill="#5F7D43" points="2214.406,149.968 2228.086,104.437 2244.014,149.968 	"/>
	<g>
		<polygon opacity="0.15" fill="#E8E8E8" enable-background="new    " points="2213.993,149.769 2243.373,149.769 2227.765,105.143 
					"/>
		<polygon opacity="0.15" fill="#E8E8E8" enable-background="new    " points="2214.446,149.236 2228.225,123.326 2243.828,149.236 
			2228.225,104.592 		"/>
	</g>
</g>
<g>
	<polyline fill="#5F7D43" points="1970.077,202.948 1983.758,157.417 1999.686,202.948 	"/>
	<g>
		<polygon opacity="0.15" fill="#E8E8E8" enable-background="new    " points="1969.664,202.75 1999.044,202.75 1983.438,158.123 		
			"/>
		<polygon opacity="0.15" fill="#E8E8E8" enable-background="new    " points="1970.117,202.217 1983.895,176.307 1999.501,202.217 
			1983.895,157.573 		"/>
	</g>
</g>
<g>
	<polyline fill="#5F7D43" points="2439.441,193.709 2458.903,128.937 2481.562,193.709 	"/>
	<g>
		<polygon opacity="0.15" fill="#E8E8E8" enable-background="new    " points="2438.854,193.427 2480.648,193.427 2458.447,129.941 
					"/>
		<polygon opacity="0.15" fill="#E8E8E8" enable-background="new    " points="2439.5,192.668 2459.1,155.81 2481.301,192.668 
			2459.1,129.157 		"/>
	</g>
</g>
</svg>
