<?xml version="1.0" encoding="utf-8"?>
<!-- Generator: Adobe Illustrator 15.1.0, SVG Export Plug-In . SVG Version: 6.00 Build 0)  -->
<!DOCTYPE svg PUBLIC "-//W3C//DTD SVG 1.1//EN" "http://www.w3.org/Graphics/SVG/1.1/DTD/svg11.dtd">
<svg version="1.1" id="hills" xmlns="http://www.w3.org/2000/svg" xmlns:xlink="http://www.w3.org/1999/xlink" x="0px" y="0px"
	 width="2520px" height="151.3px" viewBox="0 0 2520 151.3" enable-background="new 0 0 2520 151.3" xml:space="preserve">
<rect x="258.438" y="87.814" fill="#006796" width="1648" height="63.486"/>
<g>
	<path fill="#A7BF61" d="M1722.75,99.807c0,0-90.126-4.335-94.031-4.438C1416,89.807,997.858,84.811,748,87.807
		c-29.058,0.349-77.46,5.763-86.5,9c-5.908,2.114-126.523,36.286-128.5,38.343c0.804,0.857-98.173,10.5-87.25,17.5
		C566,140.9,658.433,103.427,662,102.15c12.75-6.25,56.942-8.988,86-9.338c249.858-2.996,668,2,880.719,7.562
		c3.905,0.103,94.031,4.438,94.031,4.438s50.975,1.963,54.5,2.25c20.079,1.634,42.048,3.5,44.748,10.307
		c1.771-0.961,3.752-5.193-1.125-6.871c-4.85-3.389-18.035-6.354-43.623-8.438C1773.725,101.77,1722.75,99.807,1722.75,99.807z"/>
	<path fill="#A7BF61" d="M2520,67.808v-31c0,0-78.99,33.812-107,42.5c-20.357,6.314-61.896,16.503-83,19.5
		c-50.561,7.182-152.934,10.754-204,10.5c-31.654-0.157-95.021-5.991-126-12.5c-42.537-8.938-124.904-36.47-166.653-49.549
		c-78.598-24.623-162.569-36.12-162.569-36.12s-88.428-15.791-206.717-9.77c-97.854,4.979-314.082,49.666-401.773,51.171
		C974.589,54.045,811.429,8.894,652.35,4.378C493.271-0.137,390.021,9.098,303,24.308c-31.251,5.462-102.604,24.597-127,32.5
		c-52,16.846-87.903,15.285-105,16c-8.179,0.342-24.499-2.27-32.5-4c-10.626-2.299-38.5-13-38.5-13v91l250,4.492h0.418H447
		c0,0,124.75-19.4,180-41.65c1.976-2.057,28.592-9.727,34.5-11.842c9.04-3.237,57.442-8.65,86.5-9
		c249.858-2.996,668,2,880.719,7.562c3.905,0.103,94.031,4.438,94.031,4.438s50.975,1.963,54.5,2.25
		c25.588,2.082,38.773,5.052,43.623,8.439c17.28,12.063-71.264,29.43-81.873,30.811c-17.954,2.336-72.25,8.992-72.25,8.992
		l178.115-4.426l197.481,0.336l0.149,4.09l35.083-4.029l21.917,4.029c0,0-0.053-4.014-0.147-4.053l420.647-0.449L2520,67.808
		L2520,67.808z"/>
</g>
<path fill="#C0C289" d="M2520,139.792l-420.65,0.449c0.103,0.039,0.15,0.061,0.15,0.061l-21.917-0.036l-35.083,0.036l-0.149-0.096
	l-197.481-0.336l-70.335,0.17c-16.363,3.939-31.521,10.734-35.53,11.26c-17.954,2.336-72.25,0-72.25,0h178.115h197.481h0.149h35.083
	h21.917c0,0-0.053,0.039-0.15,0H2520V72.812v-2.304V139.792z"/>
<path opacity="0.16" fill="#606049" enable-background="new    " d="M1136.75,65.3c-87.694,1.505-325.321-56.156-484.4-60.671
	C493.271,0.113,390.021,9.348,303,24.558c-31.251,5.462-102.604,24.597-127,32.5c-52,16.846-87.903,15.285-105,16
	c-8.179,0.342-24.499-2.27-32.5-4c-10.626-2.299-38.5-13-38.5-13v91l0,0v-78.99c0,0,27.874,10.701,38.5,13
	c8.001,1.73,24.321,4.342,32.5,4c17.097-0.715,42.922-2.344,103.25-22.518C221.223,46.842,291.249,38.761,322.5,33.3
	c87.021-15.209,170.771-21.177,329.85-16.662c159.08,4.515,395.206,51.979,482.9,50.474c0,0,1.875,0.125,2.25-0.625
	C1137.995,65.497,1136.75,65.3,1136.75,65.3z"/>
<g>
	<polygon opacity="0.25" fill="#E8E8E8" enable-background="new    " points="466.637,58.455 480.801,58.455 473.275,40.535 	"/>
	<polygon opacity="0.25" fill="#E8E8E8" enable-background="new    " points="466.855,58.24 473.5,47.836 481.02,58.24 
		473.5,40.312 	"/>
</g>
<g>
	<polygon opacity="0.25" fill="#E8E8E8" enable-background="new    " points="504.27,76.598 518.434,76.598 510.908,58.678 	"/>
	<polygon opacity="0.25" fill="#E8E8E8" enable-background="new    " points="504.488,76.382 511.133,65.979 518.652,76.382 
		511.133,58.455 	"/>
</g>
<g>
	<polygon opacity="0.25" fill="#E8E8E8" enable-background="new    " points="221.004,76.382 235.168,76.382 227.643,58.463 	"/>
	<polygon opacity="0.25" fill="#E8E8E8" enable-background="new    " points="221.223,76.167 227.867,65.764 235.387,76.167 
		227.867,58.24 	"/>
</g>
<g>
	<polygon opacity="0.25" fill="#E8E8E8" enable-background="new    " points="244.473,87.839 258.637,87.839 251.111,69.92 	"/>
	<polygon opacity="0.25" fill="#E8E8E8" enable-background="new    " points="244.691,87.625 251.336,77.221 258.855,87.625 
		251.336,69.697 	"/>
</g>
<g>
	<polygon opacity="0.25" fill="#E8E8E8" enable-background="new    " points="1417.637,43.836 1431.801,43.836 1424.275,25.917 	"/>
	<polygon opacity="0.25" fill="#E8E8E8" enable-background="new    " points="1417.855,43.621 1424.5,33.217 1432.02,43.621 
		1424.5,25.694 	"/>
</g>
<g>
	<polygon opacity="0.25" fill="#E8E8E8" enable-background="new    " points="1438.653,53.844 1452.817,53.844 1445.292,35.924 	"/>
	<polygon opacity="0.25" fill="#E8E8E8" enable-background="new    " points="1438.872,53.629 1445.517,43.226 1453.036,53.629 
		1445.517,35.702 	"/>
</g>
<g>
	<polygon opacity="0.25" fill="#E8E8E8" enable-background="new    " points="1499.701,33.828 1513.865,33.828 1506.34,15.909 	"/>
	<polygon opacity="0.25" fill="#E8E8E8" enable-background="new    " points="1499.92,33.613 1506.564,23.21 1514.084,33.613 
		1506.564,15.686 	"/>
</g>
<g>
	<polygon opacity="0.25" fill="#E8E8E8" enable-background="new    " points="1529.725,74.86 1543.889,74.86 1536.363,56.941 	"/>
	<polygon opacity="0.25" fill="#E8E8E8" enable-background="new    " points="1529.943,74.646 1536.588,64.242 1544.107,74.646 
		1536.588,56.719 	"/>
</g>
<g>
	<polygon opacity="0.25" fill="#E8E8E8" enable-background="new    " points="1549.74,59.85 1563.904,59.85 1556.379,41.931 	"/>
	<polygon opacity="0.25" fill="#E8E8E8" enable-background="new    " points="1549.959,59.635 1556.604,49.231 1564.123,59.635 
		1556.604,41.708 	"/>
</g>
<g>
	<polygon opacity="0.25" fill="#E8E8E8" enable-background="new    " points="2450.896,100.234 2465.062,100.234 2457.536,82.314 	
		"/>
	<polygon opacity="0.25" fill="#E8E8E8" enable-background="new    " points="2451.116,100.02 2457.761,89.617 2465.28,100.02 
		2457.761,82.091 	"/>
</g>
<g>
	<polygon opacity="0.25" fill="#E8E8E8" enable-background="new    " points="2480.921,141.267 2495.085,141.267 2487.561,123.348 	
		"/>
	<polygon opacity="0.25" fill="#E8E8E8" enable-background="new    " points="2481.14,141.052 2487.784,130.648 2495.304,141.052 
		2487.784,123.125 	"/>
</g>
<g>
	<polygon opacity="0.25" fill="#E8E8E8" enable-background="new    " points="2500.938,126.255 2515.102,126.255 2507.575,108.337 	
		"/>
	<polygon opacity="0.25" fill="#E8E8E8" enable-background="new    " points="2501.155,126.041 2507.8,115.638 2515.319,126.041 
		2507.8,108.115 	"/>
</g>
<g>
	<polygon opacity="0.25" fill="#E8E8E8" enable-background="new    " points="265.858,67.526 280.022,67.526 272.497,49.606 	"/>
	<polygon opacity="0.25" fill="#E8E8E8" enable-background="new    " points="266.077,67.312 272.721,56.907 280.241,67.312 
		272.721,49.384 	"/>
</g>
<g>
	<polygon opacity="0.25" fill="#E8E8E8" enable-background="new    " points="515.744,46.848 529.908,46.848 522.383,28.928 	"/>
	<polygon opacity="0.25" fill="#E8E8E8" enable-background="new    " points="515.963,46.633 522.607,36.229 530.127,46.633 
		522.607,28.705 	"/>
</g>
<g>
	<polygon opacity="0.25" fill="#E8E8E8" enable-background="new    " points="619.245,87.729 633.409,87.729 625.884,69.81 	"/>
	<polygon opacity="0.25" fill="#E8E8E8" enable-background="new    " points="619.464,87.515 626.108,77.11 633.628,87.515 
		626.108,69.587 	"/>
</g>
<g>
	<polygon opacity="0.25" fill="#E8E8E8" enable-background="new    " points="631.746,61.979 645.91,61.979 638.385,44.06 	"/>
	<polygon opacity="0.25" fill="#E8E8E8" enable-background="new    " points="631.965,61.765 638.609,51.36 646.129,61.765 
		638.609,43.837 	"/>
</g>
<g>
	<rect x="1481.007" y="75.397" fill="#FBAE18" width="13.229" height="13.304"/>
	<polygon fill="#E1BF23" points="1502.617,88.701 1494.234,88.701 1494.234,75.397 1499.107,64.283 1502.676,76.098 	"/>
	<polygon fill="#606049" points="1479.848,75.397 1494.234,75.397 1499.107,64.195 1483.908,64.195 	"/>
	<rect x="1495.511" y="79.483" fill="#FBAE18" width="3.601" height="3.033"/>
	<rect x="1497.251" y="75.982" fill="#606049" width="2.901" height="3.268"/>
	<rect x="1482.632" y="75.982" fill="#606049" width="2.9" height="3.268"/>
	<rect x="1488.896" y="75.982" fill="#606049" width="2.897" height="3.268"/>
	<rect x="1486.347" y="82.984" fill="#606049" width="5.451" height="3.268"/>
	<rect x="1497.833" y="82.517" fill="#606049" width="2.437" height="6.068"/>
	<rect x="1486.17" y="58.594" fill="#F3732A" width="2.611" height="5.602"/>
</g>
<g>
	<polygon fill="#F3732A" points="732.864,61.915 732.864,80.412 707.556,80.412 707.556,58.314 727.542,51.117 	"/>
	<polygon fill="#606049" points="702.116,50.604 727.81,50.534 721.715,63.48 708.846,63.48 	"/>
	<polygon fill="#FBAE18" points="697.176,80.412 697.176,62.61 702.618,51.117 708.774,63.307 708.774,80.412 	"/>
	<polygon fill="#606049" points="702.82,50.604 701.453,50.604 695.9,63.889 697.268,63.889 	"/>
	<polygon fill="#606049" points="727.218,50.534 728.586,50.534 734.262,63.889 732.894,63.889 	"/>
	<rect x="718.143" y="63.424" fill="#FBAE18" width="3.332" height="16.753"/>
	<rect x="698.834" y="65.204" fill="#606049" width="8.207" height="3.249"/>
	<rect x="723.104" y="65.204" fill="#606049" width="8.207" height="3.249"/>
	<rect x="711.921" y="65.204" fill="#606049" width="3.21" height="3.249"/>
	<rect x="698.834" y="73.098" fill="#606049" width="8.207" height="3.248"/>
	<rect x="711.921" y="73.098" fill="#606049" width="3.21" height="3.248"/>
	<rect x="724.292" y="72.864" fill="#606049" width="3.211" height="7.43"/>
	<rect x="723.636" y="45.468" fill="#F3732A" width="2.677" height="4.875"/>
</g>
<g>
	<g>
		<rect x="764.516" y="68.772" fill="#00B6D2" width="8.458" height="12.065"/>
		<polygon fill="#606049" points="757.679,69.939 778.191,69.939 774.232,58.847 760.827,58.847 		"/>
		<polygon fill="#00B6D2" points="768.476,81.035 777.292,81.035 777.292,70.33 772.973,59.234 768.476,70.134 		"/>
		<polygon fill="#9FD5D6" points="758.58,81.035 767.396,81.035 767.396,70.33 763.078,59.234 758.58,70.134 		"/>
	</g>
	<rect x="760.892" y="69.943" fill="#606049" width="3.093" height="3.741"/>
	<rect x="771.21" y="73.817" fill="#606049" width="2.595" height="6.951"/>
</g>
<g>
	<g>
		<rect x="1409.039" y="61.004" fill="#BFBDB1" width="8.458" height="12.066"/>
		<polygon fill="#606049" points="1402.203,61.975 1422.715,61.975 1418.756,50.882 1405.351,50.882 		"/>
		<polygon fill="#BFBDB1" points="1413,73.07 1421.816,73.07 1421.816,62.365 1417.497,51.27 1413,62.169 		"/>
		<polygon fill="#E8E8E8" points="1403.104,73.07 1411.92,73.07 1411.92,62.365 1407.602,51.27 1403.104,62.169 		"/>
	</g>
	<rect x="1405.416" y="61.979" fill="#606049" width="3.09" height="3.741"/>
	<rect x="1415.734" y="65.853" fill="#606049" width="2.595" height="6.951"/>
</g>
<g>
	<polygon fill="#606049" points="810.896,59.466 786.789,59.466 793.491,49.177 804.948,49.177 	"/>
	<polygon fill="#E8E8E8" points="812.561,70.57 812.561,59.109 808.923,53.149 807.208,55.117 804.714,50.858 798.791,59.415 
		788.503,59.415 788.503,70.57 	"/>
	<rect x="788.347" y="59.263" fill="#FFFFFF" width="10.444" height="11.154"/>
	<polygon fill="#606049" points="801.441,59.262 804.767,59.262 809.443,52.641 805.911,52.641 	"/>
	<polygon fill="#606049" points="813.809,59.262 812.873,59.262 808.196,52.641 809.34,52.641 	"/>
	<rect x="802.273" y="59.059" fill="#FFFFFF" width="2.598" height="11.409"/>
	<polygon fill="#E8E8E8" points="801.785,51.154 797.766,57.426 789.24,57.396 793.604,51.184 	"/>
	<polygon fill="#414042" points="801.217,51.452 797.591,57.133 789.856,57.104 793.802,51.478 	"/>
	<polygon fill="#E8E8E8" points="797.676,51.29 793.782,57.309 793.378,57.333 797.305,51.29 	"/>
</g>
<g>
	<g>
		<polygon fill="#BDBCB0" points="1598.068,141.891 1602.599,132.378 1598.12,142.031 1598.017,141.94 1597.99,141.93 		"/>
		<polygon fill="#BDBCB0" points="1628.895,126.259 1626.213,117.507 1625.311,114.636 1606.188,125.035 1606.186,125.037 		"/>
		<polygon fill="#60604B" points="1628.895,126.259 1628.98,126.265 1628.98,126.278 1629.053,126.289 1637.52,121.134 
			1625.311,114.567 1625.336,114.648 1625.311,114.636 1626.213,117.507 		"/>
		<polygon fill="#3A3A31" points="1598.039,141.953 1598.034,141.964 1598.062,141.962 1618.054,151.232 1629.844,140.494 
			1629.878,140.492 1629.875,140.464 1629.92,140.425 1644.943,138.44 1640.591,128.044 1640.564,128.041 1629.868,140.351 
			1628.983,126.312 1629.008,126.315 1629.053,126.289 1628.98,126.278 1628.98,126.265 1628.895,126.259 1606.186,125.037 
			1606.102,125.035 1602.599,132.378 1598.068,141.891 1597.99,141.93 1598.017,141.94 1598.017,141.943 		"/>
		<polygon fill="#60604B" points="1644.943,138.44 1666.205,128.865 1668.936,135.979 1679.862,144.873 1661.764,141.246 
			1661.818,141.207 1644.943,138.44 1629.92,140.425 1629.875,140.464 1629.878,140.492 1629.844,140.494 1618.054,151.232 
			1598.062,141.962 1598.034,141.964 1598.039,141.953 1598.017,141.943 1597.99,141.998 1596.625,151.3 1683.362,151.3 
			1679.948,144.734 1669.021,135.979 1666.289,128.865 1653.997,121.205 1653.91,121.205 1640.591,128.044 		"/>
		<polygon fill="#BDBCB0" points="1661.764,141.246 1679.862,144.873 1668.936,135.979 1666.205,128.865 1644.943,138.44 
			1661.818,141.207 		"/>
		<polygon fill="#BDBCB0" points="1629.053,126.289 1629.008,126.315 1640.591,128.009 1640.564,128.041 1640.591,128.044 
			1653.91,121.205 1637.52,121.134 		"/>
		<polygon fill="#60604B" points="1640.591,128.009 1629.008,126.315 1628.983,126.312 1629.868,140.351 1640.564,128.041 		"/>
	</g>
	<g>
		<polygon fill="#BDBCB0" points="1719.443,141.891 1714.913,132.378 1719.392,142.031 1719.495,141.94 1719.521,141.93 		"/>
		<polygon fill="#3A3A31" points="1719.473,141.953 1719.479,141.964 1719.45,141.962 1699.458,151.232 1687.668,140.494 
			1687.634,140.492 1687.637,140.464 1687.592,140.425 1672.568,138.44 1676.921,128.044 1676.947,128.041 1687.645,140.351 
			1688.528,126.312 1688.504,126.315 1688.459,126.289 1688.53,126.278 1688.53,126.265 1688.617,126.259 1711.326,125.037 
			1711.41,125.035 1714.913,132.378 1719.443,141.891 1719.521,141.93 1719.495,141.94 1719.495,141.943 		"/>
		<polygon fill="#60604B" points="1672.568,138.44 1651.307,128.865 1648.577,135.979 1637.649,144.873 1655.748,141.246 
			1655.693,141.207 1672.568,138.44 1687.592,140.425 1687.637,140.464 1687.634,140.492 1687.668,140.494 1699.458,151.232 
			1719.45,141.962 1719.479,141.964 1719.473,141.953 1719.495,141.943 1719.521,141.998 1720.887,151.3 1634.149,151.3 
			1637.562,144.734 1648.491,135.979 1651.223,128.865 1663.515,121.205 1663.602,121.205 1676.921,128.044 		"/>
		<polygon fill="#BDBCB0" points="1655.748,141.246 1637.649,144.873 1648.577,135.979 1651.307,128.865 1672.568,138.44 
			1655.693,141.207 		"/>
		<polygon fill="#BDBCB0" points="1688.459,126.289 1688.504,126.315 1676.921,128.009 1676.947,128.041 1676.921,128.044 
			1663.602,121.205 1679.992,121.134 		"/>
		<polygon fill="#60604B" points="1676.921,128.009 1688.504,126.315 1688.528,126.312 1687.645,140.351 1676.947,128.041 		"/>
	</g>
</g>
</svg>
