<?xml version="1.0" encoding="utf-8"?>
<!-- Generator: Adobe Illustrator 15.0.2, SVG Export Plug-In . SVG Version: 6.00 Build 0)  -->
<!DOCTYPE svg PUBLIC "-//W3C//DTD SVG 1.1//EN" "http://www.w3.org/Graphics/SVG/1.1/DTD/svg11.dtd">
<svg version="1.1" xmlns="http://www.w3.org/2000/svg" xmlns:xlink="http://www.w3.org/1999/xlink" x="0px" y="0px"
	 width="2519.72px" height="267.528px" viewBox="0 0 2519.72 267.528" enable-background="new 0 0 2519.72 267.528"
	 xml:space="preserve">
<g id="sky" display="none">
	<rect x="-0.448" y="-170.545" display="inline" opacity="0.2" fill="#00B6D2" width="2520.002" height="438.666"/>
</g>
<g id="mountain" display="none">
	<path display="inline" opacity="0.5" fill="#BFBDB1" d="M1.68,0.023c0,0,97.495-37.498,148.492-40.498
		S384.419-11.628,416.538-2.053s87.104,35.191,156.332,0.582c51.334-25.666,73.475-31.312,157.5-15.75
		c141.75,26.25,261.152-11.48,275.428-16.973c30.137-11.592,90.408-41.727,100.84-49.842s12.75-10.432,16.229-9.273
		c3.477,1.158,9.271,3.48,13.906,2.318c4.637-1.16,47.523-42.887,47.523-42.887s4.637-5.793,10.432,1.16
		c5.795,6.955,10.432,3.479,12.75,6.955s4.637,8.115,11.59,6.955c6.955-1.158,10.432-4.637,12.75,1.16
		c2.318,5.793,70.221,70.395,115.721,82.926c53.465,14.725,119,0,175,2.334c161.738,6.744,397.221,17.363,597.332-32.666
		c6.193-1.547,59.23,33.604,65.396,33.385c104.127-3.686,177.166-6.791,184.271-7.719c1.042-0.136,92.018-1.088,149.016,21.411
		c1.396,0.551-3,286.486-3,286.486c0,1.499-1281.261-1.5-1283.936-1.5c-3.479,0-1229.938-0.001-1229.938-0.001V0.023z"/>
	<g display="inline">
		<defs>
			<path id="SVGID_1_" d="M914.12,19.529c0,0,61.543-42.133,91.678-53.723c30.137-11.592,90.408-41.727,100.84-49.842
				s12.75-10.432,16.229-9.273c3.477,1.158,9.271,3.48,13.906,2.318c4.637-1.16,47.523-42.887,47.523-42.887
				s4.637-5.793,10.432,1.16c5.795,6.955,10.432,3.479,12.75,6.955s4.637,8.115,11.59,6.955c6.955-1.158,10.432-4.637,12.75,1.16
				c2.318,5.793,56.994,56.717,99.879,76.422c42.885,19.703,119.848,14.648,146.508,11.172
				c26.658-3.479-246.387,165.082-249.863,165.082c-3.479,0-385.971-59.113-385.971-59.113L914.12,19.529z"/>
		</defs>
		<clipPath id="SVGID_2_">
			<use xlink:href="#SVGID_1_"  overflow="visible"/>
		</clipPath>
		<path clip-path="url(#SVGID_2_)" fill="#FFFFFF" d="M1074.958-67.42c0,0,18.545,5.406,29.361-0.777
			c10.818-6.18,21.637-13.906,21.637-9.271c0,4.639-3.863,11.594,0.773,11.594s23.182-3.863,23.182-1.545
			c0,2.316-7.729,16.225-10.818,20.086c-3.092,3.867,11.592-1.543,17.771-4.633c6.184-3.09,9.273-10.818,9.273-5.408
			c0,5.408-6.955,18.543-7.727,23.182c-0.775,4.633-5.41,4.633-0.775,4.633c4.637,0,33.229-14.68,36.32-28.586
			c3.09-13.912,3.09-17.773,3.09-17.773s2.316,3.861,6.953,1.543c4.637-2.316,6.957-4.637,8.502-0.771
			c1.545,3.861,7.725,13.908,15.453,11.59c7.729-2.316,10.818,5.408,10.045,9.273c-0.771,3.861,5.408,13.908,16.23,17.773
			c10.812,3.861,28.586,10.818,32.449,10.818c3.865,0-24.727-19.318-30.133-27.82c-5.41-8.5,3.863-5.41,6.18-1.543
			c2.316,3.861,13.91,13.135,21.637,16.225s18.549,8.5,22.41,10.045c3.859,1.545,2.318-1.545,0-4.635
			c-2.32-3.09-20.867-11.59-23.184-30.137c-2.316-18.545-20.09-51.768-22.408-54.861s-61.043-25.498-63.361-25.498
			s-27.816-1.545-34,0c-6.184,1.541-51,9.27-54.09,12.363c-3.092,3.09-15.455,13.908-17,16.225S1074.958-67.42,1074.958-67.42z"/>
		<path opacity="0.3" clip-path="url(#SVGID_2_)" fill="#BFBDB1" d="M1304.452,7.533c0,0-55.635-14.684-71.088-38.637
			c-15.455-23.953-34.773-76.498-34.773-81.137c0-4.635-12.75-34.193-9.658-30.328c3.09,3.867,8.693,3.867,6.373-2.316
			c-2.316-6.184,20.285,31.1,20.285,31.1s21.635,23.957,20.863,18.545c-0.771-5.41-3.863-28.59-3.863-28.59
			s115.875,73.582,138.279,77.443c22.408,3.859,66.246,16.252,57.746,19.342s-44.32,11.82-82.734,4.729
			c-10.559-1.949-32.352-8.979-32.352-8.979s11.98,15.646,19.707,20.281s-13.328,0.773-24.146-4.635
			c-10.818-5.41,15.451,16.225-25.115-6.955c-7.133-4.074-7.865-0.018-12.172-1.74c-8.691-3.477-10.623-2.127-8.305-0.578
			c2.316,1.545,43.273,23.953,57.953,29.365C1336.134,9.85,1314.501,9.85,1304.452,7.533z"/>
		<path opacity="0.3" clip-path="url(#SVGID_2_)" fill="#BFBDB1" d="M1118.229-45.785c0,0,13.137-19.322,14.682-27.045
			c1.545-7.729,10.043-16.998,3.861-18.16c-6.18-1.16-11.59-8.883-13.906-2.318c-2.32,6.57,2.316,20.479,0.771,26.66
			C1122.093-60.465,1118.229-45.785,1118.229-45.785z"/>
	</g>
	<path display="inline" opacity="0.8" fill="#FFFFFF" d="M1254.888-71.943h250.541c0,0,6.412-0.535,2.143-2.672
		c-4.275-2.137-24.041-6.406-32.586-6.406c-8.549,0-15.623,1.006-21.902-3.703c-5.404-4.051-17.264-3.918-32.957-6.273
		c-3.213-0.48-56.369-5.867-56.369-5.867l-17.391-0.41c0,0-61.992-3.143-91.479,13.582c-6.607,3.746-6.945,2.666-13.887,4.805
		c-6.947,2.137-13.359,6.41-8.551,6.945C1237.261-71.408,1254.888-71.943,1254.888-71.943z"/>
	<path display="inline" opacity="0.8" fill="#FFFFFF" d="M793.909-70.227h250.541c0,0,6.412-0.537,2.143-2.674
		c-4.275-2.135-24.041-6.404-32.586-6.404c-8.549,0-15.623,1.006-21.902-3.705c-5.404-4.051-17.264-3.918-32.957-6.271
		c-3.211-0.482-56.367-5.869-56.367-5.869l-17.391-0.41c0,0-61.992-3.141-91.48,13.582c-6.605,3.746-6.945,2.668-13.887,4.807
		c-6.947,2.137-13.359,6.408-8.549,6.945C776.282-69.693,793.909-70.227,793.909-70.227z"/>
</g>
<g id="back_mountains">
	<g>
		<path opacity="0.2" fill="#5F7D43" d="M581.62,47.529c0,0,152.25-15.75,203-21s119-12.25,141.75-7s80.5,24.5,117.25,17.5
			s77-21,115.5-12.25s68.25,29.75,94.5,29.75s201.25-38.5,302.75,12.25c24.498,12.249,141.725,68.238,281.218,84.737
			c33.433,3.954,227.979-71.225,439.478-73.497c139.493-1.499,241.488,13.5,241.488,13.5c-6,0,0.323,175.127-1.5,175.491
			c-8.75,1.75-2510.874-1.5-2510.874-1.5s-7.421-229.012-6-229.489c200.989-67.496,251.986-22.498,373.481-5.999
			C514.914,49.204,581.62,47.529,581.62,47.529z"/>
		<path opacity="0.06" fill="#606049" d="M1.485,63.18C1.143,46.761,1.044,36.289,1.347,36.188
			c200.989-67.496,251.986-22.498,373.481-5.999C516.08,49.37,582.787,47.695,582.787,47.695s152.25-15.75,203-21
			s119-12.25,141.75-7s80.5,24.5,117.25,17.5s77-21,115.5-12.25s68.25,29.75,94.5,29.75c26.25,0,201.25-38.5,302.75,12.25
			c24.498,12.249,141.725,68.238,281.219,84.737c33.432,3.954,227.979-71.225,439.477-73.497
			c139.494-1.499,241.488,13.5,241.488,13.5c-1.488,0-2.219,10.779-2.502,26.996c0,0-187.984-31.497-325.979-17.998
			c-137.992,13.499-292.486,59.997-352.482,59.997s-218.988-38.998-272.986-67.497c-53.996-28.499-164.99-46.497-223.488-37.498
			c-58.496,8.999-79.496,17.998-110.994,7.499s-101.995-26.999-139.493-20.999s-113.995,4.5-152.993,0s-197.99,0.001-295.485,12
			s-205.49,17.999-304.485-6S115.344,12.188,70.346,25.687S1.485,63.18,1.485,63.18z"/>
	</g>
</g>
<g id="lake" display="none">
	<path display="inline" fill="#A7BF61" d="M1.681,7.522c0,0,815.93,123.521,914.189,129.257s250.25,17.5,495.25-68.25
		s292.25-120.75,420-117.25s192.5,42,274.75,49s161-10.5,199.5-47.25s79.912-77.834,98-75.25c12.25,1.75,43.75,36.75,59.5,36.75
		s26.25,5.25,33.25,10.5s22.75,14,22.75,14v329.582H3.181L1.681,7.522z"/>
	<path display="inline" opacity="0.15" fill="#606049" d="M2517.37-31.476v-29.495c0,0-15.75-8.75-22.75-14s-17.5-10.5-33.25-10.5
		s-47.25-35-59.5-36.75c-18.088-2.584-59.5,38.5-98,75.25s-117.25,54.25-199.5,47.25s-147-45.5-274.75-49s-175,31.5-420,117.25
		s-396.99,73.986-495.25,68.25S0.181,7.522,0.181,7.522L0.285,25.5c0,0,244.385,40.52,452.875,69.019s355.482,62.996,598.47,55.497
		s304.484-40.498,404.979-71.996s185.991-110.994,323.984-107.994s289.498,61.933,349.482,59.997
		c46.498-1.5,86.503-10.053,127.493-31.499c31.489-16.476,91.508-75.917,106.495-86.995c34.498-25.499,61.496-4.501,70.496,5.999
		s29.998,34.499,40.498,34.499s19.499,2.999,25.499,10.499s16.499,17.999,16.499,17.999L2517.37-31.476z"/>
	<path display="inline" opacity="0.5" fill="#E8E8E8" d="M1436.208,266.279c0,0,312.666-132.996,536.666-144.666
		c224-11.668,298.664-2.338,357,2.332c58.334,4.668-730.336,147-730.336,147L1436.208,266.279z"/>
	<path display="inline" fill="#006796" d="M1486.37,267.445c0,0,206.5-94.5,409.5-122.5s374.5-16.334,465.5-5.834
		s157.5,1.168,157.5,1.168v128.332L1486.37,267.445z"/>
	<polygon display="inline" fill="#E8E8E8" points="2520.036,176.447 2297.202,148.445 2297.202,107.613 2520.036,123.947 	"/>
	<path display="inline" opacity="0.2" fill="#E8E8E8" d="M1975.655,205.863c0,0,6.443,2.594,19.473,2.594
		c15.613,0,24.764-7.799,24.764-7.799s14.959,10.406,26.67,9.758s18.219-3.902,18.219-3.902s-15.994,10.055-28.627,7.156
		c-10.705-2.457-14.959-7.156-14.959-7.156s-16.264,7.156-27.973,5.854C1981.511,211.064,1975.655,205.863,1975.655,205.863z"/>
	<path display="inline" opacity="0.2" fill="#E8E8E8" d="M2071.933,183.746c0,0,16.16,5.416,28.623,1.951
		c6.545-1.822,9.758-5.205,9.758-5.205s10.408,6.508,16.264,7.156c5.854,0.65,12.359-0.652,12.359-0.652s-9.756,5.209-16.914,4.557
		c-7.156-0.652-11.057-4.557-11.057-4.557s-11.717,3.5-18.867,3.254C2082.331,189.916,2071.933,183.746,2071.933,183.746z"/>
	<path display="inline" opacity="0.2" fill="#E8E8E8" d="M1928.433,184.326c0,0,16.16,5.418,28.623,1.953
		c6.545-1.822,9.758-5.207,9.758-5.207s10.408,6.508,16.264,7.158c5.854,0.648,12.359-0.654,12.359-0.654s-9.756,5.211-16.914,4.557
		c-7.156-0.652-11.057-4.557-11.057-4.557s-11.717,3.5-18.867,3.254C1938.831,190.496,1928.433,184.326,1928.433,184.326z"/>
	<g display="inline" opacity="0.2">
		<polygon fill="#87AA5A" points="2428.188,30.693 2462.562,30.693 2444.304,-12.811 		"/>
		<polygon fill="#A7BF61" points="2428.722,30.158 2444.837,4.914 2463.097,30.158 2444.837,-13.346 		"/>
	</g>
	<g display="inline">
		<polygon opacity="0.3" fill="#E8E8E8" points="1851.563,19.416 1885.698,19.416 1867.565,-23.783 		"/>
		<polygon opacity="0.3" fill="#E8E8E8" points="1852.093,18.887 1868.097,-6.182 1886.228,18.887 1868.097,-24.312 		"/>
	</g>
	<g display="inline">
		<polygon opacity="0.3" fill="#E8E8E8" points="1821.231,36.916 1855.366,36.916 1837.235,-6.283 		"/>
		<polygon opacity="0.3" fill="#E8E8E8" points="1821.761,36.387 1837.765,11.318 1855.897,36.387 1837.765,-6.812 		"/>
	</g>
	<g display="inline">
		<polygon opacity="0.3" fill="#E8E8E8" points="1773.401,20.586 1807.536,20.586 1789.403,-22.615 		"/>
		<polygon opacity="0.3" fill="#E8E8E8" points="1773.931,20.057 1789.933,-5.012 1808.065,20.057 1789.933,-23.145 		"/>
	</g>
	<g display="inline">
		<polygon opacity="0.3" fill="#E8E8E8" points="1720.901,96.416 1755.036,96.416 1736.903,53.217 		"/>
		<polygon opacity="0.3" fill="#E8E8E8" points="1721.431,95.887 1737.433,70.818 1755.565,95.887 1737.433,52.688 		"/>
	</g>
	<g display="inline">
		<polygon opacity="0.3" fill="#E8E8E8" points="1678.901,84.752 1713.036,84.752 1694.903,41.551 		"/>
		<polygon opacity="0.3" fill="#E8E8E8" points="1679.431,84.221 1695.433,59.154 1713.565,84.221 1695.433,41.021 		"/>
	</g>
	<g display="inline">
		<polygon opacity="0.3" fill="#E8E8E8" points="1684.735,40.42 1718.87,40.42 1700.737,-2.779 		"/>
		<polygon opacity="0.3" fill="#E8E8E8" points="1685.265,39.891 1701.269,14.822 1719.401,39.891 1701.269,-3.311 		"/>
	</g>
	<g display="inline">
		<polygon opacity="0.3" fill="#E8E8E8" points="1607.735,57.92 1641.87,57.92 1623.737,14.721 		"/>
		<polygon opacity="0.3" fill="#E8E8E8" points="1608.265,57.391 1624.269,32.322 1642.401,57.391 1624.269,14.189 		"/>
	</g>
	<g display="inline">
		<polygon opacity="0.3" fill="#E8E8E8" points="1612.401,87.086 1646.536,87.086 1628.403,43.885 		"/>
		<polygon opacity="0.3" fill="#E8E8E8" points="1612.931,86.557 1628.933,61.488 1647.065,86.557 1628.933,43.355 		"/>
	</g>
	<g display="inline">
		<polygon opacity="0.3" fill="#E8E8E8" points="1645.069,109.252 1679.206,109.252 1661.073,66.051 		"/>
		<polygon opacity="0.3" fill="#E8E8E8" points="1645.601,108.721 1661.603,83.654 1679.735,108.721 1661.603,65.521 		"/>
	</g>
	<g display="inline">
		<polygon opacity="0.3" fill="#E8E8E8" points="1570.405,155.916 1604.54,155.916 1586.407,112.717 		"/>
		<polygon opacity="0.3" fill="#E8E8E8" points="1570.935,155.387 1586.937,130.318 1605.069,155.387 1586.937,112.188 		"/>
	</g>
	<g display="inline">
		<polygon opacity="0.3" fill="#E8E8E8" points="1502.735,148.916 1536.87,148.916 1518.737,105.717 		"/>
		<polygon opacity="0.3" fill="#E8E8E8" points="1503.265,148.387 1519.269,123.318 1537.401,148.387 1519.269,105.188 		"/>
	</g>
	<g display="inline">
		<polygon opacity="0.3" fill="#E8E8E8" points="1499.235,182.752 1533.37,182.752 1515.237,139.551 		"/>
		<polygon opacity="0.3" fill="#E8E8E8" points="1499.765,182.221 1515.769,157.154 1533.901,182.221 1515.769,139.021 		"/>
	</g>
	<g display="inline">
		<polygon opacity="0.3" fill="#E8E8E8" points="1422.235,179.252 1456.37,179.252 1438.237,136.051 		"/>
		<polygon opacity="0.3" fill="#E8E8E8" points="1422.765,178.721 1438.769,153.654 1456.901,178.721 1438.769,135.521 		"/>
	</g>
	<g display="inline">
		<polygon opacity="0.3" fill="#E8E8E8" points="1361.569,157.082 1395.706,157.082 1377.573,113.883 		"/>
		<polygon opacity="0.3" fill="#E8E8E8" points="1362.101,156.553 1378.103,131.484 1396.235,156.553 1378.103,113.354 		"/>
	</g>
	<g display="inline">
		<polygon opacity="0.3" fill="#E8E8E8" points="2018.401,85.916 2052.536,85.916 2034.403,42.717 		"/>
		<polygon opacity="0.3" fill="#E8E8E8" points="2018.931,85.387 2034.933,60.318 2053.065,85.387 2034.933,42.188 		"/>
	</g>
	<g display="inline">
		<polygon opacity="0.3" fill="#E8E8E8" points="2261.069,78.916 2295.206,78.916 2277.073,35.717 		"/>
		<polygon opacity="0.3" fill="#E8E8E8" points="2261.601,78.387 2277.603,53.318 2295.735,78.387 2277.603,35.188 		"/>
	</g>
	<g display="inline">
		<polygon opacity="0.3" fill="#E8E8E8" points="2222.569,83.586 2256.706,83.586 2238.573,40.385 		"/>
		<polygon opacity="0.3" fill="#E8E8E8" points="2223.101,83.057 2239.103,57.988 2257.235,83.057 2239.103,39.855 		"/>
	</g>
	<g display="inline">
		<polygon opacity="0.3" fill="#E8E8E8" points="2207.405,61.416 2241.54,61.416 2223.407,18.217 		"/>
		<polygon opacity="0.3" fill="#E8E8E8" points="2207.935,60.887 2223.937,35.818 2242.069,60.887 2223.937,17.688 		"/>
	</g>
	<g display="inline">
		<polygon opacity="0.3" fill="#E8E8E8" points="2140.905,64.916 2175.04,64.916 2156.907,21.717 		"/>
		<polygon opacity="0.3" fill="#E8E8E8" points="2141.435,64.387 2157.437,39.318 2175.569,64.387 2157.437,21.188 		"/>
	</g>
	<rect x="1808.954" y="98.279" display="inline" fill="#E8E8E8" width="33.25" height="33.25"/>
	<polygon display="inline" fill="#BFBDB1" points="1863.276,131.529 1842.204,131.529 1842.204,98.279 1854.454,70.498 
		1863.423,100.029 	"/>
	<polygon display="inline" fill="#606049" points="1806.038,98.279 1842.204,98.279 1854.454,70.279 1816.245,70.279 	"/>
	<polygon display="inline" fill="#606049" points="1863.058,98.279 1866.776,98.279 1856.495,70.279 1853.433,70.279 	"/>
	<rect x="1845.413" y="108.488" display="inline" fill="#E8E8E8" width="9.041" height="7.582"/>
	<rect x="1849.788" y="99.738" display="inline" fill="#606049" width="7.291" height="8.166"/>
	<rect x="1813.038" y="99.738" display="inline" fill="#606049" width="7.291" height="8.166"/>
	<rect x="1828.788" y="99.738" display="inline" fill="#606049" width="7.291" height="8.166"/>
	<rect x="1822.374" y="117.238" display="inline" fill="#606049" width="13.705" height="8.166"/>
	<rect x="1851.249" y="116.07" display="inline" fill="#606049" width="6.125" height="15.168"/>
	<rect x="1821.933" y="56.279" display="inline" fill="#F3732A" width="6.562" height="14"/>
	<g display="inline">
		<polygon fill="#FBAE18" points="1723.905,120.951 1723.905,161.861 1669.276,161.861 1669.276,112.986 1712.417,97.066 		"/>
		<polygon fill="#606049" points="1657.534,95.932 1712.995,95.777 1699.839,124.412 1672.062,124.412 		"/>
		<polygon fill="#EBCC2D" points="1646.87,161.861 1646.87,122.488 1658.618,97.066 1671.905,124.029 1671.905,161.861 		"/>
		<polygon fill="#606049" points="1659.054,95.932 1656.103,95.932 1644.116,125.314 1647.069,125.314 		"/>
		<polygon fill="#606049" points="1711.718,95.777 1714.671,95.777 1726.921,125.314 1723.968,125.314 		"/>
		<rect x="1692.128" y="124.287" fill="#EBCC2D" width="7.191" height="37.057"/>
		<rect x="1650.45" y="128.225" fill="#606049" width="17.715" height="7.188"/>
		<rect x="1702.833" y="128.225" fill="#606049" width="17.717" height="7.188"/>
		<rect x="1678.698" y="128.225" fill="#606049" width="6.93" height="7.188"/>
		<rect x="1650.45" y="145.684" fill="#606049" width="17.715" height="7.188"/>
		<rect x="1678.698" y="145.684" fill="#606049" width="6.93" height="7.188"/>
		<rect x="1705.401" y="145.17" fill="#606049" width="6.93" height="16.434"/>
		<rect x="1703.985" y="84.57" fill="#F3732A" width="5.779" height="10.783"/>
	</g>
	<g display="inline">
		<rect x="1901.511" y="89.604" fill="#00B6D2" width="19.963" height="26.33"/>
		<polygon fill="#606049" points="1885.374,92.15 1933.788,92.15 1924.444,67.945 1892.804,67.945 		"/>
		<polygon fill="#00B6D2" points="1910.858,116.361 1931.667,116.361 1931.667,93.002 1921.474,68.793 1910.858,92.574 		"/>
		<polygon fill="#9FD5D6" points="1887.499,116.361 1908.308,116.361 1908.308,93.002 1898.116,68.793 1887.499,92.574 		"/>
	</g>
	<rect x="1892.958" y="92.158" display="inline" fill="#606049" width="7.291" height="8.164"/>
	<rect x="1917.312" y="100.611" display="inline" fill="#606049" width="6.125" height="15.168"/>
	<path display="inline" opacity="0.5" fill="#E8E8E8" d="M2312.37-52.221c0,0,33.541-34.416,54.834-51.041
		c15.727-12.277,29.064-20.947,38.207-18.666c4.668,1.166,11.084,7.875,23.625,17.211c5.957,4.434,12.543,9.33,23.043,16.33
		c1.775,1.18,5.496,2.205,9.041,2.625c6.303,0.752,14.023,0.729,23.334,4.375c7.83,3.066,16.041,8.967,22.457,13.125
		c7.061,4.58,11.959,7.291,11.959,7.291s-22.75,0-31.5-3.5s-19.25-8.75-28,0s-15.75,12.25-19.25,1.75s-8.75-36.75-19.25-22.75
		s-35,31.5-36.75,21s14-43.75,0-31.5S2312.37-52.221,2312.37-52.221z"/>
	<rect x="2375.555" y="115.613" display="inline" opacity="0.15" fill="#606049" width="10" height="44.493"/>
	<rect x="2313.568" y="110.041" display="inline" opacity="0.15" fill="#606049" width="10" height="42.999"/>
	<rect x="2343.63" y="112.743" display="inline" opacity="0.15" fill="#606049" width="10" height="42.999"/>
	<rect x="2415.022" y="119.04" display="inline" opacity="0.15" fill="#606049" width="10" height="46.583"/>
	<rect x="2458.257" y="122.08" display="inline" opacity="0.15" fill="#606049" width="10" height="47.934"/>
	<rect x="2503.18" y="124.106" display="inline" opacity="0.15" fill="#606049" width="10" height="50.973"/>
	<polygon display="inline" fill="#FFFFFF" points="2519.528,121.271 2316.861,105.938 2317.195,94.938 2297.195,94.938 
		2297.195,107.604 2519.861,123.938 	"/>
</g>
<g id="forest" display="none">
	<polyline display="inline" fill="#87AA5A" points="545.745,7.279 555.86,-19.498 575.933,23.904 	"/>
	<polyline display="inline" fill="#87AA5A" points="392.62,-81.096 403.702,-110.371 425.87,-61.846 	"/>
	<polyline display="inline" fill="#87AA5A" points="331.952,-102.096 343.036,-131.371 365.202,-82.846 	"/>
	<path display="inline" fill="#87AA5A" d="M751.372,120.447c0,0-318.502-176.168-375.668-212.334s-126-78.166-126-78.166
		s-110.176-78.01-167.176-85.01s-82.49,9-82.49,9v513.51h711.666L751.372,120.447z"/>
	<g display="inline">
		<polygon opacity="0.3" fill="#E8E8E8" points="29.017,78.223 117.251,78.223 70.382,-112.961 		"/>
		<polygon opacity="0.3" fill="#E8E8E8" points="30.388,75.881 71.751,-35.062 118.62,75.881 71.751,-115.311 		"/>
	</g>
	<g display="inline">
		<polygon opacity="0.3" fill="#E8E8E8" points="156.183,76.107 215.446,76.107 183.968,-96.914 		"/>
		<polygon opacity="0.3" fill="#E8E8E8" points="157.103,73.984 184.886,-26.416 216.366,73.984 184.886,-99.037 		"/>
	</g>
	<g display="inline">
		<polygon opacity="0.3" fill="#E8E8E8" points="248.538,192.779 294.12,192.779 269.909,63.533 		"/>
		<polygon opacity="0.3" fill="#E8E8E8" points="249.245,191.201 270.616,116.199 294.829,191.201 270.616,61.953 		"/>
	</g>
	<g display="inline">
		<polygon opacity="0.3" fill="#E8E8E8" points="255.349,32.945 314.614,32.945 283.134,-42.057 		"/>
		<polygon opacity="0.3" fill="#E8E8E8" points="256.271,32.025 284.054,-11.496 315.532,32.025 284.054,-42.975 		"/>
	</g>
	<polygon display="inline" fill="#606049" points="89.87,234.779 82.87,47.529 103.87,42.279 81.12,35.279 79.37,3.779 96.87,0.279 
		81.12,-8.471 75.87,-78.471 73.964,-21.637 51.37,-29.471 72.37,-17.221 77.62,236.529 	"/>
	<polygon display="inline" fill="#606049" points="277.702,237.113 275.37,162.445 271.87,125.113 271.87,238.279 	"/>
	<polygon display="inline" fill="#606049" points="194.87,115.779 192.538,32.945 203.038,22.445 190.202,25.945 185.538,-16.055 
		186.702,53.945 171.538,39.945 187.87,62.113 190.202,115.779 	"/>
	<path display="inline" opacity="0.17" fill="#606049" d="M212.195-169.396c0,0,188,137.999,238.667,185.333s106,95.333,99.333,136
		s-38,74.667-56.667,82.667c0,0.667,108-26.667,142.667-40.667s64.666-37.333,75.333-55.333s6-31.333-4.667-41.333s-38-22-45.333-26
		s-85.596-47.367-85.596-47.367L555.86-19.498L543.528,6.604L425.87-61.846l-22.168-48.525L392.62-81.096l-38.425-24.3
		l-11.159-25.976l-7.508,15.309l-85.824-53.991c0,0-71.176-47.01-98.176-61.01s-40-17-40-17L212.195-169.396z"/>
	<g display="inline">
		<polygon opacity="0.3" fill="#E8E8E8" points="351.017,-2.055 410.28,-2.055 378.802,-77.057 		"/>
		<polygon opacity="0.3" fill="#E8E8E8" points="351.938,-2.975 379.722,-46.496 411.2,-2.975 379.722,-77.975 		"/>
	</g>
	<g display="inline">
		<polygon opacity="0.3" fill="#E8E8E8" points="442.017,77.275 501.28,77.275 469.802,2.275 		"/>
		<polygon opacity="0.3" fill="#E8E8E8" points="442.938,76.357 470.722,32.836 502.2,76.357 470.722,1.355 		"/>
	</g>
	<g display="inline">
		<polygon opacity="0.3" fill="#E8E8E8" points="381.349,93.611 440.614,93.611 409.134,18.609 		"/>
		<polygon opacity="0.3" fill="#E8E8E8" points="382.271,92.691 410.054,49.17 441.532,92.691 410.054,17.689 		"/>
	</g>
</g>
<g id="road" display="none">
	<path display="inline" fill="#808A94" d="M339.245,268.904c0,0,263.375-52.5,322.875-86.625s57.75-65.625,53.375-74.375
		c-2.73-5.459-9.551-11.602-14.291-15.449c-1.314-1.066-6.498-3.152-7.363-3.805c-1.01-0.758,2.404,0.004,2.404,0.004
		s156.625,10.5,324.625,70s210.875,110.25,210.875,110.25H339.245z"/>
	<path display="inline" fill="#808A94" d="M891.37,268.029"/>
	<path display="inline" fill="#EBCC2D" d="M892.511,268.826c0,0,5.223-15.211,2.797-32.734c-1.387-10.016-4.438-21.383-9.18-32.812
		c-6.615-15.928-16.514-31.969-29.758-44.625c-39.375-37.625-105.875-53.375-128.625-60.375s-26.25-7-26.25-7
		s105.469,16.566,166.688,66.938c17.154,14.117,27.564,27.385,35.438,42.438c7.99,15.277,12.018,30.119,14,39.375
		c2.592,12.1,2.508,28.971,2.508,28.971L892.511,268.826z"/>
	<path display="inline" fill="#808A94" d="M902.163,268.832c0,0,1.625-10.916,0.582-27.924c-0.594-9.719-2.527-17.828-6.418-29.17
		c-3.5-10.205-8.449-20.131-18.082-32.666c-27.125-35.289-59.207-47.834-76.418-56.584c-10.621-5.4-71.457-24.5-71.457-24.5
		s101.793,21.295,149.332,76.709c7.953,9.27,11.688,14.496,19.543,29.461c6.125,11.668,9.645,27.473,10.5,36.455
		c1.113,11.744,1.168,28,1.168,28L902.163,268.832z"/>
	<path display="inline" fill="#FFFFFF" d="M693.894,87.051c0,0,93.168,7.701,201.045,30.119s236.77,67.25,318.729,123.99
		c30.121,21.014,37.127,28.021,37.127,28.021l11.576-0.277c0,0-37.496-29.846-75.322-52.262
		c-37.826-22.414-151.309-72.854-278.1-99.473S686.888,85.65,686.888,85.65L693.894,87.051z"/>
	<rect x="1210.308" y="237.842" display="inline" fill="#FFFFFF" width="6.125" height="16.188"/>
	<rect x="1173.995" y="213.779" display="inline" fill="#FFFFFF" width="6.125" height="16.188"/>
	<rect x="1142.003" y="197.592" display="inline" fill="#FFFFFF" width="5.359" height="14.164"/>
	<rect x="1108.21" y="184.17" display="inline" fill="#FFFFFF" width="4.312" height="11.398"/>
	<rect x="1084.147" y="173.232" display="inline" fill="#FFFFFF" width="4.312" height="11.398"/>
	<rect x="1064.435" y="166.67" display="inline" fill="#FFFFFF" width="3.918" height="10.359"/>
	<rect x="1047.226" y="159.67" display="inline" fill="#FFFFFF" width="3.92" height="10.359"/>
	<rect x="1028.269" y="152.088" display="inline" fill="#FFFFFF" width="3.918" height="10.359"/>
	<rect x="1010.368" y="146.113" display="inline" fill="#FFFFFF" width="3.752" height="9.92"/>
	<rect x="994.116" y="141.447" display="inline" fill="#FFFFFF" width="3.42" height="9.041"/>
	<rect x="980.698" y="137.363" display="inline" fill="#FFFFFF" width="3.42" height="9.041"/>
	<rect x="965.474" y="133.205" display="inline" fill="#FFFFFF" width="3.117" height="8.24"/>
	<rect x="953.552" y="129.998" display="inline" fill="#FFFFFF" width="2.896" height="7.656"/>
	<rect x="940.427" y="126.498" display="inline" fill="#FFFFFF" width="2.896" height="7.656"/>
	<rect x="927.919" y="123.363" display="inline" fill="#FFFFFF" width="2.646" height="7"/>
	<rect x="918.339" y="121.033" display="inline" fill="#FFFFFF" width="2.648" height="7"/>
	<rect x="906.745" y="117.971" display="inline" fill="#FFFFFF" width="2.648" height="7"/>
	<rect x="895.589" y="115.346" display="inline" fill="#FFFFFF" width="2.648" height="7"/>
	<rect x="885.308" y="112.939" display="inline" fill="#FFFFFF" width="2.648" height="7"/>
	<rect x="874.345" y="111.189" display="inline" fill="#FFFFFF" width="2.482" height="6.559"/>
	<rect x="864.231" y="109.439" display="inline" fill="#FFFFFF" width="2.234" height="5.902"/>
	<rect x="854.7" y="108.346" display="inline" fill="#FFFFFF" width="1.795" height="4.74"/>
	<rect x="847.044" y="107.033" display="inline" fill="#FFFFFF" width="1.795" height="4.74"/>
	<rect x="838.294" y="105.283" display="inline" fill="#FFFFFF" width="1.795" height="4.74"/>
	<rect x="829.981" y="103.752" display="inline" fill="#FFFFFF" width="1.795" height="4.74"/>
	<rect x="822.544" y="101.783" display="inline" fill="#FFFFFF" width="1.795" height="4.74"/>
	<rect x="816.2" y="101.127" display="inline" fill="#FFFFFF" width="1.795" height="4.74"/>
	<rect x="807.888" y="99.377" display="inline" fill="#FFFFFF" width="1.795" height="4.74"/>
	<rect x="801.603" y="99.158" display="inline" fill="#FFFFFF" width="1.459" height="3.852"/>
	<rect x="795.915" y="98.064" display="inline" fill="#FFFFFF" width="1.459" height="3.852"/>
	<rect x="789.571" y="97.408" display="inline" fill="#FFFFFF" width="1.459" height="3.852"/>
	<rect x="783.884" y="96.314" display="inline" fill="#FFFFFF" width="1.459" height="3.852"/>
	<rect x="777.978" y="95.658" display="inline" fill="#FFFFFF" width="1.459" height="3.852"/>
	<rect x="772.509" y="94.346" display="inline" fill="#FFFFFF" width="1.459" height="3.852"/>
	<rect x="767.841" y="94.15" display="inline" fill="#FFFFFF" width="1.174" height="3.1"/>
	<rect x="763.54" y="93.42" display="inline" fill="#FFFFFF" width="1.174" height="3.1"/>
	<rect x="757.56" y="92.473" display="inline" fill="#FFFFFF" width="1.174" height="3.1"/>
	<rect x="753.259" y="91.889" display="inline" fill="#FFFFFF" width="1.174" height="3.1"/>
	<rect x="748.812" y="91.67" display="inline" fill="#FFFFFF" width="1.012" height="2.672"/>
	<rect x="745.093" y="91.16" display="inline" fill="#FFFFFF" width="1.012" height="2.672"/>
	<rect x="739.843" y="90.504" display="inline" fill="#FFFFFF" width="1.012" height="2.672"/>
	<rect x="735.687" y="89.92" display="inline" fill="#FFFFFF" width="1.012" height="2.672"/>
	<rect x="731.677" y="89.482" display="inline" fill="#FFFFFF" width="1.012" height="2.672"/>
	<rect x="727.45" y="88.896" display="inline" fill="#FFFFFF" width="1.012" height="2.674"/>
	<rect x="723.208" y="88.873" display="inline" fill="#FFFFFF" width="0.854" height="2.26"/>
	<rect x="719.708" y="88.508" display="inline" fill="#FFFFFF" width="0.854" height="2.26"/>
	<rect x="716.208" y="88.145" display="inline" fill="#FFFFFF" width="0.854" height="2.26"/>
	<rect x="711.687" y="87.633" display="inline" fill="#FFFFFF" width="0.855" height="2.26"/>
	<rect x="706.364" y="87.123" display="inline" fill="#FFFFFF" width="0.854" height="2.26"/>
	<rect x="702.28" y="86.686" display="inline" fill="#FFFFFF" width="0.855" height="2.26"/>
	<rect x="698.636" y="86.467" display="inline" fill="#FFFFFF" width="0.855" height="2.26"/>
	<rect x="694.114" y="86.104" display="inline" fill="#FFFFFF" width="0.854" height="2.26"/>
</g>
<g id="cars" display="none">
	<polygon display="inline" opacity="0.4" fill="#414042" points="819.847,111.715 790.159,104.318 778.718,105.262 777.448,105.873 
		778.667,106.775 795.151,113.791 796.569,114.238 798.347,114.389 819.183,114.248 821.151,113.373 	"/>
	<polygon display="inline" opacity="0.4" fill="#414042" points="909.452,141.615 861.136,128.74 842.515,130.381 840.448,131.447 
		842.431,133.016 869.259,145.221 871.567,146.004 874.46,146.268 908.651,146.186 911.495,144.873 	"/>
	<path display="inline" fill="#414042" d="M814.204,104.764c-0.004,0-0.012,0.004-0.018,0.004v-0.039h-1.654v7.51h1.654l0,0
		c0.006,0,0.014,0.01,0.018,0.01c0.652,0,1.18-1.678,1.18-3.742S814.856,104.764,814.204,104.764z"/>
	<path display="inline" fill="#414042" d="M813.827,108.469c0,2.084-0.523,3.779-1.166,3.779c-0.645,0-1.168-1.695-1.168-3.779
		c0-2.082,0.523-3.777,1.168-3.777C813.304,104.691,813.827,106.387,813.827,108.469z"/>
	<path display="inline" fill="#414042" d="M794.772,103.279c-0.008,0-0.016,0.008-0.021,0.008v-0.049h-1.955v8.881h1.955l0,0
		c0.006,0,0.014,0.006,0.021,0.006c0.768,0,1.393-1.975,1.393-4.42C796.165,105.262,795.54,103.279,794.772,103.279z"/>
	<path display="inline" fill="#414042" d="M903.407,128.049c-0.014,0-0.025,0.016-0.035,0.018v-0.082h-3.053v14.846h3.053v-0.004
		c0.01,0.004,0.021,0.014,0.035,0.014c1.201,0,2.174-3.307,2.174-7.393C905.581,131.357,904.608,128.049,903.407,128.049z"/>
	<path display="inline" fill="#414042" d="M902.972,135.447c0,4.086-0.975,7.393-2.176,7.393s-2.174-3.307-2.174-7.393
		c0-4.09,0.973-7.398,2.174-7.398S902.972,131.357,902.972,135.447z"/>
	<path display="inline" fill="#414042" d="M867.546,124.639c-0.014,0-0.029,0.02-0.045,0.02v-0.102h-3.758v18.273h3.758v-0.004
		c0.016,0.004,0.031,0.014,0.045,0.014c1.477,0,2.676-4.074,2.676-9.1C870.222,128.721,869.022,124.639,867.546,124.639z"/>
	<path display="inline" fill="#414042" d="M851.901,118.855c-0.012,0-0.023,0.004-0.033,0.006v-0.082h-2.705v14.227h2.705v-0.004
		c0.01,0,0.021,0.008,0.033,0.008c1.062,0,1.924-3.166,1.924-7.086C853.825,122.021,852.964,118.855,851.901,118.855z"/>
	<path display="inline" fill="#FFFFFF" d="M908.312,130.955c-0.48,3.559-2.684,5.824-3.816,5.824l-32.992,0.355l-2.943-0.402
		l-2.523-1.191l-17.541-8.094c0,0-1.424-2.098-1.93-5.178c-0.842-5.141-0.109-6.182,0.635-8.285
		c0.895-2.521,2.232-2.443,4.152-7.283c1.924-4.844,4.824-13.898,8.381-18.854c5.129-7.146,14.832-7.953,21.793-7.725
		c9.496,0.314,14.586,3.391,20.125,9.844c5.562,6.477,6.297,20.709,6.297,23.475C907.948,115.17,909.114,125.021,908.312,130.955z"
		/>
	<path display="inline" fill="#414042" d="M867.009,133.74c0,5.025-1.197,9.1-2.676,9.1c-1.477,0-2.676-4.074-2.676-9.1
		c0-5.02,1.199-9.102,2.676-9.102C865.812,124.639,867.009,128.721,867.009,133.74z"/>
	<path display="inline" fill="#414042" d="M851.692,125.869c0,3.945-0.854,7.141-1.91,7.141c-1.053,0-1.908-3.195-1.908-7.141
		c0-3.957,0.855-7.146,1.908-7.146C850.839,118.723,851.692,121.912,851.692,125.869z"/>
	<path display="inline" fill="#414042" d="M782.265,98.299c-0.006,0-0.014,0.018-0.02,0.018v-0.055h-1.664v8.521h1.664l0,0
		c0.006,0,0.014,0.01,0.02,0.01c0.654,0,1.188-1.904,1.188-4.244C783.452,100.203,782.919,98.299,782.265,98.299z"/>
	<path display="inline" fill="#606049" d="M903.616,103.861c0.725,4.535,0.859,6.982-2.406,6.982h-26.742
		c-3.264,0-3.391-2.984-2.844-8.107l0.219-2.078c0.656-5.285,2.199-7.092,4.277-8.043c2.805-1.285,5.854-2.617,12.084-2.143
		c6.232,0.475,7.496,0.988,9.629,2.143c2.646,1.422,4.363,2.283,5.236,8.043L903.616,103.861z"/>
	<path display="inline" fill="#414042" d="M867.901,106.775c-0.359,2.258-1.34,3.111-2.812,2.859
		c-3.297-0.574-11.084-2.547-11.084-4.455c0-1.906,3.797-11.559,5.879-13.281c2.596-2.15,5.381-2.662,7.93,1.193
		c0.945,1.428,1.512,3.561,1.512,6.176C869.325,101.355,868.339,104.045,867.901,106.775z"/>
	<path display="inline" fill="#EF4136" d="M818.638,104.281c-0.146,1.727-0.277,4.709-2.154,4.709
		c-1.924,0-16.238,0.053-18.076,0.053c-1.84,0-15.828-4.346-19.328-6.385c-1.693-0.988-0.312-9.141,0.975-9.785
		c1.289-0.654,3.242-1.744,3.793-2.832c0.553-1.082,3.09-8.379,5.639-10.68c4.051-3.658,12.369-3.764,17.885-1.426
		c3.375,1.43,7.219,5.688,7.773,15.303c0.137,2.354,1.029,3.391,1.613,4.076C817.698,98.426,819.005,99.951,818.638,104.281z"/>
	<path display="inline" fill="#606049" d="M813.856,91.721c0.416,2.449,0.469,3.688-1.389,3.77h-15.434
		c-3.057-0.293-3.133-1.906-2.814-4.672l0.127-1.117c0.377-2.848,2.064-4.123,3.105-4.939c1.215-0.955,2.967-1.111,5.533-1.43
		c3.357-0.416,5.105,0.465,6.209,1.111c1.891,1.113,2.822,2.082,4.109,5.332L813.856,91.721z"/>
	<path display="inline" fill="#414042" d="M781.886,102.508c0,2.369-0.529,4.285-1.18,4.285c-0.648,0-1.176-1.916-1.176-4.285
		c0-2.361,0.527-4.283,1.176-4.283C781.356,98.225,781.886,100.146,781.886,102.508z"/>
	<path display="inline" fill="#414042" d="M794.325,107.662c0,2.465-0.617,4.463-1.381,4.463c-0.76,0-1.377-1.998-1.377-4.463
		c0-2.469,0.617-4.465,1.377-4.465C793.708,103.197,794.325,105.193,794.325,107.662z"/>
	<path display="inline" fill="#808A94" d="M806.495,76.021c-0.529,0.588-4.316,0.637-6.074,0.637c-1.754,0-8.908,0.32-9.719-0.316
		c-0.811-0.639-1.484-1.432-1.484-2.066c0-0.637,0.674-2.857,2.025-3.18c1.348-0.316,8.908-0.316,10.934-0.316
		S809.062,73.16,806.495,76.021z"/>
	<path display="inline" opacity="0.45" fill="#414042" d="M805.854,76.34c-0.176,0.055-1.721,0.475-4.961,0.416
		c-3.24-0.064-8.809,0.24-9.82-0.301c-1.014-0.535-1.889-1.148-1.855-2.18c0.031-1.039,0.387-2.291,0.994-2.406
		c0.607-0.121,2.582,0,2.986,0.359c0.406,0.357,0.658,1.609,0.658,2.203c0,0.596-0.303,1.133,0.709,1.252s10.984,0.357,11.643,0
		C806.866,75.324,806.968,75.98,805.854,76.34z"/>
	<g display="inline">
		<path fill="#414042" d="M890.308,126.812c0,4.84-3.584,8.768-8.01,8.768c-4.422,0-8.01-3.928-8.01-8.768
			c0-4.834,3.588-8.76,8.01-8.76C886.724,118.053,890.308,121.979,890.308,126.812z"/>
		<path fill="#FFFFFF" d="M887.991,126.699c0,3.498-2.596,6.342-5.799,6.342c-3.201,0-5.797-2.844-5.797-6.342
			c0-3.5,2.596-6.34,5.797-6.34C885.396,120.359,887.991,123.199,887.991,126.699z"/>
		<path fill="#414042" d="M916.657,125.66c0,4.844-3.584,8.764-8.01,8.764c-4.422,0-8.012-3.92-8.012-8.764
			c0-4.836,3.59-8.76,8.012-8.76C913.073,116.9,916.657,120.824,916.657,125.66z"/>
		<path fill="#414042" d="M883.759,110.908h-1.041c-2.904,0-4.637-1.469-4.637-3.924c0-1.322,0.666-3.609,5.131-4.076l0.244,2.754
			c-1.676,0.178-2.846,0.721-2.846,1.322c0,0.766,0.709,1.156,2.107,1.156h0.922L883.759,110.908L883.759,110.908z"/>
		<path fill="#BFBDB1" d="M887.417,108.693l-2.467-0.621l0.463-2.174c-0.168-0.256-0.971-0.346-1.955-0.236l-0.248-2.754
			c0.508-0.053,0.988-0.07,1.406-0.07c2.369,0,3.234,1.832,3.359,2.805l0.033,0.252L887.417,108.693L887.417,108.693z"/>
		<polygon fill="#A7BF61" points="883.53,127.127 881.065,126.502 884.95,108.072 887.417,108.693 883.53,127.127 		"/>
		<path fill="#414042" d="M908.015,106.465c0,0-1.686,2.537-4.639,2.766c-2.947,0.236-4.846-0.451-3.795-1.607
			c1.055-1.158,4.645-1.387,5.482-2.08C905.907,104.852,908.435,104.387,908.015,106.465z"/>
		<ellipse fill="#FFFFFF" cx="908.754" cy="125.777" rx="5.796" ry="6.34"/>
		<path fill="#A7BF61" d="M894.962,126.135l-11.234-15.92h20.705l5.879,15.645L894.962,126.135L894.962,126.135z M888.876,112.982
			l7.316,10.367l10.371-0.191l-3.822-10.176H888.876L888.876,112.982z"/>
		<polygon fill="#A7BF61" points="896.634,125.5 894.524,123.982 902.745,110.375 904.856,111.896 896.634,125.5 		"/>
	</g>
	<path display="inline" fill="#414042" d="M791.993,91.781c-0.213,1.238-0.967,2.182-1.83,2.037
		c-1.941-0.311-5.373-1.219-5.373-2.266c0-1.053,2.09-6.799,3.213-7.902c0.809-0.797,2.236-1.473,3.645-0.633
		c0.965,0.574,1.621,1.586,1.246,4.004C792.72,88.148,792.249,90.275,791.993,91.781z"/>
</g>
</svg>
