<?xml version="1.0" encoding="utf-8"?>
<!-- Generator: Adobe Illustrator 15.0.2, SVG Export Plug-In . SVG Version: 6.00 Build 0)  -->
<!DOCTYPE svg PUBLIC "-//W3C//DTD SVG 1.1//EN" "http://www.w3.org/Graphics/SVG/1.1/DTD/svg11.dtd">
<svg version="1.1" id="hills3" xmlns="http://www.w3.org/2000/svg" xmlns:xlink="http://www.w3.org/1999/xlink" x="0px" y="0px"
	 width="2520px" height="331.231px" viewBox="0 0 2520 331.231" enable-background="new 0 0 2520 331.231" xml:space="preserve">
<g>
	<path opacity="0.5" fill="#BFBDB1" d="M2520,95.219c0,0-137.105-20.844-170.355-36.594s-105-49-117.25-49s-17.5,12.25-26.25,26.25
		s-42,28-68.25,28s-43.75-12.25-66.5,0s-96.25,47.25-154,47.25s-180.25-19.25-220.5-24.5s-103.25,7-126,15.75
		s-99.75,36.75-162.75,36.75s-143.5-38.5-175-31.5s-82.25,29.75-106.75,33.25s-54.25-1.75-71.75-8.75s-47.25-15.75-70-15.75
		s-70-21-80.5-31.5s-38.5-28-61.25-17.5s-117.93,39.992-148.75,33.25c-28-6.125-53-10.666-73.5-17.5
		c-21-7-74.375-26.25-95.375-36.75S485.734,30.365,468.395,28c-19.25-2.625-28-1.75-45.5,0c-15.768,1.578-38.5,7.875-49,13.125
		s-49.719,15.428-64.75,20.125c-14,4.375-26.25,7-41.125,8.75c-16.023,1.885-30.625,1.75-43.75,0
		c-12.145-1.619-46.375-7.875-72.625-11.375s-61.25-5.25-77-3.5S0,64.219,0,64.219v267.013h2520V95.219z"/>
	<g>
		<defs>
			<path id="SVGID_1_" d="M2520,95.615c0,0-137.229-21-170.479-36.75s-105-49-117.25-49s-17.5,12.25-26.25,26.25s-42,28-68.25,28
				s-43.75-12.25-66.5,0s-96.25,47.25-154,47.25s-180.25-19.25-220.5-24.5s-103.25,7-126,15.75s-99.75,36.75-162.75,36.75
				s-143.5-38.5-175-31.5s-82.25,29.75-106.75,33.25s-54.25-1.75-71.75-8.75s-47.25-15.75-70-15.75s-70-21-80.5-31.5
				s-38.5-28-61.25-17.5s-117.93,39.992-148.75,33.25c-28-6.125-52.998-10.666-73.5-17.5c-21-7-74.375-26.25-95.375-36.75
				s-39.535-16.01-56.875-18.375c-19.25-2.625-28-1.75-45.5,0c-15.768,1.578-38.5,7.875-49,13.125s-49.717,15.428-64.75,20.125
				c-14,4.375-26.25,7-41.125,8.75c-16.023,1.885-30.625,1.75-43.75,0c-12.145-1.617-46.375-7.875-72.625-11.375s-61.25-5.25-77-3.5
				S0,64.115,0,64.115v267.116h2520V95.615z"/>
		</defs>
		<clipPath id="SVGID_2_">
			<use xlink:href="#SVGID_1_"  overflow="visible"/>
		</clipPath>
		<path clip-path="url(#SVGID_2_)" fill="#FFFFFF" d="M2239.395,0l45.5,24.5c0,0,4.375,10.5-7.875,10.5s-19.25-4.375-23.625,0.875
			s-1.75,10.5-12.25,6.125s-14.875-7.875-21.875-5.25s-14.875,7-19.25,2.625s-5.25-14-5.25-14l14.875-13.125L2239.395,0z"/>
		<path opacity="0.1" clip-path="url(#SVGID_2_)" fill="#606049" d="M2247.736,4.208c0,0-6.488,28.758,19.653,50.013
			c3.981,3.236-15.408,8.69-9.322,13.917c6.084,5.225,72.969,25.403,67.212,21.452c-5.758-3.95-27.489-14.666-23.675-15.643
			c3.82-0.978,20.073-1.07,25.019-0.3c4.946,0.768,38.745,2.969,31.71-0.657c-7.033-3.626-52.826-12.931-57.634-18.48
			c-4.813-5.548,1.549-7.177,5.224-6.085c3.674,1.094,26.634,2.562,37.146,1.228c10.507-1.335-12.262-4.728-15.169-5.148
			c-7.505-1.091-33.017-9.011-33.017-9.011S2236.527-5.129,2247.736,4.208z"/>
		<path opacity="0.1" clip-path="url(#SVGID_2_)" fill="#606049" d="M2220.857,39.261c0,0-1.457,13.125-4.082,17.5
			s-22.111,26.834-21.236,19.834S2217.357,35.761,2220.857,39.261z"/>
		<path opacity="0.1" clip-path="url(#SVGID_2_)" fill="#606049" d="M2115.033,76c0,0,38.596,22.969,43.279,24.992
			c22.553,9.754-9.145,0-9.145,0s-24.359-8.426-26.984-8.426s-6.707-2.895-4.375,6.125c2.332,9.018,22.168,22.436,20.418,26.518
			c-1.75,4.084-16.918-5.834-16.918-5.834s-11.375-9.309-13.125-18.059s-19.576-40.555-10.826-40.555s53.139,22.289,48.764,23.164
			S2115.033,76,2115.033,76z"/>
		<path opacity="0.1" clip-path="url(#SVGID_2_)" fill="#606049" d="M865.792,72.549c1.75,6.414,5.461,12.939,12.25,21
			c9.334,11.082,13.416,14.875,16.916,17.5s12.25,6.998,14,4.664c1.75-2.332-14.053-12.24-16.359-23.037
			c-2.307-10.795,7.609,4.955,16.943,11.373c2.279,1.566,18.057,11.377,13.682,5.252s-14.266-16.92-14.266-16.92
			s-7.582-9.918,2.891-4.08c3.418,1.906,15.75,9.625,15.75,9.625s6.078,1.965,9.625,2.625c38.797,7.244,82.643-6.396,73.818-9.338
			C978.126,80.24,884.724,66.426,884.724,66.426l-21.266-14.295C863.458,52.131,864.042,66.133,865.792,72.549z"/>
		<path opacity="0.1" clip-path="url(#SVGID_2_)" fill="#606049" d="M845.083,104.633c0,0,0.604-0.967,1.588-2.525
			c4.307-6.82,15.912-24.986,15.912-22.85c0,2.625,1.75,12.25,1.75,12.25l-4.375,12.25l-0.875-10.5"/>
		<path opacity="0.1" clip-path="url(#SVGID_2_)" fill="#606049" d="M1238.701,102.104c0,0,14.002,14.002,22.168,18.666
			c8.166,4.666-26.834,4.668-17.5,7c9.334,2.334,16.33,8.168,32.666,14c16.334,5.834,29.164,10.5,35,10.5
			c5.834,0,7-5.834,2.334-8.166c-4.666-2.334-24.496-2.334-4.666-2.334c19.832,0,21,0,32.666,1.166
			c11.666,1.168,10.496,2.334,22.166,1.168c11.668-1.168,21-7,21-7s-4.67-3.502-42-15.168
			C1305.203,110.27,1238.701,102.104,1238.701,102.104z"/>
	</g>
</g>
</svg>
