<?xml version="1.0" encoding="utf-8"?>
<!-- Generator: Adobe Illustrator 15.1.0, SVG Export Plug-In . SVG Version: 6.00 Build 0)  -->
<!DOCTYPE svg PUBLIC "-//W3C//DTD SVG 1.1//EN" "http://www.w3.org/Graphics/SVG/1.1/DTD/svg11.dtd">
<svg version="1.1" id="Layer_1" xmlns="http://www.w3.org/2000/svg" xmlns:xlink="http://www.w3.org/1999/xlink" x="0px" y="0px"
	 width="19.313px" height="37.295px" viewBox="0 0 19.313 37.295" enable-background="new 0 0 19.313 37.295" xml:space="preserve">
<path fill="#FFFFFF" d="M11.218,15.809c0,0,4.052-5.771,5.73-9.263c1.68-3.489,2.658-5.623,2.285-6.252
	c-0.906-1.508-3.168,3.183-4.18,4.871c-1.556,2.588-4.611,10.514-4.611,10.514L11.218,15.809z"/>
<path fill="#FFFFFF" d="M10.917,16.889c0,0-0.82,7.752-0.688,10.475c0.131,2.713,0.188,9.904,1.451,9.932
	c1.262,0.021,0.741-7.35,0.612-10.838c-0.131-3.49-0.52-9.563-0.52-9.563L10.917,16.889L10.917,16.889z"/>
<path fill="#FFFFFF" d="M9.882,15.167c0,0-3.965-3.447-6.723-7.238c-1.809-2.483-3.49-5.391-3.104-6.036
	c0.389-0.646,4.799,4.78,5.518,5.688c1.896,2.418,3.104,4.826,4.996,7.414L9.882,15.167z"/>
</svg>
