<?xml version="1.0" encoding="utf-8"?>
<!-- Generator: Adobe Illustrator 15.0.2, SVG Export Plug-In . SVG Version: 6.00 Build 0)  -->
<!DOCTYPE svg PUBLIC "-//W3C//DTD SVG 1.1//EN" "http://www.w3.org/Graphics/SVG/1.1/DTD/svg11.dtd">
<svg version="1.1" id="Layer_1" xmlns="http://www.w3.org/2000/svg" xmlns:xlink="http://www.w3.org/1999/xlink" x="0px" y="0px"
	 width="1262.332px" height="526.016px" viewBox="0 0 1262.332 526.016" enable-background="new 0 0 1262.332 526.016"
	 xml:space="preserve">
<g id="forest">
</g>
<linearGradient id="SVGID_1_" gradientUnits="userSpaceOnUse" x1="678.8418" y1="285.6455" x2="678.8418" y2="277.8828">
	<stop  offset="0" style="stop-color:#FFFFFF;stop-opacity:0"/>
	<stop  offset="1" style="stop-color:#F6CB35;stop-opacity:0.5"/>
</linearGradient>
<polygon fill="url(#SVGID_1_)" points="675.846,277.94 674.019,285.646 683.666,285.646 681.383,277.883 "/>
<g id="road">
</g>
<g>
	<rect x="668.488" y="272.003" fill="#606049" width="13.23" height="2.124"/>
	<rect x="668.666" y="272.003" opacity="0.1" fill="#E8E8E8" enable-background="new    " width="11.321" height="2.124"/>
	<rect x="668.515" y="272.003" fill="#606049" width="2.613" height="69.645"/>
	<polygon opacity="0.1" fill="#E8E8E8" enable-background="new    " points="668.515,341.647 671.128,341.647 671.128,272.003 	"/>
	<rect x="675.448" y="272.103" fill="#606049" width="6.313" height="6.175"/>
</g>
<g id="cars">
	<g>
		<polyline fill="#87AA5A" points="545.707,264.114 555.822,237.336 575.895,280.739 		"/>
		<polyline fill="#87AA5A" points="392.582,175.739 403.664,146.463 425.832,194.989 		"/>
		<polyline fill="#87AA5A" points="331.914,154.739 342.998,125.463 365.164,173.989 		"/>
		<path fill="#87AA5A" d="M751.334,377.282c0,0-318.502-176.168-375.668-212.334s-126-78.166-126-78.166S139.49,8.772,82.49,1.772
			s-82.49,9-82.49,9v515.244h711.666L751.334,377.282z"/>
		<g>
			<polygon opacity="0.3" fill="#E8E8E8" enable-background="new    " points="28.979,335.057 117.213,335.057 70.344,143.874 			
				"/>
			<polygon opacity="0.3" fill="#E8E8E8" enable-background="new    " points="30.35,332.715 71.713,221.772 118.582,332.715 
				71.713,141.524 			"/>
		</g>
		<g>
			<polygon opacity="0.3" fill="#E8E8E8" enable-background="new    " points="156.145,332.941 215.408,332.941 183.93,159.92 			
				"/>
			<polygon opacity="0.3" fill="#E8E8E8" enable-background="new    " points="157.064,330.818 184.848,230.418 216.328,330.818 
				184.848,157.797 			"/>
		</g>
		<g>
			<polygon opacity="0.3" fill="#E8E8E8" enable-background="new    " points="248.5,449.614 294.082,449.614 269.871,320.368 			
				"/>
			<polygon opacity="0.3" fill="#E8E8E8" enable-background="new    " points="249.207,448.036 270.578,373.034 294.791,448.036 
				270.578,318.788 			"/>
		</g>
		<g>
			<polygon opacity="0.3" fill="#E8E8E8" enable-background="new    " points="255.311,289.779 314.576,289.779 283.096,214.778 			
				"/>
			<polygon opacity="0.3" fill="#E8E8E8" enable-background="new    " points="256.232,288.859 284.016,245.338 315.494,288.859 
				284.016,213.86 			"/>
		</g>
		<polygon fill="#606049" points="89.832,491.614 82.832,304.364 103.832,299.114 81.082,292.114 79.332,260.614 96.832,257.114 
			81.082,248.364 75.832,178.364 73.926,235.198 51.332,227.364 72.332,239.614 77.582,493.364 		"/>
		<polygon fill="#606049" points="277.664,493.948 275.332,419.28 271.832,381.948 271.832,495.114 		"/>
		<polygon fill="#606049" points="194.832,372.614 192.5,289.779 203,279.279 190.164,282.779 185.5,240.78 186.664,310.779 
			171.5,296.779 187.832,318.948 190.164,372.614 		"/>
		<path opacity="0.17" fill="#606049" enable-background="new    " d="M212.157,87.439c0,0,188,137.999,238.667,185.333
			c50.667,47.334,106,95.334,99.333,136.001s-38,74.667-56.667,82.667c0,0.667,108-26.667,142.667-40.667
			s64.666-37.333,75.333-55.333s6-31.334-4.667-41.334s-38-22-45.333-26s-85.597-47.367-85.597-47.367l-20.071-43.401L543.49,263.44
			l-117.658-68.45l-22.168-48.525l-11.082,29.275l-38.425-24.3l-11.159-25.976l-7.508,15.309l-85.824-53.991
			c0,0-71.176-47.01-98.176-61.01s-40-17-40-17L212.157,87.439z"/>
		<g>
			<polygon opacity="0.3" fill="#E8E8E8" enable-background="new    " points="350.979,254.78 410.242,254.78 378.764,179.778 			
				"/>
			<polygon opacity="0.3" fill="#E8E8E8" enable-background="new    " points="351.9,253.86 379.684,210.338 411.162,253.86 
				379.684,178.86 			"/>
		</g>
		<g>
			<polygon opacity="0.3" fill="#E8E8E8" enable-background="new    " points="441.979,334.109 501.242,334.109 469.764,259.11 			
				"/>
			<polygon opacity="0.3" fill="#E8E8E8" enable-background="new    " points="442.9,333.191 470.684,289.67 502.162,333.191 
				470.684,258.19 			"/>
		</g>
		<g>
			<polygon opacity="0.3" fill="#E8E8E8" enable-background="new    " points="381.311,350.445 440.576,350.445 409.096,275.443 			
				"/>
			<polygon opacity="0.3" fill="#E8E8E8" enable-background="new    " points="382.232,349.525 410.016,306.004 441.494,349.525 
				410.016,274.523 			"/>
		</g>
		<path fill="#808A94" d="M339.207,526.016c0,0,263.375-52.5,322.875-86.625s57.75-65.625,53.375-74.375
			c-2.73-5.46-9.551-11.603-14.291-15.449c-1.314-1.065-6.498-3.151-7.363-3.806c-1.01-0.758,2.404,0.005,2.404,0.005
			s156.625,10.5,324.625,70s210.875,110.25,210.875,110.25H339.207z"/>
		<path fill="#808A94" d="M891.332,524.864"/>
		<path fill="#EBCC2D" d="M892.473,525.661c0,0,5.224-15.211,2.797-32.734c-1.387-10.016-4.438-21.383-9.18-32.812
			c-6.615-15.929-16.514-31.969-29.758-44.625c-39.375-37.625-105.875-53.375-128.625-60.375s-26.25-7-26.25-7
			s105.469,16.566,166.688,66.938c17.154,14.117,27.564,27.385,35.438,42.438c7.99,15.276,12.018,30.119,14,39.375
			c2.592,12.1,2.508,28.971,2.508,28.971L892.473,525.661z"/>
		<path fill="#808A94" d="M902.125,525.667c0,0,1.625-10.916,0.582-27.924c-0.594-9.719-2.527-17.828-6.418-29.17
			c-3.5-10.205-8.449-20.131-18.082-32.666c-27.125-35.289-59.207-47.834-76.418-56.584c-10.621-5.4-71.457-24.5-71.457-24.5
			s101.793,21.295,149.332,76.709c7.953,9.27,11.688,14.496,19.543,29.461c6.125,11.668,9.645,27.473,10.5,36.455
			c1.113,11.744,1.168,28,1.168,28L902.125,525.667z"/>
		<path fill="#FFFFFF" d="M693.855,343.885c0,0,93.168,7.701,201.045,30.119s236.77,67.25,318.729,123.99
			c30.121,21.014,37.127,28.021,37.127,28.021l11.576-0.276c0,0-37.496-29.847-75.322-52.263
			c-37.826-22.413-151.309-72.854-278.1-99.473c-126.791-26.618-222.062-31.521-222.062-31.521L693.855,343.885z"/>
		<rect x="1210.27" y="494.676" fill="#FFFFFF" width="6.125" height="16.188"/>
		<rect x="1173.957" y="470.614" fill="#FFFFFF" width="6.125" height="16.188"/>
		<rect x="1141.965" y="454.426" fill="#FFFFFF" width="5.359" height="14.164"/>
		<rect x="1108.172" y="441.004" fill="#FFFFFF" width="4.312" height="11.398"/>
		<rect x="1084.109" y="430.067" fill="#FFFFFF" width="4.312" height="11.397"/>
		<rect x="1064.396" y="423.504" fill="#FFFFFF" width="3.918" height="10.359"/>
		<rect x="1047.188" y="416.504" fill="#FFFFFF" width="3.921" height="10.359"/>
		<rect x="1028.23" y="408.922" fill="#FFFFFF" width="3.918" height="10.359"/>
		<rect x="1010.33" y="402.948" fill="#FFFFFF" width="3.752" height="9.92"/>
		<rect x="994.078" y="398.282" fill="#FFFFFF" width="3.42" height="9.041"/>
		<rect x="980.66" y="394.198" fill="#FFFFFF" width="3.42" height="9.041"/>
		<rect x="965.436" y="390.04" fill="#FFFFFF" width="3.117" height="8.24"/>
		<rect x="953.514" y="386.833" fill="#FFFFFF" width="2.896" height="7.656"/>
		<rect x="940.389" y="383.333" fill="#FFFFFF" width="2.896" height="7.656"/>
		<rect x="927.881" y="380.198" fill="#FFFFFF" width="2.646" height="7"/>
		<rect x="918.301" y="377.868" fill="#FFFFFF" width="2.648" height="7"/>
		<rect x="906.707" y="374.805" fill="#FFFFFF" width="2.648" height="7"/>
		<rect x="895.551" y="372.18" fill="#FFFFFF" width="2.648" height="7"/>
		<rect x="885.27" y="369.773" fill="#FFFFFF" width="2.648" height="7"/>
		<rect x="874.307" y="368.023" fill="#FFFFFF" width="2.482" height="6.56"/>
		<rect x="864.193" y="366.273" fill="#FFFFFF" width="2.233" height="5.902"/>
		<rect x="854.662" y="365.18" fill="#FFFFFF" width="1.795" height="4.74"/>
		<rect x="847.006" y="363.868" fill="#FFFFFF" width="1.795" height="4.739"/>
		<rect x="838.256" y="362.118" fill="#FFFFFF" width="1.795" height="4.739"/>
		<rect x="829.943" y="360.586" fill="#FFFFFF" width="1.795" height="4.74"/>
		<rect x="822.506" y="358.618" fill="#FFFFFF" width="1.795" height="4.739"/>
		<rect x="816.162" y="357.961" fill="#FFFFFF" width="1.795" height="4.74"/>
		<rect x="807.85" y="356.211" fill="#FFFFFF" width="1.795" height="4.74"/>
		<rect x="801.564" y="355.993" fill="#FFFFFF" width="1.459" height="3.853"/>
		<rect x="795.877" y="354.898" fill="#FFFFFF" width="1.459" height="3.853"/>
		<rect x="789.533" y="354.243" fill="#FFFFFF" width="1.459" height="3.853"/>
		<rect x="783.846" y="353.148" fill="#FFFFFF" width="1.459" height="3.853"/>
		<rect x="777.939" y="352.493" fill="#FFFFFF" width="1.459" height="3.853"/>
		<rect x="772.471" y="351.18" fill="#FFFFFF" width="1.459" height="3.853"/>
		<rect x="767.803" y="350.984" fill="#FFFFFF" width="1.174" height="3.101"/>
		<rect x="763.502" y="350.254" fill="#FFFFFF" width="1.174" height="3.1"/>
		<rect x="757.521" y="349.307" fill="#FFFFFF" width="1.174" height="3.101"/>
		<rect x="753.221" y="348.723" fill="#FFFFFF" width="1.174" height="3.101"/>
		<rect x="748.773" y="348.504" fill="#FFFFFF" width="1.012" height="2.672"/>
		<rect x="745.055" y="347.995" fill="#FFFFFF" width="1.013" height="2.672"/>
		<rect x="739.805" y="347.338" fill="#FFFFFF" width="1.013" height="2.672"/>
		<rect x="735.648" y="346.754" fill="#FFFFFF" width="1.012" height="2.672"/>
		<rect x="731.639" y="346.316" fill="#FFFFFF" width="1.013" height="2.672"/>
		<rect x="727.412" y="345.73" fill="#FFFFFF" width="1.012" height="2.674"/>
		<rect x="723.17" y="345.708" fill="#FFFFFF" width="0.854" height="2.26"/>
		<rect x="719.67" y="345.342" fill="#FFFFFF" width="0.854" height="2.26"/>
		<rect x="716.17" y="344.979" fill="#FFFFFF" width="0.854" height="2.261"/>
		<rect x="711.648" y="344.467" fill="#FFFFFF" width="0.854" height="2.26"/>
		<rect x="706.326" y="343.958" fill="#FFFFFF" width="0.854" height="2.26"/>
		<rect x="702.242" y="343.52" fill="#FFFFFF" width="0.854" height="2.26"/>
		<rect x="698.598" y="343.301" fill="#FFFFFF" width="0.855" height="2.26"/>
		<rect x="694.076" y="342.938" fill="#FFFFFF" width="0.854" height="2.261"/>
		<polygon opacity="0.4" fill="#414042" enable-background="new    " points="819.809,368.549 790.121,361.152 778.68,362.096 
			777.41,362.708 778.629,363.609 795.113,370.625 796.531,371.073 798.309,371.223 819.145,371.083 821.113,370.208 		"/>
		<polygon opacity="0.4" fill="#414042" enable-background="new    " points="909.414,398.45 861.098,385.575 842.477,387.215 
			840.41,388.282 842.393,389.85 869.221,402.055 871.529,402.838 874.422,403.102 908.613,403.02 911.457,401.708 		"/>
		<path fill="#414042" d="M814.166,361.598c-0.004,0-0.012,0.004-0.018,0.004v-0.039h-1.654v7.511h1.654l0,0
			c0.006,0,0.014,0.01,0.018,0.01c0.652,0,1.18-1.679,1.18-3.742S814.818,361.598,814.166,361.598z"/>
		<path fill="#414042" d="M813.789,365.303c0,2.084-0.523,3.779-1.166,3.779c-0.646,0-1.168-1.695-1.168-3.779
			c0-2.082,0.522-3.777,1.168-3.777C813.266,361.525,813.789,363.221,813.789,365.303z"/>
		<path fill="#414042" d="M794.734,360.114c-0.009,0-0.017,0.008-0.021,0.008v-0.049h-1.955v8.881h1.955l0,0
			c0.006,0,0.014,0.006,0.021,0.006c0.768,0,1.393-1.976,1.393-4.42S795.502,360.114,794.734,360.114z"/>
		<path fill="#414042" d="M903.369,384.883c-0.014,0-0.025,0.016-0.035,0.018v-0.082h-3.053v14.847h3.053v-0.004
			c0.01,0.004,0.021,0.014,0.035,0.014c1.201,0,2.174-3.307,2.174-7.393C905.543,388.191,904.57,384.883,903.369,384.883z"/>
		<path fill="#414042" d="M902.934,392.282c0,4.086-0.975,7.393-2.176,7.393s-2.174-3.307-2.174-7.393
			c0-4.091,0.973-7.398,2.174-7.398S902.934,388.191,902.934,392.282z"/>
		<path fill="#414042" d="M867.508,381.473c-0.014,0-0.029,0.021-0.045,0.021v-0.103h-3.758v18.273h3.758v-0.004
			c0.016,0.004,0.031,0.014,0.045,0.014c1.478,0,2.676-4.074,2.676-9.1C870.184,385.555,868.984,381.473,867.508,381.473z"/>
		<path fill="#414042" d="M851.863,375.689c-0.013,0-0.023,0.004-0.033,0.006v-0.081h-2.705v14.227h2.705v-0.004
			c0.01,0,0.021,0.009,0.033,0.009c1.062,0,1.924-3.166,1.924-7.087C853.787,378.855,852.926,375.689,851.863,375.689z"/>
		<path fill="#FFFFFF" d="M908.273,387.79c-0.48,3.56-2.685,5.824-3.816,5.824l-32.992,0.354l-2.942-0.402l-2.523-1.19
			l-17.541-8.094c0,0-1.424-2.099-1.93-5.179c-0.843-5.141-0.109-6.182,0.635-8.285c0.895-2.521,2.231-2.442,4.152-7.282
			c1.924-4.845,4.823-13.897,8.381-18.854c5.129-7.146,14.832-7.953,21.793-7.725c9.496,0.314,14.586,3.391,20.125,9.844
			c5.562,6.477,6.297,20.709,6.297,23.475C907.91,372.004,909.076,381.855,908.273,387.79z"/>
		<path fill="#414042" d="M866.971,390.575c0,5.024-1.196,9.1-2.676,9.1c-1.477,0-2.676-4.073-2.676-9.1
			c0-5.021,1.199-9.103,2.676-9.103C865.773,381.473,866.971,385.555,866.971,390.575z"/>
		<path fill="#414042" d="M851.654,382.704c0,3.944-0.854,7.142-1.91,7.142c-1.053,0-1.908-3.195-1.908-7.142
			c0-3.957,0.855-7.146,1.908-7.146C850.801,375.557,851.654,378.747,851.654,382.704z"/>
		<path fill="#414042" d="M782.227,355.133c-0.006,0-0.014,0.018-0.02,0.018v-0.055h-1.664v8.521h1.664l0,0
			c0.006,0,0.014,0.01,0.02,0.01c0.654,0,1.188-1.904,1.188-4.244C783.414,357.038,782.881,355.133,782.227,355.133z"/>
		<path fill="#606049" d="M903.578,360.695c0.725,4.535,0.859,6.982-2.406,6.982H874.43c-3.264,0-3.391-2.984-2.844-8.107
			l0.219-2.077c0.656-5.285,2.199-7.093,4.277-8.043c2.805-1.285,5.854-2.617,12.084-2.144c6.232,0.476,7.496,0.988,9.629,2.144
			c2.646,1.422,4.363,2.282,5.236,8.043L903.578,360.695z"/>
		<path fill="#414042" d="M867.863,363.609c-0.359,2.259-1.34,3.111-2.812,2.859c-3.297-0.574-11.084-2.547-11.084-4.455
			c0-1.906,3.797-11.559,5.879-13.281c2.597-2.149,5.381-2.662,7.931,1.193c0.944,1.428,1.512,3.561,1.512,6.176
			C869.287,358.189,868.301,360.879,867.863,363.609z"/>
		<path fill="#EF4136" d="M818.6,361.116c-0.146,1.727-0.276,4.709-2.153,4.709c-1.925,0-16.238,0.053-18.076,0.053
			c-1.84,0-15.828-4.346-19.328-6.385c-1.693-0.988-0.312-9.142,0.975-9.785c1.289-0.653,3.242-1.744,3.793-2.832
			c0.554-1.082,3.091-8.379,5.64-10.681c4.051-3.657,12.369-3.764,17.885-1.426c3.375,1.431,7.219,5.688,7.773,15.304
			c0.137,2.354,1.028,3.391,1.612,4.075C817.66,355.26,818.967,356.786,818.6,361.116z"/>
		<path fill="#606049" d="M813.818,348.555c0.416,2.449,0.469,3.688-1.39,3.771h-15.434c-3.058-0.293-3.133-1.906-2.814-4.673
			l0.127-1.116c0.377-2.849,2.064-4.123,3.105-4.938c1.215-0.955,2.967-1.111,5.533-1.431c3.356-0.416,5.104,0.465,6.209,1.11
			c1.891,1.113,2.821,2.082,4.108,5.332L813.818,348.555z"/>
		<path fill="#414042" d="M781.848,359.342c0,2.369-0.528,4.285-1.18,4.285c-0.648,0-1.176-1.916-1.176-4.285
			c0-2.361,0.526-4.283,1.176-4.283C781.318,355.059,781.848,356.98,781.848,359.342z"/>
		<path fill="#414042" d="M794.287,364.497c0,2.465-0.617,4.463-1.381,4.463c-0.76,0-1.377-1.998-1.377-4.463
			c0-2.47,0.617-4.465,1.377-4.465C793.67,360.032,794.287,362.027,794.287,364.497z"/>
		<path fill="#808A94" d="M806.457,332.855c-0.529,0.588-4.316,0.638-6.074,0.638c-1.754,0-8.908,0.319-9.719-0.316
			c-0.811-0.639-1.484-1.432-1.484-2.065c0-0.637,0.674-2.857,2.025-3.18c1.348-0.316,8.908-0.316,10.934-0.316
			C804.165,327.615,809.023,329.995,806.457,332.855z"/>
		<path opacity="0.45" fill="#414042" enable-background="new    " d="M805.816,333.174c-0.177,0.055-1.722,0.475-4.961,0.416
			c-3.24-0.064-8.81,0.24-9.82-0.301c-1.014-0.535-1.889-1.148-1.855-2.18c0.031-1.039,0.388-2.291,0.994-2.406
			c0.607-0.121,2.582,0,2.986,0.359c0.406,0.356,0.658,1.608,0.658,2.203c0,0.596-0.304,1.133,0.709,1.252
			c1.012,0.119,10.983,0.356,11.643,0C806.828,332.159,806.93,332.814,805.816,333.174z"/>
		<g>
			<path fill="#414042" d="M890.27,383.646c0,4.84-3.584,8.769-8.01,8.769c-4.422,0-8.01-3.929-8.01-8.769
				c0-4.834,3.588-8.76,8.01-8.76C886.686,374.887,890.27,378.812,890.27,383.646z"/>
			<path fill="#FFFFFF" d="M887.953,383.534c0,3.498-2.596,6.342-5.799,6.342c-3.201,0-5.797-2.844-5.797-6.342
				c0-3.5,2.596-6.341,5.797-6.341C885.357,377.193,887.953,380.034,887.953,383.534z"/>
			<path fill="#414042" d="M916.619,382.495c0,4.844-3.584,8.764-8.01,8.764c-4.422,0-8.013-3.92-8.013-8.764
				c0-4.836,3.591-8.761,8.013-8.761C913.035,373.734,916.619,377.659,916.619,382.495z"/>
			<path fill="#414042" d="M883.721,367.743h-1.041c-2.903,0-4.637-1.47-4.637-3.925c0-1.321,0.666-3.608,5.131-4.075l0.244,2.754
				c-1.676,0.178-2.846,0.721-2.846,1.321c0,0.767,0.709,1.156,2.106,1.156h0.922L883.721,367.743L883.721,367.743z"/>
			<path fill="#BFBDB1" d="M887.379,365.527l-2.467-0.62l0.463-2.175c-0.168-0.256-0.971-0.346-1.955-0.235l-0.248-2.754
				c0.508-0.054,0.988-0.07,1.406-0.07c2.369,0,3.234,1.832,3.359,2.806l0.032,0.252L887.379,365.527L887.379,365.527z"/>
			<polygon fill="#A7BF61" points="883.492,383.961 881.027,383.336 884.912,364.907 887.379,365.527 			"/>
			<path fill="#414042" d="M907.977,363.299c0,0-1.686,2.537-4.639,2.766c-2.947,0.236-4.846-0.45-3.795-1.606
				c1.055-1.158,4.646-1.388,5.482-2.08C905.869,361.686,908.396,361.221,907.977,363.299z"/>
			<ellipse fill="#FFFFFF" cx="908.716" cy="382.612" rx="5.796" ry="6.34"/>
			<path fill="#A7BF61" d="M894.924,382.969l-11.233-15.92h20.704l5.88,15.645L894.924,382.969L894.924,382.969z M888.838,369.816
				l7.316,10.367l10.371-0.19l-3.822-10.177H888.838L888.838,369.816z"/>
			<polygon fill="#A7BF61" points="896.596,382.334 894.486,380.816 902.707,367.209 904.818,368.73 			"/>
		</g>
		<path fill="#414042" d="M791.955,348.616c-0.213,1.237-0.967,2.182-1.83,2.036c-1.941-0.311-5.373-1.219-5.373-2.266
			c0-1.053,2.09-6.799,3.213-7.902c0.81-0.797,2.236-1.473,3.646-0.633c0.965,0.574,1.621,1.586,1.246,4.004
			C792.682,344.982,792.211,347.109,791.955,348.616z"/>
	</g>
</g>
<linearGradient id="SVGID_2_" gradientUnits="userSpaceOnUse" x1="710.7285" y1="286.5078" x2="710.7285" y2="269.5078">
	<stop  offset="0" style="stop-color:#FFFFFF;stop-opacity:0"/>
	<stop  offset="1" style="stop-color:#F6CB35;stop-opacity:0.5"/>
</linearGradient>
<polygon fill="url(#SVGID_2_)" points="704.166,269.633 700.166,286.508 721.291,286.508 716.291,269.508 "/>
<g>
	<rect x="687.988" y="257.133" fill="#606049" width="29.258" height="4.695"/>
	<rect x="688.381" y="257.133" opacity="0.1" fill="#E8E8E8" enable-background="new    " width="25.036" height="4.695"/>
	<rect x="688.046" y="257.133" fill="#606049" width="5.779" height="154.015"/>
	<polygon opacity="0.1" fill="#E8E8E8" enable-background="new    " points="688.046,411.147 693.825,411.147 693.825,257.133 	"/>
	<rect x="703.38" y="257.352" fill="#606049" width="13.962" height="13.656"/>
</g>
<g>
	<rect x="376.988" y="189.508" fill="#606049" width="62.051" height="9.958"/>
	<rect x="377.821" y="189.508" opacity="0.1" fill="#E8E8E8" enable-background="new    " width="53.097" height="9.958"/>
	<polygon fill="#606049" points="377.11,189.508 389.367,189.508 389.367,515.383 377.11,518.008 	"/>
	<polygon opacity="0.1" fill="#E8E8E8" enable-background="new    " points="377.11,518.008 388.759,515.539 389.367,189.508 	"/>
	<rect x="409.631" y="189.972" fill="#606049" width="29.611" height="28.963"/>
</g>
<linearGradient id="SVGID_3_" gradientUnits="userSpaceOnUse" x1="424.8423" y1="251.873" x2="424.8423" y2="217.1553">
	<stop  offset="0" style="stop-color:#FFFFFF;stop-opacity:0"/>
	<stop  offset="1" style="stop-color:#F6CB35;stop-opacity:0.5"/>
</linearGradient>
<polygon fill="url(#SVGID_3_)" points="411.44,217.413 403.269,251.873 446.416,251.873 436.205,217.155 "/>
</svg>
