<?xml version="1.0" encoding="utf-8"?>
<!-- Generator: Adobe Illustrator 15.0.2, SVG Export Plug-In . SVG Version: 6.00 Build 0)  -->
<!DOCTYPE svg PUBLIC "-//W3C//DTD SVG 1.1//EN" "http://www.w3.org/Graphics/SVG/1.1/DTD/svg11.dtd">
<svg version="1.1" id="back_mountains" xmlns="http://www.w3.org/2000/svg" xmlns:xlink="http://www.w3.org/1999/xlink" x="0px"
	 y="0px" width="2520px" height="267.527px" viewBox="0 0 2520 267.527" enable-background="new 0 0 2520 267.527"
	 xml:space="preserve">
<g>
	<path fill="#B1C6B5" enable-background="new    " d="M581.76,94.178c0,0,152.25-15.75,203-21s119-12.25,141.75-7
		s80.5,24.5,117.25,17.5s77-21,115.5-12.25s68.25,29.75,94.5,29.75s201.25-38.5,302.75,12.25
		c24.498,12.249,141.726,68.238,281.219,84.737c33.433,3.954,227.979-71.225,439.478-73.497
		c139.493-1.499,244.796,13.918,244.796,13.918c-3.5,2,6.157,128.097,4.334,128.46c-8.75,1.75-2528.667-1.833-2528.667-1.833
		s-0.421-181.481,1-181.96c200.989-67.496,253.639-23.081,375.133-6.582C515.054,95.854,581.76,94.178,581.76,94.178z"/>
	<path opacity="0.06" fill="#606049" enable-background="new    " d="M-2.665,110.587c-0.343-16.419,3.85-27.648,4.152-27.751
		c200.989-67.496,251.986-22.498,373.481-5.999C516.22,96.02,582.927,94.344,582.927,94.344s152.25-15.75,203-21s119-12.25,141.75-7
		s80.5,24.5,117.25,17.5s77-21,115.5-12.25s68.25,29.75,94.5,29.75s201.25-38.5,302.75,12.25
		c24.498,12.249,141.726,68.238,281.22,84.737c33.432,3.954,227.979-71.225,439.477-73.497
		c139.494-1.499,243.464,13.919,243.464,13.919c-1.487,0-0.217,10.949-0.5,27.166c0,0-191.962-32.086-329.956-18.587
		c-137.992,13.499-292.485,59.997-352.481,59.997s-218.988-38.998-272.986-67.497c-53.996-28.499-164.99-46.497-223.488-37.498
		c-58.495,8.999-79.495,17.998-110.993,7.499s-101.995-26.999-139.493-20.999s-113.995,4.5-152.993,0s-197.99,0.001-295.485,12
		s-205.49,17.999-304.484-6C239.98,70.835,115.484,58.837,70.486,72.336S-2.665,110.587-2.665,110.587z"/>
</g>
</svg>
