<?xml version="1.0" encoding="utf-8"?>
<!-- Generator: Adobe Illustrator 15.1.0, SVG Export Plug-In . SVG Version: 6.00 Build 0)  -->
<!DOCTYPE svg PUBLIC "-//W3C//DTD SVG 1.1//EN" "http://www.w3.org/Graphics/SVG/1.1/DTD/svg11.dtd">
<svg version="1.1" xmlns="http://www.w3.org/2000/svg" xmlns:xlink="http://www.w3.org/1999/xlink" x="0px" y="0px" width="2520px"
	 height="393.282px" viewBox="0 0 2520 393.282" enable-background="new 0 0 2520 393.282" xml:space="preserve">
<g id="siren">
	<g>
		<path fill="#02638C" d="M1374.279,333.196c0,0.639-0.516,1.16-1.162,1.16h-5.778c-0.643,0-1.161-0.521-1.161-1.16v-0.062
			c0-0.641,0.521-1.161,1.161-1.161h5.778c0.644,0,1.162,0.521,1.162,1.161V333.196z"/>
		<path fill="#E04305" d="M1373.118,331.971h-3.127v2.383h3.127c0.644,0,1.161-0.521,1.161-1.166v-0.066
			C1374.279,332.493,1373.76,331.971,1373.118,331.971z"/>
	</g>
</g>
<g id="lake">
	<path fill="#A7BF61" d="M0,129.607c0,0,817.502,123.772,915.762,129.509c98.27,5.737,250.25,17.5,495.25-68.25
		c245-85.75,292.25-120.75,420-117.25s192.5,42,274.75,49s161-10.5,199.5-47.25s79.912-77.834,98-75.25
		c12.25,1.75,43.75,36.75,59.5,36.75s26.25,5.25,33.25,10.5s25.075,14.908,25.075,14.908l-2.325,328.674L0,393.282V129.607z"/>
	<path opacity="0.15" fill="#606049" enable-background="new    " d="M2520,91.941l1.753-29.334c0,0-20.241-9.991-27.241-15.241
		s-17.5-10.5-33.25-10.5s-47.25-35-59.5-36.75c-18.088-2.584-59.5,38.5-98,75.25s-117.25,54.25-199.5,47.25s-147-45.5-274.75-49
		s-175,31.5-420,117.25c-245,85.75-396.99,73.986-495.25,68.25S0.073,129.859,0.073,129.859l0.104,17.978
		c0,0,244.385,40.52,452.875,69.019c208.49,28.499,355.482,62.996,598.47,55.497c242.988-7.499,304.484-40.498,404.979-71.996
		s185.991-110.994,323.984-107.994s289.497,61.933,349.479,59.997c46.498-1.5,86.503-10.053,127.493-31.499
		c31.488-16.476,91.508-75.917,106.495-86.995c34.498-25.499,61.496-4.501,70.496,5.999s29.998,34.499,40.498,34.499
		s19.499,2.999,25.499,10.499S2520,104.941,2520,104.941V91.941z"/>
	<g opacity="0.2">
		<polygon fill="#87AA5A" points="2428.08,153.03 2462.453,153.03 2444.195,109.526 		"/>
		<polygon fill="#A7BF61" points="2428.613,152.495 2444.729,127.251 2462.988,152.495 2444.729,108.991 		"/>
	</g>
	<g>
		<polygon opacity="0.3" fill="#E8E8E8" enable-background="new    " points="1851.455,141.753 1885.59,141.753 1867.457,98.554 		
			"/>
		<polygon opacity="0.3" fill="#E8E8E8" enable-background="new    " points="1851.984,141.224 1867.988,116.155 1886.119,141.224 
			1867.988,98.024 		"/>
	</g>
	<g>
		<polygon opacity="0.3" fill="#E8E8E8" enable-background="new    " points="1821.123,159.253 1855.258,159.253 1837.127,116.054 
					"/>
		<polygon opacity="0.3" fill="#E8E8E8" enable-background="new    " points="1821.652,158.724 1837.656,133.655 1855.789,158.724 
			1837.656,115.524 		"/>
	</g>
	<g>
		<polygon opacity="0.3" fill="#E8E8E8" enable-background="new    " points="1773.293,142.923 1807.428,142.923 1789.295,99.722 		
			"/>
		<polygon opacity="0.3" fill="#E8E8E8" enable-background="new    " points="1773.822,142.394 1789.824,117.325 1807.957,142.394 
			1789.824,99.192 		"/>
	</g>
	<polygon fill="#A7BF61" points="996.5,351.092 1403.5,351.092 1552.25,372.641 1524,393.282 731.75,393.282 810.5,369.641 	"/>
	<g>
		<polygon opacity="0.3" fill="#E8E8E8" enable-background="new    " points="1720.793,218.752 1754.928,218.752 1736.795,175.554 
					"/>
		<polygon opacity="0.3" fill="#E8E8E8" enable-background="new    " points="1721.322,218.224 1737.324,193.155 1755.457,218.224 
			1737.324,175.024 		"/>
	</g>
	<g>
		<polygon opacity="0.3" fill="#E8E8E8" enable-background="new    " points="1678.793,207.088 1712.928,207.088 1694.795,163.888 
					"/>
		<polygon opacity="0.3" fill="#E8E8E8" enable-background="new    " points="1679.322,206.558 1695.324,181.491 1713.457,206.558 
			1695.324,163.358 		"/>
	</g>
	<g>
		<polygon opacity="0.3" fill="#E8E8E8" enable-background="new    " points="1684.627,162.757 1718.762,162.757 1700.629,119.558 
					"/>
		<polygon opacity="0.3" fill="#E8E8E8" enable-background="new    " points="1685.156,162.228 1701.16,137.159 1719.293,162.228 
			1701.16,119.026 		"/>
	</g>
	<g>
		<polygon opacity="0.3" fill="#E8E8E8" enable-background="new    " points="1607.627,180.257 1641.762,180.257 1623.629,137.058 
					"/>
		<polygon opacity="0.3" fill="#E8E8E8" enable-background="new    " points="1608.156,179.728 1624.16,154.659 1642.293,179.728 
			1624.16,136.526 		"/>
	</g>
	<g>
		<polygon opacity="0.3" fill="#E8E8E8" enable-background="new    " points="1612.293,209.422 1646.428,209.422 1628.295,166.222 
					"/>
		<polygon opacity="0.3" fill="#E8E8E8" enable-background="new    " points="1612.822,208.894 1628.824,183.825 1646.957,208.894 
			1628.824,165.692 		"/>
	</g>
	<g>
		<polygon opacity="0.3" fill="#E8E8E8" enable-background="new    " points="1644.961,231.588 1679.098,231.588 1660.965,188.388 
					"/>
		<polygon opacity="0.3" fill="#E8E8E8" enable-background="new    " points="1645.492,231.058 1661.494,205.991 1679.627,231.058 
			1661.494,187.858 		"/>
	</g>
	<g>
		<polygon opacity="0.3" fill="#E8E8E8" enable-background="new    " points="1570.297,278.252 1604.432,278.252 1586.299,235.054 
					"/>
		<polygon opacity="0.3" fill="#E8E8E8" enable-background="new    " points="1570.826,277.724 1586.828,252.655 1604.961,277.724 
			1586.828,234.524 		"/>
	</g>
	<g>
		<polygon opacity="0.3" fill="#E8E8E8" enable-background="new    " points="1502.627,271.252 1536.762,271.252 1518.629,228.054 
					"/>
		<polygon opacity="0.3" fill="#E8E8E8" enable-background="new    " points="1503.156,270.724 1519.16,245.655 1537.293,270.724 
			1519.16,227.524 		"/>
	</g>
	<g>
		<polygon opacity="0.3" fill="#E8E8E8" enable-background="new    " points="1499.127,305.088 1533.262,305.088 1515.129,261.888 
					"/>
		<polygon opacity="0.3" fill="#E8E8E8" enable-background="new    " points="1499.656,304.558 1515.66,279.491 1533.793,304.558 
			1515.66,261.358 		"/>
	</g>
	<g>
		<polygon opacity="0.3" fill="#E8E8E8" enable-background="new    " points="1446.627,250.588 1480.762,250.588 1462.629,207.388 
					"/>
		<polygon opacity="0.3" fill="#E8E8E8" enable-background="new    " points="1447.156,250.058 1463.16,224.991 1481.293,250.058 
			1463.16,206.858 		"/>
	</g>
	<g>
		<polygon opacity="0.3" fill="#E8E8E8" enable-background="new    " points="1498.961,204.418 1533.098,204.418 1514.965,161.22 		
			"/>
		<polygon opacity="0.3" fill="#E8E8E8" enable-background="new    " points="1499.492,203.89 1515.494,178.821 1533.627,203.89 
			1515.494,160.69 		"/>
	</g>
	<g>
		<polygon opacity="0.3" fill="#E8E8E8" enable-background="new    " points="2259.043,136.752 2293.178,136.752 2275.045,93.554 		
			"/>
		<polygon opacity="0.3" fill="#E8E8E8" enable-background="new    " points="2259.572,136.224 2275.574,111.155 2293.707,136.224 
			2275.574,93.024 		"/>
	</g>
	<g>
		<polygon opacity="0.3" fill="#E8E8E8" enable-background="new    " points="2260.961,201.252 2295.098,201.252 2276.965,158.054 
					"/>
		<polygon opacity="0.3" fill="#E8E8E8" enable-background="new    " points="2261.492,200.724 2277.494,175.655 2295.627,200.724 
			2277.494,157.524 		"/>
	</g>
	<g>
		<polygon opacity="0.3" fill="#E8E8E8" enable-background="new    " points="2222.461,205.922 2256.598,205.922 2238.465,162.722 
					"/>
		<polygon opacity="0.3" fill="#E8E8E8" enable-background="new    " points="2222.992,205.394 2238.994,180.325 2257.127,205.394 
			2238.994,162.192 		"/>
	</g>
	<g>
		<polygon opacity="0.3" fill="#E8E8E8" enable-background="new    " points="2207.297,183.753 2241.432,183.753 2223.299,140.554 
					"/>
		<polygon opacity="0.3" fill="#E8E8E8" enable-background="new    " points="2207.826,183.224 2223.828,158.155 2241.961,183.224 
			2223.828,140.024 		"/>
	</g>
	<g>
		<polygon opacity="0.3" fill="#E8E8E8" enable-background="new    " points="2140.797,187.253 2174.932,187.253 2156.799,144.054 
					"/>
		<polygon opacity="0.3" fill="#E8E8E8" enable-background="new    " points="2141.326,186.724 2157.328,161.655 2175.461,186.724 
			2157.328,143.524 		"/>
	</g>
	<g>
		<rect x="1811.396" y="227.441" fill="#E8E8E8" width="22.424" height="22.425"/>
		<polygon fill="#BFBDB1" points="1848.032,249.866 1833.82,249.866 1833.82,227.441 1842.082,208.706 1848.131,228.622 		"/>
		<polygon fill="#606049" points="1809.43,227.441 1833.82,227.441 1842.082,208.558 1816.312,208.558 		"/>
		<polygon fill="#606049" points="1847.885,227.441 1850.393,227.441 1843.459,208.558 1841.395,208.558 		"/>
		<rect x="1835.984" y="234.327" fill="#E8E8E8" width="6.098" height="5.113"/>
		<rect x="1838.936" y="228.424" fill="#606049" width="4.918" height="5.509"/>
		<rect x="1814.15" y="228.424" fill="#606049" width="4.917" height="5.509"/>
		<rect x="1824.771" y="228.424" fill="#606049" width="4.918" height="5.509"/>
		<rect x="1820.447" y="240.228" fill="#606049" width="9.242" height="5.507"/>
		<rect x="1839.921" y="239.44" fill="#606049" width="4.131" height="10.229"/>
		<rect x="1820.149" y="199.116" fill="#F3732A" width="4.425" height="9.442"/>
	</g>
	<g>
		<polygon fill="#FBAE18" points="1703.667,253.609 1703.667,284.198 1662.82,284.198 1662.82,247.654 1695.077,235.75 		"/>
		<polygon fill="#606049" points="1654.041,234.903 1695.509,234.788 1685.672,256.197 1664.902,256.197 		"/>
		<polygon fill="#EBCC2D" points="1646.066,284.198 1646.066,254.758 1654.852,235.75 1664.786,255.911 1664.786,284.198 		"/>
		<polygon fill="#606049" points="1655.177,234.903 1652.97,234.903 1644.008,256.872 1646.216,256.872 		"/>
		<polygon fill="#606049" points="1694.554,234.788 1696.762,234.788 1705.922,256.872 1703.713,256.872 		"/>
		<rect x="1679.906" y="256.103" fill="#EBCC2D" width="5.377" height="27.709"/>
		<rect x="1648.744" y="259.047" fill="#606049" width="13.245" height="5.375"/>
		<rect x="1687.911" y="259.047" fill="#606049" width="13.248" height="5.375"/>
		<rect x="1669.865" y="259.047" fill="#606049" width="5.182" height="5.375"/>
		<rect x="1648.744" y="272.102" fill="#606049" width="13.245" height="5.375"/>
		<rect x="1669.865" y="272.102" fill="#606049" width="5.182" height="5.375"/>
		<rect x="1689.831" y="271.717" fill="#606049" width="5.182" height="12.287"/>
		<rect x="1688.771" y="226.407" fill="#F3732A" width="4.314" height="8.062"/>
	</g>
	<g>
		<polygon fill="#BFBDB1" points="1178.625,299.264 1161.709,299.264 1161.709,294.307 1146.834,294.307 1146.834,297.807 
			1109.5,297.807 1109.5,294.307 1091.125,294.307 1091.125,298.389 1075.668,298.389 1075.668,320.94 1043.584,320.94 
			1043.584,331.93 937.057,348.196 937.057,353.706 1097.871,355.389 1155,354.68 1195.066,352.141 1215.875,356.391 
			1259.25,356.016 1259,319.391 1274,319.68 1274,297.807 1193.5,297.807 		"/>
		<polygon fill="#606049" points="1117.082,317.35 1123.5,305.682 1129.918,317.35 1132.832,317.35 1124.668,301.6 1101.918,301.6 
			1092.875,317.495 		"/>
		<rect x="1161.418" y="308.35" fill="#E8E8E8" width="15.082" height="14.18"/>
		<rect x="1094.918" y="317.35" fill="#E8E8E8" width="21.582" height="20.291"/>
		<rect x="1091.127" y="295.036" fill="#E8E8E8" width="11.375" height="5.252"/>
		<rect x="1146.543" y="294.743" fill="#E8E8E8" width="8.166" height="5.252"/>
		<rect x="1128.168" y="297.952" fill="#E8E8E8" width="8.166" height="3.209"/>
		<polygon fill="#606049" points="1052.293,349.053 1215.209,349.053 1215.07,358.153 1052.293,358.137 		"/>
		<rect x="1171.418" y="316.85" fill="#E8E8E8" width="15.082" height="14.18"/>
		<polygon fill="#606049" points="1174.332,313.704 1189.125,313.704 1186.48,316.932 1171.688,316.932 		"/>
	</g>
	<g>
		<polygon fill="#BFBDB1" points="920.125,338.893 903.209,338.893 903.209,333.938 888.334,333.938 888.334,337.438 851,337.438 
			851,333.938 832.625,333.938 832.625,338.018 817.168,338.018 817.168,360.571 785.084,360.571 785.084,371.561 678.557,387.827 
			678.557,393.334 839.371,395.018 896.5,394.311 936.566,391.772 956.75,388.022 1000.75,392.272 1000.5,359.022 1015.5,359.311 
			1015.5,337.438 935,337.438 		"/>
		<rect x="902.918" y="347.981" fill="#E8E8E8" width="15.082" height="14.18"/>
		<rect x="840.418" y="349.981" fill="#E8E8E8" width="21.582" height="20.291"/>
		<rect x="832.627" y="334.667" fill="#E8E8E8" width="11.375" height="5.252"/>
		<rect x="888.043" y="334.374" fill="#E8E8E8" width="8.166" height="5.252"/>
		<rect x="869.668" y="337.583" fill="#E8E8E8" width="8.166" height="3.209"/>
		<rect x="912.918" y="356.481" fill="#E8E8E8" width="15.082" height="14.18"/>
		<polygon fill="#606049" points="915.832,353.333 930.625,353.333 927.98,356.563 913.188,356.563 		"/>
	</g>
	<rect x="930.27" y="321.891" fill="#D1D1D1" width="101.146" height="47.75"/>
	<g>
		<g>
			<rect x="1202.73" y="324.583" fill="#AEB1AC" width="23.881" height="31.609"/>
			<polygon fill="#606049" points="1183.43,327.592 1241.342,327.592 1230.166,298.963 1192.317,298.963 			"/>
			<polygon fill="#AEB1AC" points="1213.914,356.231 1238.804,356.231 1238.804,328.602 1226.611,299.969 1213.914,328.094 			"/>
			<polygon fill="#DADCD7" points="1185.972,356.231 1210.864,356.231 1210.864,328.602 1198.672,299.969 1185.972,328.094 			"/>
		</g>
		<rect x="1192.5" y="327.602" fill="#606049" width="8.716" height="9.658"/>
		<rect x="1220.42" y="337.913" fill="#606049" width="7.327" height="18.31"/>
	</g>
	<g>
		<g>
			<rect x="1899.403" y="219.059" fill="#00B6D2" width="13.159" height="17.355"/>
			<polygon fill="#606049" points="1888.766,220.738 1920.681,220.738 1914.521,204.782 1893.663,204.782 			"/>
			<polygon fill="#00B6D2" points="1905.564,236.698 1919.282,236.698 1919.282,221.299 1912.562,205.34 1905.564,221.017 			"/>
			<polygon fill="#9FD5D6" points="1890.166,236.698 1903.884,236.698 1903.884,221.299 1897.165,205.34 1890.166,221.017 			"/>
		</g>
		<rect x="1893.766" y="220.743" fill="#606049" width="4.812" height="5.383"/>
		<rect x="1909.819" y="226.315" fill="#606049" width="4.036" height="10"/>
	</g>
	<rect x="1247.948" y="230.165" fill="#F6CB35" width="9.587" height="31.957"/>
	<rect x="1247.948" y="248.273" fill="#FBAF40" width="41.543" height="107.587"/>
	<polygon fill="#F6CB35" points="1280.327,355.86 1247.948,355.86 1247.948,248.273 1248.597,248.273 	"/>
	<rect x="1286.296" y="281.293" fill="#F6CB35" width="100.131" height="74.565"/>
	<rect x="1286.296" y="280.229" fill="#F6CB35" width="100.131" height="74.564"/>
	<rect x="1386.427" y="280.229" fill="#FBAF40" width="17.043" height="75.631"/>
	<rect x="1279.904" y="230.165" fill="#FBAF40" width="9.587" height="31.957"/>
	<rect x="1246.883" y="245.079" fill="#F36D31" width="43.674" height="3.194"/>
	<path fill="#F36D31" d="M1404.535,280.229H1356.6v-2.13h-13.455c-1.023-3.195-3.703-4.787-6.854-4.787
		c-3.145,0-5.822,1.592-6.851,4.787h-13.326v2.13h-30.893v1.064h44.022c0.834,3.197,3.662,5.4,7.04,5.4
		c3.373,0,6.202-2.203,7.042-5.4h61.191L1404.535,280.229L1404.535,280.229z"/>
	<polygon fill="#F36D31" points="1290.557,231.229 1246.883,231.229 1246.883,226.243 1261.67,208.86 1276.398,208.86 
		1290.557,226.243 	"/>
	<rect x="1318.252" y="280.229" fill="#F6CB35" width="36.218" height="8.521"/>
	<g>
		<rect x="1295.883" y="290.881" fill="#6D736D" width="15.979" height="21.305"/>
		<path fill="#FBAF40" d="M1312.927,312.186h-18.107v-21.305h18.107V312.186z M1296.948,311.122h14.913v-19.174h-14.913V311.122z"/>
	</g>
	<g>
		<rect x="1328.904" y="290.881" fill="#6D736D" width="15.979" height="21.305"/>
		<path fill="#FBAF40" d="M1345.948,312.186h-18.108v-21.305h18.108V312.186z M1328.904,311.122h15.979v-19.174h-15.979V311.122z"/>
	</g>
	<g>
		<rect x="1361.927" y="290.881" fill="#6D736D" width="15.979" height="21.305"/>
		<path fill="#FBAF40" d="M1377.904,312.186h-17.043v-21.305h17.043V312.186z M1361.927,311.122h15.979v-19.174h-15.979V311.122z"/>
	</g>
	<g>
		<path fill="#6D736D" d="M1318.252,355.86h-27.695v-31.684c0,0,6.121-2.625,13.398-2.625c9.375,0,14.297,2.625,14.297,2.625V355.86
			z"/>
	</g>
	<g>
		<path fill="#6D736D" d="M1350.209,355.86h-26.631v-31.684c0,0,5.59-2.625,12.865-2.625c9.377,0,13.766,2.625,13.766,2.625V355.86z
			"/>
	</g>
	<g>
		<path fill="#6D736D" d="M1383.23,355.86H1356.6v-31.684c0,0,5.59-2.625,12.864-2.625c9.377,0,13.767,2.625,13.767,2.625V355.86
			L1383.23,355.86z"/>
	</g>
	<path fill="#DADCD7" d="M1367.22,327.684h-0.179c-0.212,0-0.379,0.172-0.379,0.385v1.998h-4.29v-1.998
		c0-0.213-0.173-0.385-0.386-0.385h-0.181c-0.208,0-0.383,0.172-0.383,0.385v4.469c0,0.209,0.17,0.381,0.383,0.381h0.181
		c0.213,0,0.386-0.172,0.386-0.381v-1.524h4.29v1.524c0,0.209,0.167,0.381,0.379,0.381h0.179c0.215,0,0.388-0.172,0.388-0.381
		v-4.469C1367.608,327.856,1367.436,327.684,1367.22,327.684z"/>
	<g>
		<path d="M1363.321,354.696c0,0.607-0.86,1.102-1.696,1.102h-0.243c-0.835,0-1.396-0.491-1.396-1.102v-3.041
			c0-0.604,0.561-1.102,1.396-1.102h0.243c0.836,0,1.696,0.496,1.696,1.102V354.696z"/>
		<path d="M1379.998,354.696c0,0.607-0.857,1.102-1.694,1.102h-0.243c-0.829,0-1.396-0.491-1.396-1.102v-3.041
			c0-0.604,0.562-1.102,1.396-1.102h0.243c0.837,0,1.694,0.496,1.694,1.102V354.696z"/>
	</g>
	<path fill="#F36D31" d="M1382.381,350.081c0,1.314-1.063,2.383-2.383,2.383h-19.538c-1.313,0-2.382-1.065-2.382-2.383v-14.297
		c0-1.313,1.066-2.381,2.382-2.381h19.538c1.316,0,2.383,1.064,2.383,2.381V350.081z"/>
	<path fill="#6D736D" d="M1381.428,341.803c0,1.199-1.177,2.082-2.375,2.082h-17.774c-1.198,0-2.241-0.883-2.241-2.082v-5.373
		c0-1.195,1.043-2.074,2.241-2.074h17.774c1.197,0,2.375,0.879,2.375,2.074V341.803L1381.428,341.803z"/>
	<path fill="#F6CB35" d="M1363.321,345.792c0,0.525-0.423,0.955-0.955,0.955h-1.906c-0.526,0-0.954-0.422-0.954-0.955l0,0
		c0-0.524,0.422-0.955,0.954-0.955h1.906C1362.895,344.836,1363.321,345.266,1363.321,345.792L1363.321,345.792z"/>
	<path fill="#F6CB35" d="M1381.428,345.792c0,0.525-0.423,0.955-0.954,0.955h-1.904c-0.527,0-0.953-0.422-0.953-0.955l0,0
		c0-0.524,0.424-0.955,0.953-0.955h1.904C1381.001,344.836,1381.428,345.266,1381.428,345.792L1381.428,345.792z"/>
	<rect x="1358.076" y="351.508" fill="#DADCD7" width="24.303" height="0.955"/>
	<rect x="1367.608" y="349.602" fill="#DADCD7" width="5.24" height="1.432"/>
	<g>
		<rect x="1262.861" y="295.142" fill="#6D736D" width="11.717" height="13.849"/>
		<path fill="#FBAF40" d="M1275.645,311.122h-12.781v-17.043h12.781V311.122z M1262.861,308.991h11.717v-13.849h-11.717V308.991z"/>
	</g>
	<rect x="1262.861" y="335.622" fill="#6D736D" width="11.717" height="20.238"/>
	<rect x="1262.861" y="333.491" fill="#FBAF40" width="12.78" height="2.131"/>
	<path opacity="0.5" fill="#E8E8E8" enable-background="new    " d="M2312.262,70.116c0,0,33.541-34.416,54.834-51.041
		c15.729-12.277,29.064-20.947,38.207-18.666c4.668,1.166,11.084,7.875,23.625,17.211c5.957,4.434,12.543,9.33,23.043,16.33
		c1.775,1.18,5.496,2.205,9.041,2.625c6.303,0.752,14.023,0.729,23.334,4.375c7.83,3.066,16.041,8.967,22.457,13.125
		c7.062,4.58,11.959,7.291,11.959,7.291s-22.75,0-31.5-3.5s-19.25-8.75-28,0s-15.75,12.25-19.25,1.75s-8.75-36.75-19.25-22.75
		s-35,31.5-36.75,21s14-43.75,0-31.5S2312.262,70.116,2312.262,70.116z"/>
	<g>
		<path opacity="0.5" fill="#E8E8E8" enable-background="new    " d="M1435.42,393.282c0,0,313.346-137.662,537.346-149.332
			c224-11.668,298.664-2.338,357,2.332c58.334,4.668-730.336,147-730.336,147H1435.42z"/>
		<path fill="#006796" d="M1485.754,393.282c0,0,207.008-98,410.008-126s374.5-16.334,465.5-5.834s161.491,1.826,161.491,1.826
			l-1,131.668L1485.754,393.282z"/>
		<polygon fill="#E8E8E8" points="2519.928,298.784 2297.094,270.782 2297.094,229.95 2519.928,246.284 		"/>
		<rect x="2375.446" y="237.95" opacity="0.15" fill="#606049" enable-background="new    " width="10" height="44.493"/>
		<rect x="2313.46" y="232.377" opacity="0.15" fill="#606049" enable-background="new    " width="10" height="43"/>
		<rect x="2343.521" y="235.081" opacity="0.15" fill="#606049" enable-background="new    " width="10" height="42.998"/>
		<rect x="2414.914" y="241.377" opacity="0.15" fill="#606049" enable-background="new    " width="10" height="46.582"/>
		<rect x="2458.148" y="244.417" opacity="0.15" fill="#606049" enable-background="new    " width="10" height="47.938"/>
		<polygon opacity="0.15" fill="#606049" enable-background="new    " points="2503.071,297.417 2513.004,297.941 2513.071,246.443 
			2503.071,246.443 		"/>
		<polygon fill="#FFFFFF" points="2519.42,243.607 2316.753,228.274 2317.087,217.274 2297.087,217.274 2297.087,229.94 
			2519.753,246.274 		"/>
	</g>
	<path fill="#AEB69A" d="M0,393.282"/>
	<rect x="937.66" y="326.497" fill="#606049" width="6.312" height="7.074"/>
	<rect x="945.816" y="326.497" fill="#606049" width="6.312" height="7.074"/>
	<rect x="937.66" y="336.219" fill="#606049" width="6.312" height="7.074"/>
	<ellipse fill="#5F7D43" cx="857.105" cy="380.719" rx="15.646" ry="17.67"/>
	<g>
		<ellipse fill="#5F7D43" cx="827.646" cy="373.699" rx="20.856" ry="25.446"/>
		<ellipse opacity="0.5" fill="#87AA5A" enable-background="new    " cx="832.114" cy="362.964" rx="12.294" ry="12.813"/>
	</g>
	<polyline fill="#606049" points="1403.547,355.717 1403.554,363.04 1040.047,363.061 1040.047,355.717 1400.45,355.717 	"/>
	<g>
		<rect x="992.315" y="341.432" fill="#EBCC2D" width="25.375" height="42.229"/>
		<rect x="1008.94" y="310.807" fill="#EBCC2D" width="22.312" height="30.625"/>
		<polygon fill="#C3A52E" points="1030.814,310.741 1030.814,341.432 1017.69,341.432 1017.69,371.18 1017.685,383.641 
			1030.814,383.629 1052.689,383.629 1052.689,310.741 		"/>
		<rect x="1011.972" y="317.776" fill="#606049" width="5.869" height="5.725"/>
		<rect x="1011.971" y="325.292" fill="#606049" width="5.869" height="5.73"/>
	</g>
	<rect x="1052.691" y="360.35" fill="#BFBDB1" width="100.332" height="32.932"/>
	<g>
		<g>
			<path fill="#5F7D43" d="M1164.669,393.282c-0.249-1.271-0.382-1.23-0.382-2.613c0-8.211,4.685-14.858,10.461-14.858
				s10.46,6.647,10.46,14.858c0,1.506-0.156,1.244-0.451,2.613H1164.669z"/>
			<ellipse opacity="0.5" fill="#87AA5A" enable-background="new    " cx="1176.316" cy="384.996" rx="6.856" ry="8.286"/>
		</g>
		<g>
			<path fill="#5F7D43" d="M1148.574,393.282c-1.588-4.139-2.528-7.855-2.528-13.428c0-13.682,5.67-24.773,12.663-24.773
				c6.994,0,12.664,11.092,12.664,24.773c0,4.949-0.742,9.561-2.021,13.428H1148.574z"/>
			<ellipse opacity="0.5" fill="#87AA5A" enable-background="new    " cx="1159.656" cy="372.96" rx="9.979" ry="18.405"/>
		</g>
	</g>
	<rect x="1057.922" y="345.35" fill="#BFBDB1" width="5.832" height="29.682"/>
	<rect x="1054.918" y="345.35" fill="#E8E8E8" width="5.832" height="29.682"/>
	<rect x="1077.938" y="345.35" fill="#BFBDB1" width="5.832" height="29.682"/>
	<rect x="1074.934" y="345.35" fill="#E8E8E8" width="5.832" height="29.682"/>
	<rect x="1012.418" y="360.35" fill="#E8E8E8" width="100.332" height="32.932"/>
	<g>
		<rect x="863.017" y="383.85" fill="#E8E8E8" width="92.204" height="9.432"/>
		<polygon fill="#D1D1D1" points="955.039,383.85 986.414,370.641 1012.472,383.85 1012.472,393.282 955.039,393.282 		"/>
		<polygon fill="#606049" points="957.708,383.85 985.127,372.182 1012.546,383.85 1024.996,383.85 990.117,368.1 892.923,368.1 
			854.289,383.995 		"/>
	</g>
	<rect x="1030.911" y="367.487" fill="#606049" width="7.354" height="8.236"/>
	<rect x="1100.732" y="367.487" fill="#606049" width="7.354" height="8.236"/>
	<rect x="1100.732" y="379.905" fill="#606049" width="7.354" height="8.236"/>
</g>
</svg>
