<?xml version="1.0" encoding="utf-8"?>
<!-- Generator: Adobe Illustrator 15.1.0, SVG Export Plug-In . SVG Version: 6.00 Build 0)  -->
<!DOCTYPE svg PUBLIC "-//W3C//DTD SVG 1.1//EN" "http://www.w3.org/Graphics/SVG/1.1/DTD/svg11.dtd">
<svg version="1.1" id="Layer_1" xmlns="http://www.w3.org/2000/svg" xmlns:xlink="http://www.w3.org/1999/xlink" x="0px" y="0px"
	 width="1043.002px" height="154.076px" viewBox="0 0 1043.002 154.076" enable-background="new 0 0 1043.002 154.076"
	 xml:space="preserve">
<g id="sky" display="none">
	
		<rect x="1.166" y="-58.258" display="inline" opacity="0.2" fill="#00B6D2" enable-background="new    " width="2520.002" height="438.666"/>
</g>
<g id="back">
	<g>
		<path opacity="0.5" fill="#BFBDB1" enable-background="new    " d="M12.836,25.742c0,0,141.166-1.168,179.666-10.5
			c38.5-9.334,79.336-18.668,91-14c11.666,4.666,94.5,39.664,108.5,38.5c14-1.166,38.5-9.336,56-7
			c17.5,2.334,117.834,32.664,145.834,35c28,2.334,82.832,0,96.832,1.166c14,1.168,91,38.502,120.168,36.168
			c29.166-2.334,128.332-17.502,145.832-16.334c17.5,1.166,50.166,29.166,56,39.666s18.666,18.668,24.5,22.168s5.834,3.5,5.834,3.5
			h-168H600.836H0v-129.5L12.836,25.742z"/>
		<path opacity="0.06" fill="#606049" enable-background="new    " d="M1029.25,146.679l-19.5-0.5c0,0-5.5-10-15-24
			s-32.164-33.375-38.082-33.438c-5.918-0.063,6.082-2.062,21.582,8.938s28,22.5,31,26.5s6,8,7.5,10.5
			S1029.25,146.679,1029.25,146.679"/>
		<path opacity="0.07" fill="#606049" enable-background="new    " d="M804.5,105.429c0,0-45.25,3.25-61.25-4.25s-27.75-13.75-29-15
			c-2.916-2.916-11.5-10.5-13-12s-7-5-7-5s35.5,13.75,50.5,19.5c11.903,4.563,28,10.25,40.75,13
			C794.901,103.707,804.5,105.429,804.5,105.429z"/>
		<path opacity="0.11" fill="#606049" enable-background="new    " d="M390.5,40.179c0,0-44.5,7.25-55,2s-19-22.5-28.25-28
			s-27.5-13.75-29.75-13.75s3.75-0.5,7,1.25s50.545,20.193,57.75,23.25C375.25,38.929,390.5,40.179,390.5,40.179z"/>
	</g>
</g>
</svg>
