<?xml version="1.0" encoding="utf-8"?>
<!-- Generator: Adobe Illustrator 15.1.0, SVG Export Plug-In  -->
<!DOCTYPE svg PUBLIC "-//W3C//DTD SVG 1.1//EN" "http://www.w3.org/Graphics/SVG/1.1/DTD/svg11.dtd" [
	<!ENTITY ns_flows "http://ns.adobe.com/Flows/1.0/">
]>
<svg version="1.1"
	 xmlns="http://www.w3.org/2000/svg" xmlns:xlink="http://www.w3.org/1999/xlink" xmlns:a="http://ns.adobe.com/AdobeSVGViewerExtensions/3.0/"
	 x="0px" y="0px" width="100px" height="100px" viewBox="-4.975 -13.786 100 100"
	 overflow="visible" enable-background="new -4.975 -13.786 100 100" xml:space="preserve">
<defs>
</defs>
<path fill="#E6E6E6" d="M73.75,57.417c-5.559,6.598-8.386,19.312-36.477,17.957c-1.175,6.01,4.715,8.248,4.991,10.221
	c-9.05,0.596-16.345-11.262-18.024-12.619C19.215,71.52,5.711,63.733,6.317,54.104c-1.167-1.25-3.574-4.213-2.583-4.941
	c1.666-1.226,16.623,6.92,18.149,6.758c3.528-4.367,4.642-5.316,8.862-5.223c-1.836,4.698-2.485,3.715-0.846,8.156
	c2.379,2.275,30.305,6.086,40.496-3.672c-5.816-3.809-2.248-9.766-0.209-12.23c-0.217,5.046,7.709,7.854,5.74,10.326
	c4.461-0.641,4.442,4.008,7.248,4.615C80.324,59.114,74.895,59.62,73.75,57.417z"/>
<circle display="none" fill="none" stroke="#E6E6E6" stroke-miterlimit="10" cx="42.214" cy="42.214" r="41.714"/>
</svg>
