<?xml version="1.0" encoding="utf-8"?>
<!-- Generator: Adobe Illustrator 15.0.2, SVG Export Plug-In . SVG Version: 6.00 Build 0)  -->
<!DOCTYPE svg PUBLIC "-//W3C//DTD SVG 1.1//EN" "http://www.w3.org/Graphics/SVG/1.1/DTD/svg11.dtd">
<svg version="1.1" id="Layer_1" xmlns="http://www.w3.org/2000/svg" xmlns:xlink="http://www.w3.org/1999/xlink" x="0px" y="0px"
	 width="2520px" height="242.957px" viewBox="0 0 2520 242.957" enable-background="new 0 0 2520 242.957" xml:space="preserve">
<g id="house">
</g>
<g id="hills">
	<g>
		<polygon fill="#606049" points="2127.855,65.914 2108.605,34.414 2058.438,34.414 2043.271,65.914 		"/>
		<polygon fill="#EBCC2D" points="2011.771,133 2011.771,92.75 2079.441,92.75 2079.441,64.75 2120.855,64.75 2120.855,140.582 
			2011.771,140.582 		"/>
		<polygon fill="#FDE584" points="2079.438,63.584 2062.521,39.084 2050.271,63.584 2050.271,92.164 2079.438,92.164 		"/>
		<polygon fill="#606049" points="2079.441,92.75 2060.191,61.25 1991.355,61.25 1976.191,92.75 		"/>
		<polygon fill="#FDE584" points="2011.771,92.75 1994.855,68.25 1982.605,92.75 1982.605,141.164 2011.771,141.164 		"/>
		<polygon fill="#E8E8E8" points="2009.871,65.752 2021.264,85.545 2060.434,85.473 2047.973,65.859 		"/>
		<polygon fill="#414042" points="2011.584,66.691 2021.844,84.623 2058.529,84.555 2047.268,66.791 		"/>
		<polygon fill="#E8E8E8" points="2022.518,66.188 2033.568,85.188 2034.812,85.258 2023.674,66.188 		"/>
		<polygon fill="#E8E8E8" points="2077.27,40.662 2088.553,58.613 2112.482,58.531 2100.232,40.744 		"/>
		<polygon fill="#414042" points="2078.867,41.514 2089.043,57.777 2110.754,57.701 2099.68,41.59 		"/>
		<polygon fill="#E8E8E8" points="2088.803,41.053 2099.734,58.283 2100.867,58.352 2089.846,41.049 		"/>
		<polygon fill="#E8E8E8" points="2035.342,66.166 2046.387,85.164 2047.629,85.234 2036.494,66.162 		"/>
		<rect x="2101.271" y="104.699" fill="#606049" width="11.998" height="36.115"/>
		<rect x="2089.973" y="73.109" fill="#606049" width="24.209" height="17.783"/>
		<rect x="2045.002" y="104.852" fill="#606049" width="11.668" height="17.785"/>
		<rect x="2024.166" y="104.852" fill="#606049" width="14.584" height="17.785"/>
		<rect x="2084.623" y="104.852" fill="#606049" width="11.668" height="17.785"/>
		<path fill="#87AA5A" d="M2522.188,0c0,0-139.996,35-200.666,67.666c-60.668,32.666-161,67.668-219.334,70
			c-58.334,2.334-161.004-21-205.334-25.666c-44.332-4.668-156.332,13.998-235.666,30.332S1241.186,214.666,1131.52,217
			c-109.662,2.332-333.666-18.668-441-42C583.188,151.666,286.27,70.582,213.938,49.582S-2.188,34.707-2.188,34.707l-0.042,215.73
			l2523.542-7.48L2522.188,0z"/>
		<polyline fill="#5F7D43" points="37.812,80.146 61.309,1.951 88.658,80.146 		"/>
		<g>
			<polygon opacity="0.15" fill="#E8E8E8" enable-background="new    " points="37.584,79.33 88.039,79.33 61.238,2.682 			"/>
			<polygon opacity="0.15" fill="#E8E8E8" enable-background="new    " points="38.365,78.4 62.021,33.912 88.82,78.4 62.021,1.736 
							"/>
		</g>
		<polyline fill="#5F7D43" points="74.025,113.162 102.168,19.494 134.93,113.162 		"/>
		<g>
			<polygon opacity="0.15" fill="#E8E8E8" enable-background="new    " points="73.75,112.182 134.188,112.182 102.084,20.371 			
				"/>
			<polygon opacity="0.15" fill="#E8E8E8" enable-background="new    " points="74.684,111.07 103.021,57.777 135.125,111.07 
				103.021,19.236 			"/>
		</g>
		<polyline fill="#5F7D43" points="132.275,69.994 151.859,4.814 174.656,69.994 		"/>
		<g>
			<polygon opacity="0.15" fill="#E8E8E8" enable-background="new    " points="132.084,69.312 174.141,69.312 151.801,5.426 			"/>
			<polygon opacity="0.15" fill="#E8E8E8" enable-background="new    " points="132.734,68.539 152.451,31.457 174.791,68.539 
				152.451,4.637 			"/>
		</g>
	</g>
</g>
<path fill="#414042" d="M2100.531,139.197c-8.562,20.875-58.281,8.781-93.031,8.281c-19.429,1.322-50.25,0.25-64.5,17.75
	c-18,25.75-12.161,54.912,9.5,76.25c3.141,3.094,3.188,3.155,3.188,3.155L2103,244.229c0,0-121.25-38.25-121.25-66
	c0-6,12.865-16.508,33.25-20.252c19.079-3.502,42.831,1.553,62.588-0.892c16.564-2.048,23.028-9.329,27.412-13.608
	c2.625-2.562,8.188-6.562,8.188-6.562l-11.938,0.75C2101.25,137.666,2100.803,138.535,2100.531,139.197z"/>
<path opacity="0.17" fill="#606049" enable-background="new    " d="M2522.031,43.713l0.156-43.438c0,0-139.996,35-200.666,67.666
	c-60.668,32.666-161,67.668-219.334,70c-58.334,2.334-161.006-21-205.334-25.667c-44.332-4.668-156.332,14-235.666,30.333
	s-420.002,72.334-529.668,74.668c-109.664,2.332-333.666-18.668-441-42C583.188,151.941,286.27,70.857,213.938,49.857
	S-2.188,34.982-2.188,34.982l0.18,42.734c0,0,156.111-12.004,310.109,37.996c154,50,552.001,118,734.002,118c182,0,510-56,652-70
	s228-20,308-14c22.524,1.688,135.146-2.483,112.146,4.517c-28.492,8.67-77.387,30.076-58.604,28.791
	c29.139-1.994,125.627-37.442,154.457-45.308c66-18,170-60,216-76S2522.031,43.713,2522.031,43.713z"/>
<g>
	<g>
		<path opacity="0.2" fill="#020202" d="M2036.136,168.77l-0.006,0.017c-0.543-0.299-0.802-0.605-1.578-0.916
			c-0.669-0.319-1.375-0.574-2.106-0.764c-13.018-4.37-44.33-9.16-53.348-6.7c-5.114,1.392-10.316,7.021-13.271,10.476
			c-3.926,4.593-9.138,4.865-11.409,10.794c-1.552,4.056-2.015,9.616,1.106,12.779c4.734,4.795,9.09,9.557,14.318,13.796
			c8.424,6.828,13.714,13.308,21.479,20.866c0.022-0.182,0.671-0.14,1.48-0.037c2.302,1.672,5.584,1.398,9.074,1.398l27.125-2.25
			c6.486,0,7.75-1.639,7.75-8.125l2-41.5C2038.751,174.573,2039.229,170.886,2036.136,168.77z"/>
		<path fill="#DADCD7" d="M2035.011,165.518l-0.006,0.017c-0.543-0.299-0.802-0.605-1.578-0.916
			c-0.669-0.319-1.375-0.574-2.106-0.764c-13.018-4.37-44.33-9.16-53.348-6.7c-5.114,1.392-10.316,7.021-13.271,10.476
			c-3.926,4.593-9.138,4.865-11.409,10.794c-1.552,4.056-2.015,9.616,1.106,12.779c4.734,4.795,9.09,9.557,14.318,13.796
			c8.424,6.828,13.714,13.308,21.479,20.866c0.022-0.182,0.671-0.14,1.48-0.037c2.302,1.672,5.592,2.396,9.082,2.396l29.773-2.096
			c6.486,0,8.991-2.856,8.991-9.343l0.611-41.567C2040.135,171.188,2038.104,167.634,2035.011,165.518z"/>
		<path fill="#1E1E1E" d="M1960.073,187.361c-0.426,0-0.783,0.05-1.091,0.134c-0.03-0.003-0.059-0.024-0.087-0.024
			c-1.374,0-2.488,3.147-2.488,7.029c0,3.881,1.114,7.027,2.488,7.027c0.019,0,0.036-0.015,0.056-0.017
			c0.314,0.162,0.679,0.279,1.123,0.345c3.58,0.511,6.55-3.244,6.55-7.247C1966.621,190.606,1963.689,187.361,1960.073,187.361z"/>
		<path fill="#DADCD7" d="M1965.66,202.291c-2.187-1.44-2.572-1.643-2.4-3.974c0.214-2.943,0.31-5.072,0.349-6.809
			c0.088-3.798-0.982-5.893-4.822-5.589c1.553-0.057,3.945-2.902,4.733-1.395c1.445,2.772,2.895,5.543,4.342,8.314
			c1.234,2.362,1.358,2.79,1.001,5.46c-0.189,1.411-0.379,2.823-0.568,4.235C1968.265,202.759,1966.021,202.339,1965.66,202.291
			L1965.66,202.291z"/>
		<path fill="#1E1E1E" d="M1984.52,208.532c-0.487,0-0.883,0.067-1.211,0.187c-0.019-0.003-0.035-0.012-0.055-0.012
			c-1.375,0-2.926,4.214-2.926,9.3c0,4.779,1.536,8.383,2.794,8.838c0.249,0.149,1.749,0.397,2.14,0.414
			c5.805,0.264,6.834-3.526,6.834-8.979S1988.574,208.532,1984.52,208.532z"/>
		<path fill="#DADCD7" d="M1991.543,226.85c-2.447-1.617-2.881-1.842-2.688-4.453c0.239-3.298,0.347-5.686,0.39-7.633
			c0.1-4.255-1.099-6.604-5.404-6.262c1.738-0.063,4.422-3.252,5.305-1.562c1.622,3.105,3.244,6.211,4.865,9.316
			c1.384,2.647,1.524,3.128,1.121,6.118c-0.211,1.582,4.355,4.26,4.142,5.844C1999.24,228.469,1991.947,226.902,1991.543,226.85
			L1991.543,226.85z"/>
		<ellipse fill="#414042" cx="1958.326" cy="194.651" rx="0.988" ry="5.543"/>
		<ellipse fill="#414042" cx="1982.772" cy="217.788" rx="1.236" ry="6.943"/>
	</g>
	<path opacity="0.1" fill="#414042" enable-background="new    " d="M2038.738,213.728c0,7.715-1.89,9.081-9.604,9.081
		l-28.464,1.223c-7.714,0-8.031-7.391-8.031-15.105l3.229-33.962c0-7.715,6.692-10.915,14.405-10.915l16.327,0.35
		c7.715,0,13.008,4.422,13.008,12.137L2038.738,213.728z"/>
	<g opacity="0.1">
		<line fill="none" x1="2019.705" y1="169.113" x2="2017.348" y2="221.499"/>
		
			<rect x="2018.197" y="169.028" transform="matrix(-0.9989 -0.0461 0.0461 -0.9989 4025.9456 483.352)" fill="#231F20" width="0.699" height="52.439"/>
	</g>
	<path fill="#1E1E1E" d="M1972.732,161.699c-3.838,3.216-10.479,8.777-9.468,10.179c0.716,0.992,4.357,2.192,7.468,3.032
		c2.895,0.782,3.821,1.417,4.849-0.436c1.079-1.951,4.543-10.399,3.354-12.41c-0.597-1.01-3.348-2.138-5.884-0.596
		C1972.97,161.521,1972.732,161.699,1972.732,161.699z"/>
	<g>
		<path fill="#02638C" d="M2000.69,192.118c-0.09,0.177-0.155,0.343-0.211,0.5c-1.72,0.522-2.869,0.069-2.947,0.035
			c-0.17-0.071-0.37,0.011-0.438,0.182c-0.075,0.173,0.005,0.366,0.177,0.44c0.079,0.036,1.276,0.52,3.058,0.084
			c-0.001,0.023-0.004,0.048-0.004,0.07c0.001,0.501,0.214,0.843,0.491,1.021c0.774,0.501,2.477,0.065,4.942-2.469
			c-0.16,0.458-0.302,0.955-0.391,1.475c-0.004,0.021-0.007,0.045-0.007,0.065c0.001,0.144,0.085,0.27,0.219,0.322
			c0.268,0.106,0.42-0.114,0.556-0.309l0.338-0.513c0.297-0.447,0.962-1.457,1.411-1.983c-0.053,0.288-0.111,0.618-0.108,0.926
			c0.002,0.415,0.105,0.799,0.443,0.994c0.282,0.163,0.739,0.22,1.717-0.368c0.085,0.227,0.252,0.334,0.348,0.379
			c0.628,0.289,1.81-0.346,3.038-1.531c-0.163,0.377-0.29,0.688-0.322,0.814c-0.01,0.039-0.011,0.073-0.011,0.104
			c0.001,0.156,0.095,0.269,0.204,0.319c0.272,0.116,0.444-0.122,0.58-0.314l0.368-0.538c0.309-0.458,1.031-1.528,1.451-1.972
			c0.127,0.304,0.354,0.692,0.757,0.915c-0.118,0.267-0.175,0.494-0.172,0.688c0.001,0.235,0.089,0.412,0.267,0.532
			c0.318,0.214,0.796,0.092,1.301-0.182c-1.6,1.598-2.33,3.187-2.35,3.888c-0.001,0.018-0.001,0.029-0.001,0.041
			c0,0.393,0.194,0.553,0.313,0.609c0.245,0.121,0.541,0.043,0.885-0.229c1.205-0.967,2.075-3.246,2.521-4.638
			c0.599-0.494,1.303-0.976,2.111-1.417c-0.261,0.464-0.41,0.903-0.407,1.255c0.002,0.126,0.021,0.243,0.057,0.349
			c0.094,0.245,0.296,0.404,0.547,0.428c0.56,0.061,1.327-0.526,2.231-1.652c-0.076,0.222-0.153,0.438-0.228,0.652
			c-2.516,1.997-3.642,4.126-3.783,5.281c-0.015,0.093-0.019,0.178-0.019,0.261c0.002,0.461,0.186,0.673,0.356,0.769
			c0.193,0.107,0.519,0.16,0.997-0.21c0.532-0.408,1.798-2.41,3.02-5.701c1.633-1.264,3.872-2.474,6.852-3.311
			c0.149-0.041,0.248-0.177,0.248-0.329c0-0.026-0.004-0.057-0.012-0.086c-0.049-0.181-0.24-0.285-0.42-0.234
			c-2.602,0.732-4.663,1.748-6.272,2.849c0.19-0.573,0.381-1.176,0.562-1.809c0.01-0.034,0.016-0.068,0.015-0.098
			c0-0.13-0.078-0.252-0.201-0.308c-0.155-0.069-0.333-0.015-0.424,0.128c-1.672,2.646-2.62,3.13-2.834,3.126
			c-0.012-0.023-0.02-0.057-0.021-0.104c-0.001-0.3,0.258-1.055,1.086-1.938c0.061-0.065,0.092-0.147,0.092-0.23
			c-0.002-0.069-0.023-0.137-0.065-0.194c-0.089-0.13-0.264-0.181-0.409-0.119c-1.061,0.455-1.972,0.991-2.766,1.558
			c0.007-0.03,0.014-0.06,0.016-0.071c0.008-0.028,0.015-0.052,0.015-0.079c-0.001-0.125-0.072-0.242-0.185-0.3
			c-0.008-0.002-0.01-0.002-0.019-0.004c0.23-0.184,0.469-0.389,0.721-0.619c0.266-0.25,0.332-0.472,0.329-0.641
			c0-0.07-0.011-0.133-0.028-0.177c-0.077-0.24-0.3-0.397-0.604-0.433c-0.749-0.083-1.928,0.553-2.979,2.114
			c-0.363-0.191-0.508-0.661-0.571-0.876l-0.028-0.089c-0.046-0.14-0.175-0.229-0.324-0.229c-0.227,0.006-0.474,0.165-0.855,0.617
			c0.006-0.008,0.014-0.023,0.017-0.03c0.021-0.047,0.032-0.097,0.032-0.147c-0.001-0.116-0.062-0.225-0.167-0.288
			c-0.149-0.089-0.34-0.051-0.447,0.089c-1.87,2.544-3.518,3.253-3.774,3.127c-0.003-0.01-0.01-0.025-0.01-0.071
			c0-0.029,0.006-0.069,0.014-0.117c0.42-0.307,0.915-0.7,1.504-1.214c0.544-0.475,0.666-0.857,0.666-1.112
			c0-0.116-0.029-0.202-0.051-0.26c-0.115-0.261-0.385-0.406-0.71-0.376c-0.7,0.063-1.569,0.887-2.002,2.552
			c-1.091,0.75-1.384,0.64-1.423,0.613c-0.151-0.085-0.139-0.553,0.024-1.388c0.071-0.372,0.107-0.541,0.022-0.694
			c-0.081-0.152-0.222-0.243-0.388-0.25c-0.356-0.016-0.754,0.357-1.586,1.543c0.326-0.789,0.649-1.331,0.654-1.338
			c0.032-0.058,0.048-0.116,0.048-0.176c-0.003-0.106-0.051-0.212-0.145-0.274c-0.143-0.104-0.341-0.073-0.456,0.067
			c-2.958,3.635-4.973,4.392-5.554,4.022c-0.122-0.082-0.182-0.236-0.183-0.446c0-0.089,0.014-0.187,0.033-0.292
			c1.111-0.401,2.395-1.165,3.752-2.565c0.799-0.824,1.228-1.595,1.227-2.183c-0.001-0.133-0.023-0.253-0.067-0.362
			c-0.119-0.307-0.397-0.491-0.753-0.507C2004.122,187.483,2002.319,188.887,2000.69,192.118z M2005.159,188.205
			c0.125,0.007,0.146,0.056,0.159,0.08c0.008,0.029,0.016,0.071,0.016,0.116c0.002,0.296-0.254,0.902-1.037,1.71
			c-1.048,1.083-2.044,1.757-2.93,2.168C2002.916,189.266,2004.512,188.179,2005.159,188.205z M2011.828,189.956
			c0.112-0.062,0.19-0.073,0.236-0.073c-0.019,0.08-0.103,0.274-0.433,0.566c-0.243,0.212-0.472,0.404-0.679,0.575
			C2011.293,190.302,2011.687,190.027,2011.828,189.956z M2019.321,188.766c0.124-0.028,0.21-0.028,0.263-0.022
			c-0.018,0.022-0.035,0.05-0.073,0.082c-0.772,0.722-1.454,1.183-1.995,1.361C2018.358,189.084,2019.089,188.82,2019.321,188.766z
			 M2018.309,190.575c-0.651,0.582-1.246,0.849-1.457,0.851c0.003-0.064,0.03-0.211,0.16-0.483
			C2017.398,190.956,2017.83,190.835,2018.309,190.575z M2018.056,192.447c-0.459,1.185-1.103,2.512-1.885,3.136
			c-0.039,0.033-0.073,0.057-0.102,0.076C2016.104,195.17,2016.697,193.856,2018.056,192.447z M2020.299,196.628
			c-0.003-0.155,0.032-0.404,0.158-0.761c0.308-0.887,1.078-2.151,2.449-3.445c-1.026,2.489-1.99,3.96-2.342,4.239
			c-0.117,0.083-0.198,0.126-0.243,0.136C2020.31,196.766,2020.299,196.718,2020.299,196.628z"/>
		<path fill="#02638C" d="M2029.916,180.578c-0.211,0-0.396,0.128-0.473,0.323c0,0-1.838,4.767-2.046,5.31
			c-0.584,0.034-5.658,0.319-5.658,0.319c-0.27,0.017-0.479,0.242-0.479,0.509c0.002,0.008,0.002,0.021,0.002,0.027
			c0.015,0.279,0.253,0.49,0.535,0.477l5.98-0.34c0.197-0.011,0.371-0.137,0.444-0.323c0,0,1.121-2.916,1.699-4.404
			c0.583,1.485,1.723,4.375,1.723,4.375c0.071,0.187,0.245,0.309,0.442,0.317c0,0,3.09,0.17,4.669,0.255
			c-1.214,1.017-3.595,3.008-3.595,3.008c-0.12,0.1-0.183,0.241-0.184,0.39c0,0.043,0.003,0.083,0.016,0.124
			c0,0,0.776,2.993,1.179,4.531c-1.333-0.854-3.929-2.518-3.929-2.518c-0.166-0.107-0.379-0.106-0.547-0.002
			c0,0-2.612,1.681-3.965,2.546c0.406-1.494,1.141-4.184,1.141-4.184c0.01-0.045,0.018-0.088,0.018-0.133
			c-0.001-0.222-0.148-0.427-0.374-0.486c-0.271-0.073-0.551,0.085-0.624,0.356l-1.483,5.45c-0.056,0.203,0.02,0.416,0.188,0.541
			c0.17,0.124,0.397,0.126,0.574,0.02c0,0,4.309-2.768,4.8-3.082c0.486,0.314,4.745,3.039,4.745,3.039
			c0.174,0.111,0.399,0.104,0.569-0.02c0.132-0.096,0.21-0.25,0.21-0.411c-0.001-0.041-0.006-0.086-0.02-0.127
			c0,0-1.278-4.911-1.421-5.467c0.438-0.367,4.333-3.626,4.333-3.626c0.119-0.098,0.183-0.243,0.182-0.391
			c0-0.055-0.008-0.106-0.025-0.159c-0.065-0.197-0.245-0.333-0.452-0.346c0,0-5.045-0.27-5.626-0.302
			c-0.216-0.538-2.078-5.281-2.078-5.281C2030.311,180.705,2030.123,180.578,2029.916,180.578L2029.916,180.578z"/>
	</g>
</g>
</svg>
