<?xml version="1.0" encoding="utf-8"?>
<!-- Generator: Adobe Illustrator 15.1.0, SVG Export Plug-In  -->
<!DOCTYPE svg PUBLIC "-//W3C//DTD SVG 1.1//EN" "http://www.w3.org/Graphics/SVG/1.1/DTD/svg11.dtd" [
	<!ENTITY ns_flows "http://ns.adobe.com/Flows/1.0/">
]>
<svg version="1.1"
	 xmlns="http://www.w3.org/2000/svg" xmlns:xlink="http://www.w3.org/1999/xlink" xmlns:a="http://ns.adobe.com/AdobeSVGViewerExtensions/3.0/"
	 x="0px" y="0px" width="300px" height="300px" viewBox="0 -69.91 300 300"
	 overflow="visible" enable-background="new 0 -69.91 300 300" xml:space="preserve">
<defs>
</defs>
<polygon display="none" fill="#808A94" points="0.109,230.09 0,229.488 210.172,22.127 211.398,23.375 0.438,229.816 "/>
<polygon display="none" fill="#F3732A" points="235.285,39.086 204.66,23.336 202.328,0 224.494,7 "/>
<path display="none" fill="#FFFFFF" d="M250.922,75.078l-1.527-3.15c0.08-0.039,7.967-3.979,7.479-10.842
	c-0.506-7.086-2.906-8.191-7.85-9.842l-0.684-0.225c-5.209-1.721-13.93-4.602-13.93-13.684h3.5c0,6.059,5.221,8.277,11.527,10.359
	l0.693,0.23c5.76,1.92,9.586,3.855,10.23,12.91C261.021,70.08,251.336,74.879,250.922,75.078L250.922,75.078z"/>
<polygon fill="#808A94" points="0.273,230.09 0,229.816 178.729,82.836 179.633,83.943 1.477,229.16 "/>
<path fill="#FBAE18" d="M207.902,91.768l-13.707,9.719c0,0-7.334-9.426-14.334-13.801s-20.701-7.432-20.701-7.432l12.43-9.486
	c0,0,13.562-1.75,22.75,4.812S207.902,91.768,207.902,91.768z"/>
<polygon display="none" fill="#808A94" points="0,230.09 0.164,229.652 200.627,99.184 201.4,100.383 0.766,229.816 "/>
<path display="none" fill="#808A94" d="M199.133,115.275c0,0-1.711-9.691-1.426-15.391c0.285-5.701,0.602-6.33,0.602-6.33
	s7.014-1.436,11.875-1.039c5.65,0.463,14.758,3.574,14.758,3.574s-6.109-0.113-9.453,1.73c-3.246,1.791-4.67,7.193-4.67,7.193
	s-2.814-1.342-7.09,1.223S199.133,115.275,199.133,115.275z"/>
</svg>
