<?xml version="1.0" encoding="utf-8"?>
<!-- Generator: Adobe Illustrator 15.1.0, SVG Export Plug-In . SVG Version: 6.00 Build 0)  -->
<!DOCTYPE svg PUBLIC "-//W3C//DTD SVG 1.1//EN" "http://www.w3.org/Graphics/SVG/1.1/DTD/svg11.dtd">
<svg version="1.1" xmlns="http://www.w3.org/2000/svg" xmlns:xlink="http://www.w3.org/1999/xlink" x="0px" y="0px" width="2520px"
	 height="402.863px" viewBox="0 0 2520 402.863" enable-background="new 0 0 2520 402.863" xml:space="preserve">
<g id="Layer_1">
	<g id="beach">
	</g>
	<g id="ocean">
	</g>
	<g id="rocks">
	</g>
	<g id="beach_town">
	</g>
	<path fill="#EBCC2D" d="M1336.439,168.002H849.936l-396.377,10.791l3.791,120.064L425.1,404.691l508.083-1.418l-85.333-24
		l-73.748-18.771c0,0-123.666-45.498-78.166-89.832s147-56,218.166-60.668c71.168-4.666,117.834-10.501,142.334-18.666
		c24.5-8.166,43.168-8.166,58.334-8.166S1336.439,168.002,1336.439,168.002"/>
	<path fill="#AEB69A" d="M500.017,404.441c0,0-35.167-17.168-44.167-49.168c-7.086-25.195,0.334-52.23,0.334-52.23
		s13.707-55.707,70.875-77.875s264.541-39.666,314.707-39.666c50.168,0,135.336,0,135.336,0s-77.002-15.166-96.836-25.666
		c-19.832-10.5-51.33-11.668-64.164-8.168c-12.836,3.5-115.5,15.166-141.168,7s-123.666-38.5-173.832-40.832
		c-50.168-2.334-136.5,14-162.168,11.666s-64.166-11.666-83.998-25.666c-19.834-14-112.002-36.168-172.668-38.5
		C21.602,63.002-2.753,65.48-2.753,65.48l1.604,341.293L500.017,404.441z"/>
	<path opacity="0.13" fill="#606049" enable-background="new    " d="M972.85,185.502c2.74,0,4.252,0,4.252,0
		s-77.002-15.166-96.836-25.666c-19.832-10.5-51.33-11.668-64.164-8.168c-12.836,3.5-115.5,15.166-141.168,7
		s-123.666-38.5-173.832-40.832c-50.168-2.334-136.5,14-162.168,11.666s-64.166-11.666-83.998-25.666
		c-19.834-14-112.002-36.168-172.668-38.5C21.602,63.002-2.753,65.48-2.753,65.48l0.279,33.793c0,0,87.324-6,149.324,2
		s102,24,124,32s104,6,144,2s100,0,128,4s144,32,182,32s92-8,120-6S972.85,185.502,972.85,185.502z"/>
	<path fill="#0093AD" d="M2521.186,169.168h-1170.75c0,0-241.51,15.746-271.256,19.248s-61.246,17.501-117.246,19.251
		s-155.75,7-211.75,33.25s-77,45.5-50.75,77s129.416,58.604,171.416,67.354c12.104,2.521,62.33,18.001,76.33,18.001
		c6,0,277.75,1.25,340.75,1.25c85.91,0,545.941-1.25,614.75-1.25c69,0,276.172,0,356.172,0c85.229,0,262.334,0,262.334,0V169.168z"
		/>
	<path fill="#FFFFFF" d="M979.432,382.666c0,0-74.082-29.166-66.5-65.332c7.584-36.168,58.918-68.25,85.75-78.75
		c10.888-4.26,41.438-12.334,74.084-16.918c47.83-6.719,100.363-9.332,103.832-9.332c5.834,0-29.168,6.416-35.582,6.416
		c-6.416,0-7.584,8.164-14,8.75c-3.496,0.316-29.912,0.756-54.834,4.666c-20.842,3.27-40.666,10.021-44.916,11.084
		c-9.334,2.334-25.666,8.75-18.084,9.916c7.584,1.168,39.084,14.584,29.75,18.084s-43.752,7.584-46.084,8.166
		c-2.332,0.584-1.75,4.084,2.918,5.25c4.666,1.168,26.25,6.418,21,8.75c-5.25,2.334-46.086,8.168-50.168,9.918
		s-4.666,6.416,0.584,8.166s13.416,7,9.916,7.584c-3.5,0.582-29.166,1.748-32.666,2.916c-3.5,1.166,5.834,14.584,16.334,16.334
		s157.5,5.248,169.166,6.416c11.666,1.166,41.416,4.084,35.584,6.416c-5.834,2.334-166.25,8.168-172.084,8.75
		c-5.834,0.584,3.5,12.834,14.584,17.5c11.082,4.668,28.582,9.918,28.582,9.918s-18.668,2.33-33.25,1.166
		C988.766,387.333,979.432,382.666,979.432,382.666z"/>
	<path fill="#FFFFFF" d="M829.848,252c4.045-3.775,74.08-26.25,114.916-30.916c40.834-4.668,111.418-12.25,114.334-12.25
		s11.08-4.084,4.666-4.084c-6.416,0-4.664-8.75,21.586-12.25s196.59-18.08,224.002-19.83c27.416-1.75,33.836-4.084,26.838-4.084
		c-7,0-239.756,13.416-254.924,15.75c-15.166,2.332-67.666,18.082-82.25,17.5c-14.584-0.584-130.088,8.748-171.504,13.998
		c-41.418,5.25-137.084,38.5-141.75,68.832c-4.668,30.334,37.914,56.584,72.332,68.25c34.418,11.668,88.666,18.666,94.5,18.084
		c5.834-0.584-46.084-13.418-59.5-19.25c-13.416-5.834-29.75-12.836-25.082-19.25c4.666-6.416,45.5-13.418,57.75-14
		c12.25-0.584,26.248-0.582,19.832-2.916s-82.83-5.252-95.666-9.334c-12.834-4.084-8.168-13.416,4.666-18.084
		c12.834-4.666,108.5-17.5,120.75-17.5s2.918-4.666-4.082-5.832C864.262,263.666,821.1,260.164,829.848,252z"/>
	<path fill="#606049" d="M2521.77,191.918h-340.084c0,0,33.25-40.25,42-49s15.75-21,28-17.5s26.25,19.25,42,15.75
		s122.5-70,154-75.25s74.668,14,74.668,14L2521.77,191.918z"/>
	<path fill="#32321F" d="M2224.085,142.738c8.75-8.75,15.75-21,28-17.5s26.25,19.25,42,15.75s122.5-70,154-75.25
		s74.668,14,74.668,14l-0.115,22.334c0,0-42.387-23-88.387-14s-148.733,69.535-162.733,74.535s-18.666-23.333-26.666-27.333
		s-13.265-0.072-20.334,7"/>
	<polygon fill="#808A94" points="2257.513,127.752 2237.681,127.752 2242.347,70.586 2254.013,70.586 	"/>
	<rect x="2235.347" y="77.586" fill="#606049" width="25.084" height="8.166"/>
	<rect x="2242.306" y="65.133" fill="#808A94" width="11.644" height="12.137"/>
	<polygon fill="#606049" points="2255.931,65.133 2240.82,65.133 2248.003,60.18 	"/>
	<rect x="2244.785" y="66.619" fill="#E8E8E8" width="6.936" height="7.924"/>
	<path fill="#606049" d="M1767.52,186.086h157.5c0,0-14-31.502-19.834-41.418s-23.918-22.75-30.334-22.75
		s-23.332,13.416-32.082,12.25s-10.5-5.25-16.334-7s-32.666,16.918-36.75,19.834s-7.584,9.918-8.75,12.25
		C1779.77,161.586,1767.52,186.086,1767.52,186.086z"/>
	<path fill="#606049" d="M1602.436,191.336h100.916c0,0-15.75-33.25-19.25-40.25s-2.916-8.168-6.416-7
		c-3.5,1.166-11.668-12.834-13.418-15.75c-1.75-2.918-14-5.836-19.25-2.918s-16.332,15.168-18.082,18.084
		S1602.436,191.336,1602.436,191.336z"/>
	<path fill="#606049" d="M1618.767,280.585h92.168l-11.668-24.5c0,0-4.086-8.166-8.75-5.834
		c-4.666,2.334-29.166,23.334-34.416,22.75s-8.166-5.25-10.5-8.166c-2.334-2.918-6.416-1.75-9.916,1.166
		S1618.767,280.585,1618.767,280.585z"/>
	<path fill="#606049" d="M1498.604,286.417h-203c0,0,14-17.502,18.666-19.834c4.666-2.334,26.25-2.334,29.75-9.334
		s11.666-25.666,17.5-26.25c5.834-0.582,25.082-8.75,27.416-11.666s15.166-21,21-21s38.5,12.833,40.25,14.583s18.082,44.334,21,45.5
		s23.334,9.916,23.334,9.916L1498.604,286.417z"/>
	<path fill="#606049" d="M1265.27,212.333h-47.252l9.918-15.75c0,0,4.084-4.666,7-3.5s8.748,7.584,11.666,7
		c2.916-0.584,5.25-6.42,7-5.834c1.75,0.584,5.25,5.25,5.25,5.25L1265.27,212.333z"/>
	<path fill="#32321F" d="M1812.354,132.488c1.883-1.062,3.717-2.042,5.426-2.875c4.047-1.971,7.397-3.123,9.059-2.625
		c5.834,1.75,7.584,5.834,16.334,7c8.75,1.166,25.666-12.25,32.082-12.25s24.5,12.834,30.334,22.75
		c5.834,9.916,19.834,41.418,19.834,41.418h-26.609l-19.498-42.71l-19.5-4.5l-2.998,13.5"/>
	<path fill="#32321F" d="M1666.322,191.156h37.43c0,0-15.75-33.25-19.25-40.25s-2.916-8.168-6.416-7
		c-3.5,1.166-11.668-12.834-13.418-15.75c0,0-3.475-2.75-6.609-3.231c-3.134-0.481-9.161-0.241-9.161-0.241
		s14.948,10.851,19.051,18.085c4.1,7.234,8.438,13.986,8.682,19.292c0.24,5.305-4.582,5.305-6.27,1.929
		c-1.689-3.376-17.123-21.22-16.398-14.709c0.726,6.511,2.896,16.397,2.896,16.397L1666.322,191.156"/>
	<path fill="#32321F" d="M1682.822,280.406h28.514l-11.668-24.5c0,0-4.084-8.166-8.75-5.834"/>
	<path fill="#32321F" d="M1404.921,201.026c2.062-1.741,3.955-2.872,5.414-2.872c5.834,0,38.5,12.834,40.25,14.584
		s18.082,44.334,21,45.5s23.334,9.916,23.334,9.916l4.084,18.084h-38.17"/>
	<path fill="#32321F" d="M1265.669,212.154h-7.176l-6.922-12.792l-4.153,6.093l-9.415-9.138c0,0-5.582-4.578-2.666-3.412
		c2.916,1.166,8.748,7.584,11.666,7c2.916-0.584,5.25-6.42,7-5.834c1.75,0.584,5.25,5.25,5.25,5.25L1265.669,212.154z"/>
	<polygon fill="#FFFFFF" points="1260.594,287.292 1502.818,287.292 1497.436,282.917 1297.061,282.917 	"/>
	<polygon fill="#FFFFFF" points="1194.686,214.52 1265.986,214.52 1264.402,211.613 1205.418,211.613 	"/>
	<polygon fill="#FFFFFF" points="1589.023,193.953 1704.583,193.953 1702.021,191.049 1606.417,191.049 	"/>
	<polygon fill="#FFFFFF" points="1600.689,282.619 1713.333,282.619 1710.835,279.712 1617.646,279.712 	"/>
	<polygon fill="#FFFFFF" points="1748.857,188.119 1927.419,188.119 1923.458,185.213 1775.736,185.213 	"/>
	<path fill="#32321F" d="M1387.851,220.607c0,0-14.002,7-17.668,8.332c-3.666,1.334-10,2.668-10,2.668s16,2.332,23,8.332
		s12.334,11.334,14,9.668C1398.851,247.939,1387.851,220.607,1387.851,220.607z"/>
	<path fill="#32321F" d="M1343.183,258.607c0,0-4.666,11.332-15.332,12c-10.668,0.666-16.334,1-18.334,2.332
		c-2,1.334-6.334,4-6.334,4s8.171-9.045,11.087-10.355c2.913-1.311,15.582-1.311,20.248-2.977S1343.183,258.607,1343.183,258.607z"
		/>
	<path fill="#E8E8E8" d="M466.684,278.542c0,0,21-46.375,90.125-62.125s246.538-30.936,320.25-30.625
		c5.413-4.311-339.5,4.375-339.5,4.375H240.934v-14h-42.875v57.763h-78.914v43.766L466.684,278.542"/>
	<rect x="596.184" y="173.105" fill="#FFFFFF" width="18.812" height="18.375"/>
	<polygon fill="#BFBDB1" points="450.059,182 433.143,182 433.143,177.043 418.268,177.043 418.268,180.543 380.934,180.543 
		380.934,177.043 362.559,177.043 362.559,181.125 347.102,181.125 347.102,193.668 315.018,193.668 315.018,214.667 
		208.49,230.932 208.49,236.441 369.305,238.125 426.434,237.417 477.184,207.667 481.559,214.667 514.372,214.667 519.184,202.417 
		545.434,202.417 545.434,180.543 464.934,180.543 	"/>
	<rect x="498.622" y="183.168" fill="#606049" width="30.625" height="17.938"/>
	<rect x="500.809" y="201.105" fill="#F3732A" width="27.125" height="15.312"/>
	<rect x="537.997" y="177.48" fill="#FFFFFF" width="15.312" height="28.438"/>
	<rect x="552.872" y="177.043" fill="#E8E8E8" width="20.125" height="28.875"/>
	<rect x="583.059" y="179.23" fill="#FFFFFF" width="17.938" height="20.562"/>
	<rect x="591.809" y="179.23" fill="#E8E8E8" width="9.188" height="20.562"/>
	<polygon fill="#606049" points="388.516,200.086 394.934,188.418 401.352,200.086 404.266,200.086 396.102,184.336 
		373.352,184.336 364.309,200.23 	"/>
	<rect x="411.559" y="189.293" fill="#606049" width="12.543" height="7"/>
	<polygon fill="#FFFFFF" points="300.872,206.355 300.872,162.168 289.934,162.168 289.934,206.355 283.809,206.355 283.809,256.23 
		370.872,256.23 370.872,206.355 	"/>
	<rect x="431.247" y="195.418" fill="#EBCC2D" width="25.375" height="29.312"/>
	<rect x="447.872" y="168.73" fill="#EBCC2D" width="22.312" height="26.688"/>
	<polygon fill="#C3A52E" points="469.747,168.73 469.747,195.418 456.622,195.418 456.622,225.167 456.616,225.617 469.747,225.605 
		491.622,225.605 491.622,168.73 	"/>
	<polygon fill="#606049" points="456.403,225.167 401.278,225.167 415.278,203.292 442.84,203.292 	"/>
	<polygon fill="#FEC773" points="403.903,225.167 425.34,225.167 425.778,250.105 404.34,250.105 	"/>
	<polygon fill="#FBAE18" points="450.715,250.105 450.715,225.605 438.903,206.355 425.34,225.167 425.34,249.667 	"/>
	<rect x="435.987" y="224.875" fill="#808A94" width="5.832" height="5.836"/>
	<rect x="297.516" y="162.242" fill="#E8E8E8" width="4.084" height="43.677"/>
	<rect x="352.77" y="206.576" fill="#E8E8E8" width="17.826" height="43.676"/>
	<rect x="354.684" y="224.292" fill="#606049" width="58.188" height="20.125"/>
	<rect x="359.059" y="244.296" fill="#B3966D" width="50.312" height="25.496"/>
	<rect x="395.817" y="249.419" fill="#606049" width="6.981" height="7.496"/>
	<rect x="461.653" y="212.137" fill="#606049" width="5.869" height="5.725"/>
	<rect x="340.1" y="213.5" fill="#808A94" width="5.83" height="5.836"/>
	<rect x="366.352" y="200.086" fill="#E8E8E8" width="21.582" height="14.291"/>
	<rect x="347.393" y="180.543" fill="#E8E8E8" width="8.166" height="14.293"/>
	<rect x="362.561" y="177.771" fill="#E8E8E8" width="11.375" height="5.252"/>
	<rect x="417.977" y="177.479" fill="#E8E8E8" width="8.166" height="5.252"/>
	<g>
		<polygon fill="#E8E8E8" points="118.961,405.981 118.961,406.431 500.017,406.431 499.495,404.443 		"/>
		<path fill="#E8E8E8" d="M499.414,404.133c-4.607-2.396-35.247-19.289-43.564-48.859c-7.086-25.194,0.334-52.229,0.334-52.229
			s2.896-11.335,10.566-25.11l-347.789-3v131.051l380.534-1.538L499.414,404.133z"/>
	</g>
	<rect x="399.602" y="180.688" fill="#E8E8E8" width="8.166" height="3.209"/>
	<path fill="#606049" d="M666.817,251.553l-0.298-8.9c0,0-2.379-0.856-2.379-2.606s1.166-4.375,1.166-4.375l10.703-6.065
		l0.445,1.037l-5.604,5.321l0.412,13.22l-1.778,0.297l-0.384-3.017l-0.356,4.94L666.817,251.553z"/>
	<circle fill="#606049" cx="668.091" cy="232.631" r="1.8"/>
	<path fill="#606049" d="M688.627,238.93l-0.207-6.267c0,0-1.674-0.604-1.674-1.836s0.82-3.082,0.82-3.082l7.537-4.271l0.312,0.729
		l-3.947,3.746l0.293,9.307l-1.254,0.207l-0.27-2.121l-0.254,3.48L688.627,238.93z"/>
	<circle fill="#606049" cx="689.525" cy="225.609" r="1.268"/>
	<path fill="#606049" d="M750.602,226.979l-0.157-4.791c0,0-1.277-0.463-1.277-1.399c0-0.94,0.627-2.356,0.627-2.356l5.76-3.265
		l0.24,0.56l-3.018,2.862l0.225,7.113l-0.959,0.157l-0.207-1.622l-0.188,2.661L750.602,226.979z"/>
	<path fill="#606049" d="M752.254,216.792c0,0.535-0.432,0.972-0.965,0.972c-0.537,0-0.969-0.437-0.969-0.972
		c0-0.533,0.432-0.967,0.969-0.967C751.823,215.826,752.254,216.259,752.254,216.792z"/>
	<rect x="211.247" y="227.223" fill="#FFFFFF" width="39.403" height="46.769"/>
	<rect x="237.063" y="185.781" fill="#FFFFFF" width="34.646" height="41.441"/>
	<polygon fill="#E8E8E8" points="271.031,185.781 271.031,227.223 250.65,227.223 250.65,273.419 250.642,274.117 271.031,274.098 
		305,274.098 305,185.781 	"/>
	<rect x="258.463" y="253.186" fill="#606049" width="9.114" height="8.891"/>
	<rect x="143.997" y="190.661" fill="#FFFFFF" width="29.751" height="85.317"/>
	<rect x="172.9" y="190.663" fill="#E8E8E8" width="39.103" height="86.63"/>
	<rect x="300.524" y="229.932" fill="#606049" width="65.508" height="22.655"/>
	<rect x="305.449" y="252.451" fill="#FFFFFF" width="56.641" height="28.703"/>
	<rect x="305.832" y="257.718" fill="#606049" width="7.861" height="8.439"/>
	<g>
		<rect x="143.497" y="266.473" fill="#808A94" width="39.403" height="46.769"/>
		<rect x="169.313" y="225.031" fill="#808A94" width="34.646" height="41.441"/>
		<polygon fill="#A3AAAF" points="203.281,225.031 203.281,266.473 182.9,266.473 182.9,312.669 182.892,313.367 203.281,313.348 
			317.312,313.348 317.312,225.031 		"/>
		<rect x="190.713" y="292.436" fill="#606049" width="9.114" height="8.891"/>
		<rect x="301.713" y="230.186" fill="#606049" width="9.114" height="8.891"/>
		<rect x="288.702" y="230.186" fill="#606049" width="9.114" height="8.891"/>
		<rect x="301.713" y="241.193" fill="#606049" width="9.114" height="8.891"/>
	</g>
	<polygon fill="#606049" points="343.347,296.504 282.334,296.504 297.83,272.292 328.335,272.292 	"/>
	<polygon fill="#EBCC2D" points="285.24,296.504 308.966,296.504 309.451,324.105 285.723,324.105 	"/>
	<polygon fill="#C3A52E" points="337.051,324.105 337.051,296.988 323.978,275.682 308.966,296.504 308.966,323.621 	"/>
	<rect x="313.25" y="300.18" fill="#606049" width="6.455" height="6.459"/>
	<rect x="290.241" y="300.18" fill="#606049" width="6.455" height="6.459"/>
	<g>
		<rect x="109.813" y="311.527" fill="#E8E8E8" width="44.479" height="92.337"/>
		<polygon fill="#BFBDB1" points="153.421,404.284 299.812,404.284 299.812,311.527 153.421,311.527 153.421,357.85 		"/>
		<rect x="279.786" y="317.288" fill="#606049" width="11.701" height="9.937"/>
		<rect x="263.083" y="317.288" fill="#606049" width="11.701" height="9.937"/>
		<rect x="279.786" y="329.594" fill="#606049" width="11.701" height="9.936"/>
	</g>
</g>
<g id="Layer_2" display="none">
	<polygon display="inline" fill="#808A94" points="676.301,230.089 676.192,229.488 886.364,22.127 887.59,23.375 676.629,229.816 	
		"/>
	<polygon display="inline" fill="#808A94" points="755.051,216.035 755.215,215.598 955.678,85.129 956.452,86.328 755.817,215.762 
			"/>
	<polygon display="inline" fill="#808A94" points="695.278,224.074 695.004,223.8 873.733,76.82 874.637,77.928 696.481,223.145 	
		"/>
	<polygon display="inline" fill="#F3732A" points="911.477,39.086 880.852,23.336 878.52,0 900.686,7 	"/>
	<path display="inline" fill="#FFFFFF" d="M927.114,75.078l-1.527-3.15c0.08-0.039,7.967-3.979,7.479-10.842
		c-0.506-7.086-2.906-8.191-7.853-9.842l-0.684-0.225c-5.209-1.721-13.933-4.602-13.933-13.684h3.5
		c0,6.059,5.224,8.277,11.527,10.359l0.693,0.23c5.76,1.92,9.586,3.855,10.229,12.91C937.213,70.08,927.528,74.879,927.114,75.078
		L927.114,75.078z"/>
	<path display="inline" fill="#808A94" d="M954.184,101.221c0,0-1.711-9.691-1.426-15.391c0.285-5.701,0.604-6.33,0.604-6.33
		s7.014-1.436,11.875-1.039c5.647,0.463,14.758,3.574,14.758,3.574s-6.109-0.113-9.453,1.73c-3.246,1.791-4.67,7.193-4.67,7.193
		s-2.814-1.342-7.09,1.223C954.504,94.746,954.184,101.221,954.184,101.221z"/>
	<path display="inline" fill="#FBAE18" d="M902.907,85.752L889.2,95.471c0,0-7.334-9.426-14.334-13.801s-20.701-7.432-20.701-7.432
		l12.43-9.486c0,0,13.562-1.75,22.75,4.812C898.533,76.126,902.907,85.752,902.907,85.752z"/>
</g>
</svg>
