<?xml version="1.0" encoding="utf-8"?>
<!-- Generator: Adobe Illustrator 15.0.2, SVG Export Plug-In . SVG Version: 6.00 Build 0)  -->
<!DOCTYPE svg PUBLIC "-//W3C//DTD SVG 1.1//EN" "http://www.w3.org/Graphics/SVG/1.1/DTD/svg11.dtd">
<svg version="1.1" id="background_1_" xmlns="http://www.w3.org/2000/svg" xmlns:xlink="http://www.w3.org/1999/xlink" x="0px"
	 y="0px" width="2520.004px" height="404.186px" viewBox="0 0 2520.004 404.186" enable-background="new 0 0 2520.004 404.186"
	 xml:space="preserve">
<g>
	<path opacity="0.5" fill="#BFBDB1" d="M0,84.094c0,0,44.334,0,60.666,7c16.334,7,53.668,11.666,74.668,4.666
		s49-25.666,58.332-18.666c9.334,7,58.334,46.666,77,49c18.668,2.332,90.998-9.334,149.334,0c58.334,9.332,175,44.332,196,51.332
		s107.334,2.334,121.334,2.334s128.33-9.334,137.666-9.334c9.334,0,60.668-30.334,79.334-25.666
		c18.666,4.666,116.666,35,149.332,32.666c32.668-2.332,207.668-18.666,254.334-11.666c46.664,7,111.996,9.332,130.664,0
		c18.67-9.334,74.67-25.668,93.336-28c18.664-2.334,177.334-9.334,210-23.334c32.664-14,83.996-37.332,102.664-37.332
		c18.67,0,42.004,0,53.67-4.668c11.666-4.666,27.996-16.332,37.33-14c9.336,2.334,32.67,16.334,46.67,16.334s65.338-21,81.67-28
		c16.33-7,133-49,161-46.666c28,2.332,58.334,9.334,84,11.666c25.664,2.334,72.33,25.666,88.664,23.334
		c16.336-2.334,32.666-14,42-14c9.336,0,30.336,2.332,30.336,2.332v380.76L-4.67,406.24L0,84.094z"/>
	<g>
		<defs>
			<path id="SVGID_1_" d="M0,84.094c0,0,44.334,0,60.666,7c16.334,7,53.668,11.666,74.668,4.666s49-25.666,58.332-18.666
				c9.334,7,58.334,46.666,77,49c18.668,2.332,90.998-9.334,149.334,0c58.334,9.332,175,44.332,196,51.332
				s107.334,2.334,121.334,2.334s128.33-9.334,137.666-9.334c9.334,0,60.668-30.334,79.334-25.666
				c18.666,4.666,116.666,35,149.332,32.666c32.668-2.332,207.668-18.666,254.334-11.666c46.664,7,111.996,9.332,130.664,0
				c18.67-9.334,74.67-25.668,93.336-28c18.664-2.334,177.334-9.334,210-23.334c32.664-14,83.996-37.332,102.664-37.332
				c18.67,0,42.004,0,53.67-4.668c11.666-4.666,27.996-16.332,37.33-14c9.336,2.334,32.67,16.334,46.67,16.334s65.338-21,81.67-28
				c16.33-7,133-49,161-46.666c28,2.332,58.334,9.334,84,11.666c25.664,2.334,72.33,25.666,88.664,23.334
				c16.336-2.334,32.666-14,42-14c9.336,0,30.336,2.332,30.336,2.332v380.76H2.328L0,84.094z"/>
		</defs>
		<clipPath id="SVGID_2_">
			<use xlink:href="#SVGID_1_"  overflow="visible"/>
		</clipPath>
		<path opacity="0.15" clip-path="url(#SVGID_2_)" fill="#606049" d="M191.84,76.229c0,0,13.646,44.836,25.34,60.43
			c11.695,15.594,74.074,48.732,60.43,38.984c-13.645-9.746-42.885-35.086-29.24-35.086s50.682-11.697,50.682-11.697L191.84,76.229z
			"/>
		<path opacity="0.15" clip-path="url(#SVGID_2_)" fill="#606049" d="M201.586,144.455c20.955,5.986-19.492-62.379-21.441-50.682
			C178.193,105.469,187.941,140.557,201.586,144.455z"/>
		<path opacity="0.15" clip-path="url(#SVGID_2_)" fill="#606049" d="M2016.398,52.836c-7.795,0-33.137,19.49-33.137,29.238
			s-9.744,19.494-19.492,17.545s-37.033-13.646-44.834-5.848c-7.799,7.797-13.646,25.34-1.951,25.34s23.396-5.846,44.836-5.846
			c21.441,0,87.723-38.988,111.113-52.633C2096.322,46.988,2016.398,52.836,2016.398,52.836z"/>
		<path opacity="0.15" clip-path="url(#SVGID_2_)" fill="#606049" d="M1070.98,177.592c0,0-74.076,7.799-91.619,1.949
			c-17.541-5.848-40.936-21.439-27.291-19.492c13.646,1.949,46.785,5.848,31.189-1.949c-15.594-7.799-37.035-15.598-33.137-23.393
			C954.021,126.91,1070.98,177.592,1070.98,177.592z"/>
	</g>
</g>
</svg>
