<?xml version="1.0" encoding="utf-8"?>
<!-- Generator: Adobe Illustrator 15.1.0, SVG Export Plug-In . SVG Version: 6.00 Build 0)  -->
<!DOCTYPE svg PUBLIC "-//W3C//DTD SVG 1.1//EN" "http://www.w3.org/Graphics/SVG/1.1/DTD/svg11.dtd">
<svg version="1.1" id="Layer_1" xmlns="http://www.w3.org/2000/svg" xmlns:xlink="http://www.w3.org/1999/xlink" x="0px" y="0px"
	 width="258.563px" height="54.179px" viewBox="0 0 258.563 54.179" enable-background="new 0 0 258.563 54.179"
	 xml:space="preserve">
<path opacity="0.7" fill="#FFFFFF" d="M258.563,54.179H3.325c0,0-5.779-3.148-2.1-4.725c3.674-1.578,11.551-1.578,12.604-5.254
	c1.047-3.676-5.777-11.559,4.201-13.654c9.977-2.096,28.885,0.523,35.711,0.523c6.828,0,15.232,0,14.707-6.822
	c-0.525-6.826-8.404-15.76,3.678-21.014c12.078-5.246,33.613-3.67,43.059,1.582c9.455,5.248,18.387,16.807,27.316,13.648
	c8.93-3.148,20.48-13.648,35.186-9.977c14.705,3.682,19.432,18.381,23.631,23.111c4.201,4.725,14.18,0.523,20.484,5.254
	c6.303,4.723,5.777,10.5,12.602,9.977c6.83-0.529,12.08-3.678,16.285-1.053C254.888,48.405,258.563,54.179,258.563,54.179z"/>
</svg>
