<?xml version="1.0" encoding="utf-8"?>
<!-- Generator: Adobe Illustrator 15.0.2, SVG Export Plug-In . SVG Version: 6.00 Build 0)  -->
<!DOCTYPE svg PUBLIC "-//W3C//DTD SVG 1.1//EN" "http://www.w3.org/Graphics/SVG/1.1/DTD/svg11.dtd">
<svg version="1.1" id="hills_back" xmlns="http://www.w3.org/2000/svg" xmlns:xlink="http://www.w3.org/1999/xlink" x="0px" y="0px"
	 width="2534px" height="228.963px" viewBox="0 0 2534 228.963" enable-background="new 0 0 2534 228.963" xml:space="preserve">
<g>
	<polygon fill="#606049" points="856.886,25.771 811.072,25.771 823.809,5.827 845.581,5.827 	"/>
	<polygon fill="#917757" points="860.05,47.296 860.05,25.081 853.138,13.526 849.876,17.34 845.138,9.086 833.88,25.673 
		814.332,25.673 814.332,47.296 	"/>
	<rect x="814.034" y="25.378" fill="#B3966D" width="19.846" height="21.625"/>
	<polygon fill="#606049" points="838.919,25.375 845.239,25.375 854.125,12.54 847.413,12.54 	"/>
	<polygon fill="#606049" points="862.422,25.375 860.643,25.375 851.755,12.54 853.929,12.54 	"/>
	<rect x="840.5" y="24.981" fill="#B3966D" width="4.935" height="22.116"/>
	<polygon fill="#E8E8E8" points="839.572,9.659 831.933,21.813 815.731,21.758 824.025,9.714 	"/>
	<polygon fill="#414042" points="838.492,10.235 831.602,21.248 816.902,21.195 824.4,10.286 	"/>
	<polygon fill="#E8E8E8" points="831.763,9.923 824.363,21.589 823.594,21.636 831.059,9.92 	"/>
</g>
<g>
	<polygon fill="#FBAE18" points="951.824,10.376 912.115,10.376 912.115,39.131 951.824,55.106 	"/>
	<rect x="939.5" y="31.981" fill="#606049" width="7.086" height="7.605"/>
	<rect x="910.285" y="4.444" fill="#606049" width="43.82" height="22.818"/>
</g>
<g>
	<path fill="#A7BF61" d="M419.836,86.483c0,0-123.213,28.911-192.22,31.911c-69.007,3-103.313-2.52-133.914-10.607
		C54.25,97.352-2.307,83.782-2.307,83.782v147.015h618.062L419.836,86.483z"/>
	<circle fill="#87AA5A" cx="1805.541" cy="27.276" r="20.125"/>
	<circle fill="#87AA5A" cx="1826.541" cy="27.276" r="14.875"/>
	<circle fill="#87AA5A" cx="1910.541" cy="27.276" r="14.875"/>
	<circle fill="#87AA5A" cx="1496.666" cy="87.651" r="10.5"/>
	<circle fill="#87AA5A" cx="1475.666" cy="91.151" r="12.25"/>
	<circle fill="#87AA5A" cx="1175.541" cy="81.526" r="16.625"/>
	<circle fill="#87AA5A" cx="1202.666" cy="84.151" r="10.5"/>
	<circle fill="#87AA5A" cx="1223.666" cy="89.401" r="12.25"/>
	<circle fill="#87AA5A" cx="1592.916" cy="65.776" r="15.75"/>
	<circle fill="#87AA5A" cx="1568.416" cy="69.276" r="20.125"/>
	<circle fill="#87AA5A" cx="1525.541" cy="81.526" r="13.125"/>
	<circle fill="#87AA5A" cx="1148.416" cy="73.651" r="14"/>
	<circle fill="#87AA5A" cx="1703.166" cy="42.151" r="14.875"/>
	<circle fill="#87AA5A" cx="1873.791" cy="18.526" r="15.75"/>
	<path fill="#A7BF61" d="M2515.334,234.297c0,0-180.743-94.491-270.667-132.667c-89.924-38.175-185.998-56-185.998-56
		s-101.165-24.481-236.499-15.147c-111.953,7.719-359.336,77-459.666,79.334s-287-67.668-469-74.668S419.836,86.483,419.836,86.483
		s-123.213,28.911-192.22,31.911c-69.007,3-103.313-2.52-133.914-10.607C54.25,97.352-2.307,83.782-2.307,83.782v147.015h618.062
		l-2.671-1.968l1066.75-0.012L2515.334,234.297z"/>
	<path fill="#E9DAA2" d="M1504,227.63l-187.529-120.608c0,0,30.529,2.953,37.424,2.953c6.896,0,28.562-0.984,28.562-0.984
		l130.002,74.85l66.877,45.123"/>
	<g>
		<path opacity="0.15" fill="#606049" enable-background="new    " d="M885.402,34.883c-2.337-0.064-4.693-0.117-7.062-0.162
			c-0.374-0.007-0.747-0.015-1.121-0.021c-2.333-0.041-4.683-0.071-7.046-0.093c-0.393-0.004-0.786-0.007-1.18-0.01
			c-2.381-0.019-4.775-0.029-7.188-0.03c-0.345,0-0.689,0.001-1.038,0.001c-2.489,0.002-4.994,0.012-7.516,0.033
			c-0.169,0.001-0.339,0.004-0.508,0.005c-2.61,0.023-5.233,0.056-7.871,0.099c-0.076,0.001-0.151,0.002-0.227,0.003
			c-2.621,0.043-5.259,0.098-7.902,0.161c-0.279,0.006-0.559,0.012-0.837,0.019c-2.562,0.062-5.133,0.134-7.715,0.213
			c-0.35,0.011-0.693,0.021-1.041,0.032c-2.574,0.081-5.159,0.17-7.753,0.268c-0.319,0.012-0.642,0.024-0.958,0.037
			c-2.649,0.102-5.311,0.21-7.979,0.328c-0.208,0.009-0.417,0.019-0.625,0.028c-5.684,0.254-11.406,0.543-17.162,0.868
			c-0.031,0.001-0.062,0.003-0.097,0.005c-2.827,0.159-5.662,0.328-8.502,0.503c-0.204,0.013-0.407,0.025-0.61,0.038
			c-2.771,0.172-5.552,0.353-8.336,0.539c-0.239,0.017-0.479,0.032-0.719,0.049c-2.796,0.189-5.599,0.385-8.404,0.588
			c-0.176,0.013-0.353,0.026-0.528,0.039c-2.896,0.21-5.791,0.427-8.691,0.652c-54.052,4.356-111.733,11.11-168.498,19.134
			c-0.227,0.032-0.448,0.064-0.674,0.097c-95.271,13.675-167.783,28.177-167.783,28.177s-123.213,28.911-192.22,31.911
			c-69.007,3-103.313-2.52-133.914-10.607C60.477,98.999,15.124,87.988,1.633,84.731c-1.59-0.101-2.744-0.176-3.418-0.22
			c12.1,2.334,129.408,71.788,433.509,25.323c131.146-20.039,270.882-65.092,528.958-42.65
			c234.75,20.412,307.144,57.721,307.144,57.721l99.348,10.746l-49.245-28.452c-10.1-1.208-20.702-2.783-31.771-4.661
			c-0.004,0-0.011-0.001-0.015-0.002c-6.64-1.126-13.438-2.355-20.396-3.679c-0.004,0-0.008-0.001-0.012-0.002l-12.859-2.391
			c0,0-2.854-0.2-8.108-1.759c-0.021-0.004-0.045-0.009-0.065-0.014c-2.942-0.602-5.911-1.218-8.899-1.843
			c-0.311-0.065-0.622-0.13-0.933-0.195c-26.183-5.489-54.088-11.804-83.236-18.209c-0.723-0.159-1.447-0.318-2.172-0.477
			c-3.237-0.71-6.492-1.421-9.758-2.132c-1.548-0.337-3.093-0.674-4.647-1.011c-1.577-0.342-3.165-0.683-4.75-1.024
			c-1.611-0.348-3.229-0.695-4.852-1.043c-1.546-0.331-3.096-0.662-4.647-0.993c-2.044-0.435-4.096-0.869-6.148-1.302
			c-1.65-0.348-3.303-0.696-4.958-1.042c-2.452-0.513-4.91-1.025-7.375-1.534c-1.317-0.271-2.641-0.543-3.958-0.812
			c-2.062-0.422-4.125-0.843-6.193-1.262c-1.257-0.255-2.514-0.51-3.774-0.764c-3.125-0.628-6.257-1.252-9.396-1.87
			c-0.864-0.17-1.731-0.336-2.596-0.505c-2.479-0.484-4.957-0.965-7.443-1.441c-1.205-0.231-2.412-0.46-3.62-0.69
			c-2.387-0.453-4.779-0.901-7.175-1.347c-1.008-0.188-2.013-0.376-3.022-0.562c-3.25-0.599-6.51-1.189-9.773-1.772
			c-0.963-0.171-1.932-0.34-2.896-0.51c-2.479-0.438-4.963-0.871-7.45-1.298c-1.141-0.196-2.278-0.391-3.422-0.585
			c-2.813-0.478-5.636-0.948-8.46-1.41c-0.609-0.1-1.22-0.204-1.831-0.303c-3.352-0.545-6.71-1.076-10.071-1.598
			c-1.025-0.159-2.057-0.314-3.082-0.472c-2.539-0.389-5.081-0.77-7.627-1.144c-1.041-0.153-2.082-0.308-3.125-0.458
			c-3.416-0.494-6.834-0.978-10.261-1.444c-0.391-0.053-0.78-0.103-1.174-0.156c-3.077-0.416-6.156-0.818-9.24-1.21
			c-1.062-0.135-2.125-0.267-3.188-0.399c-2.653-0.33-5.309-0.65-7.965-0.961c-0.897-0.105-1.793-0.213-2.691-0.316
			c-3.445-0.395-6.893-0.773-10.343-1.135c-0.74-0.077-1.481-0.148-2.222-0.225c-2.791-0.286-5.582-0.56-8.377-0.822
			c-1.052-0.099-2.103-0.196-3.151-0.291c-2.912-0.264-5.825-0.515-8.739-0.752c-0.613-0.05-1.228-0.105-1.842-0.153
			c-3.468-0.275-6.938-0.527-10.406-0.762c-0.913-0.062-1.826-0.117-2.736-0.176c-2.685-0.173-5.365-0.334-8.049-0.481
			c-1.01-0.056-2.02-0.112-3.025-0.164c-3.496-0.18-6.991-0.345-10.484-0.479c-2.416-0.093-4.854-0.172-7.308-0.242
			C885.931,34.899,885.668,34.891,885.402,34.883z"/>
		<path opacity="0.15" fill="#606049" enable-background="new    " d="M-2.307,84.476c0.119,0.008,0.295,0.02,0.522,0.035
			c-0.203-0.039-0.378-0.06-0.522-0.061V84.476z"/>
	</g>
	<path opacity="0.15" fill="#606049" enable-background="new    " d="M2514.055,233.629
		c-13.396-6.987-129.771-67.544-218.123-108.92c-28.555-12.693-61.932-27.526-99.976-41.78
		c-72.774-25.327-137.287-37.3-137.287-37.3s-101.165-24.481-236.499-15.147c-111.953,7.719-359.336,77-459.666,79.334
		c-12.628,0.294-26.626-0.561-41.811-2.289c6.382,4.589,37.534,29.375,41.807,29.123c78.75-4.666,84.582-8.168,133-16.332
		c48.42-8.166,243.104-78.073,501.182-55.632c230.732,20.062,391.084,163.894,396.507,168.812l20.313,0.133L2514.055,233.629
		L2514.055,233.629z"/>
</g>
<g>
	<polygon fill="#B3966D" points="861.01,32.611 872.345,25.661 897.286,25.661 897.286,57.695 861.01,57.695 	"/>
	<polygon fill="#606049" points="887.776,34.584 877.683,26.027 868.467,34.584 858.959,34.584 865.982,16.139 903.109,16.139 
		908.4,34.584 	"/>
	<polygon fill="#917757" points="895.75,34.584 901.307,19.225 905.476,34.584 905.476,57.695 895.75,57.695 	"/>
	<rect x="887.92" y="42.337" fill="#606049" width="5.847" height="8.484"/>
	<rect x="898.215" y="42.337" fill="#606049" width="4.858" height="8.484"/>
</g>
<g>
	<rect x="691.173" y="26.87" fill="#EBCC2D" width="37.202" height="35.8"/>
	<polygon fill="#606049" points="688.717,27.217 745.575,27.217 738.672,3 698.764,3 	"/>
	<polygon fill="#E1BF23" points="728.375,62.669 742.063,62.669 742.063,27.07 736.098,4.758 728.375,26.87 	"/>
	<rect x="732.413" y="45.823" fill="#606049" width="5.266" height="16.846"/>
	<rect x="708.545" y="46.353" fill="#606049" width="14.566" height="10.701"/>
	<rect x="716.092" y="29.153" fill="#606049" width="7.02" height="10.699"/>
	<rect x="730.832" y="29.153" fill="#606049" width="8.775" height="10.699"/>
	<rect x="699.068" y="29.153" fill="#606049" width="7.02" height="10.699"/>
	<polygon fill="#E8E8E8" points="729.693,7.258 724.954,21.998 697.185,21.998 702.712,7.389 	"/>
	<polygon fill="#414042" points="728.637,7.958 724.388,21.314 698.378,21.314 703.368,8.083 	"/>
	<polygon fill="#E8E8E8" points="720.803,7.599 716.176,21.75 715.305,21.805 719.986,7.599 	"/>
	<polygon fill="#E8E8E8" points="711.712,7.599 707.086,21.75 706.216,21.805 710.896,7.599 	"/>
</g>
<g>
	<path fill="#A7BF61" d="M419.836,84.708c0,0-123.213,28.911-192.22,31.911c-69.007,3-103.313-2.52-133.914-10.608
		C54.25,95.577-2.307,82.007-2.307,82.007v147.014h618.062L419.836,84.708z"/>
	<circle fill="#87AA5A" cx="1805.541" cy="25.501" r="20.125"/>
	<circle fill="#87AA5A" cx="1826.541" cy="25.501" r="14.875"/>
	<circle fill="#87AA5A" cx="1910.541" cy="25.501" r="14.875"/>
	<circle fill="#87AA5A" cx="1496.666" cy="85.876" r="10.5"/>
	<circle fill="#87AA5A" cx="1475.666" cy="89.376" r="12.25"/>
	<circle fill="#87AA5A" cx="1175.541" cy="79.751" r="16.625"/>
	<circle fill="#87AA5A" cx="1202.666" cy="82.376" r="10.5"/>
	<circle fill="#87AA5A" cx="1223.666" cy="87.626" r="12.25"/>
	<circle fill="#87AA5A" cx="1592.916" cy="64.001" r="15.75"/>
	<circle fill="#87AA5A" cx="1568.416" cy="67.501" r="20.125"/>
	<circle fill="#87AA5A" cx="1525.541" cy="79.751" r="13.125"/>
	<circle fill="#87AA5A" cx="1148.416" cy="71.876" r="14"/>
	<circle fill="#87AA5A" cx="1703.166" cy="40.376" r="14.875"/>
	<circle fill="#87AA5A" cx="1873.791" cy="16.751" r="15.75"/>
	<path fill="#A7BF61" d="M2515.334,232.521c0,0-180.743-94.49-270.667-132.667c-89.924-38.175-185.998-56-185.998-56
		s-101.165-24.481-236.499-15.147c-111.953,7.719-359.336,77-459.666,79.334s-287-67.668-469-74.668S419.836,84.708,419.836,84.708
		s-123.213,28.911-192.22,31.911c-69.007,3-103.313-2.52-133.914-10.608C54.25,95.577-2.307,82.007-2.307,82.007v147.014h618.062
		l-2.671-1.967l1066.75-0.012L2515.334,232.521z"/>
	<path fill="#E9DAA2" d="M1504,225.855l-187.529-120.608c0,0,30.529,2.953,37.424,2.953c6.896,0,28.562-0.984,28.562-0.984
		l130.002,74.85l66.877,45.123"/>
	<g>
		<path opacity="0.15" fill="#606049" enable-background="new    " d="M885.402,33.108c-2.337-0.064-4.693-0.117-7.062-0.162
			c-0.374-0.007-0.747-0.015-1.121-0.021c-2.333-0.041-4.683-0.071-7.046-0.093c-0.393-0.004-0.786-0.007-1.18-0.01
			c-2.381-0.019-4.775-0.029-7.188-0.03c-0.345,0-0.689,0.001-1.038,0.001c-2.489,0.002-4.994,0.012-7.516,0.033
			c-0.169,0.001-0.339,0.004-0.508,0.005c-2.61,0.023-5.233,0.056-7.871,0.099c-0.076,0.001-0.151,0.002-0.227,0.003
			c-2.621,0.043-5.259,0.098-7.902,0.161c-0.279,0.006-0.559,0.012-0.837,0.019c-2.562,0.062-5.133,0.134-7.715,0.213
			c-0.35,0.011-0.693,0.021-1.041,0.032c-2.574,0.081-5.159,0.17-7.753,0.268c-0.319,0.012-0.642,0.024-0.958,0.037
			c-2.649,0.102-5.311,0.21-7.979,0.328c-0.208,0.009-0.417,0.019-0.625,0.028c-5.684,0.254-11.406,0.543-17.162,0.868
			c-0.031,0.001-0.062,0.003-0.097,0.005c-2.827,0.159-5.662,0.328-8.502,0.503c-0.204,0.013-0.407,0.025-0.61,0.038
			c-2.771,0.172-5.552,0.353-8.336,0.539c-0.239,0.017-0.479,0.032-0.719,0.049c-2.796,0.189-5.599,0.385-8.404,0.588
			c-0.176,0.013-0.353,0.026-0.528,0.039c-2.896,0.21-5.791,0.427-8.691,0.652c-54.052,4.356-111.733,11.11-168.498,19.134
			c-0.227,0.032-0.448,0.064-0.674,0.097c-95.271,13.675-167.783,28.177-167.783,28.177s-123.213,28.911-192.22,31.911
			c-69.007,3-103.313-2.52-133.914-10.608C60.477,97.224,15.124,86.213,1.633,82.956c-1.59-0.101-2.744-0.176-3.418-0.22
			c12.1,2.334,129.408,71.788,433.509,25.323C562.87,88.02,702.605,42.967,960.682,65.409
			c234.75,20.412,307.144,57.722,307.144,57.722l99.348,10.746l-49.245-28.453c-10.1-1.208-20.702-2.783-31.771-4.661
			c-0.004,0-0.011-0.001-0.015-0.002c-6.64-1.126-13.438-2.355-20.396-3.679c-0.004,0-0.008-0.001-0.012-0.002l-12.859-2.391
			c0,0-2.854-0.2-8.108-1.759c-0.021-0.004-0.045-0.009-0.065-0.014c-2.942-0.602-5.911-1.218-8.899-1.843
			c-0.311-0.065-0.622-0.13-0.933-0.195c-26.183-5.489-54.088-11.804-83.236-18.209c-0.723-0.159-1.447-0.318-2.172-0.477
			c-3.237-0.71-6.492-1.421-9.758-2.132c-1.548-0.337-3.093-0.674-4.647-1.011c-1.577-0.342-3.165-0.683-4.75-1.024
			c-1.611-0.348-3.229-0.695-4.852-1.043c-1.546-0.331-3.096-0.662-4.647-0.993c-2.044-0.435-4.096-0.869-6.148-1.302
			c-1.65-0.348-3.303-0.696-4.958-1.042c-2.452-0.513-4.91-1.025-7.375-1.534c-1.317-0.271-2.641-0.543-3.958-0.812
			c-2.062-0.422-4.125-0.843-6.193-1.262c-1.257-0.255-2.514-0.51-3.774-0.764c-3.125-0.628-6.257-1.252-9.396-1.87
			c-0.864-0.17-1.731-0.336-2.596-0.505c-2.479-0.484-4.957-0.965-7.443-1.441c-1.205-0.231-2.412-0.46-3.62-0.69
			c-2.387-0.453-4.779-0.901-7.175-1.347c-1.008-0.188-2.013-0.376-3.022-0.562c-3.25-0.599-6.51-1.189-9.773-1.772
			c-0.963-0.171-1.932-0.34-2.896-0.51c-2.479-0.438-4.963-0.871-7.45-1.298c-1.141-0.196-2.278-0.391-3.422-0.585
			c-2.813-0.478-5.636-0.948-8.46-1.41c-0.609-0.1-1.22-0.204-1.831-0.303c-3.352-0.545-6.71-1.076-10.071-1.598
			c-1.025-0.159-2.057-0.314-3.082-0.472c-2.539-0.389-5.081-0.77-7.627-1.144c-1.041-0.153-2.082-0.308-3.125-0.458
			c-3.416-0.494-6.834-0.978-10.261-1.444c-0.391-0.053-0.78-0.103-1.174-0.156c-3.077-0.416-6.156-0.818-9.24-1.21
			c-1.062-0.135-2.125-0.267-3.188-0.399c-2.653-0.33-5.309-0.65-7.965-0.961c-0.897-0.105-1.793-0.213-2.691-0.316
			c-3.445-0.395-6.893-0.773-10.343-1.135c-0.74-0.077-1.481-0.148-2.222-0.225c-2.791-0.286-5.582-0.56-8.377-0.822
			c-1.052-0.099-2.103-0.196-3.151-0.291c-2.912-0.264-5.825-0.515-8.739-0.752c-0.613-0.05-1.228-0.105-1.842-0.153
			c-3.468-0.275-6.938-0.527-10.406-0.762c-0.913-0.062-1.826-0.117-2.736-0.176c-2.685-0.173-5.365-0.334-8.049-0.481
			c-1.01-0.056-2.02-0.112-3.025-0.164c-3.496-0.18-6.991-0.345-10.484-0.479c-2.416-0.093-4.854-0.172-7.308-0.242
			C885.931,33.124,885.668,33.116,885.402,33.108z"/>
		<path opacity="0.15" fill="#606049" enable-background="new    " d="M-2.307,82.701c0.119,0.008,0.295,0.02,0.522,0.035
			c-0.203-0.039-0.378-0.06-0.522-0.061V82.701z"/>
	</g>
	<path opacity="0.15" fill="#606049" enable-background="new    " d="M2514.055,231.854
		c-13.396-6.986-129.771-67.543-218.123-108.92c-28.555-12.692-61.932-27.525-99.976-41.779
		c-72.774-25.327-137.287-37.3-137.287-37.3s-101.165-24.481-236.499-15.147c-111.953,7.719-359.336,77-459.666,79.334
		c-12.628,0.294-26.626-0.561-41.811-2.289c6.382,4.589,37.534,29.375,41.807,29.123c78.75-4.666,84.582-8.168,133-16.332
		c48.42-8.166,243.104-78.074,501.182-55.633c230.732,20.062,391.084,163.895,396.507,168.812l20.313,0.133h100.553V231.854z"/>
</g>
<g>
	<path fill="#A7BF61" d="M-128.164,83.902c0,0-123.213,28.91-192.22,31.91c-69.007,3-103.313-2.52-133.914-10.609
		c-39.452-10.432-96.009-24.002-96.009-24.002v147.015H67.755L-128.164,83.902z"/>
	<circle fill="#87AA5A" cx="1257.541" cy="24.695" r="20.125"/>
	<circle fill="#87AA5A" cx="1278.541" cy="24.695" r="14.875"/>
	<circle fill="#87AA5A" cx="1362.541" cy="24.695" r="14.875"/>
	<circle fill="#87AA5A" cx="948.666" cy="85.07" r="10.5"/>
	<circle fill="#87AA5A" cx="927.666" cy="88.57" r="12.25"/>
	<circle fill="#87AA5A" cx="627.541" cy="78.945" r="16.625"/>
	<circle fill="#87AA5A" cx="654.666" cy="81.57" r="10.5"/>
	<circle fill="#87AA5A" cx="675.666" cy="86.82" r="12.25"/>
	<circle fill="#87AA5A" cx="1044.916" cy="63.195" r="15.75"/>
	<circle fill="#87AA5A" cx="1020.416" cy="66.695" r="20.125"/>
	<circle fill="#87AA5A" cx="977.541" cy="78.945" r="13.125"/>
	<circle fill="#87AA5A" cx="600.416" cy="71.07" r="14"/>
	<circle fill="#87AA5A" cx="1155.166" cy="39.57" r="14.875"/>
	<circle fill="#87AA5A" cx="1325.791" cy="15.945" r="15.75"/>
	<path fill="#A7BF61" d="M1967.334,231.716c0,0-180.743-94.491-270.667-132.667c-89.924-38.175-185.998-56-185.998-56
		s-101.165-24.48-236.499-15.146c-111.953,7.719-359.336,77-459.666,79.334s-287-67.668-469-74.668s-473.668,51.334-473.668,51.334
		s-123.213,28.91-192.22,31.91c-69.007,3-103.313-2.52-133.914-10.609c-39.452-10.432-96.009-24.002-96.009-24.002v147.015H67.755
		l-2.671-1.968l1066.75-0.012L1967.334,231.716z"/>
	<path fill="#E9DAA2" d="M956,225.049L768.471,104.441c0,0,30.529,2.953,37.424,2.953c6.894,0,28.562-0.984,28.562-0.984
		l130.002,74.85l66.877,45.123"/>
	<g>
		<g>
			<defs>
				<path id="SVGID_1_" d="M-550,83.382c0,0,102,25,165,31c81.711,7.782,256.836-30.479,256.836-30.479
					s291.668-58.334,473.668-51.334s368.67,77.002,469,74.668s347.713-71.615,459.666-79.334
					c135.334-9.334,253.832,17.812,253.832,17.812S1612,66.382,1740,120.382s228,112,228,112h-834l-1685-3L-550,83.382z"/>
			</defs>
			<clipPath id="SVGID_2_">
				<use xlink:href="#SVGID_1_"  overflow="visible"/>
			</clipPath>
			<g clip-path="url(#SVGID_2_)">
				<g>
					<path fill="none" stroke="#F7C891" stroke-width="5.6159" d="M-2371.643,0c0,0,337.945,144.934,574.941,332.213"/>
					<path fill="none" stroke="#F7C891" stroke-width="5.6159" d="M-2339.244,0c0,0,337.947,144.934,574.941,332.213"/>
					<path fill="none" stroke="#F7C891" stroke-width="5.6159" d="M-2306.846,0c0,0,337.947,144.934,574.94,332.213"/>
					<path fill="none" stroke="#F7C891" stroke-width="5.6159" d="M-2274.447,0c0,0,337.947,144.934,574.943,332.213"/>
					<path fill="none" stroke="#F7C891" stroke-width="5.6159" d="M-2242.049,0c0,0,337.947,144.934,574.943,332.213"/>
					<path fill="none" stroke="#F7C891" stroke-width="5.6159" d="M-2209.65,0c0,0,337.949,144.934,574.943,332.213"/>
					<path fill="none" stroke="#F7C891" stroke-width="5.6159" d="M-2177.252,0c0,0,337.949,144.934,574.943,332.213"/>
					<path fill="none" stroke="#F7C891" stroke-width="5.6159" d="M-2144.852,0c0,0,337.947,144.934,574.943,332.213"/>
					<path fill="none" stroke="#F7C891" stroke-width="5.6159" d="M-2112.453,0c0,0,337.945,144.934,574.943,332.213"/>
					<path fill="none" stroke="#F7C891" stroke-width="5.6159" d="M-2080.059,0c0,0,337.949,144.934,574.951,332.213"/>
					<path fill="none" stroke="#F7C891" stroke-width="5.6159" d="M-2047.658,0c0,0,337.947,144.934,574.949,332.213"/>
					<path fill="none" stroke="#F7C891" stroke-width="5.6159" d="M-2015.26,0c0,0,337.947,144.934,574.949,332.213"/>
					<path fill="none" stroke="#F7C891" stroke-width="5.6159" d="M-1982.861,0c0,0,337.949,144.934,574.951,332.213"/>
					<path fill="none" stroke="#F7C891" stroke-width="5.6159" d="M-1950.463,0c0,0,337.949,144.934,574.951,332.213"/>
					<path fill="none" stroke="#F7C892" stroke-width="5.6159" d="M-1918.062,0c0,0,337.951,144.934,574.951,332.213"/>
					<path fill="none" stroke="#F7C891" stroke-width="5.6159" d="M-1885.664,0c0,0,337.951,144.934,574.955,332.213"/>
					<path fill="none" stroke="#F7C891" stroke-width="5.6159" d="M-1853.266,0c0,0,337.951,144.934,574.951,332.213"/>
					<path fill="none" stroke="#F7C891" stroke-width="5.6159" d="M-1820.869,0c0,0,337.955,144.934,574.957,332.213"/>
					<path fill="none" stroke="#F7C891" stroke-width="5.6159" d="M-1788.471,0c0,0,337.955,144.934,574.955,332.213"/>
					<path fill="none" stroke="#F7C891" stroke-width="5.6159" d="M-1756.072,0c0,0,337.955,144.934,574.959,332.213"/>
					<path fill="none" stroke="#F7C891" stroke-width="5.6159" d="M-1723.674,0c0,0,337.959,144.934,574.963,332.213"/>
					<path fill="none" stroke="#F7C891" stroke-width="5.6159" d="M-1691.273,0c0,0,337.957,144.934,574.959,332.213"/>
					<path fill="none" stroke="#F7C891" stroke-width="5.6159" d="M-1658.875,0c0,0,337.959,144.934,574.963,332.213"/>
					<path fill="none" stroke="#F7C891" stroke-width="5.6159" d="M-1626.477,0c0,0,337.957,144.934,574.959,332.213"/>
					<path fill="none" stroke="#F7C891" stroke-width="5.6159" d="M-1594.078,0c0,0,337.961,144.934,574.963,332.213"/>
					<path fill="none" stroke="#F7C891" stroke-width="5.6159" d="M-1561.678,0c0,0,337.957,144.934,574.957,332.213"/>
					<path fill="none" stroke="#F7C891" stroke-width="5.6159" d="M-1529.279,0c0,0,337.961,144.934,574.961,332.213"/>
					<path fill="none" stroke="#F7C891" stroke-width="5.6159" d="M-1496.877,0c0,0,337.961,144.934,574.961,332.213"/>
					<path fill="none" stroke="#F7C891" stroke-width="5.6159" d="M-1464.479,0c0,0,337.957,144.934,574.959,332.213"/>
					<path fill="none" stroke="#F7C891" stroke-width="5.6159" d="M-1432.08,0c0,0,337.961,144.934,574.963,332.213"/>
					<path fill="none" stroke="#F7C891" stroke-width="5.6159" d="M-1399.68,0c0,0,337.955,144.934,574.959,332.213"/>
					<path fill="none" stroke="#F7C891" stroke-width="5.6159" d="M-1367.281,0c0,0,337.959,144.934,574.963,332.213"/>
				</g>
				<g>
					<path fill="none" stroke="#F7C891" stroke-width="5.6159" d="M-1314.646,7c0,0,337.949,144.934,574.943,332.213"/>
					<path fill="none" stroke="#F7C891" stroke-width="5.6159" d="M-1282.244,7c0,0,337.945,144.934,574.939,332.213"/>
					<path fill="none" stroke="#F7C891" stroke-width="5.6159" d="M-1249.85,7c0,0,337.949,144.934,574.945,332.213"/>
					<path fill="none" stroke="#F7C891" stroke-width="5.6159" d="M-1217.449,7c0,0,337.947,144.934,574.943,332.213"/>
					<path fill="none" stroke="#F7C891" stroke-width="5.6159" d="M-1185.051,7c0,0,337.947,144.934,574.943,332.213"/>
					<path fill="none" stroke="#F7C891" stroke-width="5.6159" d="M-1152.652,7c0,0,337.949,144.934,574.943,332.213"/>
					<path fill="none" stroke="#F7C891" stroke-width="5.6159" d="M-1120.252,7c0,0,337.947,144.934,574.941,332.213"/>
					<path fill="none" stroke="#F7C891" stroke-width="5.6159" d="M-1087.854,7c0,0,337.947,144.934,574.943,332.213"/>
					<path fill="none" stroke="#F7C891" stroke-width="5.6159" d="M-1055.455,7c0,0,337.945,144.934,574.943,332.213"/>
					<path fill="none" stroke="#F7C891" stroke-width="5.6159" d="M-1023.061,7c0,0,337.949,144.934,574.951,332.213"/>
					<path fill="none" stroke="#F7C891" stroke-width="5.6159" d="M-990.66,7c0,0,337.947,144.934,574.949,332.213"/>
					<path fill="none" stroke="#F7C891" stroke-width="5.6159" d="M-958.262,7c0,0,337.947,144.934,574.951,332.213"/>
					<path fill="none" stroke="#F7C891" stroke-width="5.6159" d="M-925.863,7c0,0,337.949,144.934,574.951,332.213"/>
					<path fill="none" stroke="#F7C891" stroke-width="5.6159" d="M-893.463,7c0,0,337.947,144.934,574.949,332.213"/>
					<path fill="none" stroke="#F7C891" stroke-width="5.6159" d="M-861.064,7c0,0,337.951,144.934,574.953,332.213"/>
					<path fill="none" stroke="#F7C891" stroke-width="5.6159" d="M-828.666,7c0,0,337.951,144.934,574.957,332.213"/>
					<path fill="none" stroke="#F7C891" stroke-width="5.6159" d="M-796.268,7c0,0,337.953,144.934,574.953,332.213"/>
					<path fill="none" stroke="#F7C891" stroke-width="5.6159" d="M-763.871,7c0,0,337.955,144.934,574.959,332.213"/>
					<path fill="none" stroke="#F7C891" stroke-width="5.6159" d="M-731.473,7c0,0,337.955,144.934,574.958,332.213"/>
					<path fill="none" stroke="#F7C891" stroke-width="5.6159" d="M-699.074,7c0,0,337.955,144.934,574.961,332.213"/>
					<path fill="none" stroke="#F7C891" stroke-width="5.6159" d="M-666.674,7c0,0,337.957,144.934,574.963,332.213"/>
					<path fill="none" stroke="#F7C891" stroke-width="5.6159" d="M-634.275,7c0,0,337.957,144.934,574.96,332.213"/>
					<path fill="none" stroke="#F7C891" stroke-width="5.6159" d="M-601.877,7c0,0,337.961,144.934,574.965,332.213"/>
					<path fill="none" stroke="#F7C891" stroke-width="5.6159" d="M-569.479,7c0,0,337.959,144.934,574.961,332.213"/>
					<path fill="none" stroke="#F7C891" stroke-width="5.6159" d="M-537.08,7c0,0,337.963,144.934,574.965,332.213"/>
					<path fill="none" stroke="#F7C891" stroke-width="5.6159" d="M-504.68,7c0,0,337.959,144.934,574.959,332.213"/>
					<path fill="none" stroke="#F7C891" stroke-width="5.6159" d="M-472.281,7c0,0,337.963,144.934,574.963,332.213"/>
					<path fill="none" stroke="#F7C891" stroke-width="5.6159" d="M-439.879,7c0,0,337.963,144.934,574.963,332.213"/>
					<path fill="none" stroke="#F7C891" stroke-width="5.6159" d="M-407.48,7c0,0,337.958,144.934,574.961,332.213"/>
					<path fill="none" stroke="#F7C891" stroke-width="5.6159" d="M-375.08,7c0,0,337.961,144.934,574.963,332.213"/>
					<path fill="none" stroke="#F7C891" stroke-width="5.6159" d="M-342.682,7c0,0,337.958,144.934,574.961,332.213"/>
					<path fill="none" stroke="#F7C891" stroke-width="5.6159" d="M-310.283,7c0,0,337.961,144.934,574.965,332.213"/>
				</g>
				<path fill="none" d="M-2208.164,83.902c0,0,291.668-58.334,473.668-51.334s368.67,77.002,469,74.668
					s347.713-71.615,459.666-79.334c135.334-9.334,253.832,17.812,253.832,17.812S-468,66.382-340,120.382s228,112,228,112h-834
					l-1261.265-7.168L-2208.164,83.902z"/>
			</g>
		</g>
		<g>
			<defs>
				<path id="SVGID_3_" d="M-550,83.382c0,0,102,25,165,31c81.711,7.782,256.836-30.479,256.836-30.479
					s291.668-58.334,473.668-51.334s368.67,77.002,469,74.668s347.713-71.615,459.666-79.334
					c135.334-9.334,253.832,17.812,253.832,17.812S1612,66.382,1740,120.382s228,112,228,112h-834l-1685-3L-550,83.382z"/>
			</defs>
			<clipPath id="SVGID_4_">
				<use xlink:href="#SVGID_3_"  overflow="visible"/>
			</clipPath>
			<g clip-path="url(#SVGID_4_)">
				<path fill="none" stroke="#F7C891" stroke-width="5.6159" d="M-291.643,0c0,0,337.945,144.934,574.941,332.213"/>
				<path fill="none" stroke="#F7C891" stroke-width="5.6159" d="M-259.244,0c0,0,337.947,144.934,574.941,332.213"/>
				<path fill="none" stroke="#F7C891" stroke-width="5.6159" d="M-226.846,0c0,0,337.946,144.934,574.94,332.213"/>
				<path fill="none" stroke="#F7C891" stroke-width="5.6159" d="M-194.447,0c0,0,337.947,144.934,574.943,332.213"/>
				<path fill="none" stroke="#F7C891" stroke-width="5.6159" d="M-162.049,0c0,0,337.947,144.934,574.943,332.213"/>
				<path fill="none" stroke="#F7C891" stroke-width="5.6159" d="M-129.65,0c0,0,337.949,144.934,574.943,332.213"/>
				<path fill="none" stroke="#F7C891" stroke-width="5.6159" d="M-97.252,0c0,0,337.949,144.934,574.943,332.213"/>
				<path fill="none" stroke="#F7C891" stroke-width="5.6159" d="M-64.852,0c0,0,337.946,144.934,574.942,332.213"/>
				<path fill="none" stroke="#F7C891" stroke-width="5.6159" d="M-32.453,0c0,0,337.945,144.934,574.943,332.213"/>
				<path fill="none" stroke="#F7C891" stroke-width="5.6159" d="M-0.059,0c0,0,337.948,144.934,574.95,332.213"/>
				<path fill="none" stroke="#F7C891" stroke-width="5.6159" d="M32.342,0c0,0,337.947,144.934,574.949,332.213"/>
				<path fill="none" stroke="#F7C891" stroke-width="5.6159" d="M64.74,0c0,0,337.947,144.934,574.949,332.213"/>
				<path fill="none" stroke="#F7C891" stroke-width="5.6159" d="M97.139,0c0,0,337.949,144.934,574.951,332.213"/>
				<path fill="none" stroke="#F7C891" stroke-width="5.6159" d="M129.537,0c0,0,337.949,144.934,574.951,332.213"/>
				<path fill="none" stroke="#F7C892" stroke-width="5.6159" d="M161.938,0c0,0,337.951,144.934,574.951,332.213"/>
				<path fill="none" stroke="#F7C891" stroke-width="5.6159" d="M194.336,0c0,0,337.951,144.934,574.955,332.213"/>
				<path fill="none" stroke="#F7C891" stroke-width="5.6159" d="M226.734,0c0,0,337.951,144.934,574.951,332.213"/>
				<path fill="none" stroke="#F7C891" stroke-width="5.6159" d="M259.131,0c0,0,337.955,144.934,574.957,332.213"/>
				<path fill="none" stroke="#F7C891" stroke-width="5.6159" d="M291.529,0c0,0,337.955,144.934,574.955,332.213"/>
				<path fill="none" stroke="#F7C891" stroke-width="5.6159" d="M323.928,0c0,0,337.955,144.934,574.959,332.213"/>
				<path fill="none" stroke="#F7C891" stroke-width="5.6159" d="M356.326,0c0,0,337.959,144.934,574.963,332.213"/>
				<path fill="none" stroke="#F7C891" stroke-width="5.6159" d="M388.727,0c0,0,337.957,144.934,574.959,332.213"/>
				<path fill="none" stroke="#F7C891" stroke-width="5.6159" d="M421.125,0c0,0,337.959,144.934,574.963,332.213"/>
				<path fill="none" stroke="#F7C891" stroke-width="5.6159" d="M453.523,0c0,0,337.957,144.934,574.959,332.213"/>
				<path fill="none" stroke="#F7C891" stroke-width="5.6159" d="M485.922,0c0,0,337.961,144.934,574.963,332.213"/>
				<path fill="none" stroke="#F7C891" stroke-width="5.6159" d="M518.322,0c0,0,337.957,144.934,574.957,332.213"/>
				<path fill="none" stroke="#F7C891" stroke-width="5.6159" d="M647.92,0c0,0,337.961,144.934,574.963,332.213"/>
				<path fill="none" stroke="#F7C891" stroke-width="5.6159" d="M680.32,0c0,0,337.955,144.934,574.959,332.213"/>
				<path fill="none" stroke="#F7C891" stroke-width="5.6159" d="M712.719,0c0,0,337.959,144.934,574.963,332.213"/>
			</g>
		</g>
		<g>
			<defs>
				<path id="SVGID_5_" d="M-550,83.382c0,0,102,25,165,31c81.711,7.782,256.836-30.479,256.836-30.479
					s291.668-58.334,473.668-51.334s368.67,77.002,469,74.668s347.713-71.615,459.666-79.334
					c135.334-9.334,253.832,17.812,253.832,17.812S1612,66.382,1740,120.382s228,112,228,112h-834l-1685-3L-550,83.382z"/>
			</defs>
			<clipPath id="SVGID_6_">
				<use xlink:href="#SVGID_5_"  overflow="visible"/>
			</clipPath>
			<g clip-path="url(#SVGID_6_)">
				<path fill="none" stroke="#F7C891" stroke-width="5.6159" d="M765.354,7c0,0,337.949,144.934,574.943,332.213"/>
				<path fill="none" stroke="#F7C891" stroke-width="5.6159" d="M797.756,7c0,0,337.945,144.934,574.939,332.213"/>
				<path fill="none" stroke="#F7C891" stroke-width="5.6159" d="M830.15,7c0,0,337.948,144.934,574.944,332.213"/>
				<path fill="none" stroke="#F7C891" stroke-width="5.6159" d="M862.551,7c0,0,337.947,144.934,574.943,332.213"/>
				<path fill="none" stroke="#F7C891" stroke-width="5.6159" d="M894.949,7c0,0,337.947,144.934,574.943,332.213"/>
				<path fill="none" stroke="#F7C891" stroke-width="5.6159" d="M927.348,7c0,0,337.949,144.934,574.943,332.213"/>
				<path fill="none" stroke="#F7C891" stroke-width="5.6159" d="M959.748,7c0,0,337.947,144.934,574.941,332.213"/>
				<path fill="none" stroke="#F7C891" stroke-width="5.6159" d="M992.146,7c0,0,337.946,144.934,574.942,332.213"/>
				<path fill="none" stroke="#F7C891" stroke-width="5.6159" d="M1024.545,7c0,0,337.945,144.934,574.943,332.213"/>
				<path fill="none" stroke="#F7C891" stroke-width="5.6159" d="M1056.939,7c0,0,337.948,144.934,574.95,332.213"/>
				<path fill="none" stroke="#F7C891" stroke-width="5.6159" d="M1089.34,7c0,0,337.947,144.934,574.949,332.213"/>
				<path fill="none" stroke="#F7C891" stroke-width="5.6159" d="M1121.738,7c0,0,337.947,144.934,574.951,332.213"/>
				<path fill="none" stroke="#F7C891" stroke-width="5.6159" d="M1154.137,7c0,0,337.949,144.934,574.951,332.213"/>
				<path fill="none" stroke="#F7C891" stroke-width="5.6159" d="M1186.537,7c0,0,337.947,144.934,574.949,332.213"/>
				<path fill="none" stroke="#F7C891" stroke-width="5.6159" d="M1218.936,7c0,0,337.951,144.934,574.953,332.213"/>
				<path fill="none" stroke="#F7C891" stroke-width="5.6159" d="M1251.334,7c0,0,337.951,144.934,574.957,332.213"/>
				<path fill="none" stroke="#F7C891" stroke-width="5.6159" d="M1283.732,7c0,0,337.953,144.934,574.953,332.213"/>
				<path fill="none" stroke="#F7C891" stroke-width="5.6159" d="M1316.129,7c0,0,337.955,144.934,574.959,332.213"/>
				<path fill="none" stroke="#F7C891" stroke-width="5.6159" d="M1348.527,7c0,0,337.955,144.934,574.957,332.213"/>
				<path fill="none" stroke="#F7C891" stroke-width="5.6159" d="M1380.926,7c0,0,337.955,144.934,574.961,332.213"/>
				<path fill="none" stroke="#F7C891" stroke-width="5.6159" d="M1413.326,7c0,0,337.957,144.934,574.963,332.213"/>
				<path fill="none" stroke="#F7C891" stroke-width="5.6159" d="M1445.725,7c0,0,337.957,144.934,574.961,332.213"/>
				<path fill="none" stroke="#F7C891" stroke-width="5.6159" d="M1478.123,7c0,0,337.961,144.934,574.965,332.213"/>
				<path fill="none" stroke="#F7C891" stroke-width="5.6159" d="M1510.521,7c0,0,337.959,144.934,574.961,332.213"/>
				<path fill="none" stroke="#F7C891" stroke-width="5.6159" d="M1542.92,7c0,0,337.963,144.934,574.965,332.213"/>
				<path fill="none" stroke="#F7C891" stroke-width="5.6159" d="M1575.32,7c0,0,337.959,144.934,574.959,332.213"/>
				<path fill="none" stroke="#F7C891" stroke-width="5.6159" d="M1607.719,7c0,0,337.963,144.934,574.963,332.213"/>
				<path fill="none" stroke="#F7C891" stroke-width="5.6159" d="M1640.121,7c0,0,337.963,144.934,574.963,332.213"/>
				<path fill="none" stroke="#F7C891" stroke-width="5.6159" d="M1672.52,7c0,0,337.959,144.934,574.961,332.213"/>
				<path fill="none" stroke="#F7C891" stroke-width="5.6159" d="M1704.92,7c0,0,337.961,144.934,574.963,332.213"/>
				<path fill="none" stroke="#F7C891" stroke-width="5.6159" d="M1737.318,7c0,0,337.957,144.934,574.961,332.213"/>
				<path fill="none" stroke="#F7C891" stroke-width="5.6159" d="M1769.717,7c0,0,337.961,144.934,574.965,332.213"/>
			</g>
		</g>
	</g>
	<path opacity="0.15" fill="#606049" enable-background="new    " d="M-550.307,81.895c0.119,0.008,0.295,0.021,0.522,0.035
		c-0.203-0.039-0.378-0.06-0.522-0.061V81.895z"/>
	<g>
		<path opacity="0.15" fill="#606049" enable-background="new    " d="M1647.956,80.348c-72.774-25.326-137.287-37.3-137.287-37.3
			S1409.504,18.566,1274.17,27.9c-111.953,7.72-359.336,77-459.666,79.334c-12.628,0.295-30.696-1.087-45.879-2.815
			c0.474,0.341,1.123,0.807,1.889,1.357l-2.014-1.294c-10.1-1.208-19.276-2.646-30.345-4.524c-0.004,0-0.009-0.001-0.013-0.002
			c-6.64-1.126-13.438-2.355-20.396-3.68c-0.004,0-0.008,0-0.012-0.002l-12.859-2.391c0,0-2.854-0.199-8.108-1.759
			c-0.022-0.004-0.045-0.009-0.067-0.015c-2.942-0.602-5.911-1.217-8.899-1.842c-0.311-0.065-0.622-0.131-0.933-0.195
			c-26.181-5.489-54.088-11.805-83.236-18.209c-0.723-0.159-1.448-0.318-2.172-0.478c-3.237-0.71-6.492-1.421-9.758-2.132
			c-1.548-0.337-3.093-0.674-4.647-1.011c-1.578-0.343-3.165-0.683-4.75-1.024c-1.613-0.348-3.229-0.695-4.852-1.043
			c-1.546-0.331-3.095-0.662-4.647-0.992c-2.044-0.436-4.096-0.869-6.15-1.303c-1.65-0.348-3.302-0.695-4.958-1.042
			c-2.452-0.513-4.91-1.024-7.375-1.534c-1.317-0.271-2.639-0.543-3.958-0.813c-2.061-0.423-4.125-0.843-6.193-1.263
			c-1.257-0.254-2.514-0.51-3.774-0.764c-3.125-0.628-6.257-1.252-9.398-1.87c-0.864-0.17-1.731-0.336-2.596-0.505
			c-2.477-0.484-4.957-0.965-7.443-1.441c-1.205-0.23-2.412-0.459-3.62-0.689c-2.387-0.453-4.779-0.9-7.175-1.348
			c-1.008-0.188-2.013-0.375-3.022-0.562c-3.251-0.599-6.51-1.188-9.775-1.772c-0.963-0.17-1.931-0.34-2.896-0.51
			c-2.479-0.438-4.963-0.871-7.451-1.298c-1.14-0.196-2.279-0.391-3.421-0.585c-2.815-0.478-5.636-0.947-8.46-1.41
			c-0.611-0.1-1.22-0.203-1.831-0.303c-3.352-0.545-6.71-1.076-10.073-1.598c-1.025-0.159-2.055-0.314-3.082-0.473
			c-2.539-0.389-5.081-0.77-7.627-1.144c-1.041-0.153-2.082-0.308-3.125-0.458c-3.416-0.494-6.834-0.979-10.259-1.443
			c-0.391-0.054-0.782-0.104-1.174-0.156c-3.077-0.416-6.157-0.818-9.24-1.211c-1.062-0.135-2.126-0.267-3.188-0.398
			c-2.653-0.33-5.309-0.65-7.965-0.961c-0.897-0.105-1.793-0.213-2.691-0.316c-3.445-0.395-6.893-0.772-10.343-1.135
			c-0.74-0.077-1.481-0.148-2.222-0.225c-2.791-0.286-5.582-0.561-8.377-0.822c-1.05-0.1-2.101-0.196-3.151-0.291
			c-2.912-0.264-5.825-0.516-8.739-0.752c-0.614-0.051-1.228-0.105-1.842-0.153c-3.468-0.274-6.938-0.526-10.406-0.762
			c-0.913-0.062-1.826-0.117-2.738-0.177c-2.683-0.172-5.365-0.334-8.048-0.48c-1.009-0.056-2.019-0.111-3.026-0.164
			c-3.496-0.18-6.991-0.345-10.484-0.479c-2.416-0.094-4.854-0.172-7.308-0.242c-0.268-0.014-0.53-0.021-0.796-0.03
			c-2.337-0.063-4.693-0.116-7.062-0.161c-0.374-0.008-0.747-0.016-1.121-0.021c-2.333-0.041-4.683-0.071-7.046-0.094
			c-0.393-0.004-0.786-0.006-1.18-0.01c-2.381-0.019-4.775-0.029-7.186-0.029c-0.345,0-0.691,0-1.038,0
			c-2.491,0.002-4.995,0.013-7.516,0.033c-0.169,0.002-0.339,0.004-0.508,0.006c-2.61,0.022-5.233,0.056-7.871,0.099
			c-0.076,0.001-0.151,0.002-0.227,0.003c-2.621,0.043-5.257,0.098-7.902,0.161c-0.279,0.006-0.558,0.012-0.837,0.019
			c-2.561,0.062-5.133,0.135-7.715,0.213c-0.348,0.012-0.693,0.021-1.041,0.032c-2.574,0.081-5.159,0.17-7.753,0.269
			c-0.319,0.012-0.64,0.023-0.958,0.037c-2.649,0.102-5.309,0.209-7.977,0.328c-0.208,0.008-0.417,0.019-0.625,0.027
			c-5.684,0.254-11.406,0.543-17.162,0.868c-0.032,0.001-0.063,0.003-0.097,0.005c-2.827,0.159-5.662,0.328-8.502,0.503
			c-0.204,0.013-0.407,0.024-0.61,0.038c-2.772,0.172-5.552,0.354-8.336,0.539c-0.239,0.018-0.479,0.031-0.719,0.049
			c-2.796,0.189-5.598,0.385-8.404,0.588c-0.176,0.014-0.353,0.026-0.529,0.039c-2.895,0.21-5.791,0.428-8.692,0.652
			C154.737,40.85,97.056,47.604,40.291,55.628c-0.227,0.032-0.448,0.063-0.674,0.097C-55.654,69.4-128.166,83.902-128.166,83.902
			s-123.213,28.91-192.22,31.91c-69.007,3-103.313-2.52-133.914-10.609c-33.223-8.785-78.576-19.797-92.067-23.053
			c-1.59-0.102-2.744-0.176-3.418-0.221c12.1,2.334,129.408,71.788,433.509,25.323C14.87,87.214,154.605,42.161,412.682,64.604
			c234.75,20.412,307.142,57.721,307.142,57.721l93.976,11.633c0.277,0.073,0.524,0.122,0.701,0.111
			c78.75-4.666,84.582-8.168,133-16.332c48.42-8.166,243.104-78.075,501.182-55.635c230.732,20.062,391.084,163.895,396.507,168.812
			l20.313,0.133h100.551c-13.406-6.991-129.772-67.545-218.121-108.919C1719.377,109.436,1686,94.602,1647.956,80.348z"/>
		<polygon opacity="0.15" fill="#606049" enable-background="new    " points="1966.055,231.047 1966.053,231.047 1966.055,231.048 
					"/>
	</g>
</g>
<g>
	<polygon fill="#FFFFFF" points="753.104,34.19 803.961,34.059 804.002,60.218 752.977,60.218 	"/>
	<polygon fill="#606049" points="750.472,41.538 756.165,16.938 798.989,16.938 806.734,41.538 	"/>
	<polygon fill="#E8E8E8" points="804.002,60.218 804.002,40.853 797.623,18.986 791.7,41.083 791.7,60.218 	"/>
	<rect x="777.119" y="44.044" fill="#606049" width="10.7" height="12.073"/>
	<rect x="798.302" y="44.044" fill="#606049" width="3.413" height="16.174"/>
	<rect x="754.794" y="44.044" fill="#606049" width="6.374" height="12.073"/>
</g>
</svg>
