<?xml version="1.0" encoding="utf-8"?>
<!-- Generator: Adobe Illustrator 15.0.2, SVG Export Plug-In . SVG Version: 6.00 Build 0)  -->
<!DOCTYPE svg PUBLIC "-//W3C//DTD SVG 1.1//EN" "http://www.w3.org/Graphics/SVG/1.1/DTD/svg11.dtd">
<svg version="1.1" xmlns="http://www.w3.org/2000/svg" xmlns:xlink="http://www.w3.org/1999/xlink" x="0px" y="0px"
	 width="1620.5px" height="265px" viewBox="0 0 1620.5 265" enable-background="new 0 0 1620.5 265" xml:space="preserve">
<g id="tractor">
</g>
<g id="hills">
	<g>
		<circle fill="#5F7D43" cx="486.541" cy="124.062" r="34.125"/>
		<circle fill="#5F7D43" cx="432.291" cy="104.812" r="27.125"/>
		<circle fill="#5F7D43" cx="399.916" cy="105.688" r="17.5"/>
		<ellipse fill="#5F7D43" cx="339.541" cy="89.938" rx="23.625" ry="26.25"/>
		<path fill="#87AA5A" d="M1.504,60.186c0,0,219.33-9.334,396.666,44.334c177.334,53.666,210.002,88.666,417.666,88.666
			c207.666,0,300.676-57.375,473.668-42c105,9.334,210,49,273,84C1581.748,245.877,1614,265.52,1614,265.52H1.498L1.504,60.186z"/>
		<rect x="122.248" y="46.188" fill="#606049" width="8.75" height="16.332"/>
		<g>
			<defs>
				<path id="SVGID_1_" d="M1.504,60.186c0,0,219.33-9.334,396.666,44.334c177.334,53.666,210.002,88.666,417.666,88.666
					c207.666,0,300.676-57.375,473.668-42c105,9.334,210,49,273,84c19.244,10.691,57.996,30.334,57.996,30.334H1.498L1.504,60.186z"
					/>
			</defs>
			<clipPath id="SVGID_2_">
				<use xlink:href="#SVGID_1_"  overflow="visible"/>
			</clipPath>
			<g clip-path="url(#SVGID_2_)">
				<path fill="none" stroke="#D6A849" stroke-width="13.2646" d="M613.158,379.16c0,0,183.113-296.764,498.82-439.887"/>
				<path fill="none" stroke="#D6A849" stroke-width="13.2646" d="M568.959,372.846c0,0,183.113-296.764,498.82-439.887"/>
				<path fill="none" stroke="#D6A849" stroke-width="13.2646" d="M524.76,366.533c0,0,183.113-296.766,498.82-439.887"/>
				<path fill="none" stroke="#D6A849" stroke-width="13.2646" d="M480.561,360.217c0,0,183.113-296.764,498.818-439.885"/>
				<path fill="none" stroke="#D6A849" stroke-width="13.2646" d="M436.361,353.904c0,0,183.113-296.766,498.818-439.889"/>
				<path fill="none" stroke="#D6A849" stroke-width="13.2646" d="M392.162,347.59c0,0,183.113-296.766,498.818-439.887"/>
				<path fill="none" stroke="#D6A849" stroke-width="13.2646" d="M347.963,341.273c0,0,183.113-296.762,498.818-439.885"/>
				<path fill="none" stroke="#D6A849" stroke-width="13.2646" d="M303.764,334.961c0,0,183.113-296.766,498.818-439.887"/>
				<path fill="none" stroke="#D6A849" stroke-width="13.2646" d="M259.564,328.646c0,0,183.111-296.766,498.82-439.887"/>
				<path fill="none" stroke="#D6A849" stroke-width="13.2646" d="M215.365,322.334c0,0,183.111-296.766,498.82-439.889"/>
				<path fill="none" stroke="#D6A849" stroke-width="13.2646" d="M171.166,316.02c0,0,183.113-296.766,498.818-439.889"/>
				<path fill="none" stroke="#D6A849" stroke-width="13.2646" d="M126.965,309.705c0,0,183.115-296.766,498.82-439.889"/>
				<path fill="none" stroke="#D6A849" stroke-width="13.2646" d="M82.768,303.391c0,0,183.113-296.764,498.818-439.887"/>
				<path fill="none" stroke="#D6A849" stroke-width="13.2646" d="M38.568,297.076c0,0,183.113-296.764,498.818-439.887"/>
			</g>
			<g clip-path="url(#SVGID_2_)">
				<path fill="none" stroke="#D6A849" stroke-width="13.2646" d="M-9.65,288.855c0,0,183.111-296.766,498.818-439.889"/>
				<path fill="none" stroke="#D6A849" stroke-width="13.2646" d="M-53.85,282.541c0,0,183.111-296.766,498.82-439.887"/>
				<path fill="none" stroke="#D6A849" stroke-width="13.2646" d="M-98.049,276.225c0,0,183.113-296.764,498.818-439.885"/>
				<path fill="none" stroke="#D6A849" stroke-width="13.2646" d="M-142.248,269.912c0,0,183.111-296.766,498.818-439.887"/>
				<path fill="none" stroke="#D6A849" stroke-width="13.2646" d="M-186.449,263.6c0,0,183.115-296.768,498.818-439.889"/>
				<path fill="none" stroke="#D6A849" stroke-width="13.2646" d="M-230.648,257.283c0,0,183.113-296.764,498.82-439.887"/>
				<path fill="none" stroke="#D6A849" stroke-width="13.2646" d="M-274.848,250.971c0,0,183.115-296.766,498.818-439.889"/>
				<path fill="none" stroke="#D6A849" stroke-width="13.2646" d="M-319.047,244.656c0,0,183.115-296.766,498.82-439.889"/>
				<path fill="none" stroke="#D6A849" stroke-width="13.2646" d="M-363.246,238.34c0,0,183.113-296.762,498.818-439.885"/>
				<path fill="none" stroke="#D6A849" stroke-width="13.2646" d="M-407.443,232.027c0,0,183.111-296.766,498.818-439.887"/>
				<path fill="none" stroke="#D6A849" stroke-width="13.2646" d="M-451.643,225.715c0,0,183.111-296.768,498.818-439.889"/>
				<path fill="none" stroke="#D6A849" stroke-width="13.2646" d="M-495.844,219.398c0,0,183.113-296.766,498.818-439.887"/>
				<path fill="none" stroke="#D6A849" stroke-width="13.2646" d="M-540.043,213.086c0,0,183.113-296.766,498.82-439.889"/>
				<path fill="none" stroke="#D6A849" stroke-width="13.2646" d="M-584.242,206.77c0,0,183.113-296.764,498.818-439.887"/>
				<path fill="none" stroke="#D6A849" stroke-width="13.2646" d="M-628.441,200.455c0,0,183.113-296.764,498.82-439.885"/>
				<path fill="none" stroke="#D6A849" stroke-width="13.2646" d="M-672.641,194.143c0,0,183.111-296.766,498.82-439.887"/>
				<path fill="none" stroke="#D6A849" stroke-width="13.2646" d="M-716.84,187.826c0,0,183.111-296.764,498.82-439.885"/>
				<path fill="none" stroke="#D6A849" stroke-width="13.2646" d="M-761.039,181.514c0,0,183.113-296.766,498.818-439.889"/>
				<path fill="none" stroke="#D6A849" stroke-width="13.2646" d="M-805.238,175.201c0,0,183.113-296.766,498.818-439.889"/>
				<path fill="none" stroke="#D6A849" stroke-width="13.2646" d="M-849.438,168.885c0,0,183.113-296.764,498.818-439.887"/>
				<path fill="none" stroke="#D6A849" stroke-width="13.2646" d="M-893.637,162.57c0,0,183.113-296.764,498.818-439.887"/>
				<path fill="none" stroke="#D6A849" stroke-width="13.2646" d="M-937.836,156.258c0,0,183.113-296.766,498.818-439.887"/>
				<path fill="none" stroke="#D6A849" stroke-width="13.2646" d="M-982.035,149.941c0,0,183.111-296.764,498.818-439.885"/>
				<path fill="none" stroke="#D6A849" stroke-width="13.2646" d="M-1026.234,143.629c0,0,183.111-296.766,498.818-439.887"/>
				<path fill="none" stroke="#D6A849" stroke-width="13.2646" d="M-1070.434,137.314c0,0,183.111-296.766,498.818-439.889"/>
				<path fill="none" stroke="#D6A849" stroke-width="13.2646" d="M-1114.635,131c0,0,183.113-296.764,498.82-439.887"/>
				<path fill="none" stroke="#D6A849" stroke-width="13.2646" d="M-1158.834,124.686c0,0,183.115-296.764,498.82-439.887"/>
				<path fill="none" stroke="#D6A849" stroke-width="13.2646" d="M-1203.033,118.371c0,0,183.115-296.766,498.82-439.887"/>
				<path fill="none" stroke="#D6A849" stroke-width="13.2646" d="M-1247.23,112.057c0,0,183.113-296.764,498.818-439.885"/>
				<path fill="none" stroke="#D6A849" stroke-width="13.2646" d="M-1291.43,105.744c0,0,183.111-296.766,498.818-439.889"/>
			</g>
		</g>
		<ellipse fill="#5F7D43" cx="129.832" cy="25.771" rx="44.334" ry="23.916"/>
		<ellipse fill="#5F7D43" cx="149.666" cy="33.645" rx="26.25" ry="18.375"/>
		<ellipse fill="#5F7D43" cx="111.459" cy="36.562" rx="32.375" ry="15.459"/>
		<path fill="#FCD479" d="M1502.576,226.639c-65.781-33.562-146.74-56.391-222.113-62.631
			c-68.24-5.627-196.254,16.158-280.975,30.586l-5.15,0.877c-81.623,13.891-246.893,11.734-248.555,11.717l0.1-7
			c1.656,0.025,166.291,2.17,247.279-11.617l5.152-0.877c85.066-14.486,213.645-36.379,282.723-30.662
			c76.248,6.312,158.156,29.41,224.719,63.373L1580.5,266l-12-1L1502.576,226.639L1502.576,226.639z"/>
		<path fill="#FCD479" d="M1480.053,240.744c-4.807-2.035-9.828-4.203-15.07-6.469c-43.938-18.99-104.115-44.998-183.408-52.771
			c-68.975-6.762-151.418,8.941-217.662,21.564c-19.396,3.695-37.715,7.186-54.434,9.906
			c-74.66,12.154-277.924,12.875-279.969,12.881l-0.02-7c2.039-0.006,204.748-0.725,278.863-12.789
			c16.625-2.707,34.898-6.188,54.248-9.875c66.686-12.703,149.678-28.52,219.656-21.654c80.381,7.881,141.139,34.139,185.504,53.312
			c5.223,2.258,10.227,4.42,15.018,6.447L1541.5,266l-15.5-0.5L1480.053,240.744L1480.053,240.744z"/>
		<path fill="#FCD479" d="M1433.869,246.531c-1.598-0.736-3.398-1.58-5.391-2.518c-25.859-12.15-86.42-40.605-158.969-43.83
			c-51.07-2.275-114.867,9.576-176.568,21.031c-33.365,6.193-64.881,12.045-94.092,15.695
			c-83.287,10.41-271.609,7.061-273.498,7.027l0.129-7c1.887,0.033,189.711,3.371,272.502-6.973
			c29.002-3.627,60.418-9.457,93.682-15.633c62.092-11.527,126.305-23.432,178.158-21.141
			c73.945,3.285,135.395,32.158,161.633,44.486c1.98,0.93,3.764,1.768,5.346,2.498L1493.5,265.5H1479L1433.869,246.531
			L1433.869,246.531z"/>
		<path fill="#FCD479" d="M869.529,264.527c-81.104,0-161.195-3.047-162.398-3.094l0.406-10.492
			c1.809,0.072,181.627,6.906,274.74,0.01c38.342-2.838,78.816-10.072,117.957-17.068c57.014-10.193,115.98-20.729,169.703-17.938
			c68.617,3.562,124.107,32.619,126.439,33.854L1428,266h-23l-13.541-6.924c-0.551-0.291-55.85-29.207-122.064-32.646
			c-52.527-2.721-110.881,7.703-167.312,17.789c-39.402,7.041-80.146,14.324-119.027,17.205
			C951.629,263.752,910.445,264.527,869.529,264.527L869.529,264.527z"/>
		<path fill="#FCD479" d="M1054.352,265.854l6.529-1.961c8.699-1.9,213.945-46.033,288.309-5.309L1363,266.5l-18.857,1.291
			c-49.867-27.314-167.5-13.299-233.682-2.412c-14.838,0.475-29.787,0.35-42.902,0.475H1054.352z"/>
		<polygon fill="#FCD479" points="803.291,194.062 713.166,191.438 649.584,265.521 746.416,265.521 		"/>
		<path opacity="0.22" fill="#606049" d="M-4,61c0,0,104-4,196,4.667s150.667,22.667,196.667,36s173.333,58.001,204,66.667
			S699.334,189,733.334,191.667s147.333,5.334,272-15.333s162.667-27.999,232.667-27.333s137.333,13.334,183.333,27.334
			s102.666,38,129.333,52.667S1614,265.52,1614,265.52h-64c0,0-120-72.52-238-90.52s-272,10-332,20s-220,24-374-2s-302-74-436-82
			S0,105,0,105L-4,61z"/>
		<path fill="#414042" d="M871.596,177.947c0.574,8.74,8.127,15.361,16.867,14.787c8.738-0.576,15.361-8.125,14.789-16.865
			c-0.576-8.742-8.129-15.365-16.865-14.791C877.645,161.652,871.023,169.205,871.596,177.947z"/>
		<path fill="#414042" d="M933.9,183.686c0.25,3.842,3.566,6.752,7.406,6.498c3.842-0.254,6.75-3.57,6.494-7.41
			c-0.252-3.84-3.564-6.748-7.404-6.496C936.555,176.529,933.646,179.85,933.9,183.686z"/>
		<path fill="#AEB69A" d="M878.205,177.922c0.328,4.924,4.586,8.656,9.51,8.336c4.926-0.324,8.656-4.584,8.334-9.506
			c-0.326-4.928-4.58-8.658-9.504-8.332C881.623,168.742,877.887,172.996,878.205,177.922z"/>
		<path fill="#AEB69A" d="M938.111,183.502c0.102,1.514,1.41,2.66,2.924,2.559c1.518-0.098,2.666-1.404,2.564-2.918
			c-0.1-1.516-1.41-2.664-2.924-2.568C939.162,180.676,938.01,181.984,938.111,183.502z"/>
		
			<rect x="929.402" y="151.201" transform="matrix(0.9978 -0.0663 0.0663 0.9978 -8.2787 62.0529)" fill="#414042" width="2.474" height="9.074"/>
		<rect x="812.479" y="164.553" fill="#8B5E3C" width="52.533" height="19.928"/>
		<path fill="#5F7D43" d="M818.26,162.627c0,0,18.416-5.5,26.949-3.846c8.523,1.646,16.229,6.049,16.229,6.049l-45.385-0.277
			L818.26,162.627z"/>
		<rect x="864.59" y="181.266" fill="#414042" width="12.248" height="3.027"/>
		
			<rect x="909.807" y="160.501" transform="matrix(-0.9978 0.0656 -0.0656 -0.9978 1867.1851 276.2039)" fill="#EF4136" width="38.503" height="16.502"/>
		<polygon fill="#414042" points="893.643,163.73 894.643,156.818 896.473,153.799 898.377,153.668 903.291,158.234 
			906.773,158.305 907.34,157.439 908.619,157.977 907.73,160.32 909.508,162.064 909.398,163.527 906.992,161.607 906.281,163.525 
			905.004,162.984 906.26,159.998 903.033,160.381 900.369,158.727 898.393,163.418 904.854,164.865 905.396,173.125 
			907.41,174.885 902.605,175.143 902.033,174.754 896.561,167.064 		"/>
		<path fill="#414042" d="M896.811,151.906c0.09,1.367,1.268,2.404,2.641,2.312c1.365-0.088,2.4-1.268,2.307-2.639
			c-0.086-1.373-1.266-2.408-2.635-2.316C897.754,149.352,896.717,150.533,896.811,151.906z"/>
		<polygon fill="#EF4136" points="915.676,174.311 902.791,175.191 903.059,179.035 915.938,178.152 		"/>
		<path fill="#414042" d="M830.998,187.295c0,3.85,3.117,6.971,6.973,6.971c3.848,0,6.971-3.121,6.971-6.971
			c0-3.844-3.123-6.965-6.971-6.965C834.115,180.33,830.998,183.451,830.998,187.295z"/>
		<path fill="#AEB69A" d="M835.215,187.389c0,1.518,1.236,2.746,2.756,2.746c1.527,0,2.752-1.229,2.752-2.746
			c0-1.52-1.225-2.752-2.752-2.752C836.451,184.637,835.215,185.869,835.215,187.389z"/>
		<path fill="#414042" d="M904.15,152.48l-8.756-2.316c0,0-0.514-0.686,0.516-0.686s1.201,0.256,1.201,0.256l1.891-1.889l2.66,0.861
			l0.17,1.971L904.15,152.48z"/>
	</g>
</g>
</svg>
