<?xml version="1.0" encoding="utf-8"?>
<!-- Generator: Adobe Illustrator 15.0.2, SVG Export Plug-In . SVG Version: 6.00 Build 0)  -->
<!DOCTYPE svg PUBLIC "-//W3C//DTD SVG 1.1//EN" "http://www.w3.org/Graphics/SVG/1.1/DTD/svg11.dtd">
<svg version="1.1" id="winery" xmlns="http://www.w3.org/2000/svg" xmlns:xlink="http://www.w3.org/1999/xlink" x="0px" y="0px"
	 width="1611.439px" height="357.133px" viewBox="0 0 1611.439 357.133" enable-background="new 0 0 1611.439 357.133"
	 xml:space="preserve">
<g>
	<path fill="#87AA5A" d="M0,357.133h1253.879V215.566c0,0-468.637-18.605-679.598,22.414C363.32,278.998,0,357.133,0,357.133z"/>
	<path opacity="0.22" fill="#606049" enable-background="new    " d="M72.379,357.133H0c0,0,363.32-78.135,574.281-119.152
		c210.961-41.02,679.598-22.414,679.598-22.414v38.621c0,0-293.5-22-537.5,4S72.379,357.133,72.379,357.133z"/>
	<g>
		<path fill="#87AA5A" d="M1610.939,266.655c-51.191-10.447-100.42-20.329-143.342-28.675C1256.637,196.961,788,206.727,788,206.727
			v150.406h822.939V266.655z"/>
	</g>
	<path opacity="0.22" fill="#606049" enable-background="new    " d="M1611.439,266.757
		c-51.371-10.484-100.781-20.404-143.842-28.776C1256.637,196.961,788,206.727,788,206.727v45.34c0,0,293.5-19.879,537.5,6.121
		c84.33,8.986,187.294,23.58,285.939,38.832V266.757z"/>
	<polygon fill="#F6DE81" points="742.271,218.441 1220.838,218.441 1212.463,120.977 800.045,107.625 742.271,167.125 	"/>
	<polygon fill="#B3966D" points="1237.385,167.654 875.096,167.654 818.42,111.125 761.805,167.654 730.551,167.654 767.662,106.75 
		1213.172,106.75 	"/>
	<rect x="950.072" y="58.268" fill="#F6DE81" width="99.559" height="159.768"/>
	<polygon fill="#E1BF23" points="1048.494,58.268 1087.92,58.268 1087.92,107.441 1081.795,107.188 1055.191,167.625 
		1062.535,167.688 1062.545,218.91 1048.494,218.91 	"/>
	<polygon fill="#E1BF23" points="1197.824,166.768 1214.596,121.688 1231.621,166.768 1231.621,218.91 1197.824,218.91 	"/>
	<polygon fill="#B3966D" points="1088.213,57.75 943.838,57.75 1014.713,0 	"/>
	<polygon fill="#606049" points="1093.607,57.75 1043.588,57.75 1014.713,0 	"/>
	<polygon fill="#606049" points="843.504,111.125 891.336,167.709 874.711,167.709 817.545,111.125 	"/>
	<rect x="981.754" y="85.752" fill="#F3732A" width="39.084" height="23.625"/>
	<rect x="1092.004" y="172.668" fill="#F3732A" width="101.5" height="23.625"/>
	<rect x="976.504" y="170.916" fill="#F3732A" width="54.832" height="43.396"/>
	<rect x="889.588" y="172.668" fill="#F3732A" width="50.75" height="23.625"/>
	<rect x="784.004" y="170.332" fill="#F3732A" width="67.67" height="44.625"/>
	<rect x="989.92" y="85.75" fill="#606049" width="22.75" height="23.625"/>
	<rect x="786.045" y="173.25" fill="#606049" width="63" height="41.75"/>
	<rect x="979.42" y="173.25" fill="#606049" width="49" height="41.031"/>
	<rect x="895.42" y="173.25" fill="#606049" width="37.625" height="22.625"/>
	<rect x="1100.17" y="173.25" fill="#606049" width="22.75" height="22.457"/>
	<rect x="1131.961" y="173.25" fill="#606049" width="22.75" height="22.457"/>
	<rect x="1164.041" y="173.25" fill="#606049" width="22.75" height="22.457"/>
	<polygon fill="#E8E8E8" points="1198.498,119.309 1184.293,155.562 1074.449,155.758 1090.518,119.82 	"/>
	<polygon fill="#414042" points="1131.168,121.043 1117.748,153.887 1077.355,154.064 1091.861,121.508 	"/>
	<polygon fill="#414042" points="1195.619,121.043 1182.838,153.887 1119.355,154.064 1133.109,121.508 	"/>
	<polygon fill="#E8E8E8" points="1111.881,120.266 1098.061,155.062 1095.977,155.221 1109.941,120.275 	"/>
	<polygon fill="#E8E8E8" points="1155.732,120.266 1141.914,155.062 1139.828,155.221 1153.795,120.275 	"/>
	<polygon fill="#E8E8E8" points="1177.078,120.266 1163.26,155.062 1161.174,155.221 1175.139,120.275 	"/>
	<rect x="728.295" y="214.957" fill="#F3D365" width="471.918" height="10.5"/>
	<rect x="1185.045" y="214.887" fill="#E1BF23" width="65.918" height="10.646"/>
</g>
</svg>
