<?xml version="1.0" encoding="utf-8"?>
<!-- Generator: Adobe Illustrator 15.0.2, SVG Export Plug-In . SVG Version: 6.00 Build 0)  -->
<!DOCTYPE svg PUBLIC "-//W3C//DTD SVG 1.1//EN" "http://www.w3.org/Graphics/SVG/1.1/DTD/svg11.dtd">
<svg version="1.1" id="mountain" xmlns="http://www.w3.org/2000/svg" xmlns:xlink="http://www.w3.org/1999/xlink" x="0px" y="0px"
	 width="2517px" height="633.479px" viewBox="0 0 2517 633.479" enable-background="new 0 0 2517 633.479" xml:space="preserve">
<path opacity="0.5" fill="#BFBDB1" d="M-14.25,376.811l851.504-4.666c0,0,305.668-28,385-56s116.668-46.666,116.668-46.666
	l16.33,4.666l107.334-51.332l9.336,7l23.33-2.334l198.334,112c0,0,125.998,16.334,165.666,16.334
	c39.67,0,169.529,16.799,212.916,20.998c54.25,5.25,452.832,17.5,452.832,17.5l-1,103.25l-2532,3.5L-14.25,376.811z"/>
<g>
	<defs>
		<path id="SVGID_1_" d="M1.918,350.561l835.336,21.584c0,0,305.668-28,385-56s116.668-46.666,116.668-46.666l16.33,4.666
			l107.334-51.332l9.336,7l23.33-2.334l198.334,112c0,0,125.998,16.334,165.666,16.334c39.67,0,149.334,11.666,191.334,23.332
			c42,11.668,44.336,77,44.336,77l-11.684,151.652L727.57,598.463L1.918,350.561z"/>
	</defs>
	<clipPath id="SVGID_2_">
		<use xlink:href="#SVGID_1_"  overflow="visible"/>
	</clipPath>
	<path clip-path="url(#SVGID_2_)" fill="#FFFFFF" d="M1243.252,312.645c0,0,39.666,3.498,49,1.166s25.666-5.832,24.5,2.334
		s-7,10.5,3.5,10.5s63-29.166,77-22.166s17.498,23.332,29.166,21c11.668-2.334,11.666-11.668,28-11.668s87.5,11.668,108.5,8.168
		s11.668-9.336,22.168-11.668s19.832-1.168,32.666,0s18.666,5.832,31.5,3.5s19.834-5.832,19.834-5.832s-44.33-43.166-59.5-51.334
		c-15.168-8.166-59.5-25.666-72.334-28s-58.334-10.5-68.834-10.5s-57.166,0-78.166,2.334c-21,2.332-83.996,16.332-102.666,23.332
		c-18.668,7-31.502,11.668-36.168,19.834S1243.252,312.645,1243.252,312.645z"/>
	<path opacity="0.2" clip-path="url(#SVGID_2_)" fill="#BFBDB1" d="M1708.752,355.811c0,0-60.666-23.334-80.5-35
		s59.5,50.166,56,47.832c-3.5-2.332-50.168-18.666-46.668-16.332s-22.166-24.498-36.166-29.166c-2.58-0.861,41.443,39.4,25.668,38.5
		c-13.408-0.766-86.188-42.32-95.668-46.666c-39.859-18.279-65.359-54.094-67.666-57.168c-0.85-1.133-1.65-20.686,12.834-11.666
		c7.463,4.648,1.184,17.193,11.666,28c11.027,11.371,38.746,20.936,43.166,22.166c16.77,4.666-2.332-22.166-9.332-30.332
		c-4.801-5.604-32.668-35-33.834-42s29.166,7,32.666,3.5s10.5-7,19.834-7s51.332,18.666,64.166,24.5
		c12.834,5.832,82.832,45.498,87.5,47.832s133,65.332,133,65.332L1708.752,355.811z"/>
</g>
</svg>
