<?xml version="1.0" encoding="utf-8"?>
<!-- Generator: Adobe Illustrator 15.1.0, SVG Export Plug-In . SVG Version: 6.00 Build 0)  -->
<!DOCTYPE svg PUBLIC "-//W3C//DTD SVG 1.1//EN" "http://www.w3.org/Graphics/SVG/1.1/DTD/svg11.dtd">
<svg version="1.1" id="Layer_1" xmlns="http://www.w3.org/2000/svg" xmlns:xlink="http://www.w3.org/1999/xlink" x="0px" y="0px"
	 width="2520px" height="633px" viewBox="0 0 2520 633" enable-background="new 0 0 2520 633" xml:space="preserve">
<polygon fill="#E8E8E8" points="0,576.311 1163.739,576.311 1163.739,593.811 1777.409,593.811 1777.409,576.311 2520,576.311 
	2520,633.479 0,633.479 "/>
<rect fill="#EBCC2D" width="329.577" height="579.811"/>
<polygon fill="#E1BF23" points="2427.159,68.207 2427.159,76.207 2436.577,90.207 2436.577,323.822 2202.077,323.822 
	2202.077,576.311 2520,576.311 2520,69.207 "/>
<rect x="256.077" y="382.061" fill="#EBCC2D" width="364" height="197.75"/>
<rect x="883.663" y="337.707" fill="#606049" width="31.5" height="3.5"/>
<rect x="883.663" y="410.707" fill="#606049" width="31.5" height="3.5"/>
<rect x="905.378" y="321.839" fill="#FBAE18" width="31.5" height="109"/>
<rect x="910.597" y="327.479" opacity="0.4" fill="#606049" enable-background="new    " width="21.062" height="97.347"/>
<rect x="518.494" y="299.811" fill="#FBAE18" width="375.666" height="280"/>
<rect x="1994.411" y="253.143" fill="#E1BF23" width="287" height="325.5"/>
<rect x="541.769" y="458.479" opacity="0.75" fill="#606049" enable-background="new    " width="152.1" height="121.332"/>
<rect x="540.425" y="367.479" fill="#606049" width="32.666" height="47.832"/>
<rect x="518.579" y="423.479" opacity="0.4" fill="#606049" enable-background="new    " width="375.58" height="7"/>
<rect x="1995.581" y="281.799" opacity="0.3" fill="#606049" enable-background="new    " width="285.83" height="4.812"/>
<rect x="1995.581" y="297.672" opacity="0.3" fill="#606049" enable-background="new    " width="285.83" height="7"/>
<rect x="1995.581" y="423.672" opacity="0.3" fill="#606049" enable-background="new    " width="285.83" height="7"/>
<rect x="2279.081" y="340.643" opacity="0.3" fill="#606049" enable-background="new    " width="159.246" height="7"/>
<rect x="518.579" y="321.979" opacity="0.4" fill="#606049" enable-background="new    " width="375.455" height="7"/>
<rect x="513.412" y="297.947" fill="#606049" width="385.83" height="3.071"/>
<rect x="717.581" y="458.479" opacity="0.75" fill="#606049" enable-background="new    " width="153.649" height="121.332"/>
<rect x="541.769" y="458.479" fill="#606049" width="152.098" height="88.664"/>
<rect x="546.144" y="462.854" fill="#414042" width="44.229" height="79.914"/>
<rect x="593.724" y="463.441" fill="#414042" width="44.229" height="79.914"/>
<rect x="644.386" y="462.854" fill="#414042" width="44.229" height="79.914"/>
<rect x="332.034" y="458.479" opacity="0.3" fill="#606049" enable-background="new    " width="162.33" height="120.164"/>
<polygon opacity="0.3" fill="#606049" enable-background="new    " points="329.308,382.643 1.601,382.643 0,0.553 329.308,0.553 
	"/>
<rect x="718.167" y="458.479" fill="#606049" width="153.063" height="87.914"/>
<rect x="2011.993" y="482.977" opacity="0.7" fill="#606049" enable-background="new    " width="68.764" height="77.414"/>
<rect x="2150.616" y="482.977" opacity="0.7" fill="#606049" enable-background="new    " width="114.564" height="77.414"/>
<rect x="2310.45" y="360.096" opacity="0.5" fill="#606049" enable-background="new    " width="39.896" height="66.85"/>
<rect x="2477.282" y="215.895" opacity="0.5" fill="#606049" enable-background="new    " width="42.718" height="77.416"/>
<rect x="2477.282" y="117.895" opacity="0.5" fill="#606049" enable-background="new    " width="42.718" height="77.416"/>
<rect x="2477.282" y="317.873" opacity="0.5" fill="#606049" enable-background="new    " width="42.718" height="77.414"/>
<rect x="2477.282" y="459.643" opacity="0.5" fill="#606049" enable-background="new    " width="42.718" height="77.416"/>
<rect x="2374.62" y="360.096" opacity="0.5" fill="#606049" enable-background="new    " width="39.897" height="66.85"/>
<rect x="2310.454" y="471.068" opacity="0.5" fill="#606049" enable-background="new    " width="39.897" height="71.957"/>
<rect x="2375.788" y="471.068" opacity="0.7" fill="#E8E8E8" enable-background="new    " width="39.897" height="104.486"/>
<rect x="2087.827" y="482.977" opacity="0.7" fill="#606049" enable-background="new    " width="43.401" height="94.914"/>
<rect x="439.917" y="466.062" opacity="0.6" fill="#606049" enable-background="new    " width="48.064" height="112.416"/>
<circle fill="#606049" cx="556.685" cy="369.154" r="16.406"/>
<rect x="656.536" y="367.479" fill="#606049" width="32.666" height="47.832"/>
<circle fill="#606049" cx="672.796" cy="369.154" r="16.406"/>
<rect x="597.911" y="367.479" fill="#606049" width="32.666" height="47.832"/>
<circle fill="#606049" cx="614.171" cy="369.154" r="16.406"/>
<rect x="717.171" y="367.479" fill="#606049" width="32.666" height="47.832"/>
<circle fill="#606049" cx="733.431" cy="369.154" r="16.406"/>
<rect x="839.411" y="367.479" fill="#606049" width="32.666" height="47.832"/>
<circle fill="#606049" cx="855.671" cy="369.154" r="16.406"/>
<rect x="779.911" y="367.479" fill="#606049" width="32.666" height="47.832"/>
<circle fill="#606049" cx="796.171" cy="369.154" r="16.406"/>
<path opacity="0.5" fill="#606049" enable-background="new    " d="M2043.767,334.229c-0.834-8.262-7.602-14.729-15.92-14.729
	s-15.088,6.469-15.922,14.729h-0.02v0.221c-0.046,0.484-0.146,0.957-0.146,1.457s0.101,0.971,0.146,1.457v56.053h32.023v-59.188
	H2043.767z"/>
<path opacity="0.5" fill="#606049" enable-background="new    " d="M2086.062,334.229c-0.834-8.262-7.6-14.729-15.918-14.729
	c-8.322,0-15.086,6.469-15.924,14.729h-0.02v0.221c-0.045,0.484-0.146,0.957-0.146,1.457s0.102,0.971,0.146,1.457v56.053h32.021
	v-59.188H2086.062z"/>
<path opacity="0.5" fill="#606049" enable-background="new    " d="M2128.357,334.229c-0.834-8.262-7.603-14.729-15.923-14.729
	c-8.317,0-15.086,6.469-15.92,14.729h-0.021v0.221c-0.039,0.484-0.145,0.957-0.145,1.457s0.104,0.971,0.145,1.457v56.053h32.025
	v-59.188H2128.357z"/>
<path opacity="0.5" fill="#606049" enable-background="new    " d="M2180.718,334.229c-0.819-8.262-7.446-14.729-15.602-14.729
	c-8.156,0-14.783,6.469-15.604,14.729h-0.021v0.221c-0.041,0.484-0.143,0.957-0.143,1.457s0.102,0.971,0.143,1.457v56.053h31.387
	v-59.188H2180.718z"/>
<path opacity="0.5" fill="#606049" enable-background="new    " d="M2222.171,334.229c-0.82-8.262-7.451-14.729-15.603-14.729
	c-8.155,0-14.787,6.469-15.606,14.729h-0.019v0.221c-0.043,0.484-0.142,0.957-0.142,1.457s0.098,0.971,0.142,1.457v56.053h31.386
	v-59.188H2222.171z"/>
<path opacity="0.5" fill="#606049" enable-background="new    " d="M2263.62,334.229c-0.82-8.262-7.447-14.729-15.603-14.729
	c-8.156,0-14.782,6.469-15.604,14.729h-0.021v0.221c-0.039,0.484-0.14,0.957-0.14,1.457s0.102,0.971,0.14,1.457v56.053h31.39
	v-59.188H2263.62z"/>
<rect x="282.915" y="315.6" opacity="0.6" fill="#606049" enable-background="new    " width="31.979" height="67.042"/>
<rect x="240.067" y="315.6" opacity="0.6" fill="#606049" enable-background="new    " width="31.98" height="67.042"/>
<rect x="195.421" y="315.6" opacity="0.6" fill="#606049" enable-background="new    " width="31.98" height="67.042"/>
<rect x="152.573" y="315.6" opacity="0.6" fill="#606049" enable-background="new    " width="31.98" height="67.042"/>
<rect x="107.925" y="315.6" opacity="0.6" fill="#606049" enable-background="new    " width="31.98" height="67.042"/>
<rect x="65.077" y="315.6" opacity="0.6" fill="#606049" enable-background="new    " width="31.98" height="67.042"/>
<rect x="20.431" y="315.6" opacity="0.6" fill="#606049" enable-background="new    " width="31.98" height="67.042"/>
<rect y="315.6" opacity="0.6" fill="#606049" enable-background="new    " width="9.563" height="67.042"/>
<rect x="282.915" y="215.209" opacity="0.6" fill="#606049" enable-background="new    " width="31.979" height="67.043"/>
<rect x="240.067" y="215.209" opacity="0.6" fill="#606049" enable-background="new    " width="31.98" height="67.043"/>
<rect x="195.421" y="215.209" opacity="0.6" fill="#606049" enable-background="new    " width="31.98" height="67.043"/>
<rect x="336.587" y="466.23" opacity="0.6" fill="#606049" enable-background="new    " width="97.314" height="74.043"/>
<rect y="458.479" opacity="0.3" fill="#606049" enable-background="new    " width="312.364" height="120.164"/>
<rect x="216.526" y="466.23" opacity="0.6" fill="#606049" enable-background="new    " width="88.375" height="74.043"/>
<rect x="128.011" y="466.23" opacity="0.6" fill="#606049" enable-background="new    " width="83.09" height="74.043"/>
<rect y="466.062" opacity="0.6" fill="#606049" enable-background="new    " width="29.28" height="112.416"/>
<rect x="34.575" y="466.23" opacity="0.6" fill="#606049" enable-background="new    " width="85.422" height="74.043"/>
<rect x="152.573" y="215.209" opacity="0.6" fill="#606049" enable-background="new    " width="31.98" height="67.043"/>
<rect x="107.925" y="215.209" opacity="0.6" fill="#606049" enable-background="new    " width="31.98" height="67.043"/>
<rect x="65.077" y="215.209" opacity="0.6" fill="#606049" enable-background="new    " width="31.98" height="67.043"/>
<rect x="20.431" y="215.209" opacity="0.6" fill="#606049" enable-background="new    " width="31.98" height="67.043"/>
<rect y="215.209" opacity="0.6" fill="#606049" enable-background="new    " width="9.563" height="67.043"/>
<rect x="282.915" y="117.366" opacity="0.6" fill="#606049" enable-background="new    " width="31.979" height="67.043"/>
<rect x="240.067" y="117.366" opacity="0.6" fill="#606049" enable-background="new    " width="31.98" height="67.043"/>
<rect x="195.421" y="117.366" opacity="0.6" fill="#606049" enable-background="new    " width="31.98" height="67.043"/>
<rect x="152.573" y="117.366" opacity="0.6" fill="#606049" enable-background="new    " width="31.98" height="67.043"/>
<rect x="107.925" y="117.366" opacity="0.6" fill="#606049" enable-background="new    " width="31.98" height="67.043"/>
<rect x="65.077" y="117.366" opacity="0.6" fill="#606049" enable-background="new    " width="31.98" height="67.043"/>
<rect x="20.431" y="117.366" opacity="0.6" fill="#606049" enable-background="new    " width="31.98" height="67.043"/>
<rect y="117.366" opacity="0.6" fill="#606049" enable-background="new    " width="9.563" height="67.043"/>
<rect x="282.915" y="21.127" opacity="0.6" fill="#606049" enable-background="new    " width="31.979" height="67.043"/>
<rect x="240.067" y="21.127" opacity="0.6" fill="#606049" enable-background="new    " width="31.98" height="67.043"/>
<rect x="195.421" y="21.127" opacity="0.6" fill="#606049" enable-background="new    " width="31.98" height="67.043"/>
<rect x="152.573" y="21.127" opacity="0.6" fill="#606049" enable-background="new    " width="31.98" height="67.043"/>
<rect x="107.925" y="21.127" opacity="0.6" fill="#606049" enable-background="new    " width="31.98" height="67.043"/>
<rect x="65.077" y="21.127" opacity="0.6" fill="#606049" enable-background="new    " width="31.98" height="67.043"/>
<rect x="20.431" y="21.127" opacity="0.6" fill="#606049" enable-background="new    " width="31.98" height="67.043"/>
<rect y="21.127" opacity="0.6" fill="#606049" enable-background="new    " width="9.563" height="67.043"/>
<rect x="333.077" y="414.143" fill="#E8E8E8" width="157.5" height="22.168"/>
<rect x="2001.405" y="446.809" fill="#5F7D43" width="134.164" height="36.168"/>
<rect x="2144.905" y="446.809" fill="#5F7D43" width="128.334" height="36.168"/>
<path fill="#5F7D43" d="M1073.151,327.766c-3.164,4.928-17.121,26.523-17.121,41.066c0,14.545,7.607,31.656,1.268,39.355
	c-6.341,7.697-10.146,32.508-6.342,45.342c3.807,12.834,8.879,26.521,17.758,29.09c8.875,2.562,20.349,19.586,30.436,15.396
	c16.486-6.842,24.729-26.521,26.633-38.5c1.901-11.977,0.635-40.209,3.805-49.617c3.17-9.41-3.17-27.377-7.606-33.365
	c-4.438-5.992-19.022-25.668-19.657-35.936C1101.688,330.334,1081.395,314.934,1073.151,327.766z"/>
<polygon fill="#606049" points="1098.122,576.32 1097.054,450.154 1121.132,414.645 1121.132,410.205 1108.29,429.227 
	1114.177,386.109 1112.036,386.744 1105.081,431.131 1093.308,445.715 1087.421,400.061 1093.308,371.525 1085.814,396.256 
	1071.903,357.574 1083.675,400.061 1091.167,460.932 1079.396,443.178 1070.833,408.936 1071.903,419.717 1074.044,433.033 
	1061.737,423.521 1074.577,437.471 1077.255,445.715 1091.702,468.541 1092.237,575.688 "/>
<path fill="#5F7D43" d="M1870.808,320.131c2.943,4.791,13.854,34.918,13.854,49.064s-1.752,40.758,4.156,48.246
	c5.904,7.486,6.928,26.957,3.385,39.439c-3.541,12.484-7.656,21.789-16.547,35.791c-4.152,6.541-16.232,16.34-25.625,12.268
	c-15.359-6.656-25.762-30.578-27.531-42.23c-1.773-11.648,0.838-28.184-0.174-37.906c-1.475-14.172,2.791-31.793,6.928-37.617
	c4.137-5.826,14.555-30.162,15.104-40.154C1845.874,319.314,1863.124,307.648,1870.808,320.131z"/>
<polygon fill="#606049" points="1865.265,576.311 1863.37,482.529 1884.952,443.893 1884.952,440.979 1873.868,458.768 
	1879.429,418.484 1877.286,419.119 1870.331,463.506 1859.577,479.479 1852.673,432.436 1858.558,403.9 1851.064,428.631 
	1837.155,389.949 1848.927,432.436 1856.419,493.307 1844.646,475.553 1837.558,426.031 1838.253,444.039 1839.636,457.893 
	1829.249,440.576 1839.636,462.047 1842.505,478.09 1856.952,500.916 1857.485,576.182 "/>
<rect x="723.769" y="462.854" fill="#414042" width="44.229" height="79.914"/>
<rect x="772.89" y="462.854" fill="#414042" width="44.229" height="116.664"/>
<rect x="1742.628" y="363.191" fill="#606049" width="40.5" height="6.5"/>
<rect x="1746.632" y="363.191" opacity="0.1" fill="#E8E8E8" enable-background="new    " width="34.656" height="6.5"/>
<rect x="822.011" y="462.854" fill="#414042" width="44.229" height="79.914"/>
<rect x="2000.968" y="446.809" opacity="0.7" fill="#FFFFFF" enable-background="new    " width="7.32" height="36.168"/>
<rect x="2015.061" y="446.809" opacity="0.7" fill="#FFFFFF" enable-background="new    " width="7.323" height="36.168"/>
<rect x="2029.155" y="446.809" opacity="0.7" fill="#FFFFFF" enable-background="new    " width="7.318" height="36.168"/>
<rect x="2043.247" y="446.809" opacity="0.7" fill="#FFFFFF" enable-background="new    " width="7.321" height="36.168"/>
<rect x="2057.343" y="446.809" opacity="0.7" fill="#FFFFFF" enable-background="new    " width="7.322" height="36.168"/>
<rect x="2071.438" y="446.809" opacity="0.7" fill="#FFFFFF" enable-background="new    " width="7.319" height="36.168"/>
<rect x="2085.53" y="446.809" opacity="0.7" fill="#FFFFFF" enable-background="new    " width="7.321" height="36.168"/>
<rect x="2099.624" y="446.809" opacity="0.7" fill="#FFFFFF" enable-background="new    " width="7.32" height="36.168"/>
<rect x="2113.716" y="446.809" opacity="0.7" fill="#FFFFFF" enable-background="new    " width="7.324" height="36.168"/>
<rect x="2127.812" y="446.809" opacity="0.7" fill="#FFFFFF" enable-background="new    " width="7.318" height="36.168"/>
<rect x="2144.468" y="446.809" opacity="0.7" fill="#FFFFFF" enable-background="new    " width="7.033" height="36.168"/>
<rect x="2158.009" y="446.809" opacity="0.7" fill="#FFFFFF" enable-background="new    " width="7.037" height="36.168"/>
<rect x="2171.552" y="446.809" opacity="0.7" fill="#FFFFFF" enable-background="new    " width="7.033" height="36.168"/>
<rect x="2185.093" y="446.809" opacity="0.7" fill="#FFFFFF" enable-background="new    " width="7.035" height="36.168"/>
<rect x="2198.64" y="446.809" opacity="0.7" fill="#FFFFFF" enable-background="new    " width="7.033" height="36.168"/>
<rect x="2212.177" y="446.809" opacity="0.7" fill="#FFFFFF" enable-background="new    " width="7.035" height="36.168"/>
<rect x="2225.722" y="446.809" opacity="0.7" fill="#FFFFFF" enable-background="new    " width="7.035" height="36.168"/>
<rect x="2239.265" y="446.809" opacity="0.7" fill="#FFFFFF" enable-background="new    " width="7.035" height="36.168"/>
<rect x="2252.804" y="446.809" opacity="0.7" fill="#FFFFFF" enable-background="new    " width="7.037" height="36.168"/>
<rect x="2266.35" y="446.809" opacity="0.7" fill="#FFFFFF" enable-background="new    " width="7.032" height="36.168"/>
<rect x="1777.659" y="363.191" fill="#606049" width="8" height="213.188"/>
<polygon opacity="0.1" fill="#E8E8E8" enable-background="new    " points="1777.659,576.379 1785.659,576.379 1785.659,363.191 "/>
<rect x="1726.214" y="357.957" fill="#606049" width="27.25" height="69.104"/>
<polygon opacity="0.2" fill="#E8E8E8" enable-background="new    " points="1753.464,357.957 1753.464,427.061 1726.214,427.061 "/>
<circle fill="#F3732A" cx="1739.839" cy="372.761" r="7.553"/>
<circle fill="#EBCC2D" cx="1739.839" cy="392.775" r="7.553"/>
<circle fill="#A7BF61" cx="1739.839" cy="412.789" r="7.553"/>
<path fill="#414042" d="M1193.934,588.358c0,2.378-1.929,4.308-4.308,4.308h-5.504c-2.378,0-4.308-1.93-4.308-4.308V564.61
	c0-2.376,1.93-4.31,4.308-4.31h5.504c2.379,0,4.308,1.933,4.308,4.31V588.358z"/>
<path fill="#414042" d="M1263.13,588.358c0,2.378-1.932,4.308-4.31,4.308h-5.498c-2.384,0-4.312-1.93-4.312-4.308V564.61
	c0-2.376,1.928-4.31,4.312-4.31h5.498c2.378,0,4.31,1.933,4.31,4.31V588.358z"/>
<path fill="#FFFFFF" d="M1232.038,579.846h-50.442l-4.005-2.004c-2.061-2.421-1.819-5.673-1.819-5.673
	c0.002,0-0.627-5.878-0.981-9.213c-0.144-1.321,0.381-2.424,0.381-2.424c0.002-0.002,0.78-1.448,0.78-1.448l1.27-1.484v-10.233
	l2.76-7.565l5.349-31.59c0,0,0.883-20.021,29.806-20.021c28.92,0,17.354,0,17.354,0L1232.038,579.846z"/>
<path fill="#FFFFFF" d="M1209.971,579.846h50.563l4.003-2.004c2.061-2.421,1.818-5.673,1.818-5.673s0.543-5.625,0.866-8.994
	c0.143-1.438-0.423-2.463-0.423-2.463l-0.782-1.682l-1.223-1.433v-10.233l-2.766-7.565l-5.347-31.59c0,0-0.882-20.021-29.804-20.021
	s-17.354,0-17.354,0L1209.971,579.846z"/>
<path fill="#606049" d="M1257.444,529.93c0,5.698-4.621,10.315-10.32,10.315h-51.873c-5.695,0-10.316-4.617-10.316-10.315
	l2.673-12.608c0-5.697,4.618-10.318,10.315-10.318h46.529c5.696,0,10.318,4.621,10.318,10.318L1257.444,529.93z"/>
<path fill="#FBAE18" d="M1197.822,554.906c0,1.731-1.16,3.137-2.596,3.137h-13.038c-1.435,0-2.597-1.404-2.597-3.137v-3.836
	c0-1.731,1.162-3.139,2.597-3.139h13.038c1.436,0,2.596,1.406,2.596,3.139V554.906z"/>
<path fill="#FBAE18" d="M1262.337,554.906c0,1.731-1.16,3.137-2.592,3.137h-13.04c-1.434,0-2.595-1.404-2.595-3.137v-3.836
	c0-1.731,1.161-3.139,2.595-3.139h13.04c1.432,0,2.592,1.406,2.592,3.139V554.906z"/>
<path fill="#414042" d="M2181.952,580.686c-11.338,0-20.562-9.225-20.562-20.562s9.227-20.562,20.562-20.562
	s20.562,9.227,20.562,20.562S2193.29,580.686,2181.952,580.686L2181.952,580.686z M2181.952,543.061
	c-9.41,0-17.062,7.654-17.062,17.062s7.652,17.062,17.062,17.062c9.409,0,17.062-7.652,17.062-17.062
	S2191.362,543.061,2181.952,543.061L2181.952,543.061z"/>
<path fill="#414042" d="M2240.14,580.686c-11.338,0-20.562-9.225-20.562-20.562s9.225-20.562,20.562-20.562
	s20.562,9.227,20.562,20.562S2251.479,580.686,2240.14,580.686L2240.14,580.686z M2240.14,543.061
	c-9.409,0-17.062,7.654-17.062,17.062s7.652,17.062,17.062,17.062c9.41,0,17.062-7.652,17.062-17.062
	S2249.55,543.061,2240.14,543.061L2240.14,543.061z"/>
<ellipse fill="#414042" cx="2225.046" cy="524.248" rx="9.406" ry="3.062"/>
<polygon fill="none" stroke="#00B6D2" stroke-width="3.5" stroke-linecap="round" stroke-linejoin="round" points="
	2238.827,558.373 2208.202,558.373 2193.327,529.498 2226.14,529.498 "/>
<line fill="none" stroke="#00B6D2" stroke-width="3.5" x1="2208.202" y1="558.811" x2="2226.14" y2="529.061"/>
<line fill="none" stroke="#00B6D2" stroke-width="3.5" stroke-linecap="round" x1="2182.171" y1="559.904" x2="2192.452" y2="524.029"/>
<path fill="none" stroke="#E8E8E8" stroke-width="3.5" stroke-linecap="round" d="M2183.046,519.654c0,0,7.875-0.656,8.969,0.654
	c1.095,1.312,0.875,2.188,0.22,4.596"/>
<line fill="none" stroke="#E1BF23" stroke-width="3.4914" stroke-linecap="round" x1="587.127" y1="546.066" x2="640.619" y2="546.066"/>
<line fill="none" stroke="#E1BF23" stroke-width="3.4914" stroke-linecap="round" x1="603.531" y1="579.525" x2="627.68" y2="579.525"/>
<line fill="none" stroke="#E1BF23" stroke-width="3.4914" stroke-linecap="round" x1="615.168" y1="577.779" x2="615.168" y2="547.231"/>
<polyline fill="none" stroke="#E1BF23" stroke-width="3.4914" stroke-linecap="round" points="645.674,580.979 645.966,563.815 
	665.167,563.815 671.858,540.538 "/>
<polygon fill="#FFFFFF" points="593.239,544.305 593.094,535.592 597.459,535.592 597.168,544.322 "/>
<polygon fill="#FFFFFF" points="624.136,544.305 623.992,535.592 628.357,535.592 628.066,544.322 "/>
<line fill="none" stroke="#E1BF23" stroke-width="3.4914" stroke-linecap="round" x1="667.204" y1="580.688" x2="665.167" y2="564.396"/>
<polyline fill="none" stroke="#E1BF23" stroke-width="3.4914" stroke-linecap="round" points="580.295,580.979 580.002,563.815 
	560.8,563.815 554.108,540.538 "/>
<line fill="none" stroke="#E1BF23" stroke-width="3.4914" stroke-linecap="round" x1="558.762" y1="580.688" x2="560.8" y2="564.396"/>
<path fill="#B3966D" d="M598.342,541.831c1.199,0.896,0.314,2.981-4.082,2.981c0,0-8.796,3.144-10.839,2.984
	c-2.038-0.156-4.396-3.144-4.396-3.144s0.629,0-0.156,0.943c-1.353,1.619-3.615,2.515-3.615,2.515l-1.252,4.865
	c0,0,15.389,0.944,17.587,2.516c2.196,1.568,1.884,5.65,1.884,5.65l-0.923,16.961c0,0,4.399,0.945,4.399,2.2
	s-8.168,1.255-9.112,1.255c-0.94,0-1.57-3.455-1.57-3.455l0.923-16.02h-19.63c0,0-5.588-1.096-5.497-5.338
	c0.063-2.919,3.002-6.178,3.929-9.736c1.402-5.438,2.349-11.424,3.299-12.562c1.567-1.886,2.354-3.301,2.354-3.301
	s-3.347-1.506-2.403-3.701c0.938-2.198,3.152-2.36,3.78-3.931c0.632-1.568-1.769-6.135,1.746-9.165
	c4.22-3.638,10.527-1.64,11.781,0.873c1.257,2.514-1.308,4.073-1.308,4.073s0.913,6.604-1.604,9.747
	c-1.312,1.646-2.038,0.288-3.782,1.018s-0.362,3.144,0.896,4.541c1.413,1.57,4.396,8.793,4.396,8.793s5.813,0.943,8.8-1.565
	C594.51,541.351,597.274,541.03,598.342,541.831z"/>
<path fill="#B3966D" d="M629.743,544.574c0,0,7.421,2.947,11.129,2.291s5.894-4.363,5.894-4.363l5.235,10.254
	c0,0-15.772,3.401-17.021,4.803c-1.745,1.964,1.526,13.966,2.838,18.983c0.471,1.803,1.525,1.966,1.525,1.966
	s-3.056,0.871-4.146,1.526c-1.09,0.653-0.873,1.964,0.219,1.964c1.09,0,7.637-0.438,7.637-0.438s0.656-2.617,0.656-3.49
	c0-0.871-2.838-16.366-2.838-16.366s16.219,1.262,20.729,0.217c2.834-0.655,3.056-4.581,1.965-9.6
	c-0.465-2.134-3.818-16.256-5.456-19.64c-0.992-2.05-5.02-4.583-5.02-4.583s-1.895-0.759-2.183-2.945
	c-0.298-2.259,1.746-4.802,0.654-7.963c-1.244-3.604-4.146-4.803-7.2-4.364c-3.058,0.434-4.583,2.834-3.931,3.927
	c0.656,1.09,0.438,2.4,0.438,3.709s0.873,7.421,2.183,8.073c1.312,0.655,2.183-0.217,3.058,0.655c0.872,0.872,0.872,3.057,0,3.928
	c-0.875,0.875-2.4,3.272-3.058,4.584c-0.654,1.308-2.183,5.018-3.49,5.018c-1.312,0-7.231-0.585-8.729-1.31
	c-3.164-1.526-5.965-1.389-6.22,0.652C624.398,543.812,626.579,544.248,629.743,544.574z"/>
<path fill="#414042" d="M220.651,528.473c0,0,6.698-18.549,10.304-20.608c3.607-2.062,6.699-4.639,5.668-7.729
	c-1.03-3.092-3.091-4.637-2.576-8.759c0.515-4.122,1.031-8.759,4.638-8.759c3.606,0,5.667,4.123,5.152,8.245
	c-0.515,4.121-2.576,6.695-2.061,8.759c0.515,2.061,1.888,4.191,5.323,6.475c3.435,2.284,4.466,4.86,5.496,6.921
	c1.031,2.062,0,17.52,0,19.063c0,1.546-1.03,4.123-2.576,5.153c-1.545,1.028-3.606,11.335-3.606,11.335l0.515,22.154l-0.793,8.756
	c0,0,0.946,2.271,0.567,3.218c-0.689,1.725-5.678,0.188-5.678,0.188s-0.279-2.885-0.794-1.34c-0.516,1.545-3.092,1.545-3.092,1.545
	s-6.698,1.031-6.183-0.516c0.516-1.545,3.119-0.656,3.634-2.717c0.515-2.062-2.461-39.366-2.461-39.366s-1.671-1.861-3.217-3.407
	c-1.545-1.545-6.199-5.519-6.199-5.519L220.651,528.473z M230.994,517.778c-1.014,0.967-5.299,10.029-4.92,10.978
	c0.69,1.727,5.678,5.677,5.678,5.677L230.994,517.778z"/>
<path fill="#414042" d="M204.485,514.535c-0.304-1.521-8.815-13.375-8.815-13.375l-0.977,0.697
	c-0.011-0.716-0.047-1.196-0.047-1.196c0-1.824-0.361-11.012-4.009-11.468c-3.647-0.456-4.655,0.979-6.935,4.172
	c-2.28,3.189,1.786,8.812-0.95,10.636s-3.939,5.435-2.116,6.347c1.823,0.912,3.978-0.566,2.61,0.802
	c-1.368,1.366-6.941,10.441-6.424,13.722c0.577,3.653,7.446,9.1,7.295,10.64c-0.279,2.871-1.75,12.148-1.75,12.148l-0.577,6.729
	l3.735,0.987l0.688,2.282l-0.77,6.924l0.192,14.616c0,0-0.731,2.401,0.385,3.269c0.71,0.551,6.154,1.154,7.308,0.192
	c1.444-1.203-5-2.479-5-3.847c0-1.368,2.668-22.98,2.668-22.98l2.757,24.43c0,0-0.903,2.015,0.921,2.015
	c1.824,0,1.73-0.388,1.73-0.388s3.248,1.489,4.616,0.577c1.368-0.911-4.424-3.653-4.424-3.653v-24.615l0.77-0.192
	c0,0-1.852-17.507-2.308-21.155c-0.277-2.214-0.373-5.396,0.384-8.27c0.491-1.859,0.769-3.462,0.961-5.193
	c0.069-0.617-0.322-1.822-0.911-3.274c2.349,0.255,5.343,0.552,6.557,0.552C204.181,516.662,204.789,516.055,204.485,514.535z
	 M193.208,510.934c-0.088-0.195-0.176-0.393-0.262-0.586c-0.351-0.789-1.923-1.346,0-2.114c1.103-0.441,1.529-2.32,1.678-4.097
	c1.325,1.774,3.469,4.613,4.086,5.23c0.912,0.912,1.52,3.646,1.52,3.646L193.208,510.934z"/>
<path fill="#414042" d="M1966.833,578.207v-24.861l1.553-13.596l1.942-2.331l2.331-17.092l-5.05-12.433l-5.438-1.165
	c0,0,0.39-11.265-0.389-13.206c-0.776-1.942-3.107-3.496-5.438-3.496c-2.33,0-3.105,1.94-3.495,3.496
	c-0.39,1.554-0.775,8.156,0.39,8.935c1.166,0.777,3.497,4.271,3.105,5.438c-0.388,1.166-2.33,4.662-3.105,7.383
	c-0.777,2.719-0.777,16.702-0.777,16.702l-6.215,4.662l1.554,3.496l8.938-5.438l2.329,40.787l-3.495,2.72L1966.833,578.207
	L1966.833,578.207z"/>
<path fill="#414042" d="M1943.997,577.851v-18.179l-1.03-3.431l-21.609-1.372l-1.715-4.458l0.344-7.204l-4.115,3.43l-8.575,1.03
	v2.401l6.519,1.715l1.373,10.29l3.087,4.802v11.663l2.399-0.343l0.344-10.291l14.75-1.029l1.716,2.744l3.43,2.402l-0.344,6.517
	L1943.997,577.851z"/>
<path fill="#414042" d="M1918.046,556.545c-0.25,0-0.391-0.004-0.408-0.005l0.043-0.999c0.229,0.005,23.192,0.729,29.501-19.648
	l0.955,0.297C1942.073,555.778,1921.23,556.545,1918.046,556.545L1918.046,556.545z"/>
</svg>
