<?xml version="1.0" encoding="utf-8"?>
<!-- Generator: Adobe Illustrator 15.1.0, SVG Export Plug-In . SVG Version: 6.00 Build 0)  -->
<!DOCTYPE svg PUBLIC "-//W3C//DTD SVG 1.1//EN" "http://www.w3.org/Graphics/SVG/1.1/DTD/svg11.dtd">
<svg version="1.1" id="Layer_1" xmlns="http://www.w3.org/2000/svg" xmlns:xlink="http://www.w3.org/1999/xlink" x="0px" y="0px"
	 width="2517px" height="633.479px" viewBox="0 0 2517 633.479" enable-background="new 0 0 2517 633.479" xml:space="preserve">
<g id="background_1_">
	<path fill="#AEB69A" d="M974.922,423.477h-22.754v-20.772l-4.514-6.404v-32.932l-3.224-6.402v-13.723l-4.514-12.808v93.041h-23.332
		v-16.334h-70v23.334l-852.336-0.02l0.75,68l2523.625-0.314L2519,390.811h-573.414v25.666h-56V392.95h18.67c0,0-98-32.668-154-28
		c-56,4.666-67.67,32.666-67.67,32.666h18.67v16.526h-128.334v-11.666h-210v16.334h-149.336l-35-32.668v30.334h-74.664v-18.666
		h-60.668v25.375h-50.461v-20.481l-4.514-6.404v-32.932l-3.224-6.402v-13.723l-4.514-12.808v93.021L974.922,423.477z"/>
</g>
<g id="river_1_">
	<polygon opacity="0.7" fill="#006796" enable-background="new    " points="2519.25,636.438 -4.25,635.457 -5,498.457 
		2519,498.104 	"/>
	<rect x="1696.955" y="477.143" fill="#E8E8E8" width="820.045" height="7"/>
	<rect x="1700.811" y="483.514" fill="#E8E8E8" width="10.099" height="15.179"/>
	<rect x="1761.854" y="483.264" fill="#E8E8E8" width="10.097" height="16.929"/>
	<rect x="1826.952" y="482.514" fill="#E8E8E8" width="10.096" height="18.429"/>
	<rect x="1890.943" y="482.014" fill="#E8E8E8" width="10.096" height="21.179"/>
	<rect x="1962.494" y="482.264" fill="#E8E8E8" width="10.098" height="21.679"/>
	<rect x="2025.951" y="482.764" fill="#E8E8E8" width="10.098" height="23.179"/>
	<rect x="2096.227" y="482.764" fill="#E8E8E8" width="10.099" height="24.179"/>
	<rect x="2176.951" y="483.264" fill="#E8E8E8" width="10.098" height="25.679"/>
	<rect x="2269.951" y="483.264" fill="#E8E8E8" width="10.098" height="27.179"/>
	<rect x="2383.951" y="483.264" fill="#E8E8E8" width="10.098" height="29.679"/>
	<rect x="2490.902" y="482.764" fill="#E8E8E8" width="10.098" height="32.679"/>
	<path opacity="0.5" fill="#E8E8E8" enable-background="new    " d="M1697.801,475.668c2.443-11.475,16.517-20.271,33.51-20.271
		c16.845,0,30.822,8.647,33.441,19.975"/>
	<path opacity="0.5" fill="#E8E8E8" enable-background="new    " d="M1764.721,475.668c2.443-11.475,16.517-20.271,33.51-20.271
		c16.845,0,30.822,8.647,33.441,19.975"/>
	<path opacity="0.5" fill="#E8E8E8" enable-background="new    " d="M1831.641,475.668c2.443-11.475,16.517-20.271,33.511-20.271
		c16.844,0,30.823,8.647,33.44,19.975"/>
	<path opacity="0.5" fill="#E8E8E8" enable-background="new    " d="M1898.561,475.668c2.445-11.475,16.517-20.271,33.513-20.271
		c16.844,0,30.821,8.647,33.44,19.975"/>
	<path opacity="0.5" fill="#E8E8E8" enable-background="new    " d="M1965.482,475.668c2.442-11.475,16.516-20.271,33.51-20.271
		c16.844,0,30.822,8.647,33.441,19.975"/>
	<path opacity="0.5" fill="#E8E8E8" enable-background="new    " d="M2031.879,475.668c2.445-11.475,16.516-20.271,33.512-20.271
		c16.845,0,30.822,8.647,33.441,19.975"/>
	<path opacity="0.5" fill="#E8E8E8" enable-background="new    " d="M2100.922,475.668c2.936-11.475,19.82-20.271,40.217-20.271
		c20.215,0,36.989,8.647,40.134,19.975"/>
	<path opacity="0.5" fill="#E8E8E8" enable-background="new    " d="M2183.922,475.668c3.19-11.475,21.547-20.271,43.721-20.271
		c21.976,0,40.213,8.647,43.629,19.975"/>
	<path opacity="0.5" fill="#E8E8E8" enable-background="new    " d="M2277.922,475.668c3.921-13.846,26.48-24.461,53.731-24.461
		c27.006,0,49.419,10.436,53.618,24.103"/>
	<path opacity="0.5" fill="#E8E8E8" enable-background="new    " d="M2389.922,475.668c3.921-13.846,26.48-24.461,53.731-24.461
		c27.006,0,49.419,10.436,53.618,24.103"/>
</g>
</svg>
