<?xml version="1.0" encoding="utf-8"?>
<!-- Generator: Adobe Illustrator 15.0.2, SVG Export Plug-In . SVG Version: 6.00 Build 0)  -->
<!DOCTYPE svg PUBLIC "-//W3C//DTD SVG 1.1//EN" "http://www.w3.org/Graphics/SVG/1.1/DTD/svg11.dtd">
<svg version="1.1" id="background" xmlns="http://www.w3.org/2000/svg" xmlns:xlink="http://www.w3.org/1999/xlink" x="0px" y="0px"
	 width="2520px" height="431.094px" viewBox="0 0 2520 431.094" enable-background="new 0 0 2520 431.094" xml:space="preserve">
<g>
	<path opacity="0.7" fill="#BFBDB1" d="M2532.001,28.428c0,0-78.329-28.099-101.665-23.433
		c-23.334,4.668-137.668,53.668-163.334,53.668s-48.996-18.666-60.666-37.334c-11.668-18.666-23.334-25.666-37.334-18.666
		s-28,23.332-35,30.332s-44.334,74.67-79.334,86.334c-35,11.666-70,7-91,7s-37.332,9.336-46.666,14
		c-9.334,4.666-53.666,39.666-53.666,39.666s-32.668,14.002-79.334,9.334c-46.666-4.666-135.334-23.332-168-28
		c-32.666-4.666-130.666-16.334-189-4.666c-58.334,11.666-128.33,25.666-144.666,25.666c-16.334,0-98-11.668-144.668-9.334
		s-93.332,18.67-112,16.334c-18.668-2.334-86.334-58.332-107.334-70c-21-11.666-39.668-49-70-53.666
		c-30.334-4.668-42,18.666-51.334,28c-9.332,9.332-46.666,53.666-67.666,46.666S647.668,95.995,615,86.663
		c-32.666-9.334-88.666-20.998-119-9.334c-30.332,11.666-56,42-84,39.666c-28-2.332-168-41.998-235.668-46.666
		C108.664,65.663,73.664,81.995,45.664,88.995S1.332,100.663,1.332,100.663l-23.999,67.765l1.333,274l808-5.334l1738.667,3.333
		l4-116.666l8.667-80L2532.001,28.428z"/>
	<g>
		<defs>
			<path id="SVGID_1_" d="M2532.001,28.428c0,0-78.329-28.099-101.665-23.433c-23.334,4.668-137.668,53.668-163.334,53.668
				s-48.996-18.666-60.666-37.334c-11.668-18.666-23.334-25.666-37.334-18.666s-28,23.332-35,30.332s-44.334,74.67-79.334,86.334
				c-35,11.666-70,7-91,7s-37.332,9.336-46.666,14c-9.334,4.666-53.666,39.666-53.666,39.666s-32.668,14.002-79.334,9.334
				c-46.666-4.666-135.334-23.332-168-28c-32.666-4.666-130.666-16.334-189-4.666c-58.334,11.666-128.33,25.666-144.666,25.666
				c-16.334,0-98-11.668-144.668-9.334s-93.332,18.67-112,16.334c-18.668-2.334-86.334-58.332-107.334-70
				c-21-11.666-39.668-49-70-53.666c-30.334-4.668-42,18.666-51.334,28c-9.332,9.332-46.666,53.666-67.666,46.666
				S647.668,95.995,615,86.663c-32.666-9.334-88.666-20.998-119-9.334c-30.332,11.666-56,42-84,39.666
				c-28-2.332-168-41.998-235.668-46.666C108.664,65.663,73.664,81.995,45.664,88.995S1.332,100.663,1.332,100.663l-10.665,63.099
				l-14,278.667L810,381.094l295,20.57l1429.668,47.43l12.667-200.666L2532.001,28.428z"/>
		</defs>
		<clipPath id="SVGID_2_">
			<use xlink:href="#SVGID_1_"  overflow="visible"/>
		</clipPath>
		<path opacity="0.15" clip-path="url(#SVGID_2_)" fill="#606049" d="M2169.002,2.663c0,0-27.996,16.336-35,30.332
			c-7.002,13.998-39.668,62.998-46.668,72.332c-7,9.332,21-2.334,21-2.334s25.668-32.668,23.334-21
			c-2.334,11.666-16.334,37.334-2.334,25.666C2143.334,95.993,2169.002,2.663,2169.002,2.663z"/>
		<path opacity="0.15" clip-path="url(#SVGID_2_)" fill="#606049" d="M836.668,70.327c0,0-42,74.666-49,81.666s0-28,0-28
			s-16.334,23.334-37.334,18.666c-21-4.666,2.334-32.666,9.334-39.666s77-44.334,77-44.334V70.327z"/>
		<path opacity="0.15" clip-path="url(#SVGID_2_)" fill="#606049" d="M1165.666,170.659c-9.332,0-88.666,28-107.332,35
			c-18.668,7-37.332-13.99-32.666-16.33c4.666-2.336-11.668,11.664,4.666-2.336c16.332-14,70-23.334,70-23.334L1165.666,170.659z"/>
		<path opacity="0.15" clip-path="url(#SVGID_2_)" fill="#606049" d="M535.666,70.325c0,0-28.002,44.332-65.334,49
			S412,116.995,412,116.995s0-23.336,11.666-28.002c11.666-4.668,46.666-16.334,53.666-16.334S535.666,70.325,535.666,70.325z"/>
		<path opacity="0.15" clip-path="url(#SVGID_2_)" fill="#606049" d="M556.666,140.325c-16.334,4.668-65.334,18.668-65.334,18.668
			s14,14,32.668,11.666c18.666-2.334,34.998-32.666,51.332-35S556.666,140.325,556.666,140.325z"/>
	</g>
</g>
</svg>
