<?xml version="1.0" encoding="utf-8"?>
<!-- Generator: Adobe Illustrator 15.1.0, SVG Export Plug-In . SVG Version: 6.00 Build 0)  -->
<!DOCTYPE svg PUBLIC "-//W3C//DTD SVG 1.1//EN" "http://www.w3.org/Graphics/SVG/1.1/DTD/svg11.dtd">
<svg version="1.1" xmlns="http://www.w3.org/2000/svg" xmlns:xlink="http://www.w3.org/1999/xlink" x="0px" y="0px"
	 width="2516.496px" height="336.934px" viewBox="0 0 2516.496 336.934" enable-background="new 0 0 2516.496 336.934"
	 xml:space="preserve">
<g id="Layer_1">
	<g id="hill_1_">
	</g>
	<polygon fill="#FBAE18" points="240.34,49.057 200.631,49.057 200.631,77.812 240.34,93.787 	"/>
	<rect x="228.016" y="70.662" fill="#606049" width="7.086" height="7.604"/>
	<rect x="198.801" y="43.125" fill="#606049" width="43.82" height="22.817"/>
	<g>
		<polyline fill="#5F7D43" points="2265.818,149.131 2283.947,88.783 2305.057,149.131 		"/>
		<g>
			<polygon opacity="0.15" fill="#E8E8E8" enable-background="new    " points="2265.268,148.869 2304.209,148.869 2283.523,89.721 
							"/>
			<polygon opacity="0.15" fill="#E8E8E8" enable-background="new    " points="2265.869,148.162 2284.129,113.82 2304.814,148.162 
				2284.129,88.988 			"/>
		</g>
	</g>
	<g>
		<polyline fill="#5F7D43" points="2431.488,144.467 2449.617,84.119 2470.727,144.467 		"/>
		<g>
			<polygon opacity="0.15" fill="#E8E8E8" enable-background="new    " points="2430.938,144.203 2469.879,144.203 2449.191,85.055 
							"/>
			<polygon opacity="0.15" fill="#E8E8E8" enable-background="new    " points="2431.539,143.498 2449.797,109.154 
				2470.482,143.498 2449.797,84.324 			"/>
		</g>
	</g>
	<g>
		<polyline fill="#5F7D43" points="2314.654,138.256 2327.414,95.783 2342.271,138.256 		"/>
		<g>
			<polygon opacity="0.15" fill="#E8E8E8" enable-background="new    " points="2314.268,138.07 2341.674,138.07 2327.117,96.443 
							"/>
			<polygon opacity="0.15" fill="#E8E8E8" enable-background="new    " points="2314.691,137.574 2327.539,113.404 
				2342.102,137.574 2327.539,95.928 			"/>
		</g>
	</g>
	<g>
		<polyline fill="#5F7D43" points="2379.988,147.588 2392.748,105.117 2407.605,147.588 		"/>
		<g>
			<polygon opacity="0.15" fill="#E8E8E8" enable-background="new    " points="2379.602,147.404 2407.008,147.404 
				2392.451,105.775 			"/>
			<polygon opacity="0.15" fill="#E8E8E8" enable-background="new    " points="2380.027,146.906 2392.875,122.736 
				2407.436,146.906 2392.875,105.26 			"/>
		</g>
	</g>
	<g>
		<line fill="none" stroke="#B3966D" stroke-width="3.5" x1="1526.303" y1="214.373" x2="1526.303" y2="182.172"/>
		<line fill="none" stroke="#B3966D" stroke-width="3.5" x1="1580.352" y1="184.041" x2="1526.303" y2="184.041"/>
		<line fill="none" stroke="#B3966D" stroke-width="3.5" x1="1578.803" y1="184.041" x2="1578.803" y2="222.541"/>
		<line fill="none" stroke="#B3966D" stroke-width="3.5" x1="1542.053" y1="183.457" x2="1542.053" y2="216.707"/>
		<line fill="none" stroke="#B3966D" stroke-width="3.5" x1="1526.885" y1="192.207" x2="1542.053" y2="192.207"/>
		<line fill="none" stroke="#B3966D" stroke-width="3.5" x1="1527.469" y1="205.041" x2="1540.885" y2="205.041"/>
		<line fill="none" stroke="#B3966D" stroke-width="3.5" x1="1558.385" y1="184.623" x2="1558.385" y2="221.373"/>
		<line fill="none" stroke="#B3966D" stroke-width="3.5" x1="1567.719" y1="185.207" x2="1567.719" y2="223.707"/>
	</g>
	<g>
		<line fill="none" stroke="#B3966D" stroke-width="3.5" x1="1382.51" y1="129.176" x2="1382.51" y2="158.666"/>
		<line fill="none" stroke="#B3966D" stroke-width="3.5" x1="1381.928" y1="130.666" x2="1448.244" y2="130.666"/>
		<line fill="none" stroke="#B3966D" stroke-width="3.5" x1="1446.678" y1="131.248" x2="1446.678" y2="169.166"/>
		<line fill="none" stroke="#B3966D" stroke-width="3.5" x1="1435.594" y1="130.666" x2="1435.594" y2="167.416"/>
		<line fill="none" stroke="#B3966D" stroke-width="3.5" x1="1423.344" y1="131.248" x2="1423.344" y2="163.916"/>
		<line fill="none" stroke="#B3966D" stroke-width="3.5" x1="1411.094" y1="130.666" x2="1411.094" y2="162.166"/>
		<line fill="none" stroke="#B3966D" stroke-width="3.5" x1="1396.51" y1="131.248" x2="1396.51" y2="160.998"/>
	</g>
	<g>
		<line fill="none" stroke="#B3966D" stroke-width="3.5" x1="1757.59" y1="174.416" x2="1757.59" y2="211.459"/>
		<line fill="none" stroke="#B3966D" stroke-width="3.5" x1="1757.59" y1="175.873" x2="1812.426" y2="175.873"/>
		<line fill="none" stroke="#B3966D" stroke-width="3.5" x1="1812.426" y1="174.416" x2="1812.426" y2="213.209"/>
		<line fill="none" stroke="#B3966D" stroke-width="3.5" x1="1800.176" y1="177.623" x2="1800.176" y2="214.373"/>
		<line fill="none" stroke="#B3966D" stroke-width="3.5" x1="1789.09" y1="176.166" x2="1789.09" y2="214.373"/>
		<line fill="none" stroke="#B3966D" stroke-width="3.5" x1="1773.34" y1="176.459" x2="1773.34" y2="210.873"/>
		<line fill="none" stroke="#B3966D" stroke-width="3.5" x1="1789.09" y1="189.873" x2="1773.926" y2="189.873"/>
	</g>
	<polygon fill="#E3C7A1" points="1698.672,204.166 1698.672,179.666 1703.336,179.084 1684.086,151.666 1661.336,180.25 
		1666.002,180.25 1666.002,203 	"/>
	<rect x="1698.086" y="178.498" fill="#B3966D" width="38.5" height="25.086"/>
	<polygon fill="#B3966D" points="1744.172,180.248 1703.336,180.248 1684.086,151.666 1723.461,151.666 	"/>
	<polyline fill="#606049" points="1970.502,162.75 1859.668,47.25 1825.252,5.25 1831.084,0 1870.752,39.084 1973.418,147.584 
		1970.502,162.75 	"/>
	<polygon fill="#EBCC2D" points="1967.002,186.666 2023.584,190.75 2025.334,170.334 2002.002,165.666 1997.334,148.166 
		1970.502,145.834 	"/>
	<polygon fill="#606049" points="1974.584,150.5 1973.418,164.5 1993.252,167.416 1991.502,152.834 	"/>
	<path fill="#606049" d="M1960.002,194.834c0,0-2.916-7.586,7-8.168s37.916,3.5,37.916,3.5L1960.002,194.834"/>
	<rect x="2101.168" y="120.604" fill="#B3966D" width="55.125" height="28"/>
	<rect x="2107.73" y="148.166" fill="#B3966D" width="43.312" height="21.875"/>
	<path fill="#606049" d="M1712.668,338.916c0,0-28-126.22-99.75-129.584c-71.75-3.365-157.5-1.687-157.5-1.687l-628.17,129.286
		l432.17,1.982L1712.668,338.916L1712.668,338.916z"/>
	<path fill="#87AA5A" d="M1514.33,340.084c0,0,35.004-19.834,33.838-44.334s-31.5-32.668-21-58.334s31.496-30.334,64.166-35
		c32.668-4.666,306.83,9.334,416.5-15.166c109.668-24.5,248.492-53.666,359.326-57.166c110.836-3.5,149.336,1.164,149.336,1.164
		v206.5L1514.33,340.084z"/>
	<path opacity="0.22" fill="#606049" enable-background="new    " d="M2367.16,130.458c-110.834,3.5-249.658,32.666-359.326,57.166
		c-109.67,24.5-383.832,10.5-416.5,15.166c-5.927,0.847-10.809,1.467-14.916,1.977c-11.234,2.025-20.733,4.568-28.573,8.846
		c-0.004,0.006-0.007,0.009-0.011,0.012c0,0,18.812-5.721,111.807-1.221c32.604,1.578,281.183,1.639,263.562,8.099
		c-80.957,29.685-223.758,81.023-177.206,67.464c114.239-33.282,246.22-73.753,278.06-79.649
		c121.492-22.499,259.484-49.499,362.979-53.998s129.462,13.499,129.462,13.499v-36.189
		C2516.496,131.622,2477.996,126.958,2367.16,130.458z"/>
	<path fill="#87AA5A" d="M492.092,279.416c16.53-25.714,107.147-67.081,107.4-67.196c-47.645-9.146-96.955-23.412-144.492-44.804
		c-163.334-73.5-245.002-91-323.168-112S0,40.248,0,40.248v301.026h658.355l-145.266-0.608
		C513.092,340.666,476.342,303.916,492.092,279.416z"/>
	<path fill="#87AA5A" d="M1459.67,167.123c-46.533-19.17-113.016-37.109-191.512-31.207c-155.168,11.668-334.832,66.5-400.164,80.5
		c-38.722,8.298-119.245,15.361-212.419,4.44c-3.413,1.74-8.41,4.275-14.077,7.108c-22.75,10.5-60.873,45.412-26.906,64.281
		c64.39,35.771,187.268,46.086,259.04,49.026l31.116-12.81c0,0,512.752-2.385,554.752-33.885c33.648-25.238,14.027-55.027,31.5-70
		c16.336-14,34.422-17.304,34.422-17.304S1505.121,185.843,1459.67,167.123z"/>
	<path opacity="0.22" fill="#606049" enable-background="new    " d="M1502.676,216.948c14.205-7.901,22.762-9.642,22.762-9.642
		s-20.313-21.091-65.768-39.812c-46.533-19.17-113.016-37.109-191.512-31.207c-155.168,11.668-334.832,66.5-400.164,80.5
		c-65.334,14-249.662,24.5-412.994-49c-163.334-73.5-245.002-91-323.168-112S0,40.622,0,40.622v59.694
		c0,0,200.143,5.998,323.137,49.496c122.994,43.498,214.489,97.495,398.98,95.995s383.979-61.497,511.475-76.496
		s200.989-4.499,227.988,13.5S1502.676,216.948,1502.676,216.948z"/>
	<path fill="#606049" d="M641.498,227.967c5.667-2.833,10.664-5.368,14.077-7.108c-18.28-2.143-37.048-4.983-56.083-8.639
		c-0.253,0.115-90.871,41.482-107.4,67.196c-15.75,24.5,21,61.25,21,61.25l888.656-0.699l-491.5-12
		c-71.774-2.942-231.269,0.052-295.656-35.719C580.625,273.379,618.748,238.467,641.498,227.967z"/>
	<g>
		<polyline fill="#5F7D43" points="56.592,312.203 89.367,203.119 127.527,312.203 		"/>
		<g>
			<polygon opacity="0.15" fill="#E8E8E8" enable-background="new    " points="55.602,311.729 125.99,311.729 88.6,204.811 			"/>
			<polygon opacity="0.15" fill="#E8E8E8" enable-background="new    " points="56.689,310.449 89.697,248.375 127.088,310.449 
				89.697,203.49 			"/>
		</g>
	</g>
	<g>
		<polyline fill="#5F7D43" points="1225.299,163.131 1248.336,86.451 1275.16,163.131 		"/>
		<g>
			<polygon opacity="0.15" fill="#E8E8E8" enable-background="new    " points="1224.602,162.797 1274.082,162.797 1247.797,87.641 
							"/>
			<polygon opacity="0.15" fill="#E8E8E8" enable-background="new    " points="1225.367,161.9 1248.57,118.264 1274.85,161.9 
				1248.57,86.713 			"/>
		</g>
	</g>
	<g>
		<polyline fill="#5F7D43" points="1190.299,198.131 1213.336,121.451 1240.16,198.131 		"/>
		<g>
			<polygon opacity="0.15" fill="#E8E8E8" enable-background="new    " points="1189.602,197.797 1239.082,197.797 
				1212.797,122.641 			"/>
			<polygon opacity="0.15" fill="#E8E8E8" enable-background="new    " points="1190.367,196.9 1213.57,153.264 1239.85,196.9 
				1213.57,121.713 			"/>
		</g>
	</g>
	<g>
		<polyline fill="#5F7D43" points="2359.301,275.131 2382.336,198.451 2409.16,275.131 		"/>
		<g>
			<polygon opacity="0.15" fill="#E8E8E8" enable-background="new    " points="2358.602,274.797 2408.082,274.797 
				2381.797,199.641 			"/>
			<polygon opacity="0.15" fill="#E8E8E8" enable-background="new    " points="2359.367,273.9 2382.57,230.264 2408.85,273.9 
				2382.57,198.713 			"/>
		</g>
	</g>
	<g>
		<polyline fill="#5F7D43" points="114.633,279.799 137.672,203.119 164.496,279.799 		"/>
		<g>
			<polygon opacity="0.15" fill="#E8E8E8" enable-background="new    " points="113.938,279.463 163.416,279.463 137.131,204.309 
							"/>
			<polygon opacity="0.15" fill="#E8E8E8" enable-background="new    " points="114.701,278.566 137.904,234.932 164.184,278.566 
				137.904,203.381 			"/>
		</g>
	</g>
	<g>
		<polyline fill="#5F7D43" points="263.965,331.131 287.004,254.451 313.828,331.131 		"/>
		<g>
			<polygon opacity="0.15" fill="#E8E8E8" enable-background="new    " points="263.27,330.797 312.748,330.797 286.465,255.641 			
				"/>
			<polygon opacity="0.15" fill="#E8E8E8" enable-background="new    " points="264.033,329.9 287.236,286.264 313.518,329.9 
				287.236,254.713 			"/>
		</g>
	</g>
	<g>
		<polyline fill="#5F7D43" points="1309.152,226.131 1327.281,165.783 1348.391,226.131 		"/>
		<g>
			<polygon opacity="0.15" fill="#E8E8E8" enable-background="new    " points="1308.602,225.869 1347.543,225.869 
				1326.857,166.721 			"/>
			<polygon opacity="0.15" fill="#E8E8E8" enable-background="new    " points="1309.203,225.162 1327.463,190.82 1348.148,225.162 
				1327.463,165.99 			"/>
		</g>
	</g>
	<g>
		<polyline fill="#5F7D43" points="2321.818,300.799 2339.947,240.451 2361.057,300.799 		"/>
		<g>
			<polygon opacity="0.15" fill="#E8E8E8" enable-background="new    " points="2321.268,300.535 2360.209,300.535 
				2339.523,241.389 			"/>
			<polygon opacity="0.15" fill="#E8E8E8" enable-background="new    " points="2321.869,299.83 2340.129,265.49 2360.814,299.83 
				2340.129,240.656 			"/>
		</g>
	</g>
	<polygon fill="#B3966D" points="286.422,114.045 309.023,100.186 358.756,100.186 358.756,164.061 286.422,164.061 	"/>
	<polygon fill="#606049" points="339.793,117.979 319.668,100.916 301.293,117.979 282.334,117.979 296.336,81.198 370.367,81.198 
		380.918,117.979 	"/>
	<polygon fill="#917757" points="355.693,117.979 366.773,87.354 375.086,117.979 375.086,164.061 355.693,164.061 	"/>
	<rect x="340.08" y="133.438" fill="#606049" width="11.658" height="16.916"/>
	<rect x="360.609" y="133.438" fill="#606049" width="9.688" height="16.916"/>
	<polygon fill="#FEEA9E" points="55.205,33.084 105.928,32.953 105.969,59.043 55.078,59.043 	"/>
	<polygon fill="#606049" points="52.58,40.412 58.258,15.877 100.969,15.877 108.693,40.412 	"/>
	<polygon fill="#E1BF23" points="105.969,59.043 105.969,39.73 99.605,17.92 93.699,39.959 93.699,59.043 	"/>
	<rect x="79.156" y="42.912" fill="#606049" width="10.672" height="12.041"/>
	<rect x="100.283" y="42.912" fill="#606049" width="3.404" height="16.131"/>
	<rect x="56.891" y="42.912" fill="#606049" width="6.357" height="12.041"/>
	<polygon fill="#606049" points="182.502,77.885 113.824,77.885 132.918,47.988 165.555,47.988 	"/>
	<polygon fill="#E8E8E8" points="187.244,110.152 187.244,76.85 176.883,59.529 171.994,65.246 164.891,52.873 148.016,77.738 
		118.711,77.738 118.711,110.152 	"/>
	<rect x="118.266" y="77.295" fill="#FFFFFF" width="29.75" height="32.416"/>
	<polygon fill="#606049" points="155.568,77.291 165.043,77.291 178.363,58.051 168.301,58.051 	"/>
	<polygon fill="#606049" points="190.801,77.291 188.133,77.291 174.811,58.051 178.068,58.051 	"/>
	<rect x="157.938" y="76.701" fill="#FFFFFF" width="7.398" height="33.151"/>
	<polygon fill="#E8E8E8" points="156.547,53.732 145.096,71.951 120.809,71.869 133.242,53.816 	"/>
	<polygon fill="#414042" points="154.928,54.596 144.6,71.104 122.564,71.025 133.805,54.672 	"/>
	<polygon fill="#E8E8E8" points="144.842,54.127 133.748,71.615 132.596,71.686 143.785,54.123 	"/>
	<g>
		<rect x="206.334" y="144.377" fill="#8FD6E7" width="62.758" height="60.391"/>
		<polygon fill="#606049" points="202.191,144.963 298.104,144.963 286.459,104.111 219.139,104.111 		"/>
		<polygon fill="#00B6D2" points="269.092,204.768 292.182,204.768 292.182,144.713 282.119,107.076 269.092,144.377 		"/>
		<rect x="275.902" y="176.35" fill="#606049" width="8.883" height="28.418"/>
		<rect x="235.641" y="177.242" fill="#606049" width="24.572" height="18.051"/>
		<rect x="248.369" y="148.229" fill="#606049" width="11.844" height="18.049"/>
		<rect x="273.234" y="148.229" fill="#606049" width="14.805" height="18.049"/>
		<rect x="219.652" y="148.229" fill="#606049" width="11.842" height="18.049"/>
		<polygon fill="#E8E8E8" points="271.314,111.293 263.32,136.158 216.475,136.158 225.799,111.516 		"/>
		<polygon fill="#414042" points="269.533,112.475 262.363,135.004 218.488,135.004 226.906,112.684 		"/>
		<polygon fill="#E8E8E8" points="256.316,111.869 248.512,135.74 247.043,135.832 254.938,111.869 		"/>
		<polygon fill="#E8E8E8" points="240.982,111.869 233.178,135.74 231.711,135.832 239.605,111.869 		"/>
	</g>
	<polygon fill="#EBCC2D" points="1651.602,217.994 1644.422,197.748 1643.174,182.17 1610.002,181.998 1601.252,204.166 
		1584.336,209.998 1586.086,225.748 1597.172,232.748 1617.586,231.584 	"/>
	<polygon fill="#606049" points="1584.336,209.998 1606.561,210.354 1606.297,217.201 1584.336,215.248 	"/>
	<polygon fill="#606049" points="1624.586,191.334 1622.84,204.748 1605.275,203.842 1609.195,191.475 	"/>
	<polygon fill="#606049" points="1639.223,201.398 1639.223,187.982 1628.672,190.166 1626.34,204.166 	"/>
	<path fill="#606049" d="M1618.131,223.301c0,0,12.83-7,17.5-7.582c4.668-0.582,10.682-0.908,14.766-0.908s8.75,2.918,8.75,8.168
		s-2.916,8.75-8.166,10.5s-17.098,4.988-21.182,5.572c-4.084,0.586-11.08-0.58-12.25-4.664
		C1616.381,230.301,1618.131,223.301,1618.131,223.301z"/>
	<polygon fill="#E1BF23" points="1623.154,214.043 1622.365,241.963 1559.252,239.166 1559.836,212.916 	"/>
	<g>
		<line fill="none" stroke="#DFD5C0" stroke-width="3.5" x1="1514.801" y1="163.916" x2="1430.412" y2="163.916"/>
		<line fill="none" stroke="#DFD5C0" stroke-width="3.5" x1="1514.801" y1="204.166" x2="1430.662" y2="204.166"/>
		<line fill="none" stroke="#DFD5C0" stroke-width="3.5" x1="1432.094" y1="163.332" x2="1432.094" y2="202.998"/>
		<line fill="none" stroke="#DFD5C0" stroke-width="3.5" x1="1446.094" y1="163.332" x2="1446.094" y2="202.998"/>
		<line fill="none" stroke="#DFD5C0" stroke-width="3.5" x1="1466.51" y1="163.332" x2="1466.51" y2="202.998"/>
		<line fill="none" stroke="#DFD5C0" stroke-width="3.5" x1="1484.594" y1="163.332" x2="1484.594" y2="202.998"/>
		<line fill="none" stroke="#DFD5C0" stroke-width="3.5" x1="1500.926" y1="163.332" x2="1500.926" y2="202.998"/>
		<line fill="none" stroke="#DFD5C0" stroke-width="3.5" x1="1484.594" y1="191.332" x2="1500.344" y2="191.332"/>
		<line fill="none" stroke="#DFD5C0" stroke-width="3.5" x1="1484.594" y1="173.832" x2="1500.344" y2="173.832"/>
		<line fill="none" stroke="#DFD5C0" stroke-width="3.5" x1="1466.51" y1="192.498" x2="1446.678" y2="192.498"/>
		<line fill="none" stroke="#DFD5C0" stroke-width="3.5" x1="1465.928" y1="172.666" x2="1447.26" y2="172.666"/>
		<line fill="none" stroke="#DFD5C0" stroke-width="3.5" x1="1513.178" y1="163.332" x2="1513.178" y2="202.998"/>
	</g>
	<line fill="none" stroke="#B3966D" stroke-width="3.5" x1="1788.506" y1="193.084" x2="1774.506" y2="193.084"/>
	<g>
		<polygon fill="#77776F" points="1082.862,258.822 1113.064,258.899 1113.112,238.946 1082.862,238.946 		"/>
		<polyline fill="#D8D8D8" points="883.861,258.939 896.612,238.939 1113.112,238.939 1100.361,258.939 		"/>
		<polyline opacity="0.4" fill="#F5F5F5" enable-background="new    " points="883.861,258.939 1100.361,258.939 1113.112,238.939 
					"/>
		<g>
			<g>
				<g>
					<defs>
						<polyline id="SVGID_1_" points="883.861,258.939 896.612,238.939 1113.112,238.939 1100.361,258.939 						"/>
					</defs>
					<clipPath id="SVGID_2_">
						<use xlink:href="#SVGID_1_"  overflow="visible"/>
					</clipPath>
					<line clip-path="url(#SVGID_2_)" fill="none" stroke="#757574" x1="911.092" y1="259.697" x2="931.342" y2="225.446"/>
				</g>
			</g>
			<g>
				<g>
					<defs>
						<polyline id="SVGID_3_" points="883.861,258.939 896.612,238.939 1113.112,238.939 1100.361,258.939 						"/>
					</defs>
					<clipPath id="SVGID_4_">
						<use xlink:href="#SVGID_3_"  overflow="visible"/>
					</clipPath>
					<line clip-path="url(#SVGID_4_)" fill="none" stroke="#757574" x1="950.623" y1="259.697" x2="970.873" y2="225.446"/>
				</g>
			</g>
			<g>
				<g>
					<defs>
						<polyline id="SVGID_5_" points="883.861,258.939 896.612,238.939 1113.112,238.939 1100.361,258.939 						"/>
					</defs>
					<clipPath id="SVGID_6_">
						<use xlink:href="#SVGID_5_"  overflow="visible"/>
					</clipPath>
					<line clip-path="url(#SVGID_6_)" fill="none" stroke="#757574" x1="990.153" y1="259.697" x2="1010.403" y2="225.446"/>
				</g>
			</g>
			<g>
				<g>
					<defs>
						<polyline id="SVGID_7_" points="883.861,258.939 896.612,238.939 1113.112,238.939 1100.361,258.939 						"/>
					</defs>
					<clipPath id="SVGID_8_">
						<use xlink:href="#SVGID_7_"  overflow="visible"/>
					</clipPath>
					<line clip-path="url(#SVGID_8_)" fill="none" stroke="#757574" x1="1029.684" y1="259.697" x2="1049.934" y2="225.446"/>
				</g>
			</g>
			<g>
				<g>
					<defs>
						<polyline id="SVGID_9_" points="883.861,258.939 896.612,238.939 1113.112,238.939 1100.361,258.939 						"/>
					</defs>
					<clipPath id="SVGID_10_">
						<use xlink:href="#SVGID_9_"  overflow="visible"/>
					</clipPath>
					<line clip-path="url(#SVGID_10_)" fill="none" stroke="#757574" x1="1069.215" y1="259.697" x2="1089.465" y2="225.446"/>
				</g>
			</g>
		</g>
	</g>
	<g>
		<polygon fill="#77776F" points="1012.814,282.331 1043.018,282.409 1043.064,262.456 1012.814,262.456 		"/>
		<polyline fill="#D8D8D8" points="813.814,282.449 826.565,262.449 1043.064,262.449 1030.314,282.449 		"/>
		<polyline opacity="0.4" fill="#F5F5F5" enable-background="new    " points="813.814,282.449 1030.314,282.449 1043.064,262.449 
					"/>
		<g>
			<g>
				<g>
					<defs>
						<polyline id="SVGID_11_" points="813.814,282.449 826.565,262.449 1043.064,262.449 1030.314,282.449 						"/>
					</defs>
					<clipPath id="SVGID_12_">
						<use xlink:href="#SVGID_11_"  overflow="visible"/>
					</clipPath>
					<line clip-path="url(#SVGID_12_)" fill="none" stroke="#757574" x1="841.044" y1="283.206" x2="861.294" y2="248.956"/>
				</g>
			</g>
			<g>
				<g>
					<defs>
						<polyline id="SVGID_13_" points="813.814,282.449 826.565,262.449 1043.064,262.449 1030.314,282.449 						"/>
					</defs>
					<clipPath id="SVGID_14_">
						<use xlink:href="#SVGID_13_"  overflow="visible"/>
					</clipPath>
					<line clip-path="url(#SVGID_14_)" fill="none" stroke="#757574" x1="880.575" y1="283.206" x2="900.825" y2="248.956"/>
				</g>
			</g>
			<g>
				<g>
					<defs>
						<polyline id="SVGID_15_" points="813.814,282.449 826.565,262.449 1043.064,262.449 1030.314,282.449 						"/>
					</defs>
					<clipPath id="SVGID_16_">
						<use xlink:href="#SVGID_15_"  overflow="visible"/>
					</clipPath>
					<line clip-path="url(#SVGID_16_)" fill="none" stroke="#757574" x1="920.106" y1="283.206" x2="940.355" y2="248.956"/>
				</g>
			</g>
			<g>
				<g>
					<defs>
						<polyline id="SVGID_17_" points="813.814,282.449 826.565,262.449 1043.064,262.449 1030.314,282.449 						"/>
					</defs>
					<clipPath id="SVGID_18_">
						<use xlink:href="#SVGID_17_"  overflow="visible"/>
					</clipPath>
					<line clip-path="url(#SVGID_18_)" fill="none" stroke="#757574" x1="959.637" y1="283.206" x2="979.887" y2="248.956"/>
				</g>
			</g>
			<g>
				<g>
					<defs>
						<polyline id="SVGID_19_" points="813.814,282.449 826.565,262.449 1043.064,262.449 1030.314,282.449 						"/>
					</defs>
					<clipPath id="SVGID_20_">
						<use xlink:href="#SVGID_19_"  overflow="visible"/>
					</clipPath>
					<line clip-path="url(#SVGID_20_)" fill="none" stroke="#757574" x1="999.167" y1="283.206" x2="1019.417" y2="248.956"/>
				</g>
			</g>
		</g>
	</g>
	<g>
		<polygon fill="#77776F" points="942.766,305.842 972.969,305.92 973.016,285.967 942.766,285.967 		"/>
		<polyline fill="#D8D8D8" points="743.765,305.96 756.516,285.96 973.016,285.96 960.265,305.96 		"/>
		<polyline opacity="0.4" fill="#F5F5F5" enable-background="new    " points="743.765,305.96 960.265,305.96 973.016,285.96 		"/>
		<g>
			<g>
				<g>
					<defs>
						<polyline id="SVGID_21_" points="743.765,305.96 756.516,285.96 973.016,285.96 960.265,305.96 						"/>
					</defs>
					<clipPath id="SVGID_22_">
						<use xlink:href="#SVGID_21_"  overflow="visible"/>
					</clipPath>
					<line clip-path="url(#SVGID_22_)" fill="none" stroke="#757574" x1="770.995" y1="306.717" x2="791.245" y2="272.467"/>
				</g>
			</g>
			<g>
				<g>
					<defs>
						<polyline id="SVGID_23_" points="743.765,305.96 756.516,285.96 973.016,285.96 960.265,305.96 						"/>
					</defs>
					<clipPath id="SVGID_24_">
						<use xlink:href="#SVGID_23_"  overflow="visible"/>
					</clipPath>
					<line clip-path="url(#SVGID_24_)" fill="none" stroke="#757574" x1="810.526" y1="306.717" x2="830.776" y2="272.467"/>
				</g>
			</g>
			<g>
				<g>
					<defs>
						<polyline id="SVGID_25_" points="743.765,305.96 756.516,285.96 973.016,285.96 960.265,305.96 						"/>
					</defs>
					<clipPath id="SVGID_26_">
						<use xlink:href="#SVGID_25_"  overflow="visible"/>
					</clipPath>
					<line clip-path="url(#SVGID_26_)" fill="none" stroke="#757574" x1="850.057" y1="306.717" x2="870.307" y2="272.467"/>
				</g>
			</g>
			<g>
				<g>
					<defs>
						<polyline id="SVGID_27_" points="743.765,305.96 756.516,285.96 973.016,285.96 960.265,305.96 						"/>
					</defs>
					<clipPath id="SVGID_28_">
						<use xlink:href="#SVGID_27_"  overflow="visible"/>
					</clipPath>
					<line clip-path="url(#SVGID_28_)" fill="none" stroke="#757574" x1="889.587" y1="306.717" x2="909.837" y2="272.467"/>
				</g>
			</g>
			<g>
				<g>
					<defs>
						<polyline id="SVGID_29_" points="743.765,305.96 756.516,285.96 973.016,285.96 960.265,305.96 						"/>
					</defs>
					<clipPath id="SVGID_30_">
						<use xlink:href="#SVGID_29_"  overflow="visible"/>
					</clipPath>
					<line clip-path="url(#SVGID_30_)" fill="none" stroke="#757574" x1="929.118" y1="306.717" x2="949.368" y2="272.467"/>
				</g>
			</g>
		</g>
	</g>
	<g id="houses">
	</g>
	<g>
		<polygon fill="#AEB1AC" points="405.807,192.994 405.639,192.994 405.639,193.131 405.679,193.131 		"/>
		<rect x="405.639" y="195.811" fill="#AEB1AC" width="4.061" height="36.652"/>
		<path fill="#AEB1AC" d="M439.635,195.811v36.652h8.585v-36.652H439.635z M441.528,228.927v-22.984h4.86v22.984H441.528z"/>
		<path fill="#AEB1AC" d="M435.38,232.463v-36.652h-8.586v36.652H435.38z M433.614,205.943v22.984h-4.861v-22.984H433.614z"/>
		<path fill="#AEB1AC" d="M452.475,232.463h8.586v-36.652h-8.586V232.463z M459.165,205.943v22.984h-4.862v-22.984H459.165z"/>
		<path fill="#AEB1AC" d="M422.539,195.811h-8.586v36.652h8.586V195.811z M415.978,228.927v-22.984h4.862v22.984H415.978z"/>
		<path fill="#6D736D" d="M486.366,232.463V214.64h0.035c0.184-2.615,2.614-4.694,5.615-4.694s5.433,2.079,5.616,4.694h0.035v17.823
			h2.651v-36.54h-16.237v36.54H486.366z"/>
		<rect x="477.026" y="195.923" fill="#6D736D" width="2.801" height="36.54"/>
		<rect x="504.574" y="195.923" fill="#6D736D" width="2.666" height="36.54"/>
		<polygon fill="#6D736D" points="472.771,195.923 469.662,195.923 469.662,232.463 472.304,232.463 472.771,232.463 		"/>
		<polygon fill="#6D736D" points="513.774,195.923 511.495,195.923 511.495,232.463 513.807,232.463 513.807,192.994 
			513.774,192.994 		"/>
		<path fill="#414042" d="M497.633,214.64c-0.184-2.615-2.615-4.694-5.616-4.694s-5.432,2.079-5.615,4.694h-0.035v17.823h11.302
			V214.64H497.633z"/>
		<rect x="454.303" y="205.943" fill="#B2DBDB" width="4.862" height="22.984"/>
		<rect x="441.528" y="205.943" fill="#B2DBDB" width="4.86" height="22.984"/>
		<rect x="428.753" y="205.943" fill="#B2DBDB" width="4.861" height="22.984"/>
		<rect x="415.978" y="205.943" fill="#B2DBDB" width="4.862" height="22.984"/>
		<path fill="#AEB1AC" d="M469.662,192.945v0.051v0.124l-0.012,0.013h0.012v2.68h-4.346v36.652h4.346v-36.54h3.109v36.54h-0.468
			v2.68h45.447v-2.68h-3.944h-2.312v-36.54h2.279v-2.929v-0.051h-0.245l-24.704-20.34h-0.05l-18.952,20.34H469.662L469.662,192.945z
			 M490.671,180.476c2.204,0,3.989,2,3.989,4.467c0,2.468-1.786,4.467-3.989,4.467s-3.989-1.999-3.989-4.467
			C486.682,182.476,488.468,180.476,490.671,180.476z M500.319,195.923v36.54h-2.651h-11.302h-2.284v-36.54H500.319z
			 M477.026,195.923h2.801v36.54h-2.801V195.923z M507.24,232.463h-2.666v-36.54h2.666V232.463z"/>
		<path fill="#DADCD7" d="M473.757,235.444h43.995v-0.301h-45.447v-2.68h-2.642h-4.346v-36.652h4.346v-2.68h-0.012l0.012-0.013
			v-0.124v-0.051h0.161l18.952-20.34h-62.244h-1.729l-18.997,20.391l-0.128,0.137h-0.04h-0.333v2.68h0.333h4.061v36.652h-4.061
			h-0.333v2.979v0.443v2.236h68.451V235.444L473.757,235.444z M439.635,232.463v-36.652h8.585v36.652H439.635z M435.38,195.811
			v36.652h-8.586v-36.652H435.38z M461.061,232.463h-8.586v-36.652h8.586V232.463z M413.953,195.811h8.586v36.652h-8.586V195.811z"
			/>
		<polygon fill="#AEB1AC" points="517.751,235.444 473.757,235.444 473.757,238.123 520.189,238.123 520.189,235.444 		"/>
		<ellipse fill="#414042" cx="490.671" cy="184.942" rx="3.989" ry="4.466"/>
	</g>
</g>
<g id="crane_swing_thing" display="none">
	<line display="inline" fill="none" stroke="#B3966D" stroke-width="3.5" x1="1830.848" y1="99.395" x2="1776.543" y2="119.291"/>
	<line display="inline" fill="none" stroke="#B3966D" stroke-width="3.5" x1="1864.682" y1="131.479" x2="1829.682" y2="98.811"/>
	<line display="inline" fill="none" stroke="#B3966D" stroke-width="3.5" x1="1775.432" y1="119.229" x2="1864.627" y2="131.25"/>
	<line display="inline" fill="none" stroke="#B3966D" stroke-width="3.5" x1="1818.016" y1="104.645" x2="1816.266" y2="125.061"/>
	<line display="inline" fill="none" stroke="#B3966D" stroke-width="3.5" x1="1808.627" y1="107.334" x2="1806.932" y2="123.311"/>
	<line display="inline" fill="none" stroke="#B3966D" stroke-width="3.5" x1="1830.266" y1="101.729" x2="1828.459" y2="125.709"/>
	<line display="inline" fill="none" stroke="#B3966D" stroke-width="3.5" x1="1841.293" y1="110.25" x2="1840.182" y2="127.395"/>
	<rect x="1828.76" y="7" display="inline" fill="#606049" width="2.854" height="95.635"/>
	<line display="inline" fill="none" stroke="#B3966D" stroke-width="3.5" x1="1851.266" y1="119.811" x2="1850.682" y2="127.979"/>
</g>
</svg>
