<?xml version="1.0" encoding="utf-8"?>
<!-- Generator: Adobe Illustrator 15.0.2, SVG Export Plug-In . SVG Version: 6.00 Build 0)  -->
<!DOCTYPE svg PUBLIC "-//W3C//DTD SVG 1.1//EN" "http://www.w3.org/Graphics/SVG/1.1/DTD/svg11.dtd">
<svg version="1.1" id="lake" xmlns="http://www.w3.org/2000/svg" xmlns:xlink="http://www.w3.org/1999/xlink" x="0px" y="0px"
	 width="2520px" height="244.264px" viewBox="0 0 2520 244.264" enable-background="new 0 0 2520 244.264" xml:space="preserve">
<g>
	<path opacity="0.2" fill="#606049" enable-background="new    " d="M2521.464,250.93c0.914,0-2.667-118.667-2.667-118.667
		c-358-58-296.297-60.632-532.297-84.632c-186.676-18.984-609.604,19.706-812.703,13.197c-56.081-1.797-161-18.668-224-14
		s-121.334,21.002-161-2.332c-39.664-23.336-60.664-46.67-100.332-44.336c-39.668,2.336-42.002,14-74.668,21
		c-32.664,7-67.666,4.67-98,2.336c-30.332-2.336-160.998-25.67-186.664,4.664c-7.754,9.163-150.336,72.103-328.336-7.897
		L-11.87,262.93c-126.83,0,1662.96-8.799,1799.87-8.799C1789.966,254.132,2521.464,250.93,2521.464,250.93z"/>
	<path opacity="0.08" fill="#606049" enable-background="new    " d="M1.154,60.26L0.797,20.263
		c178,80,320.582,17.062,328.336,7.897c25.666-30.334,156.332-7,186.664-4.664c30.334,2.334,65.336,4.664,98-2.336
		c32.666-7,35-18.664,74.668-21c39.668-2.334,60.668,21,100.332,44.336c39.666,23.334,98,7,161,2.332s167.919,12.203,224,14
		c203.099,6.508,626.027-32.183,812.703-13.197c236,24,174.297,26.632,532.297,84.632c0,0,0.14,16.235,0.255,36
		c0,0,172.948-68.132-1.052-34.132s-472.5-74.5-580.5-80.5s-618,57-778,27s-132.703-16.368-222.703-16.368s-132,12-152,0
		s-52-46-70-50s-62-2-90,12s-76,18-104,16s-152-18-178-10s-50,28-112,44s-192-8-192-8L1.154,60.26z"/>
	<path fill="#006796" d="M1045.465,129.664c24.666,17.935,333.416,108.185-316.051,114.185
		c-366.116,3.382-290.985-95.996-278.949-114.185c15.292-23.104,133.195-50.166,297.5-50.166S1023.055,113.37,1045.465,129.664z"/>
</g>
</svg>
