<?xml version="1.0" encoding="utf-8"?>
<!-- Generator: Adobe Illustrator 15.1.0, SVG Export Plug-In . SVG Version: 6.00 Build 0)  -->
<!DOCTYPE svg PUBLIC "-//W3C//DTD SVG 1.1//EN" "http://www.w3.org/Graphics/SVG/1.1/DTD/svg11.dtd">
<svg version="1.1" xmlns="http://www.w3.org/2000/svg" xmlns:xlink="http://www.w3.org/1999/xlink" x="0px" y="0px" width="214px"
	 height="36.25px" viewBox="-133 0 214 36.25" enable-background="new -133 0 214 36.25" xml:space="preserve">
<g id="Layer_2">
</g>
<g id="Layer_1">
	<path opacity="0.7" fill="#C6CDC7" enable-background="new    " d="M11.018,8.367l5.257,6.791l22.08-1.146L28.639,0.18L32.393,0
		l14.91,13.285l20.508,1.078c0,0,6.513,0.491,5.806,3.711c-0.71,3.226-7.226,2.73-7.226,2.73l-18.724-0.01L34.299,34.766
		l-2.639-0.201l7.458-14.099l-22.142-0.11l-6.529,7.932L7.33,28.357l4.2-10.284L8.204,8.465L11.018,8.367z"/>
	<path fill="#FFFFFF" d="M4.476,17.712c-30-8.202-25.294-5.73-51.226-3.212c-25.438,2.471-67.569,2.022-74.75,3.88
		c10.563,2.535,49.786,1.228,81.25,3.37C-14.333,23.515-2.5,20,4.476,17.712z"/>
</g>
</svg>
