<?xml version="1.0" encoding="utf-8"?>
<!-- Generator: Adobe Illustrator 15.1.0, SVG Export Plug-In . SVG Version: 6.00 Build 0)  -->
<!DOCTYPE svg PUBLIC "-//W3C//DTD SVG 1.1//EN" "http://www.w3.org/Graphics/SVG/1.1/DTD/svg11.dtd">
<svg version="1.1" id="Layer_1" xmlns="http://www.w3.org/2000/svg" xmlns:xlink="http://www.w3.org/1999/xlink" x="0px" y="0px"
	 width="59.664px" height="165.904px" viewBox="0 0 59.664 165.904" enable-background="new 0 0 59.664 165.904"
	 xml:space="preserve">
<g id="sky">
</g>
<g id="background">
</g>
<g id="river">
</g>
<g id="factory">
</g>
<path fill="#FFFFFF" d="M26.244,47.965c0,0,29.744-1.705,31.449-2.048c1.709-0.343,3.076-2.736,0.684-3.079
	c-2.391-0.34-28.714-1.028-31.107-1.371c-2.391-0.34-5.812,1.034-5.812,3.422C21.457,47.282,26.244,47.965,26.244,47.965z"/>
<polygon fill="#FFFFFF" points="29.294,165.905 32.395,43.866 35.811,43.866 38.688,165.905 "/>
<path opacity="0.4" fill="#414042" enable-background="new    " d="M23.03,46.646c0,0,2.153,1.213,3.214,1.318
	c1.055,0.107,6.176-0.182,6.176-0.182v1.711h1.998l1.134,116.41h3.136L36.126,47.218l21.567-1.301c0,0,1.199,0.164,1.771-0.974
	c0.568-1.143-2.562-0.286-2.562-0.286l-31.88,1.424h-3.416L23.03,46.646z"/>
<g id="houses">
</g>
<g id="cars">
</g>
</svg>
