<?xml version="1.0" encoding="utf-8"?>
<!-- Generator: Adobe Illustrator 15.0.2, SVG Export Plug-In . SVG Version: 6.00 Build 0)  -->
<!DOCTYPE svg PUBLIC "-//W3C//DTD SVG 1.1//EN" "http://www.w3.org/Graphics/SVG/1.1/DTD/svg11.dtd">
<svg version="1.1" id="Layer_1" xmlns="http://www.w3.org/2000/svg" xmlns:xlink="http://www.w3.org/1999/xlink" x="0px" y="0px"
	 width="140px" height="140px" viewBox="70 70 140 140" enable-background="new 70 70 140 140" xml:space="preserve">
<g>
	<circle fill="#3E91B4" cx="134.917" cy="139.167" r="56.333"/>
	<circle fill="none" cx="134.917" cy="139.167" r="56.333"/>
	<path fill="#DADCD7" d="M186.764,138.554l0.008-0.013l-76.675-49.956c-18.665,9.177-31.512,28.377-31.512,50.581
		c0,0.792,0.021,1.58,0.053,2.365l72.521,49.736c0.334,0.237,0.671,0.471,1.014,0.694l0.662,0.454l0.014-0.021
		c4.865,3.021,10.6,4.771,16.736,4.771c17.553,0,31.833-14.28,31.833-31.833C201.417,154.105,195.568,144.223,186.764,138.554z
		 M169.584,195.166c-5.746,0-11.113-1.637-15.672-4.461l31.785-50.459c8.244,5.314,13.719,14.57,13.719,25.087
		C199.417,181.783,186.034,195.166,169.584,195.166z"/>
	<path opacity="0.5" fill="#6D736D" enable-background="new    " d="M78.583,139.167c0,0.273,0.006,0.543,0.01,0.815l77.99,49.185
		l2-9l-79.281-50C78.831,133.098,78.583,136.103,78.583,139.167z"/>
	<circle fill="#6D736D" cx="169.584" cy="165.333" r="29.833"/>
	<g>
		<g>
			<g>
				<defs>
					<path id="SVGID_1_" d="M169.584,135.5c-16.451,0-29.834,13.383-29.834,29.833s13.383,29.833,29.834,29.833
						c16.449,0,29.833-13.383,29.833-29.833S186.034,135.5,169.584,135.5z"/>
				</defs>
				<clipPath id="SVGID_2_">
					<use xlink:href="#SVGID_1_"  overflow="visible"/>
				</clipPath>
				<circle clip-path="url(#SVGID_2_)" fill="#464646" cx="150.084" cy="150.833" r="32.75"/>
			</g>
		</g>
	</g>
	<path opacity="0.4" fill="#6D736D" enable-background="new    " d="M128.49,100.65l-3.06-1.993c-2.327-0.51-4.715-0.77-7.101-0.77
		c-18.274,0-33.142,14.868-33.142,33.142c0,6.966,2.152,13.64,6.226,19.302l2.444,1.676c-4.804-5.769-7.569-13.289-7.569-20.978
		c0-17.668,14.373-32.042,32.041-32.042C121.792,98.988,125.226,99.556,128.49,100.65z"/>
	<path opacity="0.4" fill="#6D736D" enable-background="new    " d="M148.416,113.63l-3.107-2.025
		c-2.346-0.514-4.752-0.775-7.157-0.775c-18.416,0-33.398,14.983-33.398,33.398c0,7.021,2.169,13.744,6.275,19.453l2.486,1.703
		c-4.853-5.814-7.645-13.4-7.645-21.156c0-17.8,14.481-32.281,32.282-32.281C141.65,111.946,145.119,112.52,148.416,113.63z"/>
	<path opacity="0.4" fill="#6D736D" enable-background="new    " d="M168.419,126.523l-3.165-2.062
		c-2.371-0.521-4.806-0.784-7.236-0.784c-18.623,0-33.771,15.15-33.771,33.771c0,7.098,2.193,13.897,6.345,19.671l2.535,1.736
		c-4.915-5.881-7.744-13.559-7.744-21.406c0-17.996,14.641-32.637,32.636-32.637C161.561,124.813,165.078,125.396,168.419,126.523z"
		/>
</g>
</svg>
