<?xml version="1.0" encoding="utf-8"?>
<!-- Generator: Adobe Illustrator 15.0.2, SVG Export Plug-In . SVG Version: 6.00 Build 0)  -->
<!DOCTYPE svg PUBLIC "-//W3C//DTD SVG 1.1//EN" "http://www.w3.org/Graphics/SVG/1.1/DTD/svg11.dtd">
<svg version="1.1" id="Layer_1" xmlns="http://www.w3.org/2000/svg" xmlns:xlink="http://www.w3.org/1999/xlink" x="0px" y="0px"
	 width="140px" height="140px" viewBox="70 70 140 140" enable-background="new 70 70 140 140" xml:space="preserve">
<g>
	<circle fill="#3E91B4" cx="140" cy="140.235" r="56.333"/>
	<path fill="#3E91B4" d="M85.689,155.25c6.567,24,28.393,41.333,54.311,41.333s47.743-17.333,54.311-41.333H85.689z"/>
	<g>
		<g>
			<g>
				<defs>
					<circle id="SVGID_1_" cx="140" cy="140.735" r="56.333"/>
				</defs>
				<clipPath id="SVGID_2_">
					<use xlink:href="#SVGID_1_"  overflow="visible"/>
				</clipPath>
				<g clip-path="url(#SVGID_2_)">
					<polygon fill="#FFFFFF" points="225.342,244.076 79.281,244.076 79.281,194.546 122.933,194.546 122.933,145.859 
						180.014,145.859 180.014,194.549 224.734,194.549 					"/>
					<line fill="none" stroke="#808A94" stroke-width="1.7131" x1="127.555" y1="149.641" x2="127.555" y2="193.291"/>
					<line fill="none" stroke="#808A94" stroke-width="3.4262" x1="133.588" y1="149.641" x2="133.588" y2="193.291"/>
					<line fill="none" stroke="#808A94" stroke-width="3.4262" x1="139.619" y1="149.641" x2="139.619" y2="193.291"/>
					<line fill="none" stroke="#808A94" stroke-width="3.4262" x1="145.654" y1="149.641" x2="145.654" y2="193.291"/>
					<line fill="none" stroke="#808A94" stroke-width="3.4262" x1="151.688" y1="149.641" x2="151.688" y2="193.291"/>
					<line fill="none" stroke="#808A94" stroke-width="3.4262" x1="157.719" y1="149.641" x2="157.719" y2="193.291"/>
					<line fill="none" stroke="#808A94" stroke-width="3.4262" x1="163.755" y1="149.641" x2="163.755" y2="193.291"/>
					<line fill="none" stroke="#808A94" stroke-width="3.4262" x1="169.785" y1="149.641" x2="169.785" y2="193.291"/>
					<line fill="none" stroke="#808A94" stroke-width="1.7131" x1="175.818" y1="149.641" x2="175.818" y2="193.291"/>
					<rect x="144.344" y="126.135" fill="#FFFFFF" width="10.073" height="20.146"/>
					<path fill="#F6CB35" d="M149.38,106.41c-2.101,0-1.262,2.517-1.679,5.875c-0.419,3.358-0.84,3.777-0.84,6.295
						s1.26,7.555,1.26,7.555h2.939c0,0,2.094-4.617,1.676-7.555c-0.418-2.937-1.258-5.037-1.258-6.714
						C151.479,110.187,151.898,106.41,149.38,106.41z"/>
					<rect x="128.538" y="141.585" fill="#FFFFFF" width="44.378" height="4.242"/>
					<rect x="164.07" y="145.861" opacity="0.08" fill="#606049" enable-background="new    " width="15.949" height="41.973"/>
					<rect x="164.07" y="141.666" opacity="0.08" fill="#606049" enable-background="new    " width="8.395" height="3.777"/>
					<rect x="150.643" y="126.556" opacity="0.08" fill="#606049" enable-background="new    " width="3.674" height="14.953"/>
					<g>
						<g>
							<g>
								<defs>
									<path id="SVGID_3_" d="M149.38,106.41c-2.101,0-1.262,2.517-1.679,5.875c-0.419,3.358-0.84,3.777-0.84,6.295
										s1.26,7.555,1.26,7.555h2.939c0,0,2.094-4.617,1.676-7.555c-0.418-2.937-1.258-5.037-1.258-6.714
										C151.479,110.187,151.898,106.41,149.38,106.41z"/>
								</defs>
								<clipPath id="SVGID_4_">
									<use xlink:href="#SVGID_3_"  overflow="visible"/>
								</clipPath>
								<rect x="139.25" y="104.618" clip-path="url(#SVGID_4_)" fill="#EDDE37" width="10.375" height="24.5"/>
							</g>
						</g>
					</g>
					<g>
						<defs>
							<circle id="SVGID_5_" cx="140" cy="140.735" r="56.333"/>
						</defs>
						<clipPath id="SVGID_6_">
							<use xlink:href="#SVGID_5_"  overflow="visible"/>
						</clipPath>
						<path opacity="0.5" clip-path="url(#SVGID_6_)" fill="#6D736D" enable-background="new    " d="M87.17,143.236
							c0-31.111,25.222-56.333,56.334-56.333c13.146,0,25.242,4.504,34.827,12.054C168.275,89.617,154.807,83.901,140,83.901
							c-31.112,0-56.333,25.222-56.333,56.333c0,17.965,8.41,33.965,21.506,44.28C94.1,174.229,87.17,159.543,87.17,143.236z"/>
					</g>
				</g>
			</g>
		</g>
	</g>
</g>
</svg>
