<?xml version="1.0" encoding="utf-8"?>
<!-- Generator: Adobe Illustrator 15.0.2, SVG Export Plug-In . SVG Version: 6.00 Build 0)  -->
<!DOCTYPE svg PUBLIC "-//W3C//DTD SVG 1.1//EN" "http://www.w3.org/Graphics/SVG/1.1/DTD/svg11.dtd">
<svg version="1.1" id="Layer_1" xmlns="http://www.w3.org/2000/svg" xmlns:xlink="http://www.w3.org/1999/xlink" x="0px" y="0px"
	 width="140px" height="140px" viewBox="70 70 140 140" enable-background="new 70 70 140 140" xml:space="preserve">
<g>
	<circle fill="#3E91B4" cx="140" cy="140" r="56.334"/>
	<path fill="#FBAF40" d="M125.727,110.675l-0.25,14.75l6.5,18l5.5,4.625l2.375-6.125c0,0-3.375-9.125-3.375-9.625
		s-1.375-15.75-1.375-15.75l-1.375-6.25L125.727,110.675z"/>
	<path opacity="0.4" enable-background="new    " d="M135.139,175.941h-1.899l-1.9-1h-1.992c-1.35,0-2.94-0.373-4.408-0.814
		l-1.635-0.33c-1.21-0.363-1.621-0.719-2.052-1.072c0.037,0,0.001,0.004,0.039,0.004c4.902,0,7.368-0.401,7.323-1.188
		c-0.077-1.371-7.256-3.463-13.424-5.317c-0.841-0.248-1.706-0.539-2.464-0.769l-1.643-0.513h-6.963c-0.95,0-1.583,0-1.583,0H89.471
		c0.555,1,1.145,2.218,1.771,3.298c5.587,1.446,11.917,2.442,17.827,3.434c-3.314-0.078-6.559-0.356-9.819-0.853
		c-2.414-0.366-4.974-0.907-7.348-1.479c0.201,0.328,0.404,0.652,0.611,0.977c2.088,0.443,4.301,0.855,6.676,1.218
		c5.188,0.786,10.284,1.176,15.188,1.176c0.179,0,0.246-0.037,0.359-0.053c1.588,0.309,3.249,0.596,4.426,0.948l1.98,0.521
		c1.468,0.44,2.147,0.813,2.063,0.813h-1.992l1.899,1h-1.899l6.963,2h13.928L135.139,175.941z M109.177,167.531l-6.956-2.105
		L109.177,167.531c0.246,0.074,0.476,0.146,0.705,0.221C109.653,167.68,109.423,167.605,109.177,167.531z M117.232,171.826
		c-0.023-0.031-0.043-0.062-0.063-0.094c0.031,0.021,0.063,0.041,0.084,0.061C117.239,171.803,117.238,171.814,117.232,171.826z
		 M117.625,172.096c-0.04-0.015-0.068-0.029-0.102-0.043l0.211,0.062C117.711,172.107,117.632,172.104,117.625,172.096z
		 M120.158,171.625c-0.84-1.125-1.747-2.391-7.499-4.121c-1.656-0.498-3.474-1.062-5.057-1.562h3.54c0.32,0,0.424,0.168,0.672,0.24
		c5.352,1.582,11.857,3.58,11.918,4.642C123.759,171.281,122.56,171.525,120.158,171.625z"/>
	<g id="cup">
		<path fill="#F6CB35" d="M170.305,109.941h-11c0-1.5,0-2.5,0-2.5h-38c0,0,0,1,0,2.5h-11v2.581c0,1.196,0.156,2.696,0.131,4
			c0,9.744-0.375,20.697,6.706,27.901c4.058,4.132,10.053,6.224,17.797,6.224c0.059,0-0.047-0.029,0.009-0.031
			c1.173,1.854,2.357,3.707,2.357,5.617v2.584c0,2.317-0.674,4.127-1.806,5.127h-3.194v3h-3v11h22v-11h-3v-3h-3.1
			c-1.133-1-1.9-2.81-1.9-5.127v-3.129c0-1.857,0.93-3.576,1.813-5.201c0.259,0.08,0.456,0.16,0.737,0.16
			c7.75,0,13.709-2.097,17.772-6.229c7.097-7.217,6.576-18.394,6.69-27.98c-0.021-1.285-0.014-2.734-0.014-3.915V109.941
			L170.305,109.941z M126.805,112.441h5.5v10.973c0,5.877,2.5,14.267,5,20.588v3.43c0-0.037,0.111-0.074,0.085-0.111
			c-0.154-0.668-0.453-1.219-0.999-1.598c-0.207-0.304-0.332-0.604-0.542-0.912c-4.483-6.513-9.044-13.249-9.044-21.396V112.441z
			 M121.051,140.605c-5.48-5.577-5.454-15.819-5.311-24.13c0.008-0.383,0.013-0.535,0.019-1.035h5.546c0,2.5,0,5.356,0,7.973
			c0,9.086,5.149,15.645,9.729,21.551C126.717,144.443,123.416,143.012,121.051,140.605z M159.717,140.598
			c-2.553,2.596-6.24,4.06-11.066,4.469c4.787-6.038,10.654-11.865,10.654-21.609c0-2.617,0-5.516,0-8.016h5.582
			c0,0,0.059,2.965,0.059,8.071S163.723,136.524,159.717,140.598z"/>
		<path opacity="0.3" fill="#F6CB35" enable-background="new    " d="M137.305,144.002c-2.5-6.321-5-14.711-5-20.588v-10.973h-5.5
			v10.973c0,8.147,4.439,14.884,8.923,21.396c0.606,0.883,1.577,1.752,1.577,2.621V144.002L137.305,144.002z"/>
	</g>
	<path opacity="0.3" fill="#F5F5F5" enable-background="new    " d="M107.777,103.88l8.533,1.257l-1.446-4.961l4.139,3.093
		l1.607-8.975l1.671,9.046l4.271-2.909l-1.662,4.894l5.165,0.157l-4.22,2.981l8.74,4.789l-9.821-1.694l1.446,4.96l-4.14-3.092
		l-2.283,9.484l-0.994-9.557l-4.271,2.908l1.662-4.893l-5.164-0.158l4.22-2.981l-7.113-4.221"/>
	<path opacity="0.3" fill="#F5F5F5" enable-background="new    " d="M138.278,160.256l8.533,1.258l-1.445-4.961l4.14,3.094
		l1.606-8.977l1.671,9.047l4.271-2.908l-1.66,4.894l5.164,0.157l-4.22,2.98l8.738,4.789l-9.82-1.693l1.446,4.961l-4.141-3.094
		l-2.283,9.484l-0.992-9.557l-4.271,2.908l1.661-4.894l-5.163-0.156l4.221-2.981l-7.114-4.219"/>
</g>
</svg>
