<?xml version="1.0" encoding="utf-8"?>
<!-- Generator: Adobe Illustrator 15.0.2, SVG Export Plug-In . SVG Version: 6.00 Build 0)  -->
<!DOCTYPE svg PUBLIC "-//W3C//DTD SVG 1.1//EN" "http://www.w3.org/Graphics/SVG/1.1/DTD/svg11.dtd">
<svg version="1.1" id="Layer_1" xmlns="http://www.w3.org/2000/svg" xmlns:xlink="http://www.w3.org/1999/xlink" x="0px" y="0px"
	 width="140px" height="140px" viewBox="70 70 140 140" enable-background="new 70 70 140 140" xml:space="preserve">
<g>
	<circle fill="#3E91B4" cx="140" cy="140" r="56.334"/>
	<g>
		
			<rect x="122.581" y="149.275" transform="matrix(-0.54 0.8417 -0.8417 -0.54 332.7947 158.505)" opacity="0.2" enable-background="new    " width="1" height="41.847"/>
		<rect x="105.472" y="119.78" opacity="0.2" enable-background="new    " width="1" height="41.847"/>
		<rect x="173.971" y="119.78" opacity="0.2" enable-background="new    " width="1.002" height="41.847"/>
		
			<rect x="157.187" y="148.84" transform="matrix(0.5605 0.8281 -0.8281 0.5605 209.8801 -55.9812)" opacity="0.2" enable-background="new    " width="1" height="41.844"/>
		<g>
			<circle opacity="0.2" enable-background="new    " cx="106.5" cy="160.5" r="8.75"/>
			<circle fill="#DADCD7" cx="106" cy="159" r="8.75"/>
			<path opacity="0.3" fill="#FFFFFF" enable-background="new    " d="M99.75,162c0-4.832,3.917-8.75,8.75-8.75
				c1.995,0,3.828,0.676,5.3,1.8c-1.444-2.845-4.391-4.8-7.8-4.8c-4.833,0-8.75,3.918-8.75,8.75c0,2.838,1.356,5.352,3.45,6.951
				C100.097,164.764,99.75,163.423,99.75,162z"/>
		</g>
		<g>
			<circle opacity="0.2" enable-background="new    " cx="140.5" cy="181" r="8.75"/>
			<circle fill="#AFDBDC" cx="140" cy="179.5" r="8.75"/>
			<path opacity="0.3" fill="#FFFFFF" enable-background="new    " d="M133.75,182.5c0-4.832,3.917-8.75,8.75-8.75
				c1.995,0,3.828,0.676,5.301,1.8c-1.445-2.845-4.391-4.8-7.801-4.8c-4.833,0-8.75,3.918-8.75,8.75c0,2.838,1.356,5.352,3.45,6.951
				C134.097,185.264,133.75,183.923,133.75,182.5z"/>
		</g>
		<g>
			<circle opacity="0.2" enable-background="new    " cx="174.5" cy="160.5" r="8.75"/>
			<circle fill="#F5CC20" cx="174" cy="159" r="8.75"/>
			<path opacity="0.3" fill="#FFFFFF" enable-background="new    " d="M167.75,162c0-4.832,3.918-8.75,8.75-8.75
				c1.995,0,3.828,0.676,5.301,1.8c-1.445-2.845-4.391-4.8-7.801-4.8c-4.832,0-8.75,3.918-8.75,8.75
				c0,2.838,1.355,5.352,3.449,6.951C168.098,164.764,167.75,163.423,167.75,162z"/>
		</g>
		
			<rect x="122.19" y="88.832" transform="matrix(0.5611 0.8277 -0.8277 0.5611 144.6956 -53.3852)" opacity="0.2" enable-background="new    " width="1" height="41.843"/>
		
			<rect x="156.795" y="88.366" transform="matrix(-0.5409 0.8411 -0.8411 -0.5409 334.2961 36.1006)" opacity="0.2" enable-background="new    " width="1" height="41.846"/>
		<g>
			<circle opacity="0.2" enable-background="new    " cx="140.5" cy="100.5" r="8.75"/>
			<circle fill="#F36F27" cx="140" cy="99" r="8.75"/>
			<path opacity="0.3" fill="#FFFFFF" enable-background="new    " d="M133.75,102c0-4.832,3.917-8.75,8.75-8.75
				c1.995,0,3.828,0.675,5.301,1.8c-1.445-2.845-4.391-4.8-7.801-4.8c-4.833,0-8.75,3.918-8.75,8.75c0,2.838,1.356,5.352,3.45,6.951
				C134.097,104.763,133.75,103.423,133.75,102z"/>
		</g>
		<g>
			<circle opacity="0.2" enable-background="new    " cx="174.5" cy="123" r="8.75"/>
			<circle fill="#FCB134" cx="174" cy="121.5" r="8.75"/>
			<path opacity="0.3" fill="#FFFFFF" enable-background="new    " d="M167.75,124.5c0-4.832,3.918-8.75,8.75-8.75
				c1.995,0,3.828,0.676,5.301,1.8c-1.445-2.845-4.391-4.8-7.801-4.8c-4.832,0-8.75,3.918-8.75,8.75
				c0,2.838,1.355,5.352,3.449,6.951C168.098,127.263,167.75,125.923,167.75,124.5z"/>
		</g>
		<g>
			<circle opacity="0.2" enable-background="new    " cx="106" cy="123" r="8.75"/>
			<circle fill="#B9B617" cx="105.5" cy="121.5" r="8.75"/>
			<path opacity="0.3" fill="#FFFFFF" enable-background="new    " d="M99.25,124.5c0-4.832,3.917-8.75,8.75-8.75
				c1.995,0,3.828,0.676,5.3,1.8c-1.444-2.845-4.391-4.8-7.8-4.8c-4.833,0-8.75,3.918-8.75,8.75c0,2.838,1.356,5.352,3.45,6.951
				C99.597,127.263,99.25,125.923,99.25,124.5z"/>
		</g>
	</g>
</g>
</svg>
