<?xml version="1.0" encoding="utf-8"?>
<!-- Generator: Adobe Illustrator 15.0.2, SVG Export Plug-In . SVG Version: 6.00 Build 0)  -->
<!DOCTYPE svg PUBLIC "-//W3C//DTD SVG 1.1//EN" "http://www.w3.org/Graphics/SVG/1.1/DTD/svg11.dtd">
<svg version="1.1" id="Layer_1" xmlns="http://www.w3.org/2000/svg" xmlns:xlink="http://www.w3.org/1999/xlink" x="0px" y="0px"
	 width="140px" height="140px" viewBox="0 0 140 140" enable-background="new 0 0 140 140" xml:space="preserve">
<g>
	<circle fill="#3E91B4" cx="70" cy="73.26" r="56.333"/>
	<g>
		<g>
			<g>
				<g>
					<g>
						<defs>
							<circle id="SVGID_1_" cx="70" cy="72.885" r="56.333"/>
						</defs>
						<clipPath id="SVGID_2_">
							<use xlink:href="#SVGID_1_"  overflow="visible"/>
						</clipPath>
						<g clip-path="url(#SVGID_2_)">
							<path fill="#DADCD7" d="M69.169,26.124c-5.045,0-9.795,4.288-13.374,11.543C52.202,44.948,50.206,54.4,50.162,65.9h38.014
								c-0.045-11.5-2.04-20.952-5.633-28.233C78.966,30.413,74.216,26.124,69.169,26.124z"/>
							<rect x="24.489" y="67.402" fill="#DADCD7" width="88.5" height="6"/>
							<rect x="21.989" y="106.401" fill="#DADCD7" width="95" height="7.5"/>
							<rect x="20.489" y="115.401" fill="#DADCD7" width="97.5" height="16"/>
							<rect x="89.489" y="106.401" fill="#AEB1AC" width="30" height="7.5"/>
							<rect x="89.489" y="115.401" fill="#AEB1AC" width="28.5" height="16"/>
							<rect x="28.989" y="74.401" fill="#DADCD7" width="80.5" height="30.5"/>
							<rect x="89.489" y="74.401" fill="#AEB1AC" width="20" height="30.5"/>
							<g>
								<path fill="#02638C" d="M103.989,80.55c0-2.543-3.021-4.553-6.512-4.553c-3.492,0-6.488,2.01-6.488,4.553l0,0v20.35h13
									V80.55L103.989,80.55z"/>
								<path fill="#02638C" d="M84.489,80.55c0-2.543-3.021-4.553-6.512-4.553c-3.492,0-6.488,2.01-6.488,4.553l0,0v20.35h13V80.55
									L84.489,80.55z"/>
								<path fill="#02638C" d="M65.489,80.55c0-2.543-3.271-4.553-6.762-4.553s-6.238,2.01-6.738,4.553l0,0v20.35h13.5V80.55
									L65.489,80.55z"/>
								<path fill="#02638C" d="M45.989,80.55c0-2.543-3.271-4.553-6.762-4.553s-6.238,2.01-6.738,4.553l0,0v20.35h13.5V80.55
									L45.989,80.55z"/>
							</g>
							<g>
								<path fill="#3E91B4" d="M104.489,81.267c0-2.453-3.021-4.393-6.512-4.393c-3.492,0-6.488,1.938-6.488,4.393l0,0v19.637h13
									V81.267L104.489,81.267z"/>
								<path fill="#3E91B4" d="M84.989,81.267c0-2.453-3.021-4.393-6.512-4.393c-3.492,0-6.488,1.938-6.488,4.393l0,0v19.637h13
									V81.267L84.989,81.267z"/>
								<path fill="#3E91B4" d="M65.989,81.267c0-2.453-3.271-4.393-6.762-4.393s-6.238,1.938-6.738,4.393l0,0v19.637h13.5V81.267
									L65.989,81.267z"/>
								<path fill="#3E91B4" d="M46.489,81.267c0-2.453-3.271-4.393-6.762-4.393s-6.238,1.938-6.738,4.393l0,0v19.637h13.5V81.267
									L46.489,81.267z"/>
							</g>
							<g>
								<path fill="#DADCD7" d="M62.989,25.498c-19.5,2.677-34.579,19.404-34.579,40.404h20.125
									c0.044-11.5,1.968-21.232,5.708-28.812c2.484-5.039,6.246-8.847,8.746-10.71V25.498z"/>
							</g>
							<g>
								<path fill="#AEB1AC" d="M75.489,25.509v0.896c2.5,1.87,6.217,5.669,8.691,10.685c3.737,7.579,5.682,17.311,5.725,28.811
									h20.023C109.929,44.902,94.989,28.23,75.489,25.509z"/>
							</g>
						</g>
					</g>
				</g>
			</g>
		</g>
	</g>
	<g>
		<rect x="66.989" y="4.402" fill="#AEB1AC" width="3" height="21.5"/>
		<polygon fill="#02638C" points="94.989,23.902 86.257,23.902 79.257,19.902 66.989,19.902 66.989,4.402 79.257,4.402 
			86.257,9.402 94.989,9.402 		"/>
	</g>
	<rect x="64.489" y="25.402" fill="#DADCD7" width="8.5" height="2.5"/>
</g>
</svg>
