<?xml version="1.0" encoding="utf-8"?>
<!-- Generator: Adobe Illustrator 15.0.2, SVG Export Plug-In . SVG Version: 6.00 Build 0)  -->
<!DOCTYPE svg PUBLIC "-//W3C//DTD SVG 1.1//EN" "http://www.w3.org/Graphics/SVG/1.1/DTD/svg11.dtd">
<svg version="1.1" id="Layer_1" xmlns="http://www.w3.org/2000/svg" xmlns:xlink="http://www.w3.org/1999/xlink" x="0px" y="0px"
	 width="140px" height="140px" viewBox="0 0 140 140" enable-background="new 0 0 140 140" xml:space="preserve">
<g>
	<g>
		<circle fill="#3E91B4" cx="70" cy="74.21" r="56.334"/>
		<g>
			<g>
				<g>
					<g>
						<g>
							<defs>
								<circle id="SVGID_1_" cx="70" cy="74.21" r="56.334"/>
							</defs>
							<clipPath id="SVGID_2_">
								<use xlink:href="#SVGID_1_"  overflow="visible"/>
							</clipPath>
							<g clip-path="url(#SVGID_2_)">
								<path fill="#02638C" d="M43.462,20.96c-16.128,0-29.25,13.122-29.25,29.25c0,16.129,13.122,29.25,29.25,29.25
									c16.129,0,29.249-13.121,29.249-29.25C72.711,34.082,59.591,20.96,43.462,20.96z M43.579,70.249
									c-10.841-0.053-19.603-8.876-19.56-19.723c0.035-10.84,8.863-19.601,19.711-19.562c10.85,0.037,19.61,8.865,19.57,19.706
									C63.25,61.526,54.427,70.286,43.579,70.249z"/>
								<path fill="#02638C" d="M92.059,54.884c0.111-1.361,0.187-2.715,0.207-4.093c0-1.39-0.072-2.767-0.18-4.113l-8.604-2.181
									c-0.438-2.842-1.183-5.602-2.174-8.242l6.412-6.156c-1.168-2.492-2.531-4.873-4.086-7.107l-8.56,2.408
									c-1.779-2.213-3.784-4.24-5.987-6.041l2.467-8.543c-2.234-1.559-4.59-2.957-7.076-4.136l-6.205,6.38
									c-2.615-1.024-5.363-1.779-8.211-2.238l-2.135-8.624c-1.345-0.121-2.717-0.206-4.095-0.195
									c-1.378-0.011-2.745,0.053-4.103,0.164l-2.181,8.605c-2.844,0.434-5.61,1.174-8.239,2.182l-6.16-6.415
									c-2.491,1.149-4.861,2.519-7.106,4.069l2.421,8.565c-2.23,1.772-4.258,3.791-6.037,5.997l-8.555-2.477
									c-1.559,2.233-2.951,4.601-4.124,7.076l6.374,6.215c-1.03,2.615-1.777,5.365-2.242,8.217l-8.63,2.117
									c-0.112,1.361-0.188,2.725-0.196,4.103c-0.006,1.39,0.061,2.746,0.168,4.099l8.602,2.19c0.444,2.86,1.185,5.612,2.187,8.228
									l-6.427,6.166c1.167,2.504,2.532,4.869,4.084,7.107l8.554-2.413c1.781,2.224,3.791,4.251,6,6.04l-2.479,8.544
									c2.238,1.568,4.597,2.962,7.078,4.14l6.215-6.379c2.611,1.01,5.363,1.785,8.205,2.234l2.117,8.617
									c1.363,0.127,2.732,0.206,4.111,0.216c1.391,0,2.747-0.073,4.103-0.18l2.19-8.604c2.853-0.438,5.615-1.172,8.225-2.175
									l6.164,6.42c2.496-1.171,4.871-2.527,7.104-4.092l-2.407-8.561c2.209-1.77,4.24-3.785,6.035-5.992l8.551,2.473
									c1.558-2.225,2.949-4.584,4.14-7.07l-6.38-6.209c1.014-2.615,1.783-5.359,2.234-8.213L92.059,54.884z M43.462,80.46
									c-16.68,0-30.25-13.57-30.25-30.25s13.57-30.25,30.25-30.25c16.681,0,30.249,13.57,30.249,30.25S60.143,80.46,43.462,80.46z
									"/>
							</g>
						</g>
					</g>
				</g>
			</g>
			<g>
				<g>
					<g>
						<g>
							<defs>
								<circle id="SVGID_3_" cx="70" cy="74.21" r="56.334"/>
							</defs>
							<clipPath id="SVGID_4_">
								<use xlink:href="#SVGID_3_"  overflow="visible"/>
							</clipPath>
							<g clip-path="url(#SVGID_4_)">
								<path fill="#02638C" d="M98.551,86.749c-11.029,0-20,8.973-20,20s8.971,20,20,20c11.028,0,20-8.973,20-20
									S109.578,86.749,98.551,86.749z M98.299,119.601c-7.095-0.146-12.73-6.004-12.59-13.098s5.998-12.73,13.093-12.593
									c7.104,0.138,12.731,6.002,12.595,13.096C111.257,114.101,105.4,119.737,98.299,119.601z"/>
								<path fill="#02638C" d="M133.293,103.181l-7.052-2.681c-0.653-2.842-1.716-5.517-3.123-7.957l3.375-6.771
									c-1.712-2.278-3.693-4.33-5.911-6.137l-6.891,3.102c-2.398-1.491-5.021-2.654-7.814-3.41l-2.393-7.16
									c-1.381-0.191-2.801-0.324-4.248-0.354c-1.438-0.03-2.859,0.055-4.26,0.187l-2.658,7.063
									c-2.848,0.642-5.498,1.703-7.944,3.101l-6.772-3.371c-2.268,1.721-4.34,3.688-6.125,5.901l3.094,6.896
									c-1.522,2.388-2.68,5.015-3.43,7.832l-7.166,2.399c-0.199,1.38-0.324,2.816-0.354,4.252
									c-0.03,1.449,0.042,2.859,0.187,4.273l7.063,2.65c0.642,2.854,1.698,5.521,3.121,7.963l-3.361,6.753
									c1.699,2.291,3.694,4.354,5.888,6.146l6.902-3.101c2.391,1.511,4.999,2.668,7.816,3.412l2.379,7.159
									c1.395,0.204,2.818,0.324,4.251,0.354c1.446,0.03,2.868-0.035,4.259-0.185l2.672-7.065c2.821-0.635,5.486-1.685,7.945-3.1
									l6.752,3.37c2.294-1.709,4.357-3.694,6.156-5.913l-3.106-6.878c1.502-2.38,2.669-5.013,3.425-7.839l7.159-2.367
									c0.21-1.409,0.327-2.812,0.354-4.27C133.511,106.005,133.45,104.565,133.293,103.181z M98.551,127.749
									c-11.578,0-21-9.42-21-21c0-11.579,9.422-21,21-21s21,9.421,21,21C119.551,118.329,110.129,127.749,98.551,127.749z"/>
							</g>
						</g>
					</g>
				</g>
			</g>
		</g>
	</g>
</g>
</svg>
