<?xml version="1.0" encoding="utf-8"?>
<!-- Generator: Adobe Illustrator 15.0.2, SVG Export Plug-In . SVG Version: 6.00 Build 0)  -->
<!DOCTYPE svg PUBLIC "-//W3C//DTD SVG 1.1//EN" "http://www.w3.org/Graphics/SVG/1.1/DTD/svg11.dtd">
<svg version="1.1" id="Layer_1" xmlns="http://www.w3.org/2000/svg" xmlns:xlink="http://www.w3.org/1999/xlink" x="0px" y="0px"
	 width="140px" height="140px" viewBox="0 0 140 140" enable-background="new 0 0 140 140" xml:space="preserve">
<g>
	<g>
		<g>
			<g>
				<g>
					<defs>
						<circle id="SVGID_1_" cx="70" cy="74.21" r="56.333"/>
					</defs>
					<clipPath id="SVGID_2_">
						<use xlink:href="#SVGID_1_"  overflow="visible"/>
					</clipPath>
					<g clip-path="url(#SVGID_2_)">
						<circle fill="#3E91B4" cx="70" cy="74.21" r="56.333"/>
						<g>
							<polygon fill="#EBCC2D" points="39.005,102.869 10.714,104.91 9.839,94.703 21.505,92.369 23.839,83.619 37.255,82.453 
															"/>
							<polygon fill="#606049" points="35.214,84.785 35.797,91.785 25.88,93.244 26.755,85.953 							"/>
							<path fill="#606049" d="M39.005,102.807c-3.827-0.225-13.013,0.92-17.04,1.42c-0.001,0-0.002,0-0.002,0
								s-1.582,0.174-2.109,0.229c-1.875,0.188-5.397,0.479-7.438,1.215c-0.042,0.016-0.744,0.318-0.977,0.457
								c-0.107,0.061-0.328,0.189-0.406,0.289c-0.01,0.01-0.012,0.041-0.022,0.049c-0.003,0.002-0.011-0.002-0.014,0
								c-0.021,0.016-0.009,0.035-0.031,0.094c-0.004,0.01-0.018,0.027-0.019,0.037c0,0.002-0.141,0.537-0.141,0.539
								c0.032,0.711-0.703,3.158,3.69,3.416c4.958,0.291,18.958-1.75,18.958-1.75s7.156-0.693,8.914-2.193
								C43.396,105.729,43.962,103.098,39.005,102.807z"/>
						</g>
						<polygon fill="#E2C7A1" points="80.416,134.119 80.416,121.869 82.814,121.578 73.223,107.9 61.881,122.227 64.416,122.227 
							64.416,133.535 						"/>
						<rect x="80.416" y="121.227" fill="#B3966D" width="19" height="12.5"/>
						<polygon fill="#B3966D" points="103.299,122.227 82.881,122.227 73.256,107.727 92.943,107.727 						"/>
						<g>
							<g>
								<line fill="none" stroke="#B3966D" stroke-width="4" x1="96.416" y1="101.227" x2="96.416" y2="119.727"/>
								<line fill="none" stroke="#B3966D" stroke-width="4" x1="96.416" y1="101.727" x2="123.916" y2="101.727"/>
								<line fill="none" stroke="#B3966D" stroke-width="4" x1="123.916" y1="101.227" x2="123.916" y2="120.727"/>
								<line fill="none" stroke="#B3966D" stroke-width="4" x1="117.916" y1="102.727" x2="117.916" y2="121.227"/>
								<line fill="none" stroke="#B3966D" stroke-width="4" x1="112.416" y1="102.227" x2="112.416" y2="121.227"/>
								<line fill="none" stroke="#B3966D" stroke-width="4" x1="104.416" y1="102.227" x2="104.416" y2="119.227"/>
								<line fill="none" stroke="#B3966D" stroke-width="4" x1="112.416" y1="108.727" x2="104.916" y2="108.727"/>
							</g>
							<line fill="none" stroke="#B3966D" stroke-width="4" x1="111.916" y1="110.227" x2="104.916" y2="110.227"/>
						</g>
						<path fill="#B3966D" d="M10.963,109.961l16.5-1.5l10.5-1.25l6.5-1.5l5,1.75l3.25,3l5,5.25l-0.25,2.25l0.25,3l4.5,7l3,8.5
							l-9,5.75c0,0-49.75-5.5-51-6s-13.75-7.5-13.75-7.5L10.963,109.961z"/>
					</g>
				</g>
			</g>
		</g>
	</g>
	<polyline fill="#606049" points="38.005,91.16 83.066,37.085 100.275,16.085 97.359,13.46 77.525,33.002 37.337,83.617 
		38.005,91.16 	"/>
	<rect x="96.416" y="17.227" fill="#606049" width="1.5" height="25.5"/>
	<g>
		<line fill="none" stroke="#B3966D" stroke-width="3.5" x1="97.047" y1="42.335" x2="124.199" y2="52.285"/>
		<line fill="none" stroke="#B3966D" stroke-width="3.5" x1="80.129" y1="58.377" x2="97.629" y2="42.044"/>
		<line fill="none" stroke="#B3966D" stroke-width="3.5" x1="124.754" y1="52.252" x2="80.156" y2="58.263"/>
		<line fill="none" stroke="#B3966D" stroke-width="3.5" x1="103.463" y1="44.96" x2="104.338" y2="55.169"/>
		<line fill="none" stroke="#B3966D" stroke-width="3.5" x1="108.156" y1="46.305" x2="109.004" y2="54.294"/>
		<line fill="none" stroke="#B3966D" stroke-width="3.5" x1="97.338" y1="43.502" x2="98.24" y2="55.494"/>
		<line fill="none" stroke="#B3966D" stroke-width="3.5" x1="91.824" y1="47.763" x2="92.379" y2="56.335"/>
		<line fill="none" stroke="#B3966D" stroke-width="3.5" x1="86.838" y1="52.544" x2="87.129" y2="56.627"/>
	</g>
</g>
</svg>
