<?xml version="1.0" encoding="utf-8"?>
<!-- Generator: Adobe Illustrator 15.0.2, SVG Export Plug-In . SVG Version: 6.00 Build 0)  -->
<!DOCTYPE svg PUBLIC "-//W3C//DTD SVG 1.1//EN" "http://www.w3.org/Graphics/SVG/1.1/DTD/svg11.dtd">
<svg version="1.1" id="Layer_1" xmlns="http://www.w3.org/2000/svg" xmlns:xlink="http://www.w3.org/1999/xlink" x="0px" y="0px"
	 width="140px" height="140px" viewBox="70 70 140 140" enable-background="new 70 70 140 140" xml:space="preserve">
<g>
	<path fill="#3E91B4" d="M154.111,156.83c-9.447-6.866-27.678-14.085-29.286-27.262c-0.792-6.489,4.397-12.425,5.202-18.728
		c1.079-8.452-4.134-12.776-6.884-19.976c0.009,0.025,0.019,0.05,0.028,0.075c0.02,0.05,0.036,0.095,0.052,0.136
		c0.039,0.102,0.072,0.188,0.091,0.237c0.023,0.062,0.021,0.054,0,0c-0.016-0.042-0.046-0.119-0.091-0.237
		c-0.017-0.043-0.034-0.088-0.052-0.136c-0.01-0.024-0.019-0.048-0.029-0.075c-0.008-0.021-0.014-0.036-0.021-0.056
		c-0.005-0.013-0.01-0.024-0.015-0.037c-0.024-0.063-0.047-0.123-0.064-0.17c-0.017-0.043-0.032-0.083-0.045-0.117
		c-0.013-0.034-0.022-0.06-0.03-0.079c-0.004-0.01-0.007-0.021-0.01-0.026c-0.005-0.015-0.005-0.015,0,0
		c0.003,0.006,0.006,0.015,0.01,0.026c0.007,0.02,0.018,0.047,0.03,0.079c0.012,0.032,0.026,0.069,0.045,0.117
		c0.021,0.053,0.042,0.11,0.064,0.17c0.005,0.012,0.01,0.024,0.015,0.037c0.007,0.019,0.014,0.037,0.021,0.056
		c-0.333-0.873-0.661-2.725-0.904-4.337c-5.54,1.839-10.696,4.515-15.322,7.878c3.13,2.096,5.572,4.708,5.476,8.925
		c-0.225,9.831-5.054,15.481-9.056,23.839c-3.456,7.216,4.372,17.166,9.866,21.405c7.597,5.861,13.6,10.113,18.611,18.626
		c3.894,6.612,5.928,15.259,5.792,22.928c-0.023,1.329-0.11,3.593-0.382,6.138c0.92,0.045,1.846,0.068,2.777,0.068
		c16.829,0,31.932-7.383,42.255-19.082C174.764,168.656,162.805,163.146,154.111,156.83z"/>
	<path fill="#DCC847" d="M131.814,167.199c-5.012-8.512-11.015-12.766-18.612-18.626c-5.494-4.239-13.322-14.189-9.867-21.405
		c4.002-8.357,8.831-14.008,9.057-23.839c0.096-4.216-2.346-6.829-5.476-8.924c-14.088,10.239-23.25,26.847-23.25,45.595
		c0,30.182,23.735,54.816,53.557,56.266c0.271-2.546,0.358-4.81,0.382-6.138C137.742,182.458,135.708,173.812,131.814,167.199z"/>
	<path fill="#DCC847" d="M123.314,91.312C123.335,91.366,123.338,91.374,123.314,91.312L123.314,91.312z"/>
	<path fill="#DCC847" d="M123.172,90.939c-0.009-0.024-0.019-0.05-0.028-0.075l0,0C123.154,90.892,123.163,90.915,123.172,90.939z"
		/>
	<path fill="#DCC847" d="M123.122,90.809c-0.005-0.013-0.009-0.025-0.014-0.037C123.113,90.784,123.117,90.796,123.122,90.809z"/>
	<path fill="#DCC847" d="M123.172,90.939c0.019,0.047,0.035,0.093,0.053,0.136C123.209,91.035,123.191,90.99,123.172,90.939z"/>
	<path fill="#DCC847" d="M123.107,90.771c-0.022-0.06-0.044-0.117-0.064-0.17C123.062,90.648,123.084,90.708,123.107,90.771z"/>
	<path fill="#DCC847" d="M123.224,91.075c0.045,0.119,0.075,0.195,0.091,0.238C123.296,91.263,123.262,91.176,123.224,91.075z"/>
	<path fill="#DCC847" d="M123.122,90.809c0.008,0.02,0.014,0.035,0.021,0.056l0,0C123.136,90.845,123.129,90.827,123.122,90.809z"/>
	<path fill="#DCC847" d="M123.144,90.864L123.144,90.864L123.144,90.864z"/>
	<path fill="#DCC847" d="M122.958,90.38C122.953,90.365,122.953,90.365,122.958,90.38L122.958,90.38z"/>
	<path fill="#DCC847" d="M123.144,90.865c2.751,7.2,7.963,11.524,6.884,19.976c-0.805,6.303-5.994,12.239-5.202,18.728
		c1.608,13.177,19.838,20.396,29.287,27.262c8.693,6.317,20.65,11.825,28.144,20.422c8.761-9.93,14.078-22.97,14.078-37.252
		c0-31.112-25.222-56.333-56.333-56.333c-6.207,0-12.177,1.006-17.762,2.86C122.482,88.14,122.811,89.992,123.144,90.865
		L123.144,90.865z"/>
	<path fill="#DCC847" d="M123.043,90.602c-0.019-0.048-0.033-0.084-0.045-0.117C123.011,90.519,123.026,90.558,123.043,90.602z"/>
	<path fill="#DCC847" d="M122.968,90.406c-0.004-0.011-0.007-0.021-0.01-0.026C122.961,90.386,122.964,90.396,122.968,90.406z"/>
	<path fill="#DCC847" d="M122.998,90.484c-0.012-0.031-0.022-0.059-0.03-0.079C122.976,90.424,122.985,90.451,122.998,90.484z"/>
</g>
<g>
	<polyline fill="#5F7D43" points="140.752,108.304 145.811,91.47 151.698,108.304 	"/>
	<polygon opacity="0.15" fill="#E8E8E8" enable-background="new    " points="140.794,108.137 151.656,108.137 145.887,91.637 	"/>
	<polygon opacity="0.15" fill="#E8E8E8" enable-background="new    " points="140.794,108.14 145.887,98.562 151.656,108.14 
		145.887,91.635 	"/>
</g>
<g>
	<polyline fill="#5F7D43" points="150.76,123.816 155.818,106.982 161.706,123.816 	"/>
	<polygon opacity="0.15" fill="#E8E8E8" enable-background="new    " points="150.802,123.649 161.664,123.649 155.895,107.149 	"/>
	<polygon opacity="0.15" fill="#E8E8E8" enable-background="new    " points="150.802,123.651 155.895,114.074 161.664,123.651 
		155.895,107.147 	"/>
</g>
<g>
	<polyline fill="#5F7D43" points="175.283,131.821 180.342,114.987 186.229,131.821 	"/>
	<polygon opacity="0.15" fill="#E8E8E8" enable-background="new    " points="175.325,131.654 186.188,131.654 180.418,115.154 	"/>
	<polygon opacity="0.15" fill="#E8E8E8" enable-background="new    " points="175.325,131.656 180.418,122.078 186.188,131.656 
		180.418,115.151 	"/>
</g>
<g>
	<polyline fill="#5F7D43" points="176.533,164.85 181.592,148.016 187.479,164.85 	"/>
	<polygon opacity="0.15" fill="#E8E8E8" enable-background="new    " points="176.575,164.682 187.438,164.682 181.668,148.182 	"/>
	<polygon opacity="0.15" fill="#E8E8E8" enable-background="new    " points="176.575,164.686 181.668,155.105 187.438,164.686 
		181.668,148.18 	"/>
</g>
<g>
	<polyline fill="#5F7D43" points="100.22,159.344 105.279,142.511 111.167,159.344 	"/>
	<polygon opacity="0.15" fill="#E8E8E8" enable-background="new    " points="100.262,159.177 111.125,159.177 105.354,142.677 	"/>
	<polygon opacity="0.15" fill="#E8E8E8" enable-background="new    " points="100.262,159.18 105.355,149.602 111.125,159.18 
		105.355,142.675 	"/>
</g>
<g>
	<polyline fill="#5F7D43" points="90.213,128.821 95.271,111.987 101.159,128.821 	"/>
	<polygon opacity="0.15" fill="#E8E8E8" enable-background="new    " points="90.255,128.654 101.117,128.654 95.347,112.154 	"/>
	<polygon opacity="0.15" fill="#E8E8E8" enable-background="new    " points="90.255,128.656 95.347,119.078 101.117,128.656 
		95.347,112.151 	"/>
</g>
<rect x="112.25" y="148.25" fill="#6D736D" width="41.5" height="4.281"/>
<g>
	<path fill="#FFFFFF" d="M119.125,152.531c0-3.331,2.7-6.031,6.031-6.031c3.331,0,6.031,2.7,6.031,6.031H119.125z"/>
	<path fill="#FFFFFF" d="M130.454,152.531c0-1.641,1.329-2.969,2.969-2.969c1.64,0,2.969,1.328,2.969,2.969H130.454z"/>
	<path fill="#FFFFFF" d="M133.636,155.534c0-3.331,2.7-6.031,6.031-6.031s6.031,2.7,6.031,6.031H133.636z"/>
	<path fill="#FFFFFF" d="M144.965,155.534c0-1.64,1.329-2.97,2.971-2.97c1.64,0,2.969,1.33,2.969,2.97H144.965z"/>
	<path fill="#FFFFFF" d="M140.916,157.414c0-2.503-2.028-4.531-4.531-4.531c-2.503,0-4.531,2.029-4.531,4.531H140.916z"/>
	<path fill="#FFFFFF" d="M132.406,157.414c0-1.232-0.999-2.23-2.23-2.23c-1.232,0-2.23,0.998-2.23,2.23H132.406z"/>
</g>
</svg>
