<?xml version="1.0" encoding="utf-8"?>
<!-- Generator: Adobe Illustrator 15.0.2, SVG Export Plug-In . SVG Version: 6.00 Build 0)  -->
<!DOCTYPE svg PUBLIC "-//W3C//DTD SVG 1.1//EN" "http://www.w3.org/Graphics/SVG/1.1/DTD/svg11.dtd">
<svg version="1.1" id="Layer_1" xmlns="http://www.w3.org/2000/svg" xmlns:xlink="http://www.w3.org/1999/xlink" x="0px" y="0px"
	 width="140px" height="140px" viewBox="70 70 140 140" enable-background="new 70 70 140 140" xml:space="preserve">
<g>
	<path fill="#3E91B4" d="M139.499,83.648c31.112,0,56.333,25.221,56.333,56.333s-25.378,56.219-56.49,56.219
		c-8.918,0-6.348-22.654-13.844-26.345c-2.953-1.453-20.742,1.304-23.375-0.625c-14-10.248-18.958-10.569-18.958-29.25
		C83.165,108.87,108.386,83.648,139.499,83.648z"/>
	<path fill="none" d="M125.575,128.311h12.954v22.667l8.303,8.302c13.902-0.968,24.921-12.58,24.921-26.725
		c0-14.776-12.021-26.797-26.796-26.797c-14.146,0-25.759,11.019-26.725,24.922l7.344,7.346L125.575,128.311L125.575,128.311z"/>
	<polygon fill="none" points="165.713,162.82 165.657,162.855 166.029,163.229 	"/>
	<path fill="none" d="M132.393,114.767h19.771v34.6l6.309,6.307c7.937-4.654,13.279-13.271,13.279-23.118
		c0-14.776-12.021-26.797-26.796-26.797c-9.848,0-18.463,5.344-23.119,13.279l10.555,10.558L132.393,114.767L132.393,114.767z"/>
	<path fill="#02638C" d="M166.029,163.229l0.416,0.533c0.117,0.155,0.229,0.299,0.347,0.428h0.199L166.029,163.229z"/>
	<g>
		<path fill="#3E91B4" d="M86.749,135.126c-2,1.142-3.577,2.657-3.577,4.871c0,4.555,0.547,8.981,1.568,13.224l2.009-2.006V135.126z
			"/>
		<path fill="#3E91B4" d="M195.95,139.997c0-31.112-25.281-56.333-56.393-56.333c-18.68,0-19.031,4.958-29.28,18.958
			c-1.927,2.634,0.814,20.422-0.639,23.375c-1.473,2.992-5.891,4.404-10.891,5.59v7.617l9.902-9.903
			c-0.096,1.078-0.036,2.167-0.036,3.269c0,19.165,14.633,34.935,33.633,36.557v27.152
			C171.748,194.963,195.95,170.268,195.95,139.997z"/>
		<path fill="#BAB533" d="M142.256,196.277l-0.008-27.119c-19-1.623-33.633-17.395-33.633-36.557c0-1.103,0-2.191,0.095-3.27
			l-9.962,9.903v-7.617v-1.355h-12v4.894v16.09l-2.012,2.018l-7.491,7.498h6.503v35.5h10.297h9.109h0.594v-12.9v-11.1h19.5v21.719
			v2.281L142.256,196.277z"/>
	</g>
	<path fill="#F6CB35" d="M198.725,178.268l-22.789-22.799c-0.152-0.148-0.344-0.293-0.545-0.445l-0.927-0.717l0.503-0.771
		c3.885-5.962,5.938-12.871,5.938-19.98c0-20.239-16.463-36.704-36.697-36.704c-12.568,0-23.677,6.351-30.292,16.01
		c-3.458,5.049-5.688,11.001-6.259,17.424c-0.095,1.078-0.153,2.167-0.153,3.27c0,19.164,14.765,34.934,33.515,36.556
		c1.053,0.092,2.114,0.146,3.189,0.146c4.165,0,8.266-0.712,12.15-2.082c2.221-0.781,4.369-1.779,6.422-2.986
		c0.477-0.279,0.949-0.566,1.416-0.869l0.713-0.465l0.056-0.035l0.318,0.408l0.961,0.961h-0.199
		c0.026,0.031,0.056,0.066,0.083,0.096l22.781,22.792c1.316,1.312,3.059,2.032,4.904,2.032c1.852,0,3.597-0.723,4.914-2.033
		C201.423,185.373,201.423,180.973,198.725,178.268z M157.723,156.673c-3.464,2.031-7.418,3.312-11.642,3.606
		c-0.62,0.043-1.244,0.072-1.875,0.072c-14.777,0-26.798-12.021-26.798-26.796c0-0.631,0.03-1.255,0.073-1.875
		c0.293-4.224,1.575-8.179,3.606-11.643c4.655-7.936,13.271-13.28,23.119-13.28c14.774,0,26.796,12.021,26.796,26.797
		C171.002,143.402,165.658,152.018,157.723,156.673z"/>
	<g id="electricity">
		<path id="electricity_1_" fill="#F6CB35" d="M141.018,145.037c0.094-0.475-0.226-0.807-0.708-0.807h-2.597
			c-0.483,0-0.769-0.436-0.632-0.897l2.338-8.121c0.135-0.464-0.148-0.98-0.632-0.98h-4.447c-0.483,0-0.756-0.267-0.607-0.727
			l6.042-18.491c0.149-0.46,0.668-0.781,1.151-0.781h11.615c0.481,0,0.707,0.355,0.497,0.791l-6.062,12.599
			c-0.209,0.436,0.014,0.788,0.498,0.782l4.446-0.047c0.483-0.005,0.702,0.344,0.485,0.777l-5.352,10.747
			c-0.217,0.433,0.004,0.851,0.486,0.851h2.633c0.482,0,0.637,0.248,0.34,0.629l-11.239,14.404
			c-0.297,0.381-0.463,0.317-0.368-0.156L141.018,145.037z"/>
	</g>
</g>
</svg>
