<?xml version="1.0" encoding="utf-8"?>
<!-- Generator: Adobe Illustrator 15.0.2, SVG Export Plug-In . SVG Version: 6.00 Build 0)  -->
<!DOCTYPE svg PUBLIC "-//W3C//DTD SVG 1.1//EN" "http://www.w3.org/Graphics/SVG/1.1/DTD/svg11.dtd">
<svg version="1.1" id="Layer_1" xmlns="http://www.w3.org/2000/svg" xmlns:xlink="http://www.w3.org/1999/xlink" x="0px" y="0px"
	 width="140px" height="140px" viewBox="70 70 140 140" enable-background="new 70 70 140 140" xml:space="preserve">
<g>
	<circle fill="#3E91B4" cx="140" cy="140" r="56.334"/>
	<g>
		<path fill="#FFFFFF" d="M169.061,165.645c-0.279-5.401-4.203-9.897-9.842-9.535c-5.697,0.363-9.43,6.13-9.699,11.363
			c-0.291,5.619,4.217,10.484,9.861,10.121c5.697-0.369,9.432-6.135,9.701-11.363c0.008-0.162-0.043-0.254-0.055-0.393
			C169.029,165.771,169.062,165.707,169.061,165.645z M158.914,172.576c-2.842-0.553-4.332-3.368-4.737-5.961
			c-0.53-3.4,2.171-6.146,5.511-5.494c3.092,0.604,4.489,3.71,4.744,6.527C164.205,170.781,162.383,173.252,158.914,172.576z"/>
		<polygon fill="#FFFFFF" points="114.747,111.598 109.405,116.938 102.929,111.836 101.209,114.017 107.428,118.915 
			103.638,122.706 105.602,124.67 109.625,120.648 114.869,124.779 116.588,122.598 111.602,118.67 116.71,113.562 		"/>
		<polygon fill="#FFFFFF" points="135.473,110.358 131.639,115.221 126.644,110.225 124.485,112.384 129.738,117.637 
			124.71,124.017 127.11,125.909 131.913,119.812 135.594,123.493 137.752,121.334 133.817,117.399 137.873,112.251 		"/>
		<polygon fill="#FFFFFF" points="150.624,143.648 152.588,145.613 156.611,141.588 161.855,145.721 163.574,143.541 
			158.588,139.611 163.695,134.504 161.732,132.541 156.393,137.88 149.916,132.779 148.197,134.96 154.414,139.858 		"/>
		<polygon fill="#FFFFFF" points="180.132,113.562 178.168,111.598 172.828,116.938 166.352,111.836 164.632,114.017 
			170.85,118.915 167.061,122.706 169.023,124.67 173.047,120.645 178.29,124.779 180.01,122.598 175.023,118.668 		"/>
		<path fill="#FFFFFF" d="M154.589,120.097l0.781-10.734l-9.687,4.689l2.836,1.926c-6.99,8.782-19.135,24.717-19.135,29.356
			c0,6.137,13.081,14.162,14.581,15.079c0.194,0.11,0.444,0.194,0.694,0.194c0.5,0,0.943-0.278,1.193-0.693
			c0.39-0.641,0.168-1.5-0.474-1.891c-5.498-3.304-13.218-9.414-13.218-12.689c0-3.076,9.421-16.167,18.658-27.794L154.589,120.097z
			"/>
	</g>
</g>
</svg>
