<?xml version="1.0" encoding="utf-8"?>
<!-- Generator: Adobe Illustrator 15.0.2, SVG Export Plug-In . SVG Version: 6.00 Build 0)  -->
<!DOCTYPE svg PUBLIC "-//W3C//DTD SVG 1.1//EN" "http://www.w3.org/Graphics/SVG/1.1/DTD/svg11.dtd">
<svg version="1.1" id="Layer_1" xmlns="http://www.w3.org/2000/svg" xmlns:xlink="http://www.w3.org/1999/xlink" x="0px" y="0px"
	 width="140px" height="140px" viewBox="70 70 140 140" enable-background="new 70 70 140 140" xml:space="preserve">
<path fill="#3E91B4" d="M166.829,187.521c0.315-0.187,0.63-0.373,0.942-0.563c0.252-0.155,0.504-0.312,0.754-0.472
	c0.293-0.186,0.582-0.375,0.871-0.565c0.34-0.224,0.676-0.451,1.011-0.683c0.288-0.2,0.573-0.401,0.858-0.606
	c0.221-0.157,0.44-0.317,0.658-0.479c0.428-0.317,0.85-0.639,1.268-0.969c0.164-0.129,0.326-0.263,0.49-0.394
	c0.352-0.283,0.699-0.572,1.047-0.864c0.135-0.113,0.271-0.228,0.405-0.344c0.454-0.393,0.902-0.792,1.345-1.198
	c0.113-0.104,0.229-0.212,0.342-0.317c0.463-0.433,0.921-0.869,1.369-1.318c0.006-0.006,0.011-0.01,0.018-0.018
	c0.055-0.055,0.109-0.111,0.164-0.168c0.271-0.272,0.539-0.547,0.803-0.823c0.178-0.187,0.35-0.373,0.521-0.562
	c0.138-0.147,0.277-0.295,0.412-0.445c0.218-0.238,0.43-0.48,0.642-0.722c0.086-0.098,0.173-0.194,0.258-0.293
	c0.243-0.28,0.481-0.563,0.72-0.848c0.049-0.06,0.098-0.117,0.146-0.177c0.261-0.318,0.518-0.637,0.771-0.959
	c0.021-0.026,0.041-0.053,0.062-0.079c0.271-0.347,0.54-0.697,0.803-1.048c0.001-0.004,0.004-0.006,0.006-0.008
	c1.644-2.195,3.104-4.482,4.385-6.844c0.004-0.007,0.008-0.013,0.012-0.02c0.205-0.379,0.406-0.76,0.604-1.145
	c0.021-0.04,0.043-0.081,0.062-0.121c0.177-0.35,0.352-0.699,0.521-1.051c0.041-0.084,0.08-0.169,0.121-0.253
	c0.146-0.31,0.291-0.618,0.434-0.931c0.062-0.133,0.121-0.269,0.181-0.402c0.117-0.263,0.231-0.525,0.345-0.789
	c0.081-0.189,0.16-0.379,0.239-0.568c0.089-0.211,0.177-0.424,0.261-0.637c0.098-0.244,0.194-0.49,0.288-0.738
	c0.062-0.158,0.122-0.317,0.183-0.478c0.111-0.3,0.221-0.601,0.328-0.904c0.037-0.106,0.076-0.216,0.113-0.323
	c0.121-0.349,0.24-0.698,0.354-1.052c0.021-0.063,0.043-0.128,0.062-0.192c0.125-0.389,0.246-0.78,0.363-1.174
	c0.009-0.027,0.018-0.057,0.025-0.084c0.125-0.422,0.244-0.845,0.358-1.27c0.001-0.003,0.001-0.005,0.002-0.008
	c0.47-1.734,0.854-3.5,1.158-5.297c0.001-0.004,0.002-0.008,0.002-0.012c0.072-0.433,0.142-0.865,0.204-1.302
	c0.004-0.03,0.008-0.059,0.012-0.089c0.059-0.408,0.113-0.818,0.161-1.229c0.009-0.066,0.017-0.133,0.022-0.197
	c0.045-0.375,0.086-0.752,0.121-1.129c0.012-0.114,0.021-0.229,0.031-0.342c0.03-0.332,0.059-0.662,0.083-0.996
	c0.013-0.18,0.023-0.358,0.033-0.537c0.019-0.272,0.036-0.545,0.05-0.817c0.014-0.278,0.022-0.558,0.031-0.837
	c0.007-0.179,0.016-0.356,0.02-0.536c0.024-0.993,0.021-1.985-0.006-2.978c-0.006-0.172-0.013-0.343-0.019-0.515
	c-0.013-0.342-0.028-0.683-0.047-1.025c-0.013-0.218-0.025-0.437-0.039-0.653c-0.019-0.284-0.041-0.568-0.063-0.853
	c-0.021-0.247-0.039-0.494-0.062-0.74c-0.018-0.188-0.039-0.377-0.061-0.566c-0.065-0.635-0.143-1.267-0.229-1.896
	c-0.015-0.109-0.029-0.219-0.045-0.329c-0.054-0.365-0.111-0.729-0.171-1.092c-0.02-0.11-0.036-0.22-0.055-0.329
	c-0.065-0.377-0.134-0.754-0.205-1.129c-0.013-0.064-0.025-0.129-0.039-0.194c-0.326-1.672-0.729-3.317-1.199-4.933
	c-0.033-0.116-0.067-0.231-0.103-0.346c-0.097-0.326-0.198-0.65-0.302-0.973c-0.052-0.164-0.105-0.327-0.159-0.491
	c-0.096-0.292-0.192-0.583-0.293-0.873c-0.077-0.225-0.159-0.449-0.239-0.673c-0.086-0.232-0.168-0.467-0.256-0.698
	c-0.173-0.462-0.354-0.921-0.539-1.379c-0.031-0.073-0.062-0.145-0.092-0.217c-0.172-0.416-0.348-0.831-0.529-1.243
	c-0.037-0.083-0.074-0.165-0.111-0.247c-0.184-0.414-0.374-0.825-0.569-1.235c-0.026-0.056-0.053-0.112-0.08-0.168
	c-2.682-5.591-6.336-10.832-10.969-15.465c-0.054-0.051-0.104-0.101-0.156-0.152c-0.049-0.048-0.1-0.096-0.147-0.145
	c-0.325-0.32-0.653-0.636-0.983-0.947c-0.062-0.059-0.126-0.116-0.188-0.175c-0.33-0.308-0.664-0.612-1-0.91
	c-0.051-0.043-0.1-0.086-0.148-0.13c-0.367-0.323-0.738-0.642-1.112-0.955c-0.017-0.014-0.032-0.029-0.052-0.042
	c-5.803-4.841-12.352-8.335-19.229-10.48l0.002-0.007c-0.137-0.042-0.274-0.079-0.412-0.12c-0.354-0.107-0.709-0.21-1.063-0.311
	c-0.35-0.099-0.7-0.195-1.053-0.287c-0.365-0.096-0.731-0.189-1.101-0.277c-0.283-0.068-0.567-0.134-0.854-0.198
	c-0.348-0.078-0.697-0.15-1.046-0.222c-0.386-0.078-0.771-0.152-1.156-0.222c-0.354-0.064-0.708-0.126-1.062-0.184
	c-0.264-0.042-0.525-0.084-0.789-0.124c-0.53-0.079-1.062-0.15-1.596-0.214c-0.199-0.023-0.4-0.043-0.601-0.065
	c-0.461-0.05-0.923-0.094-1.385-0.133c-0.169-0.014-0.337-0.03-0.507-0.042c-0.604-0.045-1.211-0.079-1.818-0.104
	c-0.145-0.006-0.288-0.01-0.432-0.016c-1.115-0.038-2.232-0.047-3.348-0.019c-0.189,0.004-0.378,0.013-0.567,0.021
	c-0.269,0.009-0.537,0.017-0.805,0.03c-0.281,0.014-0.56,0.033-0.839,0.05c-0.172,0.011-0.344,0.021-0.516,0.033
	c-0.339,0.024-0.677,0.055-1.015,0.085c-0.107,0.01-0.214,0.018-0.321,0.028c-0.384,0.037-0.766,0.079-1.146,0.124
	c-0.06,0.007-0.12,0.013-0.179,0.021c-0.417,0.05-0.833,0.105-1.247,0.165c-0.023,0.003-0.046,0.007-0.069,0.01
	c-2.702,0.389-5.341,0.971-7.905,1.73c-0.018,0.005-0.036,0.01-0.055,0.016c-0.403,0.12-0.805,0.244-1.205,0.373
	c-0.053,0.017-0.106,0.035-0.16,0.052c-0.363,0.118-0.724,0.239-1.083,0.364c-0.096,0.034-0.193,0.068-0.29,0.102
	c-0.314,0.112-0.628,0.225-0.94,0.342c-0.146,0.054-0.292,0.11-0.438,0.166c-0.26,0.1-0.52,0.201-0.778,0.305
	c-0.198,0.079-0.396,0.161-0.594,0.242c-0.204,0.084-0.408,0.17-0.611,0.257c-0.25,0.106-0.498,0.216-0.745,0.326
	c-0.149,0.066-0.299,0.133-0.448,0.202c-0.295,0.135-0.59,0.272-0.884,0.413c-0.1,0.048-0.2,0.095-0.299,0.144
	c-0.336,0.163-0.67,0.329-1.003,0.499c-0.057,0.029-0.114,0.058-0.169,0.086c-0.367,0.188-0.731,0.381-1.095,0.578
	c-0.023,0.013-0.047,0.025-0.071,0.039c-0.388,0.21-0.773,0.426-1.157,0.646c0,0,0,0-0.001,0c-1.558,0.895-3.082,1.871-4.566,2.927
	c-0.003,0.003-0.006,0.005-0.01,0.007c-0.357,0.254-0.711,0.512-1.063,0.775c-0.026,0.02-0.052,0.04-0.078,0.059
	c-0.328,0.247-0.655,0.496-0.978,0.75c-0.054,0.042-0.106,0.084-0.16,0.127c-0.294,0.233-0.588,0.468-0.879,0.708
	c-0.091,0.075-0.181,0.151-0.271,0.227c-0.252,0.211-0.505,0.422-0.755,0.638c-0.139,0.12-0.275,0.242-0.413,0.364
	c-0.202,0.178-0.405,0.354-0.604,0.536c-0.213,0.193-0.422,0.39-0.632,0.586c-0.125,0.116-0.25,0.23-0.374,0.347
	c-0.681,0.648-1.346,1.312-1.994,1.994c-0.117,0.123-0.23,0.248-0.346,0.371c-0.197,0.211-0.396,0.422-0.589,0.637
	c-0.181,0.198-0.356,0.4-0.533,0.6c-0.122,0.138-0.245,0.275-0.365,0.415c-0.216,0.25-0.429,0.504-0.64,0.758
	c-0.074,0.09-0.15,0.178-0.225,0.269c-0.239,0.291-0.475,0.585-0.708,0.879c-0.042,0.053-0.085,0.107-0.128,0.16
	c-0.254,0.324-0.504,0.651-0.75,0.979c-0.02,0.026-0.039,0.051-0.058,0.077c-0.262,0.352-0.521,0.705-0.774,1.062
	c-0.003,0.004-0.006,0.009-0.009,0.013c-1.056,1.484-2.031,3.007-2.926,4.564c0,0.001-0.001,0.002-0.001,0.003
	c-0.22,0.383-0.436,0.768-0.646,1.155c-0.013,0.024-0.026,0.048-0.04,0.073c-0.196,0.362-0.388,0.726-0.575,1.091
	c-0.031,0.059-0.06,0.118-0.09,0.177c-0.169,0.331-0.333,0.662-0.495,0.996c-0.05,0.102-0.098,0.205-0.147,0.308
	c-0.139,0.291-0.275,0.582-0.409,0.875c-0.069,0.153-0.137,0.306-0.206,0.459c-0.109,0.245-0.216,0.49-0.321,0.735
	c-0.088,0.207-0.176,0.415-0.262,0.623c-0.08,0.194-0.159,0.387-0.237,0.581c-0.105,0.264-0.208,0.529-0.311,0.793
	c-0.054,0.141-0.107,0.281-0.161,0.422c-0.118,0.317-0.234,0.636-0.347,0.956c-0.032,0.091-0.064,0.182-0.096,0.273
	c-0.127,0.365-0.25,0.733-0.371,1.102c-0.015,0.047-0.03,0.094-0.045,0.141c-0.13,0.406-0.256,0.813-0.378,1.223
	c-0.003,0.012-0.007,0.024-0.011,0.037c-0.761,2.569-1.344,5.215-1.734,7.923c-0.001,0.013-0.003,0.024-0.005,0.037
	c-0.061,0.425-0.118,0.852-0.169,1.28c-0.005,0.046-0.011,0.092-0.016,0.138c-0.046,0.395-0.089,0.79-0.128,1.187
	c-0.009,0.091-0.016,0.182-0.024,0.272c-0.032,0.354-0.063,0.708-0.089,1.064c-0.01,0.149-0.019,0.299-0.028,0.449
	c-0.02,0.301-0.04,0.601-0.054,0.903c-0.011,0.239-0.018,0.479-0.027,0.717c-0.008,0.218-0.018,0.436-0.023,0.654
	c-0.023,0.931-0.023,1.863,0,2.793c0.005,0.22,0.016,0.437,0.023,0.654c0.009,0.239,0.016,0.479,0.027,0.719
	c0.015,0.302,0.035,0.601,0.054,0.901c0.01,0.15,0.018,0.301,0.028,0.449c0.026,0.355,0.057,0.709,0.089,1.062
	c0.008,0.092,0.015,0.184,0.024,0.273c0.039,0.396,0.082,0.791,0.128,1.186c0.005,0.047,0.011,0.094,0.016,0.141
	c0.051,0.426,0.108,0.854,0.169,1.277c0.001,0.014,0.003,0.025,0.005,0.039c0.39,2.708,0.973,5.354,1.733,7.922
	c0.004,0.014,0.008,0.027,0.012,0.04c0.121,0.408,0.247,0.813,0.377,1.22c0.016,0.049,0.031,0.096,0.047,0.146
	c0.12,0.366,0.242,0.733,0.369,1.097c0.032,0.094,0.065,0.186,0.098,0.278c0.112,0.317,0.227,0.635,0.345,0.95
	c0.054,0.143,0.108,0.285,0.163,0.428c0.101,0.263,0.204,0.525,0.309,0.787c0.078,0.195,0.158,0.39,0.239,0.586
	c0.085,0.206,0.171,0.412,0.259,0.615c0.106,0.248,0.214,0.494,0.324,0.742c0.067,0.149,0.135,0.301,0.203,0.451
	c0.135,0.295,0.272,0.59,0.412,0.883c0.048,0.101,0.095,0.199,0.144,0.299c0.163,0.338,0.329,0.673,0.499,1.006
	c0.029,0.056,0.057,0.111,0.086,0.169c0.189,0.366,0.382,0.733,0.58,1.099c0.011,0.021,0.023,0.043,0.034,0.064
	c1.275,2.346,2.729,4.621,4.363,6.805c0.015,0.021,0.03,0.04,0.045,0.061c0.25,0.334,0.504,0.666,0.763,0.994
	c0.037,0.049,0.075,0.096,0.113,0.144c0.238,0.301,0.479,0.6,0.723,0.897c0.067,0.081,0.136,0.162,0.205,0.243
	c0.219,0.263,0.438,0.522,0.661,0.781c0.111,0.129,0.224,0.254,0.335,0.381c0.187,0.212,0.373,0.426,0.563,0.636
	c0.178,0.196,0.36,0.389,0.541,0.584c0.132,0.141,0.261,0.282,0.395,0.424c0.683,0.717,1.385,1.414,2.104,2.095
	c0.129,0.122,0.26,0.241,0.39,0.362c0.246,0.229,0.493,0.455,0.743,0.679c0.166,0.149,0.332,0.297,0.499,0.442
	c0.211,0.186,0.424,0.366,0.638,0.549c0.191,0.162,0.382,0.326,0.576,0.487c0.136,0.112,0.274,0.222,0.411,0.333
	c0.507,0.41,1.02,0.813,1.538,1.203c0.086,0.066,0.171,0.133,0.258,0.197c0.297,0.221,0.596,0.438,0.896,0.654
	c0.089,0.062,0.177,0.127,0.267,0.189c0.314,0.223,0.629,0.441,0.946,0.656c0.054,0.035,0.108,0.072,0.163,0.107
	c1.412,0.95,2.858,1.83,4.333,2.637c0.108,0.06,0.216,0.119,0.324,0.178c0.297,0.16,0.596,0.316,0.895,0.472
	c0.156,0.081,0.312,0.159,0.468,0.238c0.271,0.138,0.543,0.272,0.816,0.406c0.219,0.106,0.44,0.209,0.662,0.312
	c0.219,0.104,0.438,0.208,0.658,0.309c0.451,0.203,0.905,0.402,1.363,0.595c0.067,0.028,0.136,0.055,0.204,0.084
	c0.421,0.175,0.844,0.345,1.269,0.51c0.08,0.031,0.161,0.062,0.241,0.093c0.427,0.164,0.857,0.322,1.291,0.477
	c0.055,0.02,0.11,0.039,0.165,0.058c5.851,2.058,12.143,3.181,18.697,3.181c0.073,0,0.145-0.002,0.218-0.002
	c0.07,0,0.139-0.002,0.209-0.002c0.456-0.004,0.912-0.013,1.364-0.026c0.085-0.002,0.17-0.007,0.255-0.011
	c0.453-0.017,0.903-0.037,1.353-0.063c0.065-0.004,0.133-0.009,0.197-0.012c0.489-0.031,0.976-0.068,1.459-0.111
	c0.022-0.002,0.047-0.004,0.069-0.006c7.528-0.679,14.628-2.839,21.009-6.187l0.004,0.006c0.131-0.066,0.258-0.143,0.387-0.211
	c0.315-0.17,0.631-0.344,0.943-0.519C166.17,187.902,166.501,187.714,166.829,187.521z"/>
<g>
	<path fill="#02638C" d="M138.726,89.253c5.98,9.507,11.562,19.414,17.158,29.302c-11.352,0-22.702,0-34.053,0
		C127.138,108.463,133.142,99.07,138.726,89.253z M133.709,112.22c0.3,1.199,1.486,2.662,2.904,2.905
		c3.332,0.569,3.806-3.131,3.433-5.015c1.554,0.711,2.368,3.206,1.319,5.015c8.498-5.776-2.877-12.635-1.848-20.062
		C138.592,97.986,132.058,105.618,133.709,112.22z"/>
	<g>
		<polygon fill="#02638C" points="154.016,158.766 154.016,158.717 123.701,158.717 139.121,173.617 154.014,158.727 		"/>
		<path fill="#02638C" d="M140.198,174.163l-0.289,0.252c0,0,0.074,0.06,0.21,0.168l13.895,13.426v-14.852l-2.234,1.006l2.234-3.731
			v-0.016l-5.443,3.747l5.443-6.813l-8.69,6.813l8.69-9.131l-11.576,9.131l11.576-12.019L140.198,174.163z"/>
	</g>
</g>
<g>
	<path fill="#FFFFFF" d="M138.225,88.753c5.981,9.507,11.562,19.414,17.159,29.302c-11.352,0-22.703,0-34.053,0
		C126.638,107.963,132.642,98.569,138.225,88.753z M133.209,111.72c0.3,1.199,1.486,2.662,2.904,2.905
		c3.331,0.569,3.806-3.131,3.433-5.015c1.554,0.711,2.368,3.206,1.319,5.015c8.498-5.776-2.876-12.635-1.847-20.062
		C138.091,97.486,131.557,105.118,133.209,111.72z"/>
	<g>
		<polygon fill="#FFFFFF" points="153.514,158.266 153.514,158.217 123.201,158.217 138.621,173.116 153.514,158.225 		"/>
		<path fill="#FFFFFF" d="M139.698,173.662l-0.29,0.252c0,0,0.075,0.061,0.209,0.168l13.895,13.426v-14.851l-2.234,1.006
			l2.234-3.731v-0.016l-5.443,3.747l5.443-6.813l-8.691,6.813l8.691-9.131l-11.576,9.13l11.576-12.018L139.698,173.662z"/>
	</g>
</g>
<g>
	<g>
		<path fill="#02638C" d="M183.127,135.292c-4.592-3.459-9.193-6.907-13.768-10.385c0.3-0.362,0.637-0.686,1.242-0.74
			c-0.002-0.045,0.02-0.069,0.051-0.079c0.195,0,0.389,0,0.582,0c0.138,0.098,0.33,0.086,0.502,0.159
			c0.57,0.24,1.059,0.82,1.533,1.295C176.529,128.801,179.925,132.031,183.127,135.292z"/>
		<path fill="#02638C" d="M173.35,135.846c-0.016,0.442-0.092,0.825-0.104,1.269c-0.381-0.116-0.78-0.308-1.242-0.344
			c-1.063-0.082-2.082,0.347-2.378,1.11c-0.596,1.537,0.732,2.971,2.352,2.511c0-0.388,0-0.775,0-1.163c-0.291,0-0.58,0-0.871,0
			c-0.062-0.31-0.012-0.73-0.026-1.083c0.749-0.062,1.61-0.01,2.403-0.027c0.062,1.031,0.011,2.176,0.027,3.25
			c-0.71,0.188-1.386,0.289-2.193,0.291c-1.987,0.005-3.325-1.049-3.436-2.802c-0.05-0.8,0.189-1.708,0.66-2.246
			C169.387,135.646,171.693,135.291,173.35,135.846z"/>
		<path fill="#02638C" d="M163.229,135.688c2.189-0.034,4.486-0.211,4.439,1.956c-0.031,1.42-1.257,1.991-2.906,1.876
			c-0.062,0.616-0.009,1.347-0.025,2.007c-0.459,0.062-1.03,0.011-1.532,0.027c-0.062-1.877-0.011-3.867-0.027-5.788
			C163.175,135.722,163.195,135.699,163.229,135.688z M165.95,137.115c-0.209-0.285-0.64-0.302-1.188-0.291
			c-0.062,0.468-0.01,1.049-0.027,1.559C165.725,138.624,166.449,137.795,165.95,137.115z"/>
		<path fill="#02638C" d="M174.354,135.688c1.356,0.018,2.782-0.035,4.096,0.026c0,0.361,0,0.723,0,1.083
			c-0.803,0.062-1.717,0.009-2.562,0.026c0,0.388,0,0.775,0,1.163c0.803,0,1.604,0,2.405,0c0,0.378,0,0.757,0,1.136
			c-0.802,0-1.604,0-2.405,0c0,0.431,0,0.863,0,1.294c0.872,0.018,1.814-0.035,2.644,0.027c0,0.362,0,0.722,0,1.083
			c-1.347,0.045-2.882,0.045-4.229,0c0-1.919,0-3.839,0-5.759C174.3,135.722,174.32,135.699,174.354,135.688z"/>
		<path fill="#02638C" d="M174.327,150.909c0.373-0.61,0.829-1.175,1.269-1.744c2.858-3.72,5.674-7.577,8.534-11.363
			c0.108-0.144,0.239-0.28,0.345-0.423c0.129-0.174,0.233-0.35,0.396-0.476c0.021,0.005,0.025,0.027,0.052,0.027
			c0.789,0.567,0.993,1.958,0.345,2.854c-0.36,0.496-0.904,0.931-1.375,1.401C180.734,144.343,177.43,147.798,174.327,150.909z"/>
		<path fill="#02638C" d="M158.923,141.845c-0.006-0.021,0.011-0.024,0.026-0.026c4.666,3.49,9.322,6.99,13.951,10.518
			c-0.396,0.689-1.545,1.068-2.404,0.688c-0.553-0.242-1.059-0.819-1.532-1.295C165.695,148.459,162.129,145.011,158.923,141.845z"
			/>
		<path fill="#02638C" d="M167.959,126.201c-0.792,1.209-1.74,2.316-2.615,3.488c-2.176,2.914-4.402,5.84-6.58,8.773
			c-0.436,0.586-0.857,1.179-1.348,1.718c-0.396-0.413-0.809-0.844-0.818-1.586c-0.014-0.95,0.69-1.575,1.215-2.087
			c1.586-1.548,3.156-3.244,4.73-4.809C164.423,129.828,166.229,127.981,167.959,126.201z"/>
	</g>
	<g>
		<path fill="#02638C" d="M106.074,124.471c0.073,0,0.146,0,0.22,0c3.014,3.384,5.589,9.086,4.256,15.701
			c-0.069,0.232-0.468-0.25-0.586-0.367c-3.2-3.131-6.354-6.511-9.539-9.538C102.19,128.218,104.246,126.458,106.074,124.471z"/>
		<path fill="#02638C" d="M100.425,130.267c-1.919,3.528-3.292,9.213-2.128,14.452c-0.382-0.005-0.573-0.428-0.807-0.658
			c-1.733-1.732-3.707-3.601-5.429-5.43C94.756,135.751,97.544,132.963,100.425,130.267z"/>
		<path fill="#02638C" d="M112.017,146.923c1.914-3.555,3.226-9.162,2.128-14.381c0.108-0.219,0.345,0.126,0.367,0.146
			c1.953,1.785,3.987,4.095,5.87,6.017C117.537,141.389,114.92,144.3,112.017,146.923z"/>
		<path fill="#02638C" d="M106.146,152.791c-3.02-3.415-5.53-8.908-4.328-15.772c0.271-0.034,0.501,0.282,0.66,0.438
			c3.116,3.05,6.292,6.453,9.539,9.464C110.152,148.97,108.195,150.927,106.146,152.791z"/>
	</g>
</g>
<g>
	<g>
		<path fill="#FFFFFF" d="M182.627,134.791c-4.592-3.459-9.193-6.907-13.768-10.385c0.299-0.362,0.636-0.687,1.242-0.74
			c-0.002-0.045,0.02-0.069,0.051-0.079c0.195,0,0.389,0,0.582,0c0.138,0.098,0.33,0.086,0.502,0.159
			c0.57,0.24,1.059,0.82,1.533,1.295C176.029,128.3,179.425,131.53,182.627,134.791z"/>
		<path fill="#FFFFFF" d="M172.85,135.346c-0.016,0.442-0.092,0.825-0.104,1.269c-0.381-0.116-0.78-0.308-1.242-0.344
			c-1.063-0.082-2.083,0.347-2.378,1.11c-0.598,1.537,0.732,2.971,2.352,2.51c0-0.387,0-0.775,0-1.162c-0.291,0-0.58,0-0.871,0
			c-0.062-0.31-0.012-0.73-0.026-1.083c0.749-0.062,1.61-0.01,2.403-0.027c0.062,1.031,0.01,2.176,0.026,3.25
			c-0.71,0.189-1.385,0.289-2.192,0.291c-1.987,0.005-3.326-1.048-3.437-2.801c-0.049-0.801,0.188-1.708,0.661-2.246
			C168.887,135.146,171.193,134.79,172.85,135.346z"/>
		<path fill="#FFFFFF" d="M162.729,135.187c2.189-0.034,4.485-0.211,4.439,1.956c-0.031,1.42-1.258,1.991-2.906,1.876
			c-0.062,0.616-0.01,1.347-0.025,2.008c-0.459,0.062-1.031,0.01-1.533,0.027c-0.062-1.877-0.01-3.868-0.026-5.788
			C162.675,135.221,162.695,135.198,162.729,135.187z M165.45,136.614c-0.209-0.285-0.64-0.302-1.188-0.291
			c-0.062,0.468-0.01,1.049-0.027,1.559C165.225,138.124,165.949,137.294,165.45,136.614z"/>
		<path fill="#FFFFFF" d="M173.854,135.187c1.356,0.018,2.782-0.035,4.096,0.026c0,0.361,0,0.723,0,1.083
			c-0.803,0.062-1.717,0.009-2.562,0.026c0,0.388,0,0.775,0,1.163c0.803,0,1.604,0,2.405,0c0,0.378,0,0.757,0,1.136
			c-0.803,0-1.604,0-2.405,0c0,0.431,0,0.863,0,1.295c0.872,0.018,1.814-0.035,2.644,0.026c0,0.361,0,0.723,0,1.083
			c-1.349,0.045-2.882,0.045-4.229,0c0-1.919,0-3.84,0-5.76C173.8,135.221,173.82,135.198,173.854,135.187z"/>
		<path fill="#FFFFFF" d="M173.827,150.408c0.373-0.61,0.829-1.174,1.269-1.744c2.858-3.719,5.674-7.577,8.534-11.363
			c0.108-0.144,0.239-0.28,0.345-0.423c0.127-0.174,0.233-0.35,0.396-0.476c0.021,0.005,0.026,0.027,0.052,0.027
			c0.789,0.567,0.993,1.958,0.346,2.854c-0.36,0.496-0.904,0.93-1.375,1.4C180.234,143.842,176.93,147.297,173.827,150.408z"/>
		<path fill="#FFFFFF" d="M158.422,141.344c-0.005-0.021,0.012-0.023,0.026-0.025c4.665,3.49,9.323,6.99,13.952,10.518
			c-0.396,0.689-1.545,1.066-2.405,0.688c-0.552-0.243-1.058-0.82-1.532-1.295C165.195,147.959,161.629,144.51,158.422,141.344z"/>
		<path fill="#FFFFFF" d="M167.459,125.701c-0.792,1.209-1.741,2.316-2.616,3.488c-2.175,2.914-4.401,5.84-6.579,8.773
			c-0.436,0.586-0.859,1.179-1.348,1.718c-0.396-0.413-0.809-0.844-0.82-1.586c-0.012-0.95,0.692-1.575,1.217-2.087
			c1.586-1.548,3.155-3.244,4.73-4.809C163.922,129.327,165.729,127.481,167.459,125.701z"/>
	</g>
	<g>
		<path fill="#FFFFFF" d="M105.573,123.97c0.073,0,0.146,0,0.22,0c3.014,3.384,5.589,9.086,4.256,15.701
			c-0.069,0.232-0.468-0.25-0.586-0.367c-3.2-3.131-6.354-6.511-9.539-9.538C101.69,127.718,103.746,125.958,105.573,123.97z"/>
		<path fill="#FFFFFF" d="M99.924,129.767c-1.919,3.528-3.292,9.213-2.128,14.451c-0.382-0.005-0.573-0.427-0.807-0.659
			c-1.733-1.731-3.707-3.6-5.429-5.429C94.256,135.25,97.044,132.462,99.924,129.767z"/>
		<path fill="#FFFFFF" d="M111.516,146.422c1.914-3.554,3.226-9.162,2.128-14.381c0.108-0.219,0.345,0.126,0.367,0.146
			c1.953,1.785,3.987,4.095,5.87,6.017C117.037,140.889,114.419,143.799,111.516,146.422z"/>
		<path fill="#FFFFFF" d="M105.646,152.29c-3.02-3.415-5.53-8.908-4.328-15.772c0.271-0.034,0.501,0.282,0.66,0.438
			c3.116,3.049,6.292,6.453,9.539,9.463C109.651,148.469,107.695,150.426,105.646,152.29z"/>
	</g>
</g>
</svg>
