<?xml version="1.0" encoding="utf-8"?>
<!-- Generator: Adobe Illustrator 15.0.2, SVG Export Plug-In . SVG Version: 6.00 Build 0)  -->
<!DOCTYPE svg PUBLIC "-//W3C//DTD SVG 1.1//EN" "http://www.w3.org/Graphics/SVG/1.1/DTD/svg11.dtd">
<svg version="1.1" id="Layer_1" xmlns="http://www.w3.org/2000/svg" xmlns:xlink="http://www.w3.org/1999/xlink" x="0px" y="0px"
	 width="140px" height="140px" viewBox="0 0 140 140" enable-background="new 0 0 140 140" xml:space="preserve">
<g>
	<g>
		<path fill="#606049" d="M108.889,49.531c-0.164-0.31-7.82-0.324-8.523-0.343c-0.59-0.013-2.299,1.164-2.842,1.548
			c-0.078-0.191-0.184-0.371-0.328-0.518c-0.264-0.26-0.615-0.365-0.975-0.344c-0.625-0.91-2.379-3.424-3.781-5.139
			c-1.736-2.123-3.057-3.968-3.242-3.671c-0.182,0.296,3.633,6.937,3.967,7.552c0.232,0.424,1.527,1.096,2.322,1.481
			c-0.289,0.164-0.537,0.41-0.678,0.729c-0.406,0.932-0.229,1.824,0.008,2.062c0.061,0.061,0.229,0.131,0.461,0.171
			c-0.6,1.296-1.453,3.195-2.029,4.715c-0.971,2.565-1.906,4.632-1.555,4.64c0.273,0.008,2.719-4.109,3.922-6.144l-0.602,26.677
			c0,0.354,0.566,0.637,1.271,0.637c0.699,0,1.27-0.282,1.27-0.637l-0.682-30.195c0.578-0.366,0.818-0.969,0.77-1.54
			c0.982-0.076,4.182-0.343,6.447-0.714C106.799,50.06,109.053,49.836,108.889,49.531z"/>
		<path fill="#606049" d="M96.463,51.483c-0.268-0.05-0.438-0.309-0.385-0.573c0.053-0.267,0.311-0.439,0.574-0.385
			c0.266,0.051,0.438,0.312,0.387,0.574C96.986,51.369,96.729,51.539,96.463,51.483z"/>
	</g>
	<path fill="#606049" d="M48.301,43.383c0.476-0.848,0.367-1.911-0.191-2.617c0.857-1.273,3.334-4.992,4.904-7.797
		c1.923-3.436,3.689-6.167,3.197-6.258c-0.494-0.086-7.354,8.498-8.002,9.271c-0.49,0.583-0.705,3.07-0.783,4.248
		c-0.931-0.396-2.17,0.027-2.746,0.977c-1.902-0.125-5.711-0.342-8.553-0.306c-3.938,0.052-7.188-0.114-7.018,0.36
		c0.168,0.47,11.031,2.12,12.025,2.294c0.562,0.099,1.974-0.47,3.092-0.981c-0.115,0.875,0.074,1.592,0.314,1.832
		c0.135,0.139,0.633,0.295,1.254,0.291l-0.969,42.854c0,0.505,0.818,0.913,1.826,0.913c1.009,0,1.828-0.408,1.828-0.913L47.5,44.216
		c0.01-0.009,0.021-0.017,0.032-0.025c0.86,1.744,2.538,5.063,3.963,7.459c2.013,3.384,3.497,6.281,3.821,5.896
		c0.324-0.381-3.68-10.612-4.027-11.562C51.053,45.332,49.35,44.098,48.301,43.383z M47.301,42.416
		c-0.297,0.25-0.742,0.213-0.994-0.084c-0.25-0.295-0.213-0.742,0.084-0.99c0.298-0.251,0.742-0.215,0.992,0.082
		C47.635,41.722,47.6,42.164,47.301,42.416z"/>
	<path fill="#3E91B4" d="M93.629,80.621c11.594,0.025,22.404,2.418,31.525,6.528c0.365-1.705,0.654-3.438,0.861-5.196
		c-6.105-1.512-12.666-2.334-19.494-2.334C102.092,79.621,97.779,79.968,93.629,80.621z"/>
	<path fill="#B2DBDB" d="M93.629,80.621c-0.062,0-0.129-0.002-0.191-0.002c-1.125,0-2.24,0.023-3.352,0.067
		c0.598,0.07,1.193,0.146,1.785,0.229c12.33,1.727,23.287,6.166,31.588,12.41c0.678-2.011,1.244-4.072,1.695-6.177
		C116.033,83.039,105.223,80.648,93.629,80.621z"/>
	<path fill="#3E91B4" d="M91.871,80.916c-0.592-0.082-1.189-0.157-1.785-0.229c-3.168-0.371-6.418-0.567-9.732-0.567
		c-3.316,0-6.566,0.196-9.734,0.567c3.326,0.132,6.578,0.458,9.734,0.964c1.533,0.245,3.051,0.531,4.537,0.86
		c14.822,3.272,27.15,10.569,34.459,20.091c1.637-2.939,3.018-6.042,4.109-9.275C115.158,87.082,104.201,82.643,91.871,80.916z"/>
	<path fill="#B2DBDB" d="M84.889,82.513c-1.486-0.329-3.002-0.615-4.539-0.861c-3.154-0.506-6.406-0.831-9.732-0.964
		c-1.109-0.044-2.226-0.068-3.351-0.068s-2.241,0.024-3.352,0.068c1.129,0.133,2.246,0.286,3.352,0.464
		c2.582,0.414,5.103,0.946,7.546,1.591c1.643,0.436,3.252,0.918,4.822,1.449c16.182,5.473,28.316,16.001,32.369,28.713
		c2.814-3.137,5.281-6.591,7.344-10.302C112.041,93.082,99.713,85.787,84.889,82.513z"/>
	<path fill="#3E91B4" d="M79.635,84.191c-1.57-0.531-3.18-1.015-4.822-1.447c-2.443-0.646-4.962-1.178-7.546-1.592
		c-1.105-0.178-2.223-0.33-3.352-0.464c-3.167-0.371-6.418-0.567-9.732-0.567c-3.271,0-6.478,0.189-9.604,0.554
		c3.366,0.116,6.657,0.438,9.854,0.938c1.875,0.294,3.715,0.651,5.519,1.068c2.604,0.603,5.134,1.327,7.565,2.169
		c1.883,0.65,3.707,1.372,5.47,2.154c16.645,7.396,27.75,20.494,27.895,35.447c4.113-2.69,7.854-5.904,11.123-9.55
		C107.953,100.193,95.816,89.664,79.635,84.191z"/>
	<path fill="#B2DBDB" d="M100.881,122.451c-0.145-14.951-11.252-28.052-27.895-35.444c-1.766-0.783-3.588-1.507-5.47-2.155
		c-2.435-0.842-4.961-1.566-7.566-2.17c-1.803-0.416-3.645-0.771-5.52-1.066c-3.194-0.5-6.485-0.822-9.853-0.939
		c-0.987-0.034-1.981-0.053-2.981-0.053c-2.67,0-5.297,0.127-7.873,0.371c1.421,0.207,2.824,0.45,4.207,0.729
		c2.535,0.512,5,1.146,7.385,1.881c1.957,0.604,3.859,1.282,5.701,2.028c2.449,0.99,4.787,2.105,7.002,3.326
		c2.021,1.115,3.938,2.322,5.738,3.61c10.638,7.614,17.212,18.099,17.212,29.677c0,2.928-0.42,5.781-1.219,8.539
		C87.441,129.455,94.596,126.563,100.881,122.451z"/>
	<path fill="#3E91B4" d="M63.758,92.569c-1.802-1.288-3.719-2.493-5.74-3.61c-2.213-1.221-4.553-2.336-7.002-3.326
		c-1.84-0.746-3.743-1.424-5.7-2.028c-2.386-0.735-4.849-1.368-7.384-1.881c-1.383-0.279-2.785-0.522-4.209-0.729
		c-3.887-0.57-7.916-0.871-12.041-0.871c-2.609,0-5.178,0.121-7.698,0.354c0.146,1.604,0.356,3.188,0.635,4.751
		c0.3,1.679,0.677,3.33,1.12,4.954c0.789,2.882,1.797,5.674,3.012,8.352c1.563,3.445,3.465,6.705,5.659,9.737
		c2.86,3.953,6.22,7.521,9.99,10.608c4.006,3.283,8.473,6.021,13.29,8.111c6.863,2.977,14.432,4.629,22.389,4.629
		c3.298,0,6.531-0.287,9.673-0.83c0.799-2.76,1.219-5.613,1.219-8.539C80.969,110.668,74.396,100.184,63.758,92.569z"/>
	<path fill="#606049" d="M79.189,25.738c2.188,0.812,7.777,2.846,11.938,4.019c5.285,1.489,9.566,2.989,9.521,2.292
		c-0.035-0.695-13.91-7.194-15.17-7.82c-1.014-0.506-4.84,0.113-6.301,0.374c-0.109-0.644-0.4-1.25-0.854-1.703
		c-0.289-0.291-0.641-0.479-1.02-0.59c-0.291-1.75-1.414-8.313-2.576-12.892c-1.355-5.318-2.193-9.774-2.777-9.396
		c-0.582,0.386,0.727,15.646,0.812,17.052c0.068,1.092,2.363,3.942,3.379,5.15c-1.072,0.141-2.127,0.828-2.594,1.895
		c-0.406,0.932-0.521,1.842-0.479,2.582c-2.191,1.846-5.42,4.631-7.795,6.943c-3.929,3.833-7.372,6.791-6.748,7.107
		c0.624,0.312,13.186-8.45,14.358-9.231c0.523-0.347,1.18-1.614,1.746-2.914c0.207,0.031,0.432,0.041,0.674,0.04l-1.352,59.741
		c0,0.702,1.139,1.272,2.549,1.272c1.404,0,2.543-0.57,2.543-1.272L77.68,27.988C78.566,27.438,79.047,26.609,79.189,25.738z
		 M78.025,24.453c-0.057,0.539-0.543,0.926-1.082,0.869c-0.539-0.062-0.93-0.546-0.865-1.084c0.059-0.541,0.541-0.926,1.08-0.869
		C77.695,23.43,78.086,23.914,78.025,24.453z"/>
</g>
</svg>
