<?xml version="1.0" encoding="utf-8"?>
<!-- Generator: Adobe Illustrator 15.0.2, SVG Export Plug-In . SVG Version: 6.00 Build 0)  -->
<!DOCTYPE svg PUBLIC "-//W3C//DTD SVG 1.1//EN" "http://www.w3.org/Graphics/SVG/1.1/DTD/svg11.dtd">
<svg version="1.1" id="Layer_1" xmlns="http://www.w3.org/2000/svg" xmlns:xlink="http://www.w3.org/1999/xlink" x="0px" y="0px"
	 width="140px" height="140px" viewBox="0 0 140 140" enable-background="new 0 0 140 140" xml:space="preserve">
<g>
	<circle fill="#3E91B4" cx="70" cy="74.004" r="56.334"/>
	<g>
		<g>
			<g>
				<defs>
					<circle id="SVGID_1_" cx="70" cy="74.004" r="56.334"/>
				</defs>
				<clipPath id="SVGID_2_">
					<use xlink:href="#SVGID_1_"  overflow="visible"/>
				</clipPath>
				<g id="stats_1_" clip-path="url(#SVGID_2_)">
					<g>
						<polygon opacity="0.3" fill="#F5F5F5" enable-background="new    " points="28.031,98.734 33.825,98.734 36.811,95.316 
							28.031,95.316 						"/>
						<path opacity="0.3" fill="#F5F5F5" enable-background="new    " d="M97.352-38.219v-0.711h-3.418v7.568
							C93.934-34.177,95.398-36.647,97.352-38.219z"/>
						<path opacity="0.3" fill="#F5F5F5" enable-background="new    " d="M38.771,23.333l3.416-3.983v-3.604h0.131
							c-0.107-1.466-0.235-1.062-0.235-1.638c0-0.617,0.067-1.779,0.192-1.779h-0.086V2.564h9.763v2.459
							c1.952,0.267,2.44,0.805,4.394,1.568V2.564h9.764v1.248l3.416-1.521v0.274h2.338l1.351-1.145
							c-0.043-0.35-0.106-1.243-0.106-1.607c0-0.616,0.067-1.642,0.191-1.642h-3.771v-9.764h10.74v2.812
							c0-0.115,0.871-0.175,1.463-0.175c0.602,0,0.978,0.094,1.465,0.219v-2.855h3.822l2.271-3.417h-6.096v-10.74h10.74v3.008
							l2.047-3.104c-1.258-1.498-2.047-3.402-2.047-5.517v2.683h-10.74v-10.252h-2.928v10.251h-10.74v-10.251h-3.416v10.251h-9.764
							v-10.251h-4.394v10.251h-9.763v-10.251h-3.418v10.251H28.032v2.929h10.739v10.74H28.032v3.417h10.739v9.764H28.032v4.394
							h10.739v9.763H28.032v3.417h10.739V23.333L38.771,23.333z M69.525-25.75h10.74v10.74h-10.74V-25.75z M56.346-25.75h9.762
							v10.74h-9.762V-25.75z M56.346-11.593h9.762v9.764h-9.762V-11.593z M42.188-25.75h9.764v10.74h-9.764V-25.75z M42.188-11.593
							h9.764v9.764h-9.764V-11.593z"/>
						<path opacity="0.3" fill="#F5F5F5" enable-background="new    " d="M166.672-38.219v-0.711h-3.418v7.568
							C163.254-34.177,164.719-36.647,166.672-38.219z"/>
						<path opacity="0.3" fill="#F5F5F5" enable-background="new    " d="M176.923-11.593v-3.417h-10.251v-3.564l-4.143,6.981h0.725
							v9.764h-3.809c0.129,0,0.217,1.647,0.217,2.267c0,0.566-0.061-0.314-0.169,2.127h3.761v9.763h-10.74V8.104
							c-0.488,0.114-0.871,0.174-1.464,0.174s-1.464-0.073-1.464-0.188v4.237h-10.74V7.941l-3.418,1.524v2.86h-4.848l-2.033,0.724
							c0.031,0.299,0.092,0.413,0.092,0.72c0,0.564-0.061,0.51-0.168,1.975h6.957v10.74h-9.764v-6.179
							c-1.951,0.761-2.439,1.328-4.393,1.587v4.592h-8.305l-3.51,3.418h-1.368v1.332v8.918l0,0H97.352v-9.541V29.9l0,0h5.793h4.457
							v-3.416h-1.473h-8.777V15.745h10.25h0.487v7.588l3.417-3.983v-3.604h0.132c-0.106-1.466-0.235-1.062-0.235-1.638
							c0-0.617,0.066-1.779,0.19-1.779h-0.087V2.564h9.766v2.459c1.953,0.267,2.439,0.805,4.393,1.568V2.564h9.764v1.248
							l3.418-1.521v0.274h2.338l1.352-1.145c-0.043-0.35-0.107-1.243-0.107-1.607c0-0.616,0.068-1.642,0.192-1.642h-3.771v-9.764
							h10.738v2.812c0-0.115,0.871-0.175,1.464-0.175c0.601,0,0.978,0.094,1.466,0.219v-2.855h3.82l2.271-3.417h-6.094v-10.74
							h10.739v3.008l2.047-3.104c-1.26-1.498-2.047-3.402-2.047-5.517v2.683h-10.739v-10.252h-2.929v10.251h-10.739v-10.251h-3.419
							v10.251h-9.764v-10.251h-4.394v10.251h-9.765v-10.251h-3.417v10.251H97.352v2.929h10.738v10.74h-0.488h-10.25v-3.564
							l-4.144,6.981h0.726v9.764h-3.809c0.128,0,0.216,1.647,0.216,2.267c0,0.566-0.062-0.314-0.168,2.127h3.761v9.763h-10.74V8.104
							c-0.487,0.114-0.871,0.174-1.465,0.174c-0.593,0-1.463-0.073-1.463-0.188v4.237h-10.74V7.941l-3.418,1.524v2.86H61.26
							l-2.033,0.724c0.03,0.299,0.092,0.413,0.092,0.72c0,0.564-0.062,0.51-0.168,1.975h6.957v10.74h-9.763v-6.179
							c-1.952,0.761-2.44,1.328-4.394,1.587v4.592H36.811h-1.427h-7.353V29.9h5.793l1.215-1.389l-0.25,1.465l3.98,0.017v10.159l0,0
							h-10.74v2.929h10.74V53.82h-10.74v3.418h10.74v9.764h-10.74v4.395h10.74v9.764h-10.74v3.416h10.74v7.59l3.418-3.984v-3.604
							h0.131c-0.108-1.465-0.236-1.062-0.236-1.639c0-0.617,0.066-1.777,0.191-1.777h-0.086v-9.764h9.764v2.459
							c1.953,0.267,2.441,0.805,4.395,1.568v-4.027h9.762v1.248l3.418-1.521v0.273h2.338l1.35-1.144
							c-0.043-0.351-0.107-1.243-0.107-1.606c0-0.617,0.068-1.643,0.192-1.643h-3.772v-9.764h10.74v2.812
							c0-0.114,0.871-0.176,1.465-0.176c0.601,0,0.977,0.094,1.463,0.219v-2.854h3.822l2.271-3.418h-6.094V43.085h10.74v12.937
							l-0.727,1.221h0.727v9.764h-3.81c0.128,0,0.216,1.646,0.216,2.268c0,0.565-0.062-0.314-0.168,2.127h3.762v9.764h-10.74v-4.225
							c-0.488,0.113-0.871,0.174-1.465,0.174s-1.463-0.072-1.463-0.188v4.238H69.523v-4.387l-3.416,1.523v2.861h-4.849l-2.032,0.724
							c0.029,0.3,0.09,0.413,0.09,0.72c0,0.564-0.061,0.51-0.168,1.975h6.959v10.738h-9.764v-6.178
							c-1.953,0.76-2.441,1.326-4.394,1.586v4.592h-8.304l-4.877,4.75v8.92h3.418V98.734h9.763v10.25h4.394v-10.25h9.764v10.25
							h3.416v-10.25h10.742v10.25h2.928v-10.25h10.74v10.25h3.418v-10.25h5.793h4.944v1.332v6.756v2.162h3.417v-6.146v-4.104h9.766
							v4.437v5.815h4.393v-4.248v-6.004h9.764v10.252h3.418V98.734h10.74v10.25h2.928v-10.25h10.74v10.25h3.418v-10.25h10.251
							v-3.418h-10.251v-10.74h10.251V81.16h-10.251v-9.764h10.251v-4.395h-10.251v-9.764h10.251V53.82h-10.251v-3.563l-4.143,6.981
							h0.725v9.764h-3.809c0.129,0,0.217,1.646,0.217,2.268c0,0.565-0.061-0.314-0.169,2.127h3.761v9.764h-10.74v-4.225
							c-0.488,0.113-0.871,0.176-1.464,0.176s-1.464-0.074-1.464-0.189v4.238h-10.74v-4.385l-3.418,1.521v2.861h-9.764v-9.764h9.764
							v1.248l3.418-1.521v0.273h2.338l1.352-1.144c-0.043-0.351-0.107-1.243-0.107-1.606c0-0.617,0.068-1.643,0.192-1.643h-3.771
							v-9.764h10.738v2.812c0-0.114,0.871-0.176,1.464-0.176c0.601,0,0.978,0.094,1.466,0.219v-2.854h3.82l2.271-3.418h-6.094
							V43.081h10.739v3.008l2.047-3.104c-0.696-0.828-1.241-1.787-1.598-2.834h2.969v-9.539V29.9l0,0h10.251v-3.416h-10.251V15.745
							h10.251v-3.417h-10.251V2.564h10.251V-1.83h-10.251v-9.764L176.923-11.593L176.923-11.593z M138.846-25.75h10.74v10.74h-10.74
							V-25.75z M125.664-25.75h9.764v10.74h-9.764V-25.75z M125.664-11.593h9.764v9.764h-9.764V-11.593z M111.508-25.75h9.764v10.74
							h-9.764V-25.75z M111.508-11.593h9.764v9.764h-9.764V-11.593z M97.352-11.593h10.252h0.487v9.764h-0.487H97.352V-11.593z
							 M97.352,2.564h10.252h0.487v9.763h-0.487H97.352V2.564z M51.951,67.003h-9.764v-9.765h9.764V67.003z M51.951,53.822h-9.764
							v-10.74h9.764V53.822z M51.951,29.902v10.25l0,0h-9.764l0,0v-10.25l0,0H51.951L51.951,29.902z M66.107,67.003h-9.762v-9.765
							h9.762V67.003z M66.107,53.822h-9.762v-10.74h9.762V53.822z M66.107,29.902v10.25l0,0h-9.762l0,0v-10.25l0,0H66.107
							L66.107,29.902z M80.266,53.822h-10.74v-10.74h10.74V53.822z M80.266,29.902v10.25l0,0h-10.74l0,0v-10.25l0,0H80.266
							L80.266,29.902z M80.266,26.484h-10.74V15.745h10.74V26.484z M80.266,95.316h-10.74v-10.74h10.74V95.316z M93.934,95.316
							h-10.74v-10.74h10.74V95.316z M94.507,50.161c-0.044,0.103-0.085,0.114-0.124,0H94.507z M83.193,15.745h10.74v10.739h-10.74
							V15.745z M83.193,40.152L83.193,40.152v-10.25l0,0h10.74l0,0v7.567v2.683l0,0H83.193z M108.091,95.316h-1.96h-8.779v-10.74
							h1.807h8.445h0.487V95.316z M108.091,81.16h-0.487h-6.336h-3.916v-9.764h10.252h0.487V81.16z M108.091,67.003h-0.487H97.352
							v-9.765h10.252h0.487V67.003z M108.091,53.822h-0.487H97.352v-3.564l-3.398,5.73l0.908-5.828h2.49v-7.078h10.739V53.822z
							 M121.271,90.725v4.592h-8.305h-1.461V84.578h0.133h9.633V90.725z M121.271,81.16h-9.679h-0.087v-9.764h9.766V81.16z
							 M121.271,67.003h-9.766v-9.765h9.766V67.003z M121.271,53.822h-9.766v-10.74h9.766V53.822z M121.271,29.902v10.25l0,0h-9.766
							l0,0v-10.25l0,0H121.271L121.271,29.902z M152.514,84.576h10.74v10.74h-10.74V84.576z M138.846,84.576h10.74v10.74h-10.74
							V84.576z M135.428,84.576v10.74h-9.764v-6.18v-4.562L135.428,84.576L135.428,84.576z M135.428,67.003h-9.764v-9.765h9.764
							V67.003L135.428,67.003z M135.428,53.822h-9.764v-10.74h9.764V53.822L135.428,53.822z M135.428,29.902v10.25l0,0h-9.764l0,0
							v-10.25l0,0H135.428L135.428,29.902z M149.586,53.822h-10.74v-10.74h10.74V53.822z M149.586,29.902v10.25l0,0h-10.74l0,0
							v-10.25l0,0H149.586L149.586,29.902z M149.586,26.484h-10.74V15.745h10.74V26.484z M163.254,29.902v7.567v2.683l0,0h-10.74
							l0,0v-10.25l0,0H163.254L163.254,29.902z M163.254,26.484h-10.74V15.745h10.74V26.484z"/>
					</g>
				</g>
			</g>
		</g>
	</g>
	<path fill="#FBAF40" d="M108.912,39.582c4.76,0,8.617-3.852,8.617-8.618c0-0.853-0.127-1.671-0.357-2.448
		c-0.92-3.113-3.547-5.481-6.799-6.037c-0.477-0.082-0.962-0.133-1.461-0.133c-4.76,0-8.617,3.852-8.617,8.618
		c0,2.114,0.787,4.021,2.047,5.517L84.391,60.338c-0.842-0.275-1.729-0.462-2.666-0.462c-4.762,0-8.619,3.853-8.619,8.618
		c0,0.363,0.064,0.707,0.107,1.057l-16.042,7.092c-1.579-1.811-3.878-2.979-6.47-2.979c-4.76,0-8.618,3.852-8.618,8.617
		c0,1.633,0.423,3.141,1.211,4.438l-15.108,17.393V36.257c-2.438,2.698-4.617,5.634-6.5,8.769v57.957
		c2.877,4.787,6.446,9.112,10.568,12.838h75.492c1.939-1.754,3.758-3.642,5.438-5.646v-1.354h-81.47l15.502-18.291
		c1.067,0.476,2.242,0.56,3.484,0.56c4.76,0,8.618-3.944,8.618-8.713c0-0.306-0.062-0.644-0.092-0.94l16.129-7.154
		c1.574,1.742,3.834,2.843,6.367,2.843c4.76,0,8.617-3.856,8.617-8.624c0-1.939-0.658-3.712-1.738-5.15l18.103-24.086
		C107.411,39.452,108.145,39.582,108.912,39.582z"/>
</g>
</svg>
