<?xml version="1.0" encoding="utf-8"?>
<!-- Generator: Adobe Illustrator 15.0.2, SVG Export Plug-In . SVG Version: 6.00 Build 0)  -->
<!DOCTYPE svg PUBLIC "-//W3C//DTD SVG 1.1//EN" "http://www.w3.org/Graphics/SVG/1.1/DTD/svg11.dtd">
<svg version="1.1" id="Layer_1" xmlns="http://www.w3.org/2000/svg" xmlns:xlink="http://www.w3.org/1999/xlink" x="0px" y="0px"
	 width="140px" height="140px" viewBox="0 0 140 140" enable-background="new 0 0 140 140" xml:space="preserve">
<g>
	<circle fill="#3E91B4" cx="70" cy="75.659" r="56.334"/>
	<polygon fill="#DADCD7" points="75.48,17.085 78.23,13.772 85.73,13.241 94.73,16.226 104.23,21.717 115.708,34.963 117.686,40.46 
		117.686,49.96 113.958,56.71 112.971,61.21 110.727,66.71 108.479,72.21 104.73,81.96 103.98,87.71 97.23,95.71 89.23,101.21 
		78.23,103.21 70.48,111.21 53.958,107.96 55.186,96.21 55.186,87.96 44.208,82.21 36.971,74.46 35.227,67.21 37.479,60.96 
		37.23,55.46 39.957,49.21 42.186,46.96 42.186,42.96 43.458,38.46 45.471,34.21 44.977,28.96 47.479,24.21 51.48,20.96 
		57.23,19.71 63.23,19.96 65.98,20.46 69.48,21.96 73.107,23.089 76.139,20.635 	"/>
	<path fill="#02638C" d="M79.957,35.758c0.416,0.756,0.659,1.476,0.586,2.106c-0.211,1.861-4.988,0.346-8.67-0.682
		c-3.45-0.963-8.542-3.125-8.184-4.637c0.357-1.513,7.113,0.25,10.244,1.244C76.379,34.573,78.943,35.42,79.957,35.758
		L79.957,35.758z M112.221,55.971l-0.322,0.369c-2.683,2.451-12.315,10.593-29.916,9.24c-17.688-1.364-27.674-7.071-29.979-8.904
		c-2.302-1.831-2.964-0.61-0.936,1.039c2.025,1.647,11.765,9.017,30.66,10.712c16.467,1.482,27.045-5.416,29.488-7.211
		c-0.072,0.905-0.206,1.799-0.417,2.417c-0.422,1.224-2.002,3.418-2.983,4.586c-2.906,3.208-12.108,9.718-27.625,10.384
		c-14.129,0.605-27.84-6.008-31.116-7.918c-2.589-1.508-3.069-0.293-0.693,1.322c3.298,2.242,14.493,9.98,31.925,9.659
		c14.531-0.271,23.525-6.045,26.4-8.21c-0.146,0.748-0.365,1.587-0.725,2.452c-1.223,2.97-3.299,5.559-3.32,5.581
		c-1.98,2.395-9.874,8.199-19.406,9.008c-9.529,0.805-15.572-0.02-15.714,0.484c-0.14,0.5,5.362,2.58,15.489,2.264
		c8.936-0.277,16.19-5.021,18.979-7.115c-0.158,1.59-0.975,4.311-4.227,7.426c-6.191,5.934-12.049,8.148-20.455,7.73
		c-8.402-0.419-13.219-2.281-13.219-2.281l-0.004,0.018c-0.592-0.235-1.318-0.537-1.756-0.781c-0.832-0.477-1.748-0.825-1.97-0.549
		c-0.196,0.24,0.646,1.894,3.203,3.205l-0.872,3.129c-0.165,0.592-2.611,0.262-3.445,0.027c-0.387-0.105-2.772-0.922-2.584-1.602
		l2.902-10.408l0.917-3.309l-2.274-0.808c-0.088-0.026-8.908-2.987-15.17-8.569c-4.709-4.194-6.854-8.569-6.207-12.643
		c0.41-2.578,1.598-3.395,1.647-3.424l-0.152,0.083l2.5-1.427l-0.668-2.668c-0.008-0.029-0.776-3.172,0.12-5.983
		c0.678-2.12,1.792-2.747,1.838-2.772l-0.15,0.07l2.867-1.316l-0.767-2.936c-0.233-0.895-0.733-3.857,0.017-5.656
		c0.811-1.933,1.998-2.598,2.043-2.625l-0.103,0.049l0.358-0.176c2.172,3.172,7.135,9.082,15.526,12.096
		c8.15,2.927,19.9,5.855,28.13,1.214c8.23-4.642,6.838-14.14,5.719-16.121c-1.114-1.983-1.459-1.746-1.148-0.269
		c0.312,1.482,1.812,9.086-5.005,13.76c-6.819,4.675-16.933,2.576-26.278-0.862c-9.346-3.442-13.463-10.489-14.956-12.995l0,0
		l-0.508-1.277c-0.083-0.195-1.873-4.854,1.401-8.608c2.723-3.122,7.685-4.322,14.748-3.565c4.207,0.454,7.764,1.43,7.797,1.438
		l1.285,0.348c0.342,1.899,1.023,4.404,2.44,6.69c0.54,0.879,1.373,1.875,2.203,2.899c-1.206-0.47-3.081-1.102-5.692-1.702
		c-4.953-1.134-10.215-1.797-11.324,0.621c-1.11,2.416,2.399,5.381,10.285,7.764c7.888,2.384,12.09,2.627,12.646-0.254
		c0.559-2.879-1.458-3.875-4.415-8.603c-2.929-4.687-3.11-9.78-3.11-9.871c0.01-0.556,0.034-1.097,0.084-1.53
		c0.18-1.601,0.738-4.441,5.285-4.72c6.954-0.427,19.057,4.15,30.271,18.458C121.52,45.272,112.602,55.541,112.221,55.971
		L112.221,55.971z M114.611,30.618c-11.836-15.096-25-20.342-33.324-19.829c-8.323,0.511-8.502,8.483-8.502,8.483
		s-3.793-1.058-8.376-1.547c-4.583-0.492-12.993-0.793-17.849,4.775c-4.856,5.566-2.023,12.334-2.023,12.334
		s-2.344,1.077-3.762,4.456c-1.414,3.384-0.178,7.976-0.178,7.976s-2.488,1.036-3.736,4.936c-1.243,3.9-0.176,7.973-0.176,7.973
		s-2.666,1.383-3.399,5.977c-0.64,4.037,0.44,9.719,7.366,15.896c4.549,4.053,10.19,6.783,13.543,8.188l0,0
		c-7.867,0.01-14.207,3.102-15.67,8.35c-0.18,0.646-0.252,1.305-0.28,1.969l-2.772,19.654c-1.348,4.83,2.459,10.318,8.961,13.863
		c-0.375,2.145,1.953,4.578,5.401,5.539c3.446,0.961,6.7,0.082,7.489-1.943c7.393,0.33,13.492-2.396,14.84-7.229l7.794-18.254
		c0.321-0.582,0.601-1.185,0.78-1.83c0.516-1.845,0.369-3.771-0.318-5.673c7.184-0.032,14.158-3.067,19.855-8.528
		c6.869-6.578,5.188-12.396,5.188-12.396s2.396-2.945,3.846-6.477c1.459-3.524,1.248-6.731,1.248-6.731s2.814-3.303,3.652-5.746
		c0.834-2.44,0.684-6.417,0.684-6.417S126.445,45.72,114.611,30.618L114.611,30.618z"/>
</g>
</svg>
