<?xml version="1.0" encoding="utf-8"?>
<!-- Generator: Adobe Illustrator 15.0.2, SVG Export Plug-In . SVG Version: 6.00 Build 0)  -->
<!DOCTYPE svg PUBLIC "-//W3C//DTD SVG 1.1//EN" "http://www.w3.org/Graphics/SVG/1.1/DTD/svg11.dtd">
<svg version="1.1" id="Layer_1" xmlns="http://www.w3.org/2000/svg" xmlns:xlink="http://www.w3.org/1999/xlink" x="0px" y="0px"
	 width="140px" height="140px" viewBox="70 70 140 140" enable-background="new 70 70 140 140" xml:space="preserve">
<g>
	<circle fill="#3E91B4" cx="140" cy="140" r="56.334"/>
	<g>
		<polygon fill="#DADCD7" points="86.934,151.19 87.184,146.815 89.809,131.316 93.434,122.191 98.559,112.941 105.059,106.691 
			116.559,100.816 129.809,99.441 138.434,99.816 147.434,100.816 160.434,106.941 171.184,118.441 178.434,139.44 179.559,149.315 
			165.684,162.815 138.809,165.065 116.684,164.94 87.059,155.94 		"/>
		<g>
			<path fill="#5F604B" d="M194.251,150.817c-5.164-4.838-13.968-9.76-13.968-9.76s-2.264-15.147-10.553-25.653
				c-8.293-10.505-17.661-17.231-35.215-18.044c-17.551-0.82-31.159,4.623-40.276,19.318c-9.119,14.697-9.119,34.837-9.255,36.878
				c-0.138,2.043,1.498,4.084,6.261,6.125c0,0,5.986,3.126,23.813,8.027c17.824,4.897,49.014,7.807,55.758,6.804
				C177.562,173.509,200.467,156.646,194.251,150.817z M168.135,155.88c-6.945,3.701-18.604,5.996-29.097,7.107
				c-0.592,0.002-1.262,0.026-2.115,0.112c-22.118,2.193-45.485-8.44-49.172-12.604c0.943-16.632,5.205-26.792,8.708-32.435
				c4.661-7.515,10.593-12.604,18.116-15.444c4.561-1.452,12.935-2.771,24.245,2.104c15.244,6.572,19.48,25.12,20.088,26.786
				c1.096,3.016,3.309,2.393,2.324-1.179c-0.95-3.47-4.43-21.498-20.442-28.074c-2.574-1.058-5.012-1.792-7.325-2.305
				c0.313,0.009,0.615,0.007,0.933,0.021c4.322,0.202,8.094,0.777,11.45,1.678c1.922,0.731,3.941,1.663,6.033,2.852
				c12.439,7.062,15.629,20.675,16.293,22.32c1.199,2.976,3.26,2.427,2.364-1.058c-0.407-1.578-1.224-5.096-3.149-9.098
				c0.096,0.121,0.194,0.235,0.291,0.356c7.748,9.816,10,24.279,10.021,24.424l0.197,1.309
				C177.896,142.754,180.143,149.479,168.135,155.88z"/>
			<path fill="#5F604B" d="M128.516,113.891c-11.237-4.48-21.899-1.652-25.75,0.439c-3.213,1.745-2.082,3.211,0.34,2.111
				c2.419-1.101,11.449-4.844,23.77-0.224c13.397,5.024,18.396,18.457,19.308,19.976c1.651,2.751,3.896,2.125,2.469-1.174
				C147.221,131.719,141.844,119.203,128.516,113.891z"/>
		</g>
	</g>
</g>
</svg>
