<?xml version="1.0" encoding="utf-8"?>
<!-- Generator: Adobe Illustrator 15.0.2, SVG Export Plug-In . SVG Version: 6.00 Build 0)  -->
<!DOCTYPE svg PUBLIC "-//W3C//DTD SVG 1.1//EN" "http://www.w3.org/Graphics/SVG/1.1/DTD/svg11.dtd">
<svg version="1.1" id="Layer_1" xmlns="http://www.w3.org/2000/svg" xmlns:xlink="http://www.w3.org/1999/xlink" x="0px" y="0px"
	 width="140px" height="140px" viewBox="70 70 140 140" enable-background="new 70 70 140 140" xml:space="preserve">
<g>
	<circle fill="#3E91B4" cx="145.501" cy="140" r="56.333"/>
	<path fill="#DADCD7" d="M124.877,85.25l-4.5,7l-29.875,50.5l-10.25,17.625l1.375,3.125c0,0,7.625,5.375,8,5.75
		s9.875,4.875,9.875,4.875l14.375,8.25l5-3.5l40.625-72.125l-0.5-3l-9.625-6.125L124.877,85.25z"/>
	<g>
		<path fill="#02638C" d="M184.368,176.191c0.21-0.222,0.422-0.438,0.627-0.664c1.62-1.775,3.389-3.41,5.461-4.656
			c0.298-0.18,0.606-0.323,0.922-0.451c-0.326-1.895-0.706-4.045-1.076-6.118c-0.358-1.295-1.685-6.013-2.7-8.307
			c-1.439-3.243-2.459-5.356-1.61-4.458c0.848,0.902,1.965,5.365,1.965,2.676v-0.008c-1.5-4.559-0.29-11.111-0.376-13.434
			c-0.102-2.779-1.373-6.896-1.477-8.542c-0.104-1.646,1.422-8.746,1.937-13.273c0.519-4.528-0.163-8.918-1.192-11.011
			c-0.699-1.421-1.963-2.112-1.863-3.499c0.099-1.386,0.011-2.077-0.78-1.583c-0.222,0.139-0.871,0.302-1.754,0.521
			c-0.253-0.503-0.562-1.625,0.22-3.396c0.045-0.099,0.096-0.201,0.143-0.299c0.162-0.347,0.261-0.39,0.512-0.39
			c0.296,0,1.312-2.44,0.354-4.858c-0.261-0.658-0.76-1.323-1.033-1.604c-2.117-2.169-5.394-2.211-7.164-1.171
			c-1.896,1.113-2.621,2.819-2.621,2.819s-0.334,0.532-1.229,0.532h-3.066c-0.5,0,0.334,1.528,1.674,2.144
			c1.341,0.615,2.062,0.572,2.062,0.572s-0.788,1.736-1.048,2.396c-0.104,0.266-0.173,0.494,0.053,0.642
			c0.229,0.144,0.754,0.151,0.768,0.32c0.05,0.598,0.057,2.47,0.457,3.009c0.32,0.426,2.769,0.111,3.32,0.168
			c0.232,0.025,0.471,0.445,0.652,0.975c-0.907,0.397-1.766,0.81-2.48,1.355c-0.455,0.348,0.246,0.419,0.494,1.419h0.002
			c0.231,0.5,0.621,0.257,1.854-0.447c1.23-0.703,3.265-1.33,3.1-0.953c-0.162,0.379-1.517,0.935-2.813,1.584
			c-1.298,0.647-2.462,2.046-3.203,3.43c-0.392,0.765-0.847,1.785-1.317,3.308c-1.154,3.724-1.74,9.572-1.74,9.572
			s-1.53,0.511-4.926,1.359c-2.49,0.622-3.64,1.145-4.646,1.214c-0.596-0.12-1.15-1.672-1.227-1.894
			c0.87-1.507,1.519-2.625,1.883-3.261c0.019-0.03,0.039-0.045,0.058-0.076c1.483-2.563,3.212-7.194,0.485-8.7
			c-1.871-1.034-3.765-0.478-5.229,0.922c0.902-1.481,1.58-2.594,1.852-3.052c1.772-2.974,2.651-5.018,1.809-6.566
			c-0.846-1.552-6.656-6.077-15.314-11.217c-8.657-5.136-15.649-8.786-18.142-9.391c-1.752-0.424-3.184,0.602-4.589,2.771
			c-1.199,1.855-42.688,72.983-43.675,74.643c-0.985,1.666-0.705,2.779,1.034,4.044c0.037,0.026,0.51,0.303,1.291,0.752
			c-0.677-0.097-0.614,0.487,0.441,1.256c1.164,0.85,31.274,19.442,32.37,20.026c0.983,0.522,2.466,0.697,3.55-0.751
			c0.515,3.361,3.306,5.938,6.701,5.938c3.766,0,6.812-3.148,6.812-7.039c0-2.336-1.115-4.394-2.814-5.672
			c2.667-4.731,18.958-32.955,27.882-48.404c0.678,0.439,1.52,0.718,2.088,0.718c0.941,0,2.766-0.44,3.834-0.566
			c1.07-0.125,3.835-0.566,4.842-0.627c0.775-0.05,7.278-1.01,9.74-1.267c2.467-0.257,4.062-1.248,4.918-2.76
			c0.6-1.059,1.794-4.256,2.26-5.541c0.461-1.284,1.022-2.208,1.279-3.438s0.616-0.667,0.514,0.77
			c-0.102,1.437-0.771,2.907-1.537,5.747c-0.734,2.732-1.685,5.055-3.731,5.861c-2.153,0.846-2.983,0.802-5.599,1.21
			c-2.123,0.333-3.949,0.683-4.568,0.806c0.002,0.018,0.002,0.028,0.004,0.048c0.062,1.386,0.469,2.142,0.196,2.955
			c-0.565,1.697-4.749,13.781-6.188,19.338c-1.441,5.557-3.398,13.171-4.837,17.186c-1.442,4.013-4.116,6.996-4.426,7.717
			c-0.31,0.722-0.103,0.927,0.103,1.543c0.207,0.617-1.336,0.514-2.059,0.617c-0.718,0.104-2.982-0.104-4.32-0.41
			c-1.336-0.311-2.572-0.411-3.293,0.307c-0.721,0.723-1.236,1.441-0.822,1.957c0.41,0.513,4.629,3.807,5.556,4.013
			c0.929,0.205,2.47-0.308,3.089,0.41c0.615,0.724,0.411,1.44,1.438,1.957c1.03,0.515,3.498,1.337,4.115,1.235
			c0.62-0.104,1.443-1.854,1.647-2.883c0.207-1.027,1.338-3.291,2.265-5.659c0.926-2.365,4.426-8.438,5.764-12.554
			c1.336-4.117,5.863-13.067,6.688-14.818c0.823-1.747,1.441-2.776,1.646-2.059c0.207,0.723,5.763,13.995,6.793,18.522
			C183.732,173.239,184.068,174.764,184.368,176.191z M114.562,181.423L80.72,161.624c6.337-11.517,26.884-46.554,27.191-47.068
			c0.364-0.623,1.486,0.051,1.835-0.533c0.347-0.587-0.685-1.15-0.148-2.05c0.529-0.906,11.937-20.984,13.745-23.939
			c1.033-1.69,2.159-2.176,2.929-2.021c0.312,0.109,0.566,0.205,0.731,0.274c3.935,1.817,8.008,3.697,16.649,8.83
			c9.164,5.432,14.033,9.506,14.601,10.471c0.427,0.785-0.673,2.85-1.71,4.591l-0.05,0.085l-9.354,15.334c0,0-2.791,4.57-3.23,5.291
			c-0.029,0.043-0.068,0.109-0.1,0.166c0,0-0.004,0.002-0.008,0.005c-0.596,0.988-1.292,0.956-2.068,0.537
			c-3.634-2.047-11.799-6.667-14.854-8.57c-2.001-1.246-4.808-2.617-6.687-3.685c-1.77-1.006-2.481-0.229-0.55,0.867
			c1.73,0.984,4.342,2.505,6.781,4.029c3.429,2.137,11.309,6.422,14.708,8.533c1.049,0.649,0.893,1.26,0.508,1.905l-0.003,0.002
			c-1.379,2.243-6.606,11.636-11.517,19.902C123.49,165.754,114.562,181.423,114.562,181.423z M123.729,188.346
			c-1.422,0-2.576-1.19-2.576-2.662c0-1.467,1.154-2.658,2.576-2.658c1.421,0,2.572,1.191,2.572,2.658
			C126.302,187.154,125.15,188.346,123.729,188.346z M159.014,119.997l-3.897,6.673c-0.55,0.056-0.981,0.199-1.134,0.686
			c-0.102,0.335-0.069,0.776,0.012,1.235l-28.247,48.374c-1.478,2.432-3.766,1.317-2.584-0.748
			c9.568-16.479,28.126-48.309,33.375-57.312l0.004,0.006c0.731-1.264,2.297-3.438,3.281-3.044c1.11,0.446,0.094,2.442-0.796,4.115
			C159.023,119.985,159.018,119.989,159.014,119.997z"/>
		<path fill="#02638C" d="M118.374,108.087c1.602,0.959,6.589,3.793,7.43,4.174c0.736,0.334,2.096,0.744,2.472,0.524
			c0.379-0.224,0.562-0.417,0.012-0.748c-0.551-0.329-6.108-3.606-6.241-3.685c-0.129-0.076-0.749-1.544-2.625-2.668
			c-0.729-0.438-2.141-1.219-2.717-0.218C116.125,106.472,116.776,107.134,118.374,108.087L118.374,108.087z"/>
		<path fill="#02638C" d="M118.099,129.631c0.369-0.232,0.544-0.424-0.01-0.757c-0.555-0.329-6.116-3.581-6.244-3.653
			c-0.135-0.082-0.783-1.562-2.658-2.677c-0.735-0.434-2.146-1.213-2.688-0.188c-0.544,1.029,0.116,1.689,1.717,2.641
			c1.601,0.948,6.593,3.763,7.438,4.139C116.385,129.462,117.738,129.864,118.099,129.631L118.099,129.631z"/>
	</g>
	<g>
		<g>
			<defs>
				<circle id="SVGID_1_" cx="145.501" cy="140" r="56.333"/>
			</defs>
			<clipPath id="SVGID_2_">
				<use xlink:href="#SVGID_1_"  overflow="visible"/>
			</clipPath>
			<g clip-path="url(#SVGID_2_)">
				<path fill="#02638C" d="M195.229,189.723c-0.106-1.338-0.106-4.358-0.824-5.594c-0.721-1.236-0.105-2.129-0.518-3.877
					c-0.412-1.75-1.438-2.352-1.646-4.408c-0.125-1.264-1.063-6.637-1.938-11.541c-0.357-1.295-1.685-6.014-2.701-8.308
					c-1.438-3.243-2.457-5.356-1.609-4.458c0.848,0.902,1.965,5.365,1.965,2.676c0-0.003,0-0.005,0-0.008
					c-1.5-4.559-0.29-11.111-0.376-13.434c-0.101-2.779-1.373-6.896-1.476-8.542c-0.104-1.646,1.422-8.746,1.936-13.273
					c0.518-4.528-0.163-8.918-1.191-11.011c-0.699-1.421-1.964-2.112-1.865-3.499c0.1-1.386,0.012-2.077-0.779-1.583
					c-0.223,0.139-0.871,0.302-1.754,0.521c-0.253-0.503-0.562-1.625,0.22-3.396c0.045-0.099,0.097-0.201,0.142-0.299
					c0.164-0.347,0.262-0.39,0.513-0.39c0.296,0,1.312-2.44,0.354-4.858c-0.262-0.658-0.761-1.323-1.035-1.604
					c-2.115-2.169-5.393-2.211-7.164-1.171c-1.896,1.113-2.621,2.819-2.621,2.819s-0.334,0.532-1.228,0.532h-3.067
					c-0.5,0,0.334,1.528,1.674,2.144c1.342,0.615,2.062,0.572,2.062,0.572s-0.787,1.736-1.048,2.396
					c-0.103,0.266-0.173,0.494,0.054,0.642c0.229,0.144,0.752,0.151,0.766,0.32c0.051,0.598,0.058,2.47,0.459,3.009
					c0.318,0.426,2.768,0.111,3.32,0.168c0.231,0.025,0.469,0.445,0.651,0.975c-0.907,0.397-1.767,0.81-2.481,1.355
					c-0.455,0.348,0.246,0.419,0.494,1.419h0.002c0.232,0.5,0.623,0.257,1.854-0.447c1.231-0.703,3.265-1.33,3.101-0.953
					c-0.162,0.379-1.518,0.935-2.814,1.584c-1.299,0.647-2.461,2.046-3.203,3.43c-0.391,0.765-0.846,1.785-1.316,3.308
					c-1.154,3.724-1.742,9.572-1.742,9.572s-1.529,0.511-4.924,1.359c-2.492,0.622-3.641,1.145-4.647,1.214
					c-0.597-0.12-1.15-1.672-1.226-1.894c0.869-1.507,1.518-2.625,1.883-3.261c0.018-0.03,0.039-0.045,0.057-0.076
					c1.484-2.563,3.212-7.194,0.484-8.7c-1.871-1.034-3.764-0.478-5.228,0.922c0.901-1.481,1.58-2.594,1.851-3.052
					c1.773-2.974,2.652-5.018,1.81-6.566c-0.845-1.552-6.656-6.077-15.315-11.217c-8.656-5.136-15.648-8.786-18.141-9.391
					c-1.752-0.424-3.184,0.602-4.589,2.771c-1.199,1.855-42.688,72.983-43.675,74.643c-0.985,1.666-0.705,2.779,1.034,4.044
					c0.037,0.026,0.51,0.303,1.291,0.752c-0.677-0.097-0.614,0.487,0.441,1.256c1.164,0.85,31.274,19.442,32.37,20.026
					c0.983,0.522,2.466,0.697,3.55-0.751c0.515,3.361,3.306,5.938,6.701,5.938c3.766,0,6.812-3.148,6.812-7.039
					c0-2.336-1.115-4.394-2.814-5.672c2.667-4.731,18.958-32.955,27.882-48.404c0.677,0.439,1.521,0.718,2.088,0.718
					c0.941,0,2.765-0.44,3.834-0.566c1.07-0.125,3.835-0.566,4.841-0.627c0.776-0.05,7.279-1.01,9.741-1.267
					c2.466-0.257,4.063-1.248,4.918-2.76c0.599-1.059,1.794-4.256,2.259-5.541c0.461-1.284,1.023-2.208,1.28-3.438
					s0.616-0.667,0.515,0.77c-0.103,1.437-0.771,2.907-1.537,5.747c-0.735,2.732-1.686,5.055-3.732,5.861
					c-2.152,0.846-2.982,0.802-5.598,1.21c-2.125,0.333-3.95,0.683-4.569,0.806c0.002,0.018,0.002,0.028,0.004,0.048
					c0.063,1.386,0.468,2.142,0.196,2.955c-0.565,1.697-4.749,13.781-6.188,19.338c-1.443,5.557-3.398,13.171-4.838,17.186
					c-1.441,4.013-4.115,6.996-4.426,7.717c-0.311,0.722-0.104,0.927,0.102,1.543c0.209,0.617-1.336,0.514-2.058,0.617
					c-0.718,0.104-2.983-0.104-4.319-0.41c-1.336-0.311-2.574-0.411-3.293,0.307c-0.722,0.723-1.236,1.441-0.824,1.957
					c0.41,0.513,4.631,3.807,5.557,4.013c0.929,0.205,2.47-0.308,3.089,0.41c0.615,0.724,0.411,1.44,1.438,1.957
					c1.029,0.515,3.498,1.337,4.115,1.235c0.619-0.104,1.442-1.854,1.646-2.883c0.207-1.027,1.338-3.291,2.265-5.659
					c0.927-2.365,4.427-8.438,5.763-12.554c1.338-4.117,5.864-13.067,6.688-14.818c0.823-1.747,1.442-2.776,1.646-2.059
					c0.209,0.723,5.764,13.995,6.793,18.522c1.027,4.526,2.06,9.364,1.953,10.804c-0.103,1.442,0,1.648,0.207,2.367
					c0.205,0.721-0.31,2.264-1.441,2.881c-1.129,0.618-4.387,1.969-5.041,2.803c-0.676,0.865-1.041,3.418,0,3.418h8.027
					c0.821,0,1.851-1.08,2.674-0.772c0.822,0.312,1.031,0.772,1.75,0.772h3.295C195.533,194.016,195.329,191.061,195.229,189.723z
					 M114.562,181.423L80.72,161.624c6.337-11.517,26.884-46.554,27.191-47.068c0.364-0.623,1.486,0.051,1.835-0.533
					c0.347-0.587-0.685-1.15-0.148-2.05c0.529-0.906,11.937-20.984,13.745-23.939c1.033-1.69,2.159-2.176,2.929-2.021
					c0.312,0.109,0.566,0.205,0.731,0.274c3.935,1.817,8.008,3.697,16.649,8.83c9.164,5.432,14.033,9.506,14.601,10.471
					c0.427,0.785-0.673,2.85-1.71,4.591l-0.05,0.085l-9.354,15.334c0,0-2.791,4.57-3.23,5.291c-0.029,0.043-0.068,0.109-0.1,0.166
					c0,0-0.004,0.002-0.008,0.005c-0.596,0.988-1.292,0.956-2.068,0.537c-3.634-2.047-11.799-6.667-14.854-8.57
					c-2.001-1.246-4.808-2.617-6.687-3.685c-1.77-1.006-2.481-0.229-0.55,0.867c1.73,0.984,4.342,2.505,6.781,4.029
					c3.429,2.137,11.309,6.422,14.708,8.533c1.049,0.649,0.893,1.26,0.508,1.905l-0.003,0.002
					c-1.379,2.243-6.606,11.636-11.517,19.902C123.49,165.754,114.562,181.423,114.562,181.423z M123.729,188.346
					c-1.422,0-2.576-1.19-2.576-2.662c0-1.467,1.154-2.658,2.576-2.658c1.421,0,2.572,1.191,2.572,2.658
					C126.302,187.154,125.15,188.346,123.729,188.346z M159.014,119.997l-3.897,6.673c-0.55,0.056-0.981,0.199-1.134,0.686
					c-0.102,0.335-0.069,0.776,0.012,1.235l-28.247,48.374c-1.478,2.432-3.766,1.317-2.584-0.748
					c9.568-16.479,28.126-48.309,33.375-57.312l0.004,0.006c0.731-1.264,2.297-3.438,3.281-3.044
					c1.11,0.446,0.094,2.442-0.796,4.115C159.023,119.985,159.018,119.989,159.014,119.997z"/>
				<path fill="#02638C" d="M118.374,108.087c1.602,0.959,6.589,3.793,7.43,4.174c0.736,0.334,2.096,0.744,2.472,0.524
					c0.379-0.224,0.562-0.417,0.012-0.748c-0.551-0.329-6.108-3.606-6.241-3.685c-0.129-0.076-0.749-1.544-2.625-2.668
					c-0.729-0.438-2.141-1.219-2.717-0.218C116.125,106.472,116.776,107.134,118.374,108.087L118.374,108.087z"/>
				<path fill="#02638C" d="M118.099,129.631c0.369-0.232,0.544-0.424-0.01-0.757c-0.555-0.329-6.116-3.581-6.244-3.653
					c-0.135-0.082-0.783-1.562-2.658-2.677c-0.735-0.434-2.146-1.213-2.688-0.188c-0.544,1.029,0.116,1.689,1.717,2.641
					c1.601,0.948,6.593,3.763,7.438,4.139C116.385,129.462,117.738,129.864,118.099,129.631L118.099,129.631z"/>
			</g>
		</g>
	</g>
</g>
</svg>
