<?xml version="1.0" encoding="utf-8"?>
<!-- Generator: Adobe Illustrator 15.0.2, SVG Export Plug-In . SVG Version: 6.00 Build 0)  -->
<!DOCTYPE svg PUBLIC "-//W3C//DTD SVG 1.1//EN" "http://www.w3.org/Graphics/SVG/1.1/DTD/svg11.dtd">
<svg version="1.1" id="Layer_1" xmlns="http://www.w3.org/2000/svg" xmlns:xlink="http://www.w3.org/1999/xlink" x="0px" y="0px"
	 width="140px" height="140px" viewBox="70 70 140 140" enable-background="new 70 70 140 140" xml:space="preserve">
<g>
	<polygon fill="none" points="107.91,135.699 107.879,135.699 107.879,147.047 107.879,148.816 107.91,148.816 107.91,147.047 	"/>
	<path fill="none" d="M108.83,99.989c0-0.012,0.001-0.024,0.002-0.036h0.03v-0.001h-0.03
		C108.831,99.965,108.831,99.977,108.83,99.989C108.83,99.988,108.83,99.988,108.83,99.989z"/>
	<path fill="none" d="M100.995,99.928c0,0-0.009-0.235,0.02-0.59c0.095-1.175,0.617-3.719,3.372-3.868c0.008,0,0.016,0,0.024,0
		c-0.008,0-0.016,0-0.024,0c-2.754,0.149-3.277,2.693-3.371,3.868C100.985,99.693,100.994,99.928,100.995,99.928l-0.001,0.024h0.001
		V99.928z"/>
	<polygon fill="none" points="108.79,116.918 108.79,116.881 108.79,116.881 108.79,116.918 103.569,122.396 100.994,129.775 
		103.569,122.396 	"/>
	<polygon fill="none" points="118.032,122.315 118.032,122.299 113.913,122.299 113.913,125.666 113.928,125.666 113.928,122.315 	
		"/>
	<polygon fill="none" points="157.511,142.994 157.688,143.057 152.96,141.359 152.953,141.357 	"/>
	<polygon fill="none" points="152.457,132.545 152.457,132.545 151.327,132.545 151.237,132.545 151.237,141.625 151.237,141.777 
		151.122,141.723 145.626,148.701 131.582,148.701 131.582,148.732 131.582,148.92 131.644,148.92 131.644,148.732 145.688,148.732 
		151.185,141.754 151.302,141.809 151.302,141.658 151.302,141.656 151.302,132.545 	"/>
	<path fill="none" d="M158.136,103.549c0.034,0.04,0.072,0.079,0.107,0.119C158.208,103.628,158.171,103.589,158.136,103.549z"/>
	<rect x="90.897" y="112.375" fill="none" width="0.002" height="36.443"/>
	<path fill="none" d="M152.296,98.298c0.023,0.016,0.047,0.032,0.069,0.047C152.343,98.33,152.319,98.314,152.296,98.298z"/>
	<path fill="none" d="M108.843,101.799c0-0.37,0-0.792,0-1.291c0-0.087-0.004-0.169-0.006-0.253
		c0.002,0.084,0.006,0.167,0.006,0.253C108.842,101.007,108.842,101.43,108.843,101.799c0,2.289,0,2.295,0,2.295v12.786l0,0h0.02
		l0,0v-15.1c6.133-6.017,14.532-9.73,23.802-9.73c6.938,0,13.387,2.08,18.764,5.649c-5.377-3.57-11.826-5.65-18.765-5.65
		c-9.27,0-17.668,3.714-23.802,9.73v0.001C108.855,101.788,108.849,101.794,108.843,101.799z"/>
	<polygon fill="none" points="123.826,116.889 143.672,116.972 143.823,117.127 143.827,117.127 143.677,116.972 123.912,116.889 
		121.996,116.881 121.997,116.882 	"/>
	<path fill="none" d="M158.578,104.064c0.133,0.156,0.269,0.312,0.397,0.471C158.847,104.375,158.711,104.22,158.578,104.064z"/>
	<path fill="none" d="M147.013,117.266L147.013,117.266c-0.072-0.001-0.145,0.004-0.218,0.005c-0.015,0-0.028,0.001-0.044,0.001
		C146.838,117.271,146.925,117.265,147.013,117.266z"/>
	<path fill="none" d="M144.152,117.408L144.152,117.408c0.442-0.046,0.886-0.08,1.329-0.104
		C145.038,117.328,144.595,117.362,144.152,117.408z"/>
	<path fill="none" d="M162.169,181.451c-0.107-0.178-0.08-0.254-0.08-0.254h-0.001C162.084,181.209,162.067,181.287,162.169,181.451
		z"/>
	<path fill="none" d="M136.659,182.029c-1.367-0.523-2.565-1.004-3.616-1.443C134.094,181.025,135.292,181.506,136.659,182.029z"/>
	<path fill="none" d="M163.722,182.736c-0.033-0.021-0.064-0.041-0.097-0.062l0,0C163.656,182.695,163.687,182.715,163.722,182.736
		L163.722,182.736z"/>
	<path fill="none" d="M163.341,182.67c0.092,0.002,0.186,0.002,0.281,0.004c-0.001,0-0.001,0-0.001,0
		c-0.099-0.002-0.192-0.004-0.284-0.006C163.338,182.668,163.339,182.67,163.341,182.67z"/>
	<path fill="none" d="M148.839,188.521c4-0.996,12.983-4.473,12.999-4.479l-0.001-0.002c0,0-8.996,3.482-13,4.48
		c-7.928,1.977-17.851,1.805-22.981,1.979c-0.004,0-0.016,0.002-0.016,0.002C130.964,190.328,140.901,190.502,148.839,188.521z"/>
	<path fill="none" d="M125.642,176.451c-0.112-0.18-0.083-0.26-0.083-0.26l-0.001,0.002
		C125.556,176.203,125.537,176.281,125.642,176.451z"/>
	<path fill="none" d="M152.269,185.928c0.002,0,0.002,0,0.002,0c-5.562-0.549-14.375-1.744-17.807-2.254
		c-2.75-0.408-5.039-1.566-6.64-2.625c1.602,1.059,3.891,2.219,6.642,2.625C137.895,184.184,146.709,185.379,152.269,185.928z"/>
	<path fill="#3E91B4" d="M136.659,182.029c0.525,0.201,1.072,0.406,1.649,0.621c2.804,1.037,9.964,2.199,14.596,3.033
		c3.469-1.357,6.131-2.734,7.675-3.6c-7.207-1.734-16.104-5.189-21.436-5.248c-3.043-0.033-6.825,0.574-10.962,1.471
		c1.098,0.602,2.658,1.354,4.861,2.277C134.094,181.025,135.292,181.506,136.659,182.029z"/>
	<path fill="#3E91B4" d="M110.245,182.734c-0.582,0.141-1.161,0.277-1.737,0.408c0.602-0.119,1.127-0.238,1.551-0.355
		C110.121,182.77,110.182,182.752,110.245,182.734z"/>
	<path fill="#3E91B4" d="M90.898,112.375c-4.603,8.162-7.231,17.586-7.231,27.625c0,3,0.237,5.943,0.688,8.816h6.544L90.898,112.375
		L90.898,112.375z"/>
	<polygon fill="#3E91B4" points="90.898,112.375 90.898,112.375 90.899,112.375 	"/>
	<path fill="#3E91B4" d="M165.306,183.629c1.435,0.744,3.51,1.688,6.504,2.867c2.281-1.562,4.441-3.291,6.465-5.166
		c-1.479,0.494-2.868,0.926-3.915,1.188C169.279,183.783,167.366,183.762,165.306,183.629z"/>
	<path fill="#3E91B4" d="M108.832,99.952h0.03v0.001v1.827c6.134-6.016,14.532-9.73,23.802-9.73c6.938,0,13.388,2.08,18.765,5.65
		c0.293,0.194,0.582,0.395,0.867,0.597c0.021,0.016,0.047,0.032,0.069,0.047c2.116,1.511,4.052,3.259,5.771,5.204
		c0.034,0.04,0.072,0.079,0.107,0.119c0.113,0.13,0.223,0.264,0.335,0.396c0.133,0.156,0.269,0.312,0.397,0.471
		c0.022,0.028,0.045,0.057,0.066,0.084c1.41,1.735,2.653,3.611,3.704,5.604c4.524-3.696,9.916-5.862,15.367-6.349
		c1.717-0.154,3.438-0.145,5.141,0.04c-10.334-12.373-25.874-20.247-43.256-20.247c-12.438,0-23.931,4.034-33.25,10.859
		c1.316,1.329,2.113,3.042,2.113,4.914C108.862,99.613,108.845,99.782,108.832,99.952z"/>
	<path fill="#3E91B4" d="M161.838,184.043c-0.016,0.006-8.999,3.482-12.999,4.479c-7.937,1.98-17.875,1.807-23,1.98
		c0,0,0.012-0.002,0.016-0.002c-0.005,0-0.012,0-0.018,0c0,0,16.183-1.443,20.75-2.709c2.055-0.566,3.959-1.209,5.684-1.863
		c-5.562-0.549-14.375-1.744-17.804-2.254c-2.75-0.408-5.04-1.566-6.642-2.625c-1.597-1.053-2.509-2.004-2.515-2.01
		c-0.008,0.002-8.998,3.48-13,4.479c-2.106,0.525-4.354,0.896-6.615,1.164c9.5,7.305,21.395,11.652,34.306,11.652
		c10.64,0,20.589-2.949,29.076-8.076c-1.656-0.475-3.088-1.188-4.229-1.891C162.947,185.197,161.847,184.051,161.838,184.043z"/>
	<path fill="#3E91B4" d="M155.556,118.783c0.447-0.795,0.933-1.578,1.459-2.344C156.487,117.206,156.003,117.988,155.556,118.783
		L155.556,118.783z"/>
	<path fill="#3E91B4" d="M145.481,117.305c0.424-0.022,0.847-0.031,1.271-0.033c0.015,0,0.029-0.001,0.044-0.001
		c-0.881,0.003-1.764,0.046-2.644,0.137l0,0C144.595,117.362,145.038,117.328,145.481,117.305z"/>
	<path fill="#3E91B4" d="M147.013,117.266L147.013,117.266L147.013,117.266z"/>
	<path fill="#3E91B4" d="M178.114,103.875c-5.451,0.488-10.844,2.653-15.366,6.349c1.144,2.171,2.065,4.478,2.722,6.894
		c1.463-0.191,2.95-0.301,4.465-0.301c9.934,0,18.869,4.261,25.086,11.053c-1.971-8.974-6.077-17.146-11.765-23.955l0,0
		C181.554,103.729,179.831,103.72,178.114,103.875z"/>
	<path opacity="0.2" fill="#F5F5F5" enable-background="new    " d="M178.114,103.875c-5.451,0.488-10.844,2.653-15.366,6.349
		c1.144,2.171,2.065,4.478,2.722,6.894c1.463-0.191,2.95-0.301,4.465-0.301c9.934,0,18.869,4.261,25.086,11.053
		c-1.971-8.974-6.077-17.146-11.765-23.955l0,0C181.554,103.729,179.831,103.72,178.114,103.875z"/>
	<path opacity="0.2" fill="#F5F5F5" enable-background="new    " d="M145.481,117.305c-0.443,0.023-0.887,0.057-1.329,0.104l0,0
		c0.952-0.099,1.907-0.146,2.858-0.143l0,0c-0.086,0-0.174,0.006-0.26,0.006C146.328,117.274,145.904,117.282,145.481,117.305z"/>
	<path opacity="0.2" fill="#F5F5F5" enable-background="new    " d="M146.796,117.271c0.072,0,0.145-0.006,0.217-0.005
		C146.938,117.265,146.868,117.271,146.796,117.271z"/>
	<path opacity="0.2" fill="#F5F5F5" enable-background="new    " d="M155.556,118.783L155.556,118.783L155.556,118.783z"/>
	<path fill="#3E91B4" d="M158.578,104.064c-0.112-0.132-0.222-0.266-0.335-0.396c-0.035-0.041-0.073-0.079-0.107-0.119
		c-1.719-1.945-3.652-3.693-5.771-5.204c-0.022-0.016-0.048-0.031-0.069-0.047c-0.285-0.203-0.574-0.403-0.867-0.597
		c-5.377-3.57-11.826-5.649-18.764-5.649c-9.271,0-17.669,3.714-23.802,9.73v15.1h13.133h1.916v0.008l19.765,0.083l0.15,0.155h0.052
		l0.273,0.28c0.88-0.091,1.763-0.134,2.644-0.137c0.072,0,0.145-0.006,0.217-0.005l0,0l0,0l0,0c2.905,0.014,5.795,0.511,8.543,1.518
		l0,0l0,0c0.447-0.795,0.933-1.578,1.461-2.345c0.176-0.256,0.355-0.51,0.541-0.761c1.535-2.083,3.287-3.901,5.19-5.455
		c-1.052-1.993-2.295-3.869-3.705-5.604c-0.022-0.027-0.044-0.056-0.065-0.084C158.847,104.375,158.711,104.22,158.578,104.064z"/>
	<path opacity="0.2" fill="#F5F5F5" enable-background="new    " d="M158.578,104.064c-0.112-0.132-0.222-0.266-0.335-0.396
		c-0.035-0.041-0.073-0.079-0.107-0.119c-1.719-1.945-3.652-3.693-5.771-5.204c-0.022-0.016-0.048-0.031-0.069-0.047
		c-0.285-0.203-0.574-0.403-0.867-0.597c-5.377-3.57-11.826-5.649-18.764-5.649c-9.271,0-17.669,3.714-23.802,9.73v15.1h13.133
		h1.916v0.008l19.765,0.083l0.15,0.155h0.052l0.273,0.28c0.88-0.091,1.763-0.134,2.644-0.137c0.072,0,0.145-0.006,0.217-0.005l0,0
		l0,0l0,0c2.905,0.014,5.795,0.511,8.543,1.518l0,0l0,0c0.447-0.795,0.933-1.578,1.461-2.345c0.176-0.256,0.355-0.51,0.541-0.761
		c1.535-2.083,3.287-3.901,5.19-5.455c-1.052-1.993-2.295-3.869-3.705-5.604c-0.022-0.027-0.044-0.056-0.065-0.084
		C158.847,104.375,158.711,104.22,158.578,104.064z"/>
	<path fill="#3E91B4" d="M145.481,117.305c0.424-0.022,0.847-0.031,1.271-0.033C146.328,117.274,145.904,117.282,145.481,117.305z"
		/>
	<path opacity="0.2" fill="#F5F5F5" enable-background="new    " d="M145.481,117.305c0.424-0.022,0.847-0.031,1.271-0.033
		C146.328,117.274,145.904,117.282,145.481,117.305z"/>
	<path fill="#3E91B4" d="M147.013,117.266c-0.953-0.005-1.908,0.044-2.86,0.142l0.155,0.16l4.812,4.944h-0.133l3.501,10.033h-0.031
		l0,0h-1.155v9.111l1.6-0.293l4.609,1.631l-4.558-1.637c0,0,0.006,0,0.008,0.002l-0.008-0.004c0,0,31.364,6.93,42.349,9.412
		c0.676-3.484,1.031-7.084,1.031-10.766c0-4.166-0.456-8.224-1.312-12.132c-6.217-6.792-15.151-11.053-25.084-11.053
		c-1.515,0-3.002,0.109-4.465,0.301c-0.656-2.417-1.578-4.723-2.723-6.895c-1.902,1.554-3.654,3.372-5.189,5.455
		c-0.742,1.007-1.405,2.046-2.004,3.105l0,0C152.806,117.778,149.918,117.28,147.013,117.266z"/>
	<path opacity="0.2" fill="#F5F5F5" enable-background="new    " d="M147.013,117.266c-0.953-0.005-1.908,0.044-2.86,0.142
		l0.155,0.16l4.812,4.944h-0.133l3.501,10.033h-0.031l0,0h-1.155v9.111l1.6-0.293l4.609,1.631l-4.558-1.637c0,0,0.006,0,0.008,0.002
		l-0.008-0.004c0,0,31.364,6.93,42.349,9.412c0.676-3.484,1.031-7.084,1.031-10.766c0-4.166-0.456-8.224-1.312-12.132
		c-6.217-6.792-15.151-11.053-25.084-11.053c-1.515,0-3.002,0.109-4.465,0.301c-0.656-2.417-1.578-4.723-2.723-6.895
		c-1.902,1.554-3.654,3.372-5.189,5.455c-0.742,1.007-1.405,2.046-2.004,3.105l0,0C152.806,117.778,149.918,117.28,147.013,117.266z
		"/>
	<path opacity="0.2" fill="#F5F5F5" enable-background="new    " d="M147.013,117.266c-0.953-0.005-1.908,0.044-2.86,0.142
		l0.155,0.16l4.812,4.944h-0.133l3.501,10.033h-0.031l0,0h-1.155v9.111l1.6-0.293l4.609,1.631l-4.558-1.637c0,0,0.006,0,0.008,0.002
		l-0.008-0.004c0,0,31.364,6.93,42.349,9.412c0.676-3.484,1.031-7.084,1.031-10.766c0-4.166-0.456-8.224-1.312-12.132
		c-6.217-6.792-15.151-11.053-25.084-11.053c-1.515,0-3.002,0.109-4.465,0.301c-0.656-2.417-1.578-4.723-2.723-6.895
		c-1.902,1.554-3.654,3.372-5.189,5.455c-0.742,1.007-1.405,2.046-2.004,3.105l0,0C152.806,117.778,149.918,117.28,147.013,117.266z
		"/>
	<path fill="#C3B600" d="M152.953,141.355l0.007,0.004l4.729,1.697l32.998,11.666l3.363,1.189c0.426-1.445,0.797-2.914,1.104-4.406
		c0.053-0.244,0.099-0.49,0.146-0.738l0,0C184.317,148.285,152.953,141.355,152.953,141.355z"/>
	<path fill="#DCC847" d="M194.052,155.914l-3.365-1.189c-0.063,0.037-0.129,0.074-0.195,0.113l3.506,1.258
		C194.015,156.035,194.032,155.975,194.052,155.914z"/>
	<path fill="#F5F5F5" d="M172.108,181.789c-2.896,0.801-6.344,0.912-8.483,0.885c0.031,0.021,0.063,0.041,0.097,0.062l0,0
		c-0.033-0.021-0.064-0.041-0.097-0.062c-0.001,0-0.001,0-0.002,0h-0.001c-0.098-0.002-0.191-0.002-0.281-0.004
		c-0.002,0-0.003-0.002-0.004-0.002c0.092,0.002,0.188,0.004,0.284,0.006c-0.946-0.604-1.312-0.994-1.452-1.223
		c-0.102-0.164-0.085-0.242-0.081-0.254c-0.009,0.006-0.538,0.346-1.506,0.889c-0.001,0-0.002-0.002-0.003-0.002
		c-1.544,0.865-4.206,2.242-7.675,3.6c-4.632-0.834-11.792-1.996-14.596-3.033c-0.577-0.215-1.124-0.42-1.649-0.621
		c-1.367-0.523-2.565-1.004-3.616-1.443c-2.204-0.926-3.763-1.678-4.861-2.279c-0.001,0-0.001,0-0.002,0
		c-1.77-0.971-2.351-1.555-2.537-1.854c-0.105-0.17-0.087-0.248-0.084-0.258c-0.034,0.02-6.176,3.975-15.269,6.529
		c-0.015,0.004-0.03,0.008-0.045,0.012c-0.062,0.018-0.124,0.035-0.187,0.053c-0.424,0.117-0.949,0.236-1.551,0.354
		c-0.013,0.004-0.025,0.008-0.038,0.01c-0.01,0.002-0.021,0.004-0.031,0.008c-0.001,0-0.002,0-0.003,0
		c-1.087,0.213-2.419,0.426-3.871,0.633c0.068,0.057,0.136,0.111,0.206,0.166l0,0c0.305,0.244,0.612,0.486,0.922,0.725
		c2.261-0.27,4.509-0.639,6.616-1.164c4.003-0.998,13-4.48,13-4.48l0.001,0.002c0.006,0.006,0.918,0.957,2.515,2.01
		c1.602,1.059,3.89,2.217,6.64,2.625c3.43,0.512,12.246,1.705,17.806,2.254c0,0,0,0-0.002,0c-1.724,0.654-3.629,1.297-5.683,1.865
		c-4.568,1.264-20.75,2.707-20.75,2.707c0.005,0,0.013,0,0.018,0c5.13-0.174,15.054-0.002,22.981-1.979
		c4.004-0.998,13-4.479,13-4.479h0.001c0.009,0.01,1.109,1.154,3.009,2.324c1.144,0.703,2.573,1.414,4.229,1.891
		c0.928-0.561,1.84-1.148,2.731-1.762c-2.992-1.18-5.069-2.123-6.504-2.867c2.062,0.133,3.975,0.154,9.053-1.113
		c1.048-0.26,2.437-0.689,3.916-1.186c0.312-0.287,0.619-0.58,0.926-0.877c0,0,0.002,0,0.003,0c0.127-0.123,0.255-0.248,0.381-0.373
		c-0.806,0.275-1.604,0.539-2.392,0.793c-0.004,0.002-0.006,0.002-0.008,0.002c0.789-0.254,1.59-0.52,2.397-0.795
		c0.491-0.484,0.976-0.979,1.447-1.479c-2.106,0.928-4.648,1.914-7.513,2.779C173.054,181.521,172.586,181.658,172.108,181.789z"/>
	<path fill="#FFFFFF" d="M100.385,99.952h0.609v-0.024c0,0-0.009-0.235,0.021-0.59c0.094-1.175,0.617-3.719,3.371-3.868
		c0.009,0,0.016,0,0.024,0c0.375-0.02,0.727-0.011,1.053,0.025c2.142,0.241,3.239,1.693,3.366,4.457h0.003
		c0.013-0.17,0.03-0.339,0.03-0.512c0-1.873-0.796-3.585-2.113-4.914c-1.647-1.662-4.111-2.72-6.868-2.72
		c-4.96,0-8.982,3.419-8.982,7.634c0,0.173,0.017,0.342,0.031,0.512l0,0H100.385z"/>
	<path fill="#BFBDB1" d="M108.83,99.989c0,0.002,0,0.004,0,0.005c0.003,0.085,0.004,0.174,0.006,0.261
		c0.002,0.084,0.006,0.166,0.006,0.253c0,0.499,0,0.921,0,1.291c0.007-0.006,0.013-0.012,0.02-0.018v-0.001v-1.827h-0.03
		C108.831,99.965,108.831,99.977,108.83,99.989z"/>
	<polygon fill="#BFBDB1" points="90.899,148.906 101.004,148.906 101.004,148.816 100.941,148.816 100.941,147.342 100.941,138.441 
		100.941,132.545 100.028,132.545 100.994,129.775 100.994,113.685 100.994,107.011 100.994,99.952 100.385,99.952 90.93,99.952 
		90.929,99.952 90.899,99.952 90.899,112.375 90.899,148.816 	"/>
	<path fill="#BFBDB1" d="M108.832,99.952h-0.003c0,0.012,0,0.024,0,0.036C108.831,99.977,108.831,99.965,108.832,99.952z"/>
	<path opacity="0.15" fill="#606049" enable-background="new    " d="M101.015,99.338c-0.029,0.354-0.02,0.59-0.02,0.59v0.024h7.833
		c-0.127-2.764-1.225-4.216-3.366-4.457c-0.326-0.036-0.677-0.045-1.052-0.025c-0.008,0-0.016,0-0.024,0
		C101.632,95.619,101.109,98.164,101.015,99.338z"/>
	<path fill="#FFFFFF" d="M105.462,95.495c2.141,0.241,3.239,1.693,3.366,4.457h0.001C108.702,97.189,107.604,95.736,105.462,95.495
		c-0.326-0.036-0.677-0.045-1.052-0.025C104.785,95.45,105.136,95.46,105.462,95.495z"/>
	<path opacity="0.15" fill="#606049" enable-background="new    " d="M105.462,95.495c2.141,0.241,3.239,1.693,3.366,4.457h0.001
		C108.702,97.189,107.604,95.736,105.462,95.495c-0.326-0.036-0.677-0.045-1.052-0.025C104.785,95.45,105.136,95.46,105.462,95.495z
		"/>
	<path fill="#BFBDB1" d="M108.79,116.918v-0.037l0,0h0.052v-12.786c0,0,0-0.007,0-2.295c0-0.37,0-0.792,0-1.291
		c0-0.087-0.004-0.169-0.006-0.253c-0.002-0.086-0.002-0.175-0.006-0.261c0-0.001,0-0.003,0-0.005c0,0,0,0,0-0.001
		c0-0.012,0-0.024-0.001-0.036l0,0h-7.834h-0.001v7.059v6.674v16.09l2.575-7.379L108.79,116.918z"/>
	<path opacity="0.15" fill="#606049" enable-background="new    " d="M108.79,116.918v-0.037l0,0h0.052v-12.786c0,0,0-0.007,0-2.295
		c0-0.37,0-0.792,0-1.291c0-0.087-0.004-0.169-0.006-0.253c-0.002-0.086-0.002-0.175-0.006-0.261c0-0.001,0-0.003,0-0.005
		c0,0,0,0,0-0.001c0-0.012,0-0.024-0.001-0.036l0,0h-7.834h-0.001v7.059v6.674v16.09l2.575-7.379L108.79,116.918z"/>
	<polygon fill="#FBAF40" points="131.582,132.545 131.582,145.225 131.582,145.256 131.582,148.701 145.626,148.701 
		151.122,141.723 151.237,141.777 151.237,141.625 151.237,132.545 131.59,132.545 	"/>
	<path fill="#F6CB35" d="M131.582,148.701v-3.445v-0.031v-12.679h-2.168h-0.001l-0.761-2.782l-1.247-4.559l-0.564-2.062
		l-0.186-0.678l-1.055-1.239l-0.048-0.075l-3.032-3.545h-13.261l-0.397,0.4l-0.02,0.02l-4.117,4.156l-3.541,10.365h-0.062h-0.118
		h-0.01h-0.053v5.896v8.899v1.477h0.062v0.09v0.014h6.501h0.405v-0.014v-0.09h-0.031v-1.77v-11.35h0.031h0.89h0.011h0.02h0.073
		h11.351h0.031h3.78h0.031v10.934v2.287h0.031h7.453v-0.188v-0.031H131.582z M118.047,125.68h-4.119v-0.015h-0.015V122.3h4.119
		v0.016h0.016v3.364H118.047z"/>
	<polygon fill="#6D736D" points="124.098,135.699 124.066,135.699 120.286,135.699 120.255,135.699 108.904,135.699 
		108.831,135.699 108.811,135.699 108.8,135.699 107.91,135.699 107.91,147.047 107.91,148.816 107.91,148.906 107.91,148.92 
		107.941,148.92 109.126,148.92 109.157,148.92 118.246,148.92 118.277,148.92 123.121,148.92 123.153,148.92 124.066,148.92 
		124.098,148.92 124.098,146.631 	"/>
	<polygon fill="#6D736D" points="113.928,122.315 113.928,125.666 113.928,125.68 118.047,125.68 118.047,122.315 118.032,122.315 	
		"/>
	<polygon fill="#6D736D" points="123.912,116.881 121.996,116.881 123.912,116.889 	"/>
	<path fill="#DCC847" d="M157.511,142.994l-4.609-1.631l-1.6,0.293v0.002v0.148l-0.117-0.055l-5.496,6.98h-14.043v0.188h-0.062
		h-7.453h-0.031h-0.031h-0.914h-0.032h-4.844h-0.031h-9.089h-0.031h-1.185h-0.031h-0.405h-6.501v-0.014H90.899v-0.09l0,0h-6.544
		c2.211,14.062,9.625,26.396,20.21,34.975c1.453-0.207,2.787-0.42,3.875-0.633c0.01-0.004,0.021-0.006,0.031-0.008
		c0.013-0.002,0.025-0.006,0.038-0.01c0.575-0.133,1.155-0.268,1.737-0.406c0.015-0.004,0.03-0.01,0.045-0.012
		c9.093-2.555,15.235-6.51,15.269-6.529l0.001-0.002c0,0-0.029,0.08,0.083,0.26c0.188,0.301,0.768,0.885,2.537,1.854
		c0.001,0,0.001,0,0.002,0c4.137-0.895,7.919-1.504,10.962-1.471c5.333,0.059,14.229,3.514,21.436,5.25c0.001,0,0.001,0,0.002,0
		c0.969-0.543,1.497-0.883,1.506-0.889h0.002c0,0-0.027,0.078,0.08,0.254c0.139,0.229,0.506,0.619,1.451,1.223
		c0.001,0,0.001,0,0.001,0c0.001,0,0.001,0,0.002,0.002h0.001h0.001c2.14,0.025,5.589-0.084,8.483-0.887
		c0.478-0.131,0.943-0.27,1.406-0.408c2.863-0.863,5.406-1.852,7.513-2.781c0.001,0,0.003,0,0.004-0.002
		c5.935-6.305,10.429-13.979,12.966-22.5l-3.506-1.26c0.064-0.037,0.131-0.074,0.195-0.115l-32.998-11.666L157.511,142.994z"/>
	<polygon fill="#6D736D" points="101.004,132.545 101.122,132.545 101.184,132.545 104.725,122.18 108.843,118.024 108.862,118.004 
		109.259,117.604 122.52,117.604 125.552,121.149 125.6,121.225 126.656,122.464 126.841,123.142 127.405,125.205 128.652,129.763 
		129.413,132.545 129.414,132.545 131.582,132.545 131.59,132.545 151.237,132.545 151.327,132.545 152.457,132.545 
		152.487,132.545 148.986,122.512 131.169,122.512 126.861,122.512 125.834,121.306 122.814,117.76 122.558,117.46 122.199,117.038 
		124.115,117.046 143.823,117.127 143.672,116.972 123.826,116.889 121.997,116.882 121.996,116.881 108.863,116.881 
		108.862,116.881 108.843,116.881 108.842,116.881 108.79,116.881 108.79,116.918 103.569,122.396 100.994,129.775 100.028,132.545 
		100.941,132.545 100.994,132.545 	"/>
	<path opacity="0.2" fill="#DADCD7" enable-background="new    " d="M144.101,117.411l0.607,0.621l-0.604-0.621
		c0.016-0.001,0.031-0.002,0.048-0.003l0,0c-0.017,0.001-0.031,0.002-0.048,0.003l-0.277-0.284h-0.004L144.101,117.411z"/>
	<path fill="#3E91B4" d="M144.152,117.408L144.152,117.408c-0.017,0.001-0.031,0.002-0.048,0.003
		C144.12,117.41,144.136,117.409,144.152,117.408z"/>
	<path opacity="0.2" fill="#DADCD7" enable-background="new    " d="M144.152,117.408L144.152,117.408
		c-0.017,0.001-0.031,0.002-0.048,0.003C144.12,117.41,144.136,117.409,144.152,117.408z"/>
	<path opacity="0.2" fill="#F5F5F5" enable-background="new    " d="M144.104,117.411c0.016-0.001,0.031-0.002,0.048-0.003l0,0
		C144.136,117.409,144.12,117.41,144.104,117.411z"/>
	<path opacity="0.2" fill="#DADCD7" enable-background="new    " d="M144.104,117.411c0.016-0.001,0.031-0.002,0.048-0.003l0,0
		C144.136,117.409,144.12,117.41,144.104,117.411z"/>
	<path fill="#3E91B4" d="M144.152,117.408l-0.273-0.281h-0.052l0.277,0.285C144.12,117.41,144.136,117.409,144.152,117.408z"/>
	<path opacity="0.2" fill="#F5F5F5" enable-background="new    " d="M144.152,117.408l-0.273-0.281h-0.052l0.277,0.285
		C144.12,117.41,144.136,117.409,144.152,117.408z"/>
	<path opacity="0.2" fill="#DADCD7" enable-background="new    " d="M144.152,117.408l-0.273-0.281h-0.052l0.277,0.285
		C144.12,117.41,144.136,117.409,144.152,117.408z"/>
	<path fill="#3E91B4" d="M144.709,118.032l4.224,4.323l0.055,0.156h0.133l-4.812-4.944l-0.155-0.159
		c-0.017,0.001-0.031,0.002-0.048,0.003L144.709,118.032z"/>
	<path opacity="0.2" fill="#F5F5F5" enable-background="new    " d="M144.709,118.032l4.224,4.323l0.055,0.156h0.133l-4.812-4.944
		l-0.155-0.159c-0.017,0.001-0.031,0.002-0.048,0.003L144.709,118.032z"/>
	<path opacity="0.2" fill="#F5F5F5" enable-background="new    " d="M144.709,118.032l4.224,4.323l0.055,0.156h0.133l-4.812-4.944
		l-0.155-0.159c-0.017,0.001-0.031,0.002-0.048,0.003L144.709,118.032z"/>
	<path opacity="0.2" fill="#DADCD7" enable-background="new    " d="M144.709,118.032l4.224,4.323l0.055,0.156h0.133l-4.812-4.944
		l-0.155-0.159c-0.017,0.001-0.031,0.002-0.048,0.003L144.709,118.032z"/>
	<polygon fill="#6D736D" points="144.709,118.032 144.101,117.411 143.823,117.127 124.115,117.046 122.199,117.038 122.558,117.46 
		122.814,117.76 125.834,121.306 126.861,122.512 131.169,122.512 148.986,122.512 148.933,122.355 	"/>
	<polygon opacity="0.2" fill="#DADCD7" enable-background="new    " points="144.709,118.032 144.101,117.411 143.823,117.127 
		124.115,117.046 122.199,117.038 122.558,117.46 122.814,117.76 125.834,121.306 126.861,122.512 131.169,122.512 148.986,122.512 
		148.933,122.355 	"/>
</g>
</svg>
