<?xml version="1.0" encoding="utf-8"?>
<!-- Generator: Adobe Illustrator 15.0.2, SVG Export Plug-In . SVG Version: 6.00 Build 0)  -->
<!DOCTYPE svg PUBLIC "-//W3C//DTD SVG 1.1//EN" "http://www.w3.org/Graphics/SVG/1.1/DTD/svg11.dtd">
<svg version="1.1" id="Layer_1" xmlns="http://www.w3.org/2000/svg" xmlns:xlink="http://www.w3.org/1999/xlink" x="0px" y="0px"
	 width="140px" height="140px" viewBox="70 70 140 140" enable-background="new 70 70 140 140" xml:space="preserve">
<g>
	<circle fill="#3E91B4" cx="140" cy="140" r="56.334"/>
	<g>
		<path fill="#02638C" d="M130.771,108.364c14.086,0,25.665,9.673,26.693,21.903h-0.123c-0.993-8.484-9.053-15.099-18.85-15.099
			c-9.794,0-17.854,6.614-18.849,15.099h-15.564C105.106,118.037,116.686,108.364,130.771,108.364z"/>
		
			<linearGradient id="SVGID_1_" gradientUnits="userSpaceOnUse" x1="2721.5635" y1="625.5947" x2="2647.252" y2="625.5947" gradientTransform="matrix(-1 0 0 1 2823.5938 -511)">
			<stop  offset="0" style="stop-color:#FFFFFF"/>
			<stop  offset="0.1948" style="stop-color:#FAFAFA"/>
			<stop  offset="0.4355" style="stop-color:#EBECEB"/>
			<stop  offset="0.7003" style="stop-color:#D3D4D1"/>
			<stop  offset="0.9808" style="stop-color:#B1B3AF"/>
			<stop  offset="1" style="stop-color:#AEB1AC"/>
		</linearGradient>
		<path fill="url(#SVGID_1_)" d="M131.464,105.638c-15.598,0-28.405,10.894-29.425,24.629h-0.01
			c1.034-17.467,17.273-31.348,37.155-31.348c19.884,0,36.123,13.882,37.157,31.348h-15.45
			C159.866,116.531,147.061,105.638,131.464,105.638z"/>
		<g>
			<polygon fill="#FFFFFF" points="109.013,150.508 120.408,150.508 120.408,144.039 109.013,144.039 109.013,139.491 
				123.978,139.491 123.978,133.023 101.912,133.023 101.912,161.719 124.016,161.719 124.016,155.252 109.013,155.252 			"/>
			<path fill="#FFFFFF" d="M141.408,133.023h-11.821v28.697h7.14v-8.29h4.089c7.11,0,11.705-4.021,11.705-10.244v-0.078
				C152.521,136.981,148.158,133.023,141.408,133.023z M136.727,139.571h4.169c1.645,0,4.404,0.473,4.404,3.652v0.081
				c0,2.222-1.683,3.654-4.287,3.654h-4.287V139.571L136.727,139.571z"/>
			<path fill="#FFFFFF" d="M169.059,144.134c-4.871-1.247-5.562-1.784-5.562-3.12v-0.076c0-1.142,1.185-1.879,3.021-1.879
				c2.082,0,4.334,0.862,6.885,2.629l0.437,0.304l3.74-5.422l-0.384-0.31c-3.002-2.409-6.565-3.629-10.6-3.629
				c-6.006,0-10.201,3.644-10.201,8.859v0.077c0,6.043,4.143,7.58,9.558,8.964c4.821,1.237,5.171,1.958,5.171,3v0.079
				c0,1.301-1.294,2.076-3.459,2.076c-2.727,0-5.24-1.026-7.915-3.233l-0.405-0.337l-4.261,5.102l0.384,0.344
				c3.291,2.938,7.58,4.557,12.079,4.557c6.486,0,10.677-3.571,10.677-9.098v-0.08C178.223,147.613,174.561,145.566,169.059,144.134
				z"/>
		</g>
		<path fill="#FFFFFF" d="M101.778,165.795h3.093v0.803h-2.214v1.348h1.495v0.811h-1.495v1.645h2.239v0.797h-3.117L101.778,165.795
			L101.778,165.795z"/>
		<path fill="#FFFFFF" d="M105.43,167.004h0.855v0.298c0.615-0.282,0.728-0.337,1.007-0.337c0.647,0,1.094,0.482,1.094,1.117v3.113
			h-0.855v-2.93c0-0.275-0.167-0.644-0.615-0.644c-0.431,0-0.631,0.367-0.631,0.636v2.938h-0.855V167.004L105.43,167.004z"/>
		<path fill="#FFFFFF" d="M109.083,168.373c0-0.85,0.638-1.408,1.479-1.408c0.838,0,1.478,0.559,1.478,1.408v0.695h-2.102v0.758
			c0,0.398,0.232,0.674,0.624,0.674c0.391,0,0.623-0.275,0.623-0.674h0.855c-0.015,0.835-0.647,1.408-1.478,1.408
			c-0.84,0-1.479-0.535-1.479-1.408V168.373z M111.184,168.449v-0.1c0-0.398-0.231-0.675-0.623-0.675s-0.624,0.275-0.624,0.675v0.1
			H111.184z"/>
		<path fill="#FFFFFF" d="M112.773,167.004h0.855v0.467c0.64-0.445,0.84-0.544,1.048-0.544v1.095c-0.112-0.069-0.265-0.1-0.401-0.1
			c-0.319,0-0.647,0.184-0.647,0.543v2.73h-0.855V167.004L112.773,167.004z"/>
		<path fill="#FFFFFF" d="M116.506,171.846c0.439,0,0.647-0.283,0.647-0.896v-0.054c-0.615,0.283-0.728,0.338-1.007,0.338
			c-0.647,0-1.094-0.482-1.094-1.116v-2.035c0-0.636,0.447-1.118,1.094-1.118c0.28,0,0.392,0.055,1.007,0.337v-0.298h0.855v4.055
			c0,1.019-0.647,1.522-1.511,1.522c-0.072,0-0.144,0-0.216-0.008L116.506,171.846z M117.153,168.259c0-0.269-0.2-0.636-0.631-0.636
			c-0.448,0-0.616,0.367-0.616,0.643v1.668c0,0.276,0.168,0.644,0.616,0.644c0.431,0,0.631-0.366,0.631-0.636V168.259z"/>
		<path fill="#FFFFFF" d="M118.999,171.746c0.303,0,0.614-0.197,0.639-0.467l-1.295-4.276h0.896l0.814,2.976l0.792-2.976h0.847
			l-1.278,4.36c-0.2,0.674-0.703,1.125-1.566,1.072L118.999,171.746z"/>
		<path fill="#02638C" d="M122.291,165.795h1.942c1.143,0,1.87,0.612,1.87,1.63c0,1.017-0.728,1.63-1.87,1.63h-1.063v2.143h-0.879
			V165.795z M124.169,168.266c0.656,0,1.048-0.336,1.048-0.842c0-0.505-0.392-0.842-1.048-0.842h-0.999v1.684H124.169
			L124.169,168.266z"/>
		<path fill="#02638C" d="M126.318,168.373c0-0.85,0.639-1.408,1.479-1.408c0.84,0,1.479,0.559,1.479,1.408v0.695h-2.102v0.758
			c0,0.398,0.231,0.674,0.623,0.674c0.393,0,0.624-0.275,0.624-0.674h0.855c-0.016,0.835-0.646,1.408-1.479,1.408
			c-0.839,0-1.479-0.535-1.479-1.408V168.373L126.318,168.373z M128.42,168.449v-0.1c0-0.398-0.231-0.675-0.624-0.675
			c-0.392,0-0.623,0.275-0.623,0.675v0.1H128.42z"/>
		<path fill="#02638C" d="M130.01,167.004h0.856v0.467c0.639-0.445,0.838-0.544,1.047-0.544v1.095c-0.113-0.069-0.264-0.1-0.399-0.1
			c-0.32,0-0.647,0.184-0.647,0.543v2.73h-0.856L130.01,167.004L130.01,167.004z"/>
		<path fill="#02638C" d="M132.951,167.867h-0.464v-0.78h0.487v-0.176c0-0.772,0.623-1.339,1.423-1.339v0.796
			c-0.439,0-0.6,0.252-0.6,0.719h0.528v0.78h-0.52v3.328h-0.855L132.951,167.867L132.951,167.867z"/>
		<path fill="#02638C" d="M134.773,168.373c0-0.85,0.639-1.408,1.479-1.408c0.839,0,1.479,0.535,1.479,1.408v1.422
			c0,0.85-0.64,1.439-1.479,1.439c-0.84,0-1.479-0.566-1.479-1.439V168.373z M136.875,168.373c0-0.398-0.232-0.674-0.624-0.674
			c-0.391,0-0.624,0.275-0.624,0.674v1.452c0,0.399,0.233,0.675,0.624,0.675c0.392,0,0.624-0.275,0.624-0.675V168.373z"/>
		<path fill="#02638C" d="M138.465,167.004h0.855v0.467c0.639-0.445,0.839-0.544,1.047-0.544v1.095
			c-0.113-0.069-0.264-0.1-0.399-0.1c-0.32,0-0.647,0.184-0.647,0.543v2.73h-0.855L138.465,167.004L138.465,167.004z"/>
		<path fill="#02638C" d="M140.822,167.004h0.854v0.298c0.615-0.282,0.728-0.337,1.007-0.337c0.377,0,0.688,0.168,0.881,0.436
			c0.83-0.381,0.949-0.436,1.222-0.436c0.647,0,1.096,0.482,1.096,1.117v3.113h-0.856v-2.93c0-0.275-0.166-0.644-0.613-0.644
			c-0.415,0-0.615,0.329-0.633,0.597v2.977h-0.854v-2.93c0-0.275-0.168-0.644-0.615-0.644c-0.433,0-0.631,0.367-0.631,0.636v2.938
			h-0.855v-4.191H140.822z"/>
		<path fill="#02638C" d="M148.718,170.852c-0.544,0.359-0.673,0.383-0.95,0.383c-0.625,0-1.207-0.352-1.207-1.14
			c0-0.888,0.719-1.284,1.605-1.284h0.553v-0.438c0-0.396-0.199-0.673-0.592-0.673s-0.625,0.274-0.625,0.673h-0.854
			c0-0.818,0.639-1.408,1.479-1.408c0.839,0,1.446,0.536,1.446,1.408v2.822h-0.854L148.718,170.852L148.718,170.852z
			 M148.718,169.398h-0.456c-0.639,0-0.847,0.252-0.847,0.649c0,0.321,0.224,0.543,0.528,0.543c0.358,0,0.774-0.245,0.774-0.666
			V169.398L148.718,169.398z"/>
		<path fill="#02638C" d="M150.387,167.004h0.855v0.298c0.615-0.282,0.729-0.337,1.008-0.337c0.646,0,1.094,0.482,1.094,1.117v3.113
			h-0.855v-2.93c0-0.275-0.166-0.644-0.614-0.644c-0.433,0-0.631,0.367-0.631,0.636v2.938h-0.854v-4.191H150.387z"/>
		<path fill="#02638C" d="M154.039,168.373c0-0.85,0.641-1.408,1.479-1.408c0.832,0,1.479,0.535,1.479,1.408h-0.854
			c0-0.398-0.231-0.674-0.623-0.674s-0.623,0.275-0.623,0.674v1.452c0,0.399,0.231,0.675,0.623,0.675s0.623-0.275,0.623-0.675h0.854
			c-0.017,0.835-0.647,1.407-1.479,1.407c-0.838,0-1.479-0.534-1.479-1.407V168.373z"/>
		<path fill="#02638C" d="M157.491,168.373c0-0.85,0.64-1.408,1.479-1.408c0.838,0,1.479,0.559,1.479,1.408v0.695h-2.102v0.758
			c0,0.398,0.23,0.674,0.623,0.674c0.391,0,0.622-0.275,0.622-0.674h0.855c-0.017,0.835-0.647,1.408-1.479,1.408
			c-0.839,0-1.479-0.535-1.479-1.408L157.491,168.373L157.491,168.373z M159.594,168.449v-0.1c0-0.398-0.232-0.675-0.623-0.675
			c-0.393,0-0.623,0.275-0.623,0.675v0.1H159.594z"/>
		<path fill="#FFFFFF" d="M161.889,169.42c0.041,0.666,0.435,1.064,1.065,1.064c0.517,0,0.918-0.322,0.918-0.758
			c0-1.14-2.722-0.658-2.722-2.472c0-0.864,0.787-1.499,1.738-1.499c1.008,0,1.737,0.674,1.737,1.69h-0.901
			c-0.041-0.628-0.377-0.94-0.879-0.94c-0.441,0-0.777,0.29-0.777,0.688c0,1.024,2.721,0.688,2.721,2.455
			c0,0.903-0.876,1.584-1.9,1.584c-1.14,0-1.902-0.719-1.902-1.813L161.889,169.42L161.889,169.42z"/>
		<path fill="#FFFFFF" d="M165.256,168.373c0-0.85,0.656-1.408,1.516-1.408c0.854,0,1.518,0.535,1.518,1.408h-0.876
			c0-0.398-0.239-0.674-0.642-0.674c-0.401,0-0.64,0.275-0.64,0.674v1.452c0,0.399,0.239,0.675,0.64,0.675
			c0.402,0,0.642-0.275,0.642-0.675h0.876c-0.018,0.835-0.663,1.407-1.518,1.407c-0.858,0-1.516-0.534-1.516-1.407V168.373z"/>
		<path fill="#FFFFFF" d="M168.826,168.373c0-0.85,0.656-1.408,1.518-1.408c0.86,0,1.516,0.535,1.516,1.408v1.422
			c0,0.85-0.655,1.439-1.516,1.439c-0.859,0-1.518-0.566-1.518-1.439V168.373z M170.982,168.373c0-0.398-0.237-0.674-0.64-0.674
			c-0.399,0-0.639,0.275-0.639,0.674v1.452c0,0.399,0.237,0.675,0.639,0.675s0.64-0.275,0.64-0.675V168.373z"/>
		<path fill="#FFFFFF" d="M172.646,167.004h0.877v0.467c0.654-0.445,0.859-0.544,1.072-0.544v1.095c-0.115-0.069-0.271-0.1-0.41-0.1
			c-0.326,0-0.662,0.184-0.662,0.543v2.73h-0.877V167.004z"/>
		<path fill="#FFFFFF" d="M174.973,168.373c0-0.85,0.654-1.408,1.516-1.408s1.517,0.559,1.517,1.408v0.695h-2.155v0.758
			c0,0.398,0.237,0.674,0.64,0.674c0.401,0,0.639-0.275,0.639-0.674h0.877c-0.017,0.835-0.664,1.408-1.516,1.408
			c-0.861,0-1.517-0.535-1.517-1.408V168.373L174.973,168.373z M177.127,168.449v-0.1c0-0.398-0.236-0.675-0.639-0.675
			s-0.639,0.275-0.639,0.675v0.1H177.127z"/>
	</g>
</g>
</svg>
