<?xml version="1.0" encoding="utf-8"?>
<!-- Generator: Adobe Illustrator 15.0.2, SVG Export Plug-In . SVG Version: 6.00 Build 0)  -->
<!DOCTYPE svg PUBLIC "-//W3C//DTD SVG 1.1//EN" "http://www.w3.org/Graphics/SVG/1.1/DTD/svg11.dtd">
<svg version="1.1" id="Layer_1" xmlns="http://www.w3.org/2000/svg" xmlns:xlink="http://www.w3.org/1999/xlink" x="0px" y="0px"
	 width="140px" height="140px" viewBox="0 0 140 140" enable-background="new 0 0 140 140" xml:space="preserve">
<circle fill="#3E91B4" cx="70" cy="70" r="56.334"/>
<g>
	<path fill="#DCC847" d="M82.851,100.205c0,4.152,4.253,7.552,9.44,7.552l0,0c5.188,0,9.441-3.399,9.426-9.403V85.1
		c0.016-2.301-4.236,0-9.426,0l0,0c-5.188,0-9.44,3.4-9.44,7.553V100.205z"/>
	<path fill="#DCC847" d="M41.313,100.213c0,4.152,4.252,7.553,9.441,7.553l0,0c5.188,0,9.439-3.399,9.439-7.553V92.66
		c0-4.152-4.252-7.553-9.439-7.553l0,0c-5.188,0-9.441-0.375-9.441,3.775V100.213z"/>
	<path fill="#DCC847" d="M120.611,73.771c0,2.076-1.699,3.775-3.775,3.775h-15.104c-2.076,0-3.776-1.699-3.776-3.775V58.667
		c0-2.076,1.698-3.776,3.776-3.776h15.104c2.076,0,3.775,1.7,3.775,3.776V73.771z"/>
	<path fill="#DCC847" d="M19.725,51.13c-0.756-0.631-1.238,13.8,10.176,21.997s11.611-16.822,4.222-11.959
		C26.729,66.027,20.483,51.757,19.725,51.13z"/>
	<path fill="#DCC847" d="M110.553,38.064c1.549-3.74-21.09-3.349-20.714,15.352c0.372,18.704,15.702,11.814,13.29,1.759
		C100.71,45.13,109,41.809,110.553,38.064z"/>
	<path fill="#DCC847" d="M29.985,66.22c0,18.771,18.598,33.985,41.539,33.985c22.939,0,41.537-15.216,41.537-33.985
		c0-18.771-18.598-33.985-41.537-33.985C48.582,32.234,29.985,47.449,29.985,66.22z M52.642,43.562c0,0,9.386-3.776,16.938-3.776
		c7.551,0,17.047,3.776,17.047,3.776v7.553c0,0-9.496-3.777-17.047-3.777c-7.553,0-16.938,3.777-16.938,3.777V43.562z"/>
</g>
</svg>
