<?xml version="1.0" encoding="utf-8"?>
<!-- Generator: Adobe Illustrator 15.0.2, SVG Export Plug-In . SVG Version: 6.00 Build 0)  -->
<!DOCTYPE svg PUBLIC "-//W3C//DTD SVG 1.1//EN" "http://www.w3.org/Graphics/SVG/1.1/DTD/svg11.dtd">
<svg version="1.1" id="Layer_1" xmlns="http://www.w3.org/2000/svg" xmlns:xlink="http://www.w3.org/1999/xlink" x="0px" y="0px"
	 width="140px" height="140px" viewBox="70 70 140 140" enable-background="new 70 70 140 140" xml:space="preserve">
<g>
	<circle fill="#3E91B4" cx="140.237" cy="140" r="56.334"/>
	<polygon fill="#DCC847" points="91.468,146.799 91.218,177.799 149.468,190.549 186.718,180.799 186.468,154.299 192.138,151.83 
		168.218,128.05 110.968,120.05 	"/>
	<polygon fill="#3E91B4" points="95.843,143.424 141.719,153.799 158.718,129.675 116.843,121.05 	"/>
	<path fill="#6D736D" d="M132.755,163.898c-0.402-0.092-4.236-0.914-6.777-1.373c-1.395-0.254-2.288-0.388-2.288,1.248v9.072
		c0,0.992,0.306,1.768,1.575,2.037c1.181,0.256,5.68,1.25,7.633,1.604c1.409,0.254,1.792-0.629,1.792-1.697v-8.627
		C134.689,164.457,133.893,164.158,132.755,163.898L132.755,163.898z M110.861,159.779c-0.381-0.086-4.051-0.877-6.492-1.32
		c-1.344-0.242-2.18-0.375-2.18,1.2v8.729c0,0.952,0.29,1.698,1.507,1.96c1.14,0.242,5.428,1.199,7.306,1.54
		c1.356,0.245,1.687-0.605,1.687-1.632v-8.297C112.689,160.316,111.958,160.029,110.861,159.779L110.861,159.779z M188.381,151.488
		c-2.687,0.475-3.252,2.1-3.252,3.377l0.2,10.875l0.234,13.025c0,1.074,0,1.074-1.094,1.449c-0.76,0.261-3.42,1.104-7.693,2.299
		c-1.223,0.299-1.088-0.043-1.088-1.578v-18.154c0-1.964-0.993-1.82-2.664-1.557c-3.047,0.478-7.549,1.207-8.026,1.307
		c-1.368,0.28-2.31,0.613-2.31,2.664v19.23c0,1.256,0.309,1.918-1.028,2.275c-3.373,0.954-6.901,1.909-8.048,2.284
		c-0.362,0.121-0.771,0.226-1.219,0.31c-1.179,0.278-1.312-0.826-1.312-1.799c0-0.98-0.146-9.908-0.334-15.43
		c-0.172-5.008-0.279-8.411-1.057-8.411c-0.773,0-0.822,5.159-0.822,8.153c0,2.992-0.568,14.706-0.568,15.841
		c0,1.133-0.732,1.543-2.007,1.235c-3.341-0.801-11.49-2.665-23.287-5.359c-12.677-2.896-28.453-6.501-29.618-6.855
		c0,0-0.155-0.062-0.301-0.121c-0.018-0.226-0.025-0.51-0.025-0.849c0-0.116,0.002-26.291,0.002-26.291
		c0-0.37-0.036-0.7-0.088-1.008c14.643,3.043,44.25,8.904,50.609,10.047c0.706,0.125,1.882-0.168,2.523-0.798
		c2.488-2.45,7.684-8.956,11.636-14.054c3.545-4.57,7.769-10.111,10.035-13.045c0.909-1.181,1.071-1.038,2.18-0.038c0,0,0,0,0.001,0
		c4.958,5.5,15.188,16.64,19.025,20.789C188.796,151.338,188.381,151.488,188.381,151.488L188.381,151.488z M100.757,140.75
		c1.07-1.178,12.375-13.346,13.446-14.629c1.071-1.286,1.607-1.931,3.534-1.5c0,0,32.222,4.895,34.363,5.429
		c2.145,0.535,0.445,2.175-0.521,3.566c-0.962,1.395-11.458,14.675-12.422,15.746c-0.965,1.07-2.035,1.712-3.748,1.392
		c-1.715-0.32-32.444-6.401-34.586-6.938S99.687,141.928,100.757,140.75L100.757,140.75z M192.138,151.33
		c-0.711-0.711-18.119-19.703-22.188-24.146c-0.539-0.588-1.277-0.984-2.064-1.097c-8.076-1.156-53.625-7.678-55.897-8.006
		c-2.497-0.357-3.314,0.546-4.742,2.006c-5.933,6.058-21.383,21.852-23.089,23.731c-1.042,1.15-0.941,2.431,0.14,2.729
		c0.683,0.189,1.452,0.334,2.289,0.492c0.825,0.185,1.885,0.416,3.168,0.688c0.604,0.201,0.936,0.558,0.936,1.68v25.462
		c0,2.651-0.123,3.36,1.973,4.024s52.338,11.979,54.57,12.635c2.236,0.65,5.343,0.265,7.123-0.323
		c4.006-1.314,28.531-7.978,30.867-8.779c1.414-0.484,2.676-1.008,2.676-3.662c0-2.652-0.432-21.789-0.432-23.9
		c0-1.001,0.95-0.98,1.68-1.145c0.715-0.161,1.763-0.273,2.707-0.498C193.142,152.918,192.942,152.133,192.138,151.33
		L192.138,151.33z"/>
	<g>
		<path fill="#F5F5F5" d="M153.188,127.015h-1v-3h1V127.015z M153.188,121.015h-1v-2.5h1V121.015z M153.188,115.515h-1v-2.5h1
			V115.515z M153.188,110.015h-1v-2.5h1V110.015z M153.188,104.515h-1v-2.5h1V104.515z"/>
	</g>
	<g>
		<path fill="#F5F5F5" d="M100.189,139.515h-1v-3h1V139.515z M100.189,134.015h-1v-3h1V134.015z M100.189,128.515h-1v-3h1V128.515z
			 M100.189,123.015h-1v-3h1V123.015z M100.189,117.515h-1v-3h1V117.515z"/>
	</g>
	<g>
		<path fill="#AEB1AC" d="M100.257,109.001L100.257,109.001c1.07-1.179,12.375-13.347,13.446-14.63
			c1.071-1.286,1.607-1.931,3.534-1.5c0,0,32.222,4.895,34.363,5.429c2.145,0.535,0.445,2.175-0.521,3.566
			c-0.962,1.395-11.458,14.676-12.422,15.746c-0.965,1.071-2.035,1.712-3.748,1.393c-1.715-0.32-32.444-6.402-34.586-6.938
			C98.184,111.528,99.187,110.178,100.257,109.001"/>
		<path fill="#DADCD7" d="M138.866,103.447c0.168-0.195,0.315-0.373,0.423-0.495c1.359-1.562,3.23-4.125,2.798-4.305
			c-0.409-0.167-1.794,1.486-3.71,3.797c-0.201,0.241-0.426,0.517-0.665,0.81c-1.355-0.229-4.831-0.81-8.569-1.439
			c0.254-0.299,0.468-0.543,0.617-0.709c1.364-1.522,3.242-4.03,2.808-4.208c-0.409-0.168-1.805,1.446-3.728,3.703
			c-0.257,0.299-0.549,0.646-0.86,1.017c-3.126-0.525-6.29-1.062-8.46-1.434c0.313-0.354,0.572-0.645,0.744-0.83
			c1.375-1.478,3.256-3.923,2.798-4.128c-0.429-0.189-1.832,1.377-3.762,3.567c-0.301,0.338-0.651,0.738-1.025,1.175
			c-0.532-0.093-0.945-0.166-1.201-0.213c-2.464-0.453-5.656-0.706-5.688-0.352c-0.049,0.604,4.229,1.258,5.588,1.51
			c0.083,0.016,0.226,0.041,0.418,0.073c-1.398,1.621-3.004,3.49-4.188,4.823c-0.382,0.429-0.884,0.519-1.266,0.442l0.001,0.001
			c-2.084-0.402-5.5-0.95-5.636-0.463c-0.131,0.491,2.597,1.224,4.69,1.724h-0.002c0.425,0,0.462,0.288,0.147,0.646
			c-1.303,1.466-2.711,3.224-2.468,3.471c0.307,0.306,2.848-2.369,4.221-3.848c0.025-0.025,0.055-0.071,0.082-0.102
			c1.832,0.328,5.16,0.934,8.549,1.557c-1.414,1.54-3.564,4.221-3.283,4.501c0.287,0.287,2.812-2.451,4.178-3.979
			c0.079-0.087,0.174-0.196,0.276-0.312c3.556,0.652,6.992,1.284,8.63,1.58c-0.049,0.06-0.104,0.12-0.151,0.174
			c-1.406,1.562-3.627,4.401-3.342,4.691c0.287,0.291,2.796-2.515,4.155-4.078c0.133-0.151,0.307-0.356,0.496-0.583
			c1.976,0.331,6.492,1.032,6.589,0.651c0.086-0.353-3.579-1.238-5.751-1.66c1.385-1.679,3.321-4.068,4.666-5.704
			c1.613,0.241,6.221,0.946,6.318,0.42C144.391,104.447,140.921,103.799,138.866,103.447z M122.296,107.848
			c-3.367-0.628-6.704-1.254-8.513-1.595c1.305-1.481,3.266-3.761,4.715-5.422c1.917,0.334,5.174,0.896,8.47,1.466
			C125.402,104.174,123.531,106.424,122.296,107.848z M132.057,109.647c-1.244-0.215-4.835-0.88-8.621-1.587
			c1.335-1.566,3.281-3.901,4.683-5.564c3.548,0.61,6.954,1.191,8.587,1.463C135.186,105.828,133.337,108.121,132.057,109.647z"/>
	</g>
</g>
</svg>
