<?xml version="1.0" encoding="utf-8"?>
<!-- Generator: Adobe Illustrator 15.0.2, SVG Export Plug-In . SVG Version: 6.00 Build 0)  -->
<!DOCTYPE svg PUBLIC "-//W3C//DTD SVG 1.1//EN" "http://www.w3.org/Graphics/SVG/1.1/DTD/svg11.dtd">
<svg version="1.1" id="Layer_1" xmlns="http://www.w3.org/2000/svg" xmlns:xlink="http://www.w3.org/1999/xlink" x="0px" y="0px"
	 width="140px" height="140px" viewBox="70 70 140 140" enable-background="new 70 70 140 140" xml:space="preserve">
<g>
	<circle fill="#3E91B4" cx="140" cy="140" r="56.333"/>
	<g>
		<g>
			<g>
				<defs>
					<circle id="SVGID_1_" cx="140" cy="140" r="56.333"/>
				</defs>
				<clipPath id="SVGID_2_">
					<use xlink:href="#SVGID_1_"  overflow="visible"/>
				</clipPath>
				
					<ellipse opacity="0.1" clip-path="url(#SVGID_2_)" fill="#F5F5F5" enable-background="new    " cx="230" cy="208.715" rx="123.346" ry="117.833"/>
			</g>
		</g>
	</g>
	<path fill="#B2DBDB" d="M166.264,169.017c0-3.779-2.82-6.43-6.646-6.43c-3.833,0-6.626,2.65-6.626,6.43
		c0,3.775,2.793,6.402,6.626,6.402C163.442,175.419,166.264,172.792,166.264,169.017 M162.651,169.017
		c0,1.711-0.989,3.283-3.039,3.283c-2.046,0-3.009-1.387-3.009-3.283c0-1.9,0.963-3.309,3.009-3.309
		C161.662,165.708,162.651,167.14,162.651,169.017"/>
	<path fill="#FFFFFF" d="M123.524,172.676l-2.296-1.948c-0.942,1.008-1.826,1.573-3.234,1.573c-1.724,0-2.846-1.315-2.846-3.286
		c0-2.016,1.123-3.306,2.846-3.306c1.461,0,2.319,0.728,3.129,1.757l2.375-2.154c-1.148-1.574-2.821-2.722-5.429-2.722
		c-3.809,0-6.573,2.647-6.573,6.427c0,3.775,2.843,6.404,6.418,6.404C120.629,175.419,122.196,174.272,123.524,172.676
		 M135.763,169.015c0-3.517-2.115-6.426-5.766-6.426c-3.474,0-6.108,2.648-6.108,6.426c0,3.895,2.504,6.404,6.444,6.404
		c1.828,0,3.81-0.727,4.906-1.992l-2.556-1.925c-0.521,0.54-1.357,0.868-2.35,0.868c-1.304,0-2.687-0.635-2.819-2.322h8.195
		C135.734,169.815,135.763,169.485,135.763,169.015 M132.266,167.479h-4.698c0.127-1.238,0.938-2.076,2.245-2.076
		C131.431,165.403,132.161,166.378,132.266,167.479 M153.28,162.847h-3.453l-1.165,4.551c-0.23,0.938-0.534,2.229-0.636,2.812
		c-0.153-0.926-0.517-2.137-0.714-2.812l-1.107-4.551h-3.324l-1.098,4.551c-0.277,0.961-0.581,1.877-0.682,2.486
		c-0.101-0.586-0.435-1.549-0.661-2.486l-1.17-4.551h-3.55l3.312,12.316h3.494l1.279-4.832c0.244-0.965,0.59-2.326,0.69-2.911
		c0.097,0.585,0.444,1.948,0.69,2.911l1.343,4.832h3.39L153.28,162.847L153.28,162.847z"/>
	<path fill="#B2DBDB" d="M155.891,144.151c0,3.832-1.278,4.717-6,4.717h-21.93c-4.719,0-6-0.885-6-4.717v-22.718l16.632-10.755
		l17.297,10.755V144.151L155.891,144.151z M138.393,97.816l-26.628,17.221v36.372c0,6.132,2.05,7.551,9.604,7.551h35.113
		c7.555,0,9.604-1.419,9.604-7.551v-36.372L138.393,97.816L138.393,97.816z M128.692,142.091h20.47v-17.23l-10.437-6.485
		l-10.034,6.485L128.692,142.091L128.692,142.091z"/>
</g>
</svg>
