<?xml version="1.0" encoding="utf-8"?>
<!-- Generator: Adobe Illustrator 15.0.2, SVG Export Plug-In . SVG Version: 6.00 Build 0)  -->
<!DOCTYPE svg PUBLIC "-//W3C//DTD SVG 1.1//EN" "http://www.w3.org/Graphics/SVG/1.1/DTD/svg11.dtd">
<svg version="1.1" id="Layer_1" xmlns="http://www.w3.org/2000/svg" xmlns:xlink="http://www.w3.org/1999/xlink" x="0px" y="0px"
	 width="140px" height="140px" viewBox="70 70 140 140" enable-background="new 70 70 140 140" xml:space="preserve">
<g>
	<circle fill="#3E91B4" cx="140" cy="140.154" r="56.333"/>
	<g>
		<polygon fill="#DADCD7" points="105.025,93.269 105.552,91.775 116.714,90.368 167.778,84.48 171.907,85.798 179.116,89.753 
			179.29,95.202 178.411,172.984 116.187,183.443 107.134,175.797 		"/>
		<polygon fill="#B2DBDB" points="133.501,103.288 133.149,119.723 159.866,116.12 159.954,100.387 159.163,99.773 		"/>
		<g>
			<path fill="#5F604B" d="M157.022,110.263l0.489-0.592l-0.454-0.398l-3.357,0.506l-0.477,0.54l0.465,0.446L157.022,110.263
				L157.022,110.263z M157.022,112.105l0.489-0.589l-0.454-0.4l-3.357,0.506l-0.477,0.539l0.465,0.448L157.022,112.105
				L157.022,112.105z M157.022,113.95l0.489-0.592l-0.454-0.4l-3.357,0.507l-0.477,0.539l0.465,0.447L157.022,113.95L157.022,113.95
				z M157.022,108.419l0.489-0.591l-0.454-0.398l-3.357,0.505l-0.477,0.54l0.465,0.447L157.022,108.419L157.022,108.419z
				 M145.233,110.366l0.102-2.851l-0.958-0.828l-0.14,3.841l0.457,0.385L145.233,110.366L145.233,110.366z M142.092,112.233
				l-0.106,2.9l0.459,0.374l0.536-0.549l0.103-2.851l-0.502-0.403L142.092,112.233L142.092,112.233z M145.165,114.893l-0.479,0.54
				l0.468,0.447l3.334-0.503l0.489-0.59l-0.455-0.399L145.165,114.893L145.165,114.893z M148.829,111.206l-0.106,2.922l0.456,0.389
				l0.539-0.562l0.104-2.875l-0.504-0.392L148.829,111.206L148.829,111.206z M138.451,115.881l-0.479,0.552l0.47,0.436l3.31-0.5
				l0.488-0.577l-0.455-0.412L138.451,115.881L138.451,115.881z M148.798,106.754l0.488-0.554l-0.453-0.437l-4.314,0.65l0.945,0.843
				L148.798,106.754L148.798,106.754z M142.061,107.744l0.489-0.554l-0.453-0.436l-3.31,0.499l-0.503,0.593l0.441,0.402
				L142.061,107.744L142.061,107.744z M145.345,110.565l-0.477,0.54l0.465,0.436l3.309-0.5l0.491-0.579l-0.455-0.4L145.345,110.565
				L145.345,110.565z M138.631,111.577l-0.503,0.592l0.442,0.402l3.333-0.501l0.489-0.555l-0.453-0.436L138.631,111.577
				L138.631,111.577z M138.443,112.806l-0.505-0.404l-0.489,0.53l-0.104,2.899l0.456,0.376l0.538-0.55L138.443,112.806
				L138.443,112.806z M138.493,111.395l0.104-2.876l-0.506-0.403l-0.488,0.517l-0.104,2.924l0.454,0.388L138.493,111.395
				L138.493,111.395z M158.792,115.225c-1.165,0.201-21.223,3.19-25.257,3.791c0.009-0.956,0.099-15.271,0.099-15.271
				s0-0.051-0.001-0.093c0.643-0.115,9.478-1.057,16.036-1.998c0,0,8.349-1.048,9.4-1.2
				C159.036,103.272,158.856,112.809,158.792,115.225L158.792,115.225z M159.104,98.847c-0.898,0.15-24.803,3.065-25.551,3.215
				c-1.487,0.297-1.396,0.998-1.396,1.796s-0.102,14.452-0.102,15.5c0,0.948,0.549,1.396,1.248,1.298
				c0.698-0.1,24.805-3.694,25.604-3.843c0.799-0.149,1.295-0.25,1.347-1.048c0.051-0.798,0.3-14.474,0.3-15.771
				C160.553,98.697,160.004,98.697,159.104,98.847L159.104,98.847z M162.685,124.505v2.213c0,0.764,0.28,1.406,1.29,1.275
				c1.396-0.184,6.358-0.977,7.2-1.115c0.908-0.148,1.074-0.697,1.074-1.404c0-0.919,0.013-1.337,0.013-2.508
				c0-1.172-0.524-1.102-1.522-0.971c-1.817,0.238-6.342,1.009-6.627,1.061C163.298,123.201,162.685,123.282,162.685,124.505
				L162.685,124.505z M156.508,124.265c-1.815,0.24-6.228,1.01-6.513,1.061c-0.814,0.145-1.312,0.228-1.312,1.449v2.212
				c0,0.764,0.161,1.407,1.172,1.275c1.396-0.182,6.296-0.974,7.142-1.115c0.906-0.148,1.047-0.695,1.047-1.404
				c0-0.919-0.004-1.336-0.004-2.508S157.507,124.135,156.508,124.265L156.508,124.265z M142.233,126.528
				c-1.818,0.239-6.396,1.008-6.681,1.06c-0.813,0.146-1.368,0.227-1.368,1.451v2.211c0,0.765,0.218,1.408,1.229,1.275
				c1.395-0.182,6.438-0.975,7.28-1.114c0.906-0.147,1.061-0.696,1.061-1.404c0-0.919,0.004-1.336,0.004-2.508
				C143.759,126.327,143.229,126.399,142.233,126.528L142.233,126.528z M127.971,128.819c-1.818,0.238-6.62,1.042-6.903,1.093
				c-0.816,0.145-1.383,0.226-1.383,1.45v2.211c0,0.765,0.232,1.407,1.241,1.274c1.397-0.182,6.653-1.007,7.499-1.147
				c0.908-0.148,1.062-0.697,1.062-1.404c0-0.918,0.004-1.336,0.004-2.508C129.492,128.616,128.968,128.688,127.971,128.819
				L127.971,128.819z M177.032,172.201c-0.008,0.221-0.02,0.352-0.028,0.449c-1.449,0.277-29.845,4.879-46.868,7.656l-13.412,2.164
				h-0.001c-1.229,0.5-1.495-0.641-1.495-1.52c0-1.035-0.089-76.958-0.089-77.556c0-3.017,0.774-2.918,1.46-3.285
				c0.856-0.456,9.221-1.362,16.938-2.397c7.713-1.037,34.276-4.491,37.1-5.056c2.822-0.565,1.882-1.504-0.282-1.127
				c-2.165,0.375-30.54,3.49-36.562,4.337c-6.022,0.846-18.484,2.093-19.235,2.093c-0.753,0-6.163-3.845-7.058-4.74
				c-0.895-0.894-0.895-0.892,0.221-1.023c12.167-1.433,57.91-6.848,59.778-6.943c0.74-0.008,0.951,0.115,1.931,0.681l0.61,0.352
				c1.029,0.581,5.639,3.043,6.635,3.526c0.662,0.321,1.453,0.843,1.453,1.512C178.124,91.854,177.064,171.096,177.032,172.201
				L177.032,172.201z M177.43,88.248c-0.944-0.457-5.5-2.891-6.539-3.478c-1.505-0.849-1.993-1.274-3.437-1.256
				c-1.447,0.019-59.888,6.898-61.815,7.128c-1.515,0.18-1.899,1.055-1.958,2.694c-0.062,1.765-0.332,77.225-0.332,78.656
				s0.103,2.25,0.408,2.559c0.307,0.307,9.026,8.396,9.818,9.109c0.789,0.713,1.476,0.912,2.686,0.699
				c1.243-0.215,59.991-9.766,61.143-10.016c1.148-0.25,1.328-0.895,1.366-2.092c0.035-1.197,1.091-78.614,1.091-80.928
				C179.862,90.023,178.96,88.989,177.43,88.248L177.43,88.248z"/>
			
				<ellipse transform="matrix(-0.2004 -0.9797 0.9797 -0.2004 24.8639 329.6873)" fill="#5F604B" cx="146.973" cy="154.697" rx="14.677" ry="15.819"/>
			
				<ellipse transform="matrix(-0.2004 -0.9797 0.9797 -0.2004 24.8602 329.6885)" fill="#DADCD7" cx="146.971" cy="154.699" rx="12.837" ry="13.836"/>
			<g>
				<path fill="#5F604B" d="M151.366,150.701c-0.008-1.158-0.01-1.781-0.623-1.742c-0.613,0.041-0.832,0.053-1.313,0.084
					c-0.37,0.023-0.647,0.207-0.655,1.266c-0.011,0.984-0.049,6.842-0.039,8.469c0.006,1.178,0.356,1.359,0.758,1.334l1.158-0.076
					c0.641-0.041,0.645-0.637,0.659-1.588C151.315,158.113,151.377,152.822,151.366,150.701L151.366,150.701z"/>
				<path fill="#5F604B" d="M145.208,150.934c-0.008-1.158-0.01-1.781-0.623-1.742s-0.832,0.053-1.312,0.084
					c-0.371,0.023-0.648,0.207-0.656,1.266c-0.01,0.984-0.049,6.844-0.039,8.469c0.006,1.18,0.356,1.359,0.758,1.334l1.158-0.074
					c0.641-0.041,0.646-0.639,0.66-1.59C145.157,158.346,145.22,153.055,145.208,150.934L145.208,150.934z"/>
			</g>
		</g>
	</g>
</g>
</svg>
