<?xml version="1.0" encoding="utf-8"?>
<!-- Generator: Adobe Illustrator 15.0.2, SVG Export Plug-In . SVG Version: 6.00 Build 0)  -->
<!DOCTYPE svg PUBLIC "-//W3C//DTD SVG 1.1//EN" "http://www.w3.org/Graphics/SVG/1.1/DTD/svg11.dtd">
<svg version="1.1" id="Layer_1" xmlns="http://www.w3.org/2000/svg" xmlns:xlink="http://www.w3.org/1999/xlink" x="0px" y="0px"
	 width="140px" height="140px" viewBox="70 70 140 140" enable-background="new 70 70 140 140" xml:space="preserve">
<g>
	<circle fill="#3E91B4" cx="139.999" cy="140" r="56.333"/>
	<g>
		<path fill="#02638C" d="M117.172,115.779h34.11c1.889,0,3.438-1.635,3.438-3.519v-6.778c0-1.884-1.551-3.704-3.438-3.704h-6.562
			v-2.934c0-1.884-1.758-3.566-3.643-3.566h-13.703c-1.884,0-3.653,1.684-3.653,3.566v2.934h-6.55c-1.888,0-3.45,1.82-3.45,3.704
			v6.778C113.723,114.145,115.284,115.779,117.172,115.779z"/>
		<path fill="#02638C" d="M151.708,131.121c-0.219,0-0.445,0.143-0.594,0.438l-0.62,1.22h3.091l-1.555-1.536
			C151.934,131.147,151.821,131.121,151.708,131.121z"/>
		<g>
			<g>
				<path fill="#02638C" d="M154.064,125.779l14.657-14.237v-4.419c0-0.943-1.004-1.344-1.948-1.344h-8.552v9.907
					c0,1.885-1.557,3.093-3.438,3.093h-41.11c-1.884,0-3.45-1.208-3.45-3.093v-9.907h-8.54c-0.944,0-1.46,0.399-1.46,1.344v78.796
					c0,0.943,0.516,1.859,1.46,1.859h65.091c0.944,0,1.948-0.916,1.948-1.859v-58.436l-7.932,7.813l-1.188,1.033l-2.512,1.979
					l-9.787,4.911c-0.352,0.178-0.689,0.22-1.025,0.22c-0.531,0-1.007-0.161-1.337-0.661h-34.72v-3h35.125l1.646-3.5h-36.77v-3.5
					h38.489l0.978-1.935c0.413-0.826,1.196-1.329,2.028-1.329l-37.994,0.067v-3.804L154.064,125.779L154.064,125.779z
					 M127.223,177.278h-17v-3.5h17V177.278z M158.222,170.278h-48v-3h48V170.278z M158.222,163.778h-48v-3.5h48V163.778z
					 M113.723,146.778h44.499v3h-44.499V146.778z M158.222,153.278v3.5h-48v-3.5H158.222z"/>
			</g>
			<path id="pencil_1_" fill="#02638C" d="M159.546,134.171l-5.717-5.716l24.029-24.03l5.717,5.717L159.546,134.171z
				 M156.421,136.886c0.449-0.226,0.592-0.639,0.315-0.916l-4.707-4.708c-0.276-0.276-0.688-0.135-0.915,0.316l-4.913,9.809
				c-0.226,0.45-0.041,0.636,0.41,0.408L156.421,136.886z M189.938,102.348l-4.286-4.286c-0.395-0.393-1.146-0.284-1.67,0.241
				l-0.956,0.954l-1.908,1.909l-0.952,0.953l0.713,0.715l4.289,4.289l0.715,0.714l0.953-0.953l1.908-1.91l0.955-0.954
				C190.222,103.494,190.331,102.743,189.938,102.348z"/>
		</g>
	</g>
	<g>
		<path fill="#DADCD7" d="M116.672,115.216h34.11c1.889,0,3.438-1.634,3.438-3.518v-6.778c0-1.884-1.551-3.705-3.438-3.705h-6.562
			v-2.933c0-1.885-1.758-3.567-3.643-3.567h-13.703c-1.884,0-3.653,1.684-3.653,3.567v2.933h-6.55c-1.888,0-3.45,1.821-3.45,3.705
			v6.778C113.222,113.581,114.783,115.216,116.672,115.216z"/>
		<path fill="#DADCD7" d="M151.206,130.558c-0.218,0-0.445,0.144-0.593,0.438l-0.62,1.219h3.092l-1.556-1.536
			C151.433,130.584,151.32,130.558,151.206,130.558z"/>
		<g>
			<g>
				<path fill="#DADCD7" d="M153.563,125.216l14.656-14.237v-4.419c0-0.942-1.004-1.344-1.947-1.344h-8.553v9.908
					c0,1.884-1.555,3.092-3.438,3.092h-41.11c-1.884,0-3.45-1.208-3.45-3.092v-9.908h-8.54c-0.944,0-1.46,0.4-1.46,1.344v78.796
					c0,0.943,0.516,1.859,1.46,1.859h65.091c0.945,0,1.947-0.916,1.947-1.859v-58.435l-7.932,7.812l-1.187,1.033l-2.511,1.979
					l-9.787,4.911c-0.353,0.178-0.69,0.22-1.027,0.22c-0.529,0-1.006-0.162-1.336-0.662h-34.72v-3h35.124l1.646-3.5H109.72v-3.5
					h38.488l0.979-1.934c0.413-0.826,1.195-1.329,2.027-1.329l-37.993,0.066v-3.804L153.563,125.216L153.563,125.216z
					 M126.722,176.715h-17v-3.5h17V176.715z M157.72,169.715h-47.999v-3h47.999V169.715z M157.72,163.215h-47.999v-3.5h47.999
					V163.215z M113.222,146.215h44.5v3h-44.5V146.215z M157.72,152.715v3.5h-47.999v-3.5H157.72z"/>
			</g>
			<path id="pencil_3_" fill="#DADCD7" d="M159.044,133.607l-5.715-5.716l24.028-24.029l5.717,5.717L159.044,133.607z
				 M155.921,136.322c0.448-0.227,0.592-0.64,0.314-0.916l-4.707-4.708c-0.277-0.277-0.689-0.136-0.915,0.315l-4.913,9.81
				c-0.226,0.45-0.041,0.635,0.41,0.407L155.921,136.322z M189.437,101.785l-4.286-4.286c-0.396-0.395-1.146-0.285-1.67,0.241
				l-0.956,0.954l-1.908,1.908l-0.953,0.953l0.715,0.715l4.287,4.289l0.715,0.714l0.955-0.952l1.907-1.91l0.955-0.954
				C189.722,102.931,189.829,102.18,189.437,101.785z"/>
		</g>
	</g>
</g>
</svg>
