<?xml version="1.0" encoding="utf-8"?>
<!-- Generator: Adobe Illustrator 15.0.2, SVG Export Plug-In . SVG Version: 6.00 Build 0)  -->
<!DOCTYPE svg PUBLIC "-//W3C//DTD SVG 1.1//EN" "http://www.w3.org/Graphics/SVG/1.1/DTD/svg11.dtd">
<svg version="1.1" id="Layer_1" xmlns="http://www.w3.org/2000/svg" xmlns:xlink="http://www.w3.org/1999/xlink" x="0px" y="0px"
	 width="140px" height="140px" viewBox="70 70 140 140" enable-background="new 70 70 140 140" xml:space="preserve">
<g>
	<path fill="#5F604B" d="M132.919,186.062l-3.812,0.875l-1.938,1.375l1.688,1.688c0,0,1.938-0.062,2.25-0.062s7.562-0.562,8-0.75
		c0.438-0.188,14.812-3.062,14.812-3.062l11.938-2.875l1.519-0.981l-0.206-1.769L132.919,186.062z"/>
	<circle fill="#3E91B4" cx="140" cy="139.886" r="56.334"/>
	<polygon fill="#DADCD7" points="119.272,84.537 123.414,83.385 144.817,82.465 157.705,83.154 167.371,84.537 170.823,85.918 
		170.133,185.108 153.562,187.179 128.016,191.321 123.644,192.703 121.573,184.878 	"/>
	<path fill="#5F604B" d="M129.365,139.102c-1.027,0.048-2.958,0.204-2.891,1.594c0.067,1.392,1.155,1.62,3.392,1.51
		c2.236-0.106,9.114-0.597,10.216-0.778c0.955-0.154,2.602-0.648,2.835-1.127c0.237-0.478,0.302-0.789-0.476-0.754
		c-0.773,0.037-8.514,0.467-8.693,0.477C133.567,140.031,131.986,138.972,129.365,139.102L129.365,139.102z M141.96,111.905
		c-0.772,0.011-8.523,0.162-8.705,0.164c-0.181,0.002-1.723-1.11-4.344-1.077c-1.029,0.012-2.966,0.099-2.947,1.49
		c0.017,1.391,1.095,1.66,3.334,1.631c2.24-0.027,9.131-0.27,10.238-0.412c0.96-0.123,2.621-0.556,2.874-1.024
		C142.662,112.208,142.736,111.897,141.96,111.905L141.96,111.905z M170.684,92.673l-0.336,21.563c0,0-0.164,6.431-0.164,7.448
		c0,0.062,0,0.152,0,0.229c0,0.005,0.057,0.008,0.057,0.011c-0.014,1.383-0.727,1.748-1.783,1.749
		c-4.906,0.194-16.576,0.648-20.787,0.715c-2.83,0.045-6.58,0.231-9.17,0.416c-2.432,0.176-2.705,1.174-0.035,1.232
		c2.393,0.052,6.027-0.107,9.486-0.107c4.801,0,15.896-0.468,20.586-0.674c1.477-0.062,1.648,0.827,1.648,1.728v0.004
		c0,3.158-0.229,14.522-0.443,25.563c-0.305,15.597-0.6,31.176-0.6,31.176l-44.038,7.299c-0.512-15.805-2.022-62.583-2.022-63.303
		c0-0.865,1.573-0.796,1.573-1.613c0-0.816-1.412-0.824-1.412-2.084c0-1.258-0.815-31.833-0.815-35.998
		c0-2.637,1.215-3.496,2.106-3.772c0.392-0.067,0.708-0.113,0.927-0.126c5.186-0.325,10.547-0.659,22.636-0.162
		c12.814,0.525,20.355,2.055,21.532,2.753c0.921,0.585,1.056,3.397,1.056,5.83L170.684,92.673L170.684,92.673z M173.069,92.678
		c0.009-4.158-0.334-6.822-2.158-7.984c-1.824-1.159-10.61-2.629-22.717-3.126c-12.105-0.497-17.577-0.167-22.884,0.166
		c-2.157,0.135-10.447,2.32-13.433,3.317c-2.56,0.854-3.647,2.984-3.482,5.638c0.167,2.652,2.82,89.05,2.82,91.372
		s0.165,3.648,0.662,4.148c0.496,0.494,10.281,10.442,11.276,11.271c0,0,1.202,1.204,1.686,1.204c0.482,0,41.42-7.675,42.687-7.933
		c0.972-0.201,1.157-0.627,1.157-1.1v-1.557c-10.5,1.755-33.67,5.684-37.048,6.26c-4.37,0.74-3.343-0.33-0.456-0.825
		c2.546-0.437,40.368-7.218,40.368-7.218s1.156-58.985,1.156-60.174c0-1.188-0.896-1.188-0.896-2.08
		c0-0.965,0.889-0.965,0.889-1.782C172.695,121.462,173.064,95.837,173.069,92.678L173.069,92.678z"/>
</g>
</svg>
