<?xml version="1.0" encoding="utf-8"?>
<!-- Generator: Adobe Illustrator 15.0.2, SVG Export Plug-In . SVG Version: 6.00 Build 0)  -->
<!DOCTYPE svg PUBLIC "-//W3C//DTD SVG 1.1//EN" "http://www.w3.org/Graphics/SVG/1.1/DTD/svg11.dtd">
<svg version="1.1" id="Layer_1" xmlns="http://www.w3.org/2000/svg" xmlns:xlink="http://www.w3.org/1999/xlink" x="0px" y="0px"
	 width="140px" height="140px" viewBox="70 70 140 140" enable-background="new 70 70 140 140" xml:space="preserve">
<g>
	<circle fill="#3E91B4" cx="140" cy="140" r="56.334"/>
	<g id="book_2_">
		<g id="book_3_">
			<polygon fill="#F6CB35" points="99,189 99,106.719 107.573,98.865 114.163,93 180,93 180,172.004 168,182.494 168,104 
				119.167,104 116.841,106 164,106 164,189 			"/>
			<path fill="#3E91B4" d="M178,94v3.688v3.876v69.777l-8,7.754V103h-51.39l-5.814,5H162v80h-62v-80.621l8.337-7.658L114.734,94H178
				 M181,91h-2.75h-63.516h-1.144l-0.854,0.886l-6.272,5.658l-8.368,7.592L97,106.06v1.319v80.371V191h3.25h62H165v-3.25v-80V106h2
				v73.096v6.799l4.896-4.582l8.312-7.754l0.791-0.893v-1.324v-69.777v-3.876V94.25L181,91L181,91z"/>
		</g>
	</g>
	<text transform="matrix(1 0 0 1 113.543 133.7236)" fill="#F36D31" font-family="'DIN-Regular'" font-size="13.0492">TEN </text>
	<text transform="matrix(1 0 0 1 113.543 149.3828)" fill="#F36D31" font-family="'DIN-Regular'" font-size="13.0492">YEAR </text>
	<text transform="matrix(1 0 0 1 113.543 165.042)" fill="#F36D31" font-family="'DIN-Regular'" font-size="13.0492">PL</text>
	<text transform="matrix(1 0 0 1 129.2412 165.042)" fill="#F36D31" font-family="'DIN-Regular'" font-size="13.0492">A</text>
	<text transform="matrix(1 0 0 1 137.4751 165.042)" fill="#F36D31" font-family="'DIN-Regular'" font-size="13.0492">N</text>
</g>
</svg>
