<?xml version="1.0" encoding="utf-8"?>
<!-- Generator: Adobe Illustrator 15.0.2, SVG Export Plug-In . SVG Version: 6.00 Build 0)  -->
<!DOCTYPE svg PUBLIC "-//W3C//DTD SVG 1.1//EN" "http://www.w3.org/Graphics/SVG/1.1/DTD/svg11.dtd">
<svg version="1.1" id="Layer_1" xmlns="http://www.w3.org/2000/svg" xmlns:xlink="http://www.w3.org/1999/xlink" x="0px" y="0px"
	 width="140px" height="140px" viewBox="70 70 140 140" enable-background="new 70 70 140 140" xml:space="preserve">
<g>
	<circle fill="#3E91B4" cx="140" cy="140" r="56.333"/>
	<g>
		<g>
			<path fill="#F5F5F5" d="M103.887,149.413c-1.889,1.888-4.066,2.903-7.225,2.903c-3.159,0-5.337-1.017-7.225-2.903
				c-2.723-2.724-2.614-6.354-2.614-10.238s-0.109-7.515,2.614-10.238c1.888-1.888,4.066-2.904,7.225-2.904
				c3.159,0,5.336,1.017,7.225,2.904c2.723,2.724,2.614,6.354,2.614,10.238C106.5,143.061,106.609,146.689,103.887,149.413z
				 M99.203,132.821c-0.472-0.617-1.38-1.125-2.542-1.125s-2.07,0.508-2.542,1.125c-0.581,0.763-0.944,1.634-0.944,6.354
				s0.363,5.556,0.944,6.317c0.472,0.617,1.38,1.162,2.542,1.162s2.069-0.545,2.542-1.162c0.581-0.764,0.944-1.598,0.944-6.317
				C100.147,134.456,99.784,133.584,99.203,132.821z"/>
			<path fill="#F5F5F5" d="M110.894,152.102V126.25h6.354v20.188h10.855v5.664H110.894z"/>
			<path fill="#F5F5F5" d="M147.708,152.102l-1.198-3.85h-7.951l-1.271,3.85h-6.645l9.403-25.852h4.901l9.402,25.852H147.708z
				 M142.661,136.053l-2.323,6.898h4.502L142.661,136.053z"/>
		</g>
		<text transform="matrix(1 0 0 1 158.6699 132.8994)" fill="#F5F5F5" font-family="'DIN-Regular'" font-size="8.0234">OREGON</text>
		<text transform="matrix(1 0 0 1 158.6699 142.5273)" fill="#F5F5F5" font-family="'DIN-Regular'" font-size="8.0234">LEADERS</text>
		<text transform="matrix(1 0 0 1 158.6699 152.1553)" fill="#F5F5F5" font-family="'DIN-Regular'" font-size="8.0234">AWARD</text>
	</g>
</g>
</svg>
