<?xml version="1.0" encoding="utf-8"?>
<!-- Generator: Adobe Illustrator 15.0.2, SVG Export Plug-In . SVG Version: 6.00 Build 0)  -->
<!DOCTYPE svg PUBLIC "-//W3C//DTD SVG 1.1//EN" "http://www.w3.org/Graphics/SVG/1.1/DTD/svg11.dtd">
<svg version="1.1" id="Layer_1" xmlns="http://www.w3.org/2000/svg" xmlns:xlink="http://www.w3.org/1999/xlink" x="0px" y="0px"
	 width="140px" height="140px" viewBox="70 70 140 140" enable-background="new 70 70 140 140" xml:space="preserve">
<g>
	<circle fill="#3E91B4" cx="140" cy="140" r="56.334"/>
	<path fill="#F5F5F5" d="M96.935,143.832l22.25,1l4.25-11l2.25-5.25l10.5,0.75c0,0,3.5,6.25,3.75,8.25s6.25,15.5,6.25,15.5
		l11.75-3.25l15.5,1.75l1.75,24.75l-5.5,5.5c0,0-24.5-0.25-25.5-0.75s-47.5-1.25-47.5-1.25l-3.25-27L96.935,143.832z"/>
	<g id="podium">
		<path fill="#F5F5F5" d="M177.438,148.172l14.715-14.714v36.786l-14.715,14.714V148.172z M148.008,148.172l14.715-14.714v-25.75
			l-14.715,14.714V148.172z"/>
		<path opacity="0.4" fill="#606049" enable-background="new    " d="M177.438,148.172l14.715-14.714v36.786l-14.715,14.714V148.172
			z M148.008,148.172l14.715-14.714v-25.75l-14.715,14.714V148.172z"/>
		<path fill="#DADCD7" d="M177.438,148.172h-29.43l14.715-14.714h29.43L177.438,148.172z M133.294,126.101h-29.429l-14.714,14.713
			h29.428L133.294,126.101z M162.723,107.708h-29.428l-14.715,14.714h29.428L162.723,107.708z"/>
		<path fill="#02638C" d="M148,149v-26h-30v18H89v44h29.58h29.428H177v-36H148z M116,161h-1v2h-2v2h-11v8h14v3H98v-11h2v-2h2v-2h11
			v-7H98v-4h15v2h2v2h1V161z M135,158h-4v-23h-4v-3h8V158z M171,165h-1v2h-3v2h4v7h-1v2h-3v2h-14v-4h14v-7h-10v-2h-2v-2h12v-7h-14
			v-4h14v2h3v2h1V165z"/>
	</g>
</g>
</svg>
